<?xml version="1.0" encoding="utf-8" standalone="no"?>
<!DOCTYPE svg PUBLIC "-//W3C//DTD SVG 1.1//EN"
  "http://www.w3.org/Graphics/SVG/1.1/DTD/svg11.dtd">
<svg xmlns:xlink="http://www.w3.org/1999/xlink" width="460.8pt" height="345.6pt" viewBox="0 0 460.8 345.6" xmlns="http://www.w3.org/2000/svg" version="1.1">
 <metadata>
  <rdf:RDF xmlns:dc="http://purl.org/dc/elements/1.1/" xmlns:cc="http://creativecommons.org/ns#" xmlns:rdf="http://www.w3.org/1999/02/22-rdf-syntax-ns#">
   <cc:Work>
    <dc:type rdf:resource="http://purl.org/dc/dcmitype/StillImage"/>
    <dc:date>2024-03-18T10:53:04.825913</dc:date>
    <dc:format>image/svg+xml</dc:format>
    <dc:creator>
     <cc:Agent>
      <dc:title>Matplotlib v3.6.3, https://matplotlib.org/</dc:title>
     </cc:Agent>
    </dc:creator>
   </cc:Work>
  </rdf:RDF>
 </metadata>
 <defs>
  <style type="text/css">*{stroke-linejoin: round; stroke-linecap: butt}</style>
 </defs>
 <g id="figure_1">
  <g id="patch_1">
   <path d="M 0 345.6 
L 460.8 345.6 
L 460.8 0 
L 0 0 
z
" style="fill: #ffffff"/>
  </g>
  <g id="axes_1">
   <g id="patch_2">
    <path d="M 57.6 307.584 
L 414.72 307.584 
L 414.72 41.472 
L 57.6 41.472 
z
" style="fill: #ffffff"/>
   </g>
   <g id="patch_3">
    <path d="M 73.832727 307.584 
L 78.405327 307.584 
L 78.405327 307.584 
L 73.832727 307.584 
z
" clip-path="url(#p4b16dfb5a3)" style="fill: #ff7f0e; fill-opacity: 0.5; stroke: #000000; stroke-width: 0.45726; stroke-linejoin: miter"/>
   </g>
   <g id="patch_4">
    <path d="M 78.405327 307.584 
L 82.977926 307.584 
L 82.977926 307.584 
L 78.405327 307.584 
z
" clip-path="url(#p4b16dfb5a3)" style="fill: #ff7f0e; fill-opacity: 0.5; stroke: #000000; stroke-width: 0.45726; stroke-linejoin: miter"/>
   </g>
   <g id="patch_5">
    <path d="M 82.977926 307.584 
L 87.550525 307.584 
L 87.550525 307.584 
L 82.977926 307.584 
z
" clip-path="url(#p4b16dfb5a3)" style="fill: #ff7f0e; fill-opacity: 0.5; stroke: #000000; stroke-width: 0.45726; stroke-linejoin: miter"/>
   </g>
   <g id="patch_6">
    <path d="M 87.550525 307.584 
L 92.123124 307.584 
L 92.123124 307.584 
L 87.550525 307.584 
z
" clip-path="url(#p4b16dfb5a3)" style="fill: #ff7f0e; fill-opacity: 0.5; stroke: #000000; stroke-width: 0.45726; stroke-linejoin: miter"/>
   </g>
   <g id="patch_7">
    <path d="M 92.123124 307.584 
L 96.695723 307.584 
L 96.695723 307.584 
L 92.123124 307.584 
z
" clip-path="url(#p4b16dfb5a3)" style="fill: #ff7f0e; fill-opacity: 0.5; stroke: #000000; stroke-width: 0.45726; stroke-linejoin: miter"/>
   </g>
   <g id="patch_8">
    <path d="M 96.695723 307.584 
L 101.268323 307.584 
L 101.268323 307.584 
L 96.695723 307.584 
z
" clip-path="url(#p4b16dfb5a3)" style="fill: #ff7f0e; fill-opacity: 0.5; stroke: #000000; stroke-width: 0.45726; stroke-linejoin: miter"/>
   </g>
   <g id="patch_9">
    <path d="M 101.268323 307.584 
L 105.840922 307.584 
L 105.840922 307.584 
L 101.268323 307.584 
z
" clip-path="url(#p4b16dfb5a3)" style="fill: #ff7f0e; fill-opacity: 0.5; stroke: #000000; stroke-width: 0.45726; stroke-linejoin: miter"/>
   </g>
   <g id="patch_10">
    <path d="M 105.840922 307.584 
L 110.413521 307.584 
L 110.413521 307.584 
L 105.840922 307.584 
z
" clip-path="url(#p4b16dfb5a3)" style="fill: #ff7f0e; fill-opacity: 0.5; stroke: #000000; stroke-width: 0.45726; stroke-linejoin: miter"/>
   </g>
   <g id="patch_11">
    <path d="M 110.413521 307.584 
L 114.98612 307.584 
L 114.98612 307.584 
L 110.413521 307.584 
z
" clip-path="url(#p4b16dfb5a3)" style="fill: #ff7f0e; fill-opacity: 0.5; stroke: #000000; stroke-width: 0.45726; stroke-linejoin: miter"/>
   </g>
   <g id="patch_12">
    <path d="M 114.98612 307.584 
L 119.55872 307.584 
L 119.55872 307.584 
L 114.98612 307.584 
z
" clip-path="url(#p4b16dfb5a3)" style="fill: #ff7f0e; fill-opacity: 0.5; stroke: #000000; stroke-width: 0.45726; stroke-linejoin: miter"/>
   </g>
   <g id="patch_13">
    <path d="M 119.55872 307.584 
L 124.131319 307.584 
L 124.131319 307.584 
L 119.55872 307.584 
z
" clip-path="url(#p4b16dfb5a3)" style="fill: #ff7f0e; fill-opacity: 0.5; stroke: #000000; stroke-width: 0.45726; stroke-linejoin: miter"/>
   </g>
   <g id="patch_14">
    <path d="M 124.131319 307.584 
L 128.703918 307.584 
L 128.703918 307.584 
L 124.131319 307.584 
z
" clip-path="url(#p4b16dfb5a3)" style="fill: #ff7f0e; fill-opacity: 0.5; stroke: #000000; stroke-width: 0.45726; stroke-linejoin: miter"/>
   </g>
   <g id="patch_15">
    <path d="M 128.703918 307.584 
L 133.276517 307.584 
L 133.276517 307.584 
L 128.703918 307.584 
z
" clip-path="url(#p4b16dfb5a3)" style="fill: #ff7f0e; fill-opacity: 0.5; stroke: #000000; stroke-width: 0.45726; stroke-linejoin: miter"/>
   </g>
   <g id="patch_16">
    <path d="M 133.276517 307.584 
L 137.849117 307.584 
L 137.849117 307.584 
L 133.276517 307.584 
z
" clip-path="url(#p4b16dfb5a3)" style="fill: #ff7f0e; fill-opacity: 0.5; stroke: #000000; stroke-width: 0.45726; stroke-linejoin: miter"/>
   </g>
   <g id="patch_17">
    <path d="M 137.849117 307.584 
L 142.421716 307.584 
L 142.421716 307.584 
L 137.849117 307.584 
z
" clip-path="url(#p4b16dfb5a3)" style="fill: #ff7f0e; fill-opacity: 0.5; stroke: #000000; stroke-width: 0.45726; stroke-linejoin: miter"/>
   </g>
   <g id="patch_18">
    <path d="M 142.421716 307.584 
L 146.994315 307.584 
L 146.994315 307.584 
L 142.421716 307.584 
z
" clip-path="url(#p4b16dfb5a3)" style="fill: #ff7f0e; fill-opacity: 0.5; stroke: #000000; stroke-width: 0.45726; stroke-linejoin: miter"/>
   </g>
   <g id="patch_19">
    <path d="M 146.994315 307.584 
L 151.566914 307.584 
L 151.566914 307.584 
L 146.994315 307.584 
z
" clip-path="url(#p4b16dfb5a3)" style="fill: #ff7f0e; fill-opacity: 0.5; stroke: #000000; stroke-width: 0.45726; stroke-linejoin: miter"/>
   </g>
   <g id="patch_20">
    <path d="M 151.566914 307.584 
L 156.139513 307.584 
L 156.139513 307.584 
L 151.566914 307.584 
z
" clip-path="url(#p4b16dfb5a3)" style="fill: #ff7f0e; fill-opacity: 0.5; stroke: #000000; stroke-width: 0.45726; stroke-linejoin: miter"/>
   </g>
   <g id="patch_21">
    <path d="M 156.139513 307.584 
L 160.712113 307.584 
L 160.712113 307.584 
L 156.139513 307.584 
z
" clip-path="url(#p4b16dfb5a3)" style="fill: #ff7f0e; fill-opacity: 0.5; stroke: #000000; stroke-width: 0.45726; stroke-linejoin: miter"/>
   </g>
   <g id="patch_22">
    <path d="M 160.712113 307.584 
L 165.284712 307.584 
L 165.284712 307.584 
L 160.712113 307.584 
z
" clip-path="url(#p4b16dfb5a3)" style="fill: #ff7f0e; fill-opacity: 0.5; stroke: #000000; stroke-width: 0.45726; stroke-linejoin: miter"/>
   </g>
   <g id="patch_23">
    <path d="M 165.284712 307.584 
L 169.857311 307.584 
L 169.857311 307.584 
L 165.284712 307.584 
z
" clip-path="url(#p4b16dfb5a3)" style="fill: #ff7f0e; fill-opacity: 0.5; stroke: #000000; stroke-width: 0.45726; stroke-linejoin: miter"/>
   </g>
   <g id="patch_24">
    <path d="M 169.857311 307.584 
L 174.42991 307.584 
L 174.42991 307.584 
L 169.857311 307.584 
z
" clip-path="url(#p4b16dfb5a3)" style="fill: #ff7f0e; fill-opacity: 0.5; stroke: #000000; stroke-width: 0.45726; stroke-linejoin: miter"/>
   </g>
   <g id="patch_25">
    <path d="M 174.42991 307.584 
L 179.00251 307.584 
L 179.00251 307.584 
L 174.42991 307.584 
z
" clip-path="url(#p4b16dfb5a3)" style="fill: #ff7f0e; fill-opacity: 0.5; stroke: #000000; stroke-width: 0.45726; stroke-linejoin: miter"/>
   </g>
   <g id="patch_26">
    <path d="M 179.00251 307.584 
L 183.575109 307.584 
L 183.575109 307.584 
L 179.00251 307.584 
z
" clip-path="url(#p4b16dfb5a3)" style="fill: #ff7f0e; fill-opacity: 0.5; stroke: #000000; stroke-width: 0.45726; stroke-linejoin: miter"/>
   </g>
   <g id="patch_27">
    <path d="M 183.575109 307.584 
L 188.147708 307.584 
L 188.147708 307.584 
L 183.575109 307.584 
z
" clip-path="url(#p4b16dfb5a3)" style="fill: #ff7f0e; fill-opacity: 0.5; stroke: #000000; stroke-width: 0.45726; stroke-linejoin: miter"/>
   </g>
   <g id="patch_28">
    <path d="M 188.147708 307.584 
L 192.720307 307.584 
L 192.720307 307.584 
L 188.147708 307.584 
z
" clip-path="url(#p4b16dfb5a3)" style="fill: #ff7f0e; fill-opacity: 0.5; stroke: #000000; stroke-width: 0.45726; stroke-linejoin: miter"/>
   </g>
   <g id="patch_29">
    <path d="M 192.720307 307.584 
L 197.292907 307.584 
L 197.292907 307.584 
L 192.720307 307.584 
z
" clip-path="url(#p4b16dfb5a3)" style="fill: #ff7f0e; fill-opacity: 0.5; stroke: #000000; stroke-width: 0.45726; stroke-linejoin: miter"/>
   </g>
   <g id="patch_30">
    <path d="M 197.292907 307.584 
L 201.865506 307.584 
L 201.865506 307.584 
L 197.292907 307.584 
z
" clip-path="url(#p4b16dfb5a3)" style="fill: #ff7f0e; fill-opacity: 0.5; stroke: #000000; stroke-width: 0.45726; stroke-linejoin: miter"/>
   </g>
   <g id="patch_31">
    <path d="M 201.865506 307.584 
L 206.438105 307.584 
L 206.438105 307.584 
L 201.865506 307.584 
z
" clip-path="url(#p4b16dfb5a3)" style="fill: #ff7f0e; fill-opacity: 0.5; stroke: #000000; stroke-width: 0.45726; stroke-linejoin: miter"/>
   </g>
   <g id="patch_32">
    <path d="M 206.438105 307.584 
L 211.010704 307.584 
L 211.010704 307.584 
L 206.438105 307.584 
z
" clip-path="url(#p4b16dfb5a3)" style="fill: #ff7f0e; fill-opacity: 0.5; stroke: #000000; stroke-width: 0.45726; stroke-linejoin: miter"/>
   </g>
   <g id="patch_33">
    <path d="M 211.010704 307.584 
L 215.583303 307.584 
L 215.583303 307.584 
L 211.010704 307.584 
z
" clip-path="url(#p4b16dfb5a3)" style="fill: #ff7f0e; fill-opacity: 0.5; stroke: #000000; stroke-width: 0.45726; stroke-linejoin: miter"/>
   </g>
   <g id="patch_34">
    <path d="M 215.583303 307.584 
L 220.155903 307.584 
L 220.155903 307.584 
L 215.583303 307.584 
z
" clip-path="url(#p4b16dfb5a3)" style="fill: #ff7f0e; fill-opacity: 0.5; stroke: #000000; stroke-width: 0.45726; stroke-linejoin: miter"/>
   </g>
   <g id="patch_35">
    <path d="M 220.155903 307.584 
L 224.728502 307.584 
L 224.728502 307.584 
L 220.155903 307.584 
z
" clip-path="url(#p4b16dfb5a3)" style="fill: #ff7f0e; fill-opacity: 0.5; stroke: #000000; stroke-width: 0.45726; stroke-linejoin: miter"/>
   </g>
   <g id="patch_36">
    <path d="M 224.728502 307.584 
L 229.301101 307.584 
L 229.301101 307.584 
L 224.728502 307.584 
z
" clip-path="url(#p4b16dfb5a3)" style="fill: #ff7f0e; fill-opacity: 0.5; stroke: #000000; stroke-width: 0.45726; stroke-linejoin: miter"/>
   </g>
   <g id="patch_37">
    <path d="M 229.301101 307.584 
L 233.8737 307.584 
L 233.8737 307.584 
L 229.301101 307.584 
z
" clip-path="url(#p4b16dfb5a3)" style="fill: #ff7f0e; fill-opacity: 0.5; stroke: #000000; stroke-width: 0.45726; stroke-linejoin: miter"/>
   </g>
   <g id="patch_38">
    <path d="M 233.8737 307.584 
L 238.4463 307.584 
L 238.4463 307.584 
L 233.8737 307.584 
z
" clip-path="url(#p4b16dfb5a3)" style="fill: #ff7f0e; fill-opacity: 0.5; stroke: #000000; stroke-width: 0.45726; stroke-linejoin: miter"/>
   </g>
   <g id="patch_39">
    <path d="M 238.4463 307.584 
L 243.018899 307.584 
L 243.018899 307.584 
L 238.4463 307.584 
z
" clip-path="url(#p4b16dfb5a3)" style="fill: #ff7f0e; fill-opacity: 0.5; stroke: #000000; stroke-width: 0.45726; stroke-linejoin: miter"/>
   </g>
   <g id="patch_40">
    <path d="M 243.018899 307.584 
L 247.591498 307.584 
L 247.591498 307.584 
L 243.018899 307.584 
z
" clip-path="url(#p4b16dfb5a3)" style="fill: #ff7f0e; fill-opacity: 0.5; stroke: #000000; stroke-width: 0.45726; stroke-linejoin: miter"/>
   </g>
   <g id="patch_41">
    <path d="M 247.591498 307.584 
L 252.164097 307.584 
L 252.164097 307.584 
L 247.591498 307.584 
z
" clip-path="url(#p4b16dfb5a3)" style="fill: #ff7f0e; fill-opacity: 0.5; stroke: #000000; stroke-width: 0.45726; stroke-linejoin: miter"/>
   </g>
   <g id="patch_42">
    <path d="M 252.164097 307.584 
L 256.736697 307.584 
L 256.736697 307.584 
L 252.164097 307.584 
z
" clip-path="url(#p4b16dfb5a3)" style="fill: #ff7f0e; fill-opacity: 0.5; stroke: #000000; stroke-width: 0.45726; stroke-linejoin: miter"/>
   </g>
   <g id="patch_43">
    <path d="M 256.736697 307.584 
L 261.309296 307.584 
L 261.309296 307.584 
L 256.736697 307.584 
z
" clip-path="url(#p4b16dfb5a3)" style="fill: #ff7f0e; fill-opacity: 0.5; stroke: #000000; stroke-width: 0.45726; stroke-linejoin: miter"/>
   </g>
   <g id="patch_44">
    <path d="M 261.309296 307.584 
L 265.881895 307.584 
L 265.881895 307.584 
L 261.309296 307.584 
z
" clip-path="url(#p4b16dfb5a3)" style="fill: #ff7f0e; fill-opacity: 0.5; stroke: #000000; stroke-width: 0.45726; stroke-linejoin: miter"/>
   </g>
   <g id="patch_45">
    <path d="M 265.881895 307.584 
L 270.454494 307.584 
L 270.454494 307.584 
L 265.881895 307.584 
z
" clip-path="url(#p4b16dfb5a3)" style="fill: #ff7f0e; fill-opacity: 0.5; stroke: #000000; stroke-width: 0.45726; stroke-linejoin: miter"/>
   </g>
   <g id="patch_46">
    <path d="M 270.454494 307.584 
L 275.027093 307.584 
L 275.027093 307.584 
L 270.454494 307.584 
z
" clip-path="url(#p4b16dfb5a3)" style="fill: #ff7f0e; fill-opacity: 0.5; stroke: #000000; stroke-width: 0.45726; stroke-linejoin: miter"/>
   </g>
   <g id="patch_47">
    <path d="M 275.027093 307.584 
L 279.599693 307.584 
L 279.599693 307.584 
L 275.027093 307.584 
z
" clip-path="url(#p4b16dfb5a3)" style="fill: #ff7f0e; fill-opacity: 0.5; stroke: #000000; stroke-width: 0.45726; stroke-linejoin: miter"/>
   </g>
   <g id="patch_48">
    <path d="M 279.599693 307.584 
L 284.172292 307.584 
L 284.172292 307.584 
L 279.599693 307.584 
z
" clip-path="url(#p4b16dfb5a3)" style="fill: #ff7f0e; fill-opacity: 0.5; stroke: #000000; stroke-width: 0.45726; stroke-linejoin: miter"/>
   </g>
   <g id="patch_49">
    <path d="M 284.172292 307.584 
L 288.744891 307.584 
L 288.744891 307.584 
L 284.172292 307.584 
z
" clip-path="url(#p4b16dfb5a3)" style="fill: #ff7f0e; fill-opacity: 0.5; stroke: #000000; stroke-width: 0.45726; stroke-linejoin: miter"/>
   </g>
   <g id="patch_50">
    <path d="M 288.744891 307.584 
L 293.31749 307.584 
L 293.31749 307.584 
L 288.744891 307.584 
z
" clip-path="url(#p4b16dfb5a3)" style="fill: #ff7f0e; fill-opacity: 0.5; stroke: #000000; stroke-width: 0.45726; stroke-linejoin: miter"/>
   </g>
   <g id="patch_51">
    <path d="M 293.31749 307.584 
L 297.89009 307.584 
L 297.89009 307.584 
L 293.31749 307.584 
z
" clip-path="url(#p4b16dfb5a3)" style="fill: #ff7f0e; fill-opacity: 0.5; stroke: #000000; stroke-width: 0.45726; stroke-linejoin: miter"/>
   </g>
   <g id="patch_52">
    <path d="M 297.89009 307.584 
L 302.462689 307.584 
L 302.462689 302.411755 
L 297.89009 302.411755 
z
" clip-path="url(#p4b16dfb5a3)" style="fill: #ff7f0e; fill-opacity: 0.5; stroke: #000000; stroke-width: 0.45726; stroke-linejoin: miter"/>
   </g>
   <g id="patch_53">
    <path d="M 302.462689 307.584 
L 307.035288 307.584 
L 307.035288 307.584 
L 302.462689 307.584 
z
" clip-path="url(#p4b16dfb5a3)" style="fill: #ff7f0e; fill-opacity: 0.5; stroke: #000000; stroke-width: 0.45726; stroke-linejoin: miter"/>
   </g>
   <g id="patch_54">
    <path d="M 307.035288 307.584 
L 311.607887 307.584 
L 311.607887 307.584 
L 307.035288 307.584 
z
" clip-path="url(#p4b16dfb5a3)" style="fill: #ff7f0e; fill-opacity: 0.5; stroke: #000000; stroke-width: 0.45726; stroke-linejoin: miter"/>
   </g>
   <g id="patch_55">
    <path d="M 311.607887 307.584 
L 316.180487 307.584 
L 316.180487 307.584 
L 311.607887 307.584 
z
" clip-path="url(#p4b16dfb5a3)" style="fill: #ff7f0e; fill-opacity: 0.5; stroke: #000000; stroke-width: 0.45726; stroke-linejoin: miter"/>
   </g>
   <g id="patch_56">
    <path d="M 316.180487 307.584 
L 320.753086 307.584 
L 320.753086 307.584 
L 316.180487 307.584 
z
" clip-path="url(#p4b16dfb5a3)" style="fill: #ff7f0e; fill-opacity: 0.5; stroke: #000000; stroke-width: 0.45726; stroke-linejoin: miter"/>
   </g>
   <g id="patch_57">
    <path d="M 320.753086 307.584 
L 325.325685 307.584 
L 325.325685 307.584 
L 320.753086 307.584 
z
" clip-path="url(#p4b16dfb5a3)" style="fill: #ff7f0e; fill-opacity: 0.5; stroke: #000000; stroke-width: 0.45726; stroke-linejoin: miter"/>
   </g>
   <g id="patch_58">
    <path d="M 325.325685 307.584 
L 329.898284 307.584 
L 329.898284 302.411755 
L 325.325685 302.411755 
z
" clip-path="url(#p4b16dfb5a3)" style="fill: #ff7f0e; fill-opacity: 0.5; stroke: #000000; stroke-width: 0.45726; stroke-linejoin: miter"/>
   </g>
   <g id="patch_59">
    <path d="M 329.898284 307.584 
L 334.470883 307.584 
L 334.470883 307.584 
L 329.898284 307.584 
z
" clip-path="url(#p4b16dfb5a3)" style="fill: #ff7f0e; fill-opacity: 0.5; stroke: #000000; stroke-width: 0.45726; stroke-linejoin: miter"/>
   </g>
   <g id="patch_60">
    <path d="M 334.470883 307.584 
L 339.043483 307.584 
L 339.043483 302.411755 
L 334.470883 302.411755 
z
" clip-path="url(#p4b16dfb5a3)" style="fill: #ff7f0e; fill-opacity: 0.5; stroke: #000000; stroke-width: 0.45726; stroke-linejoin: miter"/>
   </g>
   <g id="patch_61">
    <path d="M 339.043483 307.584 
L 343.616082 307.584 
L 343.616082 307.584 
L 339.043483 307.584 
z
" clip-path="url(#p4b16dfb5a3)" style="fill: #ff7f0e; fill-opacity: 0.5; stroke: #000000; stroke-width: 0.45726; stroke-linejoin: miter"/>
   </g>
   <g id="patch_62">
    <path d="M 343.616082 307.584 
L 348.188681 307.584 
L 348.188681 307.584 
L 343.616082 307.584 
z
" clip-path="url(#p4b16dfb5a3)" style="fill: #ff7f0e; fill-opacity: 0.5; stroke: #000000; stroke-width: 0.45726; stroke-linejoin: miter"/>
   </g>
   <g id="patch_63">
    <path d="M 348.188681 307.584 
L 352.76128 307.584 
L 352.76128 307.584 
L 348.188681 307.584 
z
" clip-path="url(#p4b16dfb5a3)" style="fill: #ff7f0e; fill-opacity: 0.5; stroke: #000000; stroke-width: 0.45726; stroke-linejoin: miter"/>
   </g>
   <g id="patch_64">
    <path d="M 352.76128 307.584 
L 357.33388 307.584 
L 357.33388 307.584 
L 352.76128 307.584 
z
" clip-path="url(#p4b16dfb5a3)" style="fill: #ff7f0e; fill-opacity: 0.5; stroke: #000000; stroke-width: 0.45726; stroke-linejoin: miter"/>
   </g>
   <g id="patch_65">
    <path d="M 357.33388 307.584 
L 361.906479 307.584 
L 361.906479 307.584 
L 357.33388 307.584 
z
" clip-path="url(#p4b16dfb5a3)" style="fill: #ff7f0e; fill-opacity: 0.5; stroke: #000000; stroke-width: 0.45726; stroke-linejoin: miter"/>
   </g>
   <g id="patch_66">
    <path d="M 361.906479 307.584 
L 366.479078 307.584 
L 366.479078 307.584 
L 361.906479 307.584 
z
" clip-path="url(#p4b16dfb5a3)" style="fill: #ff7f0e; fill-opacity: 0.5; stroke: #000000; stroke-width: 0.45726; stroke-linejoin: miter"/>
   </g>
   <g id="patch_67">
    <path d="M 366.479078 307.584 
L 371.051677 307.584 
L 371.051677 307.584 
L 366.479078 307.584 
z
" clip-path="url(#p4b16dfb5a3)" style="fill: #ff7f0e; fill-opacity: 0.5; stroke: #000000; stroke-width: 0.45726; stroke-linejoin: miter"/>
   </g>
   <g id="patch_68">
    <path d="M 371.051677 307.584 
L 375.624277 307.584 
L 375.624277 307.584 
L 371.051677 307.584 
z
" clip-path="url(#p4b16dfb5a3)" style="fill: #ff7f0e; fill-opacity: 0.5; stroke: #000000; stroke-width: 0.45726; stroke-linejoin: miter"/>
   </g>
   <g id="patch_69">
    <path d="M 375.624277 307.584 
L 380.196876 307.584 
L 380.196876 297.23951 
L 375.624277 297.23951 
z
" clip-path="url(#p4b16dfb5a3)" style="fill: #ff7f0e; fill-opacity: 0.5; stroke: #000000; stroke-width: 0.45726; stroke-linejoin: miter"/>
   </g>
   <g id="patch_70">
    <path d="M 380.196876 307.584 
L 384.769475 307.584 
L 384.769475 307.584 
L 380.196876 307.584 
z
" clip-path="url(#p4b16dfb5a3)" style="fill: #ff7f0e; fill-opacity: 0.5; stroke: #000000; stroke-width: 0.45726; stroke-linejoin: miter"/>
   </g>
   <g id="patch_71">
    <path d="M 384.769475 307.584 
L 389.342074 307.584 
L 389.342074 307.584 
L 384.769475 307.584 
z
" clip-path="url(#p4b16dfb5a3)" style="fill: #ff7f0e; fill-opacity: 0.5; stroke: #000000; stroke-width: 0.45726; stroke-linejoin: miter"/>
   </g>
   <g id="patch_72">
    <path d="M 389.342074 307.584 
L 393.914673 307.584 
L 393.914673 302.411755 
L 389.342074 302.411755 
z
" clip-path="url(#p4b16dfb5a3)" style="fill: #ff7f0e; fill-opacity: 0.5; stroke: #000000; stroke-width: 0.45726; stroke-linejoin: miter"/>
   </g>
   <g id="patch_73">
    <path d="M 393.914673 307.584 
L 398.487273 307.584 
L 398.487273 302.411755 
L 393.914673 302.411755 
z
" clip-path="url(#p4b16dfb5a3)" style="fill: #ff7f0e; fill-opacity: 0.5; stroke: #000000; stroke-width: 0.45726; stroke-linejoin: miter"/>
   </g>
   <g id="patch_74">
    <path d="M 73.832727 307.584 
L 78.405327 307.584 
L 78.405327 297.23951 
L 73.832727 297.23951 
z
" clip-path="url(#p4b16dfb5a3)" style="fill: #1f77b4; fill-opacity: 0.5; stroke: #000000; stroke-width: 0.45726; stroke-linejoin: miter"/>
   </g>
   <g id="patch_75">
    <path d="M 78.405327 307.584 
L 82.977926 307.584 
L 82.977926 271.378286 
L 78.405327 271.378286 
z
" clip-path="url(#p4b16dfb5a3)" style="fill: #1f77b4; fill-opacity: 0.5; stroke: #000000; stroke-width: 0.45726; stroke-linejoin: miter"/>
   </g>
   <g id="patch_76">
    <path d="M 82.977926 307.584 
L 87.550525 307.584 
L 87.550525 235.172571 
L 82.977926 235.172571 
z
" clip-path="url(#p4b16dfb5a3)" style="fill: #1f77b4; fill-opacity: 0.5; stroke: #000000; stroke-width: 0.45726; stroke-linejoin: miter"/>
   </g>
   <g id="patch_77">
    <path d="M 87.550525 307.584 
L 92.123124 307.584 
L 92.123124 188.622367 
L 87.550525 188.622367 
z
" clip-path="url(#p4b16dfb5a3)" style="fill: #1f77b4; fill-opacity: 0.5; stroke: #000000; stroke-width: 0.45726; stroke-linejoin: miter"/>
   </g>
   <g id="patch_78">
    <path d="M 92.123124 307.584 
L 96.695723 307.584 
L 96.695723 131.727673 
L 92.123124 131.727673 
z
" clip-path="url(#p4b16dfb5a3)" style="fill: #1f77b4; fill-opacity: 0.5; stroke: #000000; stroke-width: 0.45726; stroke-linejoin: miter"/>
   </g>
   <g id="patch_79">
    <path d="M 96.695723 307.584 
L 101.268323 307.584 
L 101.268323 90.349714 
L 96.695723 90.349714 
z
" clip-path="url(#p4b16dfb5a3)" style="fill: #1f77b4; fill-opacity: 0.5; stroke: #000000; stroke-width: 0.45726; stroke-linejoin: miter"/>
   </g>
   <g id="patch_80">
    <path d="M 101.268323 307.584 
L 105.840922 307.584 
L 105.840922 116.210939 
L 101.268323 116.210939 
z
" clip-path="url(#p4b16dfb5a3)" style="fill: #1f77b4; fill-opacity: 0.5; stroke: #000000; stroke-width: 0.45726; stroke-linejoin: miter"/>
   </g>
   <g id="patch_81">
    <path d="M 105.840922 307.584 
L 110.413521 307.584 
L 110.413521 54.144 
L 105.840922 54.144 
z
" clip-path="url(#p4b16dfb5a3)" style="fill: #1f77b4; fill-opacity: 0.5; stroke: #000000; stroke-width: 0.45726; stroke-linejoin: miter"/>
   </g>
   <g id="patch_82">
    <path d="M 110.413521 307.584 
L 114.98612 307.584 
L 114.98612 219.655837 
L 110.413521 219.655837 
z
" clip-path="url(#p4b16dfb5a3)" style="fill: #1f77b4; fill-opacity: 0.5; stroke: #000000; stroke-width: 0.45726; stroke-linejoin: miter"/>
   </g>
   <g id="patch_83">
    <path d="M 114.98612 307.584 
L 119.55872 307.584 
L 119.55872 230.000327 
L 114.98612 230.000327 
z
" clip-path="url(#p4b16dfb5a3)" style="fill: #1f77b4; fill-opacity: 0.5; stroke: #000000; stroke-width: 0.45726; stroke-linejoin: miter"/>
   </g>
   <g id="patch_84">
    <path d="M 119.55872 307.584 
L 124.131319 307.584 
L 124.131319 261.033796 
L 119.55872 261.033796 
z
" clip-path="url(#p4b16dfb5a3)" style="fill: #1f77b4; fill-opacity: 0.5; stroke: #000000; stroke-width: 0.45726; stroke-linejoin: miter"/>
   </g>
   <g id="patch_85">
    <path d="M 124.131319 307.584 
L 128.703918 307.584 
L 128.703918 292.067265 
L 124.131319 292.067265 
z
" clip-path="url(#p4b16dfb5a3)" style="fill: #1f77b4; fill-opacity: 0.5; stroke: #000000; stroke-width: 0.45726; stroke-linejoin: miter"/>
   </g>
   <g id="patch_86">
    <path d="M 128.703918 307.584 
L 133.276517 307.584 
L 133.276517 307.584 
L 128.703918 307.584 
z
" clip-path="url(#p4b16dfb5a3)" style="fill: #1f77b4; fill-opacity: 0.5; stroke: #000000; stroke-width: 0.45726; stroke-linejoin: miter"/>
   </g>
   <g id="patch_87">
    <path d="M 133.276517 307.584 
L 137.849117 307.584 
L 137.849117 307.584 
L 133.276517 307.584 
z
" clip-path="url(#p4b16dfb5a3)" style="fill: #1f77b4; fill-opacity: 0.5; stroke: #000000; stroke-width: 0.45726; stroke-linejoin: miter"/>
   </g>
   <g id="patch_88">
    <path d="M 137.849117 307.584 
L 142.421716 307.584 
L 142.421716 307.584 
L 137.849117 307.584 
z
" clip-path="url(#p4b16dfb5a3)" style="fill: #1f77b4; fill-opacity: 0.5; stroke: #000000; stroke-width: 0.45726; stroke-linejoin: miter"/>
   </g>
   <g id="patch_89">
    <path d="M 142.421716 307.584 
L 146.994315 307.584 
L 146.994315 307.584 
L 142.421716 307.584 
z
" clip-path="url(#p4b16dfb5a3)" style="fill: #1f77b4; fill-opacity: 0.5; stroke: #000000; stroke-width: 0.45726; stroke-linejoin: miter"/>
   </g>
   <g id="patch_90">
    <path d="M 146.994315 307.584 
L 151.566914 307.584 
L 151.566914 307.584 
L 146.994315 307.584 
z
" clip-path="url(#p4b16dfb5a3)" style="fill: #1f77b4; fill-opacity: 0.5; stroke: #000000; stroke-width: 0.45726; stroke-linejoin: miter"/>
   </g>
   <g id="patch_91">
    <path d="M 151.566914 307.584 
L 156.139513 307.584 
L 156.139513 307.584 
L 151.566914 307.584 
z
" clip-path="url(#p4b16dfb5a3)" style="fill: #1f77b4; fill-opacity: 0.5; stroke: #000000; stroke-width: 0.45726; stroke-linejoin: miter"/>
   </g>
   <g id="patch_92">
    <path d="M 156.139513 307.584 
L 160.712113 307.584 
L 160.712113 307.584 
L 156.139513 307.584 
z
" clip-path="url(#p4b16dfb5a3)" style="fill: #1f77b4; fill-opacity: 0.5; stroke: #000000; stroke-width: 0.45726; stroke-linejoin: miter"/>
   </g>
   <g id="patch_93">
    <path d="M 160.712113 307.584 
L 165.284712 307.584 
L 165.284712 307.584 
L 160.712113 307.584 
z
" clip-path="url(#p4b16dfb5a3)" style="fill: #1f77b4; fill-opacity: 0.5; stroke: #000000; stroke-width: 0.45726; stroke-linejoin: miter"/>
   </g>
   <g id="patch_94">
    <path d="M 165.284712 307.584 
L 169.857311 307.584 
L 169.857311 307.584 
L 165.284712 307.584 
z
" clip-path="url(#p4b16dfb5a3)" style="fill: #1f77b4; fill-opacity: 0.5; stroke: #000000; stroke-width: 0.45726; stroke-linejoin: miter"/>
   </g>
   <g id="patch_95">
    <path d="M 169.857311 307.584 
L 174.42991 307.584 
L 174.42991 307.584 
L 169.857311 307.584 
z
" clip-path="url(#p4b16dfb5a3)" style="fill: #1f77b4; fill-opacity: 0.5; stroke: #000000; stroke-width: 0.45726; stroke-linejoin: miter"/>
   </g>
   <g id="patch_96">
    <path d="M 174.42991 307.584 
L 179.00251 307.584 
L 179.00251 307.584 
L 174.42991 307.584 
z
" clip-path="url(#p4b16dfb5a3)" style="fill: #1f77b4; fill-opacity: 0.5; stroke: #000000; stroke-width: 0.45726; stroke-linejoin: miter"/>
   </g>
   <g id="patch_97">
    <path d="M 179.00251 307.584 
L 183.575109 307.584 
L 183.575109 307.584 
L 179.00251 307.584 
z
" clip-path="url(#p4b16dfb5a3)" style="fill: #1f77b4; fill-opacity: 0.5; stroke: #000000; stroke-width: 0.45726; stroke-linejoin: miter"/>
   </g>
   <g id="patch_98">
    <path d="M 183.575109 307.584 
L 188.147708 307.584 
L 188.147708 307.584 
L 183.575109 307.584 
z
" clip-path="url(#p4b16dfb5a3)" style="fill: #1f77b4; fill-opacity: 0.5; stroke: #000000; stroke-width: 0.45726; stroke-linejoin: miter"/>
   </g>
   <g id="patch_99">
    <path d="M 188.147708 307.584 
L 192.720307 307.584 
L 192.720307 307.584 
L 188.147708 307.584 
z
" clip-path="url(#p4b16dfb5a3)" style="fill: #1f77b4; fill-opacity: 0.5; stroke: #000000; stroke-width: 0.45726; stroke-linejoin: miter"/>
   </g>
   <g id="patch_100">
    <path d="M 192.720307 307.584 
L 197.292907 307.584 
L 197.292907 307.584 
L 192.720307 307.584 
z
" clip-path="url(#p4b16dfb5a3)" style="fill: #1f77b4; fill-opacity: 0.5; stroke: #000000; stroke-width: 0.45726; stroke-linejoin: miter"/>
   </g>
   <g id="patch_101">
    <path d="M 197.292907 307.584 
L 201.865506 307.584 
L 201.865506 307.584 
L 197.292907 307.584 
z
" clip-path="url(#p4b16dfb5a3)" style="fill: #1f77b4; fill-opacity: 0.5; stroke: #000000; stroke-width: 0.45726; stroke-linejoin: miter"/>
   </g>
   <g id="patch_102">
    <path d="M 201.865506 307.584 
L 206.438105 307.584 
L 206.438105 307.584 
L 201.865506 307.584 
z
" clip-path="url(#p4b16dfb5a3)" style="fill: #1f77b4; fill-opacity: 0.5; stroke: #000000; stroke-width: 0.45726; stroke-linejoin: miter"/>
   </g>
   <g id="patch_103">
    <path d="M 206.438105 307.584 
L 211.010704 307.584 
L 211.010704 307.584 
L 206.438105 307.584 
z
" clip-path="url(#p4b16dfb5a3)" style="fill: #1f77b4; fill-opacity: 0.5; stroke: #000000; stroke-width: 0.45726; stroke-linejoin: miter"/>
   </g>
   <g id="patch_104">
    <path d="M 211.010704 307.584 
L 215.583303 307.584 
L 215.583303 307.584 
L 211.010704 307.584 
z
" clip-path="url(#p4b16dfb5a3)" style="fill: #1f77b4; fill-opacity: 0.5; stroke: #000000; stroke-width: 0.45726; stroke-linejoin: miter"/>
   </g>
   <g id="patch_105">
    <path d="M 215.583303 307.584 
L 220.155903 307.584 
L 220.155903 307.584 
L 215.583303 307.584 
z
" clip-path="url(#p4b16dfb5a3)" style="fill: #1f77b4; fill-opacity: 0.5; stroke: #000000; stroke-width: 0.45726; stroke-linejoin: miter"/>
   </g>
   <g id="patch_106">
    <path d="M 220.155903 307.584 
L 224.728502 307.584 
L 224.728502 307.584 
L 220.155903 307.584 
z
" clip-path="url(#p4b16dfb5a3)" style="fill: #1f77b4; fill-opacity: 0.5; stroke: #000000; stroke-width: 0.45726; stroke-linejoin: miter"/>
   </g>
   <g id="patch_107">
    <path d="M 224.728502 307.584 
L 229.301101 307.584 
L 229.301101 307.584 
L 224.728502 307.584 
z
" clip-path="url(#p4b16dfb5a3)" style="fill: #1f77b4; fill-opacity: 0.5; stroke: #000000; stroke-width: 0.45726; stroke-linejoin: miter"/>
   </g>
   <g id="patch_108">
    <path d="M 229.301101 307.584 
L 233.8737 307.584 
L 233.8737 307.584 
L 229.301101 307.584 
z
" clip-path="url(#p4b16dfb5a3)" style="fill: #1f77b4; fill-opacity: 0.5; stroke: #000000; stroke-width: 0.45726; stroke-linejoin: miter"/>
   </g>
   <g id="patch_109">
    <path d="M 233.8737 307.584 
L 238.4463 307.584 
L 238.4463 307.584 
L 233.8737 307.584 
z
" clip-path="url(#p4b16dfb5a3)" style="fill: #1f77b4; fill-opacity: 0.5; stroke: #000000; stroke-width: 0.45726; stroke-linejoin: miter"/>
   </g>
   <g id="patch_110">
    <path d="M 238.4463 307.584 
L 243.018899 307.584 
L 243.018899 307.584 
L 238.4463 307.584 
z
" clip-path="url(#p4b16dfb5a3)" style="fill: #1f77b4; fill-opacity: 0.5; stroke: #000000; stroke-width: 0.45726; stroke-linejoin: miter"/>
   </g>
   <g id="patch_111">
    <path d="M 243.018899 307.584 
L 247.591498 307.584 
L 247.591498 307.584 
L 243.018899 307.584 
z
" clip-path="url(#p4b16dfb5a3)" style="fill: #1f77b4; fill-opacity: 0.5; stroke: #000000; stroke-width: 0.45726; stroke-linejoin: miter"/>
   </g>
   <g id="patch_112">
    <path d="M 247.591498 307.584 
L 252.164097 307.584 
L 252.164097 307.584 
L 247.591498 307.584 
z
" clip-path="url(#p4b16dfb5a3)" style="fill: #1f77b4; fill-opacity: 0.5; stroke: #000000; stroke-width: 0.45726; stroke-linejoin: miter"/>
   </g>
   <g id="patch_113">
    <path d="M 252.164097 307.584 
L 256.736697 307.584 
L 256.736697 307.584 
L 252.164097 307.584 
z
" clip-path="url(#p4b16dfb5a3)" style="fill: #1f77b4; fill-opacity: 0.5; stroke: #000000; stroke-width: 0.45726; stroke-linejoin: miter"/>
   </g>
   <g id="patch_114">
    <path d="M 256.736697 307.584 
L 261.309296 307.584 
L 261.309296 307.584 
L 256.736697 307.584 
z
" clip-path="url(#p4b16dfb5a3)" style="fill: #1f77b4; fill-opacity: 0.5; stroke: #000000; stroke-width: 0.45726; stroke-linejoin: miter"/>
   </g>
   <g id="patch_115">
    <path d="M 261.309296 307.584 
L 265.881895 307.584 
L 265.881895 307.584 
L 261.309296 307.584 
z
" clip-path="url(#p4b16dfb5a3)" style="fill: #1f77b4; fill-opacity: 0.5; stroke: #000000; stroke-width: 0.45726; stroke-linejoin: miter"/>
   </g>
   <g id="patch_116">
    <path d="M 265.881895 307.584 
L 270.454494 307.584 
L 270.454494 307.584 
L 265.881895 307.584 
z
" clip-path="url(#p4b16dfb5a3)" style="fill: #1f77b4; fill-opacity: 0.5; stroke: #000000; stroke-width: 0.45726; stroke-linejoin: miter"/>
   </g>
   <g id="patch_117">
    <path d="M 270.454494 307.584 
L 275.027093 307.584 
L 275.027093 307.584 
L 270.454494 307.584 
z
" clip-path="url(#p4b16dfb5a3)" style="fill: #1f77b4; fill-opacity: 0.5; stroke: #000000; stroke-width: 0.45726; stroke-linejoin: miter"/>
   </g>
   <g id="patch_118">
    <path d="M 275.027093 307.584 
L 279.599693 307.584 
L 279.599693 307.584 
L 275.027093 307.584 
z
" clip-path="url(#p4b16dfb5a3)" style="fill: #1f77b4; fill-opacity: 0.5; stroke: #000000; stroke-width: 0.45726; stroke-linejoin: miter"/>
   </g>
   <g id="patch_119">
    <path d="M 279.599693 307.584 
L 284.172292 307.584 
L 284.172292 307.584 
L 279.599693 307.584 
z
" clip-path="url(#p4b16dfb5a3)" style="fill: #1f77b4; fill-opacity: 0.5; stroke: #000000; stroke-width: 0.45726; stroke-linejoin: miter"/>
   </g>
   <g id="patch_120">
    <path d="M 284.172292 307.584 
L 288.744891 307.584 
L 288.744891 307.584 
L 284.172292 307.584 
z
" clip-path="url(#p4b16dfb5a3)" style="fill: #1f77b4; fill-opacity: 0.5; stroke: #000000; stroke-width: 0.45726; stroke-linejoin: miter"/>
   </g>
   <g id="patch_121">
    <path d="M 288.744891 307.584 
L 293.31749 307.584 
L 293.31749 307.584 
L 288.744891 307.584 
z
" clip-path="url(#p4b16dfb5a3)" style="fill: #1f77b4; fill-opacity: 0.5; stroke: #000000; stroke-width: 0.45726; stroke-linejoin: miter"/>
   </g>
   <g id="patch_122">
    <path d="M 293.31749 307.584 
L 297.89009 307.584 
L 297.89009 307.584 
L 293.31749 307.584 
z
" clip-path="url(#p4b16dfb5a3)" style="fill: #1f77b4; fill-opacity: 0.5; stroke: #000000; stroke-width: 0.45726; stroke-linejoin: miter"/>
   </g>
   <g id="patch_123">
    <path d="M 297.89009 307.584 
L 302.462689 307.584 
L 302.462689 307.584 
L 297.89009 307.584 
z
" clip-path="url(#p4b16dfb5a3)" style="fill: #1f77b4; fill-opacity: 0.5; stroke: #000000; stroke-width: 0.45726; stroke-linejoin: miter"/>
   </g>
   <g id="patch_124">
    <path d="M 302.462689 307.584 
L 307.035288 307.584 
L 307.035288 307.584 
L 302.462689 307.584 
z
" clip-path="url(#p4b16dfb5a3)" style="fill: #1f77b4; fill-opacity: 0.5; stroke: #000000; stroke-width: 0.45726; stroke-linejoin: miter"/>
   </g>
   <g id="patch_125">
    <path d="M 307.035288 307.584 
L 311.607887 307.584 
L 311.607887 307.584 
L 307.035288 307.584 
z
" clip-path="url(#p4b16dfb5a3)" style="fill: #1f77b4; fill-opacity: 0.5; stroke: #000000; stroke-width: 0.45726; stroke-linejoin: miter"/>
   </g>
   <g id="patch_126">
    <path d="M 311.607887 307.584 
L 316.180487 307.584 
L 316.180487 307.584 
L 311.607887 307.584 
z
" clip-path="url(#p4b16dfb5a3)" style="fill: #1f77b4; fill-opacity: 0.5; stroke: #000000; stroke-width: 0.45726; stroke-linejoin: miter"/>
   </g>
   <g id="patch_127">
    <path d="M 316.180487 307.584 
L 320.753086 307.584 
L 320.753086 307.584 
L 316.180487 307.584 
z
" clip-path="url(#p4b16dfb5a3)" style="fill: #1f77b4; fill-opacity: 0.5; stroke: #000000; stroke-width: 0.45726; stroke-linejoin: miter"/>
   </g>
   <g id="patch_128">
    <path d="M 320.753086 307.584 
L 325.325685 307.584 
L 325.325685 307.584 
L 320.753086 307.584 
z
" clip-path="url(#p4b16dfb5a3)" style="fill: #1f77b4; fill-opacity: 0.5; stroke: #000000; stroke-width: 0.45726; stroke-linejoin: miter"/>
   </g>
   <g id="patch_129">
    <path d="M 325.325685 307.584 
L 329.898284 307.584 
L 329.898284 307.584 
L 325.325685 307.584 
z
" clip-path="url(#p4b16dfb5a3)" style="fill: #1f77b4; fill-opacity: 0.5; stroke: #000000; stroke-width: 0.45726; stroke-linejoin: miter"/>
   </g>
   <g id="patch_130">
    <path d="M 329.898284 307.584 
L 334.470883 307.584 
L 334.470883 307.584 
L 329.898284 307.584 
z
" clip-path="url(#p4b16dfb5a3)" style="fill: #1f77b4; fill-opacity: 0.5; stroke: #000000; stroke-width: 0.45726; stroke-linejoin: miter"/>
   </g>
   <g id="patch_131">
    <path d="M 334.470883 307.584 
L 339.043483 307.584 
L 339.043483 307.584 
L 334.470883 307.584 
z
" clip-path="url(#p4b16dfb5a3)" style="fill: #1f77b4; fill-opacity: 0.5; stroke: #000000; stroke-width: 0.45726; stroke-linejoin: miter"/>
   </g>
   <g id="patch_132">
    <path d="M 339.043483 307.584 
L 343.616082 307.584 
L 343.616082 307.584 
L 339.043483 307.584 
z
" clip-path="url(#p4b16dfb5a3)" style="fill: #1f77b4; fill-opacity: 0.5; stroke: #000000; stroke-width: 0.45726; stroke-linejoin: miter"/>
   </g>
   <g id="patch_133">
    <path d="M 343.616082 307.584 
L 348.188681 307.584 
L 348.188681 307.584 
L 343.616082 307.584 
z
" clip-path="url(#p4b16dfb5a3)" style="fill: #1f77b4; fill-opacity: 0.5; stroke: #000000; stroke-width: 0.45726; stroke-linejoin: miter"/>
   </g>
   <g id="patch_134">
    <path d="M 348.188681 307.584 
L 352.76128 307.584 
L 352.76128 307.584 
L 348.188681 307.584 
z
" clip-path="url(#p4b16dfb5a3)" style="fill: #1f77b4; fill-opacity: 0.5; stroke: #000000; stroke-width: 0.45726; stroke-linejoin: miter"/>
   </g>
   <g id="patch_135">
    <path d="M 352.76128 307.584 
L 357.33388 307.584 
L 357.33388 307.584 
L 352.76128 307.584 
z
" clip-path="url(#p4b16dfb5a3)" style="fill: #1f77b4; fill-opacity: 0.5; stroke: #000000; stroke-width: 0.45726; stroke-linejoin: miter"/>
   </g>
   <g id="patch_136">
    <path d="M 357.33388 307.584 
L 361.906479 307.584 
L 361.906479 307.584 
L 357.33388 307.584 
z
" clip-path="url(#p4b16dfb5a3)" style="fill: #1f77b4; fill-opacity: 0.5; stroke: #000000; stroke-width: 0.45726; stroke-linejoin: miter"/>
   </g>
   <g id="patch_137">
    <path d="M 361.906479 307.584 
L 366.479078 307.584 
L 366.479078 307.584 
L 361.906479 307.584 
z
" clip-path="url(#p4b16dfb5a3)" style="fill: #1f77b4; fill-opacity: 0.5; stroke: #000000; stroke-width: 0.45726; stroke-linejoin: miter"/>
   </g>
   <g id="patch_138">
    <path d="M 366.479078 307.584 
L 371.051677 307.584 
L 371.051677 307.584 
L 366.479078 307.584 
z
" clip-path="url(#p4b16dfb5a3)" style="fill: #1f77b4; fill-opacity: 0.5; stroke: #000000; stroke-width: 0.45726; stroke-linejoin: miter"/>
   </g>
   <g id="patch_139">
    <path d="M 371.051677 307.584 
L 375.624277 307.584 
L 375.624277 307.584 
L 371.051677 307.584 
z
" clip-path="url(#p4b16dfb5a3)" style="fill: #1f77b4; fill-opacity: 0.5; stroke: #000000; stroke-width: 0.45726; stroke-linejoin: miter"/>
   </g>
   <g id="patch_140">
    <path d="M 375.624277 307.584 
L 380.196876 307.584 
L 380.196876 307.584 
L 375.624277 307.584 
z
" clip-path="url(#p4b16dfb5a3)" style="fill: #1f77b4; fill-opacity: 0.5; stroke: #000000; stroke-width: 0.45726; stroke-linejoin: miter"/>
   </g>
   <g id="patch_141">
    <path d="M 380.196876 307.584 
L 384.769475 307.584 
L 384.769475 307.584 
L 380.196876 307.584 
z
" clip-path="url(#p4b16dfb5a3)" style="fill: #1f77b4; fill-opacity: 0.5; stroke: #000000; stroke-width: 0.45726; stroke-linejoin: miter"/>
   </g>
   <g id="patch_142">
    <path d="M 384.769475 307.584 
L 389.342074 307.584 
L 389.342074 307.584 
L 384.769475 307.584 
z
" clip-path="url(#p4b16dfb5a3)" style="fill: #1f77b4; fill-opacity: 0.5; stroke: #000000; stroke-width: 0.45726; stroke-linejoin: miter"/>
   </g>
   <g id="patch_143">
    <path d="M 389.342074 307.584 
L 393.914673 307.584 
L 393.914673 307.584 
L 389.342074 307.584 
z
" clip-path="url(#p4b16dfb5a3)" style="fill: #1f77b4; fill-opacity: 0.5; stroke: #000000; stroke-width: 0.45726; stroke-linejoin: miter"/>
   </g>
   <g id="patch_144">
    <path d="M 393.914673 307.584 
L 398.487273 307.584 
L 398.487273 307.584 
L 393.914673 307.584 
z
" clip-path="url(#p4b16dfb5a3)" style="fill: #1f77b4; fill-opacity: 0.5; stroke: #000000; stroke-width: 0.45726; stroke-linejoin: miter"/>
   </g>
   <g id="matplotlib.axis_1">
    <g id="xtick_1">
     <g id="line2d_1">
      <defs>
       <path id="m84066e7310" d="M 0 0 
L 0 3.5 
" style="stroke: #000000; stroke-width: 0.8"/>
      </defs>
      <g>
       <use xlink:href="#m84066e7310" x="78.27351" y="307.584" style="stroke: #000000; stroke-width: 0.8"/>
      </g>
     </g>
     <g id="text_1">
      <!-- 0.28 -->
      <g transform="translate(67.140698 322.182437) scale(0.1 -0.1)">
       <defs>
        <path id="DejaVuSans-30" d="M 2034 4250 
Q 1547 4250 1301 3770 
Q 1056 3291 1056 2328 
Q 1056 1369 1301 889 
Q 1547 409 2034 409 
Q 2525 409 2770 889 
Q 3016 1369 3016 2328 
Q 3016 3291 2770 3770 
Q 2525 4250 2034 4250 
z
M 2034 4750 
Q 2819 4750 3233 4129 
Q 3647 3509 3647 2328 
Q 3647 1150 3233 529 
Q 2819 -91 2034 -91 
Q 1250 -91 836 529 
Q 422 1150 422 2328 
Q 422 3509 836 4129 
Q 1250 4750 2034 4750 
z
" transform="scale(0.015625)"/>
        <path id="DejaVuSans-2e" d="M 684 794 
L 1344 794 
L 1344 0 
L 684 0 
L 684 794 
z
" transform="scale(0.015625)"/>
        <path id="DejaVuSans-32" d="M 1228 531 
L 3431 531 
L 3431 0 
L 469 0 
L 469 531 
Q 828 903 1448 1529 
Q 2069 2156 2228 2338 
Q 2531 2678 2651 2914 
Q 2772 3150 2772 3378 
Q 2772 3750 2511 3984 
Q 2250 4219 1831 4219 
Q 1534 4219 1204 4116 
Q 875 4013 500 3803 
L 500 4441 
Q 881 4594 1212 4672 
Q 1544 4750 1819 4750 
Q 2544 4750 2975 4387 
Q 3406 4025 3406 3419 
Q 3406 3131 3298 2873 
Q 3191 2616 2906 2266 
Q 2828 2175 2409 1742 
Q 1991 1309 1228 531 
z
" transform="scale(0.015625)"/>
        <path id="DejaVuSans-38" d="M 2034 2216 
Q 1584 2216 1326 1975 
Q 1069 1734 1069 1313 
Q 1069 891 1326 650 
Q 1584 409 2034 409 
Q 2484 409 2743 651 
Q 3003 894 3003 1313 
Q 3003 1734 2745 1975 
Q 2488 2216 2034 2216 
z
M 1403 2484 
Q 997 2584 770 2862 
Q 544 3141 544 3541 
Q 544 4100 942 4425 
Q 1341 4750 2034 4750 
Q 2731 4750 3128 4425 
Q 3525 4100 3525 3541 
Q 3525 3141 3298 2862 
Q 3072 2584 2669 2484 
Q 3125 2378 3379 2068 
Q 3634 1759 3634 1313 
Q 3634 634 3220 271 
Q 2806 -91 2034 -91 
Q 1263 -91 848 271 
Q 434 634 434 1313 
Q 434 1759 690 2068 
Q 947 2378 1403 2484 
z
M 1172 3481 
Q 1172 3119 1398 2916 
Q 1625 2713 2034 2713 
Q 2441 2713 2670 2916 
Q 2900 3119 2900 3481 
Q 2900 3844 2670 4047 
Q 2441 4250 2034 4250 
Q 1625 4250 1398 4047 
Q 1172 3844 1172 3481 
z
" transform="scale(0.015625)"/>
       </defs>
       <use xlink:href="#DejaVuSans-30"/>
       <use xlink:href="#DejaVuSans-2e" x="63.623047"/>
       <use xlink:href="#DejaVuSans-32" x="95.410156"/>
       <use xlink:href="#DejaVuSans-38" x="159.033203"/>
      </g>
     </g>
    </g>
    <g id="xtick_2">
     <g id="line2d_2">
      <g>
       <use xlink:href="#m84066e7310" x="117.997491" y="307.584" style="stroke: #000000; stroke-width: 0.8"/>
      </g>
     </g>
     <g id="text_2">
      <!-- 0.29 -->
      <g transform="translate(106.864678 322.182437) scale(0.1 -0.1)">
       <defs>
        <path id="DejaVuSans-39" d="M 703 97 
L 703 672 
Q 941 559 1184 500 
Q 1428 441 1663 441 
Q 2288 441 2617 861 
Q 2947 1281 2994 2138 
Q 2813 1869 2534 1725 
Q 2256 1581 1919 1581 
Q 1219 1581 811 2004 
Q 403 2428 403 3163 
Q 403 3881 828 4315 
Q 1253 4750 1959 4750 
Q 2769 4750 3195 4129 
Q 3622 3509 3622 2328 
Q 3622 1225 3098 567 
Q 2575 -91 1691 -91 
Q 1453 -91 1209 -44 
Q 966 3 703 97 
z
M 1959 2075 
Q 2384 2075 2632 2365 
Q 2881 2656 2881 3163 
Q 2881 3666 2632 3958 
Q 2384 4250 1959 4250 
Q 1534 4250 1286 3958 
Q 1038 3666 1038 3163 
Q 1038 2656 1286 2365 
Q 1534 2075 1959 2075 
z
" transform="scale(0.015625)"/>
       </defs>
       <use xlink:href="#DejaVuSans-30"/>
       <use xlink:href="#DejaVuSans-2e" x="63.623047"/>
       <use xlink:href="#DejaVuSans-32" x="95.410156"/>
       <use xlink:href="#DejaVuSans-39" x="159.033203"/>
      </g>
     </g>
    </g>
    <g id="xtick_3">
     <g id="line2d_3">
      <g>
       <use xlink:href="#m84066e7310" x="157.721471" y="307.584" style="stroke: #000000; stroke-width: 0.8"/>
      </g>
     </g>
     <g id="text_3">
      <!-- 0.30 -->
      <g transform="translate(146.588659 322.182437) scale(0.1 -0.1)">
       <defs>
        <path id="DejaVuSans-33" d="M 2597 2516 
Q 3050 2419 3304 2112 
Q 3559 1806 3559 1356 
Q 3559 666 3084 287 
Q 2609 -91 1734 -91 
Q 1441 -91 1130 -33 
Q 819 25 488 141 
L 488 750 
Q 750 597 1062 519 
Q 1375 441 1716 441 
Q 2309 441 2620 675 
Q 2931 909 2931 1356 
Q 2931 1769 2642 2001 
Q 2353 2234 1838 2234 
L 1294 2234 
L 1294 2753 
L 1863 2753 
Q 2328 2753 2575 2939 
Q 2822 3125 2822 3475 
Q 2822 3834 2567 4026 
Q 2313 4219 1838 4219 
Q 1578 4219 1281 4162 
Q 984 4106 628 3988 
L 628 4550 
Q 988 4650 1302 4700 
Q 1616 4750 1894 4750 
Q 2613 4750 3031 4423 
Q 3450 4097 3450 3541 
Q 3450 3153 3228 2886 
Q 3006 2619 2597 2516 
z
" transform="scale(0.015625)"/>
       </defs>
       <use xlink:href="#DejaVuSans-30"/>
       <use xlink:href="#DejaVuSans-2e" x="63.623047"/>
       <use xlink:href="#DejaVuSans-33" x="95.410156"/>
       <use xlink:href="#DejaVuSans-30" x="159.033203"/>
      </g>
     </g>
    </g>
    <g id="xtick_4">
     <g id="line2d_4">
      <g>
       <use xlink:href="#m84066e7310" x="197.445452" y="307.584" style="stroke: #000000; stroke-width: 0.8"/>
      </g>
     </g>
     <g id="text_4">
      <!-- 0.31 -->
      <g transform="translate(186.312639 322.182437) scale(0.1 -0.1)">
       <defs>
        <path id="DejaVuSans-31" d="M 794 531 
L 1825 531 
L 1825 4091 
L 703 3866 
L 703 4441 
L 1819 4666 
L 2450 4666 
L 2450 531 
L 3481 531 
L 3481 0 
L 794 0 
L 794 531 
z
" transform="scale(0.015625)"/>
       </defs>
       <use xlink:href="#DejaVuSans-30"/>
       <use xlink:href="#DejaVuSans-2e" x="63.623047"/>
       <use xlink:href="#DejaVuSans-33" x="95.410156"/>
       <use xlink:href="#DejaVuSans-31" x="159.033203"/>
      </g>
     </g>
    </g>
    <g id="xtick_5">
     <g id="line2d_5">
      <g>
       <use xlink:href="#m84066e7310" x="237.169432" y="307.584" style="stroke: #000000; stroke-width: 0.8"/>
      </g>
     </g>
     <g id="text_5">
      <!-- 0.32 -->
      <g transform="translate(226.03662 322.182437) scale(0.1 -0.1)">
       <use xlink:href="#DejaVuSans-30"/>
       <use xlink:href="#DejaVuSans-2e" x="63.623047"/>
       <use xlink:href="#DejaVuSans-33" x="95.410156"/>
       <use xlink:href="#DejaVuSans-32" x="159.033203"/>
      </g>
     </g>
    </g>
    <g id="xtick_6">
     <g id="line2d_6">
      <g>
       <use xlink:href="#m84066e7310" x="276.893413" y="307.584" style="stroke: #000000; stroke-width: 0.8"/>
      </g>
     </g>
     <g id="text_6">
      <!-- 0.33 -->
      <g transform="translate(265.7606 322.182437) scale(0.1 -0.1)">
       <use xlink:href="#DejaVuSans-30"/>
       <use xlink:href="#DejaVuSans-2e" x="63.623047"/>
       <use xlink:href="#DejaVuSans-33" x="95.410156"/>
       <use xlink:href="#DejaVuSans-33" x="159.033203"/>
      </g>
     </g>
    </g>
    <g id="xtick_7">
     <g id="line2d_7">
      <g>
       <use xlink:href="#m84066e7310" x="316.617393" y="307.584" style="stroke: #000000; stroke-width: 0.8"/>
      </g>
     </g>
     <g id="text_7">
      <!-- 0.34 -->
      <g transform="translate(305.484581 322.182437) scale(0.1 -0.1)">
       <defs>
        <path id="DejaVuSans-34" d="M 2419 4116 
L 825 1625 
L 2419 1625 
L 2419 4116 
z
M 2253 4666 
L 3047 4666 
L 3047 1625 
L 3713 1625 
L 3713 1100 
L 3047 1100 
L 3047 0 
L 2419 0 
L 2419 1100 
L 313 1100 
L 313 1709 
L 2253 4666 
z
" transform="scale(0.015625)"/>
       </defs>
       <use xlink:href="#DejaVuSans-30"/>
       <use xlink:href="#DejaVuSans-2e" x="63.623047"/>
       <use xlink:href="#DejaVuSans-33" x="95.410156"/>
       <use xlink:href="#DejaVuSans-34" x="159.033203"/>
      </g>
     </g>
    </g>
    <g id="xtick_8">
     <g id="line2d_8">
      <g>
       <use xlink:href="#m84066e7310" x="356.341374" y="307.584" style="stroke: #000000; stroke-width: 0.8"/>
      </g>
     </g>
     <g id="text_8">
      <!-- 0.35 -->
      <g transform="translate(345.208561 322.182437) scale(0.1 -0.1)">
       <defs>
        <path id="DejaVuSans-35" d="M 691 4666 
L 3169 4666 
L 3169 4134 
L 1269 4134 
L 1269 2991 
Q 1406 3038 1543 3061 
Q 1681 3084 1819 3084 
Q 2600 3084 3056 2656 
Q 3513 2228 3513 1497 
Q 3513 744 3044 326 
Q 2575 -91 1722 -91 
Q 1428 -91 1123 -41 
Q 819 9 494 109 
L 494 744 
Q 775 591 1075 516 
Q 1375 441 1709 441 
Q 2250 441 2565 725 
Q 2881 1009 2881 1497 
Q 2881 1984 2565 2268 
Q 2250 2553 1709 2553 
Q 1456 2553 1204 2497 
Q 953 2441 691 2322 
L 691 4666 
z
" transform="scale(0.015625)"/>
       </defs>
       <use xlink:href="#DejaVuSans-30"/>
       <use xlink:href="#DejaVuSans-2e" x="63.623047"/>
       <use xlink:href="#DejaVuSans-33" x="95.410156"/>
       <use xlink:href="#DejaVuSans-35" x="159.033203"/>
      </g>
     </g>
    </g>
    <g id="xtick_9">
     <g id="line2d_9">
      <g>
       <use xlink:href="#m84066e7310" x="396.065354" y="307.584" style="stroke: #000000; stroke-width: 0.8"/>
      </g>
     </g>
     <g id="text_9">
      <!-- 0.36 -->
      <g transform="translate(384.932542 322.182437) scale(0.1 -0.1)">
       <defs>
        <path id="DejaVuSans-36" d="M 2113 2584 
Q 1688 2584 1439 2293 
Q 1191 2003 1191 1497 
Q 1191 994 1439 701 
Q 1688 409 2113 409 
Q 2538 409 2786 701 
Q 3034 994 3034 1497 
Q 3034 2003 2786 2293 
Q 2538 2584 2113 2584 
z
M 3366 4563 
L 3366 3988 
Q 3128 4100 2886 4159 
Q 2644 4219 2406 4219 
Q 1781 4219 1451 3797 
Q 1122 3375 1075 2522 
Q 1259 2794 1537 2939 
Q 1816 3084 2150 3084 
Q 2853 3084 3261 2657 
Q 3669 2231 3669 1497 
Q 3669 778 3244 343 
Q 2819 -91 2113 -91 
Q 1303 -91 875 529 
Q 447 1150 447 2328 
Q 447 3434 972 4092 
Q 1497 4750 2381 4750 
Q 2619 4750 2861 4703 
Q 3103 4656 3366 4563 
z
" transform="scale(0.015625)"/>
       </defs>
       <use xlink:href="#DejaVuSans-30"/>
       <use xlink:href="#DejaVuSans-2e" x="63.623047"/>
       <use xlink:href="#DejaVuSans-33" x="95.410156"/>
       <use xlink:href="#DejaVuSans-36" x="159.033203"/>
      </g>
     </g>
    </g>
   </g>
   <g id="matplotlib.axis_2">
    <g id="ytick_1">
     <g id="line2d_10">
      <defs>
       <path id="m4590d632b6" d="M 0 0 
L -3.5 0 
" style="stroke: #000000; stroke-width: 0.8"/>
      </defs>
      <g>
       <use xlink:href="#m4590d632b6" x="57.6" y="307.584" style="stroke: #000000; stroke-width: 0.8"/>
      </g>
     </g>
     <g id="text_10">
      <!-- 0 -->
      <g transform="translate(44.2375 311.383219) scale(0.1 -0.1)">
       <use xlink:href="#DejaVuSans-30"/>
      </g>
     </g>
    </g>
    <g id="ytick_2">
     <g id="line2d_11">
      <g>
       <use xlink:href="#m4590d632b6" x="57.6" y="255.861551" style="stroke: #000000; stroke-width: 0.8"/>
      </g>
     </g>
     <g id="text_11">
      <!-- 10 -->
      <g transform="translate(37.875 259.66077) scale(0.1 -0.1)">
       <use xlink:href="#DejaVuSans-31"/>
       <use xlink:href="#DejaVuSans-30" x="63.623047"/>
      </g>
     </g>
    </g>
    <g id="ytick_3">
     <g id="line2d_12">
      <g>
       <use xlink:href="#m4590d632b6" x="57.6" y="204.139102" style="stroke: #000000; stroke-width: 0.8"/>
      </g>
     </g>
     <g id="text_12">
      <!-- 20 -->
      <g transform="translate(37.875 207.938321) scale(0.1 -0.1)">
       <use xlink:href="#DejaVuSans-32"/>
       <use xlink:href="#DejaVuSans-30" x="63.623047"/>
      </g>
     </g>
    </g>
    <g id="ytick_4">
     <g id="line2d_13">
      <g>
       <use xlink:href="#m4590d632b6" x="57.6" y="152.416653" style="stroke: #000000; stroke-width: 0.8"/>
      </g>
     </g>
     <g id="text_13">
      <!-- 30 -->
      <g transform="translate(37.875 156.215872) scale(0.1 -0.1)">
       <use xlink:href="#DejaVuSans-33"/>
       <use xlink:href="#DejaVuSans-30" x="63.623047"/>
      </g>
     </g>
    </g>
    <g id="ytick_5">
     <g id="line2d_14">
      <g>
       <use xlink:href="#m4590d632b6" x="57.6" y="100.694204" style="stroke: #000000; stroke-width: 0.8"/>
      </g>
     </g>
     <g id="text_14">
      <!-- 40 -->
      <g transform="translate(37.875 104.493423) scale(0.1 -0.1)">
       <use xlink:href="#DejaVuSans-34"/>
       <use xlink:href="#DejaVuSans-30" x="63.623047"/>
      </g>
     </g>
    </g>
    <g id="ytick_6">
     <g id="line2d_15">
      <g>
       <use xlink:href="#m4590d632b6" x="57.6" y="48.971755" style="stroke: #000000; stroke-width: 0.8"/>
      </g>
     </g>
     <g id="text_15">
      <!-- 50 -->
      <g transform="translate(37.875 52.770974) scale(0.1 -0.1)">
       <use xlink:href="#DejaVuSans-35"/>
       <use xlink:href="#DejaVuSans-30" x="63.623047"/>
      </g>
     </g>
    </g>
    <g id="text_16">
     <!-- Count -->
     <g transform="translate(31.795312 189.376437) rotate(-90) scale(0.1 -0.1)">
      <defs>
       <path id="DejaVuSans-43" d="M 4122 4306 
L 4122 3641 
Q 3803 3938 3442 4084 
Q 3081 4231 2675 4231 
Q 1875 4231 1450 3742 
Q 1025 3253 1025 2328 
Q 1025 1406 1450 917 
Q 1875 428 2675 428 
Q 3081 428 3442 575 
Q 3803 722 4122 1019 
L 4122 359 
Q 3791 134 3420 21 
Q 3050 -91 2638 -91 
Q 1578 -91 968 557 
Q 359 1206 359 2328 
Q 359 3453 968 4101 
Q 1578 4750 2638 4750 
Q 3056 4750 3426 4639 
Q 3797 4528 4122 4306 
z
" transform="scale(0.015625)"/>
       <path id="DejaVuSans-6f" d="M 1959 3097 
Q 1497 3097 1228 2736 
Q 959 2375 959 1747 
Q 959 1119 1226 758 
Q 1494 397 1959 397 
Q 2419 397 2687 759 
Q 2956 1122 2956 1747 
Q 2956 2369 2687 2733 
Q 2419 3097 1959 3097 
z
M 1959 3584 
Q 2709 3584 3137 3096 
Q 3566 2609 3566 1747 
Q 3566 888 3137 398 
Q 2709 -91 1959 -91 
Q 1206 -91 779 398 
Q 353 888 353 1747 
Q 353 2609 779 3096 
Q 1206 3584 1959 3584 
z
" transform="scale(0.015625)"/>
       <path id="DejaVuSans-75" d="M 544 1381 
L 544 3500 
L 1119 3500 
L 1119 1403 
Q 1119 906 1312 657 
Q 1506 409 1894 409 
Q 2359 409 2629 706 
Q 2900 1003 2900 1516 
L 2900 3500 
L 3475 3500 
L 3475 0 
L 2900 0 
L 2900 538 
Q 2691 219 2414 64 
Q 2138 -91 1772 -91 
Q 1169 -91 856 284 
Q 544 659 544 1381 
z
M 1991 3584 
L 1991 3584 
z
" transform="scale(0.015625)"/>
       <path id="DejaVuSans-6e" d="M 3513 2113 
L 3513 0 
L 2938 0 
L 2938 2094 
Q 2938 2591 2744 2837 
Q 2550 3084 2163 3084 
Q 1697 3084 1428 2787 
Q 1159 2491 1159 1978 
L 1159 0 
L 581 0 
L 581 3500 
L 1159 3500 
L 1159 2956 
Q 1366 3272 1645 3428 
Q 1925 3584 2291 3584 
Q 2894 3584 3203 3211 
Q 3513 2838 3513 2113 
z
" transform="scale(0.015625)"/>
       <path id="DejaVuSans-74" d="M 1172 4494 
L 1172 3500 
L 2356 3500 
L 2356 3053 
L 1172 3053 
L 1172 1153 
Q 1172 725 1289 603 
Q 1406 481 1766 481 
L 2356 481 
L 2356 0 
L 1766 0 
Q 1100 0 847 248 
Q 594 497 594 1153 
L 594 3053 
L 172 3053 
L 172 3500 
L 594 3500 
L 594 4494 
L 1172 4494 
z
" transform="scale(0.015625)"/>
      </defs>
      <use xlink:href="#DejaVuSans-43"/>
      <use xlink:href="#DejaVuSans-6f" x="69.824219"/>
      <use xlink:href="#DejaVuSans-75" x="131.005859"/>
      <use xlink:href="#DejaVuSans-6e" x="194.384766"/>
      <use xlink:href="#DejaVuSans-74" x="257.763672"/>
     </g>
    </g>
   </g>
   <g id="line2d_16">
    <path d="M 73.832727 307.584 
L 258.184303 307.48008 
L 281.024322 307.199929 
L 328.335788 306.513615 
L 391.961553 306.174117 
L 398.487273 306.313007 
L 398.487273 306.313007 
" clip-path="url(#p4b16dfb5a3)" style="fill: none; stroke: #ff7f0e; stroke-width: 1.5; stroke-linecap: square"/>
   </g>
   <g id="line2d_17">
    <path d="M 73.832727 300.474503 
L 75.464157 296.741813 
L 77.095587 291.269601 
L 78.727017 283.648061 
L 80.358447 274.044167 
L 81.989877 262.652818 
L 83.621307 248.857091 
L 85.252736 231.644601 
L 90.147026 169.652674 
L 91.778456 152.688676 
L 93.409886 138.840197 
L 95.041316 127.773724 
L 96.672746 119.716609 
L 98.304175 114.972505 
L 99.935605 112.377982 
L 101.567035 109.109906 
L 104.829895 97.236008 
L 106.461325 97.269325 
L 108.092755 109.173994 
L 109.724185 132.946958 
L 111.355614 162.26737 
L 112.987044 189.223378 
L 114.618474 209.409909 
L 116.249904 223.182895 
L 119.512764 244.155826 
L 124.407053 280.238011 
L 126.038483 289.127747 
L 127.669913 295.652652 
L 129.301343 300.434517 
L 130.932773 303.804383 
L 132.564203 305.892985 
L 134.195633 306.960344 
L 135.827063 307.397131 
L 139.089922 307.575241 
L 165.1928 307.584 
L 398.487273 307.584 
L 398.487273 307.584 
" clip-path="url(#p4b16dfb5a3)" style="fill: none; stroke: #1f77b4; stroke-width: 1.5; stroke-linecap: square"/>
   </g>
   <g id="patch_145">
    <path d="M 57.6 307.584 
L 57.6 41.472 
" style="fill: none; stroke: #000000; stroke-width: 0.8; stroke-linejoin: miter; stroke-linecap: square"/>
   </g>
   <g id="patch_146">
    <path d="M 414.72 307.584 
L 414.72 41.472 
" style="fill: none; stroke: #000000; stroke-width: 0.8; stroke-linejoin: miter; stroke-linecap: square"/>
   </g>
   <g id="patch_147">
    <path d="M 57.6 307.584 
L 414.72 307.584 
" style="fill: none; stroke: #000000; stroke-width: 0.8; stroke-linejoin: miter; stroke-linecap: square"/>
   </g>
   <g id="patch_148">
    <path d="M 57.6 41.472 
L 414.72 41.472 
" style="fill: none; stroke: #000000; stroke-width: 0.8; stroke-linejoin: miter; stroke-linecap: square"/>
   </g>
   <g id="legend_1">
    <g id="patch_149">
     <path d="M 263.546562 79.3845 
L 407.72 79.3845 
Q 409.72 79.3845 409.72 77.3845 
L 409.72 48.472 
Q 409.72 46.472 407.72 46.472 
L 263.546562 46.472 
Q 261.546562 46.472 261.546562 48.472 
L 261.546562 77.3845 
Q 261.546562 79.3845 263.546562 79.3845 
z
" style="fill: #ffffff; opacity: 0.8; stroke: #cccccc; stroke-linejoin: miter"/>
    </g>
    <g id="patch_150">
     <path d="M 265.546562 58.070438 
L 285.546562 58.070438 
L 285.546562 51.070438 
L 265.546562 51.070438 
z
" style="fill: #1f77b4; fill-opacity: 0.5; stroke: #000000; stroke-linejoin: miter"/>
    </g>
    <g id="text_17">
     <!-- perfect_match = False -->
     <g transform="translate(293.546562 58.070438) scale(0.1 -0.1)">
      <defs>
       <path id="DejaVuSans-70" d="M 1159 525 
L 1159 -1331 
L 581 -1331 
L 581 3500 
L 1159 3500 
L 1159 2969 
Q 1341 3281 1617 3432 
Q 1894 3584 2278 3584 
Q 2916 3584 3314 3078 
Q 3713 2572 3713 1747 
Q 3713 922 3314 415 
Q 2916 -91 2278 -91 
Q 1894 -91 1617 61 
Q 1341 213 1159 525 
z
M 3116 1747 
Q 3116 2381 2855 2742 
Q 2594 3103 2138 3103 
Q 1681 3103 1420 2742 
Q 1159 2381 1159 1747 
Q 1159 1113 1420 752 
Q 1681 391 2138 391 
Q 2594 391 2855 752 
Q 3116 1113 3116 1747 
z
" transform="scale(0.015625)"/>
       <path id="DejaVuSans-65" d="M 3597 1894 
L 3597 1613 
L 953 1613 
Q 991 1019 1311 708 
Q 1631 397 2203 397 
Q 2534 397 2845 478 
Q 3156 559 3463 722 
L 3463 178 
Q 3153 47 2828 -22 
Q 2503 -91 2169 -91 
Q 1331 -91 842 396 
Q 353 884 353 1716 
Q 353 2575 817 3079 
Q 1281 3584 2069 3584 
Q 2775 3584 3186 3129 
Q 3597 2675 3597 1894 
z
M 3022 2063 
Q 3016 2534 2758 2815 
Q 2500 3097 2075 3097 
Q 1594 3097 1305 2825 
Q 1016 2553 972 2059 
L 3022 2063 
z
" transform="scale(0.015625)"/>
       <path id="DejaVuSans-72" d="M 2631 2963 
Q 2534 3019 2420 3045 
Q 2306 3072 2169 3072 
Q 1681 3072 1420 2755 
Q 1159 2438 1159 1844 
L 1159 0 
L 581 0 
L 581 3500 
L 1159 3500 
L 1159 2956 
Q 1341 3275 1631 3429 
Q 1922 3584 2338 3584 
Q 2397 3584 2469 3576 
Q 2541 3569 2628 3553 
L 2631 2963 
z
" transform="scale(0.015625)"/>
       <path id="DejaVuSans-66" d="M 2375 4863 
L 2375 4384 
L 1825 4384 
Q 1516 4384 1395 4259 
Q 1275 4134 1275 3809 
L 1275 3500 
L 2222 3500 
L 2222 3053 
L 1275 3053 
L 1275 0 
L 697 0 
L 697 3053 
L 147 3053 
L 147 3500 
L 697 3500 
L 697 3744 
Q 697 4328 969 4595 
Q 1241 4863 1831 4863 
L 2375 4863 
z
" transform="scale(0.015625)"/>
       <path id="DejaVuSans-63" d="M 3122 3366 
L 3122 2828 
Q 2878 2963 2633 3030 
Q 2388 3097 2138 3097 
Q 1578 3097 1268 2742 
Q 959 2388 959 1747 
Q 959 1106 1268 751 
Q 1578 397 2138 397 
Q 2388 397 2633 464 
Q 2878 531 3122 666 
L 3122 134 
Q 2881 22 2623 -34 
Q 2366 -91 2075 -91 
Q 1284 -91 818 406 
Q 353 903 353 1747 
Q 353 2603 823 3093 
Q 1294 3584 2113 3584 
Q 2378 3584 2631 3529 
Q 2884 3475 3122 3366 
z
" transform="scale(0.015625)"/>
       <path id="DejaVuSans-5f" d="M 3263 -1063 
L 3263 -1509 
L -63 -1509 
L -63 -1063 
L 3263 -1063 
z
" transform="scale(0.015625)"/>
       <path id="DejaVuSans-6d" d="M 3328 2828 
Q 3544 3216 3844 3400 
Q 4144 3584 4550 3584 
Q 5097 3584 5394 3201 
Q 5691 2819 5691 2113 
L 5691 0 
L 5113 0 
L 5113 2094 
Q 5113 2597 4934 2840 
Q 4756 3084 4391 3084 
Q 3944 3084 3684 2787 
Q 3425 2491 3425 1978 
L 3425 0 
L 2847 0 
L 2847 2094 
Q 2847 2600 2669 2842 
Q 2491 3084 2119 3084 
Q 1678 3084 1418 2786 
Q 1159 2488 1159 1978 
L 1159 0 
L 581 0 
L 581 3500 
L 1159 3500 
L 1159 2956 
Q 1356 3278 1631 3431 
Q 1906 3584 2284 3584 
Q 2666 3584 2933 3390 
Q 3200 3197 3328 2828 
z
" transform="scale(0.015625)"/>
       <path id="DejaVuSans-61" d="M 2194 1759 
Q 1497 1759 1228 1600 
Q 959 1441 959 1056 
Q 959 750 1161 570 
Q 1363 391 1709 391 
Q 2188 391 2477 730 
Q 2766 1069 2766 1631 
L 2766 1759 
L 2194 1759 
z
M 3341 1997 
L 3341 0 
L 2766 0 
L 2766 531 
Q 2569 213 2275 61 
Q 1981 -91 1556 -91 
Q 1019 -91 701 211 
Q 384 513 384 1019 
Q 384 1609 779 1909 
Q 1175 2209 1959 2209 
L 2766 2209 
L 2766 2266 
Q 2766 2663 2505 2880 
Q 2244 3097 1772 3097 
Q 1472 3097 1187 3025 
Q 903 2953 641 2809 
L 641 3341 
Q 956 3463 1253 3523 
Q 1550 3584 1831 3584 
Q 2591 3584 2966 3190 
Q 3341 2797 3341 1997 
z
" transform="scale(0.015625)"/>
       <path id="DejaVuSans-68" d="M 3513 2113 
L 3513 0 
L 2938 0 
L 2938 2094 
Q 2938 2591 2744 2837 
Q 2550 3084 2163 3084 
Q 1697 3084 1428 2787 
Q 1159 2491 1159 1978 
L 1159 0 
L 581 0 
L 581 4863 
L 1159 4863 
L 1159 2956 
Q 1366 3272 1645 3428 
Q 1925 3584 2291 3584 
Q 2894 3584 3203 3211 
Q 3513 2838 3513 2113 
z
" transform="scale(0.015625)"/>
       <path id="DejaVuSans-20" transform="scale(0.015625)"/>
       <path id="DejaVuSans-3d" d="M 678 2906 
L 4684 2906 
L 4684 2381 
L 678 2381 
L 678 2906 
z
M 678 1631 
L 4684 1631 
L 4684 1100 
L 678 1100 
L 678 1631 
z
" transform="scale(0.015625)"/>
       <path id="DejaVuSans-46" d="M 628 4666 
L 3309 4666 
L 3309 4134 
L 1259 4134 
L 1259 2759 
L 3109 2759 
L 3109 2228 
L 1259 2228 
L 1259 0 
L 628 0 
L 628 4666 
z
" transform="scale(0.015625)"/>
       <path id="DejaVuSans-6c" d="M 603 4863 
L 1178 4863 
L 1178 0 
L 603 0 
L 603 4863 
z
" transform="scale(0.015625)"/>
       <path id="DejaVuSans-73" d="M 2834 3397 
L 2834 2853 
Q 2591 2978 2328 3040 
Q 2066 3103 1784 3103 
Q 1356 3103 1142 2972 
Q 928 2841 928 2578 
Q 928 2378 1081 2264 
Q 1234 2150 1697 2047 
L 1894 2003 
Q 2506 1872 2764 1633 
Q 3022 1394 3022 966 
Q 3022 478 2636 193 
Q 2250 -91 1575 -91 
Q 1294 -91 989 -36 
Q 684 19 347 128 
L 347 722 
Q 666 556 975 473 
Q 1284 391 1588 391 
Q 1994 391 2212 530 
Q 2431 669 2431 922 
Q 2431 1156 2273 1281 
Q 2116 1406 1581 1522 
L 1381 1569 
Q 847 1681 609 1914 
Q 372 2147 372 2553 
Q 372 3047 722 3315 
Q 1072 3584 1716 3584 
Q 2034 3584 2315 3537 
Q 2597 3491 2834 3397 
z
" transform="scale(0.015625)"/>
      </defs>
      <use xlink:href="#DejaVuSans-70"/>
      <use xlink:href="#DejaVuSans-65" x="63.476562"/>
      <use xlink:href="#DejaVuSans-72" x="125"/>
      <use xlink:href="#DejaVuSans-66" x="166.113281"/>
      <use xlink:href="#DejaVuSans-65" x="201.318359"/>
      <use xlink:href="#DejaVuSans-63" x="262.841797"/>
      <use xlink:href="#DejaVuSans-74" x="317.822266"/>
      <use xlink:href="#DejaVuSans-5f" x="357.03125"/>
      <use xlink:href="#DejaVuSans-6d" x="407.03125"/>
      <use xlink:href="#DejaVuSans-61" x="504.443359"/>
      <use xlink:href="#DejaVuSans-74" x="565.722656"/>
      <use xlink:href="#DejaVuSans-63" x="604.931641"/>
      <use xlink:href="#DejaVuSans-68" x="659.912109"/>
      <use xlink:href="#DejaVuSans-20" x="723.291016"/>
      <use xlink:href="#DejaVuSans-3d" x="755.078125"/>
      <use xlink:href="#DejaVuSans-20" x="838.867188"/>
      <use xlink:href="#DejaVuSans-46" x="870.654297"/>
      <use xlink:href="#DejaVuSans-61" x="919.048828"/>
      <use xlink:href="#DejaVuSans-6c" x="980.328125"/>
      <use xlink:href="#DejaVuSans-73" x="1008.111328"/>
      <use xlink:href="#DejaVuSans-65" x="1060.210938"/>
     </g>
    </g>
    <g id="patch_151">
     <path d="M 265.546562 73.026688 
L 285.546562 73.026688 
L 285.546562 66.026688 
L 265.546562 66.026688 
z
" style="fill: #ff7f0e; fill-opacity: 0.5; stroke: #000000; stroke-linejoin: miter"/>
    </g>
    <g id="text_18">
     <!-- perfect_match = True -->
     <g transform="translate(293.546562 73.026688) scale(0.1 -0.1)">
      <defs>
       <path id="DejaVuSans-54" d="M -19 4666 
L 3928 4666 
L 3928 4134 
L 2272 4134 
L 2272 0 
L 1638 0 
L 1638 4134 
L -19 4134 
L -19 4666 
z
" transform="scale(0.015625)"/>
      </defs>
      <use xlink:href="#DejaVuSans-70"/>
      <use xlink:href="#DejaVuSans-65" x="63.476562"/>
      <use xlink:href="#DejaVuSans-72" x="125"/>
      <use xlink:href="#DejaVuSans-66" x="166.113281"/>
      <use xlink:href="#DejaVuSans-65" x="201.318359"/>
      <use xlink:href="#DejaVuSans-63" x="262.841797"/>
      <use xlink:href="#DejaVuSans-74" x="317.822266"/>
      <use xlink:href="#DejaVuSans-5f" x="357.03125"/>
      <use xlink:href="#DejaVuSans-6d" x="407.03125"/>
      <use xlink:href="#DejaVuSans-61" x="504.443359"/>
      <use xlink:href="#DejaVuSans-74" x="565.722656"/>
      <use xlink:href="#DejaVuSans-63" x="604.931641"/>
      <use xlink:href="#DejaVuSans-68" x="659.912109"/>
      <use xlink:href="#DejaVuSans-20" x="723.291016"/>
      <use xlink:href="#DejaVuSans-3d" x="755.078125"/>
      <use xlink:href="#DejaVuSans-20" x="838.867188"/>
      <use xlink:href="#DejaVuSans-54" x="870.654297"/>
      <use xlink:href="#DejaVuSans-72" x="916.988281"/>
      <use xlink:href="#DejaVuSans-75" x="958.101562"/>
      <use xlink:href="#DejaVuSans-65" x="1021.480469"/>
     </g>
    </g>
   </g>
  </g>
  <g id="text_19">
   <!-- none_False_facebook/bart-base_128 -->
   <g transform="translate(121.714688 16.030125) scale(0.12 -0.12)">
    <defs>
     <path id="DejaVuSans-62" d="M 3116 1747 
Q 3116 2381 2855 2742 
Q 2594 3103 2138 3103 
Q 1681 3103 1420 2742 
Q 1159 2381 1159 1747 
Q 1159 1113 1420 752 
Q 1681 391 2138 391 
Q 2594 391 2855 752 
Q 3116 1113 3116 1747 
z
M 1159 2969 
Q 1341 3281 1617 3432 
Q 1894 3584 2278 3584 
Q 2916 3584 3314 3078 
Q 3713 2572 3713 1747 
Q 3713 922 3314 415 
Q 2916 -91 2278 -91 
Q 1894 -91 1617 61 
Q 1341 213 1159 525 
L 1159 0 
L 581 0 
L 581 4863 
L 1159 4863 
L 1159 2969 
z
" transform="scale(0.015625)"/>
     <path id="DejaVuSans-6b" d="M 581 4863 
L 1159 4863 
L 1159 1991 
L 2875 3500 
L 3609 3500 
L 1753 1863 
L 3688 0 
L 2938 0 
L 1159 1709 
L 1159 0 
L 581 0 
L 581 4863 
z
" transform="scale(0.015625)"/>
     <path id="DejaVuSans-2f" d="M 1625 4666 
L 2156 4666 
L 531 -594 
L 0 -594 
L 1625 4666 
z
" transform="scale(0.015625)"/>
     <path id="DejaVuSans-2d" d="M 313 2009 
L 1997 2009 
L 1997 1497 
L 313 1497 
L 313 2009 
z
" transform="scale(0.015625)"/>
    </defs>
    <use xlink:href="#DejaVuSans-6e"/>
    <use xlink:href="#DejaVuSans-6f" x="63.378906"/>
    <use xlink:href="#DejaVuSans-6e" x="124.560547"/>
    <use xlink:href="#DejaVuSans-65" x="187.939453"/>
    <use xlink:href="#DejaVuSans-5f" x="249.462891"/>
    <use xlink:href="#DejaVuSans-46" x="299.462891"/>
    <use xlink:href="#DejaVuSans-61" x="347.857422"/>
    <use xlink:href="#DejaVuSans-6c" x="409.136719"/>
    <use xlink:href="#DejaVuSans-73" x="436.919922"/>
    <use xlink:href="#DejaVuSans-65" x="489.019531"/>
    <use xlink:href="#DejaVuSans-5f" x="550.542969"/>
    <use xlink:href="#DejaVuSans-66" x="600.542969"/>
    <use xlink:href="#DejaVuSans-61" x="635.748047"/>
    <use xlink:href="#DejaVuSans-63" x="697.027344"/>
    <use xlink:href="#DejaVuSans-65" x="752.007812"/>
    <use xlink:href="#DejaVuSans-62" x="813.53125"/>
    <use xlink:href="#DejaVuSans-6f" x="877.007812"/>
    <use xlink:href="#DejaVuSans-6f" x="938.189453"/>
    <use xlink:href="#DejaVuSans-6b" x="999.371094"/>
    <use xlink:href="#DejaVuSans-2f" x="1057.28125"/>
    <use xlink:href="#DejaVuSans-62" x="1090.972656"/>
    <use xlink:href="#DejaVuSans-61" x="1154.449219"/>
    <use xlink:href="#DejaVuSans-72" x="1215.728516"/>
    <use xlink:href="#DejaVuSans-74" x="1256.841797"/>
    <use xlink:href="#DejaVuSans-2d" x="1296.050781"/>
    <use xlink:href="#DejaVuSans-62" x="1332.134766"/>
    <use xlink:href="#DejaVuSans-61" x="1395.611328"/>
    <use xlink:href="#DejaVuSans-73" x="1456.890625"/>
    <use xlink:href="#DejaVuSans-65" x="1508.990234"/>
    <use xlink:href="#DejaVuSans-5f" x="1570.513672"/>
    <use xlink:href="#DejaVuSans-31" x="1620.513672"/>
    <use xlink:href="#DejaVuSans-32" x="1684.136719"/>
    <use xlink:href="#DejaVuSans-38" x="1747.759766"/>
   </g>
  </g>
 </g>
 <defs>
  <clipPath id="p4b16dfb5a3">
   <rect x="57.6" y="41.472" width="357.12" height="266.112"/>
  </clipPath>
 </defs>
</svg>
