<?xml version="1.0" encoding="utf-8" standalone="no"?>
<!DOCTYPE svg PUBLIC "-//W3C//DTD SVG 1.1//EN"
  "http://www.w3.org/Graphics/SVG/1.1/DTD/svg11.dtd">
<svg xmlns:xlink="http://www.w3.org/1999/xlink" width="460.8pt" height="345.6pt" viewBox="0 0 460.8 345.6" xmlns="http://www.w3.org/2000/svg" version="1.1">
 <metadata>
  <rdf:RDF xmlns:dc="http://purl.org/dc/elements/1.1/" xmlns:cc="http://creativecommons.org/ns#" xmlns:rdf="http://www.w3.org/1999/02/22-rdf-syntax-ns#">
   <cc:Work>
    <dc:type rdf:resource="http://purl.org/dc/dcmitype/StillImage"/>
    <dc:date>2024-03-18T10:52:59.893729</dc:date>
    <dc:format>image/svg+xml</dc:format>
    <dc:creator>
     <cc:Agent>
      <dc:title>Matplotlib v3.6.3, https://matplotlib.org/</dc:title>
     </cc:Agent>
    </dc:creator>
   </cc:Work>
  </rdf:RDF>
 </metadata>
 <defs>
  <style type="text/css">*{stroke-linejoin: round; stroke-linecap: butt}</style>
 </defs>
 <g id="figure_1">
  <g id="patch_1">
   <path d="M 0 345.6 
L 460.8 345.6 
L 460.8 0 
L 0 0 
z
" style="fill: #ffffff"/>
  </g>
  <g id="axes_1">
   <g id="patch_2">
    <path d="M 57.6 307.584 
L 414.72 307.584 
L 414.72 41.472 
L 57.6 41.472 
z
" style="fill: #ffffff"/>
   </g>
   <g id="patch_3">
    <path d="M 73.832727 307.584 
L 94.123636 307.584 
L 94.123636 307.584 
L 73.832727 307.584 
z
" clip-path="url(#p72c48ff262)" style="fill: #8c564b; fill-opacity: 0.5; stroke: #000000; stroke-linejoin: miter"/>
   </g>
   <g id="patch_4">
    <path d="M 94.123636 307.584 
L 114.414545 307.584 
L 114.414545 307.584 
L 94.123636 307.584 
z
" clip-path="url(#p72c48ff262)" style="fill: #8c564b; fill-opacity: 0.5; stroke: #000000; stroke-linejoin: miter"/>
   </g>
   <g id="patch_5">
    <path d="M 114.414545 307.584 
L 134.705455 307.584 
L 134.705455 307.584 
L 114.414545 307.584 
z
" clip-path="url(#p72c48ff262)" style="fill: #8c564b; fill-opacity: 0.5; stroke: #000000; stroke-linejoin: miter"/>
   </g>
   <g id="patch_6">
    <path d="M 134.705455 307.584 
L 154.996364 307.584 
L 154.996364 307.584 
L 134.705455 307.584 
z
" clip-path="url(#p72c48ff262)" style="fill: #8c564b; fill-opacity: 0.5; stroke: #000000; stroke-linejoin: miter"/>
   </g>
   <g id="patch_7">
    <path d="M 154.996364 307.584 
L 175.287273 307.584 
L 175.287273 307.584 
L 154.996364 307.584 
z
" clip-path="url(#p72c48ff262)" style="fill: #8c564b; fill-opacity: 0.5; stroke: #000000; stroke-linejoin: miter"/>
   </g>
   <g id="patch_8">
    <path d="M 175.287273 307.584 
L 195.578182 307.584 
L 195.578182 307.584 
L 175.287273 307.584 
z
" clip-path="url(#p72c48ff262)" style="fill: #8c564b; fill-opacity: 0.5; stroke: #000000; stroke-linejoin: miter"/>
   </g>
   <g id="patch_9">
    <path d="M 195.578182 307.584 
L 215.869091 307.584 
L 215.869091 307.584 
L 195.578182 307.584 
z
" clip-path="url(#p72c48ff262)" style="fill: #8c564b; fill-opacity: 0.5; stroke: #000000; stroke-linejoin: miter"/>
   </g>
   <g id="patch_10">
    <path d="M 215.869091 307.584 
L 236.16 307.584 
L 236.16 307.584 
L 215.869091 307.584 
z
" clip-path="url(#p72c48ff262)" style="fill: #8c564b; fill-opacity: 0.5; stroke: #000000; stroke-linejoin: miter"/>
   </g>
   <g id="patch_11">
    <path d="M 236.16 307.584 
L 256.450909 307.584 
L 256.450909 307.584 
L 236.16 307.584 
z
" clip-path="url(#p72c48ff262)" style="fill: #8c564b; fill-opacity: 0.5; stroke: #000000; stroke-linejoin: miter"/>
   </g>
   <g id="patch_12">
    <path d="M 256.450909 307.584 
L 276.741818 307.584 
L 276.741818 307.584 
L 256.450909 307.584 
z
" clip-path="url(#p72c48ff262)" style="fill: #8c564b; fill-opacity: 0.5; stroke: #000000; stroke-linejoin: miter"/>
   </g>
   <g id="patch_13">
    <path d="M 276.741818 307.584 
L 297.032727 307.584 
L 297.032727 307.584 
L 276.741818 307.584 
z
" clip-path="url(#p72c48ff262)" style="fill: #8c564b; fill-opacity: 0.5; stroke: #000000; stroke-linejoin: miter"/>
   </g>
   <g id="patch_14">
    <path d="M 297.032727 307.584 
L 317.323636 307.584 
L 317.323636 307.584 
L 297.032727 307.584 
z
" clip-path="url(#p72c48ff262)" style="fill: #8c564b; fill-opacity: 0.5; stroke: #000000; stroke-linejoin: miter"/>
   </g>
   <g id="patch_15">
    <path d="M 317.323636 307.584 
L 337.614545 307.584 
L 337.614545 307.584 
L 317.323636 307.584 
z
" clip-path="url(#p72c48ff262)" style="fill: #8c564b; fill-opacity: 0.5; stroke: #000000; stroke-linejoin: miter"/>
   </g>
   <g id="patch_16">
    <path d="M 337.614545 307.584 
L 357.905455 307.584 
L 357.905455 307.584 
L 337.614545 307.584 
z
" clip-path="url(#p72c48ff262)" style="fill: #8c564b; fill-opacity: 0.5; stroke: #000000; stroke-linejoin: miter"/>
   </g>
   <g id="patch_17">
    <path d="M 357.905455 307.584 
L 378.196364 307.584 
L 378.196364 307.584 
L 357.905455 307.584 
z
" clip-path="url(#p72c48ff262)" style="fill: #8c564b; fill-opacity: 0.5; stroke: #000000; stroke-linejoin: miter"/>
   </g>
   <g id="patch_18">
    <path d="M 378.196364 307.584 
L 398.487273 307.584 
L 398.487273 305.501733 
L 378.196364 305.501733 
z
" clip-path="url(#p72c48ff262)" style="fill: #8c564b; fill-opacity: 0.5; stroke: #000000; stroke-linejoin: miter"/>
   </g>
   <g id="patch_19">
    <path d="M 73.832727 307.584 
L 94.123636 307.584 
L 94.123636 164.205019 
L 73.832727 164.205019 
z
" clip-path="url(#p72c48ff262)" style="fill: #9467bd; fill-opacity: 0.5; stroke: #000000; stroke-linejoin: miter"/>
   </g>
   <g id="patch_20">
    <path d="M 94.123636 307.584 
L 114.414545 307.584 
L 114.414545 302.229598 
L 94.123636 302.229598 
z
" clip-path="url(#p72c48ff262)" style="fill: #9467bd; fill-opacity: 0.5; stroke: #000000; stroke-linejoin: miter"/>
   </g>
   <g id="patch_21">
    <path d="M 114.414545 307.584 
L 134.705455 307.584 
L 134.705455 307.584 
L 114.414545 307.584 
z
" clip-path="url(#p72c48ff262)" style="fill: #9467bd; fill-opacity: 0.5; stroke: #000000; stroke-linejoin: miter"/>
   </g>
   <g id="patch_22">
    <path d="M 134.705455 307.584 
L 154.996364 307.584 
L 154.996364 307.584 
L 134.705455 307.584 
z
" clip-path="url(#p72c48ff262)" style="fill: #9467bd; fill-opacity: 0.5; stroke: #000000; stroke-linejoin: miter"/>
   </g>
   <g id="patch_23">
    <path d="M 154.996364 307.584 
L 175.287273 307.584 
L 175.287273 307.584 
L 154.996364 307.584 
z
" clip-path="url(#p72c48ff262)" style="fill: #9467bd; fill-opacity: 0.5; stroke: #000000; stroke-linejoin: miter"/>
   </g>
   <g id="patch_24">
    <path d="M 175.287273 307.584 
L 195.578182 307.584 
L 195.578182 307.584 
L 175.287273 307.584 
z
" clip-path="url(#p72c48ff262)" style="fill: #9467bd; fill-opacity: 0.5; stroke: #000000; stroke-linejoin: miter"/>
   </g>
   <g id="patch_25">
    <path d="M 195.578182 307.584 
L 215.869091 307.584 
L 215.869091 307.584 
L 195.578182 307.584 
z
" clip-path="url(#p72c48ff262)" style="fill: #9467bd; fill-opacity: 0.5; stroke: #000000; stroke-linejoin: miter"/>
   </g>
   <g id="patch_26">
    <path d="M 215.869091 307.584 
L 236.16 307.584 
L 236.16 307.584 
L 215.869091 307.584 
z
" clip-path="url(#p72c48ff262)" style="fill: #9467bd; fill-opacity: 0.5; stroke: #000000; stroke-linejoin: miter"/>
   </g>
   <g id="patch_27">
    <path d="M 236.16 307.584 
L 256.450909 307.584 
L 256.450909 307.584 
L 236.16 307.584 
z
" clip-path="url(#p72c48ff262)" style="fill: #9467bd; fill-opacity: 0.5; stroke: #000000; stroke-linejoin: miter"/>
   </g>
   <g id="patch_28">
    <path d="M 256.450909 307.584 
L 276.741818 307.584 
L 276.741818 307.584 
L 256.450909 307.584 
z
" clip-path="url(#p72c48ff262)" style="fill: #9467bd; fill-opacity: 0.5; stroke: #000000; stroke-linejoin: miter"/>
   </g>
   <g id="patch_29">
    <path d="M 276.741818 307.584 
L 297.032727 307.584 
L 297.032727 307.584 
L 276.741818 307.584 
z
" clip-path="url(#p72c48ff262)" style="fill: #9467bd; fill-opacity: 0.5; stroke: #000000; stroke-linejoin: miter"/>
   </g>
   <g id="patch_30">
    <path d="M 297.032727 307.584 
L 317.323636 307.584 
L 317.323636 307.584 
L 297.032727 307.584 
z
" clip-path="url(#p72c48ff262)" style="fill: #9467bd; fill-opacity: 0.5; stroke: #000000; stroke-linejoin: miter"/>
   </g>
   <g id="patch_31">
    <path d="M 317.323636 307.584 
L 337.614545 307.584 
L 337.614545 307.584 
L 317.323636 307.584 
z
" clip-path="url(#p72c48ff262)" style="fill: #9467bd; fill-opacity: 0.5; stroke: #000000; stroke-linejoin: miter"/>
   </g>
   <g id="patch_32">
    <path d="M 337.614545 307.584 
L 357.905455 307.584 
L 357.905455 307.584 
L 337.614545 307.584 
z
" clip-path="url(#p72c48ff262)" style="fill: #9467bd; fill-opacity: 0.5; stroke: #000000; stroke-linejoin: miter"/>
   </g>
   <g id="patch_33">
    <path d="M 357.905455 307.584 
L 378.196364 307.584 
L 378.196364 307.584 
L 357.905455 307.584 
z
" clip-path="url(#p72c48ff262)" style="fill: #9467bd; fill-opacity: 0.5; stroke: #000000; stroke-linejoin: miter"/>
   </g>
   <g id="patch_34">
    <path d="M 378.196364 307.584 
L 398.487273 307.584 
L 398.487273 307.584 
L 378.196364 307.584 
z
" clip-path="url(#p72c48ff262)" style="fill: #9467bd; fill-opacity: 0.5; stroke: #000000; stroke-linejoin: miter"/>
   </g>
   <g id="patch_35">
    <path d="M 73.832727 307.584 
L 94.123636 307.584 
L 94.123636 307.584 
L 73.832727 307.584 
z
" clip-path="url(#p72c48ff262)" style="fill: #d62728; fill-opacity: 0.5; stroke: #000000; stroke-linejoin: miter"/>
   </g>
   <g id="patch_36">
    <path d="M 94.123636 307.584 
L 114.414545 307.584 
L 114.414545 307.584 
L 94.123636 307.584 
z
" clip-path="url(#p72c48ff262)" style="fill: #d62728; fill-opacity: 0.5; stroke: #000000; stroke-linejoin: miter"/>
   </g>
   <g id="patch_37">
    <path d="M 114.414545 307.584 
L 134.705455 307.584 
L 134.705455 307.584 
L 114.414545 307.584 
z
" clip-path="url(#p72c48ff262)" style="fill: #d62728; fill-opacity: 0.5; stroke: #000000; stroke-linejoin: miter"/>
   </g>
   <g id="patch_38">
    <path d="M 134.705455 307.584 
L 154.996364 307.584 
L 154.996364 307.584 
L 134.705455 307.584 
z
" clip-path="url(#p72c48ff262)" style="fill: #d62728; fill-opacity: 0.5; stroke: #000000; stroke-linejoin: miter"/>
   </g>
   <g id="patch_39">
    <path d="M 154.996364 307.584 
L 175.287273 307.584 
L 175.287273 307.584 
L 154.996364 307.584 
z
" clip-path="url(#p72c48ff262)" style="fill: #d62728; fill-opacity: 0.5; stroke: #000000; stroke-linejoin: miter"/>
   </g>
   <g id="patch_40">
    <path d="M 175.287273 307.584 
L 195.578182 307.584 
L 195.578182 307.584 
L 175.287273 307.584 
z
" clip-path="url(#p72c48ff262)" style="fill: #d62728; fill-opacity: 0.5; stroke: #000000; stroke-linejoin: miter"/>
   </g>
   <g id="patch_41">
    <path d="M 195.578182 307.584 
L 215.869091 307.584 
L 215.869091 307.584 
L 195.578182 307.584 
z
" clip-path="url(#p72c48ff262)" style="fill: #d62728; fill-opacity: 0.5; stroke: #000000; stroke-linejoin: miter"/>
   </g>
   <g id="patch_42">
    <path d="M 215.869091 307.584 
L 236.16 307.584 
L 236.16 307.584 
L 215.869091 307.584 
z
" clip-path="url(#p72c48ff262)" style="fill: #d62728; fill-opacity: 0.5; stroke: #000000; stroke-linejoin: miter"/>
   </g>
   <g id="patch_43">
    <path d="M 236.16 307.584 
L 256.450909 307.584 
L 256.450909 307.584 
L 236.16 307.584 
z
" clip-path="url(#p72c48ff262)" style="fill: #d62728; fill-opacity: 0.5; stroke: #000000; stroke-linejoin: miter"/>
   </g>
   <g id="patch_44">
    <path d="M 256.450909 307.584 
L 276.741818 307.584 
L 276.741818 306.989066 
L 256.450909 306.989066 
z
" clip-path="url(#p72c48ff262)" style="fill: #d62728; fill-opacity: 0.5; stroke: #000000; stroke-linejoin: miter"/>
   </g>
   <g id="patch_45">
    <path d="M 276.741818 307.584 
L 297.032727 307.584 
L 297.032727 306.096666 
L 276.741818 306.096666 
z
" clip-path="url(#p72c48ff262)" style="fill: #d62728; fill-opacity: 0.5; stroke: #000000; stroke-linejoin: miter"/>
   </g>
   <g id="patch_46">
    <path d="M 297.032727 307.584 
L 317.323636 307.584 
L 317.323636 307.584 
L 297.032727 307.584 
z
" clip-path="url(#p72c48ff262)" style="fill: #d62728; fill-opacity: 0.5; stroke: #000000; stroke-linejoin: miter"/>
   </g>
   <g id="patch_47">
    <path d="M 317.323636 307.584 
L 337.614545 307.584 
L 337.614545 307.584 
L 317.323636 307.584 
z
" clip-path="url(#p72c48ff262)" style="fill: #d62728; fill-opacity: 0.5; stroke: #000000; stroke-linejoin: miter"/>
   </g>
   <g id="patch_48">
    <path d="M 337.614545 307.584 
L 357.905455 307.584 
L 357.905455 307.584 
L 337.614545 307.584 
z
" clip-path="url(#p72c48ff262)" style="fill: #d62728; fill-opacity: 0.5; stroke: #000000; stroke-linejoin: miter"/>
   </g>
   <g id="patch_49">
    <path d="M 357.905455 307.584 
L 378.196364 307.584 
L 378.196364 307.584 
L 357.905455 307.584 
z
" clip-path="url(#p72c48ff262)" style="fill: #d62728; fill-opacity: 0.5; stroke: #000000; stroke-linejoin: miter"/>
   </g>
   <g id="patch_50">
    <path d="M 378.196364 307.584 
L 398.487273 307.584 
L 398.487273 307.584 
L 378.196364 307.584 
z
" clip-path="url(#p72c48ff262)" style="fill: #d62728; fill-opacity: 0.5; stroke: #000000; stroke-linejoin: miter"/>
   </g>
   <g id="patch_51">
    <path d="M 73.832727 307.584 
L 94.123636 307.584 
L 94.123636 307.286533 
L 73.832727 307.286533 
z
" clip-path="url(#p72c48ff262)" style="fill: #2ca02c; fill-opacity: 0.5; stroke: #000000; stroke-linejoin: miter"/>
   </g>
   <g id="patch_52">
    <path d="M 94.123636 307.584 
L 114.414545 307.584 
L 114.414545 297.767597 
L 94.123636 297.767597 
z
" clip-path="url(#p72c48ff262)" style="fill: #2ca02c; fill-opacity: 0.5; stroke: #000000; stroke-linejoin: miter"/>
   </g>
   <g id="patch_53">
    <path d="M 114.414545 307.584 
L 134.705455 307.584 
L 134.705455 246.90078 
L 114.414545 246.90078 
z
" clip-path="url(#p72c48ff262)" style="fill: #2ca02c; fill-opacity: 0.5; stroke: #000000; stroke-linejoin: miter"/>
   </g>
   <g id="patch_54">
    <path d="M 134.705455 307.584 
L 154.996364 307.584 
L 154.996364 240.951444 
L 134.705455 240.951444 
z
" clip-path="url(#p72c48ff262)" style="fill: #2ca02c; fill-opacity: 0.5; stroke: #000000; stroke-linejoin: miter"/>
   </g>
   <g id="patch_55">
    <path d="M 154.996364 307.584 
L 175.287273 307.584 
L 175.287273 296.280263 
L 154.996364 296.280263 
z
" clip-path="url(#p72c48ff262)" style="fill: #2ca02c; fill-opacity: 0.5; stroke: #000000; stroke-linejoin: miter"/>
   </g>
   <g id="patch_56">
    <path d="M 175.287273 307.584 
L 195.578182 307.584 
L 195.578182 307.584 
L 175.287273 307.584 
z
" clip-path="url(#p72c48ff262)" style="fill: #2ca02c; fill-opacity: 0.5; stroke: #000000; stroke-linejoin: miter"/>
   </g>
   <g id="patch_57">
    <path d="M 195.578182 307.584 
L 215.869091 307.584 
L 215.869091 307.584 
L 195.578182 307.584 
z
" clip-path="url(#p72c48ff262)" style="fill: #2ca02c; fill-opacity: 0.5; stroke: #000000; stroke-linejoin: miter"/>
   </g>
   <g id="patch_58">
    <path d="M 215.869091 307.584 
L 236.16 307.584 
L 236.16 307.584 
L 215.869091 307.584 
z
" clip-path="url(#p72c48ff262)" style="fill: #2ca02c; fill-opacity: 0.5; stroke: #000000; stroke-linejoin: miter"/>
   </g>
   <g id="patch_59">
    <path d="M 236.16 307.584 
L 256.450909 307.584 
L 256.450909 307.584 
L 236.16 307.584 
z
" clip-path="url(#p72c48ff262)" style="fill: #2ca02c; fill-opacity: 0.5; stroke: #000000; stroke-linejoin: miter"/>
   </g>
   <g id="patch_60">
    <path d="M 256.450909 307.584 
L 276.741818 307.584 
L 276.741818 307.584 
L 256.450909 307.584 
z
" clip-path="url(#p72c48ff262)" style="fill: #2ca02c; fill-opacity: 0.5; stroke: #000000; stroke-linejoin: miter"/>
   </g>
   <g id="patch_61">
    <path d="M 276.741818 307.584 
L 297.032727 307.584 
L 297.032727 307.584 
L 276.741818 307.584 
z
" clip-path="url(#p72c48ff262)" style="fill: #2ca02c; fill-opacity: 0.5; stroke: #000000; stroke-linejoin: miter"/>
   </g>
   <g id="patch_62">
    <path d="M 297.032727 307.584 
L 317.323636 307.584 
L 317.323636 307.584 
L 297.032727 307.584 
z
" clip-path="url(#p72c48ff262)" style="fill: #2ca02c; fill-opacity: 0.5; stroke: #000000; stroke-linejoin: miter"/>
   </g>
   <g id="patch_63">
    <path d="M 317.323636 307.584 
L 337.614545 307.584 
L 337.614545 307.584 
L 317.323636 307.584 
z
" clip-path="url(#p72c48ff262)" style="fill: #2ca02c; fill-opacity: 0.5; stroke: #000000; stroke-linejoin: miter"/>
   </g>
   <g id="patch_64">
    <path d="M 337.614545 307.584 
L 357.905455 307.584 
L 357.905455 307.584 
L 337.614545 307.584 
z
" clip-path="url(#p72c48ff262)" style="fill: #2ca02c; fill-opacity: 0.5; stroke: #000000; stroke-linejoin: miter"/>
   </g>
   <g id="patch_65">
    <path d="M 357.905455 307.584 
L 378.196364 307.584 
L 378.196364 307.584 
L 357.905455 307.584 
z
" clip-path="url(#p72c48ff262)" style="fill: #2ca02c; fill-opacity: 0.5; stroke: #000000; stroke-linejoin: miter"/>
   </g>
   <g id="patch_66">
    <path d="M 378.196364 307.584 
L 398.487273 307.584 
L 398.487273 307.584 
L 378.196364 307.584 
z
" clip-path="url(#p72c48ff262)" style="fill: #2ca02c; fill-opacity: 0.5; stroke: #000000; stroke-linejoin: miter"/>
   </g>
   <g id="patch_67">
    <path d="M 73.832727 307.584 
L 94.123636 307.584 
L 94.123636 307.584 
L 73.832727 307.584 
z
" clip-path="url(#p72c48ff262)" style="fill: #ff7f0e; fill-opacity: 0.5; stroke: #000000; stroke-linejoin: miter"/>
   </g>
   <g id="patch_68">
    <path d="M 94.123636 307.584 
L 114.414545 307.584 
L 114.414545 307.584 
L 94.123636 307.584 
z
" clip-path="url(#p72c48ff262)" style="fill: #ff7f0e; fill-opacity: 0.5; stroke: #000000; stroke-linejoin: miter"/>
   </g>
   <g id="patch_69">
    <path d="M 114.414545 307.584 
L 134.705455 307.584 
L 134.705455 307.286533 
L 114.414545 307.286533 
z
" clip-path="url(#p72c48ff262)" style="fill: #ff7f0e; fill-opacity: 0.5; stroke: #000000; stroke-linejoin: miter"/>
   </g>
   <g id="patch_70">
    <path d="M 134.705455 307.584 
L 154.996364 307.584 
L 154.996364 305.799199 
L 134.705455 305.799199 
z
" clip-path="url(#p72c48ff262)" style="fill: #ff7f0e; fill-opacity: 0.5; stroke: #000000; stroke-linejoin: miter"/>
   </g>
   <g id="patch_71">
    <path d="M 154.996364 307.584 
L 175.287273 307.584 
L 175.287273 307.584 
L 154.996364 307.584 
z
" clip-path="url(#p72c48ff262)" style="fill: #ff7f0e; fill-opacity: 0.5; stroke: #000000; stroke-linejoin: miter"/>
   </g>
   <g id="patch_72">
    <path d="M 175.287273 307.584 
L 195.578182 307.584 
L 195.578182 307.584 
L 175.287273 307.584 
z
" clip-path="url(#p72c48ff262)" style="fill: #ff7f0e; fill-opacity: 0.5; stroke: #000000; stroke-linejoin: miter"/>
   </g>
   <g id="patch_73">
    <path d="M 195.578182 307.584 
L 215.869091 307.584 
L 215.869091 307.584 
L 195.578182 307.584 
z
" clip-path="url(#p72c48ff262)" style="fill: #ff7f0e; fill-opacity: 0.5; stroke: #000000; stroke-linejoin: miter"/>
   </g>
   <g id="patch_74">
    <path d="M 215.869091 307.584 
L 236.16 307.584 
L 236.16 307.584 
L 215.869091 307.584 
z
" clip-path="url(#p72c48ff262)" style="fill: #ff7f0e; fill-opacity: 0.5; stroke: #000000; stroke-linejoin: miter"/>
   </g>
   <g id="patch_75">
    <path d="M 236.16 307.584 
L 256.450909 307.584 
L 256.450909 307.584 
L 236.16 307.584 
z
" clip-path="url(#p72c48ff262)" style="fill: #ff7f0e; fill-opacity: 0.5; stroke: #000000; stroke-linejoin: miter"/>
   </g>
   <g id="patch_76">
    <path d="M 256.450909 307.584 
L 276.741818 307.584 
L 276.741818 307.584 
L 256.450909 307.584 
z
" clip-path="url(#p72c48ff262)" style="fill: #ff7f0e; fill-opacity: 0.5; stroke: #000000; stroke-linejoin: miter"/>
   </g>
   <g id="patch_77">
    <path d="M 276.741818 307.584 
L 297.032727 307.584 
L 297.032727 307.584 
L 276.741818 307.584 
z
" clip-path="url(#p72c48ff262)" style="fill: #ff7f0e; fill-opacity: 0.5; stroke: #000000; stroke-linejoin: miter"/>
   </g>
   <g id="patch_78">
    <path d="M 297.032727 307.584 
L 317.323636 307.584 
L 317.323636 307.584 
L 297.032727 307.584 
z
" clip-path="url(#p72c48ff262)" style="fill: #ff7f0e; fill-opacity: 0.5; stroke: #000000; stroke-linejoin: miter"/>
   </g>
   <g id="patch_79">
    <path d="M 317.323636 307.584 
L 337.614545 307.584 
L 337.614545 307.584 
L 317.323636 307.584 
z
" clip-path="url(#p72c48ff262)" style="fill: #ff7f0e; fill-opacity: 0.5; stroke: #000000; stroke-linejoin: miter"/>
   </g>
   <g id="patch_80">
    <path d="M 337.614545 307.584 
L 357.905455 307.584 
L 357.905455 307.584 
L 337.614545 307.584 
z
" clip-path="url(#p72c48ff262)" style="fill: #ff7f0e; fill-opacity: 0.5; stroke: #000000; stroke-linejoin: miter"/>
   </g>
   <g id="patch_81">
    <path d="M 357.905455 307.584 
L 378.196364 307.584 
L 378.196364 307.584 
L 357.905455 307.584 
z
" clip-path="url(#p72c48ff262)" style="fill: #ff7f0e; fill-opacity: 0.5; stroke: #000000; stroke-linejoin: miter"/>
   </g>
   <g id="patch_82">
    <path d="M 378.196364 307.584 
L 398.487273 307.584 
L 398.487273 307.584 
L 378.196364 307.584 
z
" clip-path="url(#p72c48ff262)" style="fill: #ff7f0e; fill-opacity: 0.5; stroke: #000000; stroke-linejoin: miter"/>
   </g>
   <g id="patch_83">
    <path d="M 73.832727 307.584 
L 94.123636 307.584 
L 94.123636 307.584 
L 73.832727 307.584 
z
" clip-path="url(#p72c48ff262)" style="fill: #1f77b4; fill-opacity: 0.5; stroke: #000000; stroke-linejoin: miter"/>
   </g>
   <g id="patch_84">
    <path d="M 94.123636 307.584 
L 114.414545 307.584 
L 114.414545 307.584 
L 94.123636 307.584 
z
" clip-path="url(#p72c48ff262)" style="fill: #1f77b4; fill-opacity: 0.5; stroke: #000000; stroke-linejoin: miter"/>
   </g>
   <g id="patch_85">
    <path d="M 114.414545 307.584 
L 134.705455 307.584 
L 134.705455 307.584 
L 114.414545 307.584 
z
" clip-path="url(#p72c48ff262)" style="fill: #1f77b4; fill-opacity: 0.5; stroke: #000000; stroke-linejoin: miter"/>
   </g>
   <g id="patch_86">
    <path d="M 134.705455 307.584 
L 154.996364 307.584 
L 154.996364 307.584 
L 134.705455 307.584 
z
" clip-path="url(#p72c48ff262)" style="fill: #1f77b4; fill-opacity: 0.5; stroke: #000000; stroke-linejoin: miter"/>
   </g>
   <g id="patch_87">
    <path d="M 154.996364 307.584 
L 175.287273 307.584 
L 175.287273 307.584 
L 154.996364 307.584 
z
" clip-path="url(#p72c48ff262)" style="fill: #1f77b4; fill-opacity: 0.5; stroke: #000000; stroke-linejoin: miter"/>
   </g>
   <g id="patch_88">
    <path d="M 175.287273 307.584 
L 195.578182 307.584 
L 195.578182 307.584 
L 175.287273 307.584 
z
" clip-path="url(#p72c48ff262)" style="fill: #1f77b4; fill-opacity: 0.5; stroke: #000000; stroke-linejoin: miter"/>
   </g>
   <g id="patch_89">
    <path d="M 195.578182 307.584 
L 215.869091 307.584 
L 215.869091 221.616105 
L 195.578182 221.616105 
z
" clip-path="url(#p72c48ff262)" style="fill: #1f77b4; fill-opacity: 0.5; stroke: #000000; stroke-linejoin: miter"/>
   </g>
   <g id="patch_90">
    <path d="M 215.869091 307.584 
L 236.16 307.584 
L 236.16 244.818512 
L 215.869091 244.818512 
z
" clip-path="url(#p72c48ff262)" style="fill: #1f77b4; fill-opacity: 0.5; stroke: #000000; stroke-linejoin: miter"/>
   </g>
   <g id="patch_91">
    <path d="M 236.16 307.584 
L 256.450909 307.584 
L 256.450909 307.584 
L 236.16 307.584 
z
" clip-path="url(#p72c48ff262)" style="fill: #1f77b4; fill-opacity: 0.5; stroke: #000000; stroke-linejoin: miter"/>
   </g>
   <g id="patch_92">
    <path d="M 256.450909 307.584 
L 276.741818 307.584 
L 276.741818 307.584 
L 256.450909 307.584 
z
" clip-path="url(#p72c48ff262)" style="fill: #1f77b4; fill-opacity: 0.5; stroke: #000000; stroke-linejoin: miter"/>
   </g>
   <g id="patch_93">
    <path d="M 276.741818 307.584 
L 297.032727 307.584 
L 297.032727 307.584 
L 276.741818 307.584 
z
" clip-path="url(#p72c48ff262)" style="fill: #1f77b4; fill-opacity: 0.5; stroke: #000000; stroke-linejoin: miter"/>
   </g>
   <g id="patch_94">
    <path d="M 297.032727 307.584 
L 317.323636 307.584 
L 317.323636 307.584 
L 297.032727 307.584 
z
" clip-path="url(#p72c48ff262)" style="fill: #1f77b4; fill-opacity: 0.5; stroke: #000000; stroke-linejoin: miter"/>
   </g>
   <g id="patch_95">
    <path d="M 317.323636 307.584 
L 337.614545 307.584 
L 337.614545 307.584 
L 317.323636 307.584 
z
" clip-path="url(#p72c48ff262)" style="fill: #1f77b4; fill-opacity: 0.5; stroke: #000000; stroke-linejoin: miter"/>
   </g>
   <g id="patch_96">
    <path d="M 337.614545 307.584 
L 357.905455 307.584 
L 357.905455 307.584 
L 337.614545 307.584 
z
" clip-path="url(#p72c48ff262)" style="fill: #1f77b4; fill-opacity: 0.5; stroke: #000000; stroke-linejoin: miter"/>
   </g>
   <g id="patch_97">
    <path d="M 357.905455 307.584 
L 378.196364 307.584 
L 378.196364 307.584 
L 357.905455 307.584 
z
" clip-path="url(#p72c48ff262)" style="fill: #1f77b4; fill-opacity: 0.5; stroke: #000000; stroke-linejoin: miter"/>
   </g>
   <g id="patch_98">
    <path d="M 378.196364 307.584 
L 398.487273 307.584 
L 398.487273 307.584 
L 378.196364 307.584 
z
" clip-path="url(#p72c48ff262)" style="fill: #1f77b4; fill-opacity: 0.5; stroke: #000000; stroke-linejoin: miter"/>
   </g>
   <g id="matplotlib.axis_1">
    <g id="xtick_1">
     <g id="line2d_1">
      <defs>
       <path id="m7e92ec32d1" d="M 0 0 
L 0 3.5 
" style="stroke: #000000; stroke-width: 0.8"/>
      </defs>
      <g>
       <use xlink:href="#m7e92ec32d1" x="62.870129" y="307.584" style="stroke: #000000; stroke-width: 0.8"/>
      </g>
     </g>
     <g id="text_1">
      <!-- 0.15 -->
      <g transform="translate(51.737316 322.182437) scale(0.1 -0.1)">
       <defs>
        <path id="DejaVuSans-30" d="M 2034 4250 
Q 1547 4250 1301 3770 
Q 1056 3291 1056 2328 
Q 1056 1369 1301 889 
Q 1547 409 2034 409 
Q 2525 409 2770 889 
Q 3016 1369 3016 2328 
Q 3016 3291 2770 3770 
Q 2525 4250 2034 4250 
z
M 2034 4750 
Q 2819 4750 3233 4129 
Q 3647 3509 3647 2328 
Q 3647 1150 3233 529 
Q 2819 -91 2034 -91 
Q 1250 -91 836 529 
Q 422 1150 422 2328 
Q 422 3509 836 4129 
Q 1250 4750 2034 4750 
z
" transform="scale(0.015625)"/>
        <path id="DejaVuSans-2e" d="M 684 794 
L 1344 794 
L 1344 0 
L 684 0 
L 684 794 
z
" transform="scale(0.015625)"/>
        <path id="DejaVuSans-31" d="M 794 531 
L 1825 531 
L 1825 4091 
L 703 3866 
L 703 4441 
L 1819 4666 
L 2450 4666 
L 2450 531 
L 3481 531 
L 3481 0 
L 794 0 
L 794 531 
z
" transform="scale(0.015625)"/>
        <path id="DejaVuSans-35" d="M 691 4666 
L 3169 4666 
L 3169 4134 
L 1269 4134 
L 1269 2991 
Q 1406 3038 1543 3061 
Q 1681 3084 1819 3084 
Q 2600 3084 3056 2656 
Q 3513 2228 3513 1497 
Q 3513 744 3044 326 
Q 2575 -91 1722 -91 
Q 1428 -91 1123 -41 
Q 819 9 494 109 
L 494 744 
Q 775 591 1075 516 
Q 1375 441 1709 441 
Q 2250 441 2565 725 
Q 2881 1009 2881 1497 
Q 2881 1984 2565 2268 
Q 2250 2553 1709 2553 
Q 1456 2553 1204 2497 
Q 953 2441 691 2322 
L 691 4666 
z
" transform="scale(0.015625)"/>
       </defs>
       <use xlink:href="#DejaVuSans-30"/>
       <use xlink:href="#DejaVuSans-2e" x="63.623047"/>
       <use xlink:href="#DejaVuSans-31" x="95.410156"/>
       <use xlink:href="#DejaVuSans-35" x="159.033203"/>
      </g>
     </g>
    </g>
    <g id="xtick_2">
     <g id="line2d_2">
      <g>
       <use xlink:href="#m7e92ec32d1" x="114.755077" y="307.584" style="stroke: #000000; stroke-width: 0.8"/>
      </g>
     </g>
     <g id="text_2">
      <!-- 0.20 -->
      <g transform="translate(103.622264 322.182437) scale(0.1 -0.1)">
       <defs>
        <path id="DejaVuSans-32" d="M 1228 531 
L 3431 531 
L 3431 0 
L 469 0 
L 469 531 
Q 828 903 1448 1529 
Q 2069 2156 2228 2338 
Q 2531 2678 2651 2914 
Q 2772 3150 2772 3378 
Q 2772 3750 2511 3984 
Q 2250 4219 1831 4219 
Q 1534 4219 1204 4116 
Q 875 4013 500 3803 
L 500 4441 
Q 881 4594 1212 4672 
Q 1544 4750 1819 4750 
Q 2544 4750 2975 4387 
Q 3406 4025 3406 3419 
Q 3406 3131 3298 2873 
Q 3191 2616 2906 2266 
Q 2828 2175 2409 1742 
Q 1991 1309 1228 531 
z
" transform="scale(0.015625)"/>
       </defs>
       <use xlink:href="#DejaVuSans-30"/>
       <use xlink:href="#DejaVuSans-2e" x="63.623047"/>
       <use xlink:href="#DejaVuSans-32" x="95.410156"/>
       <use xlink:href="#DejaVuSans-30" x="159.033203"/>
      </g>
     </g>
    </g>
    <g id="xtick_3">
     <g id="line2d_3">
      <g>
       <use xlink:href="#m7e92ec32d1" x="166.640025" y="307.584" style="stroke: #000000; stroke-width: 0.8"/>
      </g>
     </g>
     <g id="text_3">
      <!-- 0.25 -->
      <g transform="translate(155.507212 322.182437) scale(0.1 -0.1)">
       <use xlink:href="#DejaVuSans-30"/>
       <use xlink:href="#DejaVuSans-2e" x="63.623047"/>
       <use xlink:href="#DejaVuSans-32" x="95.410156"/>
       <use xlink:href="#DejaVuSans-35" x="159.033203"/>
      </g>
     </g>
    </g>
    <g id="xtick_4">
     <g id="line2d_4">
      <g>
       <use xlink:href="#m7e92ec32d1" x="218.524973" y="307.584" style="stroke: #000000; stroke-width: 0.8"/>
      </g>
     </g>
     <g id="text_4">
      <!-- 0.30 -->
      <g transform="translate(207.39216 322.182437) scale(0.1 -0.1)">
       <defs>
        <path id="DejaVuSans-33" d="M 2597 2516 
Q 3050 2419 3304 2112 
Q 3559 1806 3559 1356 
Q 3559 666 3084 287 
Q 2609 -91 1734 -91 
Q 1441 -91 1130 -33 
Q 819 25 488 141 
L 488 750 
Q 750 597 1062 519 
Q 1375 441 1716 441 
Q 2309 441 2620 675 
Q 2931 909 2931 1356 
Q 2931 1769 2642 2001 
Q 2353 2234 1838 2234 
L 1294 2234 
L 1294 2753 
L 1863 2753 
Q 2328 2753 2575 2939 
Q 2822 3125 2822 3475 
Q 2822 3834 2567 4026 
Q 2313 4219 1838 4219 
Q 1578 4219 1281 4162 
Q 984 4106 628 3988 
L 628 4550 
Q 988 4650 1302 4700 
Q 1616 4750 1894 4750 
Q 2613 4750 3031 4423 
Q 3450 4097 3450 3541 
Q 3450 3153 3228 2886 
Q 3006 2619 2597 2516 
z
" transform="scale(0.015625)"/>
       </defs>
       <use xlink:href="#DejaVuSans-30"/>
       <use xlink:href="#DejaVuSans-2e" x="63.623047"/>
       <use xlink:href="#DejaVuSans-33" x="95.410156"/>
       <use xlink:href="#DejaVuSans-30" x="159.033203"/>
      </g>
     </g>
    </g>
    <g id="xtick_5">
     <g id="line2d_5">
      <g>
       <use xlink:href="#m7e92ec32d1" x="270.409921" y="307.584" style="stroke: #000000; stroke-width: 0.8"/>
      </g>
     </g>
     <g id="text_5">
      <!-- 0.35 -->
      <g transform="translate(259.277109 322.182437) scale(0.1 -0.1)">
       <use xlink:href="#DejaVuSans-30"/>
       <use xlink:href="#DejaVuSans-2e" x="63.623047"/>
       <use xlink:href="#DejaVuSans-33" x="95.410156"/>
       <use xlink:href="#DejaVuSans-35" x="159.033203"/>
      </g>
     </g>
    </g>
    <g id="xtick_6">
     <g id="line2d_6">
      <g>
       <use xlink:href="#m7e92ec32d1" x="322.294869" y="307.584" style="stroke: #000000; stroke-width: 0.8"/>
      </g>
     </g>
     <g id="text_6">
      <!-- 0.40 -->
      <g transform="translate(311.162057 322.182437) scale(0.1 -0.1)">
       <defs>
        <path id="DejaVuSans-34" d="M 2419 4116 
L 825 1625 
L 2419 1625 
L 2419 4116 
z
M 2253 4666 
L 3047 4666 
L 3047 1625 
L 3713 1625 
L 3713 1100 
L 3047 1100 
L 3047 0 
L 2419 0 
L 2419 1100 
L 313 1100 
L 313 1709 
L 2253 4666 
z
" transform="scale(0.015625)"/>
       </defs>
       <use xlink:href="#DejaVuSans-30"/>
       <use xlink:href="#DejaVuSans-2e" x="63.623047"/>
       <use xlink:href="#DejaVuSans-34" x="95.410156"/>
       <use xlink:href="#DejaVuSans-30" x="159.033203"/>
      </g>
     </g>
    </g>
    <g id="xtick_7">
     <g id="line2d_7">
      <g>
       <use xlink:href="#m7e92ec32d1" x="374.179817" y="307.584" style="stroke: #000000; stroke-width: 0.8"/>
      </g>
     </g>
     <g id="text_7">
      <!-- 0.45 -->
      <g transform="translate(363.047005 322.182437) scale(0.1 -0.1)">
       <use xlink:href="#DejaVuSans-30"/>
       <use xlink:href="#DejaVuSans-2e" x="63.623047"/>
       <use xlink:href="#DejaVuSans-34" x="95.410156"/>
       <use xlink:href="#DejaVuSans-35" x="159.033203"/>
      </g>
     </g>
    </g>
   </g>
   <g id="matplotlib.axis_2">
    <g id="ytick_1">
     <g id="line2d_8">
      <defs>
       <path id="mdeea58fee3" d="M 0 0 
L -3.5 0 
" style="stroke: #000000; stroke-width: 0.8"/>
      </defs>
      <g>
       <use xlink:href="#mdeea58fee3" x="57.6" y="307.584" style="stroke: #000000; stroke-width: 0.8"/>
      </g>
     </g>
     <g id="text_8">
      <!-- 0 -->
      <g transform="translate(44.2375 311.383219) scale(0.1 -0.1)">
       <use xlink:href="#DejaVuSans-30"/>
      </g>
     </g>
    </g>
    <g id="ytick_2">
     <g id="line2d_9">
      <g>
       <use xlink:href="#mdeea58fee3" x="57.6" y="277.837323" style="stroke: #000000; stroke-width: 0.8"/>
      </g>
     </g>
     <g id="text_9">
      <!-- 100 -->
      <g transform="translate(31.5125 281.636542) scale(0.1 -0.1)">
       <use xlink:href="#DejaVuSans-31"/>
       <use xlink:href="#DejaVuSans-30" x="63.623047"/>
       <use xlink:href="#DejaVuSans-30" x="127.246094"/>
      </g>
     </g>
    </g>
    <g id="ytick_3">
     <g id="line2d_10">
      <g>
       <use xlink:href="#mdeea58fee3" x="57.6" y="248.090647" style="stroke: #000000; stroke-width: 0.8"/>
      </g>
     </g>
     <g id="text_10">
      <!-- 200 -->
      <g transform="translate(31.5125 251.889866) scale(0.1 -0.1)">
       <use xlink:href="#DejaVuSans-32"/>
       <use xlink:href="#DejaVuSans-30" x="63.623047"/>
       <use xlink:href="#DejaVuSans-30" x="127.246094"/>
      </g>
     </g>
    </g>
    <g id="ytick_4">
     <g id="line2d_11">
      <g>
       <use xlink:href="#mdeea58fee3" x="57.6" y="218.34397" style="stroke: #000000; stroke-width: 0.8"/>
      </g>
     </g>
     <g id="text_11">
      <!-- 300 -->
      <g transform="translate(31.5125 222.143189) scale(0.1 -0.1)">
       <use xlink:href="#DejaVuSans-33"/>
       <use xlink:href="#DejaVuSans-30" x="63.623047"/>
       <use xlink:href="#DejaVuSans-30" x="127.246094"/>
      </g>
     </g>
    </g>
    <g id="ytick_5">
     <g id="line2d_12">
      <g>
       <use xlink:href="#mdeea58fee3" x="57.6" y="188.597294" style="stroke: #000000; stroke-width: 0.8"/>
      </g>
     </g>
     <g id="text_12">
      <!-- 400 -->
      <g transform="translate(31.5125 192.396512) scale(0.1 -0.1)">
       <use xlink:href="#DejaVuSans-34"/>
       <use xlink:href="#DejaVuSans-30" x="63.623047"/>
       <use xlink:href="#DejaVuSans-30" x="127.246094"/>
      </g>
     </g>
    </g>
    <g id="ytick_6">
     <g id="line2d_13">
      <g>
       <use xlink:href="#mdeea58fee3" x="57.6" y="158.850617" style="stroke: #000000; stroke-width: 0.8"/>
      </g>
     </g>
     <g id="text_13">
      <!-- 500 -->
      <g transform="translate(31.5125 162.649836) scale(0.1 -0.1)">
       <use xlink:href="#DejaVuSans-35"/>
       <use xlink:href="#DejaVuSans-30" x="63.623047"/>
       <use xlink:href="#DejaVuSans-30" x="127.246094"/>
      </g>
     </g>
    </g>
    <g id="ytick_7">
     <g id="line2d_14">
      <g>
       <use xlink:href="#mdeea58fee3" x="57.6" y="129.10394" style="stroke: #000000; stroke-width: 0.8"/>
      </g>
     </g>
     <g id="text_14">
      <!-- 600 -->
      <g transform="translate(31.5125 132.903159) scale(0.1 -0.1)">
       <defs>
        <path id="DejaVuSans-36" d="M 2113 2584 
Q 1688 2584 1439 2293 
Q 1191 2003 1191 1497 
Q 1191 994 1439 701 
Q 1688 409 2113 409 
Q 2538 409 2786 701 
Q 3034 994 3034 1497 
Q 3034 2003 2786 2293 
Q 2538 2584 2113 2584 
z
M 3366 4563 
L 3366 3988 
Q 3128 4100 2886 4159 
Q 2644 4219 2406 4219 
Q 1781 4219 1451 3797 
Q 1122 3375 1075 2522 
Q 1259 2794 1537 2939 
Q 1816 3084 2150 3084 
Q 2853 3084 3261 2657 
Q 3669 2231 3669 1497 
Q 3669 778 3244 343 
Q 2819 -91 2113 -91 
Q 1303 -91 875 529 
Q 447 1150 447 2328 
Q 447 3434 972 4092 
Q 1497 4750 2381 4750 
Q 2619 4750 2861 4703 
Q 3103 4656 3366 4563 
z
" transform="scale(0.015625)"/>
       </defs>
       <use xlink:href="#DejaVuSans-36"/>
       <use xlink:href="#DejaVuSans-30" x="63.623047"/>
       <use xlink:href="#DejaVuSans-30" x="127.246094"/>
      </g>
     </g>
    </g>
    <g id="ytick_8">
     <g id="line2d_15">
      <g>
       <use xlink:href="#mdeea58fee3" x="57.6" y="99.357264" style="stroke: #000000; stroke-width: 0.8"/>
      </g>
     </g>
     <g id="text_15">
      <!-- 700 -->
      <g transform="translate(31.5125 103.156483) scale(0.1 -0.1)">
       <defs>
        <path id="DejaVuSans-37" d="M 525 4666 
L 3525 4666 
L 3525 4397 
L 1831 0 
L 1172 0 
L 2766 4134 
L 525 4134 
L 525 4666 
z
" transform="scale(0.015625)"/>
       </defs>
       <use xlink:href="#DejaVuSans-37"/>
       <use xlink:href="#DejaVuSans-30" x="63.623047"/>
       <use xlink:href="#DejaVuSans-30" x="127.246094"/>
      </g>
     </g>
    </g>
    <g id="ytick_9">
     <g id="line2d_16">
      <g>
       <use xlink:href="#mdeea58fee3" x="57.6" y="69.610587" style="stroke: #000000; stroke-width: 0.8"/>
      </g>
     </g>
     <g id="text_16">
      <!-- 800 -->
      <g transform="translate(31.5125 73.409806) scale(0.1 -0.1)">
       <defs>
        <path id="DejaVuSans-38" d="M 2034 2216 
Q 1584 2216 1326 1975 
Q 1069 1734 1069 1313 
Q 1069 891 1326 650 
Q 1584 409 2034 409 
Q 2484 409 2743 651 
Q 3003 894 3003 1313 
Q 3003 1734 2745 1975 
Q 2488 2216 2034 2216 
z
M 1403 2484 
Q 997 2584 770 2862 
Q 544 3141 544 3541 
Q 544 4100 942 4425 
Q 1341 4750 2034 4750 
Q 2731 4750 3128 4425 
Q 3525 4100 3525 3541 
Q 3525 3141 3298 2862 
Q 3072 2584 2669 2484 
Q 3125 2378 3379 2068 
Q 3634 1759 3634 1313 
Q 3634 634 3220 271 
Q 2806 -91 2034 -91 
Q 1263 -91 848 271 
Q 434 634 434 1313 
Q 434 1759 690 2068 
Q 947 2378 1403 2484 
z
M 1172 3481 
Q 1172 3119 1398 2916 
Q 1625 2713 2034 2713 
Q 2441 2713 2670 2916 
Q 2900 3119 2900 3481 
Q 2900 3844 2670 4047 
Q 2441 4250 2034 4250 
Q 1625 4250 1398 4047 
Q 1172 3844 1172 3481 
z
" transform="scale(0.015625)"/>
       </defs>
       <use xlink:href="#DejaVuSans-38"/>
       <use xlink:href="#DejaVuSans-30" x="63.623047"/>
       <use xlink:href="#DejaVuSans-30" x="127.246094"/>
      </g>
     </g>
    </g>
    <g id="text_17">
     <!-- Count -->
     <g transform="translate(25.432812 189.376437) rotate(-90) scale(0.1 -0.1)">
      <defs>
       <path id="DejaVuSans-43" d="M 4122 4306 
L 4122 3641 
Q 3803 3938 3442 4084 
Q 3081 4231 2675 4231 
Q 1875 4231 1450 3742 
Q 1025 3253 1025 2328 
Q 1025 1406 1450 917 
Q 1875 428 2675 428 
Q 3081 428 3442 575 
Q 3803 722 4122 1019 
L 4122 359 
Q 3791 134 3420 21 
Q 3050 -91 2638 -91 
Q 1578 -91 968 557 
Q 359 1206 359 2328 
Q 359 3453 968 4101 
Q 1578 4750 2638 4750 
Q 3056 4750 3426 4639 
Q 3797 4528 4122 4306 
z
" transform="scale(0.015625)"/>
       <path id="DejaVuSans-6f" d="M 1959 3097 
Q 1497 3097 1228 2736 
Q 959 2375 959 1747 
Q 959 1119 1226 758 
Q 1494 397 1959 397 
Q 2419 397 2687 759 
Q 2956 1122 2956 1747 
Q 2956 2369 2687 2733 
Q 2419 3097 1959 3097 
z
M 1959 3584 
Q 2709 3584 3137 3096 
Q 3566 2609 3566 1747 
Q 3566 888 3137 398 
Q 2709 -91 1959 -91 
Q 1206 -91 779 398 
Q 353 888 353 1747 
Q 353 2609 779 3096 
Q 1206 3584 1959 3584 
z
" transform="scale(0.015625)"/>
       <path id="DejaVuSans-75" d="M 544 1381 
L 544 3500 
L 1119 3500 
L 1119 1403 
Q 1119 906 1312 657 
Q 1506 409 1894 409 
Q 2359 409 2629 706 
Q 2900 1003 2900 1516 
L 2900 3500 
L 3475 3500 
L 3475 0 
L 2900 0 
L 2900 538 
Q 2691 219 2414 64 
Q 2138 -91 1772 -91 
Q 1169 -91 856 284 
Q 544 659 544 1381 
z
M 1991 3584 
L 1991 3584 
z
" transform="scale(0.015625)"/>
       <path id="DejaVuSans-6e" d="M 3513 2113 
L 3513 0 
L 2938 0 
L 2938 2094 
Q 2938 2591 2744 2837 
Q 2550 3084 2163 3084 
Q 1697 3084 1428 2787 
Q 1159 2491 1159 1978 
L 1159 0 
L 581 0 
L 581 3500 
L 1159 3500 
L 1159 2956 
Q 1366 3272 1645 3428 
Q 1925 3584 2291 3584 
Q 2894 3584 3203 3211 
Q 3513 2838 3513 2113 
z
" transform="scale(0.015625)"/>
       <path id="DejaVuSans-74" d="M 1172 4494 
L 1172 3500 
L 2356 3500 
L 2356 3053 
L 1172 3053 
L 1172 1153 
Q 1172 725 1289 603 
Q 1406 481 1766 481 
L 2356 481 
L 2356 0 
L 1766 0 
Q 1100 0 847 248 
Q 594 497 594 1153 
L 594 3053 
L 172 3053 
L 172 3500 
L 594 3500 
L 594 4494 
L 1172 4494 
z
" transform="scale(0.015625)"/>
      </defs>
      <use xlink:href="#DejaVuSans-43"/>
      <use xlink:href="#DejaVuSans-6f" x="69.824219"/>
      <use xlink:href="#DejaVuSans-75" x="131.005859"/>
      <use xlink:href="#DejaVuSans-6e" x="194.384766"/>
      <use xlink:href="#DejaVuSans-74" x="257.763672"/>
     </g>
    </g>
   </g>
   <g id="line2d_17">
    <path d="M 73.832727 307.584 
L 377.278684 307.537607 
L 378.910114 307.423903 
L 380.541544 307.152924 
L 382.172974 306.66804 
L 385.435834 305.364748 
L 387.067264 304.874195 
L 388.698693 304.62641 
L 390.330123 304.629956 
L 391.961553 304.848399 
L 398.487273 306.289543 
L 398.487273 306.289543 
" clip-path="url(#p72c48ff262)" style="fill: none; stroke: #8c564b; stroke-width: 1.5; stroke-linecap: square"/>
   </g>
   <g id="line2d_18">
    <path d="M 73.832727 302.106626 
L 75.464157 289.738705 
L 77.095587 258.611809 
L 80.358447 170.606094 
L 81.989877 115.344589 
L 83.621307 64.83205 
L 85.252736 54.144 
L 86.884166 91.565816 
L 88.515596 122.384134 
L 90.147026 142.998041 
L 91.778456 169.974884 
L 93.409886 225.275193 
L 95.041316 267.694485 
L 96.672746 285.774019 
L 98.304175 299.632684 
L 99.935605 306.280421 
L 101.567035 307.512252 
L 104.829895 307.583996 
L 398.487273 307.584 
L 398.487273 307.584 
" clip-path="url(#p72c48ff262)" style="fill: none; stroke: #9467bd; stroke-width: 1.5; stroke-linecap: square"/>
   </g>
   <g id="line2d_19">
    <path d="M 73.832727 307.584 
L 261.447163 307.481315 
L 266.341453 307.154816 
L 274.498602 306.431078 
L 287.550041 305.910045 
L 290.812901 306.041388 
L 294.075761 306.413336 
L 300.60148 307.275145 
L 303.86434 307.482655 
L 310.390059 307.579847 
L 380.541544 307.584 
L 398.487273 307.584 
L 398.487273 307.584 
" clip-path="url(#p72c48ff262)" style="fill: none; stroke: #d62728; stroke-width: 1.5; stroke-linecap: square"/>
   </g>
   <g id="line2d_20">
    <path d="M 73.832727 307.583931 
L 81.989877 307.52489 
L 85.252736 307.305681 
L 88.515596 306.831909 
L 93.409886 305.83514 
L 95.041316 305.394425 
L 96.672746 304.790979 
L 98.304175 303.931127 
L 99.935605 302.795225 
L 104.829895 298.907848 
L 106.461325 297.365079 
L 108.092755 295.174546 
L 109.724185 292.131441 
L 111.355614 288.3818 
L 114.618474 279.842814 
L 116.249904 275.03312 
L 117.881334 269.574035 
L 122.775624 251.28452 
L 124.407053 245.931334 
L 127.669913 236.282902 
L 129.301343 231.648107 
L 130.932773 227.448611 
L 132.564203 224.193901 
L 134.195633 222.268179 
L 135.827063 221.765446 
L 137.458492 222.514163 
L 139.089922 224.192436 
L 140.721352 226.493236 
L 142.352782 229.343944 
L 143.984212 233.042019 
L 145.615642 238.075487 
L 147.247072 244.650905 
L 150.509931 260.151885 
L 152.141361 267.150084 
L 153.772791 272.833038 
L 155.404221 277.302198 
L 158.667081 284.528235 
L 165.1928 298.536532 
L 166.82423 301.222023 
L 168.45566 303.273528 
L 170.08709 304.713853 
L 171.71852 305.650822 
L 173.34995 306.235292 
L 176.61281 306.902297 
L 179.875669 307.324105 
L 183.138529 307.52767 
L 189.664249 307.583645 
L 398.487273 307.584 
L 398.487273 307.584 
" clip-path="url(#p72c48ff262)" style="fill: none; stroke: #2ca02c; stroke-width: 1.5; stroke-linecap: square"/>
   </g>
   <g id="line2d_21">
    <path d="M 73.832727 307.584 
L 126.038483 307.514923 
L 127.669913 307.362472 
L 129.301343 307.060659 
L 134.195633 305.717698 
L 139.089922 304.068972 
L 140.721352 304.103591 
L 142.352782 304.594483 
L 147.247072 306.68242 
L 148.878502 307.159301 
L 150.509931 307.43049 
L 153.772791 307.575944 
L 181.507099 307.584 
L 398.487273 307.584 
L 398.487273 307.584 
" clip-path="url(#p72c48ff262)" style="fill: none; stroke: #ff7f0e; stroke-width: 1.5; stroke-linecap: square"/>
   </g>
   <g id="line2d_22">
    <path d="M 73.832727 307.584 
L 196.189968 307.579028 
L 197.821398 307.397436 
L 199.452828 306.090833 
L 201.084258 303.716293 
L 202.715688 300.923429 
L 204.347117 295.4368 
L 205.978547 277.235799 
L 207.609977 234.326308 
L 210.872837 111.368282 
L 212.504267 72.389402 
L 214.135697 60.090686 
L 215.767127 60.541568 
L 217.398556 75.956019 
L 219.029986 142.814978 
L 220.661416 193.054821 
L 223.924276 263.494162 
L 225.555706 289.888099 
L 227.187136 301.716456 
L 230.449995 306.538837 
L 232.081425 307.505028 
L 235.344285 307.583996 
L 398.487273 307.584 
L 398.487273 307.584 
" clip-path="url(#p72c48ff262)" style="fill: none; stroke: #1f77b4; stroke-width: 1.5; stroke-linecap: square"/>
   </g>
   <g id="patch_99">
    <path d="M 57.6 307.584 
L 57.6 41.472 
" style="fill: none; stroke: #000000; stroke-width: 0.8; stroke-linejoin: miter; stroke-linecap: square"/>
   </g>
   <g id="patch_100">
    <path d="M 414.72 307.584 
L 414.72 41.472 
" style="fill: none; stroke: #000000; stroke-width: 0.8; stroke-linejoin: miter; stroke-linecap: square"/>
   </g>
   <g id="patch_101">
    <path d="M 57.6 307.584 
L 414.72 307.584 
" style="fill: none; stroke: #000000; stroke-width: 0.8; stroke-linejoin: miter; stroke-linecap: square"/>
   </g>
   <g id="patch_102">
    <path d="M 57.6 41.472 
L 414.72 41.472 
" style="fill: none; stroke: #000000; stroke-width: 0.8; stroke-linejoin: miter; stroke-linecap: square"/>
   </g>
   <g id="legend_1">
    <g id="patch_103">
     <path d="M 237.277812 137.54075 
L 407.72 137.54075 
Q 409.72 137.54075 409.72 135.54075 
L 409.72 48.472 
Q 409.72 46.472 407.72 46.472 
L 237.277812 46.472 
Q 235.277812 46.472 235.277812 48.472 
L 235.277812 135.54075 
Q 235.277812 137.54075 237.277812 137.54075 
z
" style="fill: #ffffff; opacity: 0.8; stroke: #cccccc; stroke-linejoin: miter"/>
    </g>
    <g id="patch_104">
     <path d="M 239.277812 58.070438 
L 259.277812 58.070438 
L 259.277812 51.070438 
L 239.277812 51.070438 
z
" style="fill: #1f77b4; fill-opacity: 0.5; stroke: #000000; stroke-linejoin: miter"/>
    </g>
    <g id="text_18">
     <!-- LSAVersion = stock -->
     <g transform="translate(267.277812 58.070438) scale(0.1 -0.1)">
      <defs>
       <path id="DejaVuSans-4c" d="M 628 4666 
L 1259 4666 
L 1259 531 
L 3531 531 
L 3531 0 
L 628 0 
L 628 4666 
z
" transform="scale(0.015625)"/>
       <path id="DejaVuSans-53" d="M 3425 4513 
L 3425 3897 
Q 3066 4069 2747 4153 
Q 2428 4238 2131 4238 
Q 1616 4238 1336 4038 
Q 1056 3838 1056 3469 
Q 1056 3159 1242 3001 
Q 1428 2844 1947 2747 
L 2328 2669 
Q 3034 2534 3370 2195 
Q 3706 1856 3706 1288 
Q 3706 609 3251 259 
Q 2797 -91 1919 -91 
Q 1588 -91 1214 -16 
Q 841 59 441 206 
L 441 856 
Q 825 641 1194 531 
Q 1563 422 1919 422 
Q 2459 422 2753 634 
Q 3047 847 3047 1241 
Q 3047 1584 2836 1778 
Q 2625 1972 2144 2069 
L 1759 2144 
Q 1053 2284 737 2584 
Q 422 2884 422 3419 
Q 422 4038 858 4394 
Q 1294 4750 2059 4750 
Q 2388 4750 2728 4690 
Q 3069 4631 3425 4513 
z
" transform="scale(0.015625)"/>
       <path id="DejaVuSans-41" d="M 2188 4044 
L 1331 1722 
L 3047 1722 
L 2188 4044 
z
M 1831 4666 
L 2547 4666 
L 4325 0 
L 3669 0 
L 3244 1197 
L 1141 1197 
L 716 0 
L 50 0 
L 1831 4666 
z
" transform="scale(0.015625)"/>
       <path id="DejaVuSans-56" d="M 1831 0 
L 50 4666 
L 709 4666 
L 2188 738 
L 3669 4666 
L 4325 4666 
L 2547 0 
L 1831 0 
z
" transform="scale(0.015625)"/>
       <path id="DejaVuSans-65" d="M 3597 1894 
L 3597 1613 
L 953 1613 
Q 991 1019 1311 708 
Q 1631 397 2203 397 
Q 2534 397 2845 478 
Q 3156 559 3463 722 
L 3463 178 
Q 3153 47 2828 -22 
Q 2503 -91 2169 -91 
Q 1331 -91 842 396 
Q 353 884 353 1716 
Q 353 2575 817 3079 
Q 1281 3584 2069 3584 
Q 2775 3584 3186 3129 
Q 3597 2675 3597 1894 
z
M 3022 2063 
Q 3016 2534 2758 2815 
Q 2500 3097 2075 3097 
Q 1594 3097 1305 2825 
Q 1016 2553 972 2059 
L 3022 2063 
z
" transform="scale(0.015625)"/>
       <path id="DejaVuSans-72" d="M 2631 2963 
Q 2534 3019 2420 3045 
Q 2306 3072 2169 3072 
Q 1681 3072 1420 2755 
Q 1159 2438 1159 1844 
L 1159 0 
L 581 0 
L 581 3500 
L 1159 3500 
L 1159 2956 
Q 1341 3275 1631 3429 
Q 1922 3584 2338 3584 
Q 2397 3584 2469 3576 
Q 2541 3569 2628 3553 
L 2631 2963 
z
" transform="scale(0.015625)"/>
       <path id="DejaVuSans-73" d="M 2834 3397 
L 2834 2853 
Q 2591 2978 2328 3040 
Q 2066 3103 1784 3103 
Q 1356 3103 1142 2972 
Q 928 2841 928 2578 
Q 928 2378 1081 2264 
Q 1234 2150 1697 2047 
L 1894 2003 
Q 2506 1872 2764 1633 
Q 3022 1394 3022 966 
Q 3022 478 2636 193 
Q 2250 -91 1575 -91 
Q 1294 -91 989 -36 
Q 684 19 347 128 
L 347 722 
Q 666 556 975 473 
Q 1284 391 1588 391 
Q 1994 391 2212 530 
Q 2431 669 2431 922 
Q 2431 1156 2273 1281 
Q 2116 1406 1581 1522 
L 1381 1569 
Q 847 1681 609 1914 
Q 372 2147 372 2553 
Q 372 3047 722 3315 
Q 1072 3584 1716 3584 
Q 2034 3584 2315 3537 
Q 2597 3491 2834 3397 
z
" transform="scale(0.015625)"/>
       <path id="DejaVuSans-69" d="M 603 3500 
L 1178 3500 
L 1178 0 
L 603 0 
L 603 3500 
z
M 603 4863 
L 1178 4863 
L 1178 4134 
L 603 4134 
L 603 4863 
z
" transform="scale(0.015625)"/>
       <path id="DejaVuSans-20" transform="scale(0.015625)"/>
       <path id="DejaVuSans-3d" d="M 678 2906 
L 4684 2906 
L 4684 2381 
L 678 2381 
L 678 2906 
z
M 678 1631 
L 4684 1631 
L 4684 1100 
L 678 1100 
L 678 1631 
z
" transform="scale(0.015625)"/>
       <path id="DejaVuSans-63" d="M 3122 3366 
L 3122 2828 
Q 2878 2963 2633 3030 
Q 2388 3097 2138 3097 
Q 1578 3097 1268 2742 
Q 959 2388 959 1747 
Q 959 1106 1268 751 
Q 1578 397 2138 397 
Q 2388 397 2633 464 
Q 2878 531 3122 666 
L 3122 134 
Q 2881 22 2623 -34 
Q 2366 -91 2075 -91 
Q 1284 -91 818 406 
Q 353 903 353 1747 
Q 353 2603 823 3093 
Q 1294 3584 2113 3584 
Q 2378 3584 2631 3529 
Q 2884 3475 3122 3366 
z
" transform="scale(0.015625)"/>
       <path id="DejaVuSans-6b" d="M 581 4863 
L 1159 4863 
L 1159 1991 
L 2875 3500 
L 3609 3500 
L 1753 1863 
L 3688 0 
L 2938 0 
L 1159 1709 
L 1159 0 
L 581 0 
L 581 4863 
z
" transform="scale(0.015625)"/>
      </defs>
      <use xlink:href="#DejaVuSans-4c"/>
      <use xlink:href="#DejaVuSans-53" x="55.712891"/>
      <use xlink:href="#DejaVuSans-41" x="121.064453"/>
      <use xlink:href="#DejaVuSans-56" x="183.097656"/>
      <use xlink:href="#DejaVuSans-65" x="243.755859"/>
      <use xlink:href="#DejaVuSans-72" x="305.279297"/>
      <use xlink:href="#DejaVuSans-73" x="346.392578"/>
      <use xlink:href="#DejaVuSans-69" x="398.492188"/>
      <use xlink:href="#DejaVuSans-6f" x="426.275391"/>
      <use xlink:href="#DejaVuSans-6e" x="487.457031"/>
      <use xlink:href="#DejaVuSans-20" x="550.835938"/>
      <use xlink:href="#DejaVuSans-3d" x="582.623047"/>
      <use xlink:href="#DejaVuSans-20" x="666.412109"/>
      <use xlink:href="#DejaVuSans-73" x="698.199219"/>
      <use xlink:href="#DejaVuSans-74" x="750.298828"/>
      <use xlink:href="#DejaVuSans-6f" x="789.507812"/>
      <use xlink:href="#DejaVuSans-63" x="850.689453"/>
      <use xlink:href="#DejaVuSans-6b" x="905.669922"/>
     </g>
    </g>
    <g id="patch_105">
     <path d="M 239.277812 72.748563 
L 259.277812 72.748563 
L 259.277812 65.748563 
L 239.277812 65.748563 
z
" style="fill: #ff7f0e; fill-opacity: 0.5; stroke: #000000; stroke-linejoin: miter"/>
    </g>
    <g id="text_19">
     <!-- LSAVersion = recursive fn -->
     <g transform="translate(267.277812 72.748563) scale(0.1 -0.1)">
      <defs>
       <path id="DejaVuSans-76" d="M 191 3500 
L 800 3500 
L 1894 563 
L 2988 3500 
L 3597 3500 
L 2284 0 
L 1503 0 
L 191 3500 
z
" transform="scale(0.015625)"/>
       <path id="DejaVuSans-66" d="M 2375 4863 
L 2375 4384 
L 1825 4384 
Q 1516 4384 1395 4259 
Q 1275 4134 1275 3809 
L 1275 3500 
L 2222 3500 
L 2222 3053 
L 1275 3053 
L 1275 0 
L 697 0 
L 697 3053 
L 147 3053 
L 147 3500 
L 697 3500 
L 697 3744 
Q 697 4328 969 4595 
Q 1241 4863 1831 4863 
L 2375 4863 
z
" transform="scale(0.015625)"/>
      </defs>
      <use xlink:href="#DejaVuSans-4c"/>
      <use xlink:href="#DejaVuSans-53" x="55.712891"/>
      <use xlink:href="#DejaVuSans-41" x="121.064453"/>
      <use xlink:href="#DejaVuSans-56" x="183.097656"/>
      <use xlink:href="#DejaVuSans-65" x="243.755859"/>
      <use xlink:href="#DejaVuSans-72" x="305.279297"/>
      <use xlink:href="#DejaVuSans-73" x="346.392578"/>
      <use xlink:href="#DejaVuSans-69" x="398.492188"/>
      <use xlink:href="#DejaVuSans-6f" x="426.275391"/>
      <use xlink:href="#DejaVuSans-6e" x="487.457031"/>
      <use xlink:href="#DejaVuSans-20" x="550.835938"/>
      <use xlink:href="#DejaVuSans-3d" x="582.623047"/>
      <use xlink:href="#DejaVuSans-20" x="666.412109"/>
      <use xlink:href="#DejaVuSans-72" x="698.199219"/>
      <use xlink:href="#DejaVuSans-65" x="737.0625"/>
      <use xlink:href="#DejaVuSans-63" x="798.585938"/>
      <use xlink:href="#DejaVuSans-75" x="853.566406"/>
      <use xlink:href="#DejaVuSans-72" x="916.945312"/>
      <use xlink:href="#DejaVuSans-73" x="958.058594"/>
      <use xlink:href="#DejaVuSans-69" x="1010.158203"/>
      <use xlink:href="#DejaVuSans-76" x="1037.941406"/>
      <use xlink:href="#DejaVuSans-65" x="1097.121094"/>
      <use xlink:href="#DejaVuSans-20" x="1158.644531"/>
      <use xlink:href="#DejaVuSans-66" x="1190.431641"/>
      <use xlink:href="#DejaVuSans-6e" x="1225.636719"/>
     </g>
    </g>
    <g id="patch_106">
     <path d="M 239.277812 87.426688 
L 259.277812 87.426688 
L 259.277812 80.426688 
L 239.277812 80.426688 
z
" style="fill: #2ca02c; fill-opacity: 0.5; stroke: #000000; stroke-linejoin: miter"/>
    </g>
    <g id="text_20">
     <!-- LSAVersion = recursive fn2  -->
     <g transform="translate(267.277812 87.426688) scale(0.1 -0.1)">
      <use xlink:href="#DejaVuSans-4c"/>
      <use xlink:href="#DejaVuSans-53" x="55.712891"/>
      <use xlink:href="#DejaVuSans-41" x="121.064453"/>
      <use xlink:href="#DejaVuSans-56" x="183.097656"/>
      <use xlink:href="#DejaVuSans-65" x="243.755859"/>
      <use xlink:href="#DejaVuSans-72" x="305.279297"/>
      <use xlink:href="#DejaVuSans-73" x="346.392578"/>
      <use xlink:href="#DejaVuSans-69" x="398.492188"/>
      <use xlink:href="#DejaVuSans-6f" x="426.275391"/>
      <use xlink:href="#DejaVuSans-6e" x="487.457031"/>
      <use xlink:href="#DejaVuSans-20" x="550.835938"/>
      <use xlink:href="#DejaVuSans-3d" x="582.623047"/>
      <use xlink:href="#DejaVuSans-20" x="666.412109"/>
      <use xlink:href="#DejaVuSans-72" x="698.199219"/>
      <use xlink:href="#DejaVuSans-65" x="737.0625"/>
      <use xlink:href="#DejaVuSans-63" x="798.585938"/>
      <use xlink:href="#DejaVuSans-75" x="853.566406"/>
      <use xlink:href="#DejaVuSans-72" x="916.945312"/>
      <use xlink:href="#DejaVuSans-73" x="958.058594"/>
      <use xlink:href="#DejaVuSans-69" x="1010.158203"/>
      <use xlink:href="#DejaVuSans-76" x="1037.941406"/>
      <use xlink:href="#DejaVuSans-65" x="1097.121094"/>
      <use xlink:href="#DejaVuSans-20" x="1158.644531"/>
      <use xlink:href="#DejaVuSans-66" x="1190.431641"/>
      <use xlink:href="#DejaVuSans-6e" x="1225.636719"/>
      <use xlink:href="#DejaVuSans-32" x="1289.015625"/>
      <use xlink:href="#DejaVuSans-20" x="1352.638672"/>
     </g>
    </g>
    <g id="patch_107">
     <path d="M 239.277812 102.104813 
L 259.277812 102.104813 
L 259.277812 95.104813 
L 239.277812 95.104813 
z
" style="fill: #d62728; fill-opacity: 0.5; stroke: #000000; stroke-linejoin: miter"/>
    </g>
    <g id="text_21">
     <!-- LSAVersion = my function -->
     <g transform="translate(267.277812 102.104813) scale(0.1 -0.1)">
      <defs>
       <path id="DejaVuSans-6d" d="M 3328 2828 
Q 3544 3216 3844 3400 
Q 4144 3584 4550 3584 
Q 5097 3584 5394 3201 
Q 5691 2819 5691 2113 
L 5691 0 
L 5113 0 
L 5113 2094 
Q 5113 2597 4934 2840 
Q 4756 3084 4391 3084 
Q 3944 3084 3684 2787 
Q 3425 2491 3425 1978 
L 3425 0 
L 2847 0 
L 2847 2094 
Q 2847 2600 2669 2842 
Q 2491 3084 2119 3084 
Q 1678 3084 1418 2786 
Q 1159 2488 1159 1978 
L 1159 0 
L 581 0 
L 581 3500 
L 1159 3500 
L 1159 2956 
Q 1356 3278 1631 3431 
Q 1906 3584 2284 3584 
Q 2666 3584 2933 3390 
Q 3200 3197 3328 2828 
z
" transform="scale(0.015625)"/>
       <path id="DejaVuSans-79" d="M 2059 -325 
Q 1816 -950 1584 -1140 
Q 1353 -1331 966 -1331 
L 506 -1331 
L 506 -850 
L 844 -850 
Q 1081 -850 1212 -737 
Q 1344 -625 1503 -206 
L 1606 56 
L 191 3500 
L 800 3500 
L 1894 763 
L 2988 3500 
L 3597 3500 
L 2059 -325 
z
" transform="scale(0.015625)"/>
      </defs>
      <use xlink:href="#DejaVuSans-4c"/>
      <use xlink:href="#DejaVuSans-53" x="55.712891"/>
      <use xlink:href="#DejaVuSans-41" x="121.064453"/>
      <use xlink:href="#DejaVuSans-56" x="183.097656"/>
      <use xlink:href="#DejaVuSans-65" x="243.755859"/>
      <use xlink:href="#DejaVuSans-72" x="305.279297"/>
      <use xlink:href="#DejaVuSans-73" x="346.392578"/>
      <use xlink:href="#DejaVuSans-69" x="398.492188"/>
      <use xlink:href="#DejaVuSans-6f" x="426.275391"/>
      <use xlink:href="#DejaVuSans-6e" x="487.457031"/>
      <use xlink:href="#DejaVuSans-20" x="550.835938"/>
      <use xlink:href="#DejaVuSans-3d" x="582.623047"/>
      <use xlink:href="#DejaVuSans-20" x="666.412109"/>
      <use xlink:href="#DejaVuSans-6d" x="698.199219"/>
      <use xlink:href="#DejaVuSans-79" x="795.611328"/>
      <use xlink:href="#DejaVuSans-20" x="854.791016"/>
      <use xlink:href="#DejaVuSans-66" x="886.578125"/>
      <use xlink:href="#DejaVuSans-75" x="921.783203"/>
      <use xlink:href="#DejaVuSans-6e" x="985.162109"/>
      <use xlink:href="#DejaVuSans-63" x="1048.541016"/>
      <use xlink:href="#DejaVuSans-74" x="1103.521484"/>
      <use xlink:href="#DejaVuSans-69" x="1142.730469"/>
      <use xlink:href="#DejaVuSans-6f" x="1170.513672"/>
      <use xlink:href="#DejaVuSans-6e" x="1231.695312"/>
     </g>
    </g>
    <g id="patch_108">
     <path d="M 239.277812 116.782938 
L 259.277812 116.782938 
L 259.277812 109.782938 
L 239.277812 109.782938 
z
" style="fill: #9467bd; fill-opacity: 0.5; stroke: #000000; stroke-linejoin: miter"/>
    </g>
    <g id="text_22">
     <!-- LSAVersion = recursive fn5 -->
     <g transform="translate(267.277812 116.782938) scale(0.1 -0.1)">
      <use xlink:href="#DejaVuSans-4c"/>
      <use xlink:href="#DejaVuSans-53" x="55.712891"/>
      <use xlink:href="#DejaVuSans-41" x="121.064453"/>
      <use xlink:href="#DejaVuSans-56" x="183.097656"/>
      <use xlink:href="#DejaVuSans-65" x="243.755859"/>
      <use xlink:href="#DejaVuSans-72" x="305.279297"/>
      <use xlink:href="#DejaVuSans-73" x="346.392578"/>
      <use xlink:href="#DejaVuSans-69" x="398.492188"/>
      <use xlink:href="#DejaVuSans-6f" x="426.275391"/>
      <use xlink:href="#DejaVuSans-6e" x="487.457031"/>
      <use xlink:href="#DejaVuSans-20" x="550.835938"/>
      <use xlink:href="#DejaVuSans-3d" x="582.623047"/>
      <use xlink:href="#DejaVuSans-20" x="666.412109"/>
      <use xlink:href="#DejaVuSans-72" x="698.199219"/>
      <use xlink:href="#DejaVuSans-65" x="737.0625"/>
      <use xlink:href="#DejaVuSans-63" x="798.585938"/>
      <use xlink:href="#DejaVuSans-75" x="853.566406"/>
      <use xlink:href="#DejaVuSans-72" x="916.945312"/>
      <use xlink:href="#DejaVuSans-73" x="958.058594"/>
      <use xlink:href="#DejaVuSans-69" x="1010.158203"/>
      <use xlink:href="#DejaVuSans-76" x="1037.941406"/>
      <use xlink:href="#DejaVuSans-65" x="1097.121094"/>
      <use xlink:href="#DejaVuSans-20" x="1158.644531"/>
      <use xlink:href="#DejaVuSans-66" x="1190.431641"/>
      <use xlink:href="#DejaVuSans-6e" x="1225.636719"/>
      <use xlink:href="#DejaVuSans-35" x="1289.015625"/>
     </g>
    </g>
    <g id="patch_109">
     <path d="M 239.277812 131.461063 
L 259.277812 131.461063 
L 259.277812 124.461063 
L 239.277812 124.461063 
z
" style="fill: #8c564b; fill-opacity: 0.5; stroke: #000000; stroke-linejoin: miter"/>
    </g>
    <g id="text_23">
     <!-- LSAVersion = none -->
     <g transform="translate(267.277812 131.461063) scale(0.1 -0.1)">
      <use xlink:href="#DejaVuSans-4c"/>
      <use xlink:href="#DejaVuSans-53" x="55.712891"/>
      <use xlink:href="#DejaVuSans-41" x="121.064453"/>
      <use xlink:href="#DejaVuSans-56" x="183.097656"/>
      <use xlink:href="#DejaVuSans-65" x="243.755859"/>
      <use xlink:href="#DejaVuSans-72" x="305.279297"/>
      <use xlink:href="#DejaVuSans-73" x="346.392578"/>
      <use xlink:href="#DejaVuSans-69" x="398.492188"/>
      <use xlink:href="#DejaVuSans-6f" x="426.275391"/>
      <use xlink:href="#DejaVuSans-6e" x="487.457031"/>
      <use xlink:href="#DejaVuSans-20" x="550.835938"/>
      <use xlink:href="#DejaVuSans-3d" x="582.623047"/>
      <use xlink:href="#DejaVuSans-20" x="666.412109"/>
      <use xlink:href="#DejaVuSans-6e" x="698.199219"/>
      <use xlink:href="#DejaVuSans-6f" x="761.578125"/>
      <use xlink:href="#DejaVuSans-6e" x="822.759766"/>
      <use xlink:href="#DejaVuSans-65" x="886.138672"/>
     </g>
    </g>
   </g>
  </g>
  <g id="text_24">
   <!-- False_albert-base-v2_128_False -->
   <g transform="translate(136.310625 16.030125) scale(0.12 -0.12)">
    <defs>
     <path id="DejaVuSans-46" d="M 628 4666 
L 3309 4666 
L 3309 4134 
L 1259 4134 
L 1259 2759 
L 3109 2759 
L 3109 2228 
L 1259 2228 
L 1259 0 
L 628 0 
L 628 4666 
z
" transform="scale(0.015625)"/>
     <path id="DejaVuSans-61" d="M 2194 1759 
Q 1497 1759 1228 1600 
Q 959 1441 959 1056 
Q 959 750 1161 570 
Q 1363 391 1709 391 
Q 2188 391 2477 730 
Q 2766 1069 2766 1631 
L 2766 1759 
L 2194 1759 
z
M 3341 1997 
L 3341 0 
L 2766 0 
L 2766 531 
Q 2569 213 2275 61 
Q 1981 -91 1556 -91 
Q 1019 -91 701 211 
Q 384 513 384 1019 
Q 384 1609 779 1909 
Q 1175 2209 1959 2209 
L 2766 2209 
L 2766 2266 
Q 2766 2663 2505 2880 
Q 2244 3097 1772 3097 
Q 1472 3097 1187 3025 
Q 903 2953 641 2809 
L 641 3341 
Q 956 3463 1253 3523 
Q 1550 3584 1831 3584 
Q 2591 3584 2966 3190 
Q 3341 2797 3341 1997 
z
" transform="scale(0.015625)"/>
     <path id="DejaVuSans-6c" d="M 603 4863 
L 1178 4863 
L 1178 0 
L 603 0 
L 603 4863 
z
" transform="scale(0.015625)"/>
     <path id="DejaVuSans-5f" d="M 3263 -1063 
L 3263 -1509 
L -63 -1509 
L -63 -1063 
L 3263 -1063 
z
" transform="scale(0.015625)"/>
     <path id="DejaVuSans-62" d="M 3116 1747 
Q 3116 2381 2855 2742 
Q 2594 3103 2138 3103 
Q 1681 3103 1420 2742 
Q 1159 2381 1159 1747 
Q 1159 1113 1420 752 
Q 1681 391 2138 391 
Q 2594 391 2855 752 
Q 3116 1113 3116 1747 
z
M 1159 2969 
Q 1341 3281 1617 3432 
Q 1894 3584 2278 3584 
Q 2916 3584 3314 3078 
Q 3713 2572 3713 1747 
Q 3713 922 3314 415 
Q 2916 -91 2278 -91 
Q 1894 -91 1617 61 
Q 1341 213 1159 525 
L 1159 0 
L 581 0 
L 581 4863 
L 1159 4863 
L 1159 2969 
z
" transform="scale(0.015625)"/>
     <path id="DejaVuSans-2d" d="M 313 2009 
L 1997 2009 
L 1997 1497 
L 313 1497 
L 313 2009 
z
" transform="scale(0.015625)"/>
    </defs>
    <use xlink:href="#DejaVuSans-46"/>
    <use xlink:href="#DejaVuSans-61" x="48.394531"/>
    <use xlink:href="#DejaVuSans-6c" x="109.673828"/>
    <use xlink:href="#DejaVuSans-73" x="137.457031"/>
    <use xlink:href="#DejaVuSans-65" x="189.556641"/>
    <use xlink:href="#DejaVuSans-5f" x="251.080078"/>
    <use xlink:href="#DejaVuSans-61" x="301.080078"/>
    <use xlink:href="#DejaVuSans-6c" x="362.359375"/>
    <use xlink:href="#DejaVuSans-62" x="390.142578"/>
    <use xlink:href="#DejaVuSans-65" x="453.619141"/>
    <use xlink:href="#DejaVuSans-72" x="515.142578"/>
    <use xlink:href="#DejaVuSans-74" x="556.255859"/>
    <use xlink:href="#DejaVuSans-2d" x="595.464844"/>
    <use xlink:href="#DejaVuSans-62" x="631.548828"/>
    <use xlink:href="#DejaVuSans-61" x="695.025391"/>
    <use xlink:href="#DejaVuSans-73" x="756.304688"/>
    <use xlink:href="#DejaVuSans-65" x="808.404297"/>
    <use xlink:href="#DejaVuSans-2d" x="869.927734"/>
    <use xlink:href="#DejaVuSans-76" x="903.386719"/>
    <use xlink:href="#DejaVuSans-32" x="962.566406"/>
    <use xlink:href="#DejaVuSans-5f" x="1026.189453"/>
    <use xlink:href="#DejaVuSans-31" x="1076.189453"/>
    <use xlink:href="#DejaVuSans-32" x="1139.8125"/>
    <use xlink:href="#DejaVuSans-38" x="1203.435547"/>
    <use xlink:href="#DejaVuSans-5f" x="1267.058594"/>
    <use xlink:href="#DejaVuSans-46" x="1317.058594"/>
    <use xlink:href="#DejaVuSans-61" x="1365.453125"/>
    <use xlink:href="#DejaVuSans-6c" x="1426.732422"/>
    <use xlink:href="#DejaVuSans-73" x="1454.515625"/>
    <use xlink:href="#DejaVuSans-65" x="1506.615234"/>
   </g>
  </g>
 </g>
 <defs>
  <clipPath id="p72c48ff262">
   <rect x="57.6" y="41.472" width="357.12" height="266.112"/>
  </clipPath>
 </defs>
</svg>
