<?xml version="1.0" encoding="utf-8" standalone="no"?>
<!DOCTYPE svg PUBLIC "-//W3C//DTD SVG 1.1//EN"
  "http://www.w3.org/Graphics/SVG/1.1/DTD/svg11.dtd">
<svg xmlns:xlink="http://www.w3.org/1999/xlink" width="460.8pt" height="345.6pt" viewBox="0 0 460.8 345.6" xmlns="http://www.w3.org/2000/svg" version="1.1">
 <metadata>
  <rdf:RDF xmlns:dc="http://purl.org/dc/elements/1.1/" xmlns:cc="http://creativecommons.org/ns#" xmlns:rdf="http://www.w3.org/1999/02/22-rdf-syntax-ns#">
   <cc:Work>
    <dc:type rdf:resource="http://purl.org/dc/dcmitype/StillImage"/>
    <dc:date>2024-03-18T10:53:00.290052</dc:date>
    <dc:format>image/svg+xml</dc:format>
    <dc:creator>
     <cc:Agent>
      <dc:title>Matplotlib v3.6.3, https://matplotlib.org/</dc:title>
     </cc:Agent>
    </dc:creator>
   </cc:Work>
  </rdf:RDF>
 </metadata>
 <defs>
  <style type="text/css">*{stroke-linejoin: round; stroke-linecap: butt}</style>
 </defs>
 <g id="figure_1">
  <g id="patch_1">
   <path d="M 0 345.6 
L 460.8 345.6 
L 460.8 0 
L 0 0 
z
" style="fill: #ffffff"/>
  </g>
  <g id="axes_1">
   <g id="patch_2">
    <path d="M 57.6 307.584 
L 414.72 307.584 
L 414.72 41.472 
L 57.6 41.472 
z
" style="fill: #ffffff"/>
   </g>
   <g id="patch_3">
    <path d="M 73.832727 307.584 
L 92.930053 307.584 
L 92.930053 307.584 
L 73.832727 307.584 
z
" clip-path="url(#p69f2d7ada5)" style="fill: #8c564b; fill-opacity: 0.5; stroke: #000000; stroke-linejoin: miter"/>
   </g>
   <g id="patch_4">
    <path d="M 92.930053 307.584 
L 112.02738 307.584 
L 112.02738 307.584 
L 92.930053 307.584 
z
" clip-path="url(#p69f2d7ada5)" style="fill: #8c564b; fill-opacity: 0.5; stroke: #000000; stroke-linejoin: miter"/>
   </g>
   <g id="patch_5">
    <path d="M 112.02738 307.584 
L 131.124706 307.584 
L 131.124706 307.584 
L 112.02738 307.584 
z
" clip-path="url(#p69f2d7ada5)" style="fill: #8c564b; fill-opacity: 0.5; stroke: #000000; stroke-linejoin: miter"/>
   </g>
   <g id="patch_6">
    <path d="M 131.124706 307.584 
L 150.222032 307.584 
L 150.222032 307.584 
L 131.124706 307.584 
z
" clip-path="url(#p69f2d7ada5)" style="fill: #8c564b; fill-opacity: 0.5; stroke: #000000; stroke-linejoin: miter"/>
   </g>
   <g id="patch_7">
    <path d="M 150.222032 307.584 
L 169.319358 307.584 
L 169.319358 307.584 
L 150.222032 307.584 
z
" clip-path="url(#p69f2d7ada5)" style="fill: #8c564b; fill-opacity: 0.5; stroke: #000000; stroke-linejoin: miter"/>
   </g>
   <g id="patch_8">
    <path d="M 169.319358 307.584 
L 188.416684 307.584 
L 188.416684 307.584 
L 169.319358 307.584 
z
" clip-path="url(#p69f2d7ada5)" style="fill: #8c564b; fill-opacity: 0.5; stroke: #000000; stroke-linejoin: miter"/>
   </g>
   <g id="patch_9">
    <path d="M 188.416684 307.584 
L 207.514011 307.584 
L 207.514011 307.584 
L 188.416684 307.584 
z
" clip-path="url(#p69f2d7ada5)" style="fill: #8c564b; fill-opacity: 0.5; stroke: #000000; stroke-linejoin: miter"/>
   </g>
   <g id="patch_10">
    <path d="M 207.514011 307.584 
L 226.611337 307.584 
L 226.611337 307.584 
L 207.514011 307.584 
z
" clip-path="url(#p69f2d7ada5)" style="fill: #8c564b; fill-opacity: 0.5; stroke: #000000; stroke-linejoin: miter"/>
   </g>
   <g id="patch_11">
    <path d="M 226.611337 307.584 
L 245.708663 307.584 
L 245.708663 307.584 
L 226.611337 307.584 
z
" clip-path="url(#p69f2d7ada5)" style="fill: #8c564b; fill-opacity: 0.5; stroke: #000000; stroke-linejoin: miter"/>
   </g>
   <g id="patch_12">
    <path d="M 245.708663 307.584 
L 264.805989 307.584 
L 264.805989 307.584 
L 245.708663 307.584 
z
" clip-path="url(#p69f2d7ada5)" style="fill: #8c564b; fill-opacity: 0.5; stroke: #000000; stroke-linejoin: miter"/>
   </g>
   <g id="patch_13">
    <path d="M 264.805989 307.584 
L 283.903316 307.584 
L 283.903316 306.132206 
L 264.805989 306.132206 
z
" clip-path="url(#p69f2d7ada5)" style="fill: #8c564b; fill-opacity: 0.5; stroke: #000000; stroke-linejoin: miter"/>
   </g>
   <g id="patch_14">
    <path d="M 283.903316 307.584 
L 303.000642 307.584 
L 303.000642 294.401706 
L 283.903316 294.401706 
z
" clip-path="url(#p69f2d7ada5)" style="fill: #8c564b; fill-opacity: 0.5; stroke: #000000; stroke-linejoin: miter"/>
   </g>
   <g id="patch_15">
    <path d="M 303.000642 307.584 
L 322.097968 307.584 
L 322.097968 307.584 
L 303.000642 307.584 
z
" clip-path="url(#p69f2d7ada5)" style="fill: #8c564b; fill-opacity: 0.5; stroke: #000000; stroke-linejoin: miter"/>
   </g>
   <g id="patch_16">
    <path d="M 322.097968 307.584 
L 341.195294 307.584 
L 341.195294 307.584 
L 322.097968 307.584 
z
" clip-path="url(#p69f2d7ada5)" style="fill: #8c564b; fill-opacity: 0.5; stroke: #000000; stroke-linejoin: miter"/>
   </g>
   <g id="patch_17">
    <path d="M 341.195294 307.584 
L 360.29262 307.584 
L 360.29262 307.584 
L 341.195294 307.584 
z
" clip-path="url(#p69f2d7ada5)" style="fill: #8c564b; fill-opacity: 0.5; stroke: #000000; stroke-linejoin: miter"/>
   </g>
   <g id="patch_18">
    <path d="M 360.29262 307.584 
L 379.389947 307.584 
L 379.389947 307.584 
L 360.29262 307.584 
z
" clip-path="url(#p69f2d7ada5)" style="fill: #8c564b; fill-opacity: 0.5; stroke: #000000; stroke-linejoin: miter"/>
   </g>
   <g id="patch_19">
    <path d="M 379.389947 307.584 
L 398.487273 307.584 
L 398.487273 307.584 
L 379.389947 307.584 
z
" clip-path="url(#p69f2d7ada5)" style="fill: #8c564b; fill-opacity: 0.5; stroke: #000000; stroke-linejoin: miter"/>
   </g>
   <g id="patch_20">
    <path d="M 73.832727 307.584 
L 92.930053 307.584 
L 92.930053 278.548111 
L 73.832727 278.548111 
z
" clip-path="url(#p69f2d7ada5)" style="fill: #9467bd; fill-opacity: 0.5; stroke: #000000; stroke-linejoin: miter"/>
   </g>
   <g id="patch_21">
    <path d="M 92.930053 307.584 
L 112.02738 307.584 
L 112.02738 307.584 
L 92.930053 307.584 
z
" clip-path="url(#p69f2d7ada5)" style="fill: #9467bd; fill-opacity: 0.5; stroke: #000000; stroke-linejoin: miter"/>
   </g>
   <g id="patch_22">
    <path d="M 112.02738 307.584 
L 131.124706 307.584 
L 131.124706 307.584 
L 112.02738 307.584 
z
" clip-path="url(#p69f2d7ada5)" style="fill: #9467bd; fill-opacity: 0.5; stroke: #000000; stroke-linejoin: miter"/>
   </g>
   <g id="patch_23">
    <path d="M 131.124706 307.584 
L 150.222032 307.584 
L 150.222032 307.584 
L 131.124706 307.584 
z
" clip-path="url(#p69f2d7ada5)" style="fill: #9467bd; fill-opacity: 0.5; stroke: #000000; stroke-linejoin: miter"/>
   </g>
   <g id="patch_24">
    <path d="M 150.222032 307.584 
L 169.319358 307.584 
L 169.319358 307.584 
L 150.222032 307.584 
z
" clip-path="url(#p69f2d7ada5)" style="fill: #9467bd; fill-opacity: 0.5; stroke: #000000; stroke-linejoin: miter"/>
   </g>
   <g id="patch_25">
    <path d="M 169.319358 307.584 
L 188.416684 307.584 
L 188.416684 307.584 
L 169.319358 307.584 
z
" clip-path="url(#p69f2d7ada5)" style="fill: #9467bd; fill-opacity: 0.5; stroke: #000000; stroke-linejoin: miter"/>
   </g>
   <g id="patch_26">
    <path d="M 188.416684 307.584 
L 207.514011 307.584 
L 207.514011 307.584 
L 188.416684 307.584 
z
" clip-path="url(#p69f2d7ada5)" style="fill: #9467bd; fill-opacity: 0.5; stroke: #000000; stroke-linejoin: miter"/>
   </g>
   <g id="patch_27">
    <path d="M 207.514011 307.584 
L 226.611337 307.584 
L 226.611337 307.584 
L 207.514011 307.584 
z
" clip-path="url(#p69f2d7ada5)" style="fill: #9467bd; fill-opacity: 0.5; stroke: #000000; stroke-linejoin: miter"/>
   </g>
   <g id="patch_28">
    <path d="M 226.611337 307.584 
L 245.708663 307.584 
L 245.708663 307.584 
L 226.611337 307.584 
z
" clip-path="url(#p69f2d7ada5)" style="fill: #9467bd; fill-opacity: 0.5; stroke: #000000; stroke-linejoin: miter"/>
   </g>
   <g id="patch_29">
    <path d="M 245.708663 307.584 
L 264.805989 307.584 
L 264.805989 307.584 
L 245.708663 307.584 
z
" clip-path="url(#p69f2d7ada5)" style="fill: #9467bd; fill-opacity: 0.5; stroke: #000000; stroke-linejoin: miter"/>
   </g>
   <g id="patch_30">
    <path d="M 264.805989 307.584 
L 283.903316 307.584 
L 283.903316 307.584 
L 264.805989 307.584 
z
" clip-path="url(#p69f2d7ada5)" style="fill: #9467bd; fill-opacity: 0.5; stroke: #000000; stroke-linejoin: miter"/>
   </g>
   <g id="patch_31">
    <path d="M 283.903316 307.584 
L 303.000642 307.584 
L 303.000642 307.584 
L 283.903316 307.584 
z
" clip-path="url(#p69f2d7ada5)" style="fill: #9467bd; fill-opacity: 0.5; stroke: #000000; stroke-linejoin: miter"/>
   </g>
   <g id="patch_32">
    <path d="M 303.000642 307.584 
L 322.097968 307.584 
L 322.097968 307.584 
L 303.000642 307.584 
z
" clip-path="url(#p69f2d7ada5)" style="fill: #9467bd; fill-opacity: 0.5; stroke: #000000; stroke-linejoin: miter"/>
   </g>
   <g id="patch_33">
    <path d="M 322.097968 307.584 
L 341.195294 307.584 
L 341.195294 307.584 
L 322.097968 307.584 
z
" clip-path="url(#p69f2d7ada5)" style="fill: #9467bd; fill-opacity: 0.5; stroke: #000000; stroke-linejoin: miter"/>
   </g>
   <g id="patch_34">
    <path d="M 341.195294 307.584 
L 360.29262 307.584 
L 360.29262 307.584 
L 341.195294 307.584 
z
" clip-path="url(#p69f2d7ada5)" style="fill: #9467bd; fill-opacity: 0.5; stroke: #000000; stroke-linejoin: miter"/>
   </g>
   <g id="patch_35">
    <path d="M 360.29262 307.584 
L 379.389947 307.584 
L 379.389947 307.584 
L 360.29262 307.584 
z
" clip-path="url(#p69f2d7ada5)" style="fill: #9467bd; fill-opacity: 0.5; stroke: #000000; stroke-linejoin: miter"/>
   </g>
   <g id="patch_36">
    <path d="M 379.389947 307.584 
L 398.487273 307.584 
L 398.487273 307.584 
L 379.389947 307.584 
z
" clip-path="url(#p69f2d7ada5)" style="fill: #9467bd; fill-opacity: 0.5; stroke: #000000; stroke-linejoin: miter"/>
   </g>
   <g id="patch_37">
    <path d="M 73.832727 307.584 
L 92.930053 307.584 
L 92.930053 307.584 
L 73.832727 307.584 
z
" clip-path="url(#p69f2d7ada5)" style="fill: #d62728; fill-opacity: 0.5; stroke: #000000; stroke-linejoin: miter"/>
   </g>
   <g id="patch_38">
    <path d="M 92.930053 307.584 
L 112.02738 307.584 
L 112.02738 307.584 
L 92.930053 307.584 
z
" clip-path="url(#p69f2d7ada5)" style="fill: #d62728; fill-opacity: 0.5; stroke: #000000; stroke-linejoin: miter"/>
   </g>
   <g id="patch_39">
    <path d="M 112.02738 307.584 
L 131.124706 307.584 
L 131.124706 307.584 
L 112.02738 307.584 
z
" clip-path="url(#p69f2d7ada5)" style="fill: #d62728; fill-opacity: 0.5; stroke: #000000; stroke-linejoin: miter"/>
   </g>
   <g id="patch_40">
    <path d="M 131.124706 307.584 
L 150.222032 307.584 
L 150.222032 307.584 
L 131.124706 307.584 
z
" clip-path="url(#p69f2d7ada5)" style="fill: #d62728; fill-opacity: 0.5; stroke: #000000; stroke-linejoin: miter"/>
   </g>
   <g id="patch_41">
    <path d="M 150.222032 307.584 
L 169.319358 307.584 
L 169.319358 307.584 
L 150.222032 307.584 
z
" clip-path="url(#p69f2d7ada5)" style="fill: #d62728; fill-opacity: 0.5; stroke: #000000; stroke-linejoin: miter"/>
   </g>
   <g id="patch_42">
    <path d="M 169.319358 307.584 
L 188.416684 307.584 
L 188.416684 307.584 
L 169.319358 307.584 
z
" clip-path="url(#p69f2d7ada5)" style="fill: #d62728; fill-opacity: 0.5; stroke: #000000; stroke-linejoin: miter"/>
   </g>
   <g id="patch_43">
    <path d="M 188.416684 307.584 
L 207.514011 307.584 
L 207.514011 307.584 
L 188.416684 307.584 
z
" clip-path="url(#p69f2d7ada5)" style="fill: #d62728; fill-opacity: 0.5; stroke: #000000; stroke-linejoin: miter"/>
   </g>
   <g id="patch_44">
    <path d="M 207.514011 307.584 
L 226.611337 307.584 
L 226.611337 307.584 
L 207.514011 307.584 
z
" clip-path="url(#p69f2d7ada5)" style="fill: #d62728; fill-opacity: 0.5; stroke: #000000; stroke-linejoin: miter"/>
   </g>
   <g id="patch_45">
    <path d="M 226.611337 307.584 
L 245.708663 307.584 
L 245.708663 307.584 
L 226.611337 307.584 
z
" clip-path="url(#p69f2d7ada5)" style="fill: #d62728; fill-opacity: 0.5; stroke: #000000; stroke-linejoin: miter"/>
   </g>
   <g id="patch_46">
    <path d="M 245.708663 307.584 
L 264.805989 307.584 
L 264.805989 307.584 
L 245.708663 307.584 
z
" clip-path="url(#p69f2d7ada5)" style="fill: #d62728; fill-opacity: 0.5; stroke: #000000; stroke-linejoin: miter"/>
   </g>
   <g id="patch_47">
    <path d="M 264.805989 307.584 
L 283.903316 307.584 
L 283.903316 307.584 
L 264.805989 307.584 
z
" clip-path="url(#p69f2d7ada5)" style="fill: #d62728; fill-opacity: 0.5; stroke: #000000; stroke-linejoin: miter"/>
   </g>
   <g id="patch_48">
    <path d="M 283.903316 307.584 
L 303.000642 307.584 
L 303.000642 307.584 
L 283.903316 307.584 
z
" clip-path="url(#p69f2d7ada5)" style="fill: #d62728; fill-opacity: 0.5; stroke: #000000; stroke-linejoin: miter"/>
   </g>
   <g id="patch_49">
    <path d="M 303.000642 307.584 
L 322.097968 307.584 
L 322.097968 307.584 
L 303.000642 307.584 
z
" clip-path="url(#p69f2d7ada5)" style="fill: #d62728; fill-opacity: 0.5; stroke: #000000; stroke-linejoin: miter"/>
   </g>
   <g id="patch_50">
    <path d="M 322.097968 307.584 
L 341.195294 307.584 
L 341.195294 278.548111 
L 322.097968 278.548111 
z
" clip-path="url(#p69f2d7ada5)" style="fill: #d62728; fill-opacity: 0.5; stroke: #000000; stroke-linejoin: miter"/>
   </g>
   <g id="patch_51">
    <path d="M 341.195294 307.584 
L 360.29262 307.584 
L 360.29262 307.584 
L 341.195294 307.584 
z
" clip-path="url(#p69f2d7ada5)" style="fill: #d62728; fill-opacity: 0.5; stroke: #000000; stroke-linejoin: miter"/>
   </g>
   <g id="patch_52">
    <path d="M 360.29262 307.584 
L 379.389947 307.584 
L 379.389947 307.584 
L 360.29262 307.584 
z
" clip-path="url(#p69f2d7ada5)" style="fill: #d62728; fill-opacity: 0.5; stroke: #000000; stroke-linejoin: miter"/>
   </g>
   <g id="patch_53">
    <path d="M 379.389947 307.584 
L 398.487273 307.584 
L 398.487273 307.584 
L 379.389947 307.584 
z
" clip-path="url(#p69f2d7ada5)" style="fill: #d62728; fill-opacity: 0.5; stroke: #000000; stroke-linejoin: miter"/>
   </g>
   <g id="patch_54">
    <path d="M 73.832727 307.584 
L 92.930053 307.584 
L 92.930053 307.584 
L 73.832727 307.584 
z
" clip-path="url(#p69f2d7ada5)" style="fill: #2ca02c; fill-opacity: 0.5; stroke: #000000; stroke-linejoin: miter"/>
   </g>
   <g id="patch_55">
    <path d="M 92.930053 307.584 
L 112.02738 307.584 
L 112.02738 307.584 
L 92.930053 307.584 
z
" clip-path="url(#p69f2d7ada5)" style="fill: #2ca02c; fill-opacity: 0.5; stroke: #000000; stroke-linejoin: miter"/>
   </g>
   <g id="patch_56">
    <path d="M 112.02738 307.584 
L 131.124706 307.584 
L 131.124706 307.584 
L 112.02738 307.584 
z
" clip-path="url(#p69f2d7ada5)" style="fill: #2ca02c; fill-opacity: 0.5; stroke: #000000; stroke-linejoin: miter"/>
   </g>
   <g id="patch_57">
    <path d="M 131.124706 307.584 
L 150.222032 307.584 
L 150.222032 307.584 
L 131.124706 307.584 
z
" clip-path="url(#p69f2d7ada5)" style="fill: #2ca02c; fill-opacity: 0.5; stroke: #000000; stroke-linejoin: miter"/>
   </g>
   <g id="patch_58">
    <path d="M 150.222032 307.584 
L 169.319358 307.584 
L 169.319358 307.525928 
L 150.222032 307.525928 
z
" clip-path="url(#p69f2d7ada5)" style="fill: #2ca02c; fill-opacity: 0.5; stroke: #000000; stroke-linejoin: miter"/>
   </g>
   <g id="patch_59">
    <path d="M 169.319358 307.584 
L 188.416684 307.584 
L 188.416684 307.235569 
L 169.319358 307.235569 
z
" clip-path="url(#p69f2d7ada5)" style="fill: #2ca02c; fill-opacity: 0.5; stroke: #000000; stroke-linejoin: miter"/>
   </g>
   <g id="patch_60">
    <path d="M 188.416684 307.584 
L 207.514011 307.584 
L 207.514011 307.584 
L 188.416684 307.584 
z
" clip-path="url(#p69f2d7ada5)" style="fill: #2ca02c; fill-opacity: 0.5; stroke: #000000; stroke-linejoin: miter"/>
   </g>
   <g id="patch_61">
    <path d="M 207.514011 307.584 
L 226.611337 307.584 
L 226.611337 307.584 
L 207.514011 307.584 
z
" clip-path="url(#p69f2d7ada5)" style="fill: #2ca02c; fill-opacity: 0.5; stroke: #000000; stroke-linejoin: miter"/>
   </g>
   <g id="patch_62">
    <path d="M 226.611337 307.584 
L 245.708663 307.584 
L 245.708663 307.584 
L 226.611337 307.584 
z
" clip-path="url(#p69f2d7ada5)" style="fill: #2ca02c; fill-opacity: 0.5; stroke: #000000; stroke-linejoin: miter"/>
   </g>
   <g id="patch_63">
    <path d="M 245.708663 307.584 
L 264.805989 307.584 
L 264.805989 307.584 
L 245.708663 307.584 
z
" clip-path="url(#p69f2d7ada5)" style="fill: #2ca02c; fill-opacity: 0.5; stroke: #000000; stroke-linejoin: miter"/>
   </g>
   <g id="patch_64">
    <path d="M 264.805989 307.584 
L 283.903316 307.584 
L 283.903316 307.584 
L 264.805989 307.584 
z
" clip-path="url(#p69f2d7ada5)" style="fill: #2ca02c; fill-opacity: 0.5; stroke: #000000; stroke-linejoin: miter"/>
   </g>
   <g id="patch_65">
    <path d="M 283.903316 307.584 
L 303.000642 307.584 
L 303.000642 307.584 
L 283.903316 307.584 
z
" clip-path="url(#p69f2d7ada5)" style="fill: #2ca02c; fill-opacity: 0.5; stroke: #000000; stroke-linejoin: miter"/>
   </g>
   <g id="patch_66">
    <path d="M 303.000642 307.584 
L 322.097968 307.584 
L 322.097968 307.584 
L 303.000642 307.584 
z
" clip-path="url(#p69f2d7ada5)" style="fill: #2ca02c; fill-opacity: 0.5; stroke: #000000; stroke-linejoin: miter"/>
   </g>
   <g id="patch_67">
    <path d="M 322.097968 307.584 
L 341.195294 307.584 
L 341.195294 307.584 
L 322.097968 307.584 
z
" clip-path="url(#p69f2d7ada5)" style="fill: #2ca02c; fill-opacity: 0.5; stroke: #000000; stroke-linejoin: miter"/>
   </g>
   <g id="patch_68">
    <path d="M 341.195294 307.584 
L 360.29262 307.584 
L 360.29262 307.584 
L 341.195294 307.584 
z
" clip-path="url(#p69f2d7ada5)" style="fill: #2ca02c; fill-opacity: 0.5; stroke: #000000; stroke-linejoin: miter"/>
   </g>
   <g id="patch_69">
    <path d="M 360.29262 307.584 
L 379.389947 307.584 
L 379.389947 307.584 
L 360.29262 307.584 
z
" clip-path="url(#p69f2d7ada5)" style="fill: #2ca02c; fill-opacity: 0.5; stroke: #000000; stroke-linejoin: miter"/>
   </g>
   <g id="patch_70">
    <path d="M 379.389947 307.584 
L 398.487273 307.584 
L 398.487273 307.584 
L 379.389947 307.584 
z
" clip-path="url(#p69f2d7ada5)" style="fill: #2ca02c; fill-opacity: 0.5; stroke: #000000; stroke-linejoin: miter"/>
   </g>
   <g id="patch_71">
    <path d="M 73.832727 307.584 
L 92.930053 307.584 
L 92.930053 307.584 
L 73.832727 307.584 
z
" clip-path="url(#p69f2d7ada5)" style="fill: #ff7f0e; fill-opacity: 0.5; stroke: #000000; stroke-linejoin: miter"/>
   </g>
   <g id="patch_72">
    <path d="M 92.930053 307.584 
L 112.02738 307.584 
L 112.02738 307.584 
L 92.930053 307.584 
z
" clip-path="url(#p69f2d7ada5)" style="fill: #ff7f0e; fill-opacity: 0.5; stroke: #000000; stroke-linejoin: miter"/>
   </g>
   <g id="patch_73">
    <path d="M 112.02738 307.584 
L 131.124706 307.584 
L 131.124706 307.584 
L 112.02738 307.584 
z
" clip-path="url(#p69f2d7ada5)" style="fill: #ff7f0e; fill-opacity: 0.5; stroke: #000000; stroke-linejoin: miter"/>
   </g>
   <g id="patch_74">
    <path d="M 131.124706 307.584 
L 150.222032 307.584 
L 150.222032 307.584 
L 131.124706 307.584 
z
" clip-path="url(#p69f2d7ada5)" style="fill: #ff7f0e; fill-opacity: 0.5; stroke: #000000; stroke-linejoin: miter"/>
   </g>
   <g id="patch_75">
    <path d="M 150.222032 307.584 
L 169.319358 307.584 
L 169.319358 307.584 
L 150.222032 307.584 
z
" clip-path="url(#p69f2d7ada5)" style="fill: #ff7f0e; fill-opacity: 0.5; stroke: #000000; stroke-linejoin: miter"/>
   </g>
   <g id="patch_76">
    <path d="M 169.319358 307.584 
L 188.416684 307.584 
L 188.416684 307.584 
L 169.319358 307.584 
z
" clip-path="url(#p69f2d7ada5)" style="fill: #ff7f0e; fill-opacity: 0.5; stroke: #000000; stroke-linejoin: miter"/>
   </g>
   <g id="patch_77">
    <path d="M 188.416684 307.584 
L 207.514011 307.584 
L 207.514011 300.034669 
L 188.416684 300.034669 
z
" clip-path="url(#p69f2d7ada5)" style="fill: #ff7f0e; fill-opacity: 0.5; stroke: #000000; stroke-linejoin: miter"/>
   </g>
   <g id="patch_78">
    <path d="M 207.514011 307.584 
L 226.611337 307.584 
L 226.611337 286.155514 
L 207.514011 286.155514 
z
" clip-path="url(#p69f2d7ada5)" style="fill: #ff7f0e; fill-opacity: 0.5; stroke: #000000; stroke-linejoin: miter"/>
   </g>
   <g id="patch_79">
    <path d="M 226.611337 307.584 
L 245.708663 307.584 
L 245.708663 307.525928 
L 226.611337 307.525928 
z
" clip-path="url(#p69f2d7ada5)" style="fill: #ff7f0e; fill-opacity: 0.5; stroke: #000000; stroke-linejoin: miter"/>
   </g>
   <g id="patch_80">
    <path d="M 245.708663 307.584 
L 264.805989 307.584 
L 264.805989 307.584 
L 245.708663 307.584 
z
" clip-path="url(#p69f2d7ada5)" style="fill: #ff7f0e; fill-opacity: 0.5; stroke: #000000; stroke-linejoin: miter"/>
   </g>
   <g id="patch_81">
    <path d="M 264.805989 307.584 
L 283.903316 307.584 
L 283.903316 307.584 
L 264.805989 307.584 
z
" clip-path="url(#p69f2d7ada5)" style="fill: #ff7f0e; fill-opacity: 0.5; stroke: #000000; stroke-linejoin: miter"/>
   </g>
   <g id="patch_82">
    <path d="M 283.903316 307.584 
L 303.000642 307.584 
L 303.000642 307.584 
L 283.903316 307.584 
z
" clip-path="url(#p69f2d7ada5)" style="fill: #ff7f0e; fill-opacity: 0.5; stroke: #000000; stroke-linejoin: miter"/>
   </g>
   <g id="patch_83">
    <path d="M 303.000642 307.584 
L 322.097968 307.584 
L 322.097968 307.584 
L 303.000642 307.584 
z
" clip-path="url(#p69f2d7ada5)" style="fill: #ff7f0e; fill-opacity: 0.5; stroke: #000000; stroke-linejoin: miter"/>
   </g>
   <g id="patch_84">
    <path d="M 322.097968 307.584 
L 341.195294 307.584 
L 341.195294 307.584 
L 322.097968 307.584 
z
" clip-path="url(#p69f2d7ada5)" style="fill: #ff7f0e; fill-opacity: 0.5; stroke: #000000; stroke-linejoin: miter"/>
   </g>
   <g id="patch_85">
    <path d="M 341.195294 307.584 
L 360.29262 307.584 
L 360.29262 307.584 
L 341.195294 307.584 
z
" clip-path="url(#p69f2d7ada5)" style="fill: #ff7f0e; fill-opacity: 0.5; stroke: #000000; stroke-linejoin: miter"/>
   </g>
   <g id="patch_86">
    <path d="M 360.29262 307.584 
L 379.389947 307.584 
L 379.389947 307.584 
L 360.29262 307.584 
z
" clip-path="url(#p69f2d7ada5)" style="fill: #ff7f0e; fill-opacity: 0.5; stroke: #000000; stroke-linejoin: miter"/>
   </g>
   <g id="patch_87">
    <path d="M 379.389947 307.584 
L 398.487273 307.584 
L 398.487273 307.584 
L 379.389947 307.584 
z
" clip-path="url(#p69f2d7ada5)" style="fill: #ff7f0e; fill-opacity: 0.5; stroke: #000000; stroke-linejoin: miter"/>
   </g>
   <g id="patch_88">
    <path d="M 73.832727 307.584 
L 92.930053 307.584 
L 92.930053 307.584 
L 73.832727 307.584 
z
" clip-path="url(#p69f2d7ada5)" style="fill: #1f77b4; fill-opacity: 0.5; stroke: #000000; stroke-linejoin: miter"/>
   </g>
   <g id="patch_89">
    <path d="M 92.930053 307.584 
L 112.02738 307.584 
L 112.02738 307.584 
L 92.930053 307.584 
z
" clip-path="url(#p69f2d7ada5)" style="fill: #1f77b4; fill-opacity: 0.5; stroke: #000000; stroke-linejoin: miter"/>
   </g>
   <g id="patch_90">
    <path d="M 112.02738 307.584 
L 131.124706 307.584 
L 131.124706 307.584 
L 112.02738 307.584 
z
" clip-path="url(#p69f2d7ada5)" style="fill: #1f77b4; fill-opacity: 0.5; stroke: #000000; stroke-linejoin: miter"/>
   </g>
   <g id="patch_91">
    <path d="M 131.124706 307.584 
L 150.222032 307.584 
L 150.222032 307.584 
L 131.124706 307.584 
z
" clip-path="url(#p69f2d7ada5)" style="fill: #1f77b4; fill-opacity: 0.5; stroke: #000000; stroke-linejoin: miter"/>
   </g>
   <g id="patch_92">
    <path d="M 150.222032 307.584 
L 169.319358 307.584 
L 169.319358 307.584 
L 150.222032 307.584 
z
" clip-path="url(#p69f2d7ada5)" style="fill: #1f77b4; fill-opacity: 0.5; stroke: #000000; stroke-linejoin: miter"/>
   </g>
   <g id="patch_93">
    <path d="M 169.319358 307.584 
L 188.416684 307.584 
L 188.416684 307.584 
L 169.319358 307.584 
z
" clip-path="url(#p69f2d7ada5)" style="fill: #1f77b4; fill-opacity: 0.5; stroke: #000000; stroke-linejoin: miter"/>
   </g>
   <g id="patch_94">
    <path d="M 188.416684 307.584 
L 207.514011 307.584 
L 207.514011 307.584 
L 188.416684 307.584 
z
" clip-path="url(#p69f2d7ada5)" style="fill: #1f77b4; fill-opacity: 0.5; stroke: #000000; stroke-linejoin: miter"/>
   </g>
   <g id="patch_95">
    <path d="M 207.514011 307.584 
L 226.611337 307.584 
L 226.611337 307.584 
L 207.514011 307.584 
z
" clip-path="url(#p69f2d7ada5)" style="fill: #1f77b4; fill-opacity: 0.5; stroke: #000000; stroke-linejoin: miter"/>
   </g>
   <g id="patch_96">
    <path d="M 226.611337 307.584 
L 245.708663 307.584 
L 245.708663 307.584 
L 226.611337 307.584 
z
" clip-path="url(#p69f2d7ada5)" style="fill: #1f77b4; fill-opacity: 0.5; stroke: #000000; stroke-linejoin: miter"/>
   </g>
   <g id="patch_97">
    <path d="M 245.708663 307.584 
L 264.805989 307.584 
L 264.805989 307.584 
L 245.708663 307.584 
z
" clip-path="url(#p69f2d7ada5)" style="fill: #1f77b4; fill-opacity: 0.5; stroke: #000000; stroke-linejoin: miter"/>
   </g>
   <g id="patch_98">
    <path d="M 264.805989 307.584 
L 283.903316 307.584 
L 283.903316 307.584 
L 264.805989 307.584 
z
" clip-path="url(#p69f2d7ada5)" style="fill: #1f77b4; fill-opacity: 0.5; stroke: #000000; stroke-linejoin: miter"/>
   </g>
   <g id="patch_99">
    <path d="M 283.903316 307.584 
L 303.000642 307.584 
L 303.000642 307.584 
L 283.903316 307.584 
z
" clip-path="url(#p69f2d7ada5)" style="fill: #1f77b4; fill-opacity: 0.5; stroke: #000000; stroke-linejoin: miter"/>
   </g>
   <g id="patch_100">
    <path d="M 303.000642 307.584 
L 322.097968 307.584 
L 322.097968 307.584 
L 303.000642 307.584 
z
" clip-path="url(#p69f2d7ada5)" style="fill: #1f77b4; fill-opacity: 0.5; stroke: #000000; stroke-linejoin: miter"/>
   </g>
   <g id="patch_101">
    <path d="M 322.097968 307.584 
L 341.195294 307.584 
L 341.195294 307.584 
L 322.097968 307.584 
z
" clip-path="url(#p69f2d7ada5)" style="fill: #1f77b4; fill-opacity: 0.5; stroke: #000000; stroke-linejoin: miter"/>
   </g>
   <g id="patch_102">
    <path d="M 341.195294 307.584 
L 360.29262 307.584 
L 360.29262 307.584 
L 341.195294 307.584 
z
" clip-path="url(#p69f2d7ada5)" style="fill: #1f77b4; fill-opacity: 0.5; stroke: #000000; stroke-linejoin: miter"/>
   </g>
   <g id="patch_103">
    <path d="M 360.29262 307.584 
L 379.389947 307.584 
L 379.389947 307.584 
L 360.29262 307.584 
z
" clip-path="url(#p69f2d7ada5)" style="fill: #1f77b4; fill-opacity: 0.5; stroke: #000000; stroke-linejoin: miter"/>
   </g>
   <g id="patch_104">
    <path d="M 379.389947 307.584 
L 398.487273 307.584 
L 398.487273 278.548111 
L 379.389947 278.548111 
z
" clip-path="url(#p69f2d7ada5)" style="fill: #1f77b4; fill-opacity: 0.5; stroke: #000000; stroke-linejoin: miter"/>
   </g>
   <g id="matplotlib.axis_1">
    <g id="xtick_1">
     <g id="line2d_1">
      <defs>
       <path id="m765da2e21f" d="M 0 0 
L 0 3.5 
" style="stroke: #000000; stroke-width: 0.8"/>
      </defs>
      <g>
       <use xlink:href="#m765da2e21f" x="80.51428" y="307.584" style="stroke: #000000; stroke-width: 0.8"/>
      </g>
     </g>
     <g id="text_1">
      <!-- 0.1 -->
      <g transform="translate(72.562718 322.182437) scale(0.1 -0.1)">
       <defs>
        <path id="DejaVuSans-30" d="M 2034 4250 
Q 1547 4250 1301 3770 
Q 1056 3291 1056 2328 
Q 1056 1369 1301 889 
Q 1547 409 2034 409 
Q 2525 409 2770 889 
Q 3016 1369 3016 2328 
Q 3016 3291 2770 3770 
Q 2525 4250 2034 4250 
z
M 2034 4750 
Q 2819 4750 3233 4129 
Q 3647 3509 3647 2328 
Q 3647 1150 3233 529 
Q 2819 -91 2034 -91 
Q 1250 -91 836 529 
Q 422 1150 422 2328 
Q 422 3509 836 4129 
Q 1250 4750 2034 4750 
z
" transform="scale(0.015625)"/>
        <path id="DejaVuSans-2e" d="M 684 794 
L 1344 794 
L 1344 0 
L 684 0 
L 684 794 
z
" transform="scale(0.015625)"/>
        <path id="DejaVuSans-31" d="M 794 531 
L 1825 531 
L 1825 4091 
L 703 3866 
L 703 4441 
L 1819 4666 
L 2450 4666 
L 2450 531 
L 3481 531 
L 3481 0 
L 794 0 
L 794 531 
z
" transform="scale(0.015625)"/>
       </defs>
       <use xlink:href="#DejaVuSans-30"/>
       <use xlink:href="#DejaVuSans-2e" x="63.623047"/>
       <use xlink:href="#DejaVuSans-31" x="95.410156"/>
      </g>
     </g>
    </g>
    <g id="xtick_2">
     <g id="line2d_2">
      <g>
       <use xlink:href="#m765da2e21f" x="122.557229" y="307.584" style="stroke: #000000; stroke-width: 0.8"/>
      </g>
     </g>
     <g id="text_2">
      <!-- 0.2 -->
      <g transform="translate(114.605667 322.182437) scale(0.1 -0.1)">
       <defs>
        <path id="DejaVuSans-32" d="M 1228 531 
L 3431 531 
L 3431 0 
L 469 0 
L 469 531 
Q 828 903 1448 1529 
Q 2069 2156 2228 2338 
Q 2531 2678 2651 2914 
Q 2772 3150 2772 3378 
Q 2772 3750 2511 3984 
Q 2250 4219 1831 4219 
Q 1534 4219 1204 4116 
Q 875 4013 500 3803 
L 500 4441 
Q 881 4594 1212 4672 
Q 1544 4750 1819 4750 
Q 2544 4750 2975 4387 
Q 3406 4025 3406 3419 
Q 3406 3131 3298 2873 
Q 3191 2616 2906 2266 
Q 2828 2175 2409 1742 
Q 1991 1309 1228 531 
z
" transform="scale(0.015625)"/>
       </defs>
       <use xlink:href="#DejaVuSans-30"/>
       <use xlink:href="#DejaVuSans-2e" x="63.623047"/>
       <use xlink:href="#DejaVuSans-32" x="95.410156"/>
      </g>
     </g>
    </g>
    <g id="xtick_3">
     <g id="line2d_3">
      <g>
       <use xlink:href="#m765da2e21f" x="164.600179" y="307.584" style="stroke: #000000; stroke-width: 0.8"/>
      </g>
     </g>
     <g id="text_3">
      <!-- 0.3 -->
      <g transform="translate(156.648616 322.182437) scale(0.1 -0.1)">
       <defs>
        <path id="DejaVuSans-33" d="M 2597 2516 
Q 3050 2419 3304 2112 
Q 3559 1806 3559 1356 
Q 3559 666 3084 287 
Q 2609 -91 1734 -91 
Q 1441 -91 1130 -33 
Q 819 25 488 141 
L 488 750 
Q 750 597 1062 519 
Q 1375 441 1716 441 
Q 2309 441 2620 675 
Q 2931 909 2931 1356 
Q 2931 1769 2642 2001 
Q 2353 2234 1838 2234 
L 1294 2234 
L 1294 2753 
L 1863 2753 
Q 2328 2753 2575 2939 
Q 2822 3125 2822 3475 
Q 2822 3834 2567 4026 
Q 2313 4219 1838 4219 
Q 1578 4219 1281 4162 
Q 984 4106 628 3988 
L 628 4550 
Q 988 4650 1302 4700 
Q 1616 4750 1894 4750 
Q 2613 4750 3031 4423 
Q 3450 4097 3450 3541 
Q 3450 3153 3228 2886 
Q 3006 2619 2597 2516 
z
" transform="scale(0.015625)"/>
       </defs>
       <use xlink:href="#DejaVuSans-30"/>
       <use xlink:href="#DejaVuSans-2e" x="63.623047"/>
       <use xlink:href="#DejaVuSans-33" x="95.410156"/>
      </g>
     </g>
    </g>
    <g id="xtick_4">
     <g id="line2d_4">
      <g>
       <use xlink:href="#m765da2e21f" x="206.643128" y="307.584" style="stroke: #000000; stroke-width: 0.8"/>
      </g>
     </g>
     <g id="text_4">
      <!-- 0.4 -->
      <g transform="translate(198.691566 322.182437) scale(0.1 -0.1)">
       <defs>
        <path id="DejaVuSans-34" d="M 2419 4116 
L 825 1625 
L 2419 1625 
L 2419 4116 
z
M 2253 4666 
L 3047 4666 
L 3047 1625 
L 3713 1625 
L 3713 1100 
L 3047 1100 
L 3047 0 
L 2419 0 
L 2419 1100 
L 313 1100 
L 313 1709 
L 2253 4666 
z
" transform="scale(0.015625)"/>
       </defs>
       <use xlink:href="#DejaVuSans-30"/>
       <use xlink:href="#DejaVuSans-2e" x="63.623047"/>
       <use xlink:href="#DejaVuSans-34" x="95.410156"/>
      </g>
     </g>
    </g>
    <g id="xtick_5">
     <g id="line2d_5">
      <g>
       <use xlink:href="#m765da2e21f" x="248.686078" y="307.584" style="stroke: #000000; stroke-width: 0.8"/>
      </g>
     </g>
     <g id="text_5">
      <!-- 0.5 -->
      <g transform="translate(240.734515 322.182437) scale(0.1 -0.1)">
       <defs>
        <path id="DejaVuSans-35" d="M 691 4666 
L 3169 4666 
L 3169 4134 
L 1269 4134 
L 1269 2991 
Q 1406 3038 1543 3061 
Q 1681 3084 1819 3084 
Q 2600 3084 3056 2656 
Q 3513 2228 3513 1497 
Q 3513 744 3044 326 
Q 2575 -91 1722 -91 
Q 1428 -91 1123 -41 
Q 819 9 494 109 
L 494 744 
Q 775 591 1075 516 
Q 1375 441 1709 441 
Q 2250 441 2565 725 
Q 2881 1009 2881 1497 
Q 2881 1984 2565 2268 
Q 2250 2553 1709 2553 
Q 1456 2553 1204 2497 
Q 953 2441 691 2322 
L 691 4666 
z
" transform="scale(0.015625)"/>
       </defs>
       <use xlink:href="#DejaVuSans-30"/>
       <use xlink:href="#DejaVuSans-2e" x="63.623047"/>
       <use xlink:href="#DejaVuSans-35" x="95.410156"/>
      </g>
     </g>
    </g>
    <g id="xtick_6">
     <g id="line2d_6">
      <g>
       <use xlink:href="#m765da2e21f" x="290.729027" y="307.584" style="stroke: #000000; stroke-width: 0.8"/>
      </g>
     </g>
     <g id="text_6">
      <!-- 0.6 -->
      <g transform="translate(282.777465 322.182437) scale(0.1 -0.1)">
       <defs>
        <path id="DejaVuSans-36" d="M 2113 2584 
Q 1688 2584 1439 2293 
Q 1191 2003 1191 1497 
Q 1191 994 1439 701 
Q 1688 409 2113 409 
Q 2538 409 2786 701 
Q 3034 994 3034 1497 
Q 3034 2003 2786 2293 
Q 2538 2584 2113 2584 
z
M 3366 4563 
L 3366 3988 
Q 3128 4100 2886 4159 
Q 2644 4219 2406 4219 
Q 1781 4219 1451 3797 
Q 1122 3375 1075 2522 
Q 1259 2794 1537 2939 
Q 1816 3084 2150 3084 
Q 2853 3084 3261 2657 
Q 3669 2231 3669 1497 
Q 3669 778 3244 343 
Q 2819 -91 2113 -91 
Q 1303 -91 875 529 
Q 447 1150 447 2328 
Q 447 3434 972 4092 
Q 1497 4750 2381 4750 
Q 2619 4750 2861 4703 
Q 3103 4656 3366 4563 
z
" transform="scale(0.015625)"/>
       </defs>
       <use xlink:href="#DejaVuSans-30"/>
       <use xlink:href="#DejaVuSans-2e" x="63.623047"/>
       <use xlink:href="#DejaVuSans-36" x="95.410156"/>
      </g>
     </g>
    </g>
    <g id="xtick_7">
     <g id="line2d_7">
      <g>
       <use xlink:href="#m765da2e21f" x="332.771977" y="307.584" style="stroke: #000000; stroke-width: 0.8"/>
      </g>
     </g>
     <g id="text_7">
      <!-- 0.7 -->
      <g transform="translate(324.820414 322.182437) scale(0.1 -0.1)">
       <defs>
        <path id="DejaVuSans-37" d="M 525 4666 
L 3525 4666 
L 3525 4397 
L 1831 0 
L 1172 0 
L 2766 4134 
L 525 4134 
L 525 4666 
z
" transform="scale(0.015625)"/>
       </defs>
       <use xlink:href="#DejaVuSans-30"/>
       <use xlink:href="#DejaVuSans-2e" x="63.623047"/>
       <use xlink:href="#DejaVuSans-37" x="95.410156"/>
      </g>
     </g>
    </g>
    <g id="xtick_8">
     <g id="line2d_8">
      <g>
       <use xlink:href="#m765da2e21f" x="374.814926" y="307.584" style="stroke: #000000; stroke-width: 0.8"/>
      </g>
     </g>
     <g id="text_8">
      <!-- 0.8 -->
      <g transform="translate(366.863363 322.182437) scale(0.1 -0.1)">
       <defs>
        <path id="DejaVuSans-38" d="M 2034 2216 
Q 1584 2216 1326 1975 
Q 1069 1734 1069 1313 
Q 1069 891 1326 650 
Q 1584 409 2034 409 
Q 2484 409 2743 651 
Q 3003 894 3003 1313 
Q 3003 1734 2745 1975 
Q 2488 2216 2034 2216 
z
M 1403 2484 
Q 997 2584 770 2862 
Q 544 3141 544 3541 
Q 544 4100 942 4425 
Q 1341 4750 2034 4750 
Q 2731 4750 3128 4425 
Q 3525 4100 3525 3541 
Q 3525 3141 3298 2862 
Q 3072 2584 2669 2484 
Q 3125 2378 3379 2068 
Q 3634 1759 3634 1313 
Q 3634 634 3220 271 
Q 2806 -91 2034 -91 
Q 1263 -91 848 271 
Q 434 634 434 1313 
Q 434 1759 690 2068 
Q 947 2378 1403 2484 
z
M 1172 3481 
Q 1172 3119 1398 2916 
Q 1625 2713 2034 2713 
Q 2441 2713 2670 2916 
Q 2900 3119 2900 3481 
Q 2900 3844 2670 4047 
Q 2441 4250 2034 4250 
Q 1625 4250 1398 4047 
Q 1172 3844 1172 3481 
z
" transform="scale(0.015625)"/>
       </defs>
       <use xlink:href="#DejaVuSans-30"/>
       <use xlink:href="#DejaVuSans-2e" x="63.623047"/>
       <use xlink:href="#DejaVuSans-38" x="95.410156"/>
      </g>
     </g>
    </g>
   </g>
   <g id="matplotlib.axis_2">
    <g id="ytick_1">
     <g id="line2d_9">
      <defs>
       <path id="m7ad416fbc4" d="M 0 0 
L -3.5 0 
" style="stroke: #000000; stroke-width: 0.8"/>
      </defs>
      <g>
       <use xlink:href="#m7ad416fbc4" x="57.6" y="307.584" style="stroke: #000000; stroke-width: 0.8"/>
      </g>
     </g>
     <g id="text_9">
      <!-- 0 -->
      <g transform="translate(44.2375 311.383219) scale(0.1 -0.1)">
       <use xlink:href="#DejaVuSans-30"/>
      </g>
     </g>
    </g>
    <g id="ytick_2">
     <g id="line2d_10">
      <g>
       <use xlink:href="#m7ad416fbc4" x="57.6" y="249.512222" style="stroke: #000000; stroke-width: 0.8"/>
      </g>
     </g>
     <g id="text_10">
      <!-- 1000 -->
      <g transform="translate(25.15 253.311441) scale(0.1 -0.1)">
       <use xlink:href="#DejaVuSans-31"/>
       <use xlink:href="#DejaVuSans-30" x="63.623047"/>
       <use xlink:href="#DejaVuSans-30" x="127.246094"/>
       <use xlink:href="#DejaVuSans-30" x="190.869141"/>
      </g>
     </g>
    </g>
    <g id="ytick_3">
     <g id="line2d_11">
      <g>
       <use xlink:href="#m7ad416fbc4" x="57.6" y="191.440444" style="stroke: #000000; stroke-width: 0.8"/>
      </g>
     </g>
     <g id="text_11">
      <!-- 2000 -->
      <g transform="translate(25.15 195.239663) scale(0.1 -0.1)">
       <use xlink:href="#DejaVuSans-32"/>
       <use xlink:href="#DejaVuSans-30" x="63.623047"/>
       <use xlink:href="#DejaVuSans-30" x="127.246094"/>
       <use xlink:href="#DejaVuSans-30" x="190.869141"/>
      </g>
     </g>
    </g>
    <g id="ytick_4">
     <g id="line2d_12">
      <g>
       <use xlink:href="#m7ad416fbc4" x="57.6" y="133.368666" style="stroke: #000000; stroke-width: 0.8"/>
      </g>
     </g>
     <g id="text_12">
      <!-- 3000 -->
      <g transform="translate(25.15 137.167885) scale(0.1 -0.1)">
       <use xlink:href="#DejaVuSans-33"/>
       <use xlink:href="#DejaVuSans-30" x="63.623047"/>
       <use xlink:href="#DejaVuSans-30" x="127.246094"/>
       <use xlink:href="#DejaVuSans-30" x="190.869141"/>
      </g>
     </g>
    </g>
    <g id="ytick_5">
     <g id="line2d_13">
      <g>
       <use xlink:href="#m7ad416fbc4" x="57.6" y="75.296888" style="stroke: #000000; stroke-width: 0.8"/>
      </g>
     </g>
     <g id="text_13">
      <!-- 4000 -->
      <g transform="translate(25.15 79.096107) scale(0.1 -0.1)">
       <use xlink:href="#DejaVuSans-34"/>
       <use xlink:href="#DejaVuSans-30" x="63.623047"/>
       <use xlink:href="#DejaVuSans-30" x="127.246094"/>
       <use xlink:href="#DejaVuSans-30" x="190.869141"/>
      </g>
     </g>
    </g>
    <g id="text_14">
     <!-- Count -->
     <g transform="translate(19.070312 189.376437) rotate(-90) scale(0.1 -0.1)">
      <defs>
       <path id="DejaVuSans-43" d="M 4122 4306 
L 4122 3641 
Q 3803 3938 3442 4084 
Q 3081 4231 2675 4231 
Q 1875 4231 1450 3742 
Q 1025 3253 1025 2328 
Q 1025 1406 1450 917 
Q 1875 428 2675 428 
Q 3081 428 3442 575 
Q 3803 722 4122 1019 
L 4122 359 
Q 3791 134 3420 21 
Q 3050 -91 2638 -91 
Q 1578 -91 968 557 
Q 359 1206 359 2328 
Q 359 3453 968 4101 
Q 1578 4750 2638 4750 
Q 3056 4750 3426 4639 
Q 3797 4528 4122 4306 
z
" transform="scale(0.015625)"/>
       <path id="DejaVuSans-6f" d="M 1959 3097 
Q 1497 3097 1228 2736 
Q 959 2375 959 1747 
Q 959 1119 1226 758 
Q 1494 397 1959 397 
Q 2419 397 2687 759 
Q 2956 1122 2956 1747 
Q 2956 2369 2687 2733 
Q 2419 3097 1959 3097 
z
M 1959 3584 
Q 2709 3584 3137 3096 
Q 3566 2609 3566 1747 
Q 3566 888 3137 398 
Q 2709 -91 1959 -91 
Q 1206 -91 779 398 
Q 353 888 353 1747 
Q 353 2609 779 3096 
Q 1206 3584 1959 3584 
z
" transform="scale(0.015625)"/>
       <path id="DejaVuSans-75" d="M 544 1381 
L 544 3500 
L 1119 3500 
L 1119 1403 
Q 1119 906 1312 657 
Q 1506 409 1894 409 
Q 2359 409 2629 706 
Q 2900 1003 2900 1516 
L 2900 3500 
L 3475 3500 
L 3475 0 
L 2900 0 
L 2900 538 
Q 2691 219 2414 64 
Q 2138 -91 1772 -91 
Q 1169 -91 856 284 
Q 544 659 544 1381 
z
M 1991 3584 
L 1991 3584 
z
" transform="scale(0.015625)"/>
       <path id="DejaVuSans-6e" d="M 3513 2113 
L 3513 0 
L 2938 0 
L 2938 2094 
Q 2938 2591 2744 2837 
Q 2550 3084 2163 3084 
Q 1697 3084 1428 2787 
Q 1159 2491 1159 1978 
L 1159 0 
L 581 0 
L 581 3500 
L 1159 3500 
L 1159 2956 
Q 1366 3272 1645 3428 
Q 1925 3584 2291 3584 
Q 2894 3584 3203 3211 
Q 3513 2838 3513 2113 
z
" transform="scale(0.015625)"/>
       <path id="DejaVuSans-74" d="M 1172 4494 
L 1172 3500 
L 2356 3500 
L 2356 3053 
L 1172 3053 
L 1172 1153 
Q 1172 725 1289 603 
Q 1406 481 1766 481 
L 2356 481 
L 2356 0 
L 1766 0 
Q 1100 0 847 248 
Q 594 497 594 1153 
L 594 3053 
L 172 3053 
L 172 3500 
L 594 3500 
L 594 4494 
L 1172 4494 
z
" transform="scale(0.015625)"/>
      </defs>
      <use xlink:href="#DejaVuSans-43"/>
      <use xlink:href="#DejaVuSans-6f" x="69.824219"/>
      <use xlink:href="#DejaVuSans-75" x="131.005859"/>
      <use xlink:href="#DejaVuSans-6e" x="194.384766"/>
      <use xlink:href="#DejaVuSans-74" x="257.763672"/>
     </g>
    </g>
   </g>
   <g id="line2d_14">
    <path d="M 73.832727 307.584 
L 277.761462 307.500549 
L 279.392892 306.33734 
L 281.024322 303.048033 
L 282.655751 298.560632 
L 284.287181 292.386417 
L 285.918611 282.944855 
L 287.550041 275.075802 
L 289.181471 277.043074 
L 290.812901 284.186858 
L 292.444331 292.274889 
L 294.075761 299.05873 
L 295.70719 304.200853 
L 297.33862 305.784059 
L 298.97005 306.847318 
L 302.23291 307.541524 
L 307.1272 307.584 
L 398.487273 307.584 
L 398.487273 307.584 
" clip-path="url(#p69f2d7ada5)" style="fill: none; stroke: #8c564b; stroke-width: 1.5; stroke-linecap: square"/>
   </g>
   <g id="line2d_15">
    <path d="M 73.832727 306.500786 
L 75.464157 300.651101 
L 77.095587 250.571437 
L 78.727017 181.236656 
L 80.358447 203.952047 
L 81.989877 265.611134 
L 83.621307 299.369728 
L 85.252736 307.468016 
L 86.884166 307.584 
L 398.487273 307.584 
L 398.487273 307.584 
" clip-path="url(#p69f2d7ada5)" style="fill: none; stroke: #9467bd; stroke-width: 1.5; stroke-linecap: square"/>
   </g>
   <g id="line2d_16">
    <path d="M 73.832727 307.584 
L 331.598648 307.584 
L 333.230078 307.228071 
L 334.861508 239.346184 
L 336.492937 54.144 
L 338.124367 284.864151 
L 339.755797 307.581108 
L 398.487273 307.584 
L 398.487273 307.584 
" clip-path="url(#p69f2d7ada5)" style="fill: none; stroke: #d62728; stroke-width: 1.5; stroke-linecap: square"/>
   </g>
   <g id="line2d_17">
    <path d="M 73.832727 307.584 
L 165.1928 307.477043 
L 173.34995 307.19999 
L 176.61281 307.076879 
L 181.507099 307.191631 
L 191.295678 307.557987 
L 204.347117 307.584 
L 398.487273 307.584 
L 398.487273 307.584 
" clip-path="url(#p69f2d7ada5)" style="fill: none; stroke: #2ca02c; stroke-width: 1.5; stroke-linecap: square"/>
   </g>
   <g id="line2d_18">
    <path d="M 73.832727 307.584 
L 192.927108 307.566467 
L 194.558538 307.398157 
L 196.189968 306.685655 
L 197.821398 305.139032 
L 199.452828 303.025765 
L 201.084258 299.516292 
L 202.715688 293.481551 
L 207.609977 273.07143 
L 209.241407 266.360347 
L 210.872837 267.632195 
L 212.504267 273.768106 
L 214.135697 276.263922 
L 215.767127 279.645411 
L 217.398556 287.769599 
L 219.029986 295.30096 
L 220.661416 300.010467 
L 222.292846 302.504918 
L 223.924276 304.017626 
L 225.555706 305.344066 
L 227.187136 306.420965 
L 228.818566 307.230532 
L 230.449995 307.536166 
L 235.344285 307.584 
L 398.487273 307.584 
L 398.487273 307.584 
" clip-path="url(#p69f2d7ada5)" style="fill: none; stroke: #ff7f0e; stroke-width: 1.5; stroke-linecap: square"/>
   </g>
   <g id="line2d_19">
    <path d="M 73.832727 307.584 
L 391.961553 307.584 
L 393.592983 293.278439 
L 395.224413 58.146894 
L 396.855843 210.679579 
L 398.487273 305.664985 
L 398.487273 305.664985 
" clip-path="url(#p69f2d7ada5)" style="fill: none; stroke: #1f77b4; stroke-width: 1.5; stroke-linecap: square"/>
   </g>
   <g id="patch_105">
    <path d="M 57.6 307.584 
L 57.6 41.472 
" style="fill: none; stroke: #000000; stroke-width: 0.8; stroke-linejoin: miter; stroke-linecap: square"/>
   </g>
   <g id="patch_106">
    <path d="M 414.72 307.584 
L 414.72 41.472 
" style="fill: none; stroke: #000000; stroke-width: 0.8; stroke-linejoin: miter; stroke-linecap: square"/>
   </g>
   <g id="patch_107">
    <path d="M 57.6 307.584 
L 414.72 307.584 
" style="fill: none; stroke: #000000; stroke-width: 0.8; stroke-linejoin: miter; stroke-linecap: square"/>
   </g>
   <g id="patch_108">
    <path d="M 57.6 41.472 
L 414.72 41.472 
" style="fill: none; stroke: #000000; stroke-width: 0.8; stroke-linejoin: miter; stroke-linecap: square"/>
   </g>
   <g id="legend_1">
    <g id="patch_109">
     <path d="M 64.6 137.54075 
L 235.042188 137.54075 
Q 237.042188 137.54075 237.042188 135.54075 
L 237.042188 48.472 
Q 237.042188 46.472 235.042188 46.472 
L 64.6 46.472 
Q 62.6 46.472 62.6 48.472 
L 62.6 135.54075 
Q 62.6 137.54075 64.6 137.54075 
z
" style="fill: #ffffff; opacity: 0.8; stroke: #cccccc; stroke-linejoin: miter"/>
    </g>
    <g id="patch_110">
     <path d="M 66.6 58.070438 
L 86.6 58.070438 
L 86.6 51.070438 
L 66.6 51.070438 
z
" style="fill: #1f77b4; fill-opacity: 0.5; stroke: #000000; stroke-linejoin: miter"/>
    </g>
    <g id="text_15">
     <!-- LSAVersion = none -->
     <g transform="translate(94.6 58.070438) scale(0.1 -0.1)">
      <defs>
       <path id="DejaVuSans-4c" d="M 628 4666 
L 1259 4666 
L 1259 531 
L 3531 531 
L 3531 0 
L 628 0 
L 628 4666 
z
" transform="scale(0.015625)"/>
       <path id="DejaVuSans-53" d="M 3425 4513 
L 3425 3897 
Q 3066 4069 2747 4153 
Q 2428 4238 2131 4238 
Q 1616 4238 1336 4038 
Q 1056 3838 1056 3469 
Q 1056 3159 1242 3001 
Q 1428 2844 1947 2747 
L 2328 2669 
Q 3034 2534 3370 2195 
Q 3706 1856 3706 1288 
Q 3706 609 3251 259 
Q 2797 -91 1919 -91 
Q 1588 -91 1214 -16 
Q 841 59 441 206 
L 441 856 
Q 825 641 1194 531 
Q 1563 422 1919 422 
Q 2459 422 2753 634 
Q 3047 847 3047 1241 
Q 3047 1584 2836 1778 
Q 2625 1972 2144 2069 
L 1759 2144 
Q 1053 2284 737 2584 
Q 422 2884 422 3419 
Q 422 4038 858 4394 
Q 1294 4750 2059 4750 
Q 2388 4750 2728 4690 
Q 3069 4631 3425 4513 
z
" transform="scale(0.015625)"/>
       <path id="DejaVuSans-41" d="M 2188 4044 
L 1331 1722 
L 3047 1722 
L 2188 4044 
z
M 1831 4666 
L 2547 4666 
L 4325 0 
L 3669 0 
L 3244 1197 
L 1141 1197 
L 716 0 
L 50 0 
L 1831 4666 
z
" transform="scale(0.015625)"/>
       <path id="DejaVuSans-56" d="M 1831 0 
L 50 4666 
L 709 4666 
L 2188 738 
L 3669 4666 
L 4325 4666 
L 2547 0 
L 1831 0 
z
" transform="scale(0.015625)"/>
       <path id="DejaVuSans-65" d="M 3597 1894 
L 3597 1613 
L 953 1613 
Q 991 1019 1311 708 
Q 1631 397 2203 397 
Q 2534 397 2845 478 
Q 3156 559 3463 722 
L 3463 178 
Q 3153 47 2828 -22 
Q 2503 -91 2169 -91 
Q 1331 -91 842 396 
Q 353 884 353 1716 
Q 353 2575 817 3079 
Q 1281 3584 2069 3584 
Q 2775 3584 3186 3129 
Q 3597 2675 3597 1894 
z
M 3022 2063 
Q 3016 2534 2758 2815 
Q 2500 3097 2075 3097 
Q 1594 3097 1305 2825 
Q 1016 2553 972 2059 
L 3022 2063 
z
" transform="scale(0.015625)"/>
       <path id="DejaVuSans-72" d="M 2631 2963 
Q 2534 3019 2420 3045 
Q 2306 3072 2169 3072 
Q 1681 3072 1420 2755 
Q 1159 2438 1159 1844 
L 1159 0 
L 581 0 
L 581 3500 
L 1159 3500 
L 1159 2956 
Q 1341 3275 1631 3429 
Q 1922 3584 2338 3584 
Q 2397 3584 2469 3576 
Q 2541 3569 2628 3553 
L 2631 2963 
z
" transform="scale(0.015625)"/>
       <path id="DejaVuSans-73" d="M 2834 3397 
L 2834 2853 
Q 2591 2978 2328 3040 
Q 2066 3103 1784 3103 
Q 1356 3103 1142 2972 
Q 928 2841 928 2578 
Q 928 2378 1081 2264 
Q 1234 2150 1697 2047 
L 1894 2003 
Q 2506 1872 2764 1633 
Q 3022 1394 3022 966 
Q 3022 478 2636 193 
Q 2250 -91 1575 -91 
Q 1294 -91 989 -36 
Q 684 19 347 128 
L 347 722 
Q 666 556 975 473 
Q 1284 391 1588 391 
Q 1994 391 2212 530 
Q 2431 669 2431 922 
Q 2431 1156 2273 1281 
Q 2116 1406 1581 1522 
L 1381 1569 
Q 847 1681 609 1914 
Q 372 2147 372 2553 
Q 372 3047 722 3315 
Q 1072 3584 1716 3584 
Q 2034 3584 2315 3537 
Q 2597 3491 2834 3397 
z
" transform="scale(0.015625)"/>
       <path id="DejaVuSans-69" d="M 603 3500 
L 1178 3500 
L 1178 0 
L 603 0 
L 603 3500 
z
M 603 4863 
L 1178 4863 
L 1178 4134 
L 603 4134 
L 603 4863 
z
" transform="scale(0.015625)"/>
       <path id="DejaVuSans-20" transform="scale(0.015625)"/>
       <path id="DejaVuSans-3d" d="M 678 2906 
L 4684 2906 
L 4684 2381 
L 678 2381 
L 678 2906 
z
M 678 1631 
L 4684 1631 
L 4684 1100 
L 678 1100 
L 678 1631 
z
" transform="scale(0.015625)"/>
      </defs>
      <use xlink:href="#DejaVuSans-4c"/>
      <use xlink:href="#DejaVuSans-53" x="55.712891"/>
      <use xlink:href="#DejaVuSans-41" x="121.064453"/>
      <use xlink:href="#DejaVuSans-56" x="183.097656"/>
      <use xlink:href="#DejaVuSans-65" x="243.755859"/>
      <use xlink:href="#DejaVuSans-72" x="305.279297"/>
      <use xlink:href="#DejaVuSans-73" x="346.392578"/>
      <use xlink:href="#DejaVuSans-69" x="398.492188"/>
      <use xlink:href="#DejaVuSans-6f" x="426.275391"/>
      <use xlink:href="#DejaVuSans-6e" x="487.457031"/>
      <use xlink:href="#DejaVuSans-20" x="550.835938"/>
      <use xlink:href="#DejaVuSans-3d" x="582.623047"/>
      <use xlink:href="#DejaVuSans-20" x="666.412109"/>
      <use xlink:href="#DejaVuSans-6e" x="698.199219"/>
      <use xlink:href="#DejaVuSans-6f" x="761.578125"/>
      <use xlink:href="#DejaVuSans-6e" x="822.759766"/>
      <use xlink:href="#DejaVuSans-65" x="886.138672"/>
     </g>
    </g>
    <g id="patch_111">
     <path d="M 66.6 72.748563 
L 86.6 72.748563 
L 86.6 65.748563 
L 66.6 65.748563 
z
" style="fill: #ff7f0e; fill-opacity: 0.5; stroke: #000000; stroke-linejoin: miter"/>
    </g>
    <g id="text_16">
     <!-- LSAVersion = recursive fn5 -->
     <g transform="translate(94.6 72.748563) scale(0.1 -0.1)">
      <defs>
       <path id="DejaVuSans-63" d="M 3122 3366 
L 3122 2828 
Q 2878 2963 2633 3030 
Q 2388 3097 2138 3097 
Q 1578 3097 1268 2742 
Q 959 2388 959 1747 
Q 959 1106 1268 751 
Q 1578 397 2138 397 
Q 2388 397 2633 464 
Q 2878 531 3122 666 
L 3122 134 
Q 2881 22 2623 -34 
Q 2366 -91 2075 -91 
Q 1284 -91 818 406 
Q 353 903 353 1747 
Q 353 2603 823 3093 
Q 1294 3584 2113 3584 
Q 2378 3584 2631 3529 
Q 2884 3475 3122 3366 
z
" transform="scale(0.015625)"/>
       <path id="DejaVuSans-76" d="M 191 3500 
L 800 3500 
L 1894 563 
L 2988 3500 
L 3597 3500 
L 2284 0 
L 1503 0 
L 191 3500 
z
" transform="scale(0.015625)"/>
       <path id="DejaVuSans-66" d="M 2375 4863 
L 2375 4384 
L 1825 4384 
Q 1516 4384 1395 4259 
Q 1275 4134 1275 3809 
L 1275 3500 
L 2222 3500 
L 2222 3053 
L 1275 3053 
L 1275 0 
L 697 0 
L 697 3053 
L 147 3053 
L 147 3500 
L 697 3500 
L 697 3744 
Q 697 4328 969 4595 
Q 1241 4863 1831 4863 
L 2375 4863 
z
" transform="scale(0.015625)"/>
      </defs>
      <use xlink:href="#DejaVuSans-4c"/>
      <use xlink:href="#DejaVuSans-53" x="55.712891"/>
      <use xlink:href="#DejaVuSans-41" x="121.064453"/>
      <use xlink:href="#DejaVuSans-56" x="183.097656"/>
      <use xlink:href="#DejaVuSans-65" x="243.755859"/>
      <use xlink:href="#DejaVuSans-72" x="305.279297"/>
      <use xlink:href="#DejaVuSans-73" x="346.392578"/>
      <use xlink:href="#DejaVuSans-69" x="398.492188"/>
      <use xlink:href="#DejaVuSans-6f" x="426.275391"/>
      <use xlink:href="#DejaVuSans-6e" x="487.457031"/>
      <use xlink:href="#DejaVuSans-20" x="550.835938"/>
      <use xlink:href="#DejaVuSans-3d" x="582.623047"/>
      <use xlink:href="#DejaVuSans-20" x="666.412109"/>
      <use xlink:href="#DejaVuSans-72" x="698.199219"/>
      <use xlink:href="#DejaVuSans-65" x="737.0625"/>
      <use xlink:href="#DejaVuSans-63" x="798.585938"/>
      <use xlink:href="#DejaVuSans-75" x="853.566406"/>
      <use xlink:href="#DejaVuSans-72" x="916.945312"/>
      <use xlink:href="#DejaVuSans-73" x="958.058594"/>
      <use xlink:href="#DejaVuSans-69" x="1010.158203"/>
      <use xlink:href="#DejaVuSans-76" x="1037.941406"/>
      <use xlink:href="#DejaVuSans-65" x="1097.121094"/>
      <use xlink:href="#DejaVuSans-20" x="1158.644531"/>
      <use xlink:href="#DejaVuSans-66" x="1190.431641"/>
      <use xlink:href="#DejaVuSans-6e" x="1225.636719"/>
      <use xlink:href="#DejaVuSans-35" x="1289.015625"/>
     </g>
    </g>
    <g id="patch_112">
     <path d="M 66.6 87.426688 
L 86.6 87.426688 
L 86.6 80.426688 
L 66.6 80.426688 
z
" style="fill: #2ca02c; fill-opacity: 0.5; stroke: #000000; stroke-linejoin: miter"/>
    </g>
    <g id="text_17">
     <!-- LSAVersion = recursive fn2  -->
     <g transform="translate(94.6 87.426688) scale(0.1 -0.1)">
      <use xlink:href="#DejaVuSans-4c"/>
      <use xlink:href="#DejaVuSans-53" x="55.712891"/>
      <use xlink:href="#DejaVuSans-41" x="121.064453"/>
      <use xlink:href="#DejaVuSans-56" x="183.097656"/>
      <use xlink:href="#DejaVuSans-65" x="243.755859"/>
      <use xlink:href="#DejaVuSans-72" x="305.279297"/>
      <use xlink:href="#DejaVuSans-73" x="346.392578"/>
      <use xlink:href="#DejaVuSans-69" x="398.492188"/>
      <use xlink:href="#DejaVuSans-6f" x="426.275391"/>
      <use xlink:href="#DejaVuSans-6e" x="487.457031"/>
      <use xlink:href="#DejaVuSans-20" x="550.835938"/>
      <use xlink:href="#DejaVuSans-3d" x="582.623047"/>
      <use xlink:href="#DejaVuSans-20" x="666.412109"/>
      <use xlink:href="#DejaVuSans-72" x="698.199219"/>
      <use xlink:href="#DejaVuSans-65" x="737.0625"/>
      <use xlink:href="#DejaVuSans-63" x="798.585938"/>
      <use xlink:href="#DejaVuSans-75" x="853.566406"/>
      <use xlink:href="#DejaVuSans-72" x="916.945312"/>
      <use xlink:href="#DejaVuSans-73" x="958.058594"/>
      <use xlink:href="#DejaVuSans-69" x="1010.158203"/>
      <use xlink:href="#DejaVuSans-76" x="1037.941406"/>
      <use xlink:href="#DejaVuSans-65" x="1097.121094"/>
      <use xlink:href="#DejaVuSans-20" x="1158.644531"/>
      <use xlink:href="#DejaVuSans-66" x="1190.431641"/>
      <use xlink:href="#DejaVuSans-6e" x="1225.636719"/>
      <use xlink:href="#DejaVuSans-32" x="1289.015625"/>
      <use xlink:href="#DejaVuSans-20" x="1352.638672"/>
     </g>
    </g>
    <g id="patch_113">
     <path d="M 66.6 102.104813 
L 86.6 102.104813 
L 86.6 95.104813 
L 66.6 95.104813 
z
" style="fill: #d62728; fill-opacity: 0.5; stroke: #000000; stroke-linejoin: miter"/>
    </g>
    <g id="text_18">
     <!-- LSAVersion = stock -->
     <g transform="translate(94.6 102.104813) scale(0.1 -0.1)">
      <defs>
       <path id="DejaVuSans-6b" d="M 581 4863 
L 1159 4863 
L 1159 1991 
L 2875 3500 
L 3609 3500 
L 1753 1863 
L 3688 0 
L 2938 0 
L 1159 1709 
L 1159 0 
L 581 0 
L 581 4863 
z
" transform="scale(0.015625)"/>
      </defs>
      <use xlink:href="#DejaVuSans-4c"/>
      <use xlink:href="#DejaVuSans-53" x="55.712891"/>
      <use xlink:href="#DejaVuSans-41" x="121.064453"/>
      <use xlink:href="#DejaVuSans-56" x="183.097656"/>
      <use xlink:href="#DejaVuSans-65" x="243.755859"/>
      <use xlink:href="#DejaVuSans-72" x="305.279297"/>
      <use xlink:href="#DejaVuSans-73" x="346.392578"/>
      <use xlink:href="#DejaVuSans-69" x="398.492188"/>
      <use xlink:href="#DejaVuSans-6f" x="426.275391"/>
      <use xlink:href="#DejaVuSans-6e" x="487.457031"/>
      <use xlink:href="#DejaVuSans-20" x="550.835938"/>
      <use xlink:href="#DejaVuSans-3d" x="582.623047"/>
      <use xlink:href="#DejaVuSans-20" x="666.412109"/>
      <use xlink:href="#DejaVuSans-73" x="698.199219"/>
      <use xlink:href="#DejaVuSans-74" x="750.298828"/>
      <use xlink:href="#DejaVuSans-6f" x="789.507812"/>
      <use xlink:href="#DejaVuSans-63" x="850.689453"/>
      <use xlink:href="#DejaVuSans-6b" x="905.669922"/>
     </g>
    </g>
    <g id="patch_114">
     <path d="M 66.6 116.782938 
L 86.6 116.782938 
L 86.6 109.782938 
L 66.6 109.782938 
z
" style="fill: #9467bd; fill-opacity: 0.5; stroke: #000000; stroke-linejoin: miter"/>
    </g>
    <g id="text_19">
     <!-- LSAVersion = recursive fn -->
     <g transform="translate(94.6 116.782938) scale(0.1 -0.1)">
      <use xlink:href="#DejaVuSans-4c"/>
      <use xlink:href="#DejaVuSans-53" x="55.712891"/>
      <use xlink:href="#DejaVuSans-41" x="121.064453"/>
      <use xlink:href="#DejaVuSans-56" x="183.097656"/>
      <use xlink:href="#DejaVuSans-65" x="243.755859"/>
      <use xlink:href="#DejaVuSans-72" x="305.279297"/>
      <use xlink:href="#DejaVuSans-73" x="346.392578"/>
      <use xlink:href="#DejaVuSans-69" x="398.492188"/>
      <use xlink:href="#DejaVuSans-6f" x="426.275391"/>
      <use xlink:href="#DejaVuSans-6e" x="487.457031"/>
      <use xlink:href="#DejaVuSans-20" x="550.835938"/>
      <use xlink:href="#DejaVuSans-3d" x="582.623047"/>
      <use xlink:href="#DejaVuSans-20" x="666.412109"/>
      <use xlink:href="#DejaVuSans-72" x="698.199219"/>
      <use xlink:href="#DejaVuSans-65" x="737.0625"/>
      <use xlink:href="#DejaVuSans-63" x="798.585938"/>
      <use xlink:href="#DejaVuSans-75" x="853.566406"/>
      <use xlink:href="#DejaVuSans-72" x="916.945312"/>
      <use xlink:href="#DejaVuSans-73" x="958.058594"/>
      <use xlink:href="#DejaVuSans-69" x="1010.158203"/>
      <use xlink:href="#DejaVuSans-76" x="1037.941406"/>
      <use xlink:href="#DejaVuSans-65" x="1097.121094"/>
      <use xlink:href="#DejaVuSans-20" x="1158.644531"/>
      <use xlink:href="#DejaVuSans-66" x="1190.431641"/>
      <use xlink:href="#DejaVuSans-6e" x="1225.636719"/>
     </g>
    </g>
    <g id="patch_115">
     <path d="M 66.6 131.461063 
L 86.6 131.461063 
L 86.6 124.461063 
L 66.6 124.461063 
z
" style="fill: #8c564b; fill-opacity: 0.5; stroke: #000000; stroke-linejoin: miter"/>
    </g>
    <g id="text_20">
     <!-- LSAVersion = my function -->
     <g transform="translate(94.6 131.461063) scale(0.1 -0.1)">
      <defs>
       <path id="DejaVuSans-6d" d="M 3328 2828 
Q 3544 3216 3844 3400 
Q 4144 3584 4550 3584 
Q 5097 3584 5394 3201 
Q 5691 2819 5691 2113 
L 5691 0 
L 5113 0 
L 5113 2094 
Q 5113 2597 4934 2840 
Q 4756 3084 4391 3084 
Q 3944 3084 3684 2787 
Q 3425 2491 3425 1978 
L 3425 0 
L 2847 0 
L 2847 2094 
Q 2847 2600 2669 2842 
Q 2491 3084 2119 3084 
Q 1678 3084 1418 2786 
Q 1159 2488 1159 1978 
L 1159 0 
L 581 0 
L 581 3500 
L 1159 3500 
L 1159 2956 
Q 1356 3278 1631 3431 
Q 1906 3584 2284 3584 
Q 2666 3584 2933 3390 
Q 3200 3197 3328 2828 
z
" transform="scale(0.015625)"/>
       <path id="DejaVuSans-79" d="M 2059 -325 
Q 1816 -950 1584 -1140 
Q 1353 -1331 966 -1331 
L 506 -1331 
L 506 -850 
L 844 -850 
Q 1081 -850 1212 -737 
Q 1344 -625 1503 -206 
L 1606 56 
L 191 3500 
L 800 3500 
L 1894 763 
L 2988 3500 
L 3597 3500 
L 2059 -325 
z
" transform="scale(0.015625)"/>
      </defs>
      <use xlink:href="#DejaVuSans-4c"/>
      <use xlink:href="#DejaVuSans-53" x="55.712891"/>
      <use xlink:href="#DejaVuSans-41" x="121.064453"/>
      <use xlink:href="#DejaVuSans-56" x="183.097656"/>
      <use xlink:href="#DejaVuSans-65" x="243.755859"/>
      <use xlink:href="#DejaVuSans-72" x="305.279297"/>
      <use xlink:href="#DejaVuSans-73" x="346.392578"/>
      <use xlink:href="#DejaVuSans-69" x="398.492188"/>
      <use xlink:href="#DejaVuSans-6f" x="426.275391"/>
      <use xlink:href="#DejaVuSans-6e" x="487.457031"/>
      <use xlink:href="#DejaVuSans-20" x="550.835938"/>
      <use xlink:href="#DejaVuSans-3d" x="582.623047"/>
      <use xlink:href="#DejaVuSans-20" x="666.412109"/>
      <use xlink:href="#DejaVuSans-6d" x="698.199219"/>
      <use xlink:href="#DejaVuSans-79" x="795.611328"/>
      <use xlink:href="#DejaVuSans-20" x="854.791016"/>
      <use xlink:href="#DejaVuSans-66" x="886.578125"/>
      <use xlink:href="#DejaVuSans-75" x="921.783203"/>
      <use xlink:href="#DejaVuSans-6e" x="985.162109"/>
      <use xlink:href="#DejaVuSans-63" x="1048.541016"/>
      <use xlink:href="#DejaVuSans-74" x="1103.521484"/>
      <use xlink:href="#DejaVuSans-69" x="1142.730469"/>
      <use xlink:href="#DejaVuSans-6f" x="1170.513672"/>
      <use xlink:href="#DejaVuSans-6e" x="1231.695312"/>
     </g>
    </g>
   </g>
  </g>
  <g id="text_21">
   <!-- False_roberta-base_128_True -->
   <g transform="translate(143.674688 16.030125) scale(0.12 -0.12)">
    <defs>
     <path id="DejaVuSans-46" d="M 628 4666 
L 3309 4666 
L 3309 4134 
L 1259 4134 
L 1259 2759 
L 3109 2759 
L 3109 2228 
L 1259 2228 
L 1259 0 
L 628 0 
L 628 4666 
z
" transform="scale(0.015625)"/>
     <path id="DejaVuSans-61" d="M 2194 1759 
Q 1497 1759 1228 1600 
Q 959 1441 959 1056 
Q 959 750 1161 570 
Q 1363 391 1709 391 
Q 2188 391 2477 730 
Q 2766 1069 2766 1631 
L 2766 1759 
L 2194 1759 
z
M 3341 1997 
L 3341 0 
L 2766 0 
L 2766 531 
Q 2569 213 2275 61 
Q 1981 -91 1556 -91 
Q 1019 -91 701 211 
Q 384 513 384 1019 
Q 384 1609 779 1909 
Q 1175 2209 1959 2209 
L 2766 2209 
L 2766 2266 
Q 2766 2663 2505 2880 
Q 2244 3097 1772 3097 
Q 1472 3097 1187 3025 
Q 903 2953 641 2809 
L 641 3341 
Q 956 3463 1253 3523 
Q 1550 3584 1831 3584 
Q 2591 3584 2966 3190 
Q 3341 2797 3341 1997 
z
" transform="scale(0.015625)"/>
     <path id="DejaVuSans-6c" d="M 603 4863 
L 1178 4863 
L 1178 0 
L 603 0 
L 603 4863 
z
" transform="scale(0.015625)"/>
     <path id="DejaVuSans-5f" d="M 3263 -1063 
L 3263 -1509 
L -63 -1509 
L -63 -1063 
L 3263 -1063 
z
" transform="scale(0.015625)"/>
     <path id="DejaVuSans-62" d="M 3116 1747 
Q 3116 2381 2855 2742 
Q 2594 3103 2138 3103 
Q 1681 3103 1420 2742 
Q 1159 2381 1159 1747 
Q 1159 1113 1420 752 
Q 1681 391 2138 391 
Q 2594 391 2855 752 
Q 3116 1113 3116 1747 
z
M 1159 2969 
Q 1341 3281 1617 3432 
Q 1894 3584 2278 3584 
Q 2916 3584 3314 3078 
Q 3713 2572 3713 1747 
Q 3713 922 3314 415 
Q 2916 -91 2278 -91 
Q 1894 -91 1617 61 
Q 1341 213 1159 525 
L 1159 0 
L 581 0 
L 581 4863 
L 1159 4863 
L 1159 2969 
z
" transform="scale(0.015625)"/>
     <path id="DejaVuSans-2d" d="M 313 2009 
L 1997 2009 
L 1997 1497 
L 313 1497 
L 313 2009 
z
" transform="scale(0.015625)"/>
     <path id="DejaVuSans-54" d="M -19 4666 
L 3928 4666 
L 3928 4134 
L 2272 4134 
L 2272 0 
L 1638 0 
L 1638 4134 
L -19 4134 
L -19 4666 
z
" transform="scale(0.015625)"/>
    </defs>
    <use xlink:href="#DejaVuSans-46"/>
    <use xlink:href="#DejaVuSans-61" x="48.394531"/>
    <use xlink:href="#DejaVuSans-6c" x="109.673828"/>
    <use xlink:href="#DejaVuSans-73" x="137.457031"/>
    <use xlink:href="#DejaVuSans-65" x="189.556641"/>
    <use xlink:href="#DejaVuSans-5f" x="251.080078"/>
    <use xlink:href="#DejaVuSans-72" x="301.080078"/>
    <use xlink:href="#DejaVuSans-6f" x="339.943359"/>
    <use xlink:href="#DejaVuSans-62" x="401.125"/>
    <use xlink:href="#DejaVuSans-65" x="464.601562"/>
    <use xlink:href="#DejaVuSans-72" x="526.125"/>
    <use xlink:href="#DejaVuSans-74" x="567.238281"/>
    <use xlink:href="#DejaVuSans-61" x="606.447266"/>
    <use xlink:href="#DejaVuSans-2d" x="667.726562"/>
    <use xlink:href="#DejaVuSans-62" x="703.810547"/>
    <use xlink:href="#DejaVuSans-61" x="767.287109"/>
    <use xlink:href="#DejaVuSans-73" x="828.566406"/>
    <use xlink:href="#DejaVuSans-65" x="880.666016"/>
    <use xlink:href="#DejaVuSans-5f" x="942.189453"/>
    <use xlink:href="#DejaVuSans-31" x="992.189453"/>
    <use xlink:href="#DejaVuSans-32" x="1055.8125"/>
    <use xlink:href="#DejaVuSans-38" x="1119.435547"/>
    <use xlink:href="#DejaVuSans-5f" x="1183.058594"/>
    <use xlink:href="#DejaVuSans-54" x="1233.058594"/>
    <use xlink:href="#DejaVuSans-72" x="1279.392578"/>
    <use xlink:href="#DejaVuSans-75" x="1320.505859"/>
    <use xlink:href="#DejaVuSans-65" x="1383.884766"/>
   </g>
  </g>
 </g>
 <defs>
  <clipPath id="p69f2d7ada5">
   <rect x="57.6" y="41.472" width="357.12" height="266.112"/>
  </clipPath>
 </defs>
</svg>
