<?xml version="1.0" encoding="utf-8" standalone="no"?>
<!DOCTYPE svg PUBLIC "-//W3C//DTD SVG 1.1//EN"
  "http://www.w3.org/Graphics/SVG/1.1/DTD/svg11.dtd">
<svg xmlns:xlink="http://www.w3.org/1999/xlink" width="460.8pt" height="345.6pt" viewBox="0 0 460.8 345.6" xmlns="http://www.w3.org/2000/svg" version="1.1">
 <metadata>
  <rdf:RDF xmlns:dc="http://purl.org/dc/elements/1.1/" xmlns:cc="http://creativecommons.org/ns#" xmlns:rdf="http://www.w3.org/1999/02/22-rdf-syntax-ns#">
   <cc:Work>
    <dc:type rdf:resource="http://purl.org/dc/dcmitype/StillImage"/>
    <dc:date>2024-03-05T12:07:45.093757</dc:date>
    <dc:format>image/svg+xml</dc:format>
    <dc:creator>
     <cc:Agent>
      <dc:title>Matplotlib v3.6.3, https://matplotlib.org/</dc:title>
     </cc:Agent>
    </dc:creator>
   </cc:Work>
  </rdf:RDF>
 </metadata>
 <defs>
  <style type="text/css">*{stroke-linejoin: round; stroke-linecap: butt}</style>
 </defs>
 <g id="figure_1">
  <g id="patch_1">
   <path d="M 0 345.6 
L 460.8 345.6 
L 460.8 0 
L 0 0 
z
" style="fill: #ffffff"/>
  </g>
  <g id="axes_1">
   <g id="patch_2">
    <path d="M 57.6 307.584 
L 414.72 307.584 
L 414.72 41.472 
L 57.6 41.472 
z
" style="fill: #ffffff"/>
   </g>
   <g id="patch_3">
    <path d="M 73.832727 307.584 
L 86.319441 307.584 
L 86.319441 302.976 
L 73.832727 302.976 
z
" clip-path="url(#pab47b44cd6)" style="fill: #ff7f0e; fill-opacity: 0.5; stroke: #000000; stroke-linejoin: miter"/>
   </g>
   <g id="patch_4">
    <path d="M 86.319441 307.584 
L 98.806154 307.584 
L 98.806154 298.368 
L 86.319441 298.368 
z
" clip-path="url(#pab47b44cd6)" style="fill: #ff7f0e; fill-opacity: 0.5; stroke: #000000; stroke-linejoin: miter"/>
   </g>
   <g id="patch_5">
    <path d="M 98.806154 307.584 
L 111.292867 307.584 
L 111.292867 293.76 
L 98.806154 293.76 
z
" clip-path="url(#pab47b44cd6)" style="fill: #ff7f0e; fill-opacity: 0.5; stroke: #000000; stroke-linejoin: miter"/>
   </g>
   <g id="patch_6">
    <path d="M 111.292867 307.584 
L 123.77958 307.584 
L 123.77958 307.584 
L 111.292867 307.584 
z
" clip-path="url(#pab47b44cd6)" style="fill: #ff7f0e; fill-opacity: 0.5; stroke: #000000; stroke-linejoin: miter"/>
   </g>
   <g id="patch_7">
    <path d="M 123.77958 307.584 
L 136.266294 307.584 
L 136.266294 233.856 
L 123.77958 233.856 
z
" clip-path="url(#pab47b44cd6)" style="fill: #ff7f0e; fill-opacity: 0.5; stroke: #000000; stroke-linejoin: miter"/>
   </g>
   <g id="patch_8">
    <path d="M 136.266294 307.584 
L 148.753007 307.584 
L 148.753007 224.64 
L 136.266294 224.64 
z
" clip-path="url(#pab47b44cd6)" style="fill: #ff7f0e; fill-opacity: 0.5; stroke: #000000; stroke-linejoin: miter"/>
   </g>
   <g id="patch_9">
    <path d="M 148.753007 307.584 
L 161.23972 307.584 
L 161.23972 210.816 
L 148.753007 210.816 
z
" clip-path="url(#pab47b44cd6)" style="fill: #ff7f0e; fill-opacity: 0.5; stroke: #000000; stroke-linejoin: miter"/>
   </g>
   <g id="patch_10">
    <path d="M 161.23972 307.584 
L 173.726434 307.584 
L 173.726434 155.52 
L 161.23972 155.52 
z
" clip-path="url(#pab47b44cd6)" style="fill: #ff7f0e; fill-opacity: 0.5; stroke: #000000; stroke-linejoin: miter"/>
   </g>
   <g id="patch_11">
    <path d="M 173.726434 307.584 
L 186.213147 307.584 
L 186.213147 118.656 
L 173.726434 118.656 
z
" clip-path="url(#pab47b44cd6)" style="fill: #ff7f0e; fill-opacity: 0.5; stroke: #000000; stroke-linejoin: miter"/>
   </g>
   <g id="patch_12">
    <path d="M 186.213147 307.584 
L 198.69986 307.584 
L 198.69986 91.008 
L 186.213147 91.008 
z
" clip-path="url(#pab47b44cd6)" style="fill: #ff7f0e; fill-opacity: 0.5; stroke: #000000; stroke-linejoin: miter"/>
   </g>
   <g id="patch_13">
    <path d="M 198.69986 307.584 
L 211.186573 307.584 
L 211.186573 123.264 
L 198.69986 123.264 
z
" clip-path="url(#pab47b44cd6)" style="fill: #ff7f0e; fill-opacity: 0.5; stroke: #000000; stroke-linejoin: miter"/>
   </g>
   <g id="patch_14">
    <path d="M 211.186573 307.584 
L 223.673287 307.584 
L 223.673287 77.184 
L 211.186573 77.184 
z
" clip-path="url(#pab47b44cd6)" style="fill: #ff7f0e; fill-opacity: 0.5; stroke: #000000; stroke-linejoin: miter"/>
   </g>
   <g id="patch_15">
    <path d="M 223.673287 307.584 
L 236.16 307.584 
L 236.16 67.968 
L 223.673287 67.968 
z
" clip-path="url(#pab47b44cd6)" style="fill: #ff7f0e; fill-opacity: 0.5; stroke: #000000; stroke-linejoin: miter"/>
   </g>
   <g id="patch_16">
    <path d="M 236.16 307.584 
L 248.646713 307.584 
L 248.646713 95.616 
L 236.16 95.616 
z
" clip-path="url(#pab47b44cd6)" style="fill: #ff7f0e; fill-opacity: 0.5; stroke: #000000; stroke-linejoin: miter"/>
   </g>
   <g id="patch_17">
    <path d="M 248.646713 307.584 
L 261.133427 307.584 
L 261.133427 160.128 
L 248.646713 160.128 
z
" clip-path="url(#pab47b44cd6)" style="fill: #ff7f0e; fill-opacity: 0.5; stroke: #000000; stroke-linejoin: miter"/>
   </g>
   <g id="patch_18">
    <path d="M 261.133427 307.584 
L 273.62014 307.584 
L 273.62014 173.952 
L 261.133427 173.952 
z
" clip-path="url(#pab47b44cd6)" style="fill: #ff7f0e; fill-opacity: 0.5; stroke: #000000; stroke-linejoin: miter"/>
   </g>
   <g id="patch_19">
    <path d="M 273.62014 307.584 
L 286.106853 307.584 
L 286.106853 220.032 
L 273.62014 220.032 
z
" clip-path="url(#pab47b44cd6)" style="fill: #ff7f0e; fill-opacity: 0.5; stroke: #000000; stroke-linejoin: miter"/>
   </g>
   <g id="patch_20">
    <path d="M 286.106853 307.584 
L 298.593566 307.584 
L 298.593566 229.248 
L 286.106853 229.248 
z
" clip-path="url(#pab47b44cd6)" style="fill: #ff7f0e; fill-opacity: 0.5; stroke: #000000; stroke-linejoin: miter"/>
   </g>
   <g id="patch_21">
    <path d="M 298.593566 307.584 
L 311.08028 307.584 
L 311.08028 247.68 
L 298.593566 247.68 
z
" clip-path="url(#pab47b44cd6)" style="fill: #ff7f0e; fill-opacity: 0.5; stroke: #000000; stroke-linejoin: miter"/>
   </g>
   <g id="patch_22">
    <path d="M 311.08028 307.584 
L 323.566993 307.584 
L 323.566993 256.896 
L 311.08028 256.896 
z
" clip-path="url(#pab47b44cd6)" style="fill: #ff7f0e; fill-opacity: 0.5; stroke: #000000; stroke-linejoin: miter"/>
   </g>
   <g id="patch_23">
    <path d="M 323.566993 307.584 
L 336.053706 307.584 
L 336.053706 293.76 
L 323.566993 293.76 
z
" clip-path="url(#pab47b44cd6)" style="fill: #ff7f0e; fill-opacity: 0.5; stroke: #000000; stroke-linejoin: miter"/>
   </g>
   <g id="patch_24">
    <path d="M 336.053706 307.584 
L 348.54042 307.584 
L 348.54042 284.544 
L 336.053706 284.544 
z
" clip-path="url(#pab47b44cd6)" style="fill: #ff7f0e; fill-opacity: 0.5; stroke: #000000; stroke-linejoin: miter"/>
   </g>
   <g id="patch_25">
    <path d="M 348.54042 307.584 
L 361.027133 307.584 
L 361.027133 307.584 
L 348.54042 307.584 
z
" clip-path="url(#pab47b44cd6)" style="fill: #ff7f0e; fill-opacity: 0.5; stroke: #000000; stroke-linejoin: miter"/>
   </g>
   <g id="patch_26">
    <path d="M 361.027133 307.584 
L 373.513846 307.584 
L 373.513846 307.584 
L 361.027133 307.584 
z
" clip-path="url(#pab47b44cd6)" style="fill: #ff7f0e; fill-opacity: 0.5; stroke: #000000; stroke-linejoin: miter"/>
   </g>
   <g id="patch_27">
    <path d="M 373.513846 307.584 
L 386.000559 307.584 
L 386.000559 302.976 
L 373.513846 302.976 
z
" clip-path="url(#pab47b44cd6)" style="fill: #ff7f0e; fill-opacity: 0.5; stroke: #000000; stroke-linejoin: miter"/>
   </g>
   <g id="patch_28">
    <path d="M 386.000559 307.584 
L 398.487273 307.584 
L 398.487273 307.584 
L 386.000559 307.584 
z
" clip-path="url(#pab47b44cd6)" style="fill: #ff7f0e; fill-opacity: 0.5; stroke: #000000; stroke-linejoin: miter"/>
   </g>
   <g id="patch_29">
    <path d="M 73.832727 307.584 
L 86.319441 307.584 
L 86.319441 307.584 
L 73.832727 307.584 
z
" clip-path="url(#pab47b44cd6)" style="fill: #1f77b4; fill-opacity: 0.5; stroke: #000000; stroke-linejoin: miter"/>
   </g>
   <g id="patch_30">
    <path d="M 86.319441 307.584 
L 98.806154 307.584 
L 98.806154 307.584 
L 86.319441 307.584 
z
" clip-path="url(#pab47b44cd6)" style="fill: #1f77b4; fill-opacity: 0.5; stroke: #000000; stroke-linejoin: miter"/>
   </g>
   <g id="patch_31">
    <path d="M 98.806154 307.584 
L 111.292867 307.584 
L 111.292867 302.976 
L 98.806154 302.976 
z
" clip-path="url(#pab47b44cd6)" style="fill: #1f77b4; fill-opacity: 0.5; stroke: #000000; stroke-linejoin: miter"/>
   </g>
   <g id="patch_32">
    <path d="M 111.292867 307.584 
L 123.77958 307.584 
L 123.77958 261.504 
L 111.292867 261.504 
z
" clip-path="url(#pab47b44cd6)" style="fill: #1f77b4; fill-opacity: 0.5; stroke: #000000; stroke-linejoin: miter"/>
   </g>
   <g id="patch_33">
    <path d="M 123.77958 307.584 
L 136.266294 307.584 
L 136.266294 247.68 
L 123.77958 247.68 
z
" clip-path="url(#pab47b44cd6)" style="fill: #1f77b4; fill-opacity: 0.5; stroke: #000000; stroke-linejoin: miter"/>
   </g>
   <g id="patch_34">
    <path d="M 136.266294 307.584 
L 148.753007 307.584 
L 148.753007 210.816 
L 136.266294 210.816 
z
" clip-path="url(#pab47b44cd6)" style="fill: #1f77b4; fill-opacity: 0.5; stroke: #000000; stroke-linejoin: miter"/>
   </g>
   <g id="patch_35">
    <path d="M 148.753007 307.584 
L 161.23972 307.584 
L 161.23972 169.344 
L 148.753007 169.344 
z
" clip-path="url(#pab47b44cd6)" style="fill: #1f77b4; fill-opacity: 0.5; stroke: #000000; stroke-linejoin: miter"/>
   </g>
   <g id="patch_36">
    <path d="M 161.23972 307.584 
L 173.726434 307.584 
L 173.726434 160.128 
L 161.23972 160.128 
z
" clip-path="url(#pab47b44cd6)" style="fill: #1f77b4; fill-opacity: 0.5; stroke: #000000; stroke-linejoin: miter"/>
   </g>
   <g id="patch_37">
    <path d="M 173.726434 307.584 
L 186.213147 307.584 
L 186.213147 192.384 
L 173.726434 192.384 
z
" clip-path="url(#pab47b44cd6)" style="fill: #1f77b4; fill-opacity: 0.5; stroke: #000000; stroke-linejoin: miter"/>
   </g>
   <g id="patch_38">
    <path d="M 186.213147 307.584 
L 198.69986 307.584 
L 198.69986 77.184 
L 186.213147 77.184 
z
" clip-path="url(#pab47b44cd6)" style="fill: #1f77b4; fill-opacity: 0.5; stroke: #000000; stroke-linejoin: miter"/>
   </g>
   <g id="patch_39">
    <path d="M 198.69986 307.584 
L 211.186573 307.584 
L 211.186573 95.616 
L 198.69986 95.616 
z
" clip-path="url(#pab47b44cd6)" style="fill: #1f77b4; fill-opacity: 0.5; stroke: #000000; stroke-linejoin: miter"/>
   </g>
   <g id="patch_40">
    <path d="M 211.186573 307.584 
L 223.673287 307.584 
L 223.673287 63.36 
L 211.186573 63.36 
z
" clip-path="url(#pab47b44cd6)" style="fill: #1f77b4; fill-opacity: 0.5; stroke: #000000; stroke-linejoin: miter"/>
   </g>
   <g id="patch_41">
    <path d="M 223.673287 307.584 
L 236.16 307.584 
L 236.16 63.36 
L 223.673287 63.36 
z
" clip-path="url(#pab47b44cd6)" style="fill: #1f77b4; fill-opacity: 0.5; stroke: #000000; stroke-linejoin: miter"/>
   </g>
   <g id="patch_42">
    <path d="M 236.16 307.584 
L 248.646713 307.584 
L 248.646713 54.144 
L 236.16 54.144 
z
" clip-path="url(#pab47b44cd6)" style="fill: #1f77b4; fill-opacity: 0.5; stroke: #000000; stroke-linejoin: miter"/>
   </g>
   <g id="patch_43">
    <path d="M 248.646713 307.584 
L 261.133427 307.584 
L 261.133427 118.656 
L 248.646713 118.656 
z
" clip-path="url(#pab47b44cd6)" style="fill: #1f77b4; fill-opacity: 0.5; stroke: #000000; stroke-linejoin: miter"/>
   </g>
   <g id="patch_44">
    <path d="M 261.133427 307.584 
L 273.62014 307.584 
L 273.62014 160.128 
L 261.133427 160.128 
z
" clip-path="url(#pab47b44cd6)" style="fill: #1f77b4; fill-opacity: 0.5; stroke: #000000; stroke-linejoin: miter"/>
   </g>
   <g id="patch_45">
    <path d="M 273.62014 307.584 
L 286.106853 307.584 
L 286.106853 256.896 
L 273.62014 256.896 
z
" clip-path="url(#pab47b44cd6)" style="fill: #1f77b4; fill-opacity: 0.5; stroke: #000000; stroke-linejoin: miter"/>
   </g>
   <g id="patch_46">
    <path d="M 286.106853 307.584 
L 298.593566 307.584 
L 298.593566 266.112 
L 286.106853 266.112 
z
" clip-path="url(#pab47b44cd6)" style="fill: #1f77b4; fill-opacity: 0.5; stroke: #000000; stroke-linejoin: miter"/>
   </g>
   <g id="patch_47">
    <path d="M 298.593566 307.584 
L 311.08028 307.584 
L 311.08028 298.368 
L 298.593566 298.368 
z
" clip-path="url(#pab47b44cd6)" style="fill: #1f77b4; fill-opacity: 0.5; stroke: #000000; stroke-linejoin: miter"/>
   </g>
   <g id="patch_48">
    <path d="M 311.08028 307.584 
L 323.566993 307.584 
L 323.566993 270.72 
L 311.08028 270.72 
z
" clip-path="url(#pab47b44cd6)" style="fill: #1f77b4; fill-opacity: 0.5; stroke: #000000; stroke-linejoin: miter"/>
   </g>
   <g id="patch_49">
    <path d="M 323.566993 307.584 
L 336.053706 307.584 
L 336.053706 289.152 
L 323.566993 289.152 
z
" clip-path="url(#pab47b44cd6)" style="fill: #1f77b4; fill-opacity: 0.5; stroke: #000000; stroke-linejoin: miter"/>
   </g>
   <g id="patch_50">
    <path d="M 336.053706 307.584 
L 348.54042 307.584 
L 348.54042 298.368 
L 336.053706 298.368 
z
" clip-path="url(#pab47b44cd6)" style="fill: #1f77b4; fill-opacity: 0.5; stroke: #000000; stroke-linejoin: miter"/>
   </g>
   <g id="patch_51">
    <path d="M 348.54042 307.584 
L 361.027133 307.584 
L 361.027133 307.584 
L 348.54042 307.584 
z
" clip-path="url(#pab47b44cd6)" style="fill: #1f77b4; fill-opacity: 0.5; stroke: #000000; stroke-linejoin: miter"/>
   </g>
   <g id="patch_52">
    <path d="M 361.027133 307.584 
L 373.513846 307.584 
L 373.513846 307.584 
L 361.027133 307.584 
z
" clip-path="url(#pab47b44cd6)" style="fill: #1f77b4; fill-opacity: 0.5; stroke: #000000; stroke-linejoin: miter"/>
   </g>
   <g id="patch_53">
    <path d="M 373.513846 307.584 
L 386.000559 307.584 
L 386.000559 302.976 
L 373.513846 302.976 
z
" clip-path="url(#pab47b44cd6)" style="fill: #1f77b4; fill-opacity: 0.5; stroke: #000000; stroke-linejoin: miter"/>
   </g>
   <g id="patch_54">
    <path d="M 386.000559 307.584 
L 398.487273 307.584 
L 398.487273 302.976 
L 386.000559 302.976 
z
" clip-path="url(#pab47b44cd6)" style="fill: #1f77b4; fill-opacity: 0.5; stroke: #000000; stroke-linejoin: miter"/>
   </g>
   <g id="matplotlib.axis_1">
    <g id="xtick_1">
     <g id="line2d_1">
      <defs>
       <path id="mdb9e114105" d="M 0 0 
L 0 3.5 
" style="stroke: #000000; stroke-width: 0.8"/>
      </defs>
      <g>
       <use xlink:href="#mdb9e114105" x="80.821576" y="307.584" style="stroke: #000000; stroke-width: 0.8"/>
      </g>
     </g>
     <g id="text_1">
      <!-- 0.844 -->
      <g transform="translate(66.507514 322.182437) scale(0.1 -0.1)">
       <defs>
        <path id="DejaVuSans-30" d="M 2034 4250 
Q 1547 4250 1301 3770 
Q 1056 3291 1056 2328 
Q 1056 1369 1301 889 
Q 1547 409 2034 409 
Q 2525 409 2770 889 
Q 3016 1369 3016 2328 
Q 3016 3291 2770 3770 
Q 2525 4250 2034 4250 
z
M 2034 4750 
Q 2819 4750 3233 4129 
Q 3647 3509 3647 2328 
Q 3647 1150 3233 529 
Q 2819 -91 2034 -91 
Q 1250 -91 836 529 
Q 422 1150 422 2328 
Q 422 3509 836 4129 
Q 1250 4750 2034 4750 
z
" transform="scale(0.015625)"/>
        <path id="DejaVuSans-2e" d="M 684 794 
L 1344 794 
L 1344 0 
L 684 0 
L 684 794 
z
" transform="scale(0.015625)"/>
        <path id="DejaVuSans-38" d="M 2034 2216 
Q 1584 2216 1326 1975 
Q 1069 1734 1069 1313 
Q 1069 891 1326 650 
Q 1584 409 2034 409 
Q 2484 409 2743 651 
Q 3003 894 3003 1313 
Q 3003 1734 2745 1975 
Q 2488 2216 2034 2216 
z
M 1403 2484 
Q 997 2584 770 2862 
Q 544 3141 544 3541 
Q 544 4100 942 4425 
Q 1341 4750 2034 4750 
Q 2731 4750 3128 4425 
Q 3525 4100 3525 3541 
Q 3525 3141 3298 2862 
Q 3072 2584 2669 2484 
Q 3125 2378 3379 2068 
Q 3634 1759 3634 1313 
Q 3634 634 3220 271 
Q 2806 -91 2034 -91 
Q 1263 -91 848 271 
Q 434 634 434 1313 
Q 434 1759 690 2068 
Q 947 2378 1403 2484 
z
M 1172 3481 
Q 1172 3119 1398 2916 
Q 1625 2713 2034 2713 
Q 2441 2713 2670 2916 
Q 2900 3119 2900 3481 
Q 2900 3844 2670 4047 
Q 2441 4250 2034 4250 
Q 1625 4250 1398 4047 
Q 1172 3844 1172 3481 
z
" transform="scale(0.015625)"/>
        <path id="DejaVuSans-34" d="M 2419 4116 
L 825 1625 
L 2419 1625 
L 2419 4116 
z
M 2253 4666 
L 3047 4666 
L 3047 1625 
L 3713 1625 
L 3713 1100 
L 3047 1100 
L 3047 0 
L 2419 0 
L 2419 1100 
L 313 1100 
L 313 1709 
L 2253 4666 
z
" transform="scale(0.015625)"/>
       </defs>
       <use xlink:href="#DejaVuSans-30"/>
       <use xlink:href="#DejaVuSans-2e" x="63.623047"/>
       <use xlink:href="#DejaVuSans-38" x="95.410156"/>
       <use xlink:href="#DejaVuSans-34" x="159.033203"/>
       <use xlink:href="#DejaVuSans-34" x="222.65625"/>
      </g>
     </g>
    </g>
    <g id="xtick_2">
     <g id="line2d_2">
      <g>
       <use xlink:href="#mdb9e114105" x="130.358077" y="307.584" style="stroke: #000000; stroke-width: 0.8"/>
      </g>
     </g>
     <g id="text_2">
      <!-- 0.846 -->
      <g transform="translate(116.044014 322.182437) scale(0.1 -0.1)">
       <defs>
        <path id="DejaVuSans-36" d="M 2113 2584 
Q 1688 2584 1439 2293 
Q 1191 2003 1191 1497 
Q 1191 994 1439 701 
Q 1688 409 2113 409 
Q 2538 409 2786 701 
Q 3034 994 3034 1497 
Q 3034 2003 2786 2293 
Q 2538 2584 2113 2584 
z
M 3366 4563 
L 3366 3988 
Q 3128 4100 2886 4159 
Q 2644 4219 2406 4219 
Q 1781 4219 1451 3797 
Q 1122 3375 1075 2522 
Q 1259 2794 1537 2939 
Q 1816 3084 2150 3084 
Q 2853 3084 3261 2657 
Q 3669 2231 3669 1497 
Q 3669 778 3244 343 
Q 2819 -91 2113 -91 
Q 1303 -91 875 529 
Q 447 1150 447 2328 
Q 447 3434 972 4092 
Q 1497 4750 2381 4750 
Q 2619 4750 2861 4703 
Q 3103 4656 3366 4563 
z
" transform="scale(0.015625)"/>
       </defs>
       <use xlink:href="#DejaVuSans-30"/>
       <use xlink:href="#DejaVuSans-2e" x="63.623047"/>
       <use xlink:href="#DejaVuSans-38" x="95.410156"/>
       <use xlink:href="#DejaVuSans-34" x="159.033203"/>
       <use xlink:href="#DejaVuSans-36" x="222.65625"/>
      </g>
     </g>
    </g>
    <g id="xtick_3">
     <g id="line2d_3">
      <g>
       <use xlink:href="#mdb9e114105" x="179.894577" y="307.584" style="stroke: #000000; stroke-width: 0.8"/>
      </g>
     </g>
     <g id="text_3">
      <!-- 0.848 -->
      <g transform="translate(165.580514 322.182437) scale(0.1 -0.1)">
       <use xlink:href="#DejaVuSans-30"/>
       <use xlink:href="#DejaVuSans-2e" x="63.623047"/>
       <use xlink:href="#DejaVuSans-38" x="95.410156"/>
       <use xlink:href="#DejaVuSans-34" x="159.033203"/>
       <use xlink:href="#DejaVuSans-38" x="222.65625"/>
      </g>
     </g>
    </g>
    <g id="xtick_4">
     <g id="line2d_4">
      <g>
       <use xlink:href="#mdb9e114105" x="229.431077" y="307.584" style="stroke: #000000; stroke-width: 0.8"/>
      </g>
     </g>
     <g id="text_4">
      <!-- 0.850 -->
      <g transform="translate(215.117015 322.182437) scale(0.1 -0.1)">
       <defs>
        <path id="DejaVuSans-35" d="M 691 4666 
L 3169 4666 
L 3169 4134 
L 1269 4134 
L 1269 2991 
Q 1406 3038 1543 3061 
Q 1681 3084 1819 3084 
Q 2600 3084 3056 2656 
Q 3513 2228 3513 1497 
Q 3513 744 3044 326 
Q 2575 -91 1722 -91 
Q 1428 -91 1123 -41 
Q 819 9 494 109 
L 494 744 
Q 775 591 1075 516 
Q 1375 441 1709 441 
Q 2250 441 2565 725 
Q 2881 1009 2881 1497 
Q 2881 1984 2565 2268 
Q 2250 2553 1709 2553 
Q 1456 2553 1204 2497 
Q 953 2441 691 2322 
L 691 4666 
z
" transform="scale(0.015625)"/>
       </defs>
       <use xlink:href="#DejaVuSans-30"/>
       <use xlink:href="#DejaVuSans-2e" x="63.623047"/>
       <use xlink:href="#DejaVuSans-38" x="95.410156"/>
       <use xlink:href="#DejaVuSans-35" x="159.033203"/>
       <use xlink:href="#DejaVuSans-30" x="222.65625"/>
      </g>
     </g>
    </g>
    <g id="xtick_5">
     <g id="line2d_5">
      <g>
       <use xlink:href="#mdb9e114105" x="278.967578" y="307.584" style="stroke: #000000; stroke-width: 0.8"/>
      </g>
     </g>
     <g id="text_5">
      <!-- 0.852 -->
      <g transform="translate(264.653515 322.182437) scale(0.1 -0.1)">
       <defs>
        <path id="DejaVuSans-32" d="M 1228 531 
L 3431 531 
L 3431 0 
L 469 0 
L 469 531 
Q 828 903 1448 1529 
Q 2069 2156 2228 2338 
Q 2531 2678 2651 2914 
Q 2772 3150 2772 3378 
Q 2772 3750 2511 3984 
Q 2250 4219 1831 4219 
Q 1534 4219 1204 4116 
Q 875 4013 500 3803 
L 500 4441 
Q 881 4594 1212 4672 
Q 1544 4750 1819 4750 
Q 2544 4750 2975 4387 
Q 3406 4025 3406 3419 
Q 3406 3131 3298 2873 
Q 3191 2616 2906 2266 
Q 2828 2175 2409 1742 
Q 1991 1309 1228 531 
z
" transform="scale(0.015625)"/>
       </defs>
       <use xlink:href="#DejaVuSans-30"/>
       <use xlink:href="#DejaVuSans-2e" x="63.623047"/>
       <use xlink:href="#DejaVuSans-38" x="95.410156"/>
       <use xlink:href="#DejaVuSans-35" x="159.033203"/>
       <use xlink:href="#DejaVuSans-32" x="222.65625"/>
      </g>
     </g>
    </g>
    <g id="xtick_6">
     <g id="line2d_6">
      <g>
       <use xlink:href="#mdb9e114105" x="328.504078" y="307.584" style="stroke: #000000; stroke-width: 0.8"/>
      </g>
     </g>
     <g id="text_6">
      <!-- 0.854 -->
      <g transform="translate(314.190016 322.182437) scale(0.1 -0.1)">
       <use xlink:href="#DejaVuSans-30"/>
       <use xlink:href="#DejaVuSans-2e" x="63.623047"/>
       <use xlink:href="#DejaVuSans-38" x="95.410156"/>
       <use xlink:href="#DejaVuSans-35" x="159.033203"/>
       <use xlink:href="#DejaVuSans-34" x="222.65625"/>
      </g>
     </g>
    </g>
    <g id="xtick_7">
     <g id="line2d_7">
      <g>
       <use xlink:href="#mdb9e114105" x="378.040578" y="307.584" style="stroke: #000000; stroke-width: 0.8"/>
      </g>
     </g>
     <g id="text_7">
      <!-- 0.856 -->
      <g transform="translate(363.726516 322.182437) scale(0.1 -0.1)">
       <use xlink:href="#DejaVuSans-30"/>
       <use xlink:href="#DejaVuSans-2e" x="63.623047"/>
       <use xlink:href="#DejaVuSans-38" x="95.410156"/>
       <use xlink:href="#DejaVuSans-35" x="159.033203"/>
       <use xlink:href="#DejaVuSans-36" x="222.65625"/>
      </g>
     </g>
    </g>
   </g>
   <g id="matplotlib.axis_2">
    <g id="ytick_1">
     <g id="line2d_8">
      <defs>
       <path id="m9fbb7b647c" d="M 0 0 
L -3.5 0 
" style="stroke: #000000; stroke-width: 0.8"/>
      </defs>
      <g>
       <use xlink:href="#m9fbb7b647c" x="57.6" y="307.584" style="stroke: #000000; stroke-width: 0.8"/>
      </g>
     </g>
     <g id="text_8">
      <!-- 0 -->
      <g transform="translate(44.2375 311.383219) scale(0.1 -0.1)">
       <use xlink:href="#DejaVuSans-30"/>
      </g>
     </g>
    </g>
    <g id="ytick_2">
     <g id="line2d_9">
      <g>
       <use xlink:href="#m9fbb7b647c" x="57.6" y="261.504" style="stroke: #000000; stroke-width: 0.8"/>
      </g>
     </g>
     <g id="text_9">
      <!-- 10 -->
      <g transform="translate(37.875 265.303219) scale(0.1 -0.1)">
       <defs>
        <path id="DejaVuSans-31" d="M 794 531 
L 1825 531 
L 1825 4091 
L 703 3866 
L 703 4441 
L 1819 4666 
L 2450 4666 
L 2450 531 
L 3481 531 
L 3481 0 
L 794 0 
L 794 531 
z
" transform="scale(0.015625)"/>
       </defs>
       <use xlink:href="#DejaVuSans-31"/>
       <use xlink:href="#DejaVuSans-30" x="63.623047"/>
      </g>
     </g>
    </g>
    <g id="ytick_3">
     <g id="line2d_10">
      <g>
       <use xlink:href="#m9fbb7b647c" x="57.6" y="215.424" style="stroke: #000000; stroke-width: 0.8"/>
      </g>
     </g>
     <g id="text_10">
      <!-- 20 -->
      <g transform="translate(37.875 219.223219) scale(0.1 -0.1)">
       <use xlink:href="#DejaVuSans-32"/>
       <use xlink:href="#DejaVuSans-30" x="63.623047"/>
      </g>
     </g>
    </g>
    <g id="ytick_4">
     <g id="line2d_11">
      <g>
       <use xlink:href="#m9fbb7b647c" x="57.6" y="169.344" style="stroke: #000000; stroke-width: 0.8"/>
      </g>
     </g>
     <g id="text_11">
      <!-- 30 -->
      <g transform="translate(37.875 173.143219) scale(0.1 -0.1)">
       <defs>
        <path id="DejaVuSans-33" d="M 2597 2516 
Q 3050 2419 3304 2112 
Q 3559 1806 3559 1356 
Q 3559 666 3084 287 
Q 2609 -91 1734 -91 
Q 1441 -91 1130 -33 
Q 819 25 488 141 
L 488 750 
Q 750 597 1062 519 
Q 1375 441 1716 441 
Q 2309 441 2620 675 
Q 2931 909 2931 1356 
Q 2931 1769 2642 2001 
Q 2353 2234 1838 2234 
L 1294 2234 
L 1294 2753 
L 1863 2753 
Q 2328 2753 2575 2939 
Q 2822 3125 2822 3475 
Q 2822 3834 2567 4026 
Q 2313 4219 1838 4219 
Q 1578 4219 1281 4162 
Q 984 4106 628 3988 
L 628 4550 
Q 988 4650 1302 4700 
Q 1616 4750 1894 4750 
Q 2613 4750 3031 4423 
Q 3450 4097 3450 3541 
Q 3450 3153 3228 2886 
Q 3006 2619 2597 2516 
z
" transform="scale(0.015625)"/>
       </defs>
       <use xlink:href="#DejaVuSans-33"/>
       <use xlink:href="#DejaVuSans-30" x="63.623047"/>
      </g>
     </g>
    </g>
    <g id="ytick_5">
     <g id="line2d_12">
      <g>
       <use xlink:href="#m9fbb7b647c" x="57.6" y="123.264" style="stroke: #000000; stroke-width: 0.8"/>
      </g>
     </g>
     <g id="text_12">
      <!-- 40 -->
      <g transform="translate(37.875 127.063219) scale(0.1 -0.1)">
       <use xlink:href="#DejaVuSans-34"/>
       <use xlink:href="#DejaVuSans-30" x="63.623047"/>
      </g>
     </g>
    </g>
    <g id="ytick_6">
     <g id="line2d_13">
      <g>
       <use xlink:href="#m9fbb7b647c" x="57.6" y="77.184" style="stroke: #000000; stroke-width: 0.8"/>
      </g>
     </g>
     <g id="text_13">
      <!-- 50 -->
      <g transform="translate(37.875 80.983219) scale(0.1 -0.1)">
       <use xlink:href="#DejaVuSans-35"/>
       <use xlink:href="#DejaVuSans-30" x="63.623047"/>
      </g>
     </g>
    </g>
    <g id="text_14">
     <!-- Count -->
     <g transform="translate(31.795312 189.376437) rotate(-90) scale(0.1 -0.1)">
      <defs>
       <path id="DejaVuSans-43" d="M 4122 4306 
L 4122 3641 
Q 3803 3938 3442 4084 
Q 3081 4231 2675 4231 
Q 1875 4231 1450 3742 
Q 1025 3253 1025 2328 
Q 1025 1406 1450 917 
Q 1875 428 2675 428 
Q 3081 428 3442 575 
Q 3803 722 4122 1019 
L 4122 359 
Q 3791 134 3420 21 
Q 3050 -91 2638 -91 
Q 1578 -91 968 557 
Q 359 1206 359 2328 
Q 359 3453 968 4101 
Q 1578 4750 2638 4750 
Q 3056 4750 3426 4639 
Q 3797 4528 4122 4306 
z
" transform="scale(0.015625)"/>
       <path id="DejaVuSans-6f" d="M 1959 3097 
Q 1497 3097 1228 2736 
Q 959 2375 959 1747 
Q 959 1119 1226 758 
Q 1494 397 1959 397 
Q 2419 397 2687 759 
Q 2956 1122 2956 1747 
Q 2956 2369 2687 2733 
Q 2419 3097 1959 3097 
z
M 1959 3584 
Q 2709 3584 3137 3096 
Q 3566 2609 3566 1747 
Q 3566 888 3137 398 
Q 2709 -91 1959 -91 
Q 1206 -91 779 398 
Q 353 888 353 1747 
Q 353 2609 779 3096 
Q 1206 3584 1959 3584 
z
" transform="scale(0.015625)"/>
       <path id="DejaVuSans-75" d="M 544 1381 
L 544 3500 
L 1119 3500 
L 1119 1403 
Q 1119 906 1312 657 
Q 1506 409 1894 409 
Q 2359 409 2629 706 
Q 2900 1003 2900 1516 
L 2900 3500 
L 3475 3500 
L 3475 0 
L 2900 0 
L 2900 538 
Q 2691 219 2414 64 
Q 2138 -91 1772 -91 
Q 1169 -91 856 284 
Q 544 659 544 1381 
z
M 1991 3584 
L 1991 3584 
z
" transform="scale(0.015625)"/>
       <path id="DejaVuSans-6e" d="M 3513 2113 
L 3513 0 
L 2938 0 
L 2938 2094 
Q 2938 2591 2744 2837 
Q 2550 3084 2163 3084 
Q 1697 3084 1428 2787 
Q 1159 2491 1159 1978 
L 1159 0 
L 581 0 
L 581 3500 
L 1159 3500 
L 1159 2956 
Q 1366 3272 1645 3428 
Q 1925 3584 2291 3584 
Q 2894 3584 3203 3211 
Q 3513 2838 3513 2113 
z
" transform="scale(0.015625)"/>
       <path id="DejaVuSans-74" d="M 1172 4494 
L 1172 3500 
L 2356 3500 
L 2356 3053 
L 1172 3053 
L 1172 1153 
Q 1172 725 1289 603 
Q 1406 481 1766 481 
L 2356 481 
L 2356 0 
L 1766 0 
Q 1100 0 847 248 
Q 594 497 594 1153 
L 594 3053 
L 172 3053 
L 172 3500 
L 594 3500 
L 594 4494 
L 1172 4494 
z
" transform="scale(0.015625)"/>
      </defs>
      <use xlink:href="#DejaVuSans-43"/>
      <use xlink:href="#DejaVuSans-6f" x="69.824219"/>
      <use xlink:href="#DejaVuSans-75" x="131.005859"/>
      <use xlink:href="#DejaVuSans-6e" x="194.384766"/>
      <use xlink:href="#DejaVuSans-74" x="257.763672"/>
     </g>
    </g>
   </g>
   <g id="line2d_14">
    <path d="M 73.832727 303.957191 
L 81.989877 302.265646 
L 90.147026 300.354838 
L 95.041316 298.96397 
L 98.304175 297.80264 
L 101.567035 296.32246 
L 103.198465 295.417478 
L 104.829895 294.375597 
L 106.461325 293.17593 
L 108.092755 291.798054 
L 109.724185 290.222956 
L 111.355614 288.434033 
L 112.987044 286.418066 
L 114.618474 284.166111 
L 116.249904 281.674236 
L 117.881334 278.944051 
L 121.144194 272.804272 
L 124.407053 265.873962 
L 127.669913 258.357786 
L 140.721352 227.403668 
L 145.615642 216.93169 
L 155.404221 196.64058 
L 158.667081 189.163193 
L 161.929941 180.990083 
L 165.1928 172.09864 
L 170.08709 157.769519 
L 174.98138 143.242757 
L 178.244239 134.131609 
L 181.507099 125.915685 
L 183.138529 122.226487 
L 184.769959 118.84125 
L 186.401389 115.764912 
L 188.032819 112.991457 
L 189.664249 110.504605 
L 191.295678 108.279122 
L 192.927108 106.282654 
L 196.189968 102.825681 
L 199.452828 99.824775 
L 207.609977 92.892451 
L 210.872837 90.262415 
L 214.135697 87.961179 
L 215.767127 87.024795 
L 217.398556 86.283841 
L 219.029986 85.776559 
L 220.661416 85.537867 
L 222.292846 85.597734 
L 223.924276 85.97994 
L 225.555706 86.701262 
L 227.187136 87.77109 
L 228.818566 89.191452 
L 230.449995 90.957422 
L 232.081425 93.057821 
L 233.712855 95.476164 
L 235.344285 98.191739 
L 236.975715 101.180762 
L 240.238575 107.875343 
L 243.501434 115.348593 
L 246.764294 123.399467 
L 251.658584 136.179733 
L 267.972883 179.752286 
L 272.867172 191.846272 
L 276.130032 199.422544 
L 279.392892 206.55407 
L 282.655751 213.21192 
L 285.918611 219.385771 
L 289.181471 225.086274 
L 292.444331 230.347439 
L 295.70719 235.227298 
L 300.60148 242.008246 
L 307.1272 250.516188 
L 323.441498 271.34785 
L 328.335788 277.207168 
L 333.230078 282.673538 
L 338.124367 287.719322 
L 343.018657 292.326556 
L 346.281517 295.119193 
L 349.544376 297.642273 
L 352.807236 299.847981 
L 356.070096 301.694889 
L 359.332956 303.160244 
L 362.595815 304.248079 
L 365.858675 304.991119 
L 369.121535 305.44661 
L 372.384395 305.687698 
L 377.278684 305.8173 
L 387.067264 305.995775 
L 395.224413 306.444071 
L 398.487273 306.666616 
L 398.487273 306.666616 
" clip-path="url(#pab47b44cd6)" style="fill: none; stroke: #ff7f0e; stroke-width: 1.5; stroke-linecap: square"/>
   </g>
   <g id="line2d_15">
    <path d="M 73.832727 307.327231 
L 78.727017 306.929537 
L 81.989877 306.433467 
L 85.252736 305.652915 
L 88.515596 304.485372 
L 90.147026 303.722755 
L 91.778456 302.823519 
L 93.409886 301.775907 
L 95.041316 300.569841 
L 96.672746 299.19745 
L 98.304175 297.653519 
L 99.935605 295.935825 
L 103.198465 291.9862 
L 106.461325 287.393253 
L 109.724185 282.241856 
L 112.987044 276.636274 
L 116.249904 270.6727 
L 121.144194 261.178832 
L 126.038483 251.014678 
L 129.301343 243.789075 
L 132.564203 236.158132 
L 137.458492 224.028439 
L 145.615642 203.430758 
L 148.878502 195.858721 
L 152.141361 189.071085 
L 153.772791 186.021594 
L 155.404221 183.210381 
L 157.035651 180.631257 
L 160.298511 176.093062 
L 163.56137 172.161097 
L 168.45566 166.580479 
L 171.71852 162.448412 
L 173.34995 160.109327 
L 174.98138 157.536349 
L 176.61281 154.703 
L 178.244239 151.594867 
L 179.875669 148.21072 
L 183.138529 140.676754 
L 186.401389 132.347732 
L 194.558538 110.720544 
L 197.821398 102.758918 
L 201.084258 95.499345 
L 204.347117 88.921756 
L 207.609977 82.909736 
L 210.872837 77.350826 
L 214.135697 72.229186 
L 217.398556 67.67649 
L 219.029986 65.694807 
L 220.661416 63.966891 
L 222.292846 62.540571 
L 223.924276 61.46447 
L 225.555706 60.785449 
L 227.187136 60.546264 
L 228.818566 60.783538 
L 230.449995 61.526136 
L 232.081425 62.793977 
L 233.712855 64.597293 
L 235.344285 66.936327 
L 236.975715 69.801466 
L 238.607145 73.173779 
L 240.238575 77.025959 
L 241.870005 81.323606 
L 243.501434 86.026838 
L 246.764294 96.474288 
L 250.027154 108.011917 
L 253.290014 120.316126 
L 258.184303 139.690298 
L 264.710023 166.540481 
L 274.498602 207.121709 
L 277.761462 219.85157 
L 281.024322 231.659601 
L 284.287181 242.255466 
L 285.918611 247.031363 
L 287.550041 251.437191 
L 289.181471 255.465753 
L 290.812901 259.117046 
L 292.444331 262.397657 
L 294.075761 265.319932 
L 295.70719 267.901074 
L 297.33862 270.162235 
L 298.97005 272.127698 
L 300.60148 273.824174 
L 302.23291 275.280227 
L 303.86434 276.525785 
L 305.49577 277.591708 
L 308.75863 279.310034 
L 312.021489 280.682496 
L 318.547209 283.258526 
L 321.810069 284.773946 
L 325.072928 286.538973 
L 328.335788 288.5432 
L 333.230078 291.852853 
L 339.755797 296.323445 
L 343.018657 298.373298 
L 346.281517 300.207477 
L 349.544376 301.784971 
L 352.807236 303.084607 
L 356.070096 304.101009 
L 359.332956 304.841356 
L 362.595815 305.323824 
L 365.858675 305.57727 
L 369.121535 305.640876 
L 374.015825 305.486308 
L 387.067264 304.80172 
L 391.961553 304.79258 
L 396.855843 304.990609 
L 398.487273 305.099216 
L 398.487273 305.099216 
" clip-path="url(#pab47b44cd6)" style="fill: none; stroke: #1f77b4; stroke-width: 1.5; stroke-linecap: square"/>
   </g>
   <g id="patch_55">
    <path d="M 57.6 307.584 
L 57.6 41.472 
" style="fill: none; stroke: #000000; stroke-width: 0.8; stroke-linejoin: miter; stroke-linecap: square"/>
   </g>
   <g id="patch_56">
    <path d="M 414.72 307.584 
L 414.72 41.472 
" style="fill: none; stroke: #000000; stroke-width: 0.8; stroke-linejoin: miter; stroke-linecap: square"/>
   </g>
   <g id="patch_57">
    <path d="M 57.6 307.584 
L 414.72 307.584 
" style="fill: none; stroke: #000000; stroke-width: 0.8; stroke-linejoin: miter; stroke-linecap: square"/>
   </g>
   <g id="patch_58">
    <path d="M 57.6 41.472 
L 414.72 41.472 
" style="fill: none; stroke: #000000; stroke-width: 0.8; stroke-linejoin: miter; stroke-linecap: square"/>
   </g>
   <g id="legend_1">
    <g id="patch_59">
     <path d="M 264.384063 79.3845 
L 407.72 79.3845 
Q 409.72 79.3845 409.72 77.3845 
L 409.72 48.472 
Q 409.72 46.472 407.72 46.472 
L 264.384063 46.472 
Q 262.384063 46.472 262.384063 48.472 
L 262.384063 77.3845 
Q 262.384063 79.3845 264.384063 79.3845 
z
" style="fill: #ffffff; opacity: 0.8; stroke: #cccccc; stroke-linejoin: miter"/>
    </g>
    <g id="patch_60">
     <path d="M 266.384063 58.070438 
L 286.384063 58.070438 
L 286.384063 51.070438 
L 266.384063 51.070438 
z
" style="fill: #1f77b4; fill-opacity: 0.5; stroke: #000000; stroke-linejoin: miter"/>
    </g>
    <g id="text_15">
     <!-- padding_length = 128 -->
     <g transform="translate(294.384063 58.070438) scale(0.1 -0.1)">
      <defs>
       <path id="DejaVuSans-70" d="M 1159 525 
L 1159 -1331 
L 581 -1331 
L 581 3500 
L 1159 3500 
L 1159 2969 
Q 1341 3281 1617 3432 
Q 1894 3584 2278 3584 
Q 2916 3584 3314 3078 
Q 3713 2572 3713 1747 
Q 3713 922 3314 415 
Q 2916 -91 2278 -91 
Q 1894 -91 1617 61 
Q 1341 213 1159 525 
z
M 3116 1747 
Q 3116 2381 2855 2742 
Q 2594 3103 2138 3103 
Q 1681 3103 1420 2742 
Q 1159 2381 1159 1747 
Q 1159 1113 1420 752 
Q 1681 391 2138 391 
Q 2594 391 2855 752 
Q 3116 1113 3116 1747 
z
" transform="scale(0.015625)"/>
       <path id="DejaVuSans-61" d="M 2194 1759 
Q 1497 1759 1228 1600 
Q 959 1441 959 1056 
Q 959 750 1161 570 
Q 1363 391 1709 391 
Q 2188 391 2477 730 
Q 2766 1069 2766 1631 
L 2766 1759 
L 2194 1759 
z
M 3341 1997 
L 3341 0 
L 2766 0 
L 2766 531 
Q 2569 213 2275 61 
Q 1981 -91 1556 -91 
Q 1019 -91 701 211 
Q 384 513 384 1019 
Q 384 1609 779 1909 
Q 1175 2209 1959 2209 
L 2766 2209 
L 2766 2266 
Q 2766 2663 2505 2880 
Q 2244 3097 1772 3097 
Q 1472 3097 1187 3025 
Q 903 2953 641 2809 
L 641 3341 
Q 956 3463 1253 3523 
Q 1550 3584 1831 3584 
Q 2591 3584 2966 3190 
Q 3341 2797 3341 1997 
z
" transform="scale(0.015625)"/>
       <path id="DejaVuSans-64" d="M 2906 2969 
L 2906 4863 
L 3481 4863 
L 3481 0 
L 2906 0 
L 2906 525 
Q 2725 213 2448 61 
Q 2172 -91 1784 -91 
Q 1150 -91 751 415 
Q 353 922 353 1747 
Q 353 2572 751 3078 
Q 1150 3584 1784 3584 
Q 2172 3584 2448 3432 
Q 2725 3281 2906 2969 
z
M 947 1747 
Q 947 1113 1208 752 
Q 1469 391 1925 391 
Q 2381 391 2643 752 
Q 2906 1113 2906 1747 
Q 2906 2381 2643 2742 
Q 2381 3103 1925 3103 
Q 1469 3103 1208 2742 
Q 947 2381 947 1747 
z
" transform="scale(0.015625)"/>
       <path id="DejaVuSans-69" d="M 603 3500 
L 1178 3500 
L 1178 0 
L 603 0 
L 603 3500 
z
M 603 4863 
L 1178 4863 
L 1178 4134 
L 603 4134 
L 603 4863 
z
" transform="scale(0.015625)"/>
       <path id="DejaVuSans-67" d="M 2906 1791 
Q 2906 2416 2648 2759 
Q 2391 3103 1925 3103 
Q 1463 3103 1205 2759 
Q 947 2416 947 1791 
Q 947 1169 1205 825 
Q 1463 481 1925 481 
Q 2391 481 2648 825 
Q 2906 1169 2906 1791 
z
M 3481 434 
Q 3481 -459 3084 -895 
Q 2688 -1331 1869 -1331 
Q 1566 -1331 1297 -1286 
Q 1028 -1241 775 -1147 
L 775 -588 
Q 1028 -725 1275 -790 
Q 1522 -856 1778 -856 
Q 2344 -856 2625 -561 
Q 2906 -266 2906 331 
L 2906 616 
Q 2728 306 2450 153 
Q 2172 0 1784 0 
Q 1141 0 747 490 
Q 353 981 353 1791 
Q 353 2603 747 3093 
Q 1141 3584 1784 3584 
Q 2172 3584 2450 3431 
Q 2728 3278 2906 2969 
L 2906 3500 
L 3481 3500 
L 3481 434 
z
" transform="scale(0.015625)"/>
       <path id="DejaVuSans-5f" d="M 3263 -1063 
L 3263 -1509 
L -63 -1509 
L -63 -1063 
L 3263 -1063 
z
" transform="scale(0.015625)"/>
       <path id="DejaVuSans-6c" d="M 603 4863 
L 1178 4863 
L 1178 0 
L 603 0 
L 603 4863 
z
" transform="scale(0.015625)"/>
       <path id="DejaVuSans-65" d="M 3597 1894 
L 3597 1613 
L 953 1613 
Q 991 1019 1311 708 
Q 1631 397 2203 397 
Q 2534 397 2845 478 
Q 3156 559 3463 722 
L 3463 178 
Q 3153 47 2828 -22 
Q 2503 -91 2169 -91 
Q 1331 -91 842 396 
Q 353 884 353 1716 
Q 353 2575 817 3079 
Q 1281 3584 2069 3584 
Q 2775 3584 3186 3129 
Q 3597 2675 3597 1894 
z
M 3022 2063 
Q 3016 2534 2758 2815 
Q 2500 3097 2075 3097 
Q 1594 3097 1305 2825 
Q 1016 2553 972 2059 
L 3022 2063 
z
" transform="scale(0.015625)"/>
       <path id="DejaVuSans-68" d="M 3513 2113 
L 3513 0 
L 2938 0 
L 2938 2094 
Q 2938 2591 2744 2837 
Q 2550 3084 2163 3084 
Q 1697 3084 1428 2787 
Q 1159 2491 1159 1978 
L 1159 0 
L 581 0 
L 581 4863 
L 1159 4863 
L 1159 2956 
Q 1366 3272 1645 3428 
Q 1925 3584 2291 3584 
Q 2894 3584 3203 3211 
Q 3513 2838 3513 2113 
z
" transform="scale(0.015625)"/>
       <path id="DejaVuSans-20" transform="scale(0.015625)"/>
       <path id="DejaVuSans-3d" d="M 678 2906 
L 4684 2906 
L 4684 2381 
L 678 2381 
L 678 2906 
z
M 678 1631 
L 4684 1631 
L 4684 1100 
L 678 1100 
L 678 1631 
z
" transform="scale(0.015625)"/>
      </defs>
      <use xlink:href="#DejaVuSans-70"/>
      <use xlink:href="#DejaVuSans-61" x="63.476562"/>
      <use xlink:href="#DejaVuSans-64" x="124.755859"/>
      <use xlink:href="#DejaVuSans-64" x="188.232422"/>
      <use xlink:href="#DejaVuSans-69" x="251.708984"/>
      <use xlink:href="#DejaVuSans-6e" x="279.492188"/>
      <use xlink:href="#DejaVuSans-67" x="342.871094"/>
      <use xlink:href="#DejaVuSans-5f" x="406.347656"/>
      <use xlink:href="#DejaVuSans-6c" x="456.347656"/>
      <use xlink:href="#DejaVuSans-65" x="484.130859"/>
      <use xlink:href="#DejaVuSans-6e" x="545.654297"/>
      <use xlink:href="#DejaVuSans-67" x="609.033203"/>
      <use xlink:href="#DejaVuSans-74" x="672.509766"/>
      <use xlink:href="#DejaVuSans-68" x="711.71875"/>
      <use xlink:href="#DejaVuSans-20" x="775.097656"/>
      <use xlink:href="#DejaVuSans-3d" x="806.884766"/>
      <use xlink:href="#DejaVuSans-20" x="890.673828"/>
      <use xlink:href="#DejaVuSans-31" x="922.460938"/>
      <use xlink:href="#DejaVuSans-32" x="986.083984"/>
      <use xlink:href="#DejaVuSans-38" x="1049.707031"/>
     </g>
    </g>
    <g id="patch_61">
     <path d="M 266.384063 73.026688 
L 286.384063 73.026688 
L 286.384063 66.026688 
L 266.384063 66.026688 
z
" style="fill: #ff7f0e; fill-opacity: 0.5; stroke: #000000; stroke-linejoin: miter"/>
    </g>
    <g id="text_16">
     <!-- padding_length = 384 -->
     <g transform="translate(294.384063 73.026688) scale(0.1 -0.1)">
      <use xlink:href="#DejaVuSans-70"/>
      <use xlink:href="#DejaVuSans-61" x="63.476562"/>
      <use xlink:href="#DejaVuSans-64" x="124.755859"/>
      <use xlink:href="#DejaVuSans-64" x="188.232422"/>
      <use xlink:href="#DejaVuSans-69" x="251.708984"/>
      <use xlink:href="#DejaVuSans-6e" x="279.492188"/>
      <use xlink:href="#DejaVuSans-67" x="342.871094"/>
      <use xlink:href="#DejaVuSans-5f" x="406.347656"/>
      <use xlink:href="#DejaVuSans-6c" x="456.347656"/>
      <use xlink:href="#DejaVuSans-65" x="484.130859"/>
      <use xlink:href="#DejaVuSans-6e" x="545.654297"/>
      <use xlink:href="#DejaVuSans-67" x="609.033203"/>
      <use xlink:href="#DejaVuSans-74" x="672.509766"/>
      <use xlink:href="#DejaVuSans-68" x="711.71875"/>
      <use xlink:href="#DejaVuSans-20" x="775.097656"/>
      <use xlink:href="#DejaVuSans-3d" x="806.884766"/>
      <use xlink:href="#DejaVuSans-20" x="890.673828"/>
      <use xlink:href="#DejaVuSans-33" x="922.460938"/>
      <use xlink:href="#DejaVuSans-38" x="986.083984"/>
      <use xlink:href="#DejaVuSans-34" x="1049.707031"/>
     </g>
    </g>
   </g>
  </g>
  <g id="text_17">
   <!-- none_False_roberta-base_False -->
   <g transform="translate(137.835 16.030125) scale(0.12 -0.12)">
    <defs>
     <path id="DejaVuSans-46" d="M 628 4666 
L 3309 4666 
L 3309 4134 
L 1259 4134 
L 1259 2759 
L 3109 2759 
L 3109 2228 
L 1259 2228 
L 1259 0 
L 628 0 
L 628 4666 
z
" transform="scale(0.015625)"/>
     <path id="DejaVuSans-73" d="M 2834 3397 
L 2834 2853 
Q 2591 2978 2328 3040 
Q 2066 3103 1784 3103 
Q 1356 3103 1142 2972 
Q 928 2841 928 2578 
Q 928 2378 1081 2264 
Q 1234 2150 1697 2047 
L 1894 2003 
Q 2506 1872 2764 1633 
Q 3022 1394 3022 966 
Q 3022 478 2636 193 
Q 2250 -91 1575 -91 
Q 1294 -91 989 -36 
Q 684 19 347 128 
L 347 722 
Q 666 556 975 473 
Q 1284 391 1588 391 
Q 1994 391 2212 530 
Q 2431 669 2431 922 
Q 2431 1156 2273 1281 
Q 2116 1406 1581 1522 
L 1381 1569 
Q 847 1681 609 1914 
Q 372 2147 372 2553 
Q 372 3047 722 3315 
Q 1072 3584 1716 3584 
Q 2034 3584 2315 3537 
Q 2597 3491 2834 3397 
z
" transform="scale(0.015625)"/>
     <path id="DejaVuSans-72" d="M 2631 2963 
Q 2534 3019 2420 3045 
Q 2306 3072 2169 3072 
Q 1681 3072 1420 2755 
Q 1159 2438 1159 1844 
L 1159 0 
L 581 0 
L 581 3500 
L 1159 3500 
L 1159 2956 
Q 1341 3275 1631 3429 
Q 1922 3584 2338 3584 
Q 2397 3584 2469 3576 
Q 2541 3569 2628 3553 
L 2631 2963 
z
" transform="scale(0.015625)"/>
     <path id="DejaVuSans-62" d="M 3116 1747 
Q 3116 2381 2855 2742 
Q 2594 3103 2138 3103 
Q 1681 3103 1420 2742 
Q 1159 2381 1159 1747 
Q 1159 1113 1420 752 
Q 1681 391 2138 391 
Q 2594 391 2855 752 
Q 3116 1113 3116 1747 
z
M 1159 2969 
Q 1341 3281 1617 3432 
Q 1894 3584 2278 3584 
Q 2916 3584 3314 3078 
Q 3713 2572 3713 1747 
Q 3713 922 3314 415 
Q 2916 -91 2278 -91 
Q 1894 -91 1617 61 
Q 1341 213 1159 525 
L 1159 0 
L 581 0 
L 581 4863 
L 1159 4863 
L 1159 2969 
z
" transform="scale(0.015625)"/>
     <path id="DejaVuSans-2d" d="M 313 2009 
L 1997 2009 
L 1997 1497 
L 313 1497 
L 313 2009 
z
" transform="scale(0.015625)"/>
    </defs>
    <use xlink:href="#DejaVuSans-6e"/>
    <use xlink:href="#DejaVuSans-6f" x="63.378906"/>
    <use xlink:href="#DejaVuSans-6e" x="124.560547"/>
    <use xlink:href="#DejaVuSans-65" x="187.939453"/>
    <use xlink:href="#DejaVuSans-5f" x="249.462891"/>
    <use xlink:href="#DejaVuSans-46" x="299.462891"/>
    <use xlink:href="#DejaVuSans-61" x="347.857422"/>
    <use xlink:href="#DejaVuSans-6c" x="409.136719"/>
    <use xlink:href="#DejaVuSans-73" x="436.919922"/>
    <use xlink:href="#DejaVuSans-65" x="489.019531"/>
    <use xlink:href="#DejaVuSans-5f" x="550.542969"/>
    <use xlink:href="#DejaVuSans-72" x="600.542969"/>
    <use xlink:href="#DejaVuSans-6f" x="639.40625"/>
    <use xlink:href="#DejaVuSans-62" x="700.587891"/>
    <use xlink:href="#DejaVuSans-65" x="764.064453"/>
    <use xlink:href="#DejaVuSans-72" x="825.587891"/>
    <use xlink:href="#DejaVuSans-74" x="866.701172"/>
    <use xlink:href="#DejaVuSans-61" x="905.910156"/>
    <use xlink:href="#DejaVuSans-2d" x="967.189453"/>
    <use xlink:href="#DejaVuSans-62" x="1003.273438"/>
    <use xlink:href="#DejaVuSans-61" x="1066.75"/>
    <use xlink:href="#DejaVuSans-73" x="1128.029297"/>
    <use xlink:href="#DejaVuSans-65" x="1180.128906"/>
    <use xlink:href="#DejaVuSans-5f" x="1241.652344"/>
    <use xlink:href="#DejaVuSans-46" x="1291.652344"/>
    <use xlink:href="#DejaVuSans-61" x="1340.046875"/>
    <use xlink:href="#DejaVuSans-6c" x="1401.326172"/>
    <use xlink:href="#DejaVuSans-73" x="1429.109375"/>
    <use xlink:href="#DejaVuSans-65" x="1481.208984"/>
   </g>
  </g>
 </g>
 <defs>
  <clipPath id="pab47b44cd6">
   <rect x="57.6" y="41.472" width="357.12" height="266.112"/>
  </clipPath>
 </defs>
</svg>
