<?xml version="1.0" encoding="utf-8" standalone="no"?>
<!DOCTYPE svg PUBLIC "-//W3C//DTD SVG 1.1//EN"
  "http://www.w3.org/Graphics/SVG/1.1/DTD/svg11.dtd">
<svg xmlns:xlink="http://www.w3.org/1999/xlink" width="460.8pt" height="345.6pt" viewBox="0 0 460.8 345.6" xmlns="http://www.w3.org/2000/svg" version="1.1">
 <metadata>
  <rdf:RDF xmlns:dc="http://purl.org/dc/elements/1.1/" xmlns:cc="http://creativecommons.org/ns#" xmlns:rdf="http://www.w3.org/1999/02/22-rdf-syntax-ns#">
   <cc:Work>
    <dc:type rdf:resource="http://purl.org/dc/dcmitype/StillImage"/>
    <dc:date>2024-03-05T12:07:40.602108</dc:date>
    <dc:format>image/svg+xml</dc:format>
    <dc:creator>
     <cc:Agent>
      <dc:title>Matplotlib v3.6.3, https://matplotlib.org/</dc:title>
     </cc:Agent>
    </dc:creator>
   </cc:Work>
  </rdf:RDF>
 </metadata>
 <defs>
  <style type="text/css">*{stroke-linejoin: round; stroke-linecap: butt}</style>
 </defs>
 <g id="figure_1">
  <g id="patch_1">
   <path d="M 0 345.6 
L 460.8 345.6 
L 460.8 0 
L 0 0 
z
" style="fill: #ffffff"/>
  </g>
  <g id="axes_1">
   <g id="patch_2">
    <path d="M 57.6 307.584 
L 414.72 307.584 
L 414.72 41.472 
L 57.6 41.472 
z
" style="fill: #ffffff"/>
   </g>
   <g id="patch_3">
    <path d="M 73.832727 307.584 
L 77.361581 307.584 
L 77.361581 307.584 
L 73.832727 307.584 
z
" clip-path="url(#p5d8c2e92bd)" style="fill: #ff7f0e; fill-opacity: 0.5; stroke: #000000; stroke-width: 0.352885; stroke-linejoin: miter"/>
   </g>
   <g id="patch_4">
    <path d="M 77.361581 307.584 
L 80.890435 307.584 
L 80.890435 307.584 
L 77.361581 307.584 
z
" clip-path="url(#p5d8c2e92bd)" style="fill: #ff7f0e; fill-opacity: 0.5; stroke: #000000; stroke-width: 0.352885; stroke-linejoin: miter"/>
   </g>
   <g id="patch_5">
    <path d="M 80.890435 307.584 
L 84.419289 307.584 
L 84.419289 307.584 
L 80.890435 307.584 
z
" clip-path="url(#p5d8c2e92bd)" style="fill: #ff7f0e; fill-opacity: 0.5; stroke: #000000; stroke-width: 0.352885; stroke-linejoin: miter"/>
   </g>
   <g id="patch_6">
    <path d="M 84.419289 307.584 
L 87.948142 307.584 
L 87.948142 307.323259 
L 84.419289 307.323259 
z
" clip-path="url(#p5d8c2e92bd)" style="fill: #ff7f0e; fill-opacity: 0.5; stroke: #000000; stroke-width: 0.352885; stroke-linejoin: miter"/>
   </g>
   <g id="patch_7">
    <path d="M 87.948142 307.584 
L 91.476996 307.584 
L 91.476996 307.062519 
L 87.948142 307.062519 
z
" clip-path="url(#p5d8c2e92bd)" style="fill: #ff7f0e; fill-opacity: 0.5; stroke: #000000; stroke-width: 0.352885; stroke-linejoin: miter"/>
   </g>
   <g id="patch_8">
    <path d="M 91.476996 307.584 
L 95.00585 307.584 
L 95.00585 307.584 
L 91.476996 307.584 
z
" clip-path="url(#p5d8c2e92bd)" style="fill: #ff7f0e; fill-opacity: 0.5; stroke: #000000; stroke-width: 0.352885; stroke-linejoin: miter"/>
   </g>
   <g id="patch_9">
    <path d="M 95.00585 307.584 
L 98.534704 307.584 
L 98.534704 306.801778 
L 95.00585 306.801778 
z
" clip-path="url(#p5d8c2e92bd)" style="fill: #ff7f0e; fill-opacity: 0.5; stroke: #000000; stroke-width: 0.352885; stroke-linejoin: miter"/>
   </g>
   <g id="patch_10">
    <path d="M 98.534704 307.584 
L 102.063557 307.584 
L 102.063557 306.541037 
L 98.534704 306.541037 
z
" clip-path="url(#p5d8c2e92bd)" style="fill: #ff7f0e; fill-opacity: 0.5; stroke: #000000; stroke-width: 0.352885; stroke-linejoin: miter"/>
   </g>
   <g id="patch_11">
    <path d="M 102.063557 307.584 
L 105.592411 307.584 
L 105.592411 306.801778 
L 102.063557 306.801778 
z
" clip-path="url(#p5d8c2e92bd)" style="fill: #ff7f0e; fill-opacity: 0.5; stroke: #000000; stroke-width: 0.352885; stroke-linejoin: miter"/>
   </g>
   <g id="patch_12">
    <path d="M 105.592411 307.584 
L 109.121265 307.584 
L 109.121265 305.758815 
L 105.592411 305.758815 
z
" clip-path="url(#p5d8c2e92bd)" style="fill: #ff7f0e; fill-opacity: 0.5; stroke: #000000; stroke-width: 0.352885; stroke-linejoin: miter"/>
   </g>
   <g id="patch_13">
    <path d="M 109.121265 307.584 
L 112.650119 307.584 
L 112.650119 306.280296 
L 109.121265 306.280296 
z
" clip-path="url(#p5d8c2e92bd)" style="fill: #ff7f0e; fill-opacity: 0.5; stroke: #000000; stroke-width: 0.352885; stroke-linejoin: miter"/>
   </g>
   <g id="patch_14">
    <path d="M 112.650119 307.584 
L 116.178972 307.584 
L 116.178972 305.498074 
L 112.650119 305.498074 
z
" clip-path="url(#p5d8c2e92bd)" style="fill: #ff7f0e; fill-opacity: 0.5; stroke: #000000; stroke-width: 0.352885; stroke-linejoin: miter"/>
   </g>
   <g id="patch_15">
    <path d="M 116.178972 307.584 
L 119.707826 307.584 
L 119.707826 303.93363 
L 116.178972 303.93363 
z
" clip-path="url(#p5d8c2e92bd)" style="fill: #ff7f0e; fill-opacity: 0.5; stroke: #000000; stroke-width: 0.352885; stroke-linejoin: miter"/>
   </g>
   <g id="patch_16">
    <path d="M 119.707826 307.584 
L 123.23668 307.584 
L 123.23668 304.715852 
L 119.707826 304.715852 
z
" clip-path="url(#p5d8c2e92bd)" style="fill: #ff7f0e; fill-opacity: 0.5; stroke: #000000; stroke-width: 0.352885; stroke-linejoin: miter"/>
   </g>
   <g id="patch_17">
    <path d="M 123.23668 307.584 
L 126.765534 307.584 
L 126.765534 305.237333 
L 123.23668 305.237333 
z
" clip-path="url(#p5d8c2e92bd)" style="fill: #ff7f0e; fill-opacity: 0.5; stroke: #000000; stroke-width: 0.352885; stroke-linejoin: miter"/>
   </g>
   <g id="patch_18">
    <path d="M 126.765534 307.584 
L 130.294387 307.584 
L 130.294387 302.369185 
L 126.765534 302.369185 
z
" clip-path="url(#p5d8c2e92bd)" style="fill: #ff7f0e; fill-opacity: 0.5; stroke: #000000; stroke-width: 0.352885; stroke-linejoin: miter"/>
   </g>
   <g id="patch_19">
    <path d="M 130.294387 307.584 
L 133.823241 307.584 
L 133.823241 302.369185 
L 130.294387 302.369185 
z
" clip-path="url(#p5d8c2e92bd)" style="fill: #ff7f0e; fill-opacity: 0.5; stroke: #000000; stroke-width: 0.352885; stroke-linejoin: miter"/>
   </g>
   <g id="patch_20">
    <path d="M 133.823241 307.584 
L 137.352095 307.584 
L 137.352095 303.93363 
L 133.823241 303.93363 
z
" clip-path="url(#p5d8c2e92bd)" style="fill: #ff7f0e; fill-opacity: 0.5; stroke: #000000; stroke-width: 0.352885; stroke-linejoin: miter"/>
   </g>
   <g id="patch_21">
    <path d="M 137.352095 307.584 
L 140.880949 307.584 
L 140.880949 303.672889 
L 137.352095 303.672889 
z
" clip-path="url(#p5d8c2e92bd)" style="fill: #ff7f0e; fill-opacity: 0.5; stroke: #000000; stroke-width: 0.352885; stroke-linejoin: miter"/>
   </g>
   <g id="patch_22">
    <path d="M 140.880949 307.584 
L 144.409802 307.584 
L 144.409802 303.151407 
L 140.880949 303.151407 
z
" clip-path="url(#p5d8c2e92bd)" style="fill: #ff7f0e; fill-opacity: 0.5; stroke: #000000; stroke-width: 0.352885; stroke-linejoin: miter"/>
   </g>
   <g id="patch_23">
    <path d="M 144.409802 307.584 
L 147.938656 307.584 
L 147.938656 302.629926 
L 144.409802 302.629926 
z
" clip-path="url(#p5d8c2e92bd)" style="fill: #ff7f0e; fill-opacity: 0.5; stroke: #000000; stroke-width: 0.352885; stroke-linejoin: miter"/>
   </g>
   <g id="patch_24">
    <path d="M 147.938656 307.584 
L 151.46751 307.584 
L 151.46751 302.108444 
L 147.938656 302.108444 
z
" clip-path="url(#p5d8c2e92bd)" style="fill: #ff7f0e; fill-opacity: 0.5; stroke: #000000; stroke-width: 0.352885; stroke-linejoin: miter"/>
   </g>
   <g id="patch_25">
    <path d="M 151.46751 307.584 
L 154.996364 307.584 
L 154.996364 302.890667 
L 151.46751 302.890667 
z
" clip-path="url(#p5d8c2e92bd)" style="fill: #ff7f0e; fill-opacity: 0.5; stroke: #000000; stroke-width: 0.352885; stroke-linejoin: miter"/>
   </g>
   <g id="patch_26">
    <path d="M 154.996364 307.584 
L 158.525217 307.584 
L 158.525217 302.890667 
L 154.996364 302.890667 
z
" clip-path="url(#p5d8c2e92bd)" style="fill: #ff7f0e; fill-opacity: 0.5; stroke: #000000; stroke-width: 0.352885; stroke-linejoin: miter"/>
   </g>
   <g id="patch_27">
    <path d="M 158.525217 307.584 
L 162.054071 307.584 
L 162.054071 303.412148 
L 158.525217 303.412148 
z
" clip-path="url(#p5d8c2e92bd)" style="fill: #ff7f0e; fill-opacity: 0.5; stroke: #000000; stroke-width: 0.352885; stroke-linejoin: miter"/>
   </g>
   <g id="patch_28">
    <path d="M 162.054071 307.584 
L 165.582925 307.584 
L 165.582925 302.108444 
L 162.054071 302.108444 
z
" clip-path="url(#p5d8c2e92bd)" style="fill: #ff7f0e; fill-opacity: 0.5; stroke: #000000; stroke-width: 0.352885; stroke-linejoin: miter"/>
   </g>
   <g id="patch_29">
    <path d="M 165.582925 307.584 
L 169.111779 307.584 
L 169.111779 303.151407 
L 165.582925 303.151407 
z
" clip-path="url(#p5d8c2e92bd)" style="fill: #ff7f0e; fill-opacity: 0.5; stroke: #000000; stroke-width: 0.352885; stroke-linejoin: miter"/>
   </g>
   <g id="patch_30">
    <path d="M 169.111779 307.584 
L 172.640632 307.584 
L 172.640632 304.19437 
L 169.111779 304.19437 
z
" clip-path="url(#p5d8c2e92bd)" style="fill: #ff7f0e; fill-opacity: 0.5; stroke: #000000; stroke-width: 0.352885; stroke-linejoin: miter"/>
   </g>
   <g id="patch_31">
    <path d="M 172.640632 307.584 
L 176.169486 307.584 
L 176.169486 303.93363 
L 172.640632 303.93363 
z
" clip-path="url(#p5d8c2e92bd)" style="fill: #ff7f0e; fill-opacity: 0.5; stroke: #000000; stroke-width: 0.352885; stroke-linejoin: miter"/>
   </g>
   <g id="patch_32">
    <path d="M 176.169486 307.584 
L 179.69834 307.584 
L 179.69834 302.629926 
L 176.169486 302.629926 
z
" clip-path="url(#p5d8c2e92bd)" style="fill: #ff7f0e; fill-opacity: 0.5; stroke: #000000; stroke-width: 0.352885; stroke-linejoin: miter"/>
   </g>
   <g id="patch_33">
    <path d="M 179.69834 307.584 
L 183.227194 307.584 
L 183.227194 304.455111 
L 179.69834 304.455111 
z
" clip-path="url(#p5d8c2e92bd)" style="fill: #ff7f0e; fill-opacity: 0.5; stroke: #000000; stroke-width: 0.352885; stroke-linejoin: miter"/>
   </g>
   <g id="patch_34">
    <path d="M 183.227194 307.584 
L 186.756047 307.584 
L 186.756047 300.804741 
L 183.227194 300.804741 
z
" clip-path="url(#p5d8c2e92bd)" style="fill: #ff7f0e; fill-opacity: 0.5; stroke: #000000; stroke-width: 0.352885; stroke-linejoin: miter"/>
   </g>
   <g id="patch_35">
    <path d="M 186.756047 307.584 
L 190.284901 307.584 
L 190.284901 302.890667 
L 186.756047 302.890667 
z
" clip-path="url(#p5d8c2e92bd)" style="fill: #ff7f0e; fill-opacity: 0.5; stroke: #000000; stroke-width: 0.352885; stroke-linejoin: miter"/>
   </g>
   <g id="patch_36">
    <path d="M 190.284901 307.584 
L 193.813755 307.584 
L 193.813755 305.237333 
L 190.284901 305.237333 
z
" clip-path="url(#p5d8c2e92bd)" style="fill: #ff7f0e; fill-opacity: 0.5; stroke: #000000; stroke-width: 0.352885; stroke-linejoin: miter"/>
   </g>
   <g id="patch_37">
    <path d="M 193.813755 307.584 
L 197.342609 307.584 
L 197.342609 303.151407 
L 193.813755 303.151407 
z
" clip-path="url(#p5d8c2e92bd)" style="fill: #ff7f0e; fill-opacity: 0.5; stroke: #000000; stroke-width: 0.352885; stroke-linejoin: miter"/>
   </g>
   <g id="patch_38">
    <path d="M 197.342609 307.584 
L 200.871462 307.584 
L 200.871462 305.237333 
L 197.342609 305.237333 
z
" clip-path="url(#p5d8c2e92bd)" style="fill: #ff7f0e; fill-opacity: 0.5; stroke: #000000; stroke-width: 0.352885; stroke-linejoin: miter"/>
   </g>
   <g id="patch_39">
    <path d="M 200.871462 307.584 
L 204.400316 307.584 
L 204.400316 305.237333 
L 200.871462 305.237333 
z
" clip-path="url(#p5d8c2e92bd)" style="fill: #ff7f0e; fill-opacity: 0.5; stroke: #000000; stroke-width: 0.352885; stroke-linejoin: miter"/>
   </g>
   <g id="patch_40">
    <path d="M 204.400316 307.584 
L 207.92917 307.584 
L 207.92917 305.237333 
L 204.400316 305.237333 
z
" clip-path="url(#p5d8c2e92bd)" style="fill: #ff7f0e; fill-opacity: 0.5; stroke: #000000; stroke-width: 0.352885; stroke-linejoin: miter"/>
   </g>
   <g id="patch_41">
    <path d="M 207.92917 307.584 
L 211.458024 307.584 
L 211.458024 306.019556 
L 207.92917 306.019556 
z
" clip-path="url(#p5d8c2e92bd)" style="fill: #ff7f0e; fill-opacity: 0.5; stroke: #000000; stroke-width: 0.352885; stroke-linejoin: miter"/>
   </g>
   <g id="patch_42">
    <path d="M 211.458024 307.584 
L 214.986877 307.584 
L 214.986877 304.976593 
L 211.458024 304.976593 
z
" clip-path="url(#p5d8c2e92bd)" style="fill: #ff7f0e; fill-opacity: 0.5; stroke: #000000; stroke-width: 0.352885; stroke-linejoin: miter"/>
   </g>
   <g id="patch_43">
    <path d="M 214.986877 307.584 
L 218.515731 307.584 
L 218.515731 307.062519 
L 214.986877 307.062519 
z
" clip-path="url(#p5d8c2e92bd)" style="fill: #ff7f0e; fill-opacity: 0.5; stroke: #000000; stroke-width: 0.352885; stroke-linejoin: miter"/>
   </g>
   <g id="patch_44">
    <path d="M 218.515731 307.584 
L 222.044585 307.584 
L 222.044585 306.801778 
L 218.515731 306.801778 
z
" clip-path="url(#p5d8c2e92bd)" style="fill: #ff7f0e; fill-opacity: 0.5; stroke: #000000; stroke-width: 0.352885; stroke-linejoin: miter"/>
   </g>
   <g id="patch_45">
    <path d="M 222.044585 307.584 
L 225.573439 307.584 
L 225.573439 306.541037 
L 222.044585 306.541037 
z
" clip-path="url(#p5d8c2e92bd)" style="fill: #ff7f0e; fill-opacity: 0.5; stroke: #000000; stroke-width: 0.352885; stroke-linejoin: miter"/>
   </g>
   <g id="patch_46">
    <path d="M 225.573439 307.584 
L 229.102292 307.584 
L 229.102292 306.801778 
L 225.573439 306.801778 
z
" clip-path="url(#p5d8c2e92bd)" style="fill: #ff7f0e; fill-opacity: 0.5; stroke: #000000; stroke-width: 0.352885; stroke-linejoin: miter"/>
   </g>
   <g id="patch_47">
    <path d="M 229.102292 307.584 
L 232.631146 307.584 
L 232.631146 307.062519 
L 229.102292 307.062519 
z
" clip-path="url(#p5d8c2e92bd)" style="fill: #ff7f0e; fill-opacity: 0.5; stroke: #000000; stroke-width: 0.352885; stroke-linejoin: miter"/>
   </g>
   <g id="patch_48">
    <path d="M 232.631146 307.584 
L 236.16 307.584 
L 236.16 306.541037 
L 232.631146 306.541037 
z
" clip-path="url(#p5d8c2e92bd)" style="fill: #ff7f0e; fill-opacity: 0.5; stroke: #000000; stroke-width: 0.352885; stroke-linejoin: miter"/>
   </g>
   <g id="patch_49">
    <path d="M 236.16 307.584 
L 239.688854 307.584 
L 239.688854 306.280296 
L 236.16 306.280296 
z
" clip-path="url(#p5d8c2e92bd)" style="fill: #ff7f0e; fill-opacity: 0.5; stroke: #000000; stroke-width: 0.352885; stroke-linejoin: miter"/>
   </g>
   <g id="patch_50">
    <path d="M 239.688854 307.584 
L 243.217708 307.584 
L 243.217708 307.323259 
L 239.688854 307.323259 
z
" clip-path="url(#p5d8c2e92bd)" style="fill: #ff7f0e; fill-opacity: 0.5; stroke: #000000; stroke-width: 0.352885; stroke-linejoin: miter"/>
   </g>
   <g id="patch_51">
    <path d="M 243.217708 307.584 
L 246.746561 307.584 
L 246.746561 307.323259 
L 243.217708 307.323259 
z
" clip-path="url(#p5d8c2e92bd)" style="fill: #ff7f0e; fill-opacity: 0.5; stroke: #000000; stroke-width: 0.352885; stroke-linejoin: miter"/>
   </g>
   <g id="patch_52">
    <path d="M 246.746561 307.584 
L 250.275415 307.584 
L 250.275415 306.801778 
L 246.746561 306.801778 
z
" clip-path="url(#p5d8c2e92bd)" style="fill: #ff7f0e; fill-opacity: 0.5; stroke: #000000; stroke-width: 0.352885; stroke-linejoin: miter"/>
   </g>
   <g id="patch_53">
    <path d="M 250.275415 307.584 
L 253.804269 307.584 
L 253.804269 307.062519 
L 250.275415 307.062519 
z
" clip-path="url(#p5d8c2e92bd)" style="fill: #ff7f0e; fill-opacity: 0.5; stroke: #000000; stroke-width: 0.352885; stroke-linejoin: miter"/>
   </g>
   <g id="patch_54">
    <path d="M 253.804269 307.584 
L 257.333123 307.584 
L 257.333123 307.323259 
L 253.804269 307.323259 
z
" clip-path="url(#p5d8c2e92bd)" style="fill: #ff7f0e; fill-opacity: 0.5; stroke: #000000; stroke-width: 0.352885; stroke-linejoin: miter"/>
   </g>
   <g id="patch_55">
    <path d="M 257.333123 307.584 
L 260.861976 307.584 
L 260.861976 306.541037 
L 257.333123 306.541037 
z
" clip-path="url(#p5d8c2e92bd)" style="fill: #ff7f0e; fill-opacity: 0.5; stroke: #000000; stroke-width: 0.352885; stroke-linejoin: miter"/>
   </g>
   <g id="patch_56">
    <path d="M 260.861976 307.584 
L 264.39083 307.584 
L 264.39083 307.062519 
L 260.861976 307.062519 
z
" clip-path="url(#p5d8c2e92bd)" style="fill: #ff7f0e; fill-opacity: 0.5; stroke: #000000; stroke-width: 0.352885; stroke-linejoin: miter"/>
   </g>
   <g id="patch_57">
    <path d="M 264.39083 307.584 
L 267.919684 307.584 
L 267.919684 307.323259 
L 264.39083 307.323259 
z
" clip-path="url(#p5d8c2e92bd)" style="fill: #ff7f0e; fill-opacity: 0.5; stroke: #000000; stroke-width: 0.352885; stroke-linejoin: miter"/>
   </g>
   <g id="patch_58">
    <path d="M 267.919684 307.584 
L 271.448538 307.584 
L 271.448538 307.584 
L 267.919684 307.584 
z
" clip-path="url(#p5d8c2e92bd)" style="fill: #ff7f0e; fill-opacity: 0.5; stroke: #000000; stroke-width: 0.352885; stroke-linejoin: miter"/>
   </g>
   <g id="patch_59">
    <path d="M 271.448538 307.584 
L 274.977391 307.584 
L 274.977391 307.062519 
L 271.448538 307.062519 
z
" clip-path="url(#p5d8c2e92bd)" style="fill: #ff7f0e; fill-opacity: 0.5; stroke: #000000; stroke-width: 0.352885; stroke-linejoin: miter"/>
   </g>
   <g id="patch_60">
    <path d="M 274.977391 307.584 
L 278.506245 307.584 
L 278.506245 307.584 
L 274.977391 307.584 
z
" clip-path="url(#p5d8c2e92bd)" style="fill: #ff7f0e; fill-opacity: 0.5; stroke: #000000; stroke-width: 0.352885; stroke-linejoin: miter"/>
   </g>
   <g id="patch_61">
    <path d="M 278.506245 307.584 
L 282.035099 307.584 
L 282.035099 307.584 
L 278.506245 307.584 
z
" clip-path="url(#p5d8c2e92bd)" style="fill: #ff7f0e; fill-opacity: 0.5; stroke: #000000; stroke-width: 0.352885; stroke-linejoin: miter"/>
   </g>
   <g id="patch_62">
    <path d="M 282.035099 307.584 
L 285.563953 307.584 
L 285.563953 307.584 
L 282.035099 307.584 
z
" clip-path="url(#p5d8c2e92bd)" style="fill: #ff7f0e; fill-opacity: 0.5; stroke: #000000; stroke-width: 0.352885; stroke-linejoin: miter"/>
   </g>
   <g id="patch_63">
    <path d="M 285.563953 307.584 
L 289.092806 307.584 
L 289.092806 307.323259 
L 285.563953 307.323259 
z
" clip-path="url(#p5d8c2e92bd)" style="fill: #ff7f0e; fill-opacity: 0.5; stroke: #000000; stroke-width: 0.352885; stroke-linejoin: miter"/>
   </g>
   <g id="patch_64">
    <path d="M 289.092806 307.584 
L 292.62166 307.584 
L 292.62166 307.584 
L 289.092806 307.584 
z
" clip-path="url(#p5d8c2e92bd)" style="fill: #ff7f0e; fill-opacity: 0.5; stroke: #000000; stroke-width: 0.352885; stroke-linejoin: miter"/>
   </g>
   <g id="patch_65">
    <path d="M 292.62166 307.584 
L 296.150514 307.584 
L 296.150514 307.323259 
L 292.62166 307.323259 
z
" clip-path="url(#p5d8c2e92bd)" style="fill: #ff7f0e; fill-opacity: 0.5; stroke: #000000; stroke-width: 0.352885; stroke-linejoin: miter"/>
   </g>
   <g id="patch_66">
    <path d="M 296.150514 307.584 
L 299.679368 307.584 
L 299.679368 307.323259 
L 296.150514 307.323259 
z
" clip-path="url(#p5d8c2e92bd)" style="fill: #ff7f0e; fill-opacity: 0.5; stroke: #000000; stroke-width: 0.352885; stroke-linejoin: miter"/>
   </g>
   <g id="patch_67">
    <path d="M 299.679368 307.584 
L 303.208221 307.584 
L 303.208221 307.584 
L 299.679368 307.584 
z
" clip-path="url(#p5d8c2e92bd)" style="fill: #ff7f0e; fill-opacity: 0.5; stroke: #000000; stroke-width: 0.352885; stroke-linejoin: miter"/>
   </g>
   <g id="patch_68">
    <path d="M 303.208221 307.584 
L 306.737075 307.584 
L 306.737075 307.584 
L 303.208221 307.584 
z
" clip-path="url(#p5d8c2e92bd)" style="fill: #ff7f0e; fill-opacity: 0.5; stroke: #000000; stroke-width: 0.352885; stroke-linejoin: miter"/>
   </g>
   <g id="patch_69">
    <path d="M 306.737075 307.584 
L 310.265929 307.584 
L 310.265929 307.584 
L 306.737075 307.584 
z
" clip-path="url(#p5d8c2e92bd)" style="fill: #ff7f0e; fill-opacity: 0.5; stroke: #000000; stroke-width: 0.352885; stroke-linejoin: miter"/>
   </g>
   <g id="patch_70">
    <path d="M 310.265929 307.584 
L 313.794783 307.584 
L 313.794783 307.584 
L 310.265929 307.584 
z
" clip-path="url(#p5d8c2e92bd)" style="fill: #ff7f0e; fill-opacity: 0.5; stroke: #000000; stroke-width: 0.352885; stroke-linejoin: miter"/>
   </g>
   <g id="patch_71">
    <path d="M 313.794783 307.584 
L 317.323636 307.584 
L 317.323636 307.323259 
L 313.794783 307.323259 
z
" clip-path="url(#p5d8c2e92bd)" style="fill: #ff7f0e; fill-opacity: 0.5; stroke: #000000; stroke-width: 0.352885; stroke-linejoin: miter"/>
   </g>
   <g id="patch_72">
    <path d="M 317.323636 307.584 
L 320.85249 307.584 
L 320.85249 307.323259 
L 317.323636 307.323259 
z
" clip-path="url(#p5d8c2e92bd)" style="fill: #ff7f0e; fill-opacity: 0.5; stroke: #000000; stroke-width: 0.352885; stroke-linejoin: miter"/>
   </g>
   <g id="patch_73">
    <path d="M 320.85249 307.584 
L 324.381344 307.584 
L 324.381344 307.584 
L 320.85249 307.584 
z
" clip-path="url(#p5d8c2e92bd)" style="fill: #ff7f0e; fill-opacity: 0.5; stroke: #000000; stroke-width: 0.352885; stroke-linejoin: miter"/>
   </g>
   <g id="patch_74">
    <path d="M 324.381344 307.584 
L 327.910198 307.584 
L 327.910198 307.584 
L 324.381344 307.584 
z
" clip-path="url(#p5d8c2e92bd)" style="fill: #ff7f0e; fill-opacity: 0.5; stroke: #000000; stroke-width: 0.352885; stroke-linejoin: miter"/>
   </g>
   <g id="patch_75">
    <path d="M 327.910198 307.584 
L 331.439051 307.584 
L 331.439051 307.584 
L 327.910198 307.584 
z
" clip-path="url(#p5d8c2e92bd)" style="fill: #ff7f0e; fill-opacity: 0.5; stroke: #000000; stroke-width: 0.352885; stroke-linejoin: miter"/>
   </g>
   <g id="patch_76">
    <path d="M 331.439051 307.584 
L 334.967905 307.584 
L 334.967905 307.584 
L 331.439051 307.584 
z
" clip-path="url(#p5d8c2e92bd)" style="fill: #ff7f0e; fill-opacity: 0.5; stroke: #000000; stroke-width: 0.352885; stroke-linejoin: miter"/>
   </g>
   <g id="patch_77">
    <path d="M 334.967905 307.584 
L 338.496759 307.584 
L 338.496759 307.584 
L 334.967905 307.584 
z
" clip-path="url(#p5d8c2e92bd)" style="fill: #ff7f0e; fill-opacity: 0.5; stroke: #000000; stroke-width: 0.352885; stroke-linejoin: miter"/>
   </g>
   <g id="patch_78">
    <path d="M 338.496759 307.584 
L 342.025613 307.584 
L 342.025613 307.584 
L 338.496759 307.584 
z
" clip-path="url(#p5d8c2e92bd)" style="fill: #ff7f0e; fill-opacity: 0.5; stroke: #000000; stroke-width: 0.352885; stroke-linejoin: miter"/>
   </g>
   <g id="patch_79">
    <path d="M 342.025613 307.584 
L 345.554466 307.584 
L 345.554466 307.584 
L 342.025613 307.584 
z
" clip-path="url(#p5d8c2e92bd)" style="fill: #ff7f0e; fill-opacity: 0.5; stroke: #000000; stroke-width: 0.352885; stroke-linejoin: miter"/>
   </g>
   <g id="patch_80">
    <path d="M 345.554466 307.584 
L 349.08332 307.584 
L 349.08332 307.584 
L 345.554466 307.584 
z
" clip-path="url(#p5d8c2e92bd)" style="fill: #ff7f0e; fill-opacity: 0.5; stroke: #000000; stroke-width: 0.352885; stroke-linejoin: miter"/>
   </g>
   <g id="patch_81">
    <path d="M 349.08332 307.584 
L 352.612174 307.584 
L 352.612174 307.584 
L 349.08332 307.584 
z
" clip-path="url(#p5d8c2e92bd)" style="fill: #ff7f0e; fill-opacity: 0.5; stroke: #000000; stroke-width: 0.352885; stroke-linejoin: miter"/>
   </g>
   <g id="patch_82">
    <path d="M 352.612174 307.584 
L 356.141028 307.584 
L 356.141028 307.584 
L 352.612174 307.584 
z
" clip-path="url(#p5d8c2e92bd)" style="fill: #ff7f0e; fill-opacity: 0.5; stroke: #000000; stroke-width: 0.352885; stroke-linejoin: miter"/>
   </g>
   <g id="patch_83">
    <path d="M 356.141028 307.584 
L 359.669881 307.584 
L 359.669881 307.584 
L 356.141028 307.584 
z
" clip-path="url(#p5d8c2e92bd)" style="fill: #ff7f0e; fill-opacity: 0.5; stroke: #000000; stroke-width: 0.352885; stroke-linejoin: miter"/>
   </g>
   <g id="patch_84">
    <path d="M 359.669881 307.584 
L 363.198735 307.584 
L 363.198735 307.584 
L 359.669881 307.584 
z
" clip-path="url(#p5d8c2e92bd)" style="fill: #ff7f0e; fill-opacity: 0.5; stroke: #000000; stroke-width: 0.352885; stroke-linejoin: miter"/>
   </g>
   <g id="patch_85">
    <path d="M 363.198735 307.584 
L 366.727589 307.584 
L 366.727589 307.584 
L 363.198735 307.584 
z
" clip-path="url(#p5d8c2e92bd)" style="fill: #ff7f0e; fill-opacity: 0.5; stroke: #000000; stroke-width: 0.352885; stroke-linejoin: miter"/>
   </g>
   <g id="patch_86">
    <path d="M 366.727589 307.584 
L 370.256443 307.584 
L 370.256443 307.584 
L 366.727589 307.584 
z
" clip-path="url(#p5d8c2e92bd)" style="fill: #ff7f0e; fill-opacity: 0.5; stroke: #000000; stroke-width: 0.352885; stroke-linejoin: miter"/>
   </g>
   <g id="patch_87">
    <path d="M 370.256443 307.584 
L 373.785296 307.584 
L 373.785296 307.584 
L 370.256443 307.584 
z
" clip-path="url(#p5d8c2e92bd)" style="fill: #ff7f0e; fill-opacity: 0.5; stroke: #000000; stroke-width: 0.352885; stroke-linejoin: miter"/>
   </g>
   <g id="patch_88">
    <path d="M 373.785296 307.584 
L 377.31415 307.584 
L 377.31415 307.584 
L 373.785296 307.584 
z
" clip-path="url(#p5d8c2e92bd)" style="fill: #ff7f0e; fill-opacity: 0.5; stroke: #000000; stroke-width: 0.352885; stroke-linejoin: miter"/>
   </g>
   <g id="patch_89">
    <path d="M 377.31415 307.584 
L 380.843004 307.584 
L 380.843004 307.584 
L 377.31415 307.584 
z
" clip-path="url(#p5d8c2e92bd)" style="fill: #ff7f0e; fill-opacity: 0.5; stroke: #000000; stroke-width: 0.352885; stroke-linejoin: miter"/>
   </g>
   <g id="patch_90">
    <path d="M 380.843004 307.584 
L 384.371858 307.584 
L 384.371858 307.584 
L 380.843004 307.584 
z
" clip-path="url(#p5d8c2e92bd)" style="fill: #ff7f0e; fill-opacity: 0.5; stroke: #000000; stroke-width: 0.352885; stroke-linejoin: miter"/>
   </g>
   <g id="patch_91">
    <path d="M 384.371858 307.584 
L 387.900711 307.584 
L 387.900711 307.584 
L 384.371858 307.584 
z
" clip-path="url(#p5d8c2e92bd)" style="fill: #ff7f0e; fill-opacity: 0.5; stroke: #000000; stroke-width: 0.352885; stroke-linejoin: miter"/>
   </g>
   <g id="patch_92">
    <path d="M 387.900711 307.584 
L 391.429565 307.584 
L 391.429565 307.584 
L 387.900711 307.584 
z
" clip-path="url(#p5d8c2e92bd)" style="fill: #ff7f0e; fill-opacity: 0.5; stroke: #000000; stroke-width: 0.352885; stroke-linejoin: miter"/>
   </g>
   <g id="patch_93">
    <path d="M 391.429565 307.584 
L 394.958419 307.584 
L 394.958419 307.584 
L 391.429565 307.584 
z
" clip-path="url(#p5d8c2e92bd)" style="fill: #ff7f0e; fill-opacity: 0.5; stroke: #000000; stroke-width: 0.352885; stroke-linejoin: miter"/>
   </g>
   <g id="patch_94">
    <path d="M 394.958419 307.584 
L 398.487273 307.584 
L 398.487273 307.323259 
L 394.958419 307.323259 
z
" clip-path="url(#p5d8c2e92bd)" style="fill: #ff7f0e; fill-opacity: 0.5; stroke: #000000; stroke-width: 0.352885; stroke-linejoin: miter"/>
   </g>
   <g id="patch_95">
    <path d="M 73.832727 307.584 
L 77.361581 307.584 
L 77.361581 306.280296 
L 73.832727 306.280296 
z
" clip-path="url(#p5d8c2e92bd)" style="fill: #1f77b4; fill-opacity: 0.5; stroke: #000000; stroke-width: 0.352885; stroke-linejoin: miter"/>
   </g>
   <g id="patch_96">
    <path d="M 77.361581 307.584 
L 80.890435 307.584 
L 80.890435 305.498074 
L 77.361581 305.498074 
z
" clip-path="url(#p5d8c2e92bd)" style="fill: #1f77b4; fill-opacity: 0.5; stroke: #000000; stroke-width: 0.352885; stroke-linejoin: miter"/>
   </g>
   <g id="patch_97">
    <path d="M 80.890435 307.584 
L 84.419289 307.584 
L 84.419289 301.065481 
L 80.890435 301.065481 
z
" clip-path="url(#p5d8c2e92bd)" style="fill: #1f77b4; fill-opacity: 0.5; stroke: #000000; stroke-width: 0.352885; stroke-linejoin: miter"/>
   </g>
   <g id="patch_98">
    <path d="M 84.419289 307.584 
L 87.948142 307.584 
L 87.948142 297.675852 
L 84.419289 297.675852 
z
" clip-path="url(#p5d8c2e92bd)" style="fill: #1f77b4; fill-opacity: 0.5; stroke: #000000; stroke-width: 0.352885; stroke-linejoin: miter"/>
   </g>
   <g id="patch_99">
    <path d="M 87.948142 307.584 
L 91.476996 307.584 
L 91.476996 297.415111 
L 87.948142 297.415111 
z
" clip-path="url(#p5d8c2e92bd)" style="fill: #1f77b4; fill-opacity: 0.5; stroke: #000000; stroke-width: 0.352885; stroke-linejoin: miter"/>
   </g>
   <g id="patch_100">
    <path d="M 91.476996 307.584 
L 95.00585 307.584 
L 95.00585 288.289185 
L 91.476996 288.289185 
z
" clip-path="url(#p5d8c2e92bd)" style="fill: #1f77b4; fill-opacity: 0.5; stroke: #000000; stroke-width: 0.352885; stroke-linejoin: miter"/>
   </g>
   <g id="patch_101">
    <path d="M 95.00585 307.584 
L 98.534704 307.584 
L 98.534704 274.469926 
L 95.00585 274.469926 
z
" clip-path="url(#p5d8c2e92bd)" style="fill: #1f77b4; fill-opacity: 0.5; stroke: #000000; stroke-width: 0.352885; stroke-linejoin: miter"/>
   </g>
   <g id="patch_102">
    <path d="M 98.534704 307.584 
L 102.063557 307.584 
L 102.063557 261.432889 
L 98.534704 261.432889 
z
" clip-path="url(#p5d8c2e92bd)" style="fill: #1f77b4; fill-opacity: 0.5; stroke: #000000; stroke-width: 0.352885; stroke-linejoin: miter"/>
   </g>
   <g id="patch_103">
    <path d="M 102.063557 307.584 
L 105.592411 307.584 
L 105.592411 254.65363 
L 102.063557 254.65363 
z
" clip-path="url(#p5d8c2e92bd)" style="fill: #1f77b4; fill-opacity: 0.5; stroke: #000000; stroke-width: 0.352885; stroke-linejoin: miter"/>
   </g>
   <g id="patch_104">
    <path d="M 105.592411 307.584 
L 109.121265 307.584 
L 109.121265 231.186963 
L 105.592411 231.186963 
z
" clip-path="url(#p5d8c2e92bd)" style="fill: #1f77b4; fill-opacity: 0.5; stroke: #000000; stroke-width: 0.352885; stroke-linejoin: miter"/>
   </g>
   <g id="patch_105">
    <path d="M 109.121265 307.584 
L 112.650119 307.584 
L 112.650119 226.75437 
L 109.121265 226.75437 
z
" clip-path="url(#p5d8c2e92bd)" style="fill: #1f77b4; fill-opacity: 0.5; stroke: #000000; stroke-width: 0.352885; stroke-linejoin: miter"/>
   </g>
   <g id="patch_106">
    <path d="M 112.650119 307.584 
L 116.178972 307.584 
L 116.178972 205.63437 
L 112.650119 205.63437 
z
" clip-path="url(#p5d8c2e92bd)" style="fill: #1f77b4; fill-opacity: 0.5; stroke: #000000; stroke-width: 0.352885; stroke-linejoin: miter"/>
   </g>
   <g id="patch_107">
    <path d="M 116.178972 307.584 
L 119.707826 307.584 
L 119.707826 177.995852 
L 116.178972 177.995852 
z
" clip-path="url(#p5d8c2e92bd)" style="fill: #1f77b4; fill-opacity: 0.5; stroke: #000000; stroke-width: 0.352885; stroke-linejoin: miter"/>
   </g>
   <g id="patch_108">
    <path d="M 119.707826 307.584 
L 123.23668 307.584 
L 123.23668 154.789926 
L 119.707826 154.789926 
z
" clip-path="url(#p5d8c2e92bd)" style="fill: #1f77b4; fill-opacity: 0.5; stroke: #000000; stroke-width: 0.352885; stroke-linejoin: miter"/>
   </g>
   <g id="patch_109">
    <path d="M 123.23668 307.584 
L 126.765534 307.584 
L 126.765534 145.142519 
L 123.23668 145.142519 
z
" clip-path="url(#p5d8c2e92bd)" style="fill: #1f77b4; fill-opacity: 0.5; stroke: #000000; stroke-width: 0.352885; stroke-linejoin: miter"/>
   </g>
   <g id="patch_110">
    <path d="M 126.765534 307.584 
L 130.294387 307.584 
L 130.294387 139.406222 
L 126.765534 139.406222 
z
" clip-path="url(#p5d8c2e92bd)" style="fill: #1f77b4; fill-opacity: 0.5; stroke: #000000; stroke-width: 0.352885; stroke-linejoin: miter"/>
   </g>
   <g id="patch_111">
    <path d="M 130.294387 307.584 
L 133.823241 307.584 
L 133.823241 107.856593 
L 130.294387 107.856593 
z
" clip-path="url(#p5d8c2e92bd)" style="fill: #1f77b4; fill-opacity: 0.5; stroke: #000000; stroke-width: 0.352885; stroke-linejoin: miter"/>
   </g>
   <g id="patch_112">
    <path d="M 133.823241 307.584 
L 137.352095 307.584 
L 137.352095 101.598815 
L 133.823241 101.598815 
z
" clip-path="url(#p5d8c2e92bd)" style="fill: #1f77b4; fill-opacity: 0.5; stroke: #000000; stroke-width: 0.352885; stroke-linejoin: miter"/>
   </g>
   <g id="patch_113">
    <path d="M 137.352095 307.584 
L 140.880949 307.584 
L 140.880949 85.95437 
L 137.352095 85.95437 
z
" clip-path="url(#p5d8c2e92bd)" style="fill: #1f77b4; fill-opacity: 0.5; stroke: #000000; stroke-width: 0.352885; stroke-linejoin: miter"/>
   </g>
   <g id="patch_114">
    <path d="M 140.880949 307.584 
L 144.409802 307.584 
L 144.409802 79.435852 
L 140.880949 79.435852 
z
" clip-path="url(#p5d8c2e92bd)" style="fill: #1f77b4; fill-opacity: 0.5; stroke: #000000; stroke-width: 0.352885; stroke-linejoin: miter"/>
   </g>
   <g id="patch_115">
    <path d="M 144.409802 307.584 
L 147.938656 307.584 
L 147.938656 62.748444 
L 144.409802 62.748444 
z
" clip-path="url(#p5d8c2e92bd)" style="fill: #1f77b4; fill-opacity: 0.5; stroke: #000000; stroke-width: 0.352885; stroke-linejoin: miter"/>
   </g>
   <g id="patch_116">
    <path d="M 147.938656 307.584 
L 151.46751 307.584 
L 151.46751 72.656593 
L 147.938656 72.656593 
z
" clip-path="url(#p5d8c2e92bd)" style="fill: #1f77b4; fill-opacity: 0.5; stroke: #000000; stroke-width: 0.352885; stroke-linejoin: miter"/>
   </g>
   <g id="patch_117">
    <path d="M 151.46751 307.584 
L 154.996364 307.584 
L 154.996364 71.352889 
L 151.46751 71.352889 
z
" clip-path="url(#p5d8c2e92bd)" style="fill: #1f77b4; fill-opacity: 0.5; stroke: #000000; stroke-width: 0.352885; stroke-linejoin: miter"/>
   </g>
   <g id="patch_118">
    <path d="M 154.996364 307.584 
L 158.525217 307.584 
L 158.525217 66.138074 
L 154.996364 66.138074 
z
" clip-path="url(#p5d8c2e92bd)" style="fill: #1f77b4; fill-opacity: 0.5; stroke: #000000; stroke-width: 0.352885; stroke-linejoin: miter"/>
   </g>
   <g id="patch_119">
    <path d="M 158.525217 307.584 
L 162.054071 307.584 
L 162.054071 60.662519 
L 158.525217 60.662519 
z
" clip-path="url(#p5d8c2e92bd)" style="fill: #1f77b4; fill-opacity: 0.5; stroke: #000000; stroke-width: 0.352885; stroke-linejoin: miter"/>
   </g>
   <g id="patch_120">
    <path d="M 162.054071 307.584 
L 165.582925 307.584 
L 165.582925 54.144 
L 162.054071 54.144 
z
" clip-path="url(#p5d8c2e92bd)" style="fill: #1f77b4; fill-opacity: 0.5; stroke: #000000; stroke-width: 0.352885; stroke-linejoin: miter"/>
   </g>
   <g id="patch_121">
    <path d="M 165.582925 307.584 
L 169.111779 307.584 
L 169.111779 75.003259 
L 165.582925 75.003259 
z
" clip-path="url(#p5d8c2e92bd)" style="fill: #1f77b4; fill-opacity: 0.5; stroke: #000000; stroke-width: 0.352885; stroke-linejoin: miter"/>
   </g>
   <g id="patch_122">
    <path d="M 169.111779 307.584 
L 172.640632 307.584 
L 172.640632 77.349926 
L 169.111779 77.349926 
z
" clip-path="url(#p5d8c2e92bd)" style="fill: #1f77b4; fill-opacity: 0.5; stroke: #000000; stroke-width: 0.352885; stroke-linejoin: miter"/>
   </g>
   <g id="patch_123">
    <path d="M 172.640632 307.584 
L 176.169486 307.584 
L 176.169486 72.917333 
L 172.640632 72.917333 
z
" clip-path="url(#p5d8c2e92bd)" style="fill: #1f77b4; fill-opacity: 0.5; stroke: #000000; stroke-width: 0.352885; stroke-linejoin: miter"/>
   </g>
   <g id="patch_124">
    <path d="M 176.169486 307.584 
L 179.69834 307.584 
L 179.69834 103.684741 
L 176.169486 103.684741 
z
" clip-path="url(#p5d8c2e92bd)" style="fill: #1f77b4; fill-opacity: 0.5; stroke: #000000; stroke-width: 0.352885; stroke-linejoin: miter"/>
   </g>
   <g id="patch_125">
    <path d="M 179.69834 307.584 
L 183.227194 307.584 
L 183.227194 116.461037 
L 179.69834 116.461037 
z
" clip-path="url(#p5d8c2e92bd)" style="fill: #1f77b4; fill-opacity: 0.5; stroke: #000000; stroke-width: 0.352885; stroke-linejoin: miter"/>
   </g>
   <g id="patch_126">
    <path d="M 183.227194 307.584 
L 186.756047 307.584 
L 186.756047 121.936593 
L 183.227194 121.936593 
z
" clip-path="url(#p5d8c2e92bd)" style="fill: #1f77b4; fill-opacity: 0.5; stroke: #000000; stroke-width: 0.352885; stroke-linejoin: miter"/>
   </g>
   <g id="patch_127">
    <path d="M 186.756047 307.584 
L 190.284901 307.584 
L 190.284901 127.672889 
L 186.756047 127.672889 
z
" clip-path="url(#p5d8c2e92bd)" style="fill: #1f77b4; fill-opacity: 0.5; stroke: #000000; stroke-width: 0.352885; stroke-linejoin: miter"/>
   </g>
   <g id="patch_128">
    <path d="M 190.284901 307.584 
L 193.813755 307.584 
L 193.813755 144.099556 
L 190.284901 144.099556 
z
" clip-path="url(#p5d8c2e92bd)" style="fill: #1f77b4; fill-opacity: 0.5; stroke: #000000; stroke-width: 0.352885; stroke-linejoin: miter"/>
   </g>
   <g id="patch_129">
    <path d="M 193.813755 307.584 
L 197.342609 307.584 
L 197.342609 157.658074 
L 193.813755 157.658074 
z
" clip-path="url(#p5d8c2e92bd)" style="fill: #1f77b4; fill-opacity: 0.5; stroke: #000000; stroke-width: 0.352885; stroke-linejoin: miter"/>
   </g>
   <g id="patch_130">
    <path d="M 197.342609 307.584 
L 200.871462 307.584 
L 200.871462 156.875852 
L 197.342609 156.875852 
z
" clip-path="url(#p5d8c2e92bd)" style="fill: #1f77b4; fill-opacity: 0.5; stroke: #000000; stroke-width: 0.352885; stroke-linejoin: miter"/>
   </g>
   <g id="patch_131">
    <path d="M 200.871462 307.584 
L 204.400316 307.584 
L 204.400316 174.606222 
L 200.871462 174.606222 
z
" clip-path="url(#p5d8c2e92bd)" style="fill: #1f77b4; fill-opacity: 0.5; stroke: #000000; stroke-width: 0.352885; stroke-linejoin: miter"/>
   </g>
   <g id="patch_132">
    <path d="M 204.400316 307.584 
L 207.92917 307.584 
L 207.92917 183.732148 
L 204.400316 183.732148 
z
" clip-path="url(#p5d8c2e92bd)" style="fill: #1f77b4; fill-opacity: 0.5; stroke: #000000; stroke-width: 0.352885; stroke-linejoin: miter"/>
   </g>
   <g id="patch_133">
    <path d="M 207.92917 307.584 
L 211.458024 307.584 
L 211.458024 201.201778 
L 207.92917 201.201778 
z
" clip-path="url(#p5d8c2e92bd)" style="fill: #1f77b4; fill-opacity: 0.5; stroke: #000000; stroke-width: 0.352885; stroke-linejoin: miter"/>
   </g>
   <g id="patch_134">
    <path d="M 211.458024 307.584 
L 214.986877 307.584 
L 214.986877 204.852148 
L 211.458024 204.852148 
z
" clip-path="url(#p5d8c2e92bd)" style="fill: #1f77b4; fill-opacity: 0.5; stroke: #000000; stroke-width: 0.352885; stroke-linejoin: miter"/>
   </g>
   <g id="patch_135">
    <path d="M 214.986877 307.584 
L 218.515731 307.584 
L 218.515731 219.71437 
L 214.986877 219.71437 
z
" clip-path="url(#p5d8c2e92bd)" style="fill: #1f77b4; fill-opacity: 0.5; stroke: #000000; stroke-width: 0.352885; stroke-linejoin: miter"/>
   </g>
   <g id="patch_136">
    <path d="M 218.515731 307.584 
L 222.044585 307.584 
L 222.044585 222.321778 
L 218.515731 222.321778 
z
" clip-path="url(#p5d8c2e92bd)" style="fill: #1f77b4; fill-opacity: 0.5; stroke: #000000; stroke-width: 0.352885; stroke-linejoin: miter"/>
   </g>
   <g id="patch_137">
    <path d="M 222.044585 307.584 
L 225.573439 307.584 
L 225.573439 236.141037 
L 222.044585 236.141037 
z
" clip-path="url(#p5d8c2e92bd)" style="fill: #1f77b4; fill-opacity: 0.5; stroke: #000000; stroke-width: 0.352885; stroke-linejoin: miter"/>
   </g>
   <g id="patch_138">
    <path d="M 225.573439 307.584 
L 229.102292 307.584 
L 229.102292 239.791407 
L 225.573439 239.791407 
z
" clip-path="url(#p5d8c2e92bd)" style="fill: #1f77b4; fill-opacity: 0.5; stroke: #000000; stroke-width: 0.352885; stroke-linejoin: miter"/>
   </g>
   <g id="patch_139">
    <path d="M 229.102292 307.584 
L 232.631146 307.584 
L 232.631146 246.831407 
L 229.102292 246.831407 
z
" clip-path="url(#p5d8c2e92bd)" style="fill: #1f77b4; fill-opacity: 0.5; stroke: #000000; stroke-width: 0.352885; stroke-linejoin: miter"/>
   </g>
   <g id="patch_140">
    <path d="M 232.631146 307.584 
L 236.16 307.584 
L 236.16 258.304 
L 232.631146 258.304 
z
" clip-path="url(#p5d8c2e92bd)" style="fill: #1f77b4; fill-opacity: 0.5; stroke: #000000; stroke-width: 0.352885; stroke-linejoin: miter"/>
   </g>
   <g id="patch_141">
    <path d="M 236.16 307.584 
L 239.688854 307.584 
L 239.688854 259.607704 
L 236.16 259.607704 
z
" clip-path="url(#p5d8c2e92bd)" style="fill: #1f77b4; fill-opacity: 0.5; stroke: #000000; stroke-width: 0.352885; stroke-linejoin: miter"/>
   </g>
   <g id="patch_142">
    <path d="M 239.688854 307.584 
L 243.217708 307.584 
L 243.217708 260.911407 
L 239.688854 260.911407 
z
" clip-path="url(#p5d8c2e92bd)" style="fill: #1f77b4; fill-opacity: 0.5; stroke: #000000; stroke-width: 0.352885; stroke-linejoin: miter"/>
   </g>
   <g id="patch_143">
    <path d="M 243.217708 307.584 
L 246.746561 307.584 
L 246.746561 267.169185 
L 243.217708 267.169185 
z
" clip-path="url(#p5d8c2e92bd)" style="fill: #1f77b4; fill-opacity: 0.5; stroke: #000000; stroke-width: 0.352885; stroke-linejoin: miter"/>
   </g>
   <g id="patch_144">
    <path d="M 246.746561 307.584 
L 250.275415 307.584 
L 250.275415 271.862519 
L 246.746561 271.862519 
z
" clip-path="url(#p5d8c2e92bd)" style="fill: #1f77b4; fill-opacity: 0.5; stroke: #000000; stroke-width: 0.352885; stroke-linejoin: miter"/>
   </g>
   <g id="patch_145">
    <path d="M 250.275415 307.584 
L 253.804269 307.584 
L 253.804269 274.209185 
L 250.275415 274.209185 
z
" clip-path="url(#p5d8c2e92bd)" style="fill: #1f77b4; fill-opacity: 0.5; stroke: #000000; stroke-width: 0.352885; stroke-linejoin: miter"/>
   </g>
   <g id="patch_146">
    <path d="M 253.804269 307.584 
L 257.333123 307.584 
L 257.333123 276.555852 
L 253.804269 276.555852 
z
" clip-path="url(#p5d8c2e92bd)" style="fill: #1f77b4; fill-opacity: 0.5; stroke: #000000; stroke-width: 0.352885; stroke-linejoin: miter"/>
   </g>
   <g id="patch_147">
    <path d="M 257.333123 307.584 
L 260.861976 307.584 
L 260.861976 284.638815 
L 257.333123 284.638815 
z
" clip-path="url(#p5d8c2e92bd)" style="fill: #1f77b4; fill-opacity: 0.5; stroke: #000000; stroke-width: 0.352885; stroke-linejoin: miter"/>
   </g>
   <g id="patch_148">
    <path d="M 260.861976 307.584 
L 264.39083 307.584 
L 264.39083 289.332148 
L 260.861976 289.332148 
z
" clip-path="url(#p5d8c2e92bd)" style="fill: #1f77b4; fill-opacity: 0.5; stroke: #000000; stroke-width: 0.352885; stroke-linejoin: miter"/>
   </g>
   <g id="patch_149">
    <path d="M 264.39083 307.584 
L 267.919684 307.584 
L 267.919684 286.985481 
L 264.39083 286.985481 
z
" clip-path="url(#p5d8c2e92bd)" style="fill: #1f77b4; fill-opacity: 0.5; stroke: #000000; stroke-width: 0.352885; stroke-linejoin: miter"/>
   </g>
   <g id="patch_150">
    <path d="M 267.919684 307.584 
L 271.448538 307.584 
L 271.448538 293.504 
L 267.919684 293.504 
z
" clip-path="url(#p5d8c2e92bd)" style="fill: #1f77b4; fill-opacity: 0.5; stroke: #000000; stroke-width: 0.352885; stroke-linejoin: miter"/>
   </g>
   <g id="patch_151">
    <path d="M 271.448538 307.584 
L 274.977391 307.584 
L 274.977391 291.418074 
L 271.448538 291.418074 
z
" clip-path="url(#p5d8c2e92bd)" style="fill: #1f77b4; fill-opacity: 0.5; stroke: #000000; stroke-width: 0.352885; stroke-linejoin: miter"/>
   </g>
   <g id="patch_152">
    <path d="M 274.977391 307.584 
L 278.506245 307.584 
L 278.506245 294.807704 
L 274.977391 294.807704 
z
" clip-path="url(#p5d8c2e92bd)" style="fill: #1f77b4; fill-opacity: 0.5; stroke: #000000; stroke-width: 0.352885; stroke-linejoin: miter"/>
   </g>
   <g id="patch_153">
    <path d="M 278.506245 307.584 
L 282.035099 307.584 
L 282.035099 300.022519 
L 278.506245 300.022519 
z
" clip-path="url(#p5d8c2e92bd)" style="fill: #1f77b4; fill-opacity: 0.5; stroke: #000000; stroke-width: 0.352885; stroke-linejoin: miter"/>
   </g>
   <g id="patch_154">
    <path d="M 282.035099 307.584 
L 285.563953 307.584 
L 285.563953 296.632889 
L 282.035099 296.632889 
z
" clip-path="url(#p5d8c2e92bd)" style="fill: #1f77b4; fill-opacity: 0.5; stroke: #000000; stroke-width: 0.352885; stroke-linejoin: miter"/>
   </g>
   <g id="patch_155">
    <path d="M 285.563953 307.584 
L 289.092806 307.584 
L 289.092806 300.804741 
L 285.563953 300.804741 
z
" clip-path="url(#p5d8c2e92bd)" style="fill: #1f77b4; fill-opacity: 0.5; stroke: #000000; stroke-width: 0.352885; stroke-linejoin: miter"/>
   </g>
   <g id="patch_156">
    <path d="M 289.092806 307.584 
L 292.62166 307.584 
L 292.62166 301.326222 
L 289.092806 301.326222 
z
" clip-path="url(#p5d8c2e92bd)" style="fill: #1f77b4; fill-opacity: 0.5; stroke: #000000; stroke-width: 0.352885; stroke-linejoin: miter"/>
   </g>
   <g id="patch_157">
    <path d="M 292.62166 307.584 
L 296.150514 307.584 
L 296.150514 300.283259 
L 292.62166 300.283259 
z
" clip-path="url(#p5d8c2e92bd)" style="fill: #1f77b4; fill-opacity: 0.5; stroke: #000000; stroke-width: 0.352885; stroke-linejoin: miter"/>
   </g>
   <g id="patch_158">
    <path d="M 296.150514 307.584 
L 299.679368 307.584 
L 299.679368 304.455111 
L 296.150514 304.455111 
z
" clip-path="url(#p5d8c2e92bd)" style="fill: #1f77b4; fill-opacity: 0.5; stroke: #000000; stroke-width: 0.352885; stroke-linejoin: miter"/>
   </g>
   <g id="patch_159">
    <path d="M 299.679368 307.584 
L 303.208221 307.584 
L 303.208221 303.412148 
L 299.679368 303.412148 
z
" clip-path="url(#p5d8c2e92bd)" style="fill: #1f77b4; fill-opacity: 0.5; stroke: #000000; stroke-width: 0.352885; stroke-linejoin: miter"/>
   </g>
   <g id="patch_160">
    <path d="M 303.208221 307.584 
L 306.737075 307.584 
L 306.737075 304.715852 
L 303.208221 304.715852 
z
" clip-path="url(#p5d8c2e92bd)" style="fill: #1f77b4; fill-opacity: 0.5; stroke: #000000; stroke-width: 0.352885; stroke-linejoin: miter"/>
   </g>
   <g id="patch_161">
    <path d="M 306.737075 307.584 
L 310.265929 307.584 
L 310.265929 304.976593 
L 306.737075 304.976593 
z
" clip-path="url(#p5d8c2e92bd)" style="fill: #1f77b4; fill-opacity: 0.5; stroke: #000000; stroke-width: 0.352885; stroke-linejoin: miter"/>
   </g>
   <g id="patch_162">
    <path d="M 310.265929 307.584 
L 313.794783 307.584 
L 313.794783 302.369185 
L 310.265929 302.369185 
z
" clip-path="url(#p5d8c2e92bd)" style="fill: #1f77b4; fill-opacity: 0.5; stroke: #000000; stroke-width: 0.352885; stroke-linejoin: miter"/>
   </g>
   <g id="patch_163">
    <path d="M 313.794783 307.584 
L 317.323636 307.584 
L 317.323636 305.758815 
L 313.794783 305.758815 
z
" clip-path="url(#p5d8c2e92bd)" style="fill: #1f77b4; fill-opacity: 0.5; stroke: #000000; stroke-width: 0.352885; stroke-linejoin: miter"/>
   </g>
   <g id="patch_164">
    <path d="M 317.323636 307.584 
L 320.85249 307.584 
L 320.85249 307.062519 
L 317.323636 307.062519 
z
" clip-path="url(#p5d8c2e92bd)" style="fill: #1f77b4; fill-opacity: 0.5; stroke: #000000; stroke-width: 0.352885; stroke-linejoin: miter"/>
   </g>
   <g id="patch_165">
    <path d="M 320.85249 307.584 
L 324.381344 307.584 
L 324.381344 306.280296 
L 320.85249 306.280296 
z
" clip-path="url(#p5d8c2e92bd)" style="fill: #1f77b4; fill-opacity: 0.5; stroke: #000000; stroke-width: 0.352885; stroke-linejoin: miter"/>
   </g>
   <g id="patch_166">
    <path d="M 324.381344 307.584 
L 327.910198 307.584 
L 327.910198 306.280296 
L 324.381344 306.280296 
z
" clip-path="url(#p5d8c2e92bd)" style="fill: #1f77b4; fill-opacity: 0.5; stroke: #000000; stroke-width: 0.352885; stroke-linejoin: miter"/>
   </g>
   <g id="patch_167">
    <path d="M 327.910198 307.584 
L 331.439051 307.584 
L 331.439051 304.976593 
L 327.910198 304.976593 
z
" clip-path="url(#p5d8c2e92bd)" style="fill: #1f77b4; fill-opacity: 0.5; stroke: #000000; stroke-width: 0.352885; stroke-linejoin: miter"/>
   </g>
   <g id="patch_168">
    <path d="M 331.439051 307.584 
L 334.967905 307.584 
L 334.967905 306.801778 
L 331.439051 306.801778 
z
" clip-path="url(#p5d8c2e92bd)" style="fill: #1f77b4; fill-opacity: 0.5; stroke: #000000; stroke-width: 0.352885; stroke-linejoin: miter"/>
   </g>
   <g id="patch_169">
    <path d="M 334.967905 307.584 
L 338.496759 307.584 
L 338.496759 306.541037 
L 334.967905 306.541037 
z
" clip-path="url(#p5d8c2e92bd)" style="fill: #1f77b4; fill-opacity: 0.5; stroke: #000000; stroke-width: 0.352885; stroke-linejoin: miter"/>
   </g>
   <g id="patch_170">
    <path d="M 338.496759 307.584 
L 342.025613 307.584 
L 342.025613 306.801778 
L 338.496759 306.801778 
z
" clip-path="url(#p5d8c2e92bd)" style="fill: #1f77b4; fill-opacity: 0.5; stroke: #000000; stroke-width: 0.352885; stroke-linejoin: miter"/>
   </g>
   <g id="patch_171">
    <path d="M 342.025613 307.584 
L 345.554466 307.584 
L 345.554466 307.584 
L 342.025613 307.584 
z
" clip-path="url(#p5d8c2e92bd)" style="fill: #1f77b4; fill-opacity: 0.5; stroke: #000000; stroke-width: 0.352885; stroke-linejoin: miter"/>
   </g>
   <g id="patch_172">
    <path d="M 345.554466 307.584 
L 349.08332 307.584 
L 349.08332 306.280296 
L 345.554466 306.280296 
z
" clip-path="url(#p5d8c2e92bd)" style="fill: #1f77b4; fill-opacity: 0.5; stroke: #000000; stroke-width: 0.352885; stroke-linejoin: miter"/>
   </g>
   <g id="patch_173">
    <path d="M 349.08332 307.584 
L 352.612174 307.584 
L 352.612174 307.062519 
L 349.08332 307.062519 
z
" clip-path="url(#p5d8c2e92bd)" style="fill: #1f77b4; fill-opacity: 0.5; stroke: #000000; stroke-width: 0.352885; stroke-linejoin: miter"/>
   </g>
   <g id="patch_174">
    <path d="M 352.612174 307.584 
L 356.141028 307.584 
L 356.141028 307.584 
L 352.612174 307.584 
z
" clip-path="url(#p5d8c2e92bd)" style="fill: #1f77b4; fill-opacity: 0.5; stroke: #000000; stroke-width: 0.352885; stroke-linejoin: miter"/>
   </g>
   <g id="patch_175">
    <path d="M 356.141028 307.584 
L 359.669881 307.584 
L 359.669881 307.062519 
L 356.141028 307.062519 
z
" clip-path="url(#p5d8c2e92bd)" style="fill: #1f77b4; fill-opacity: 0.5; stroke: #000000; stroke-width: 0.352885; stroke-linejoin: miter"/>
   </g>
   <g id="patch_176">
    <path d="M 359.669881 307.584 
L 363.198735 307.584 
L 363.198735 307.323259 
L 359.669881 307.323259 
z
" clip-path="url(#p5d8c2e92bd)" style="fill: #1f77b4; fill-opacity: 0.5; stroke: #000000; stroke-width: 0.352885; stroke-linejoin: miter"/>
   </g>
   <g id="patch_177">
    <path d="M 363.198735 307.584 
L 366.727589 307.584 
L 366.727589 307.323259 
L 363.198735 307.323259 
z
" clip-path="url(#p5d8c2e92bd)" style="fill: #1f77b4; fill-opacity: 0.5; stroke: #000000; stroke-width: 0.352885; stroke-linejoin: miter"/>
   </g>
   <g id="patch_178">
    <path d="M 366.727589 307.584 
L 370.256443 307.584 
L 370.256443 306.801778 
L 366.727589 306.801778 
z
" clip-path="url(#p5d8c2e92bd)" style="fill: #1f77b4; fill-opacity: 0.5; stroke: #000000; stroke-width: 0.352885; stroke-linejoin: miter"/>
   </g>
   <g id="patch_179">
    <path d="M 370.256443 307.584 
L 373.785296 307.584 
L 373.785296 307.584 
L 370.256443 307.584 
z
" clip-path="url(#p5d8c2e92bd)" style="fill: #1f77b4; fill-opacity: 0.5; stroke: #000000; stroke-width: 0.352885; stroke-linejoin: miter"/>
   </g>
   <g id="patch_180">
    <path d="M 373.785296 307.584 
L 377.31415 307.584 
L 377.31415 307.323259 
L 373.785296 307.323259 
z
" clip-path="url(#p5d8c2e92bd)" style="fill: #1f77b4; fill-opacity: 0.5; stroke: #000000; stroke-width: 0.352885; stroke-linejoin: miter"/>
   </g>
   <g id="patch_181">
    <path d="M 377.31415 307.584 
L 380.843004 307.584 
L 380.843004 307.323259 
L 377.31415 307.323259 
z
" clip-path="url(#p5d8c2e92bd)" style="fill: #1f77b4; fill-opacity: 0.5; stroke: #000000; stroke-width: 0.352885; stroke-linejoin: miter"/>
   </g>
   <g id="patch_182">
    <path d="M 380.843004 307.584 
L 384.371858 307.584 
L 384.371858 307.323259 
L 380.843004 307.323259 
z
" clip-path="url(#p5d8c2e92bd)" style="fill: #1f77b4; fill-opacity: 0.5; stroke: #000000; stroke-width: 0.352885; stroke-linejoin: miter"/>
   </g>
   <g id="patch_183">
    <path d="M 384.371858 307.584 
L 387.900711 307.584 
L 387.900711 307.584 
L 384.371858 307.584 
z
" clip-path="url(#p5d8c2e92bd)" style="fill: #1f77b4; fill-opacity: 0.5; stroke: #000000; stroke-width: 0.352885; stroke-linejoin: miter"/>
   </g>
   <g id="patch_184">
    <path d="M 387.900711 307.584 
L 391.429565 307.584 
L 391.429565 307.323259 
L 387.900711 307.323259 
z
" clip-path="url(#p5d8c2e92bd)" style="fill: #1f77b4; fill-opacity: 0.5; stroke: #000000; stroke-width: 0.352885; stroke-linejoin: miter"/>
   </g>
   <g id="patch_185">
    <path d="M 391.429565 307.584 
L 394.958419 307.584 
L 394.958419 307.584 
L 391.429565 307.584 
z
" clip-path="url(#p5d8c2e92bd)" style="fill: #1f77b4; fill-opacity: 0.5; stroke: #000000; stroke-width: 0.352885; stroke-linejoin: miter"/>
   </g>
   <g id="patch_186">
    <path d="M 394.958419 307.584 
L 398.487273 307.584 
L 398.487273 307.323259 
L 394.958419 307.323259 
z
" clip-path="url(#p5d8c2e92bd)" style="fill: #1f77b4; fill-opacity: 0.5; stroke: #000000; stroke-width: 0.352885; stroke-linejoin: miter"/>
   </g>
   <g id="matplotlib.axis_1">
    <g id="xtick_1">
     <g id="line2d_1">
      <defs>
       <path id="mb14db1323c" d="M 0 0 
L 0 3.5 
" style="stroke: #000000; stroke-width: 0.8"/>
      </defs>
      <g>
       <use xlink:href="#mb14db1323c" x="95.470594" y="307.584" style="stroke: #000000; stroke-width: 0.8"/>
      </g>
     </g>
     <g id="text_1">
      <!-- 0.0002 -->
      <g transform="translate(77.975281 322.182437) scale(0.1 -0.1)">
       <defs>
        <path id="DejaVuSans-30" d="M 2034 4250 
Q 1547 4250 1301 3770 
Q 1056 3291 1056 2328 
Q 1056 1369 1301 889 
Q 1547 409 2034 409 
Q 2525 409 2770 889 
Q 3016 1369 3016 2328 
Q 3016 3291 2770 3770 
Q 2525 4250 2034 4250 
z
M 2034 4750 
Q 2819 4750 3233 4129 
Q 3647 3509 3647 2328 
Q 3647 1150 3233 529 
Q 2819 -91 2034 -91 
Q 1250 -91 836 529 
Q 422 1150 422 2328 
Q 422 3509 836 4129 
Q 1250 4750 2034 4750 
z
" transform="scale(0.015625)"/>
        <path id="DejaVuSans-2e" d="M 684 794 
L 1344 794 
L 1344 0 
L 684 0 
L 684 794 
z
" transform="scale(0.015625)"/>
        <path id="DejaVuSans-32" d="M 1228 531 
L 3431 531 
L 3431 0 
L 469 0 
L 469 531 
Q 828 903 1448 1529 
Q 2069 2156 2228 2338 
Q 2531 2678 2651 2914 
Q 2772 3150 2772 3378 
Q 2772 3750 2511 3984 
Q 2250 4219 1831 4219 
Q 1534 4219 1204 4116 
Q 875 4013 500 3803 
L 500 4441 
Q 881 4594 1212 4672 
Q 1544 4750 1819 4750 
Q 2544 4750 2975 4387 
Q 3406 4025 3406 3419 
Q 3406 3131 3298 2873 
Q 3191 2616 2906 2266 
Q 2828 2175 2409 1742 
Q 1991 1309 1228 531 
z
" transform="scale(0.015625)"/>
       </defs>
       <use xlink:href="#DejaVuSans-30"/>
       <use xlink:href="#DejaVuSans-2e" x="63.623047"/>
       <use xlink:href="#DejaVuSans-30" x="95.410156"/>
       <use xlink:href="#DejaVuSans-30" x="159.033203"/>
       <use xlink:href="#DejaVuSans-30" x="222.65625"/>
       <use xlink:href="#DejaVuSans-32" x="286.279297"/>
      </g>
     </g>
    </g>
    <g id="xtick_2">
     <g id="line2d_2">
      <g>
       <use xlink:href="#mb14db1323c" x="157.827334" y="307.584" style="stroke: #000000; stroke-width: 0.8"/>
      </g>
     </g>
     <g id="text_2">
      <!-- 0.0004 -->
      <g transform="translate(140.332022 322.182437) scale(0.1 -0.1)">
       <defs>
        <path id="DejaVuSans-34" d="M 2419 4116 
L 825 1625 
L 2419 1625 
L 2419 4116 
z
M 2253 4666 
L 3047 4666 
L 3047 1625 
L 3713 1625 
L 3713 1100 
L 3047 1100 
L 3047 0 
L 2419 0 
L 2419 1100 
L 313 1100 
L 313 1709 
L 2253 4666 
z
" transform="scale(0.015625)"/>
       </defs>
       <use xlink:href="#DejaVuSans-30"/>
       <use xlink:href="#DejaVuSans-2e" x="63.623047"/>
       <use xlink:href="#DejaVuSans-30" x="95.410156"/>
       <use xlink:href="#DejaVuSans-30" x="159.033203"/>
       <use xlink:href="#DejaVuSans-30" x="222.65625"/>
       <use xlink:href="#DejaVuSans-34" x="286.279297"/>
      </g>
     </g>
    </g>
    <g id="xtick_3">
     <g id="line2d_3">
      <g>
       <use xlink:href="#mb14db1323c" x="220.184075" y="307.584" style="stroke: #000000; stroke-width: 0.8"/>
      </g>
     </g>
     <g id="text_3">
      <!-- 0.0006 -->
      <g transform="translate(202.688763 322.182437) scale(0.1 -0.1)">
       <defs>
        <path id="DejaVuSans-36" d="M 2113 2584 
Q 1688 2584 1439 2293 
Q 1191 2003 1191 1497 
Q 1191 994 1439 701 
Q 1688 409 2113 409 
Q 2538 409 2786 701 
Q 3034 994 3034 1497 
Q 3034 2003 2786 2293 
Q 2538 2584 2113 2584 
z
M 3366 4563 
L 3366 3988 
Q 3128 4100 2886 4159 
Q 2644 4219 2406 4219 
Q 1781 4219 1451 3797 
Q 1122 3375 1075 2522 
Q 1259 2794 1537 2939 
Q 1816 3084 2150 3084 
Q 2853 3084 3261 2657 
Q 3669 2231 3669 1497 
Q 3669 778 3244 343 
Q 2819 -91 2113 -91 
Q 1303 -91 875 529 
Q 447 1150 447 2328 
Q 447 3434 972 4092 
Q 1497 4750 2381 4750 
Q 2619 4750 2861 4703 
Q 3103 4656 3366 4563 
z
" transform="scale(0.015625)"/>
       </defs>
       <use xlink:href="#DejaVuSans-30"/>
       <use xlink:href="#DejaVuSans-2e" x="63.623047"/>
       <use xlink:href="#DejaVuSans-30" x="95.410156"/>
       <use xlink:href="#DejaVuSans-30" x="159.033203"/>
       <use xlink:href="#DejaVuSans-30" x="222.65625"/>
       <use xlink:href="#DejaVuSans-36" x="286.279297"/>
      </g>
     </g>
    </g>
    <g id="xtick_4">
     <g id="line2d_4">
      <g>
       <use xlink:href="#mb14db1323c" x="282.540816" y="307.584" style="stroke: #000000; stroke-width: 0.8"/>
      </g>
     </g>
     <g id="text_4">
      <!-- 0.0008 -->
      <g transform="translate(265.045503 322.182437) scale(0.1 -0.1)">
       <defs>
        <path id="DejaVuSans-38" d="M 2034 2216 
Q 1584 2216 1326 1975 
Q 1069 1734 1069 1313 
Q 1069 891 1326 650 
Q 1584 409 2034 409 
Q 2484 409 2743 651 
Q 3003 894 3003 1313 
Q 3003 1734 2745 1975 
Q 2488 2216 2034 2216 
z
M 1403 2484 
Q 997 2584 770 2862 
Q 544 3141 544 3541 
Q 544 4100 942 4425 
Q 1341 4750 2034 4750 
Q 2731 4750 3128 4425 
Q 3525 4100 3525 3541 
Q 3525 3141 3298 2862 
Q 3072 2584 2669 2484 
Q 3125 2378 3379 2068 
Q 3634 1759 3634 1313 
Q 3634 634 3220 271 
Q 2806 -91 2034 -91 
Q 1263 -91 848 271 
Q 434 634 434 1313 
Q 434 1759 690 2068 
Q 947 2378 1403 2484 
z
M 1172 3481 
Q 1172 3119 1398 2916 
Q 1625 2713 2034 2713 
Q 2441 2713 2670 2916 
Q 2900 3119 2900 3481 
Q 2900 3844 2670 4047 
Q 2441 4250 2034 4250 
Q 1625 4250 1398 4047 
Q 1172 3844 1172 3481 
z
" transform="scale(0.015625)"/>
       </defs>
       <use xlink:href="#DejaVuSans-30"/>
       <use xlink:href="#DejaVuSans-2e" x="63.623047"/>
       <use xlink:href="#DejaVuSans-30" x="95.410156"/>
       <use xlink:href="#DejaVuSans-30" x="159.033203"/>
       <use xlink:href="#DejaVuSans-30" x="222.65625"/>
       <use xlink:href="#DejaVuSans-38" x="286.279297"/>
      </g>
     </g>
    </g>
    <g id="xtick_5">
     <g id="line2d_5">
      <g>
       <use xlink:href="#mb14db1323c" x="344.897556" y="307.584" style="stroke: #000000; stroke-width: 0.8"/>
      </g>
     </g>
     <g id="text_5">
      <!-- 0.0010 -->
      <g transform="translate(327.402244 322.182437) scale(0.1 -0.1)">
       <defs>
        <path id="DejaVuSans-31" d="M 794 531 
L 1825 531 
L 1825 4091 
L 703 3866 
L 703 4441 
L 1819 4666 
L 2450 4666 
L 2450 531 
L 3481 531 
L 3481 0 
L 794 0 
L 794 531 
z
" transform="scale(0.015625)"/>
       </defs>
       <use xlink:href="#DejaVuSans-30"/>
       <use xlink:href="#DejaVuSans-2e" x="63.623047"/>
       <use xlink:href="#DejaVuSans-30" x="95.410156"/>
       <use xlink:href="#DejaVuSans-30" x="159.033203"/>
       <use xlink:href="#DejaVuSans-31" x="222.65625"/>
       <use xlink:href="#DejaVuSans-30" x="286.279297"/>
      </g>
     </g>
    </g>
    <g id="xtick_6">
     <g id="line2d_6">
      <g>
       <use xlink:href="#mb14db1323c" x="407.254297" y="307.584" style="stroke: #000000; stroke-width: 0.8"/>
      </g>
     </g>
     <g id="text_6">
      <!-- 0.0012 -->
      <g transform="translate(389.758984 322.182437) scale(0.1 -0.1)">
       <use xlink:href="#DejaVuSans-30"/>
       <use xlink:href="#DejaVuSans-2e" x="63.623047"/>
       <use xlink:href="#DejaVuSans-30" x="95.410156"/>
       <use xlink:href="#DejaVuSans-30" x="159.033203"/>
       <use xlink:href="#DejaVuSans-31" x="222.65625"/>
       <use xlink:href="#DejaVuSans-32" x="286.279297"/>
      </g>
     </g>
    </g>
   </g>
   <g id="matplotlib.axis_2">
    <g id="ytick_1">
     <g id="line2d_7">
      <defs>
       <path id="m57b9b65fb9" d="M 0 0 
L -3.5 0 
" style="stroke: #000000; stroke-width: 0.8"/>
      </defs>
      <g>
       <use xlink:href="#m57b9b65fb9" x="57.6" y="307.584" style="stroke: #000000; stroke-width: 0.8"/>
      </g>
     </g>
     <g id="text_7">
      <!-- 0 -->
      <g transform="translate(44.2375 311.383219) scale(0.1 -0.1)">
       <use xlink:href="#DejaVuSans-30"/>
      </g>
     </g>
    </g>
    <g id="ytick_2">
     <g id="line2d_8">
      <g>
       <use xlink:href="#m57b9b65fb9" x="57.6" y="255.435852" style="stroke: #000000; stroke-width: 0.8"/>
      </g>
     </g>
     <g id="text_8">
      <!-- 200 -->
      <g transform="translate(31.5125 259.235071) scale(0.1 -0.1)">
       <use xlink:href="#DejaVuSans-32"/>
       <use xlink:href="#DejaVuSans-30" x="63.623047"/>
       <use xlink:href="#DejaVuSans-30" x="127.246094"/>
      </g>
     </g>
    </g>
    <g id="ytick_3">
     <g id="line2d_9">
      <g>
       <use xlink:href="#m57b9b65fb9" x="57.6" y="203.287704" style="stroke: #000000; stroke-width: 0.8"/>
      </g>
     </g>
     <g id="text_9">
      <!-- 400 -->
      <g transform="translate(31.5125 207.086922) scale(0.1 -0.1)">
       <use xlink:href="#DejaVuSans-34"/>
       <use xlink:href="#DejaVuSans-30" x="63.623047"/>
       <use xlink:href="#DejaVuSans-30" x="127.246094"/>
      </g>
     </g>
    </g>
    <g id="ytick_4">
     <g id="line2d_10">
      <g>
       <use xlink:href="#m57b9b65fb9" x="57.6" y="151.139556" style="stroke: #000000; stroke-width: 0.8"/>
      </g>
     </g>
     <g id="text_10">
      <!-- 600 -->
      <g transform="translate(31.5125 154.938774) scale(0.1 -0.1)">
       <use xlink:href="#DejaVuSans-36"/>
       <use xlink:href="#DejaVuSans-30" x="63.623047"/>
       <use xlink:href="#DejaVuSans-30" x="127.246094"/>
      </g>
     </g>
    </g>
    <g id="ytick_5">
     <g id="line2d_11">
      <g>
       <use xlink:href="#m57b9b65fb9" x="57.6" y="98.991407" style="stroke: #000000; stroke-width: 0.8"/>
      </g>
     </g>
     <g id="text_11">
      <!-- 800 -->
      <g transform="translate(31.5125 102.790626) scale(0.1 -0.1)">
       <use xlink:href="#DejaVuSans-38"/>
       <use xlink:href="#DejaVuSans-30" x="63.623047"/>
       <use xlink:href="#DejaVuSans-30" x="127.246094"/>
      </g>
     </g>
    </g>
    <g id="ytick_6">
     <g id="line2d_12">
      <g>
       <use xlink:href="#m57b9b65fb9" x="57.6" y="46.843259" style="stroke: #000000; stroke-width: 0.8"/>
      </g>
     </g>
     <g id="text_12">
      <!-- 1000 -->
      <g transform="translate(25.15 50.642478) scale(0.1 -0.1)">
       <use xlink:href="#DejaVuSans-31"/>
       <use xlink:href="#DejaVuSans-30" x="63.623047"/>
       <use xlink:href="#DejaVuSans-30" x="127.246094"/>
       <use xlink:href="#DejaVuSans-30" x="190.869141"/>
      </g>
     </g>
    </g>
    <g id="text_13">
     <!-- Count -->
     <g transform="translate(19.070312 189.376437) rotate(-90) scale(0.1 -0.1)">
      <defs>
       <path id="DejaVuSans-43" d="M 4122 4306 
L 4122 3641 
Q 3803 3938 3442 4084 
Q 3081 4231 2675 4231 
Q 1875 4231 1450 3742 
Q 1025 3253 1025 2328 
Q 1025 1406 1450 917 
Q 1875 428 2675 428 
Q 3081 428 3442 575 
Q 3803 722 4122 1019 
L 4122 359 
Q 3791 134 3420 21 
Q 3050 -91 2638 -91 
Q 1578 -91 968 557 
Q 359 1206 359 2328 
Q 359 3453 968 4101 
Q 1578 4750 2638 4750 
Q 3056 4750 3426 4639 
Q 3797 4528 4122 4306 
z
" transform="scale(0.015625)"/>
       <path id="DejaVuSans-6f" d="M 1959 3097 
Q 1497 3097 1228 2736 
Q 959 2375 959 1747 
Q 959 1119 1226 758 
Q 1494 397 1959 397 
Q 2419 397 2687 759 
Q 2956 1122 2956 1747 
Q 2956 2369 2687 2733 
Q 2419 3097 1959 3097 
z
M 1959 3584 
Q 2709 3584 3137 3096 
Q 3566 2609 3566 1747 
Q 3566 888 3137 398 
Q 2709 -91 1959 -91 
Q 1206 -91 779 398 
Q 353 888 353 1747 
Q 353 2609 779 3096 
Q 1206 3584 1959 3584 
z
" transform="scale(0.015625)"/>
       <path id="DejaVuSans-75" d="M 544 1381 
L 544 3500 
L 1119 3500 
L 1119 1403 
Q 1119 906 1312 657 
Q 1506 409 1894 409 
Q 2359 409 2629 706 
Q 2900 1003 2900 1516 
L 2900 3500 
L 3475 3500 
L 3475 0 
L 2900 0 
L 2900 538 
Q 2691 219 2414 64 
Q 2138 -91 1772 -91 
Q 1169 -91 856 284 
Q 544 659 544 1381 
z
M 1991 3584 
L 1991 3584 
z
" transform="scale(0.015625)"/>
       <path id="DejaVuSans-6e" d="M 3513 2113 
L 3513 0 
L 2938 0 
L 2938 2094 
Q 2938 2591 2744 2837 
Q 2550 3084 2163 3084 
Q 1697 3084 1428 2787 
Q 1159 2491 1159 1978 
L 1159 0 
L 581 0 
L 581 3500 
L 1159 3500 
L 1159 2956 
Q 1366 3272 1645 3428 
Q 1925 3584 2291 3584 
Q 2894 3584 3203 3211 
Q 3513 2838 3513 2113 
z
" transform="scale(0.015625)"/>
       <path id="DejaVuSans-74" d="M 1172 4494 
L 1172 3500 
L 2356 3500 
L 2356 3053 
L 1172 3053 
L 1172 1153 
Q 1172 725 1289 603 
Q 1406 481 1766 481 
L 2356 481 
L 2356 0 
L 1766 0 
Q 1100 0 847 248 
Q 594 497 594 1153 
L 594 3053 
L 172 3053 
L 172 3500 
L 594 3500 
L 594 4494 
L 1172 4494 
z
" transform="scale(0.015625)"/>
      </defs>
      <use xlink:href="#DejaVuSans-43"/>
      <use xlink:href="#DejaVuSans-6f" x="69.824219"/>
      <use xlink:href="#DejaVuSans-75" x="131.005859"/>
      <use xlink:href="#DejaVuSans-6e" x="194.384766"/>
      <use xlink:href="#DejaVuSans-74" x="257.763672"/>
     </g>
    </g>
   </g>
   <g id="line2d_13">
    <path d="M 73.832727 307.515954 
L 85.252736 307.287167 
L 95.041316 306.854728 
L 103.198465 306.288658 
L 112.987044 305.379185 
L 129.301343 303.803362 
L 137.458492 303.301756 
L 145.615642 303.04744 
L 153.772791 303.000303 
L 168.45566 303.203786 
L 184.769959 303.550966 
L 191.295678 303.941541 
L 201.084258 304.809395 
L 212.504267 305.791603 
L 222.292846 306.379343 
L 232.081425 306.717336 
L 246.764294 306.967422 
L 297.33862 307.478015 
L 398.487273 307.553299 
L 398.487273 307.553299 
" clip-path="url(#p5d8c2e92bd)" style="fill: none; stroke: #ff7f0e; stroke-width: 1.5; stroke-linecap: square"/>
   </g>
   <g id="line2d_14">
    <path d="M 73.832727 306.33481 
L 75.464157 305.750435 
L 77.095587 304.997181 
L 78.727017 304.066819 
L 80.358447 302.961189 
L 81.989877 301.684954 
L 83.621307 300.230515 
L 85.252736 298.560419 
L 86.884166 296.597572 
L 88.515596 294.23308 
L 90.147026 291.353922 
L 91.778456 287.881318 
L 93.409886 283.802467 
L 95.041316 279.17907 
L 98.304175 268.772158 
L 101.567035 257.488829 
L 104.829895 245.446686 
L 108.092755 232.162877 
L 109.724185 224.856368 
L 112.987044 208.656493 
L 121.144194 164.389326 
L 124.407053 148.945146 
L 129.301343 127.628833 
L 132.564203 113.960467 
L 135.827063 101.356993 
L 137.458492 95.612677 
L 139.089922 90.277835 
L 140.721352 85.401526 
L 142.352782 81.075327 
L 143.984212 77.414235 
L 145.615642 74.502555 
L 147.247072 72.332431 
L 148.878502 70.772979 
L 152.141361 68.544735 
L 155.404221 66.227055 
L 157.035651 65.017307 
L 158.667081 64.029041 
L 160.298511 63.519846 
L 161.929941 63.70001 
L 163.56137 64.673203 
L 165.1928 66.42612 
L 166.82423 68.868824 
L 168.45566 71.901069 
L 170.08709 75.464694 
L 171.71852 79.550719 
L 173.34995 84.158925 
L 176.61281 94.658845 
L 181.507099 111.024204 
L 184.769959 121.021371 
L 196.189968 154.500034 
L 199.452828 164.225371 
L 202.715688 174.529025 
L 209.241407 195.522357 
L 212.504267 204.93522 
L 215.767127 213.471802 
L 220.661416 225.505278 
L 223.924276 233.143491 
L 227.187136 240.239611 
L 230.449995 246.764198 
L 233.712855 252.652262 
L 235.344285 255.268691 
L 236.975715 257.633133 
L 238.607145 259.762887 
L 241.870005 263.539155 
L 254.921444 277.746055 
L 259.815733 283.480915 
L 261.447163 285.190037 
L 263.078593 286.721289 
L 264.710023 288.066481 
L 266.341453 289.23874 
L 269.604312 291.188625 
L 282.655751 298.032964 
L 285.918611 299.254554 
L 295.70719 302.37646 
L 298.97005 303.271623 
L 302.23291 303.870771 
L 305.49577 304.183684 
L 312.021489 304.650267 
L 316.915779 305.467235 
L 320.178639 305.92438 
L 323.441498 306.09051 
L 331.598648 306.254637 
L 343.018657 306.925457 
L 359.332956 307.19155 
L 374.015825 307.311276 
L 398.487273 307.503983 
L 398.487273 307.503983 
" clip-path="url(#p5d8c2e92bd)" style="fill: none; stroke: #1f77b4; stroke-width: 1.5; stroke-linecap: square"/>
   </g>
   <g id="patch_187">
    <path d="M 57.6 307.584 
L 57.6 41.472 
" style="fill: none; stroke: #000000; stroke-width: 0.8; stroke-linejoin: miter; stroke-linecap: square"/>
   </g>
   <g id="patch_188">
    <path d="M 414.72 307.584 
L 414.72 41.472 
" style="fill: none; stroke: #000000; stroke-width: 0.8; stroke-linejoin: miter; stroke-linecap: square"/>
   </g>
   <g id="patch_189">
    <path d="M 57.6 307.584 
L 414.72 307.584 
" style="fill: none; stroke: #000000; stroke-width: 0.8; stroke-linejoin: miter; stroke-linecap: square"/>
   </g>
   <g id="patch_190">
    <path d="M 57.6 41.472 
L 414.72 41.472 
" style="fill: none; stroke: #000000; stroke-width: 0.8; stroke-linejoin: miter; stroke-linecap: square"/>
   </g>
   <g id="legend_1">
    <g id="patch_191">
     <path d="M 264.384063 79.3845 
L 407.72 79.3845 
Q 409.72 79.3845 409.72 77.3845 
L 409.72 48.472 
Q 409.72 46.472 407.72 46.472 
L 264.384063 46.472 
Q 262.384063 46.472 262.384063 48.472 
L 262.384063 77.3845 
Q 262.384063 79.3845 264.384063 79.3845 
z
" style="fill: #ffffff; opacity: 0.8; stroke: #cccccc; stroke-linejoin: miter"/>
    </g>
    <g id="patch_192">
     <path d="M 266.384063 58.070438 
L 286.384063 58.070438 
L 286.384063 51.070438 
L 266.384063 51.070438 
z
" style="fill: #1f77b4; fill-opacity: 0.5; stroke: #000000; stroke-linejoin: miter"/>
    </g>
    <g id="text_14">
     <!-- padding_length = 384 -->
     <g transform="translate(294.384063 58.070438) scale(0.1 -0.1)">
      <defs>
       <path id="DejaVuSans-70" d="M 1159 525 
L 1159 -1331 
L 581 -1331 
L 581 3500 
L 1159 3500 
L 1159 2969 
Q 1341 3281 1617 3432 
Q 1894 3584 2278 3584 
Q 2916 3584 3314 3078 
Q 3713 2572 3713 1747 
Q 3713 922 3314 415 
Q 2916 -91 2278 -91 
Q 1894 -91 1617 61 
Q 1341 213 1159 525 
z
M 3116 1747 
Q 3116 2381 2855 2742 
Q 2594 3103 2138 3103 
Q 1681 3103 1420 2742 
Q 1159 2381 1159 1747 
Q 1159 1113 1420 752 
Q 1681 391 2138 391 
Q 2594 391 2855 752 
Q 3116 1113 3116 1747 
z
" transform="scale(0.015625)"/>
       <path id="DejaVuSans-61" d="M 2194 1759 
Q 1497 1759 1228 1600 
Q 959 1441 959 1056 
Q 959 750 1161 570 
Q 1363 391 1709 391 
Q 2188 391 2477 730 
Q 2766 1069 2766 1631 
L 2766 1759 
L 2194 1759 
z
M 3341 1997 
L 3341 0 
L 2766 0 
L 2766 531 
Q 2569 213 2275 61 
Q 1981 -91 1556 -91 
Q 1019 -91 701 211 
Q 384 513 384 1019 
Q 384 1609 779 1909 
Q 1175 2209 1959 2209 
L 2766 2209 
L 2766 2266 
Q 2766 2663 2505 2880 
Q 2244 3097 1772 3097 
Q 1472 3097 1187 3025 
Q 903 2953 641 2809 
L 641 3341 
Q 956 3463 1253 3523 
Q 1550 3584 1831 3584 
Q 2591 3584 2966 3190 
Q 3341 2797 3341 1997 
z
" transform="scale(0.015625)"/>
       <path id="DejaVuSans-64" d="M 2906 2969 
L 2906 4863 
L 3481 4863 
L 3481 0 
L 2906 0 
L 2906 525 
Q 2725 213 2448 61 
Q 2172 -91 1784 -91 
Q 1150 -91 751 415 
Q 353 922 353 1747 
Q 353 2572 751 3078 
Q 1150 3584 1784 3584 
Q 2172 3584 2448 3432 
Q 2725 3281 2906 2969 
z
M 947 1747 
Q 947 1113 1208 752 
Q 1469 391 1925 391 
Q 2381 391 2643 752 
Q 2906 1113 2906 1747 
Q 2906 2381 2643 2742 
Q 2381 3103 1925 3103 
Q 1469 3103 1208 2742 
Q 947 2381 947 1747 
z
" transform="scale(0.015625)"/>
       <path id="DejaVuSans-69" d="M 603 3500 
L 1178 3500 
L 1178 0 
L 603 0 
L 603 3500 
z
M 603 4863 
L 1178 4863 
L 1178 4134 
L 603 4134 
L 603 4863 
z
" transform="scale(0.015625)"/>
       <path id="DejaVuSans-67" d="M 2906 1791 
Q 2906 2416 2648 2759 
Q 2391 3103 1925 3103 
Q 1463 3103 1205 2759 
Q 947 2416 947 1791 
Q 947 1169 1205 825 
Q 1463 481 1925 481 
Q 2391 481 2648 825 
Q 2906 1169 2906 1791 
z
M 3481 434 
Q 3481 -459 3084 -895 
Q 2688 -1331 1869 -1331 
Q 1566 -1331 1297 -1286 
Q 1028 -1241 775 -1147 
L 775 -588 
Q 1028 -725 1275 -790 
Q 1522 -856 1778 -856 
Q 2344 -856 2625 -561 
Q 2906 -266 2906 331 
L 2906 616 
Q 2728 306 2450 153 
Q 2172 0 1784 0 
Q 1141 0 747 490 
Q 353 981 353 1791 
Q 353 2603 747 3093 
Q 1141 3584 1784 3584 
Q 2172 3584 2450 3431 
Q 2728 3278 2906 2969 
L 2906 3500 
L 3481 3500 
L 3481 434 
z
" transform="scale(0.015625)"/>
       <path id="DejaVuSans-5f" d="M 3263 -1063 
L 3263 -1509 
L -63 -1509 
L -63 -1063 
L 3263 -1063 
z
" transform="scale(0.015625)"/>
       <path id="DejaVuSans-6c" d="M 603 4863 
L 1178 4863 
L 1178 0 
L 603 0 
L 603 4863 
z
" transform="scale(0.015625)"/>
       <path id="DejaVuSans-65" d="M 3597 1894 
L 3597 1613 
L 953 1613 
Q 991 1019 1311 708 
Q 1631 397 2203 397 
Q 2534 397 2845 478 
Q 3156 559 3463 722 
L 3463 178 
Q 3153 47 2828 -22 
Q 2503 -91 2169 -91 
Q 1331 -91 842 396 
Q 353 884 353 1716 
Q 353 2575 817 3079 
Q 1281 3584 2069 3584 
Q 2775 3584 3186 3129 
Q 3597 2675 3597 1894 
z
M 3022 2063 
Q 3016 2534 2758 2815 
Q 2500 3097 2075 3097 
Q 1594 3097 1305 2825 
Q 1016 2553 972 2059 
L 3022 2063 
z
" transform="scale(0.015625)"/>
       <path id="DejaVuSans-68" d="M 3513 2113 
L 3513 0 
L 2938 0 
L 2938 2094 
Q 2938 2591 2744 2837 
Q 2550 3084 2163 3084 
Q 1697 3084 1428 2787 
Q 1159 2491 1159 1978 
L 1159 0 
L 581 0 
L 581 4863 
L 1159 4863 
L 1159 2956 
Q 1366 3272 1645 3428 
Q 1925 3584 2291 3584 
Q 2894 3584 3203 3211 
Q 3513 2838 3513 2113 
z
" transform="scale(0.015625)"/>
       <path id="DejaVuSans-20" transform="scale(0.015625)"/>
       <path id="DejaVuSans-3d" d="M 678 2906 
L 4684 2906 
L 4684 2381 
L 678 2381 
L 678 2906 
z
M 678 1631 
L 4684 1631 
L 4684 1100 
L 678 1100 
L 678 1631 
z
" transform="scale(0.015625)"/>
       <path id="DejaVuSans-33" d="M 2597 2516 
Q 3050 2419 3304 2112 
Q 3559 1806 3559 1356 
Q 3559 666 3084 287 
Q 2609 -91 1734 -91 
Q 1441 -91 1130 -33 
Q 819 25 488 141 
L 488 750 
Q 750 597 1062 519 
Q 1375 441 1716 441 
Q 2309 441 2620 675 
Q 2931 909 2931 1356 
Q 2931 1769 2642 2001 
Q 2353 2234 1838 2234 
L 1294 2234 
L 1294 2753 
L 1863 2753 
Q 2328 2753 2575 2939 
Q 2822 3125 2822 3475 
Q 2822 3834 2567 4026 
Q 2313 4219 1838 4219 
Q 1578 4219 1281 4162 
Q 984 4106 628 3988 
L 628 4550 
Q 988 4650 1302 4700 
Q 1616 4750 1894 4750 
Q 2613 4750 3031 4423 
Q 3450 4097 3450 3541 
Q 3450 3153 3228 2886 
Q 3006 2619 2597 2516 
z
" transform="scale(0.015625)"/>
      </defs>
      <use xlink:href="#DejaVuSans-70"/>
      <use xlink:href="#DejaVuSans-61" x="63.476562"/>
      <use xlink:href="#DejaVuSans-64" x="124.755859"/>
      <use xlink:href="#DejaVuSans-64" x="188.232422"/>
      <use xlink:href="#DejaVuSans-69" x="251.708984"/>
      <use xlink:href="#DejaVuSans-6e" x="279.492188"/>
      <use xlink:href="#DejaVuSans-67" x="342.871094"/>
      <use xlink:href="#DejaVuSans-5f" x="406.347656"/>
      <use xlink:href="#DejaVuSans-6c" x="456.347656"/>
      <use xlink:href="#DejaVuSans-65" x="484.130859"/>
      <use xlink:href="#DejaVuSans-6e" x="545.654297"/>
      <use xlink:href="#DejaVuSans-67" x="609.033203"/>
      <use xlink:href="#DejaVuSans-74" x="672.509766"/>
      <use xlink:href="#DejaVuSans-68" x="711.71875"/>
      <use xlink:href="#DejaVuSans-20" x="775.097656"/>
      <use xlink:href="#DejaVuSans-3d" x="806.884766"/>
      <use xlink:href="#DejaVuSans-20" x="890.673828"/>
      <use xlink:href="#DejaVuSans-33" x="922.460938"/>
      <use xlink:href="#DejaVuSans-38" x="986.083984"/>
      <use xlink:href="#DejaVuSans-34" x="1049.707031"/>
     </g>
    </g>
    <g id="patch_193">
     <path d="M 266.384063 73.026688 
L 286.384063 73.026688 
L 286.384063 66.026688 
L 266.384063 66.026688 
z
" style="fill: #ff7f0e; fill-opacity: 0.5; stroke: #000000; stroke-linejoin: miter"/>
    </g>
    <g id="text_15">
     <!-- padding_length = 128 -->
     <g transform="translate(294.384063 73.026688) scale(0.1 -0.1)">
      <use xlink:href="#DejaVuSans-70"/>
      <use xlink:href="#DejaVuSans-61" x="63.476562"/>
      <use xlink:href="#DejaVuSans-64" x="124.755859"/>
      <use xlink:href="#DejaVuSans-64" x="188.232422"/>
      <use xlink:href="#DejaVuSans-69" x="251.708984"/>
      <use xlink:href="#DejaVuSans-6e" x="279.492188"/>
      <use xlink:href="#DejaVuSans-67" x="342.871094"/>
      <use xlink:href="#DejaVuSans-5f" x="406.347656"/>
      <use xlink:href="#DejaVuSans-6c" x="456.347656"/>
      <use xlink:href="#DejaVuSans-65" x="484.130859"/>
      <use xlink:href="#DejaVuSans-6e" x="545.654297"/>
      <use xlink:href="#DejaVuSans-67" x="609.033203"/>
      <use xlink:href="#DejaVuSans-74" x="672.509766"/>
      <use xlink:href="#DejaVuSans-68" x="711.71875"/>
      <use xlink:href="#DejaVuSans-20" x="775.097656"/>
      <use xlink:href="#DejaVuSans-3d" x="806.884766"/>
      <use xlink:href="#DejaVuSans-20" x="890.673828"/>
      <use xlink:href="#DejaVuSans-31" x="922.460938"/>
      <use xlink:href="#DejaVuSans-32" x="986.083984"/>
      <use xlink:href="#DejaVuSans-38" x="1049.707031"/>
     </g>
    </g>
   </g>
  </g>
  <g id="text_16">
   <!-- recursive fn_False_facebook/bart-base_True -->
   <g transform="translate(99.945938 16.030125) scale(0.12 -0.12)">
    <defs>
     <path id="DejaVuSans-72" d="M 2631 2963 
Q 2534 3019 2420 3045 
Q 2306 3072 2169 3072 
Q 1681 3072 1420 2755 
Q 1159 2438 1159 1844 
L 1159 0 
L 581 0 
L 581 3500 
L 1159 3500 
L 1159 2956 
Q 1341 3275 1631 3429 
Q 1922 3584 2338 3584 
Q 2397 3584 2469 3576 
Q 2541 3569 2628 3553 
L 2631 2963 
z
" transform="scale(0.015625)"/>
     <path id="DejaVuSans-63" d="M 3122 3366 
L 3122 2828 
Q 2878 2963 2633 3030 
Q 2388 3097 2138 3097 
Q 1578 3097 1268 2742 
Q 959 2388 959 1747 
Q 959 1106 1268 751 
Q 1578 397 2138 397 
Q 2388 397 2633 464 
Q 2878 531 3122 666 
L 3122 134 
Q 2881 22 2623 -34 
Q 2366 -91 2075 -91 
Q 1284 -91 818 406 
Q 353 903 353 1747 
Q 353 2603 823 3093 
Q 1294 3584 2113 3584 
Q 2378 3584 2631 3529 
Q 2884 3475 3122 3366 
z
" transform="scale(0.015625)"/>
     <path id="DejaVuSans-73" d="M 2834 3397 
L 2834 2853 
Q 2591 2978 2328 3040 
Q 2066 3103 1784 3103 
Q 1356 3103 1142 2972 
Q 928 2841 928 2578 
Q 928 2378 1081 2264 
Q 1234 2150 1697 2047 
L 1894 2003 
Q 2506 1872 2764 1633 
Q 3022 1394 3022 966 
Q 3022 478 2636 193 
Q 2250 -91 1575 -91 
Q 1294 -91 989 -36 
Q 684 19 347 128 
L 347 722 
Q 666 556 975 473 
Q 1284 391 1588 391 
Q 1994 391 2212 530 
Q 2431 669 2431 922 
Q 2431 1156 2273 1281 
Q 2116 1406 1581 1522 
L 1381 1569 
Q 847 1681 609 1914 
Q 372 2147 372 2553 
Q 372 3047 722 3315 
Q 1072 3584 1716 3584 
Q 2034 3584 2315 3537 
Q 2597 3491 2834 3397 
z
" transform="scale(0.015625)"/>
     <path id="DejaVuSans-76" d="M 191 3500 
L 800 3500 
L 1894 563 
L 2988 3500 
L 3597 3500 
L 2284 0 
L 1503 0 
L 191 3500 
z
" transform="scale(0.015625)"/>
     <path id="DejaVuSans-66" d="M 2375 4863 
L 2375 4384 
L 1825 4384 
Q 1516 4384 1395 4259 
Q 1275 4134 1275 3809 
L 1275 3500 
L 2222 3500 
L 2222 3053 
L 1275 3053 
L 1275 0 
L 697 0 
L 697 3053 
L 147 3053 
L 147 3500 
L 697 3500 
L 697 3744 
Q 697 4328 969 4595 
Q 1241 4863 1831 4863 
L 2375 4863 
z
" transform="scale(0.015625)"/>
     <path id="DejaVuSans-46" d="M 628 4666 
L 3309 4666 
L 3309 4134 
L 1259 4134 
L 1259 2759 
L 3109 2759 
L 3109 2228 
L 1259 2228 
L 1259 0 
L 628 0 
L 628 4666 
z
" transform="scale(0.015625)"/>
     <path id="DejaVuSans-62" d="M 3116 1747 
Q 3116 2381 2855 2742 
Q 2594 3103 2138 3103 
Q 1681 3103 1420 2742 
Q 1159 2381 1159 1747 
Q 1159 1113 1420 752 
Q 1681 391 2138 391 
Q 2594 391 2855 752 
Q 3116 1113 3116 1747 
z
M 1159 2969 
Q 1341 3281 1617 3432 
Q 1894 3584 2278 3584 
Q 2916 3584 3314 3078 
Q 3713 2572 3713 1747 
Q 3713 922 3314 415 
Q 2916 -91 2278 -91 
Q 1894 -91 1617 61 
Q 1341 213 1159 525 
L 1159 0 
L 581 0 
L 581 4863 
L 1159 4863 
L 1159 2969 
z
" transform="scale(0.015625)"/>
     <path id="DejaVuSans-6b" d="M 581 4863 
L 1159 4863 
L 1159 1991 
L 2875 3500 
L 3609 3500 
L 1753 1863 
L 3688 0 
L 2938 0 
L 1159 1709 
L 1159 0 
L 581 0 
L 581 4863 
z
" transform="scale(0.015625)"/>
     <path id="DejaVuSans-2f" d="M 1625 4666 
L 2156 4666 
L 531 -594 
L 0 -594 
L 1625 4666 
z
" transform="scale(0.015625)"/>
     <path id="DejaVuSans-2d" d="M 313 2009 
L 1997 2009 
L 1997 1497 
L 313 1497 
L 313 2009 
z
" transform="scale(0.015625)"/>
     <path id="DejaVuSans-54" d="M -19 4666 
L 3928 4666 
L 3928 4134 
L 2272 4134 
L 2272 0 
L 1638 0 
L 1638 4134 
L -19 4134 
L -19 4666 
z
" transform="scale(0.015625)"/>
    </defs>
    <use xlink:href="#DejaVuSans-72"/>
    <use xlink:href="#DejaVuSans-65" x="38.863281"/>
    <use xlink:href="#DejaVuSans-63" x="100.386719"/>
    <use xlink:href="#DejaVuSans-75" x="155.367188"/>
    <use xlink:href="#DejaVuSans-72" x="218.746094"/>
    <use xlink:href="#DejaVuSans-73" x="259.859375"/>
    <use xlink:href="#DejaVuSans-69" x="311.958984"/>
    <use xlink:href="#DejaVuSans-76" x="339.742188"/>
    <use xlink:href="#DejaVuSans-65" x="398.921875"/>
    <use xlink:href="#DejaVuSans-20" x="460.445312"/>
    <use xlink:href="#DejaVuSans-66" x="492.232422"/>
    <use xlink:href="#DejaVuSans-6e" x="527.4375"/>
    <use xlink:href="#DejaVuSans-5f" x="590.816406"/>
    <use xlink:href="#DejaVuSans-46" x="640.816406"/>
    <use xlink:href="#DejaVuSans-61" x="689.210938"/>
    <use xlink:href="#DejaVuSans-6c" x="750.490234"/>
    <use xlink:href="#DejaVuSans-73" x="778.273438"/>
    <use xlink:href="#DejaVuSans-65" x="830.373047"/>
    <use xlink:href="#DejaVuSans-5f" x="891.896484"/>
    <use xlink:href="#DejaVuSans-66" x="941.896484"/>
    <use xlink:href="#DejaVuSans-61" x="977.101562"/>
    <use xlink:href="#DejaVuSans-63" x="1038.380859"/>
    <use xlink:href="#DejaVuSans-65" x="1093.361328"/>
    <use xlink:href="#DejaVuSans-62" x="1154.884766"/>
    <use xlink:href="#DejaVuSans-6f" x="1218.361328"/>
    <use xlink:href="#DejaVuSans-6f" x="1279.542969"/>
    <use xlink:href="#DejaVuSans-6b" x="1340.724609"/>
    <use xlink:href="#DejaVuSans-2f" x="1398.634766"/>
    <use xlink:href="#DejaVuSans-62" x="1432.326172"/>
    <use xlink:href="#DejaVuSans-61" x="1495.802734"/>
    <use xlink:href="#DejaVuSans-72" x="1557.082031"/>
    <use xlink:href="#DejaVuSans-74" x="1598.195312"/>
    <use xlink:href="#DejaVuSans-2d" x="1637.404297"/>
    <use xlink:href="#DejaVuSans-62" x="1673.488281"/>
    <use xlink:href="#DejaVuSans-61" x="1736.964844"/>
    <use xlink:href="#DejaVuSans-73" x="1798.244141"/>
    <use xlink:href="#DejaVuSans-65" x="1850.34375"/>
    <use xlink:href="#DejaVuSans-5f" x="1911.867188"/>
    <use xlink:href="#DejaVuSans-54" x="1961.867188"/>
    <use xlink:href="#DejaVuSans-72" x="2008.201172"/>
    <use xlink:href="#DejaVuSans-75" x="2049.314453"/>
    <use xlink:href="#DejaVuSans-65" x="2112.693359"/>
   </g>
  </g>
 </g>
 <defs>
  <clipPath id="p5d8c2e92bd">
   <rect x="57.6" y="41.472" width="357.12" height="266.112"/>
  </clipPath>
 </defs>
</svg>
