<?xml version="1.0" encoding="utf-8" standalone="no"?>
<!DOCTYPE svg PUBLIC "-//W3C//DTD SVG 1.1//EN"
  "http://www.w3.org/Graphics/SVG/1.1/DTD/svg11.dtd">
<svg xmlns:xlink="http://www.w3.org/1999/xlink" width="460.8pt" height="345.6pt" viewBox="0 0 460.8 345.6" xmlns="http://www.w3.org/2000/svg" version="1.1">
 <metadata>
  <rdf:RDF xmlns:dc="http://purl.org/dc/elements/1.1/" xmlns:cc="http://creativecommons.org/ns#" xmlns:rdf="http://www.w3.org/1999/02/22-rdf-syntax-ns#">
   <cc:Work>
    <dc:type rdf:resource="http://purl.org/dc/dcmitype/StillImage"/>
    <dc:date>2024-03-04T13:59:31.167361</dc:date>
    <dc:format>image/svg+xml</dc:format>
    <dc:creator>
     <cc:Agent>
      <dc:title>Matplotlib v3.8.3, https://matplotlib.org/</dc:title>
     </cc:Agent>
    </dc:creator>
   </cc:Work>
  </rdf:RDF>
 </metadata>
 <defs>
  <style type="text/css">*{stroke-linejoin: round; stroke-linecap: butt}</style>
 </defs>
 <g id="figure_1">
  <g id="patch_1">
   <path d="M 0 345.6 
L 460.8 345.6 
L 460.8 0 
L 0 0 
z
" style="fill: #ffffff"/>
  </g>
  <g id="axes_1">
   <g id="patch_2">
    <path d="M 57.6 307.584 
L 414.72 307.584 
L 414.72 41.472 
L 57.6 41.472 
z
" style="fill: #ffffff"/>
   </g>
   <g id="patch_3">
    <path d="M 73.832727 307.584 
L 85.85697 307.584 
L 85.85697 302.802113 
L 73.832727 302.802113 
z
" clip-path="url(#p5267172e24)" style="fill: #ff7f0e; fill-opacity: 0.5; stroke: #000000; stroke-linejoin: miter"/>
   </g>
   <g id="patch_4">
    <path d="M 85.85697 307.584 
L 97.881212 307.584 
L 97.881212 298.020226 
L 85.85697 298.020226 
z
" clip-path="url(#p5267172e24)" style="fill: #ff7f0e; fill-opacity: 0.5; stroke: #000000; stroke-linejoin: miter"/>
   </g>
   <g id="patch_5">
    <path d="M 97.881212 307.584 
L 109.905455 307.584 
L 109.905455 302.802113 
L 97.881212 302.802113 
z
" clip-path="url(#p5267172e24)" style="fill: #ff7f0e; fill-opacity: 0.5; stroke: #000000; stroke-linejoin: miter"/>
   </g>
   <g id="patch_6">
    <path d="M 109.905455 307.584 
L 121.929697 307.584 
L 121.929697 293.23834 
L 109.905455 293.23834 
z
" clip-path="url(#p5267172e24)" style="fill: #ff7f0e; fill-opacity: 0.5; stroke: #000000; stroke-linejoin: miter"/>
   </g>
   <g id="patch_7">
    <path d="M 121.929697 307.584 
L 133.953939 307.584 
L 133.953939 278.892679 
L 121.929697 278.892679 
z
" clip-path="url(#p5267172e24)" style="fill: #ff7f0e; fill-opacity: 0.5; stroke: #000000; stroke-linejoin: miter"/>
   </g>
   <g id="patch_8">
    <path d="M 133.953939 307.584 
L 145.978182 307.584 
L 145.978182 226.291925 
L 133.953939 226.291925 
z
" clip-path="url(#p5267172e24)" style="fill: #ff7f0e; fill-opacity: 0.5; stroke: #000000; stroke-linejoin: miter"/>
   </g>
   <g id="patch_9">
    <path d="M 145.978182 307.584 
L 158.002424 307.584 
L 158.002424 245.419472 
L 145.978182 245.419472 
z
" clip-path="url(#p5267172e24)" style="fill: #ff7f0e; fill-opacity: 0.5; stroke: #000000; stroke-linejoin: miter"/>
   </g>
   <g id="patch_10">
    <path d="M 158.002424 307.584 
L 170.026667 307.584 
L 170.026667 226.291925 
L 158.002424 226.291925 
z
" clip-path="url(#p5267172e24)" style="fill: #ff7f0e; fill-opacity: 0.5; stroke: #000000; stroke-linejoin: miter"/>
   </g>
   <g id="patch_11">
    <path d="M 170.026667 307.584 
L 182.050909 307.584 
L 182.050909 164.127396 
L 170.026667 164.127396 
z
" clip-path="url(#p5267172e24)" style="fill: #ff7f0e; fill-opacity: 0.5; stroke: #000000; stroke-linejoin: miter"/>
   </g>
   <g id="patch_12">
    <path d="M 182.050909 307.584 
L 194.075152 307.584 
L 194.075152 116.308528 
L 182.050909 116.308528 
z
" clip-path="url(#p5267172e24)" style="fill: #ff7f0e; fill-opacity: 0.5; stroke: #000000; stroke-linejoin: miter"/>
   </g>
   <g id="patch_13">
    <path d="M 194.075152 307.584 
L 206.099394 307.584 
L 206.099394 54.144 
L 194.075152 54.144 
z
" clip-path="url(#p5267172e24)" style="fill: #ff7f0e; fill-opacity: 0.5; stroke: #000000; stroke-linejoin: miter"/>
   </g>
   <g id="patch_14">
    <path d="M 206.099394 307.584 
L 218.123636 307.584 
L 218.123636 97.180981 
L 206.099394 97.180981 
z
" clip-path="url(#p5267172e24)" style="fill: #ff7f0e; fill-opacity: 0.5; stroke: #000000; stroke-linejoin: miter"/>
   </g>
   <g id="patch_15">
    <path d="M 218.123636 307.584 
L 230.147879 307.584 
L 230.147879 73.271547 
L 218.123636 73.271547 
z
" clip-path="url(#p5267172e24)" style="fill: #ff7f0e; fill-opacity: 0.5; stroke: #000000; stroke-linejoin: miter"/>
   </g>
   <g id="patch_16">
    <path d="M 230.147879 307.584 
L 242.172121 307.584 
L 242.172121 73.271547 
L 230.147879 73.271547 
z
" clip-path="url(#p5267172e24)" style="fill: #ff7f0e; fill-opacity: 0.5; stroke: #000000; stroke-linejoin: miter"/>
   </g>
   <g id="patch_17">
    <path d="M 242.172121 307.584 
L 254.196364 307.584 
L 254.196364 68.48966 
L 242.172121 68.48966 
z
" clip-path="url(#p5267172e24)" style="fill: #ff7f0e; fill-opacity: 0.5; stroke: #000000; stroke-linejoin: miter"/>
   </g>
   <g id="patch_18">
    <path d="M 254.196364 307.584 
L 266.220606 307.584 
L 266.220606 140.217962 
L 254.196364 140.217962 
z
" clip-path="url(#p5267172e24)" style="fill: #ff7f0e; fill-opacity: 0.5; stroke: #000000; stroke-linejoin: miter"/>
   </g>
   <g id="patch_19">
    <path d="M 266.220606 307.584 
L 278.244848 307.584 
L 278.244848 211.946264 
L 266.220606 211.946264 
z
" clip-path="url(#p5267172e24)" style="fill: #ff7f0e; fill-opacity: 0.5; stroke: #000000; stroke-linejoin: miter"/>
   </g>
   <g id="patch_20">
    <path d="M 278.244848 307.584 
L 290.269091 307.584 
L 290.269091 202.382491 
L 278.244848 202.382491 
z
" clip-path="url(#p5267172e24)" style="fill: #ff7f0e; fill-opacity: 0.5; stroke: #000000; stroke-linejoin: miter"/>
   </g>
   <g id="patch_21">
    <path d="M 290.269091 307.584 
L 302.293333 307.584 
L 302.293333 245.419472 
L 290.269091 245.419472 
z
" clip-path="url(#p5267172e24)" style="fill: #ff7f0e; fill-opacity: 0.5; stroke: #000000; stroke-linejoin: miter"/>
   </g>
   <g id="patch_22">
    <path d="M 302.293333 307.584 
L 314.317576 307.584 
L 314.317576 264.547019 
L 302.293333 264.547019 
z
" clip-path="url(#p5267172e24)" style="fill: #ff7f0e; fill-opacity: 0.5; stroke: #000000; stroke-linejoin: miter"/>
   </g>
   <g id="patch_23">
    <path d="M 314.317576 307.584 
L 326.341818 307.584 
L 326.341818 259.765132 
L 314.317576 259.765132 
z
" clip-path="url(#p5267172e24)" style="fill: #ff7f0e; fill-opacity: 0.5; stroke: #000000; stroke-linejoin: miter"/>
   </g>
   <g id="patch_24">
    <path d="M 326.341818 307.584 
L 338.366061 307.584 
L 338.366061 269.328906 
L 326.341818 269.328906 
z
" clip-path="url(#p5267172e24)" style="fill: #ff7f0e; fill-opacity: 0.5; stroke: #000000; stroke-linejoin: miter"/>
   </g>
   <g id="patch_25">
    <path d="M 338.366061 307.584 
L 350.390303 307.584 
L 350.390303 288.456453 
L 338.366061 288.456453 
z
" clip-path="url(#p5267172e24)" style="fill: #ff7f0e; fill-opacity: 0.5; stroke: #000000; stroke-linejoin: miter"/>
   </g>
   <g id="patch_26">
    <path d="M 350.390303 307.584 
L 362.414545 307.584 
L 362.414545 302.802113 
L 350.390303 302.802113 
z
" clip-path="url(#p5267172e24)" style="fill: #ff7f0e; fill-opacity: 0.5; stroke: #000000; stroke-linejoin: miter"/>
   </g>
   <g id="patch_27">
    <path d="M 362.414545 307.584 
L 374.438788 307.584 
L 374.438788 302.802113 
L 362.414545 302.802113 
z
" clip-path="url(#p5267172e24)" style="fill: #ff7f0e; fill-opacity: 0.5; stroke: #000000; stroke-linejoin: miter"/>
   </g>
   <g id="patch_28">
    <path d="M 374.438788 307.584 
L 386.46303 307.584 
L 386.46303 298.020226 
L 374.438788 298.020226 
z
" clip-path="url(#p5267172e24)" style="fill: #ff7f0e; fill-opacity: 0.5; stroke: #000000; stroke-linejoin: miter"/>
   </g>
   <g id="patch_29">
    <path d="M 386.46303 307.584 
L 398.487273 307.584 
L 398.487273 307.584 
L 386.46303 307.584 
z
" clip-path="url(#p5267172e24)" style="fill: #ff7f0e; fill-opacity: 0.5; stroke: #000000; stroke-linejoin: miter"/>
   </g>
   <g id="patch_30">
    <path d="M 73.832727 307.584 
L 85.85697 307.584 
L 85.85697 307.584 
L 73.832727 307.584 
z
" clip-path="url(#p5267172e24)" style="fill: #1f77b4; fill-opacity: 0.5; stroke: #000000; stroke-linejoin: miter"/>
   </g>
   <g id="patch_31">
    <path d="M 85.85697 307.584 
L 97.881212 307.584 
L 97.881212 307.584 
L 85.85697 307.584 
z
" clip-path="url(#p5267172e24)" style="fill: #1f77b4; fill-opacity: 0.5; stroke: #000000; stroke-linejoin: miter"/>
   </g>
   <g id="patch_32">
    <path d="M 97.881212 307.584 
L 109.905455 307.584 
L 109.905455 302.802113 
L 97.881212 302.802113 
z
" clip-path="url(#p5267172e24)" style="fill: #1f77b4; fill-opacity: 0.5; stroke: #000000; stroke-linejoin: miter"/>
   </g>
   <g id="patch_33">
    <path d="M 109.905455 307.584 
L 121.929697 307.584 
L 121.929697 298.020226 
L 109.905455 298.020226 
z
" clip-path="url(#p5267172e24)" style="fill: #1f77b4; fill-opacity: 0.5; stroke: #000000; stroke-linejoin: miter"/>
   </g>
   <g id="patch_34">
    <path d="M 121.929697 307.584 
L 133.953939 307.584 
L 133.953939 288.456453 
L 121.929697 288.456453 
z
" clip-path="url(#p5267172e24)" style="fill: #1f77b4; fill-opacity: 0.5; stroke: #000000; stroke-linejoin: miter"/>
   </g>
   <g id="patch_35">
    <path d="M 133.953939 307.584 
L 145.978182 307.584 
L 145.978182 264.547019 
L 133.953939 264.547019 
z
" clip-path="url(#p5267172e24)" style="fill: #1f77b4; fill-opacity: 0.5; stroke: #000000; stroke-linejoin: miter"/>
   </g>
   <g id="patch_36">
    <path d="M 145.978182 307.584 
L 158.002424 307.584 
L 158.002424 240.637585 
L 145.978182 240.637585 
z
" clip-path="url(#p5267172e24)" style="fill: #1f77b4; fill-opacity: 0.5; stroke: #000000; stroke-linejoin: miter"/>
   </g>
   <g id="patch_37">
    <path d="M 158.002424 307.584 
L 170.026667 307.584 
L 170.026667 197.600604 
L 158.002424 197.600604 
z
" clip-path="url(#p5267172e24)" style="fill: #1f77b4; fill-opacity: 0.5; stroke: #000000; stroke-linejoin: miter"/>
   </g>
   <g id="patch_38">
    <path d="M 170.026667 307.584 
L 182.050909 307.584 
L 182.050909 159.345509 
L 170.026667 159.345509 
z
" clip-path="url(#p5267172e24)" style="fill: #1f77b4; fill-opacity: 0.5; stroke: #000000; stroke-linejoin: miter"/>
   </g>
   <g id="patch_39">
    <path d="M 182.050909 307.584 
L 194.075152 307.584 
L 194.075152 149.781736 
L 182.050909 149.781736 
z
" clip-path="url(#p5267172e24)" style="fill: #1f77b4; fill-opacity: 0.5; stroke: #000000; stroke-linejoin: miter"/>
   </g>
   <g id="patch_40">
    <path d="M 194.075152 307.584 
L 206.099394 307.584 
L 206.099394 135.436075 
L 194.075152 135.436075 
z
" clip-path="url(#p5267172e24)" style="fill: #1f77b4; fill-opacity: 0.5; stroke: #000000; stroke-linejoin: miter"/>
   </g>
   <g id="patch_41">
    <path d="M 206.099394 307.584 
L 218.123636 307.584 
L 218.123636 58.925887 
L 206.099394 58.925887 
z
" clip-path="url(#p5267172e24)" style="fill: #1f77b4; fill-opacity: 0.5; stroke: #000000; stroke-linejoin: miter"/>
   </g>
   <g id="patch_42">
    <path d="M 218.123636 307.584 
L 230.147879 307.584 
L 230.147879 82.835321 
L 218.123636 82.835321 
z
" clip-path="url(#p5267172e24)" style="fill: #1f77b4; fill-opacity: 0.5; stroke: #000000; stroke-linejoin: miter"/>
   </g>
   <g id="patch_43">
    <path d="M 230.147879 307.584 
L 242.172121 307.584 
L 242.172121 63.707774 
L 230.147879 63.707774 
z
" clip-path="url(#p5267172e24)" style="fill: #1f77b4; fill-opacity: 0.5; stroke: #000000; stroke-linejoin: miter"/>
   </g>
   <g id="patch_44">
    <path d="M 242.172121 307.584 
L 254.196364 307.584 
L 254.196364 63.707774 
L 242.172121 63.707774 
z
" clip-path="url(#p5267172e24)" style="fill: #1f77b4; fill-opacity: 0.5; stroke: #000000; stroke-linejoin: miter"/>
   </g>
   <g id="patch_45">
    <path d="M 254.196364 307.584 
L 266.220606 307.584 
L 266.220606 111.526642 
L 254.196364 111.526642 
z
" clip-path="url(#p5267172e24)" style="fill: #1f77b4; fill-opacity: 0.5; stroke: #000000; stroke-linejoin: miter"/>
   </g>
   <g id="patch_46">
    <path d="M 266.220606 307.584 
L 278.244848 307.584 
L 278.244848 192.818717 
L 266.220606 192.818717 
z
" clip-path="url(#p5267172e24)" style="fill: #1f77b4; fill-opacity: 0.5; stroke: #000000; stroke-linejoin: miter"/>
   </g>
   <g id="patch_47">
    <path d="M 278.244848 307.584 
L 290.269091 307.584 
L 290.269091 178.473057 
L 278.244848 178.473057 
z
" clip-path="url(#p5267172e24)" style="fill: #1f77b4; fill-opacity: 0.5; stroke: #000000; stroke-linejoin: miter"/>
   </g>
   <g id="patch_48">
    <path d="M 290.269091 307.584 
L 302.293333 307.584 
L 302.293333 254.983245 
L 290.269091 254.983245 
z
" clip-path="url(#p5267172e24)" style="fill: #1f77b4; fill-opacity: 0.5; stroke: #000000; stroke-linejoin: miter"/>
   </g>
   <g id="patch_49">
    <path d="M 302.293333 307.584 
L 314.317576 307.584 
L 314.317576 226.291925 
L 302.293333 226.291925 
z
" clip-path="url(#p5267172e24)" style="fill: #1f77b4; fill-opacity: 0.5; stroke: #000000; stroke-linejoin: miter"/>
   </g>
   <g id="patch_50">
    <path d="M 314.317576 307.584 
L 326.341818 307.584 
L 326.341818 264.547019 
L 314.317576 264.547019 
z
" clip-path="url(#p5267172e24)" style="fill: #1f77b4; fill-opacity: 0.5; stroke: #000000; stroke-linejoin: miter"/>
   </g>
   <g id="patch_51">
    <path d="M 326.341818 307.584 
L 338.366061 307.584 
L 338.366061 278.892679 
L 326.341818 278.892679 
z
" clip-path="url(#p5267172e24)" style="fill: #1f77b4; fill-opacity: 0.5; stroke: #000000; stroke-linejoin: miter"/>
   </g>
   <g id="patch_52">
    <path d="M 338.366061 307.584 
L 350.390303 307.584 
L 350.390303 298.020226 
L 338.366061 298.020226 
z
" clip-path="url(#p5267172e24)" style="fill: #1f77b4; fill-opacity: 0.5; stroke: #000000; stroke-linejoin: miter"/>
   </g>
   <g id="patch_53">
    <path d="M 350.390303 307.584 
L 362.414545 307.584 
L 362.414545 293.23834 
L 350.390303 293.23834 
z
" clip-path="url(#p5267172e24)" style="fill: #1f77b4; fill-opacity: 0.5; stroke: #000000; stroke-linejoin: miter"/>
   </g>
   <g id="patch_54">
    <path d="M 362.414545 307.584 
L 374.438788 307.584 
L 374.438788 302.802113 
L 362.414545 302.802113 
z
" clip-path="url(#p5267172e24)" style="fill: #1f77b4; fill-opacity: 0.5; stroke: #000000; stroke-linejoin: miter"/>
   </g>
   <g id="patch_55">
    <path d="M 374.438788 307.584 
L 386.46303 307.584 
L 386.46303 298.020226 
L 374.438788 298.020226 
z
" clip-path="url(#p5267172e24)" style="fill: #1f77b4; fill-opacity: 0.5; stroke: #000000; stroke-linejoin: miter"/>
   </g>
   <g id="patch_56">
    <path d="M 386.46303 307.584 
L 398.487273 307.584 
L 398.487273 293.23834 
L 386.46303 293.23834 
z
" clip-path="url(#p5267172e24)" style="fill: #1f77b4; fill-opacity: 0.5; stroke: #000000; stroke-linejoin: miter"/>
   </g>
   <g id="matplotlib.axis_1">
    <g id="xtick_1">
     <g id="line2d_1">
      <defs>
       <path id="m9df88c1ee1" d="M 0 0 
L 0 3.5 
" style="stroke: #000000; stroke-width: 0.8"/>
      </defs>
      <g>
       <use xlink:href="#m9df88c1ee1" x="76.602451" y="307.584" style="stroke: #000000; stroke-width: 0.8"/>
      </g>
     </g>
     <g id="text_1">
      <!-- 0.100 -->
      <g transform="translate(62.288388 322.182437) scale(0.1 -0.1)">
       <defs>
        <path id="DejaVuSans-30" d="M 2034 4250 
Q 1547 4250 1301 3770 
Q 1056 3291 1056 2328 
Q 1056 1369 1301 889 
Q 1547 409 2034 409 
Q 2525 409 2770 889 
Q 3016 1369 3016 2328 
Q 3016 3291 2770 3770 
Q 2525 4250 2034 4250 
z
M 2034 4750 
Q 2819 4750 3233 4129 
Q 3647 3509 3647 2328 
Q 3647 1150 3233 529 
Q 2819 -91 2034 -91 
Q 1250 -91 836 529 
Q 422 1150 422 2328 
Q 422 3509 836 4129 
Q 1250 4750 2034 4750 
z
" transform="scale(0.015625)"/>
        <path id="DejaVuSans-2e" d="M 684 794 
L 1344 794 
L 1344 0 
L 684 0 
L 684 794 
z
" transform="scale(0.015625)"/>
        <path id="DejaVuSans-31" d="M 794 531 
L 1825 531 
L 1825 4091 
L 703 3866 
L 703 4441 
L 1819 4666 
L 2450 4666 
L 2450 531 
L 3481 531 
L 3481 0 
L 794 0 
L 794 531 
z
" transform="scale(0.015625)"/>
       </defs>
       <use xlink:href="#DejaVuSans-30"/>
       <use xlink:href="#DejaVuSans-2e" x="63.623047"/>
       <use xlink:href="#DejaVuSans-31" x="95.410156"/>
       <use xlink:href="#DejaVuSans-30" x="159.033203"/>
       <use xlink:href="#DejaVuSans-30" x="222.65625"/>
      </g>
     </g>
    </g>
    <g id="xtick_2">
     <g id="line2d_2">
      <g>
       <use xlink:href="#m9df88c1ee1" x="127.853655" y="307.584" style="stroke: #000000; stroke-width: 0.8"/>
      </g>
     </g>
     <g id="text_2">
      <!-- 0.105 -->
      <g transform="translate(113.539592 322.182437) scale(0.1 -0.1)">
       <defs>
        <path id="DejaVuSans-35" d="M 691 4666 
L 3169 4666 
L 3169 4134 
L 1269 4134 
L 1269 2991 
Q 1406 3038 1543 3061 
Q 1681 3084 1819 3084 
Q 2600 3084 3056 2656 
Q 3513 2228 3513 1497 
Q 3513 744 3044 326 
Q 2575 -91 1722 -91 
Q 1428 -91 1123 -41 
Q 819 9 494 109 
L 494 744 
Q 775 591 1075 516 
Q 1375 441 1709 441 
Q 2250 441 2565 725 
Q 2881 1009 2881 1497 
Q 2881 1984 2565 2268 
Q 2250 2553 1709 2553 
Q 1456 2553 1204 2497 
Q 953 2441 691 2322 
L 691 4666 
z
" transform="scale(0.015625)"/>
       </defs>
       <use xlink:href="#DejaVuSans-30"/>
       <use xlink:href="#DejaVuSans-2e" x="63.623047"/>
       <use xlink:href="#DejaVuSans-31" x="95.410156"/>
       <use xlink:href="#DejaVuSans-30" x="159.033203"/>
       <use xlink:href="#DejaVuSans-35" x="222.65625"/>
      </g>
     </g>
    </g>
    <g id="xtick_3">
     <g id="line2d_3">
      <g>
       <use xlink:href="#m9df88c1ee1" x="179.104859" y="307.584" style="stroke: #000000; stroke-width: 0.8"/>
      </g>
     </g>
     <g id="text_3">
      <!-- 0.110 -->
      <g transform="translate(164.790796 322.182437) scale(0.1 -0.1)">
       <use xlink:href="#DejaVuSans-30"/>
       <use xlink:href="#DejaVuSans-2e" x="63.623047"/>
       <use xlink:href="#DejaVuSans-31" x="95.410156"/>
       <use xlink:href="#DejaVuSans-31" x="159.033203"/>
       <use xlink:href="#DejaVuSans-30" x="222.65625"/>
      </g>
     </g>
    </g>
    <g id="xtick_4">
     <g id="line2d_4">
      <g>
       <use xlink:href="#m9df88c1ee1" x="230.356063" y="307.584" style="stroke: #000000; stroke-width: 0.8"/>
      </g>
     </g>
     <g id="text_4">
      <!-- 0.115 -->
      <g transform="translate(216.042001 322.182437) scale(0.1 -0.1)">
       <use xlink:href="#DejaVuSans-30"/>
       <use xlink:href="#DejaVuSans-2e" x="63.623047"/>
       <use xlink:href="#DejaVuSans-31" x="95.410156"/>
       <use xlink:href="#DejaVuSans-31" x="159.033203"/>
       <use xlink:href="#DejaVuSans-35" x="222.65625"/>
      </g>
     </g>
    </g>
    <g id="xtick_5">
     <g id="line2d_5">
      <g>
       <use xlink:href="#m9df88c1ee1" x="281.607267" y="307.584" style="stroke: #000000; stroke-width: 0.8"/>
      </g>
     </g>
     <g id="text_5">
      <!-- 0.120 -->
      <g transform="translate(267.293205 322.182437) scale(0.1 -0.1)">
       <defs>
        <path id="DejaVuSans-32" d="M 1228 531 
L 3431 531 
L 3431 0 
L 469 0 
L 469 531 
Q 828 903 1448 1529 
Q 2069 2156 2228 2338 
Q 2531 2678 2651 2914 
Q 2772 3150 2772 3378 
Q 2772 3750 2511 3984 
Q 2250 4219 1831 4219 
Q 1534 4219 1204 4116 
Q 875 4013 500 3803 
L 500 4441 
Q 881 4594 1212 4672 
Q 1544 4750 1819 4750 
Q 2544 4750 2975 4387 
Q 3406 4025 3406 3419 
Q 3406 3131 3298 2873 
Q 3191 2616 2906 2266 
Q 2828 2175 2409 1742 
Q 1991 1309 1228 531 
z
" transform="scale(0.015625)"/>
       </defs>
       <use xlink:href="#DejaVuSans-30"/>
       <use xlink:href="#DejaVuSans-2e" x="63.623047"/>
       <use xlink:href="#DejaVuSans-31" x="95.410156"/>
       <use xlink:href="#DejaVuSans-32" x="159.033203"/>
       <use xlink:href="#DejaVuSans-30" x="222.65625"/>
      </g>
     </g>
    </g>
    <g id="xtick_6">
     <g id="line2d_6">
      <g>
       <use xlink:href="#m9df88c1ee1" x="332.858471" y="307.584" style="stroke: #000000; stroke-width: 0.8"/>
      </g>
     </g>
     <g id="text_6">
      <!-- 0.125 -->
      <g transform="translate(318.544409 322.182437) scale(0.1 -0.1)">
       <use xlink:href="#DejaVuSans-30"/>
       <use xlink:href="#DejaVuSans-2e" x="63.623047"/>
       <use xlink:href="#DejaVuSans-31" x="95.410156"/>
       <use xlink:href="#DejaVuSans-32" x="159.033203"/>
       <use xlink:href="#DejaVuSans-35" x="222.65625"/>
      </g>
     </g>
    </g>
    <g id="xtick_7">
     <g id="line2d_7">
      <g>
       <use xlink:href="#m9df88c1ee1" x="384.109676" y="307.584" style="stroke: #000000; stroke-width: 0.8"/>
      </g>
     </g>
     <g id="text_7">
      <!-- 0.130 -->
      <g transform="translate(369.795613 322.182437) scale(0.1 -0.1)">
       <defs>
        <path id="DejaVuSans-33" d="M 2597 2516 
Q 3050 2419 3304 2112 
Q 3559 1806 3559 1356 
Q 3559 666 3084 287 
Q 2609 -91 1734 -91 
Q 1441 -91 1130 -33 
Q 819 25 488 141 
L 488 750 
Q 750 597 1062 519 
Q 1375 441 1716 441 
Q 2309 441 2620 675 
Q 2931 909 2931 1356 
Q 2931 1769 2642 2001 
Q 2353 2234 1838 2234 
L 1294 2234 
L 1294 2753 
L 1863 2753 
Q 2328 2753 2575 2939 
Q 2822 3125 2822 3475 
Q 2822 3834 2567 4026 
Q 2313 4219 1838 4219 
Q 1578 4219 1281 4162 
Q 984 4106 628 3988 
L 628 4550 
Q 988 4650 1302 4700 
Q 1616 4750 1894 4750 
Q 2613 4750 3031 4423 
Q 3450 4097 3450 3541 
Q 3450 3153 3228 2886 
Q 3006 2619 2597 2516 
z
" transform="scale(0.015625)"/>
       </defs>
       <use xlink:href="#DejaVuSans-30"/>
       <use xlink:href="#DejaVuSans-2e" x="63.623047"/>
       <use xlink:href="#DejaVuSans-31" x="95.410156"/>
       <use xlink:href="#DejaVuSans-33" x="159.033203"/>
       <use xlink:href="#DejaVuSans-30" x="222.65625"/>
      </g>
     </g>
    </g>
   </g>
   <g id="matplotlib.axis_2">
    <g id="ytick_1">
     <g id="line2d_8">
      <defs>
       <path id="maa0574f591" d="M 0 0 
L -3.5 0 
" style="stroke: #000000; stroke-width: 0.8"/>
      </defs>
      <g>
       <use xlink:href="#maa0574f591" x="57.6" y="307.584" style="stroke: #000000; stroke-width: 0.8"/>
      </g>
     </g>
     <g id="text_8">
      <!-- 0 -->
      <g transform="translate(44.2375 311.383219) scale(0.1 -0.1)">
       <use xlink:href="#DejaVuSans-30"/>
      </g>
     </g>
    </g>
    <g id="ytick_2">
     <g id="line2d_9">
      <g>
       <use xlink:href="#maa0574f591" x="57.6" y="259.765132" style="stroke: #000000; stroke-width: 0.8"/>
      </g>
     </g>
     <g id="text_9">
      <!-- 10 -->
      <g transform="translate(37.875 263.564351) scale(0.1 -0.1)">
       <use xlink:href="#DejaVuSans-31"/>
       <use xlink:href="#DejaVuSans-30" x="63.623047"/>
      </g>
     </g>
    </g>
    <g id="ytick_3">
     <g id="line2d_10">
      <g>
       <use xlink:href="#maa0574f591" x="57.6" y="211.946264" style="stroke: #000000; stroke-width: 0.8"/>
      </g>
     </g>
     <g id="text_10">
      <!-- 20 -->
      <g transform="translate(37.875 215.745483) scale(0.1 -0.1)">
       <use xlink:href="#DejaVuSans-32"/>
       <use xlink:href="#DejaVuSans-30" x="63.623047"/>
      </g>
     </g>
    </g>
    <g id="ytick_4">
     <g id="line2d_11">
      <g>
       <use xlink:href="#maa0574f591" x="57.6" y="164.127396" style="stroke: #000000; stroke-width: 0.8"/>
      </g>
     </g>
     <g id="text_11">
      <!-- 30 -->
      <g transform="translate(37.875 167.926615) scale(0.1 -0.1)">
       <use xlink:href="#DejaVuSans-33"/>
       <use xlink:href="#DejaVuSans-30" x="63.623047"/>
      </g>
     </g>
    </g>
    <g id="ytick_5">
     <g id="line2d_12">
      <g>
       <use xlink:href="#maa0574f591" x="57.6" y="116.308528" style="stroke: #000000; stroke-width: 0.8"/>
      </g>
     </g>
     <g id="text_12">
      <!-- 40 -->
      <g transform="translate(37.875 120.107747) scale(0.1 -0.1)">
       <defs>
        <path id="DejaVuSans-34" d="M 2419 4116 
L 825 1625 
L 2419 1625 
L 2419 4116 
z
M 2253 4666 
L 3047 4666 
L 3047 1625 
L 3713 1625 
L 3713 1100 
L 3047 1100 
L 3047 0 
L 2419 0 
L 2419 1100 
L 313 1100 
L 313 1709 
L 2253 4666 
z
" transform="scale(0.015625)"/>
       </defs>
       <use xlink:href="#DejaVuSans-34"/>
       <use xlink:href="#DejaVuSans-30" x="63.623047"/>
      </g>
     </g>
    </g>
    <g id="ytick_6">
     <g id="line2d_13">
      <g>
       <use xlink:href="#maa0574f591" x="57.6" y="68.48966" style="stroke: #000000; stroke-width: 0.8"/>
      </g>
     </g>
     <g id="text_13">
      <!-- 50 -->
      <g transform="translate(37.875 72.288879) scale(0.1 -0.1)">
       <use xlink:href="#DejaVuSans-35"/>
       <use xlink:href="#DejaVuSans-30" x="63.623047"/>
      </g>
     </g>
    </g>
    <g id="text_14">
     <!-- Count -->
     <g transform="translate(31.795312 189.376437) rotate(-90) scale(0.1 -0.1)">
      <defs>
       <path id="DejaVuSans-43" d="M 4122 4306 
L 4122 3641 
Q 3803 3938 3442 4084 
Q 3081 4231 2675 4231 
Q 1875 4231 1450 3742 
Q 1025 3253 1025 2328 
Q 1025 1406 1450 917 
Q 1875 428 2675 428 
Q 3081 428 3442 575 
Q 3803 722 4122 1019 
L 4122 359 
Q 3791 134 3420 21 
Q 3050 -91 2638 -91 
Q 1578 -91 968 557 
Q 359 1206 359 2328 
Q 359 3453 968 4101 
Q 1578 4750 2638 4750 
Q 3056 4750 3426 4639 
Q 3797 4528 4122 4306 
z
" transform="scale(0.015625)"/>
       <path id="DejaVuSans-6f" d="M 1959 3097 
Q 1497 3097 1228 2736 
Q 959 2375 959 1747 
Q 959 1119 1226 758 
Q 1494 397 1959 397 
Q 2419 397 2687 759 
Q 2956 1122 2956 1747 
Q 2956 2369 2687 2733 
Q 2419 3097 1959 3097 
z
M 1959 3584 
Q 2709 3584 3137 3096 
Q 3566 2609 3566 1747 
Q 3566 888 3137 398 
Q 2709 -91 1959 -91 
Q 1206 -91 779 398 
Q 353 888 353 1747 
Q 353 2609 779 3096 
Q 1206 3584 1959 3584 
z
" transform="scale(0.015625)"/>
       <path id="DejaVuSans-75" d="M 544 1381 
L 544 3500 
L 1119 3500 
L 1119 1403 
Q 1119 906 1312 657 
Q 1506 409 1894 409 
Q 2359 409 2629 706 
Q 2900 1003 2900 1516 
L 2900 3500 
L 3475 3500 
L 3475 0 
L 2900 0 
L 2900 538 
Q 2691 219 2414 64 
Q 2138 -91 1772 -91 
Q 1169 -91 856 284 
Q 544 659 544 1381 
z
M 1991 3584 
L 1991 3584 
z
" transform="scale(0.015625)"/>
       <path id="DejaVuSans-6e" d="M 3513 2113 
L 3513 0 
L 2938 0 
L 2938 2094 
Q 2938 2591 2744 2837 
Q 2550 3084 2163 3084 
Q 1697 3084 1428 2787 
Q 1159 2491 1159 1978 
L 1159 0 
L 581 0 
L 581 3500 
L 1159 3500 
L 1159 2956 
Q 1366 3272 1645 3428 
Q 1925 3584 2291 3584 
Q 2894 3584 3203 3211 
Q 3513 2838 3513 2113 
z
" transform="scale(0.015625)"/>
       <path id="DejaVuSans-74" d="M 1172 4494 
L 1172 3500 
L 2356 3500 
L 2356 3053 
L 1172 3053 
L 1172 1153 
Q 1172 725 1289 603 
Q 1406 481 1766 481 
L 2356 481 
L 2356 0 
L 1766 0 
Q 1100 0 847 248 
Q 594 497 594 1153 
L 594 3053 
L 172 3053 
L 172 3500 
L 594 3500 
L 594 4494 
L 1172 4494 
z
" transform="scale(0.015625)"/>
      </defs>
      <use xlink:href="#DejaVuSans-43"/>
      <use xlink:href="#DejaVuSans-6f" x="69.824219"/>
      <use xlink:href="#DejaVuSans-75" x="131.005859"/>
      <use xlink:href="#DejaVuSans-6e" x="194.384766"/>
      <use xlink:href="#DejaVuSans-74" x="257.763672"/>
     </g>
    </g>
   </g>
   <g id="line2d_14">
    <path d="M 73.832727 304.910039 
L 80.358447 303.919438 
L 85.252736 302.929673 
L 88.515596 302.095478 
L 91.778456 301.084446 
L 95.041316 299.862535 
L 98.304175 298.392253 
L 101.567035 296.632178 
L 104.829895 294.538784 
L 108.092755 292.070854 
L 111.355614 289.195828 
L 114.618474 285.896995 
L 117.881334 282.180448 
L 121.144194 278.080713 
L 124.407053 273.663541 
L 129.301343 266.655366 
L 137.458492 254.879497 
L 150.509931 236.575711 
L 153.772791 231.173835 
L 155.404221 228.152846 
L 157.035651 224.867912 
L 158.667081 221.285645 
L 160.298511 217.378516 
L 161.929941 213.126596 
L 163.56137 208.519103 
L 166.82423 198.24719 
L 170.08709 186.697439 
L 173.34995 174.186977 
L 181.507099 142.01222 
L 184.769959 130.259922 
L 188.032819 119.846867 
L 189.664249 115.225597 
L 191.295678 111.012444 
L 192.927108 107.204229 
L 194.558538 103.785505 
L 196.189968 100.730194 
L 197.821398 98.00377 
L 199.452828 95.565845 
L 201.084258 93.372968 
L 204.347117 89.55007 
L 207.609977 86.228416 
L 210.872837 83.20267 
L 214.135697 80.398958 
L 217.398556 77.86786 
L 220.661416 75.750516 
L 222.292846 74.90519 
L 223.924276 74.235687 
L 225.555706 73.767341 
L 227.187136 73.525097 
L 228.818566 73.533422 
L 230.449995 73.816394 
L 232.081425 74.397889 
L 233.712855 75.301702 
L 235.344285 76.551524 
L 236.975715 78.170649 
L 238.607145 80.181372 
L 240.238575 82.604042 
L 241.870005 85.455814 
L 243.501434 88.749168 
L 245.132864 92.490309 
L 246.764294 96.677591 
L 248.395724 101.30013 
L 250.027154 106.336746 
L 253.290014 117.513108 
L 256.552873 129.824151 
L 266.341453 168.085513 
L 269.604312 179.453179 
L 272.867172 189.502792 
L 274.498602 193.997106 
L 276.130032 198.143714 
L 277.761462 201.961043 
L 279.392892 205.476591 
L 282.655751 211.744478 
L 285.918611 217.262641 
L 290.812901 224.805153 
L 305.49577 246.551378 
L 308.75863 251.004166 
L 312.021489 255.107128 
L 315.284349 258.823724 
L 318.547209 262.184644 
L 323.441498 266.765023 
L 331.598648 274.174553 
L 336.492937 278.901514 
L 344.650087 286.911922 
L 347.912947 289.852309 
L 351.175806 292.474361 
L 354.438666 294.704235 
L 357.701526 296.514213 
L 360.964386 297.925784 
L 364.227245 299.003299 
L 367.490105 299.839666 
L 374.015825 301.187341 
L 380.541544 302.571933 
L 393.592983 305.533991 
L 398.487273 306.359044 
L 398.487273 306.359044 
" clip-path="url(#p5267172e24)" style="fill: none; stroke: #ff7f0e; stroke-width: 1.5; stroke-linecap: square"/>
   </g>
   <g id="line2d_15">
    <path d="M 73.832727 307.325106 
L 80.358447 306.930836 
L 85.252736 306.40701 
L 90.147026 305.624984 
L 95.041316 304.533151 
L 98.304175 303.603888 
L 101.567035 302.484302 
L 104.829895 301.138456 
L 108.092755 299.520074 
L 111.355614 297.575555 
L 114.618474 295.250005 
L 117.881334 292.494364 
L 121.144194 289.270888 
L 124.407053 285.5546 
L 127.669913 281.330068 
L 130.932773 276.585286 
L 134.195633 271.306282 
L 137.458492 265.476281 
L 140.721352 259.081388 
L 143.984212 252.121541 
L 147.247072 244.622485 
L 150.509931 236.643339 
L 155.404221 223.981472 
L 165.1928 197.599038 
L 171.71852 180.28843 
L 176.61281 167.808782 
L 181.507099 155.92424 
L 186.401389 144.744729 
L 191.295678 134.283921 
L 196.189968 124.431154 
L 201.084258 115.057167 
L 205.978547 106.210968 
L 209.241407 100.753874 
L 212.504267 95.795736 
L 215.767127 91.438741 
L 219.029986 87.722872 
L 222.292846 84.621092 
L 225.555706 82.074825 
L 227.187136 80.998576 
L 228.818566 80.057476 
L 230.449995 79.263612 
L 232.081425 78.637369 
L 233.712855 78.207243 
L 235.344285 78.008778 
L 236.975715 78.082691 
L 238.607145 78.472356 
L 240.238575 79.220864 
L 241.870005 80.36794 
L 243.501434 81.946975 
L 245.132864 83.98244 
L 246.764294 86.487874 
L 248.395724 89.464593 
L 250.027154 92.901207 
L 251.658584 96.773916 
L 253.290014 101.047562 
L 256.552873 110.610704 
L 259.815733 121.156137 
L 271.235742 159.429661 
L 274.498602 169.49342 
L 277.761462 178.947114 
L 281.024322 187.807611 
L 284.287181 196.117585 
L 287.550041 203.9126 
L 290.812901 211.20762 
L 294.075761 218.003314 
L 297.33862 224.304228 
L 300.60148 230.136965 
L 303.86434 235.558739 
L 308.75863 243.107203 
L 315.284349 252.569719 
L 328.335788 271.020102 
L 333.230078 277.593205 
L 336.492937 281.638038 
L 339.755797 285.279226 
L 343.018657 288.421735 
L 346.281517 291.010808 
L 347.912947 292.094771 
L 351.175806 293.863935 
L 354.438666 295.161781 
L 357.701526 296.081977 
L 360.964386 296.722974 
L 365.858675 297.342795 
L 372.384395 297.821874 
L 383.804404 298.549203 
L 388.698693 299.177254 
L 391.961553 299.784111 
L 396.855843 300.968423 
L 398.487273 301.420376 
L 398.487273 301.420376 
" clip-path="url(#p5267172e24)" style="fill: none; stroke: #1f77b4; stroke-width: 1.5; stroke-linecap: square"/>
   </g>
   <g id="patch_57">
    <path d="M 57.6 307.584 
L 57.6 41.472 
" style="fill: none; stroke: #000000; stroke-width: 0.8; stroke-linejoin: miter; stroke-linecap: square"/>
   </g>
   <g id="patch_58">
    <path d="M 414.72 307.584 
L 414.72 41.472 
" style="fill: none; stroke: #000000; stroke-width: 0.8; stroke-linejoin: miter; stroke-linecap: square"/>
   </g>
   <g id="patch_59">
    <path d="M 57.6 307.584 
L 414.72 307.584 
" style="fill: none; stroke: #000000; stroke-width: 0.8; stroke-linejoin: miter; stroke-linecap: square"/>
   </g>
   <g id="patch_60">
    <path d="M 57.6 41.472 
L 414.72 41.472 
" style="fill: none; stroke: #000000; stroke-width: 0.8; stroke-linejoin: miter; stroke-linecap: square"/>
   </g>
   <g id="legend_1">
    <g id="patch_61">
     <path d="M 263.546562 79.3845 
L 407.72 79.3845 
Q 409.72 79.3845 409.72 77.3845 
L 409.72 48.472 
Q 409.72 46.472 407.72 46.472 
L 263.546562 46.472 
Q 261.546562 46.472 261.546562 48.472 
L 261.546562 77.3845 
Q 261.546562 79.3845 263.546562 79.3845 
z
" style="fill: #ffffff; opacity: 0.8; stroke: #cccccc; stroke-linejoin: miter"/>
    </g>
    <g id="patch_62">
     <path d="M 265.546562 58.070438 
L 285.546562 58.070438 
L 285.546562 51.070438 
L 265.546562 51.070438 
z
" style="fill: #1f77b4; fill-opacity: 0.5; stroke: #000000; stroke-linejoin: miter"/>
    </g>
    <g id="text_15">
     <!-- perfect_match = True -->
     <g transform="translate(293.546562 58.070438) scale(0.1 -0.1)">
      <defs>
       <path id="DejaVuSans-70" d="M 1159 525 
L 1159 -1331 
L 581 -1331 
L 581 3500 
L 1159 3500 
L 1159 2969 
Q 1341 3281 1617 3432 
Q 1894 3584 2278 3584 
Q 2916 3584 3314 3078 
Q 3713 2572 3713 1747 
Q 3713 922 3314 415 
Q 2916 -91 2278 -91 
Q 1894 -91 1617 61 
Q 1341 213 1159 525 
z
M 3116 1747 
Q 3116 2381 2855 2742 
Q 2594 3103 2138 3103 
Q 1681 3103 1420 2742 
Q 1159 2381 1159 1747 
Q 1159 1113 1420 752 
Q 1681 391 2138 391 
Q 2594 391 2855 752 
Q 3116 1113 3116 1747 
z
" transform="scale(0.015625)"/>
       <path id="DejaVuSans-65" d="M 3597 1894 
L 3597 1613 
L 953 1613 
Q 991 1019 1311 708 
Q 1631 397 2203 397 
Q 2534 397 2845 478 
Q 3156 559 3463 722 
L 3463 178 
Q 3153 47 2828 -22 
Q 2503 -91 2169 -91 
Q 1331 -91 842 396 
Q 353 884 353 1716 
Q 353 2575 817 3079 
Q 1281 3584 2069 3584 
Q 2775 3584 3186 3129 
Q 3597 2675 3597 1894 
z
M 3022 2063 
Q 3016 2534 2758 2815 
Q 2500 3097 2075 3097 
Q 1594 3097 1305 2825 
Q 1016 2553 972 2059 
L 3022 2063 
z
" transform="scale(0.015625)"/>
       <path id="DejaVuSans-72" d="M 2631 2963 
Q 2534 3019 2420 3045 
Q 2306 3072 2169 3072 
Q 1681 3072 1420 2755 
Q 1159 2438 1159 1844 
L 1159 0 
L 581 0 
L 581 3500 
L 1159 3500 
L 1159 2956 
Q 1341 3275 1631 3429 
Q 1922 3584 2338 3584 
Q 2397 3584 2469 3576 
Q 2541 3569 2628 3553 
L 2631 2963 
z
" transform="scale(0.015625)"/>
       <path id="DejaVuSans-66" d="M 2375 4863 
L 2375 4384 
L 1825 4384 
Q 1516 4384 1395 4259 
Q 1275 4134 1275 3809 
L 1275 3500 
L 2222 3500 
L 2222 3053 
L 1275 3053 
L 1275 0 
L 697 0 
L 697 3053 
L 147 3053 
L 147 3500 
L 697 3500 
L 697 3744 
Q 697 4328 969 4595 
Q 1241 4863 1831 4863 
L 2375 4863 
z
" transform="scale(0.015625)"/>
       <path id="DejaVuSans-63" d="M 3122 3366 
L 3122 2828 
Q 2878 2963 2633 3030 
Q 2388 3097 2138 3097 
Q 1578 3097 1268 2742 
Q 959 2388 959 1747 
Q 959 1106 1268 751 
Q 1578 397 2138 397 
Q 2388 397 2633 464 
Q 2878 531 3122 666 
L 3122 134 
Q 2881 22 2623 -34 
Q 2366 -91 2075 -91 
Q 1284 -91 818 406 
Q 353 903 353 1747 
Q 353 2603 823 3093 
Q 1294 3584 2113 3584 
Q 2378 3584 2631 3529 
Q 2884 3475 3122 3366 
z
" transform="scale(0.015625)"/>
       <path id="DejaVuSans-5f" d="M 3263 -1063 
L 3263 -1509 
L -63 -1509 
L -63 -1063 
L 3263 -1063 
z
" transform="scale(0.015625)"/>
       <path id="DejaVuSans-6d" d="M 3328 2828 
Q 3544 3216 3844 3400 
Q 4144 3584 4550 3584 
Q 5097 3584 5394 3201 
Q 5691 2819 5691 2113 
L 5691 0 
L 5113 0 
L 5113 2094 
Q 5113 2597 4934 2840 
Q 4756 3084 4391 3084 
Q 3944 3084 3684 2787 
Q 3425 2491 3425 1978 
L 3425 0 
L 2847 0 
L 2847 2094 
Q 2847 2600 2669 2842 
Q 2491 3084 2119 3084 
Q 1678 3084 1418 2786 
Q 1159 2488 1159 1978 
L 1159 0 
L 581 0 
L 581 3500 
L 1159 3500 
L 1159 2956 
Q 1356 3278 1631 3431 
Q 1906 3584 2284 3584 
Q 2666 3584 2933 3390 
Q 3200 3197 3328 2828 
z
" transform="scale(0.015625)"/>
       <path id="DejaVuSans-61" d="M 2194 1759 
Q 1497 1759 1228 1600 
Q 959 1441 959 1056 
Q 959 750 1161 570 
Q 1363 391 1709 391 
Q 2188 391 2477 730 
Q 2766 1069 2766 1631 
L 2766 1759 
L 2194 1759 
z
M 3341 1997 
L 3341 0 
L 2766 0 
L 2766 531 
Q 2569 213 2275 61 
Q 1981 -91 1556 -91 
Q 1019 -91 701 211 
Q 384 513 384 1019 
Q 384 1609 779 1909 
Q 1175 2209 1959 2209 
L 2766 2209 
L 2766 2266 
Q 2766 2663 2505 2880 
Q 2244 3097 1772 3097 
Q 1472 3097 1187 3025 
Q 903 2953 641 2809 
L 641 3341 
Q 956 3463 1253 3523 
Q 1550 3584 1831 3584 
Q 2591 3584 2966 3190 
Q 3341 2797 3341 1997 
z
" transform="scale(0.015625)"/>
       <path id="DejaVuSans-68" d="M 3513 2113 
L 3513 0 
L 2938 0 
L 2938 2094 
Q 2938 2591 2744 2837 
Q 2550 3084 2163 3084 
Q 1697 3084 1428 2787 
Q 1159 2491 1159 1978 
L 1159 0 
L 581 0 
L 581 4863 
L 1159 4863 
L 1159 2956 
Q 1366 3272 1645 3428 
Q 1925 3584 2291 3584 
Q 2894 3584 3203 3211 
Q 3513 2838 3513 2113 
z
" transform="scale(0.015625)"/>
       <path id="DejaVuSans-20" transform="scale(0.015625)"/>
       <path id="DejaVuSans-3d" d="M 678 2906 
L 4684 2906 
L 4684 2381 
L 678 2381 
L 678 2906 
z
M 678 1631 
L 4684 1631 
L 4684 1100 
L 678 1100 
L 678 1631 
z
" transform="scale(0.015625)"/>
       <path id="DejaVuSans-54" d="M -19 4666 
L 3928 4666 
L 3928 4134 
L 2272 4134 
L 2272 0 
L 1638 0 
L 1638 4134 
L -19 4134 
L -19 4666 
z
" transform="scale(0.015625)"/>
      </defs>
      <use xlink:href="#DejaVuSans-70"/>
      <use xlink:href="#DejaVuSans-65" x="63.476562"/>
      <use xlink:href="#DejaVuSans-72" x="125"/>
      <use xlink:href="#DejaVuSans-66" x="166.113281"/>
      <use xlink:href="#DejaVuSans-65" x="201.318359"/>
      <use xlink:href="#DejaVuSans-63" x="262.841797"/>
      <use xlink:href="#DejaVuSans-74" x="317.822266"/>
      <use xlink:href="#DejaVuSans-5f" x="357.03125"/>
      <use xlink:href="#DejaVuSans-6d" x="407.03125"/>
      <use xlink:href="#DejaVuSans-61" x="504.443359"/>
      <use xlink:href="#DejaVuSans-74" x="565.722656"/>
      <use xlink:href="#DejaVuSans-63" x="604.931641"/>
      <use xlink:href="#DejaVuSans-68" x="659.912109"/>
      <use xlink:href="#DejaVuSans-20" x="723.291016"/>
      <use xlink:href="#DejaVuSans-3d" x="755.078125"/>
      <use xlink:href="#DejaVuSans-20" x="838.867188"/>
      <use xlink:href="#DejaVuSans-54" x="870.654297"/>
      <use xlink:href="#DejaVuSans-72" x="916.988281"/>
      <use xlink:href="#DejaVuSans-75" x="958.101562"/>
      <use xlink:href="#DejaVuSans-65" x="1021.480469"/>
     </g>
    </g>
    <g id="patch_63">
     <path d="M 265.546562 73.026688 
L 285.546562 73.026688 
L 285.546562 66.026688 
L 265.546562 66.026688 
z
" style="fill: #ff7f0e; fill-opacity: 0.5; stroke: #000000; stroke-linejoin: miter"/>
    </g>
    <g id="text_16">
     <!-- perfect_match = False -->
     <g transform="translate(293.546562 73.026688) scale(0.1 -0.1)">
      <defs>
       <path id="DejaVuSans-46" d="M 628 4666 
L 3309 4666 
L 3309 4134 
L 1259 4134 
L 1259 2759 
L 3109 2759 
L 3109 2228 
L 1259 2228 
L 1259 0 
L 628 0 
L 628 4666 
z
" transform="scale(0.015625)"/>
       <path id="DejaVuSans-6c" d="M 603 4863 
L 1178 4863 
L 1178 0 
L 603 0 
L 603 4863 
z
" transform="scale(0.015625)"/>
       <path id="DejaVuSans-73" d="M 2834 3397 
L 2834 2853 
Q 2591 2978 2328 3040 
Q 2066 3103 1784 3103 
Q 1356 3103 1142 2972 
Q 928 2841 928 2578 
Q 928 2378 1081 2264 
Q 1234 2150 1697 2047 
L 1894 2003 
Q 2506 1872 2764 1633 
Q 3022 1394 3022 966 
Q 3022 478 2636 193 
Q 2250 -91 1575 -91 
Q 1294 -91 989 -36 
Q 684 19 347 128 
L 347 722 
Q 666 556 975 473 
Q 1284 391 1588 391 
Q 1994 391 2212 530 
Q 2431 669 2431 922 
Q 2431 1156 2273 1281 
Q 2116 1406 1581 1522 
L 1381 1569 
Q 847 1681 609 1914 
Q 372 2147 372 2553 
Q 372 3047 722 3315 
Q 1072 3584 1716 3584 
Q 2034 3584 2315 3537 
Q 2597 3491 2834 3397 
z
" transform="scale(0.015625)"/>
      </defs>
      <use xlink:href="#DejaVuSans-70"/>
      <use xlink:href="#DejaVuSans-65" x="63.476562"/>
      <use xlink:href="#DejaVuSans-72" x="125"/>
      <use xlink:href="#DejaVuSans-66" x="166.113281"/>
      <use xlink:href="#DejaVuSans-65" x="201.318359"/>
      <use xlink:href="#DejaVuSans-63" x="262.841797"/>
      <use xlink:href="#DejaVuSans-74" x="317.822266"/>
      <use xlink:href="#DejaVuSans-5f" x="357.03125"/>
      <use xlink:href="#DejaVuSans-6d" x="407.03125"/>
      <use xlink:href="#DejaVuSans-61" x="504.443359"/>
      <use xlink:href="#DejaVuSans-74" x="565.722656"/>
      <use xlink:href="#DejaVuSans-63" x="604.931641"/>
      <use xlink:href="#DejaVuSans-68" x="659.912109"/>
      <use xlink:href="#DejaVuSans-20" x="723.291016"/>
      <use xlink:href="#DejaVuSans-3d" x="755.078125"/>
      <use xlink:href="#DejaVuSans-20" x="838.867188"/>
      <use xlink:href="#DejaVuSans-46" x="870.654297"/>
      <use xlink:href="#DejaVuSans-61" x="919.048828"/>
      <use xlink:href="#DejaVuSans-6c" x="980.328125"/>
      <use xlink:href="#DejaVuSans-73" x="1008.111328"/>
      <use xlink:href="#DejaVuSans-65" x="1060.210938"/>
     </g>
    </g>
   </g>
  </g>
  <g id="text_17">
   <!-- recursive fn_False_xlm-roberta-base_384 -->
   <g transform="translate(107.739375 16.030125) scale(0.12 -0.12)">
    <defs>
     <path id="DejaVuSans-69" d="M 603 3500 
L 1178 3500 
L 1178 0 
L 603 0 
L 603 3500 
z
M 603 4863 
L 1178 4863 
L 1178 4134 
L 603 4134 
L 603 4863 
z
" transform="scale(0.015625)"/>
     <path id="DejaVuSans-76" d="M 191 3500 
L 800 3500 
L 1894 563 
L 2988 3500 
L 3597 3500 
L 2284 0 
L 1503 0 
L 191 3500 
z
" transform="scale(0.015625)"/>
     <path id="DejaVuSans-78" d="M 3513 3500 
L 2247 1797 
L 3578 0 
L 2900 0 
L 1881 1375 
L 863 0 
L 184 0 
L 1544 1831 
L 300 3500 
L 978 3500 
L 1906 2253 
L 2834 3500 
L 3513 3500 
z
" transform="scale(0.015625)"/>
     <path id="DejaVuSans-2d" d="M 313 2009 
L 1997 2009 
L 1997 1497 
L 313 1497 
L 313 2009 
z
" transform="scale(0.015625)"/>
     <path id="DejaVuSans-62" d="M 3116 1747 
Q 3116 2381 2855 2742 
Q 2594 3103 2138 3103 
Q 1681 3103 1420 2742 
Q 1159 2381 1159 1747 
Q 1159 1113 1420 752 
Q 1681 391 2138 391 
Q 2594 391 2855 752 
Q 3116 1113 3116 1747 
z
M 1159 2969 
Q 1341 3281 1617 3432 
Q 1894 3584 2278 3584 
Q 2916 3584 3314 3078 
Q 3713 2572 3713 1747 
Q 3713 922 3314 415 
Q 2916 -91 2278 -91 
Q 1894 -91 1617 61 
Q 1341 213 1159 525 
L 1159 0 
L 581 0 
L 581 4863 
L 1159 4863 
L 1159 2969 
z
" transform="scale(0.015625)"/>
     <path id="DejaVuSans-38" d="M 2034 2216 
Q 1584 2216 1326 1975 
Q 1069 1734 1069 1313 
Q 1069 891 1326 650 
Q 1584 409 2034 409 
Q 2484 409 2743 651 
Q 3003 894 3003 1313 
Q 3003 1734 2745 1975 
Q 2488 2216 2034 2216 
z
M 1403 2484 
Q 997 2584 770 2862 
Q 544 3141 544 3541 
Q 544 4100 942 4425 
Q 1341 4750 2034 4750 
Q 2731 4750 3128 4425 
Q 3525 4100 3525 3541 
Q 3525 3141 3298 2862 
Q 3072 2584 2669 2484 
Q 3125 2378 3379 2068 
Q 3634 1759 3634 1313 
Q 3634 634 3220 271 
Q 2806 -91 2034 -91 
Q 1263 -91 848 271 
Q 434 634 434 1313 
Q 434 1759 690 2068 
Q 947 2378 1403 2484 
z
M 1172 3481 
Q 1172 3119 1398 2916 
Q 1625 2713 2034 2713 
Q 2441 2713 2670 2916 
Q 2900 3119 2900 3481 
Q 2900 3844 2670 4047 
Q 2441 4250 2034 4250 
Q 1625 4250 1398 4047 
Q 1172 3844 1172 3481 
z
" transform="scale(0.015625)"/>
    </defs>
    <use xlink:href="#DejaVuSans-72"/>
    <use xlink:href="#DejaVuSans-65" x="38.863281"/>
    <use xlink:href="#DejaVuSans-63" x="100.386719"/>
    <use xlink:href="#DejaVuSans-75" x="155.367188"/>
    <use xlink:href="#DejaVuSans-72" x="218.746094"/>
    <use xlink:href="#DejaVuSans-73" x="259.859375"/>
    <use xlink:href="#DejaVuSans-69" x="311.958984"/>
    <use xlink:href="#DejaVuSans-76" x="339.742188"/>
    <use xlink:href="#DejaVuSans-65" x="398.921875"/>
    <use xlink:href="#DejaVuSans-20" x="460.445312"/>
    <use xlink:href="#DejaVuSans-66" x="492.232422"/>
    <use xlink:href="#DejaVuSans-6e" x="527.4375"/>
    <use xlink:href="#DejaVuSans-5f" x="590.816406"/>
    <use xlink:href="#DejaVuSans-46" x="640.816406"/>
    <use xlink:href="#DejaVuSans-61" x="689.210938"/>
    <use xlink:href="#DejaVuSans-6c" x="750.490234"/>
    <use xlink:href="#DejaVuSans-73" x="778.273438"/>
    <use xlink:href="#DejaVuSans-65" x="830.373047"/>
    <use xlink:href="#DejaVuSans-5f" x="891.896484"/>
    <use xlink:href="#DejaVuSans-78" x="941.896484"/>
    <use xlink:href="#DejaVuSans-6c" x="1001.076172"/>
    <use xlink:href="#DejaVuSans-6d" x="1028.859375"/>
    <use xlink:href="#DejaVuSans-2d" x="1126.271484"/>
    <use xlink:href="#DejaVuSans-72" x="1162.355469"/>
    <use xlink:href="#DejaVuSans-6f" x="1201.21875"/>
    <use xlink:href="#DejaVuSans-62" x="1262.400391"/>
    <use xlink:href="#DejaVuSans-65" x="1325.876953"/>
    <use xlink:href="#DejaVuSans-72" x="1387.400391"/>
    <use xlink:href="#DejaVuSans-74" x="1428.513672"/>
    <use xlink:href="#DejaVuSans-61" x="1467.722656"/>
    <use xlink:href="#DejaVuSans-2d" x="1529.001953"/>
    <use xlink:href="#DejaVuSans-62" x="1565.085938"/>
    <use xlink:href="#DejaVuSans-61" x="1628.5625"/>
    <use xlink:href="#DejaVuSans-73" x="1689.841797"/>
    <use xlink:href="#DejaVuSans-65" x="1741.941406"/>
    <use xlink:href="#DejaVuSans-5f" x="1803.464844"/>
    <use xlink:href="#DejaVuSans-33" x="1853.464844"/>
    <use xlink:href="#DejaVuSans-38" x="1917.087891"/>
    <use xlink:href="#DejaVuSans-34" x="1980.710938"/>
   </g>
  </g>
 </g>
 <defs>
  <clipPath id="p5267172e24">
   <rect x="57.6" y="41.472" width="357.12" height="266.112"/>
  </clipPath>
 </defs>
</svg>
