<?xml version="1.0" encoding="utf-8" standalone="no"?>
<!DOCTYPE svg PUBLIC "-//W3C//DTD SVG 1.1//EN"
  "http://www.w3.org/Graphics/SVG/1.1/DTD/svg11.dtd">
<svg xmlns:xlink="http://www.w3.org/1999/xlink" width="460.8pt" height="345.6pt" viewBox="0 0 460.8 345.6" xmlns="http://www.w3.org/2000/svg" version="1.1">
 <metadata>
  <rdf:RDF xmlns:dc="http://purl.org/dc/elements/1.1/" xmlns:cc="http://creativecommons.org/ns#" xmlns:rdf="http://www.w3.org/1999/02/22-rdf-syntax-ns#">
   <cc:Work>
    <dc:type rdf:resource="http://purl.org/dc/dcmitype/StillImage"/>
    <dc:date>2024-03-07T15:39:48.079780</dc:date>
    <dc:format>image/svg+xml</dc:format>
    <dc:creator>
     <cc:Agent>
      <dc:title>Matplotlib v3.6.3, https://matplotlib.org/</dc:title>
     </cc:Agent>
    </dc:creator>
   </cc:Work>
  </rdf:RDF>
 </metadata>
 <defs>
  <style type="text/css">*{stroke-linejoin: round; stroke-linecap: butt}</style>
 </defs>
 <g id="figure_1">
  <g id="patch_1">
   <path d="M 0 345.6 
L 460.8 345.6 
L 460.8 0 
L 0 0 
z
" style="fill: #ffffff"/>
  </g>
  <g id="axes_1">
   <g id="patch_2">
    <path d="M 57.6 307.584 
L 414.72 307.584 
L 414.72 41.472 
L 57.6 41.472 
z
" style="fill: #ffffff"/>
   </g>
   <g id="patch_3">
    <path d="M 73.832727 307.584 
L 77.112066 307.584 
L 77.112066 307.584 
L 73.832727 307.584 
z
" clip-path="url(#p0d84bc21d0)" style="fill: #ff7f0e; fill-opacity: 0.5; stroke: #000000; stroke-width: 0.327934; stroke-linejoin: miter"/>
   </g>
   <g id="patch_4">
    <path d="M 77.112066 307.584 
L 80.391405 307.584 
L 80.391405 307.584 
L 77.112066 307.584 
z
" clip-path="url(#p0d84bc21d0)" style="fill: #ff7f0e; fill-opacity: 0.5; stroke: #000000; stroke-width: 0.327934; stroke-linejoin: miter"/>
   </g>
   <g id="patch_5">
    <path d="M 80.391405 307.584 
L 83.670744 307.584 
L 83.670744 307.584 
L 80.391405 307.584 
z
" clip-path="url(#p0d84bc21d0)" style="fill: #ff7f0e; fill-opacity: 0.5; stroke: #000000; stroke-width: 0.327934; stroke-linejoin: miter"/>
   </g>
   <g id="patch_6">
    <path d="M 83.670744 307.584 
L 86.950083 307.584 
L 86.950083 307.584 
L 83.670744 307.584 
z
" clip-path="url(#p0d84bc21d0)" style="fill: #ff7f0e; fill-opacity: 0.5; stroke: #000000; stroke-width: 0.327934; stroke-linejoin: miter"/>
   </g>
   <g id="patch_7">
    <path d="M 86.950083 307.584 
L 90.229421 307.584 
L 90.229421 307.584 
L 86.950083 307.584 
z
" clip-path="url(#p0d84bc21d0)" style="fill: #ff7f0e; fill-opacity: 0.5; stroke: #000000; stroke-width: 0.327934; stroke-linejoin: miter"/>
   </g>
   <g id="patch_8">
    <path d="M 90.229421 307.584 
L 93.50876 307.584 
L 93.50876 307.584 
L 90.229421 307.584 
z
" clip-path="url(#p0d84bc21d0)" style="fill: #ff7f0e; fill-opacity: 0.5; stroke: #000000; stroke-width: 0.327934; stroke-linejoin: miter"/>
   </g>
   <g id="patch_9">
    <path d="M 93.50876 307.584 
L 96.788099 307.584 
L 96.788099 307.584 
L 93.50876 307.584 
z
" clip-path="url(#p0d84bc21d0)" style="fill: #ff7f0e; fill-opacity: 0.5; stroke: #000000; stroke-width: 0.327934; stroke-linejoin: miter"/>
   </g>
   <g id="patch_10">
    <path d="M 96.788099 307.584 
L 100.067438 307.584 
L 100.067438 307.584 
L 96.788099 307.584 
z
" clip-path="url(#p0d84bc21d0)" style="fill: #ff7f0e; fill-opacity: 0.5; stroke: #000000; stroke-width: 0.327934; stroke-linejoin: miter"/>
   </g>
   <g id="patch_11">
    <path d="M 100.067438 307.584 
L 103.346777 307.584 
L 103.346777 307.584 
L 100.067438 307.584 
z
" clip-path="url(#p0d84bc21d0)" style="fill: #ff7f0e; fill-opacity: 0.5; stroke: #000000; stroke-width: 0.327934; stroke-linejoin: miter"/>
   </g>
   <g id="patch_12">
    <path d="M 103.346777 307.584 
L 106.626116 307.584 
L 106.626116 307.584 
L 103.346777 307.584 
z
" clip-path="url(#p0d84bc21d0)" style="fill: #ff7f0e; fill-opacity: 0.5; stroke: #000000; stroke-width: 0.327934; stroke-linejoin: miter"/>
   </g>
   <g id="patch_13">
    <path d="M 106.626116 307.584 
L 109.905455 307.584 
L 109.905455 307.584 
L 106.626116 307.584 
z
" clip-path="url(#p0d84bc21d0)" style="fill: #ff7f0e; fill-opacity: 0.5; stroke: #000000; stroke-width: 0.327934; stroke-linejoin: miter"/>
   </g>
   <g id="patch_14">
    <path d="M 109.905455 307.584 
L 113.184793 307.584 
L 113.184793 307.584 
L 109.905455 307.584 
z
" clip-path="url(#p0d84bc21d0)" style="fill: #ff7f0e; fill-opacity: 0.5; stroke: #000000; stroke-width: 0.327934; stroke-linejoin: miter"/>
   </g>
   <g id="patch_15">
    <path d="M 113.184793 307.584 
L 116.464132 307.584 
L 116.464132 307.584 
L 113.184793 307.584 
z
" clip-path="url(#p0d84bc21d0)" style="fill: #ff7f0e; fill-opacity: 0.5; stroke: #000000; stroke-width: 0.327934; stroke-linejoin: miter"/>
   </g>
   <g id="patch_16">
    <path d="M 116.464132 307.584 
L 119.743471 307.584 
L 119.743471 307.584 
L 116.464132 307.584 
z
" clip-path="url(#p0d84bc21d0)" style="fill: #ff7f0e; fill-opacity: 0.5; stroke: #000000; stroke-width: 0.327934; stroke-linejoin: miter"/>
   </g>
   <g id="patch_17">
    <path d="M 119.743471 307.584 
L 123.02281 307.584 
L 123.02281 307.584 
L 119.743471 307.584 
z
" clip-path="url(#p0d84bc21d0)" style="fill: #ff7f0e; fill-opacity: 0.5; stroke: #000000; stroke-width: 0.327934; stroke-linejoin: miter"/>
   </g>
   <g id="patch_18">
    <path d="M 123.02281 307.584 
L 126.302149 307.584 
L 126.302149 307.334796 
L 123.02281 307.334796 
z
" clip-path="url(#p0d84bc21d0)" style="fill: #ff7f0e; fill-opacity: 0.5; stroke: #000000; stroke-width: 0.327934; stroke-linejoin: miter"/>
   </g>
   <g id="patch_19">
    <path d="M 126.302149 307.584 
L 129.581488 307.584 
L 129.581488 307.584 
L 126.302149 307.584 
z
" clip-path="url(#p0d84bc21d0)" style="fill: #ff7f0e; fill-opacity: 0.5; stroke: #000000; stroke-width: 0.327934; stroke-linejoin: miter"/>
   </g>
   <g id="patch_20">
    <path d="M 129.581488 307.584 
L 132.860826 307.584 
L 132.860826 307.584 
L 129.581488 307.584 
z
" clip-path="url(#p0d84bc21d0)" style="fill: #ff7f0e; fill-opacity: 0.5; stroke: #000000; stroke-width: 0.327934; stroke-linejoin: miter"/>
   </g>
   <g id="patch_21">
    <path d="M 132.860826 307.584 
L 136.140165 307.584 
L 136.140165 307.584 
L 132.860826 307.584 
z
" clip-path="url(#p0d84bc21d0)" style="fill: #ff7f0e; fill-opacity: 0.5; stroke: #000000; stroke-width: 0.327934; stroke-linejoin: miter"/>
   </g>
   <g id="patch_22">
    <path d="M 136.140165 307.584 
L 139.419504 307.584 
L 139.419504 307.584 
L 136.140165 307.584 
z
" clip-path="url(#p0d84bc21d0)" style="fill: #ff7f0e; fill-opacity: 0.5; stroke: #000000; stroke-width: 0.327934; stroke-linejoin: miter"/>
   </g>
   <g id="patch_23">
    <path d="M 139.419504 307.584 
L 142.698843 307.584 
L 142.698843 307.584 
L 139.419504 307.584 
z
" clip-path="url(#p0d84bc21d0)" style="fill: #ff7f0e; fill-opacity: 0.5; stroke: #000000; stroke-width: 0.327934; stroke-linejoin: miter"/>
   </g>
   <g id="patch_24">
    <path d="M 142.698843 307.584 
L 145.978182 307.584 
L 145.978182 307.584 
L 142.698843 307.584 
z
" clip-path="url(#p0d84bc21d0)" style="fill: #ff7f0e; fill-opacity: 0.5; stroke: #000000; stroke-width: 0.327934; stroke-linejoin: miter"/>
   </g>
   <g id="patch_25">
    <path d="M 145.978182 307.584 
L 149.257521 307.584 
L 149.257521 307.584 
L 145.978182 307.584 
z
" clip-path="url(#p0d84bc21d0)" style="fill: #ff7f0e; fill-opacity: 0.5; stroke: #000000; stroke-width: 0.327934; stroke-linejoin: miter"/>
   </g>
   <g id="patch_26">
    <path d="M 149.257521 307.584 
L 152.53686 307.584 
L 152.53686 307.085593 
L 149.257521 307.085593 
z
" clip-path="url(#p0d84bc21d0)" style="fill: #ff7f0e; fill-opacity: 0.5; stroke: #000000; stroke-width: 0.327934; stroke-linejoin: miter"/>
   </g>
   <g id="patch_27">
    <path d="M 152.53686 307.584 
L 155.816198 307.584 
L 155.816198 307.584 
L 152.53686 307.584 
z
" clip-path="url(#p0d84bc21d0)" style="fill: #ff7f0e; fill-opacity: 0.5; stroke: #000000; stroke-width: 0.327934; stroke-linejoin: miter"/>
   </g>
   <g id="patch_28">
    <path d="M 155.816198 307.584 
L 159.095537 307.584 
L 159.095537 307.334796 
L 155.816198 307.334796 
z
" clip-path="url(#p0d84bc21d0)" style="fill: #ff7f0e; fill-opacity: 0.5; stroke: #000000; stroke-width: 0.327934; stroke-linejoin: miter"/>
   </g>
   <g id="patch_29">
    <path d="M 159.095537 307.584 
L 162.374876 307.584 
L 162.374876 307.584 
L 159.095537 307.584 
z
" clip-path="url(#p0d84bc21d0)" style="fill: #ff7f0e; fill-opacity: 0.5; stroke: #000000; stroke-width: 0.327934; stroke-linejoin: miter"/>
   </g>
   <g id="patch_30">
    <path d="M 162.374876 307.584 
L 165.654215 307.584 
L 165.654215 307.584 
L 162.374876 307.584 
z
" clip-path="url(#p0d84bc21d0)" style="fill: #ff7f0e; fill-opacity: 0.5; stroke: #000000; stroke-width: 0.327934; stroke-linejoin: miter"/>
   </g>
   <g id="patch_31">
    <path d="M 165.654215 307.584 
L 168.933554 307.584 
L 168.933554 307.584 
L 165.654215 307.584 
z
" clip-path="url(#p0d84bc21d0)" style="fill: #ff7f0e; fill-opacity: 0.5; stroke: #000000; stroke-width: 0.327934; stroke-linejoin: miter"/>
   </g>
   <g id="patch_32">
    <path d="M 168.933554 307.584 
L 172.212893 307.584 
L 172.212893 307.584 
L 168.933554 307.584 
z
" clip-path="url(#p0d84bc21d0)" style="fill: #ff7f0e; fill-opacity: 0.5; stroke: #000000; stroke-width: 0.327934; stroke-linejoin: miter"/>
   </g>
   <g id="patch_33">
    <path d="M 172.212893 307.584 
L 175.492231 307.584 
L 175.492231 307.334796 
L 172.212893 307.334796 
z
" clip-path="url(#p0d84bc21d0)" style="fill: #ff7f0e; fill-opacity: 0.5; stroke: #000000; stroke-width: 0.327934; stroke-linejoin: miter"/>
   </g>
   <g id="patch_34">
    <path d="M 175.492231 307.584 
L 178.77157 307.584 
L 178.77157 307.334796 
L 175.492231 307.334796 
z
" clip-path="url(#p0d84bc21d0)" style="fill: #ff7f0e; fill-opacity: 0.5; stroke: #000000; stroke-width: 0.327934; stroke-linejoin: miter"/>
   </g>
   <g id="patch_35">
    <path d="M 178.77157 307.584 
L 182.050909 307.584 
L 182.050909 307.584 
L 178.77157 307.584 
z
" clip-path="url(#p0d84bc21d0)" style="fill: #ff7f0e; fill-opacity: 0.5; stroke: #000000; stroke-width: 0.327934; stroke-linejoin: miter"/>
   </g>
   <g id="patch_36">
    <path d="M 182.050909 307.584 
L 185.330248 307.584 
L 185.330248 307.584 
L 182.050909 307.584 
z
" clip-path="url(#p0d84bc21d0)" style="fill: #ff7f0e; fill-opacity: 0.5; stroke: #000000; stroke-width: 0.327934; stroke-linejoin: miter"/>
   </g>
   <g id="patch_37">
    <path d="M 185.330248 307.584 
L 188.609587 307.584 
L 188.609587 307.334796 
L 185.330248 307.334796 
z
" clip-path="url(#p0d84bc21d0)" style="fill: #ff7f0e; fill-opacity: 0.5; stroke: #000000; stroke-width: 0.327934; stroke-linejoin: miter"/>
   </g>
   <g id="patch_38">
    <path d="M 188.609587 307.584 
L 191.888926 307.584 
L 191.888926 307.085593 
L 188.609587 307.085593 
z
" clip-path="url(#p0d84bc21d0)" style="fill: #ff7f0e; fill-opacity: 0.5; stroke: #000000; stroke-width: 0.327934; stroke-linejoin: miter"/>
   </g>
   <g id="patch_39">
    <path d="M 191.888926 307.584 
L 195.168264 307.584 
L 195.168264 307.584 
L 191.888926 307.584 
z
" clip-path="url(#p0d84bc21d0)" style="fill: #ff7f0e; fill-opacity: 0.5; stroke: #000000; stroke-width: 0.327934; stroke-linejoin: miter"/>
   </g>
   <g id="patch_40">
    <path d="M 195.168264 307.584 
L 198.447603 307.584 
L 198.447603 307.584 
L 195.168264 307.584 
z
" clip-path="url(#p0d84bc21d0)" style="fill: #ff7f0e; fill-opacity: 0.5; stroke: #000000; stroke-width: 0.327934; stroke-linejoin: miter"/>
   </g>
   <g id="patch_41">
    <path d="M 198.447603 307.584 
L 201.726942 307.584 
L 201.726942 307.584 
L 198.447603 307.584 
z
" clip-path="url(#p0d84bc21d0)" style="fill: #ff7f0e; fill-opacity: 0.5; stroke: #000000; stroke-width: 0.327934; stroke-linejoin: miter"/>
   </g>
   <g id="patch_42">
    <path d="M 201.726942 307.584 
L 205.006281 307.584 
L 205.006281 307.334796 
L 201.726942 307.334796 
z
" clip-path="url(#p0d84bc21d0)" style="fill: #ff7f0e; fill-opacity: 0.5; stroke: #000000; stroke-width: 0.327934; stroke-linejoin: miter"/>
   </g>
   <g id="patch_43">
    <path d="M 205.006281 307.584 
L 208.28562 307.584 
L 208.28562 307.334796 
L 205.006281 307.334796 
z
" clip-path="url(#p0d84bc21d0)" style="fill: #ff7f0e; fill-opacity: 0.5; stroke: #000000; stroke-width: 0.327934; stroke-linejoin: miter"/>
   </g>
   <g id="patch_44">
    <path d="M 208.28562 307.584 
L 211.564959 307.584 
L 211.564959 307.085593 
L 208.28562 307.085593 
z
" clip-path="url(#p0d84bc21d0)" style="fill: #ff7f0e; fill-opacity: 0.5; stroke: #000000; stroke-width: 0.327934; stroke-linejoin: miter"/>
   </g>
   <g id="patch_45">
    <path d="M 211.564959 307.584 
L 214.844298 307.584 
L 214.844298 306.836389 
L 211.564959 306.836389 
z
" clip-path="url(#p0d84bc21d0)" style="fill: #ff7f0e; fill-opacity: 0.5; stroke: #000000; stroke-width: 0.327934; stroke-linejoin: miter"/>
   </g>
   <g id="patch_46">
    <path d="M 214.844298 307.584 
L 218.123636 307.584 
L 218.123636 307.085593 
L 214.844298 307.085593 
z
" clip-path="url(#p0d84bc21d0)" style="fill: #ff7f0e; fill-opacity: 0.5; stroke: #000000; stroke-width: 0.327934; stroke-linejoin: miter"/>
   </g>
   <g id="patch_47">
    <path d="M 218.123636 307.584 
L 221.402975 307.584 
L 221.402975 307.085593 
L 218.123636 307.085593 
z
" clip-path="url(#p0d84bc21d0)" style="fill: #ff7f0e; fill-opacity: 0.5; stroke: #000000; stroke-width: 0.327934; stroke-linejoin: miter"/>
   </g>
   <g id="patch_48">
    <path d="M 221.402975 307.584 
L 224.682314 307.584 
L 224.682314 307.085593 
L 221.402975 307.085593 
z
" clip-path="url(#p0d84bc21d0)" style="fill: #ff7f0e; fill-opacity: 0.5; stroke: #000000; stroke-width: 0.327934; stroke-linejoin: miter"/>
   </g>
   <g id="patch_49">
    <path d="M 224.682314 307.584 
L 227.961653 307.584 
L 227.961653 306.587186 
L 224.682314 306.587186 
z
" clip-path="url(#p0d84bc21d0)" style="fill: #ff7f0e; fill-opacity: 0.5; stroke: #000000; stroke-width: 0.327934; stroke-linejoin: miter"/>
   </g>
   <g id="patch_50">
    <path d="M 227.961653 307.584 
L 231.240992 307.584 
L 231.240992 306.587186 
L 227.961653 306.587186 
z
" clip-path="url(#p0d84bc21d0)" style="fill: #ff7f0e; fill-opacity: 0.5; stroke: #000000; stroke-width: 0.327934; stroke-linejoin: miter"/>
   </g>
   <g id="patch_51">
    <path d="M 231.240992 307.584 
L 234.520331 307.584 
L 234.520331 305.839575 
L 231.240992 305.839575 
z
" clip-path="url(#p0d84bc21d0)" style="fill: #ff7f0e; fill-opacity: 0.5; stroke: #000000; stroke-width: 0.327934; stroke-linejoin: miter"/>
   </g>
   <g id="patch_52">
    <path d="M 234.520331 307.584 
L 237.799669 307.584 
L 237.799669 306.836389 
L 234.520331 306.836389 
z
" clip-path="url(#p0d84bc21d0)" style="fill: #ff7f0e; fill-opacity: 0.5; stroke: #000000; stroke-width: 0.327934; stroke-linejoin: miter"/>
   </g>
   <g id="patch_53">
    <path d="M 237.799669 307.584 
L 241.079008 307.584 
L 241.079008 306.836389 
L 237.799669 306.836389 
z
" clip-path="url(#p0d84bc21d0)" style="fill: #ff7f0e; fill-opacity: 0.5; stroke: #000000; stroke-width: 0.327934; stroke-linejoin: miter"/>
   </g>
   <g id="patch_54">
    <path d="M 241.079008 307.584 
L 244.358347 307.584 
L 244.358347 305.341168 
L 241.079008 305.341168 
z
" clip-path="url(#p0d84bc21d0)" style="fill: #ff7f0e; fill-opacity: 0.5; stroke: #000000; stroke-width: 0.327934; stroke-linejoin: miter"/>
   </g>
   <g id="patch_55">
    <path d="M 244.358347 307.584 
L 247.637686 307.584 
L 247.637686 305.590372 
L 244.358347 305.590372 
z
" clip-path="url(#p0d84bc21d0)" style="fill: #ff7f0e; fill-opacity: 0.5; stroke: #000000; stroke-width: 0.327934; stroke-linejoin: miter"/>
   </g>
   <g id="patch_56">
    <path d="M 247.637686 307.584 
L 250.917025 307.584 
L 250.917025 306.337982 
L 247.637686 306.337982 
z
" clip-path="url(#p0d84bc21d0)" style="fill: #ff7f0e; fill-opacity: 0.5; stroke: #000000; stroke-width: 0.327934; stroke-linejoin: miter"/>
   </g>
   <g id="patch_57">
    <path d="M 250.917025 307.584 
L 254.196364 307.584 
L 254.196364 307.334796 
L 250.917025 307.334796 
z
" clip-path="url(#p0d84bc21d0)" style="fill: #ff7f0e; fill-opacity: 0.5; stroke: #000000; stroke-width: 0.327934; stroke-linejoin: miter"/>
   </g>
   <g id="patch_58">
    <path d="M 254.196364 307.584 
L 257.475702 307.584 
L 257.475702 303.845947 
L 254.196364 303.845947 
z
" clip-path="url(#p0d84bc21d0)" style="fill: #ff7f0e; fill-opacity: 0.5; stroke: #000000; stroke-width: 0.327934; stroke-linejoin: miter"/>
   </g>
   <g id="patch_59">
    <path d="M 257.475702 307.584 
L 260.755041 307.584 
L 260.755041 305.839575 
L 257.475702 305.839575 
z
" clip-path="url(#p0d84bc21d0)" style="fill: #ff7f0e; fill-opacity: 0.5; stroke: #000000; stroke-width: 0.327934; stroke-linejoin: miter"/>
   </g>
   <g id="patch_60">
    <path d="M 260.755041 307.584 
L 264.03438 307.584 
L 264.03438 305.839575 
L 260.755041 305.839575 
z
" clip-path="url(#p0d84bc21d0)" style="fill: #ff7f0e; fill-opacity: 0.5; stroke: #000000; stroke-width: 0.327934; stroke-linejoin: miter"/>
   </g>
   <g id="patch_61">
    <path d="M 264.03438 307.584 
L 267.313719 307.584 
L 267.313719 304.842761 
L 264.03438 304.842761 
z
" clip-path="url(#p0d84bc21d0)" style="fill: #ff7f0e; fill-opacity: 0.5; stroke: #000000; stroke-width: 0.327934; stroke-linejoin: miter"/>
   </g>
   <g id="patch_62">
    <path d="M 267.313719 307.584 
L 270.593058 307.584 
L 270.593058 305.341168 
L 267.313719 305.341168 
z
" clip-path="url(#p0d84bc21d0)" style="fill: #ff7f0e; fill-opacity: 0.5; stroke: #000000; stroke-width: 0.327934; stroke-linejoin: miter"/>
   </g>
   <g id="patch_63">
    <path d="M 270.593058 307.584 
L 273.872397 307.584 
L 273.872397 305.590372 
L 270.593058 305.590372 
z
" clip-path="url(#p0d84bc21d0)" style="fill: #ff7f0e; fill-opacity: 0.5; stroke: #000000; stroke-width: 0.327934; stroke-linejoin: miter"/>
   </g>
   <g id="patch_64">
    <path d="M 273.872397 307.584 
L 277.151736 307.584 
L 277.151736 304.344354 
L 273.872397 304.344354 
z
" clip-path="url(#p0d84bc21d0)" style="fill: #ff7f0e; fill-opacity: 0.5; stroke: #000000; stroke-width: 0.327934; stroke-linejoin: miter"/>
   </g>
   <g id="patch_65">
    <path d="M 277.151736 307.584 
L 280.431074 307.584 
L 280.431074 304.344354 
L 277.151736 304.344354 
z
" clip-path="url(#p0d84bc21d0)" style="fill: #ff7f0e; fill-opacity: 0.5; stroke: #000000; stroke-width: 0.327934; stroke-linejoin: miter"/>
   </g>
   <g id="patch_66">
    <path d="M 280.431074 307.584 
L 283.710413 307.584 
L 283.710413 303.845947 
L 280.431074 303.845947 
z
" clip-path="url(#p0d84bc21d0)" style="fill: #ff7f0e; fill-opacity: 0.5; stroke: #000000; stroke-width: 0.327934; stroke-linejoin: miter"/>
   </g>
   <g id="patch_67">
    <path d="M 283.710413 307.584 
L 286.989752 307.584 
L 286.989752 304.842761 
L 283.710413 304.842761 
z
" clip-path="url(#p0d84bc21d0)" style="fill: #ff7f0e; fill-opacity: 0.5; stroke: #000000; stroke-width: 0.327934; stroke-linejoin: miter"/>
   </g>
   <g id="patch_68">
    <path d="M 286.989752 307.584 
L 290.269091 307.584 
L 290.269091 301.852319 
L 286.989752 301.852319 
z
" clip-path="url(#p0d84bc21d0)" style="fill: #ff7f0e; fill-opacity: 0.5; stroke: #000000; stroke-width: 0.327934; stroke-linejoin: miter"/>
   </g>
   <g id="patch_69">
    <path d="M 290.269091 307.584 
L 293.54843 307.584 
L 293.54843 302.849133 
L 290.269091 302.849133 
z
" clip-path="url(#p0d84bc21d0)" style="fill: #ff7f0e; fill-opacity: 0.5; stroke: #000000; stroke-width: 0.327934; stroke-linejoin: miter"/>
   </g>
   <g id="patch_70">
    <path d="M 293.54843 307.584 
L 296.827769 307.584 
L 296.827769 303.34754 
L 293.54843 303.34754 
z
" clip-path="url(#p0d84bc21d0)" style="fill: #ff7f0e; fill-opacity: 0.5; stroke: #000000; stroke-width: 0.327934; stroke-linejoin: miter"/>
   </g>
   <g id="patch_71">
    <path d="M 296.827769 307.584 
L 300.107107 307.584 
L 300.107107 303.098336 
L 296.827769 303.098336 
z
" clip-path="url(#p0d84bc21d0)" style="fill: #ff7f0e; fill-opacity: 0.5; stroke: #000000; stroke-width: 0.327934; stroke-linejoin: miter"/>
   </g>
   <g id="patch_72">
    <path d="M 300.107107 307.584 
L 303.386446 307.584 
L 303.386446 304.593558 
L 300.107107 304.593558 
z
" clip-path="url(#p0d84bc21d0)" style="fill: #ff7f0e; fill-opacity: 0.5; stroke: #000000; stroke-width: 0.327934; stroke-linejoin: miter"/>
   </g>
   <g id="patch_73">
    <path d="M 303.386446 307.584 
L 306.665785 307.584 
L 306.665785 303.098336 
L 303.386446 303.098336 
z
" clip-path="url(#p0d84bc21d0)" style="fill: #ff7f0e; fill-opacity: 0.5; stroke: #000000; stroke-width: 0.327934; stroke-linejoin: miter"/>
   </g>
   <g id="patch_74">
    <path d="M 306.665785 307.584 
L 309.945124 307.584 
L 309.945124 302.849133 
L 306.665785 302.849133 
z
" clip-path="url(#p0d84bc21d0)" style="fill: #ff7f0e; fill-opacity: 0.5; stroke: #000000; stroke-width: 0.327934; stroke-linejoin: miter"/>
   </g>
   <g id="patch_75">
    <path d="M 309.945124 307.584 
L 313.224463 307.584 
L 313.224463 304.344354 
L 309.945124 304.344354 
z
" clip-path="url(#p0d84bc21d0)" style="fill: #ff7f0e; fill-opacity: 0.5; stroke: #000000; stroke-width: 0.327934; stroke-linejoin: miter"/>
   </g>
   <g id="patch_76">
    <path d="M 313.224463 307.584 
L 316.503802 307.584 
L 316.503802 304.09515 
L 313.224463 304.09515 
z
" clip-path="url(#p0d84bc21d0)" style="fill: #ff7f0e; fill-opacity: 0.5; stroke: #000000; stroke-width: 0.327934; stroke-linejoin: miter"/>
   </g>
   <g id="patch_77">
    <path d="M 316.503802 307.584 
L 319.78314 307.584 
L 319.78314 304.344354 
L 316.503802 304.344354 
z
" clip-path="url(#p0d84bc21d0)" style="fill: #ff7f0e; fill-opacity: 0.5; stroke: #000000; stroke-width: 0.327934; stroke-linejoin: miter"/>
   </g>
   <g id="patch_78">
    <path d="M 319.78314 307.584 
L 323.062479 307.584 
L 323.062479 303.845947 
L 319.78314 303.845947 
z
" clip-path="url(#p0d84bc21d0)" style="fill: #ff7f0e; fill-opacity: 0.5; stroke: #000000; stroke-width: 0.327934; stroke-linejoin: miter"/>
   </g>
   <g id="patch_79">
    <path d="M 323.062479 307.584 
L 326.341818 307.584 
L 326.341818 301.353912 
L 323.062479 301.353912 
z
" clip-path="url(#p0d84bc21d0)" style="fill: #ff7f0e; fill-opacity: 0.5; stroke: #000000; stroke-width: 0.327934; stroke-linejoin: miter"/>
   </g>
   <g id="patch_80">
    <path d="M 326.341818 307.584 
L 329.621157 307.584 
L 329.621157 301.603115 
L 326.341818 301.603115 
z
" clip-path="url(#p0d84bc21d0)" style="fill: #ff7f0e; fill-opacity: 0.5; stroke: #000000; stroke-width: 0.327934; stroke-linejoin: miter"/>
   </g>
   <g id="patch_81">
    <path d="M 329.621157 307.584 
L 332.900496 307.584 
L 332.900496 302.849133 
L 329.621157 302.849133 
z
" clip-path="url(#p0d84bc21d0)" style="fill: #ff7f0e; fill-opacity: 0.5; stroke: #000000; stroke-width: 0.327934; stroke-linejoin: miter"/>
   </g>
   <g id="patch_82">
    <path d="M 332.900496 307.584 
L 336.179835 307.584 
L 336.179835 303.596743 
L 332.900496 303.596743 
z
" clip-path="url(#p0d84bc21d0)" style="fill: #ff7f0e; fill-opacity: 0.5; stroke: #000000; stroke-width: 0.327934; stroke-linejoin: miter"/>
   </g>
   <g id="patch_83">
    <path d="M 336.179835 307.584 
L 339.459174 307.584 
L 339.459174 303.596743 
L 336.179835 303.596743 
z
" clip-path="url(#p0d84bc21d0)" style="fill: #ff7f0e; fill-opacity: 0.5; stroke: #000000; stroke-width: 0.327934; stroke-linejoin: miter"/>
   </g>
   <g id="patch_84">
    <path d="M 339.459174 307.584 
L 342.738512 307.584 
L 342.738512 304.344354 
L 339.459174 304.344354 
z
" clip-path="url(#p0d84bc21d0)" style="fill: #ff7f0e; fill-opacity: 0.5; stroke: #000000; stroke-width: 0.327934; stroke-linejoin: miter"/>
   </g>
   <g id="patch_85">
    <path d="M 342.738512 307.584 
L 346.017851 307.584 
L 346.017851 306.088779 
L 342.738512 306.088779 
z
" clip-path="url(#p0d84bc21d0)" style="fill: #ff7f0e; fill-opacity: 0.5; stroke: #000000; stroke-width: 0.327934; stroke-linejoin: miter"/>
   </g>
   <g id="patch_86">
    <path d="M 346.017851 307.584 
L 349.29719 307.584 
L 349.29719 305.839575 
L 346.017851 305.839575 
z
" clip-path="url(#p0d84bc21d0)" style="fill: #ff7f0e; fill-opacity: 0.5; stroke: #000000; stroke-width: 0.327934; stroke-linejoin: miter"/>
   </g>
   <g id="patch_87">
    <path d="M 349.29719 307.584 
L 352.576529 307.584 
L 352.576529 306.587186 
L 349.29719 306.587186 
z
" clip-path="url(#p0d84bc21d0)" style="fill: #ff7f0e; fill-opacity: 0.5; stroke: #000000; stroke-width: 0.327934; stroke-linejoin: miter"/>
   </g>
   <g id="patch_88">
    <path d="M 352.576529 307.584 
L 355.855868 307.584 
L 355.855868 307.584 
L 352.576529 307.584 
z
" clip-path="url(#p0d84bc21d0)" style="fill: #ff7f0e; fill-opacity: 0.5; stroke: #000000; stroke-width: 0.327934; stroke-linejoin: miter"/>
   </g>
   <g id="patch_89">
    <path d="M 355.855868 307.584 
L 359.135207 307.584 
L 359.135207 305.839575 
L 355.855868 305.839575 
z
" clip-path="url(#p0d84bc21d0)" style="fill: #ff7f0e; fill-opacity: 0.5; stroke: #000000; stroke-width: 0.327934; stroke-linejoin: miter"/>
   </g>
   <g id="patch_90">
    <path d="M 359.135207 307.584 
L 362.414545 307.584 
L 362.414545 307.334796 
L 359.135207 307.334796 
z
" clip-path="url(#p0d84bc21d0)" style="fill: #ff7f0e; fill-opacity: 0.5; stroke: #000000; stroke-width: 0.327934; stroke-linejoin: miter"/>
   </g>
   <g id="patch_91">
    <path d="M 362.414545 307.584 
L 365.693884 307.584 
L 365.693884 307.334796 
L 362.414545 307.334796 
z
" clip-path="url(#p0d84bc21d0)" style="fill: #ff7f0e; fill-opacity: 0.5; stroke: #000000; stroke-width: 0.327934; stroke-linejoin: miter"/>
   </g>
   <g id="patch_92">
    <path d="M 365.693884 307.584 
L 368.973223 307.584 
L 368.973223 307.334796 
L 365.693884 307.334796 
z
" clip-path="url(#p0d84bc21d0)" style="fill: #ff7f0e; fill-opacity: 0.5; stroke: #000000; stroke-width: 0.327934; stroke-linejoin: miter"/>
   </g>
   <g id="patch_93">
    <path d="M 368.973223 307.584 
L 372.252562 307.584 
L 372.252562 307.085593 
L 368.973223 307.085593 
z
" clip-path="url(#p0d84bc21d0)" style="fill: #ff7f0e; fill-opacity: 0.5; stroke: #000000; stroke-width: 0.327934; stroke-linejoin: miter"/>
   </g>
   <g id="patch_94">
    <path d="M 372.252562 307.584 
L 375.531901 307.584 
L 375.531901 307.085593 
L 372.252562 307.085593 
z
" clip-path="url(#p0d84bc21d0)" style="fill: #ff7f0e; fill-opacity: 0.5; stroke: #000000; stroke-width: 0.327934; stroke-linejoin: miter"/>
   </g>
   <g id="patch_95">
    <path d="M 375.531901 307.584 
L 378.81124 307.584 
L 378.81124 307.584 
L 375.531901 307.584 
z
" clip-path="url(#p0d84bc21d0)" style="fill: #ff7f0e; fill-opacity: 0.5; stroke: #000000; stroke-width: 0.327934; stroke-linejoin: miter"/>
   </g>
   <g id="patch_96">
    <path d="M 378.81124 307.584 
L 382.090579 307.584 
L 382.090579 307.584 
L 378.81124 307.584 
z
" clip-path="url(#p0d84bc21d0)" style="fill: #ff7f0e; fill-opacity: 0.5; stroke: #000000; stroke-width: 0.327934; stroke-linejoin: miter"/>
   </g>
   <g id="patch_97">
    <path d="M 382.090579 307.584 
L 385.369917 307.584 
L 385.369917 307.584 
L 382.090579 307.584 
z
" clip-path="url(#p0d84bc21d0)" style="fill: #ff7f0e; fill-opacity: 0.5; stroke: #000000; stroke-width: 0.327934; stroke-linejoin: miter"/>
   </g>
   <g id="patch_98">
    <path d="M 385.369917 307.584 
L 388.649256 307.584 
L 388.649256 307.584 
L 385.369917 307.584 
z
" clip-path="url(#p0d84bc21d0)" style="fill: #ff7f0e; fill-opacity: 0.5; stroke: #000000; stroke-width: 0.327934; stroke-linejoin: miter"/>
   </g>
   <g id="patch_99">
    <path d="M 388.649256 307.584 
L 391.928595 307.584 
L 391.928595 307.584 
L 388.649256 307.584 
z
" clip-path="url(#p0d84bc21d0)" style="fill: #ff7f0e; fill-opacity: 0.5; stroke: #000000; stroke-width: 0.327934; stroke-linejoin: miter"/>
   </g>
   <g id="patch_100">
    <path d="M 391.928595 307.584 
L 395.207934 307.584 
L 395.207934 307.584 
L 391.928595 307.584 
z
" clip-path="url(#p0d84bc21d0)" style="fill: #ff7f0e; fill-opacity: 0.5; stroke: #000000; stroke-width: 0.327934; stroke-linejoin: miter"/>
   </g>
   <g id="patch_101">
    <path d="M 395.207934 307.584 
L 398.487273 307.584 
L 398.487273 307.584 
L 395.207934 307.584 
z
" clip-path="url(#p0d84bc21d0)" style="fill: #ff7f0e; fill-opacity: 0.5; stroke: #000000; stroke-width: 0.327934; stroke-linejoin: miter"/>
   </g>
   <g id="patch_102">
    <path d="M 73.832727 307.584 
L 77.112066 307.584 
L 77.112066 307.334796 
L 73.832727 307.334796 
z
" clip-path="url(#p0d84bc21d0)" style="fill: #1f77b4; fill-opacity: 0.5; stroke: #000000; stroke-width: 0.327934; stroke-linejoin: miter"/>
   </g>
   <g id="patch_103">
    <path d="M 77.112066 307.584 
L 80.391405 307.584 
L 80.391405 307.584 
L 77.112066 307.584 
z
" clip-path="url(#p0d84bc21d0)" style="fill: #1f77b4; fill-opacity: 0.5; stroke: #000000; stroke-width: 0.327934; stroke-linejoin: miter"/>
   </g>
   <g id="patch_104">
    <path d="M 80.391405 307.584 
L 83.670744 307.584 
L 83.670744 307.584 
L 80.391405 307.584 
z
" clip-path="url(#p0d84bc21d0)" style="fill: #1f77b4; fill-opacity: 0.5; stroke: #000000; stroke-width: 0.327934; stroke-linejoin: miter"/>
   </g>
   <g id="patch_105">
    <path d="M 83.670744 307.584 
L 86.950083 307.584 
L 86.950083 307.584 
L 83.670744 307.584 
z
" clip-path="url(#p0d84bc21d0)" style="fill: #1f77b4; fill-opacity: 0.5; stroke: #000000; stroke-width: 0.327934; stroke-linejoin: miter"/>
   </g>
   <g id="patch_106">
    <path d="M 86.950083 307.584 
L 90.229421 307.584 
L 90.229421 307.334796 
L 86.950083 307.334796 
z
" clip-path="url(#p0d84bc21d0)" style="fill: #1f77b4; fill-opacity: 0.5; stroke: #000000; stroke-width: 0.327934; stroke-linejoin: miter"/>
   </g>
   <g id="patch_107">
    <path d="M 90.229421 307.584 
L 93.50876 307.584 
L 93.50876 307.584 
L 90.229421 307.584 
z
" clip-path="url(#p0d84bc21d0)" style="fill: #1f77b4; fill-opacity: 0.5; stroke: #000000; stroke-width: 0.327934; stroke-linejoin: miter"/>
   </g>
   <g id="patch_108">
    <path d="M 93.50876 307.584 
L 96.788099 307.584 
L 96.788099 307.334796 
L 93.50876 307.334796 
z
" clip-path="url(#p0d84bc21d0)" style="fill: #1f77b4; fill-opacity: 0.5; stroke: #000000; stroke-width: 0.327934; stroke-linejoin: miter"/>
   </g>
   <g id="patch_109">
    <path d="M 96.788099 307.584 
L 100.067438 307.584 
L 100.067438 307.584 
L 96.788099 307.584 
z
" clip-path="url(#p0d84bc21d0)" style="fill: #1f77b4; fill-opacity: 0.5; stroke: #000000; stroke-width: 0.327934; stroke-linejoin: miter"/>
   </g>
   <g id="patch_110">
    <path d="M 100.067438 307.584 
L 103.346777 307.584 
L 103.346777 307.584 
L 100.067438 307.584 
z
" clip-path="url(#p0d84bc21d0)" style="fill: #1f77b4; fill-opacity: 0.5; stroke: #000000; stroke-width: 0.327934; stroke-linejoin: miter"/>
   </g>
   <g id="patch_111">
    <path d="M 103.346777 307.584 
L 106.626116 307.584 
L 106.626116 307.334796 
L 103.346777 307.334796 
z
" clip-path="url(#p0d84bc21d0)" style="fill: #1f77b4; fill-opacity: 0.5; stroke: #000000; stroke-width: 0.327934; stroke-linejoin: miter"/>
   </g>
   <g id="patch_112">
    <path d="M 106.626116 307.584 
L 109.905455 307.584 
L 109.905455 306.836389 
L 106.626116 306.836389 
z
" clip-path="url(#p0d84bc21d0)" style="fill: #1f77b4; fill-opacity: 0.5; stroke: #000000; stroke-width: 0.327934; stroke-linejoin: miter"/>
   </g>
   <g id="patch_113">
    <path d="M 109.905455 307.584 
L 113.184793 307.584 
L 113.184793 307.334796 
L 109.905455 307.334796 
z
" clip-path="url(#p0d84bc21d0)" style="fill: #1f77b4; fill-opacity: 0.5; stroke: #000000; stroke-width: 0.327934; stroke-linejoin: miter"/>
   </g>
   <g id="patch_114">
    <path d="M 113.184793 307.584 
L 116.464132 307.584 
L 116.464132 307.584 
L 113.184793 307.584 
z
" clip-path="url(#p0d84bc21d0)" style="fill: #1f77b4; fill-opacity: 0.5; stroke: #000000; stroke-width: 0.327934; stroke-linejoin: miter"/>
   </g>
   <g id="patch_115">
    <path d="M 116.464132 307.584 
L 119.743471 307.584 
L 119.743471 307.334796 
L 116.464132 307.334796 
z
" clip-path="url(#p0d84bc21d0)" style="fill: #1f77b4; fill-opacity: 0.5; stroke: #000000; stroke-width: 0.327934; stroke-linejoin: miter"/>
   </g>
   <g id="patch_116">
    <path d="M 119.743471 307.584 
L 123.02281 307.584 
L 123.02281 306.836389 
L 119.743471 306.836389 
z
" clip-path="url(#p0d84bc21d0)" style="fill: #1f77b4; fill-opacity: 0.5; stroke: #000000; stroke-width: 0.327934; stroke-linejoin: miter"/>
   </g>
   <g id="patch_117">
    <path d="M 123.02281 307.584 
L 126.302149 307.584 
L 126.302149 307.334796 
L 123.02281 307.334796 
z
" clip-path="url(#p0d84bc21d0)" style="fill: #1f77b4; fill-opacity: 0.5; stroke: #000000; stroke-width: 0.327934; stroke-linejoin: miter"/>
   </g>
   <g id="patch_118">
    <path d="M 126.302149 307.584 
L 129.581488 307.584 
L 129.581488 306.587186 
L 126.302149 306.587186 
z
" clip-path="url(#p0d84bc21d0)" style="fill: #1f77b4; fill-opacity: 0.5; stroke: #000000; stroke-width: 0.327934; stroke-linejoin: miter"/>
   </g>
   <g id="patch_119">
    <path d="M 129.581488 307.584 
L 132.860826 307.584 
L 132.860826 306.088779 
L 129.581488 306.088779 
z
" clip-path="url(#p0d84bc21d0)" style="fill: #1f77b4; fill-opacity: 0.5; stroke: #000000; stroke-width: 0.327934; stroke-linejoin: miter"/>
   </g>
   <g id="patch_120">
    <path d="M 132.860826 307.584 
L 136.140165 307.584 
L 136.140165 306.088779 
L 132.860826 306.088779 
z
" clip-path="url(#p0d84bc21d0)" style="fill: #1f77b4; fill-opacity: 0.5; stroke: #000000; stroke-width: 0.327934; stroke-linejoin: miter"/>
   </g>
   <g id="patch_121">
    <path d="M 136.140165 307.584 
L 139.419504 307.584 
L 139.419504 305.341168 
L 136.140165 305.341168 
z
" clip-path="url(#p0d84bc21d0)" style="fill: #1f77b4; fill-opacity: 0.5; stroke: #000000; stroke-width: 0.327934; stroke-linejoin: miter"/>
   </g>
   <g id="patch_122">
    <path d="M 139.419504 307.584 
L 142.698843 307.584 
L 142.698843 306.587186 
L 139.419504 306.587186 
z
" clip-path="url(#p0d84bc21d0)" style="fill: #1f77b4; fill-opacity: 0.5; stroke: #000000; stroke-width: 0.327934; stroke-linejoin: miter"/>
   </g>
   <g id="patch_123">
    <path d="M 142.698843 307.584 
L 145.978182 307.584 
L 145.978182 307.085593 
L 142.698843 307.085593 
z
" clip-path="url(#p0d84bc21d0)" style="fill: #1f77b4; fill-opacity: 0.5; stroke: #000000; stroke-width: 0.327934; stroke-linejoin: miter"/>
   </g>
   <g id="patch_124">
    <path d="M 145.978182 307.584 
L 149.257521 307.584 
L 149.257521 305.341168 
L 145.978182 305.341168 
z
" clip-path="url(#p0d84bc21d0)" style="fill: #1f77b4; fill-opacity: 0.5; stroke: #000000; stroke-width: 0.327934; stroke-linejoin: miter"/>
   </g>
   <g id="patch_125">
    <path d="M 149.257521 307.584 
L 152.53686 307.584 
L 152.53686 305.590372 
L 149.257521 305.590372 
z
" clip-path="url(#p0d84bc21d0)" style="fill: #1f77b4; fill-opacity: 0.5; stroke: #000000; stroke-width: 0.327934; stroke-linejoin: miter"/>
   </g>
   <g id="patch_126">
    <path d="M 152.53686 307.584 
L 155.816198 307.584 
L 155.816198 304.09515 
L 152.53686 304.09515 
z
" clip-path="url(#p0d84bc21d0)" style="fill: #1f77b4; fill-opacity: 0.5; stroke: #000000; stroke-width: 0.327934; stroke-linejoin: miter"/>
   </g>
   <g id="patch_127">
    <path d="M 155.816198 307.584 
L 159.095537 307.584 
L 159.095537 305.341168 
L 155.816198 305.341168 
z
" clip-path="url(#p0d84bc21d0)" style="fill: #1f77b4; fill-opacity: 0.5; stroke: #000000; stroke-width: 0.327934; stroke-linejoin: miter"/>
   </g>
   <g id="patch_128">
    <path d="M 159.095537 307.584 
L 162.374876 307.584 
L 162.374876 303.845947 
L 159.095537 303.845947 
z
" clip-path="url(#p0d84bc21d0)" style="fill: #1f77b4; fill-opacity: 0.5; stroke: #000000; stroke-width: 0.327934; stroke-linejoin: miter"/>
   </g>
   <g id="patch_129">
    <path d="M 162.374876 307.584 
L 165.654215 307.584 
L 165.654215 302.849133 
L 162.374876 302.849133 
z
" clip-path="url(#p0d84bc21d0)" style="fill: #1f77b4; fill-opacity: 0.5; stroke: #000000; stroke-width: 0.327934; stroke-linejoin: miter"/>
   </g>
   <g id="patch_130">
    <path d="M 165.654215 307.584 
L 168.933554 307.584 
L 168.933554 304.344354 
L 165.654215 304.344354 
z
" clip-path="url(#p0d84bc21d0)" style="fill: #1f77b4; fill-opacity: 0.5; stroke: #000000; stroke-width: 0.327934; stroke-linejoin: miter"/>
   </g>
   <g id="patch_131">
    <path d="M 168.933554 307.584 
L 172.212893 307.584 
L 172.212893 302.350726 
L 168.933554 302.350726 
z
" clip-path="url(#p0d84bc21d0)" style="fill: #1f77b4; fill-opacity: 0.5; stroke: #000000; stroke-width: 0.327934; stroke-linejoin: miter"/>
   </g>
   <g id="patch_132">
    <path d="M 172.212893 307.584 
L 175.492231 307.584 
L 175.492231 302.101522 
L 172.212893 302.101522 
z
" clip-path="url(#p0d84bc21d0)" style="fill: #1f77b4; fill-opacity: 0.5; stroke: #000000; stroke-width: 0.327934; stroke-linejoin: miter"/>
   </g>
   <g id="patch_133">
    <path d="M 175.492231 307.584 
L 178.77157 307.584 
L 178.77157 301.353912 
L 175.492231 301.353912 
z
" clip-path="url(#p0d84bc21d0)" style="fill: #1f77b4; fill-opacity: 0.5; stroke: #000000; stroke-width: 0.327934; stroke-linejoin: miter"/>
   </g>
   <g id="patch_134">
    <path d="M 178.77157 307.584 
L 182.050909 307.584 
L 182.050909 300.107894 
L 178.77157 300.107894 
z
" clip-path="url(#p0d84bc21d0)" style="fill: #1f77b4; fill-opacity: 0.5; stroke: #000000; stroke-width: 0.327934; stroke-linejoin: miter"/>
   </g>
   <g id="patch_135">
    <path d="M 182.050909 307.584 
L 185.330248 307.584 
L 185.330248 303.098336 
L 182.050909 303.098336 
z
" clip-path="url(#p0d84bc21d0)" style="fill: #1f77b4; fill-opacity: 0.5; stroke: #000000; stroke-width: 0.327934; stroke-linejoin: miter"/>
   </g>
   <g id="patch_136">
    <path d="M 185.330248 307.584 
L 188.609587 307.584 
L 188.609587 299.85869 
L 185.330248 299.85869 
z
" clip-path="url(#p0d84bc21d0)" style="fill: #1f77b4; fill-opacity: 0.5; stroke: #000000; stroke-width: 0.327934; stroke-linejoin: miter"/>
   </g>
   <g id="patch_137">
    <path d="M 188.609587 307.584 
L 191.888926 307.584 
L 191.888926 299.11108 
L 188.609587 299.11108 
z
" clip-path="url(#p0d84bc21d0)" style="fill: #1f77b4; fill-opacity: 0.5; stroke: #000000; stroke-width: 0.327934; stroke-linejoin: miter"/>
   </g>
   <g id="patch_138">
    <path d="M 191.888926 307.584 
L 195.168264 307.584 
L 195.168264 294.127009 
L 191.888926 294.127009 
z
" clip-path="url(#p0d84bc21d0)" style="fill: #1f77b4; fill-opacity: 0.5; stroke: #000000; stroke-width: 0.327934; stroke-linejoin: miter"/>
   </g>
   <g id="patch_139">
    <path d="M 195.168264 307.584 
L 198.447603 307.584 
L 198.447603 296.619044 
L 195.168264 296.619044 
z
" clip-path="url(#p0d84bc21d0)" style="fill: #1f77b4; fill-opacity: 0.5; stroke: #000000; stroke-width: 0.327934; stroke-linejoin: miter"/>
   </g>
   <g id="patch_140">
    <path d="M 198.447603 307.584 
L 201.726942 307.584 
L 201.726942 291.136566 
L 198.447603 291.136566 
z
" clip-path="url(#p0d84bc21d0)" style="fill: #1f77b4; fill-opacity: 0.5; stroke: #000000; stroke-width: 0.327934; stroke-linejoin: miter"/>
   </g>
   <g id="patch_141">
    <path d="M 201.726942 307.584 
L 205.006281 307.584 
L 205.006281 289.890549 
L 201.726942 289.890549 
z
" clip-path="url(#p0d84bc21d0)" style="fill: #1f77b4; fill-opacity: 0.5; stroke: #000000; stroke-width: 0.327934; stroke-linejoin: miter"/>
   </g>
   <g id="patch_142">
    <path d="M 205.006281 307.584 
L 208.28562 307.584 
L 208.28562 287.647717 
L 205.006281 287.647717 
z
" clip-path="url(#p0d84bc21d0)" style="fill: #1f77b4; fill-opacity: 0.5; stroke: #000000; stroke-width: 0.327934; stroke-linejoin: miter"/>
   </g>
   <g id="patch_143">
    <path d="M 208.28562 307.584 
L 211.564959 307.584 
L 211.564959 288.893735 
L 208.28562 288.893735 
z
" clip-path="url(#p0d84bc21d0)" style="fill: #1f77b4; fill-opacity: 0.5; stroke: #000000; stroke-width: 0.327934; stroke-linejoin: miter"/>
   </g>
   <g id="patch_144">
    <path d="M 211.564959 307.584 
L 214.844298 307.584 
L 214.844298 284.657274 
L 211.564959 284.657274 
z
" clip-path="url(#p0d84bc21d0)" style="fill: #1f77b4; fill-opacity: 0.5; stroke: #000000; stroke-width: 0.327934; stroke-linejoin: miter"/>
   </g>
   <g id="patch_145">
    <path d="M 214.844298 307.584 
L 218.123636 307.584 
L 218.123636 280.420814 
L 214.844298 280.420814 
z
" clip-path="url(#p0d84bc21d0)" style="fill: #1f77b4; fill-opacity: 0.5; stroke: #000000; stroke-width: 0.327934; stroke-linejoin: miter"/>
   </g>
   <g id="patch_146">
    <path d="M 218.123636 307.584 
L 221.402975 307.584 
L 221.402975 274.689133 
L 218.123636 274.689133 
z
" clip-path="url(#p0d84bc21d0)" style="fill: #1f77b4; fill-opacity: 0.5; stroke: #000000; stroke-width: 0.327934; stroke-linejoin: miter"/>
   </g>
   <g id="patch_147">
    <path d="M 221.402975 307.584 
L 224.682314 307.584 
L 224.682314 273.443115 
L 221.402975 273.443115 
z
" clip-path="url(#p0d84bc21d0)" style="fill: #1f77b4; fill-opacity: 0.5; stroke: #000000; stroke-width: 0.327934; stroke-linejoin: miter"/>
   </g>
   <g id="patch_148">
    <path d="M 224.682314 307.584 
L 227.961653 307.584 
L 227.961653 271.947894 
L 224.682314 271.947894 
z
" clip-path="url(#p0d84bc21d0)" style="fill: #1f77b4; fill-opacity: 0.5; stroke: #000000; stroke-width: 0.327934; stroke-linejoin: miter"/>
   </g>
   <g id="patch_149">
    <path d="M 227.961653 307.584 
L 231.240992 307.584 
L 231.240992 265.717805 
L 227.961653 265.717805 
z
" clip-path="url(#p0d84bc21d0)" style="fill: #1f77b4; fill-opacity: 0.5; stroke: #000000; stroke-width: 0.327934; stroke-linejoin: miter"/>
   </g>
   <g id="patch_150">
    <path d="M 231.240992 307.584 
L 234.520331 307.584 
L 234.520331 262.976566 
L 231.240992 262.976566 
z
" clip-path="url(#p0d84bc21d0)" style="fill: #1f77b4; fill-opacity: 0.5; stroke: #000000; stroke-width: 0.327934; stroke-linejoin: miter"/>
   </g>
   <g id="patch_151">
    <path d="M 234.520331 307.584 
L 237.799669 307.584 
L 237.799669 253.756035 
L 234.520331 253.756035 
z
" clip-path="url(#p0d84bc21d0)" style="fill: #1f77b4; fill-opacity: 0.5; stroke: #000000; stroke-width: 0.327934; stroke-linejoin: miter"/>
   </g>
   <g id="patch_152">
    <path d="M 237.799669 307.584 
L 241.079008 307.584 
L 241.079008 248.024354 
L 237.799669 248.024354 
z
" clip-path="url(#p0d84bc21d0)" style="fill: #1f77b4; fill-opacity: 0.5; stroke: #000000; stroke-width: 0.327934; stroke-linejoin: miter"/>
   </g>
   <g id="patch_153">
    <path d="M 241.079008 307.584 
L 244.358347 307.584 
L 244.358347 252.510018 
L 241.079008 252.510018 
z
" clip-path="url(#p0d84bc21d0)" style="fill: #1f77b4; fill-opacity: 0.5; stroke: #000000; stroke-width: 0.327934; stroke-linejoin: miter"/>
   </g>
   <g id="patch_154">
    <path d="M 244.358347 307.584 
L 247.637686 307.584 
L 247.637686 227.838867 
L 244.358347 227.838867 
z
" clip-path="url(#p0d84bc21d0)" style="fill: #1f77b4; fill-opacity: 0.5; stroke: #000000; stroke-width: 0.327934; stroke-linejoin: miter"/>
   </g>
   <g id="patch_155">
    <path d="M 247.637686 307.584 
L 250.917025 307.584 
L 250.917025 236.560991 
L 247.637686 236.560991 
z
" clip-path="url(#p0d84bc21d0)" style="fill: #1f77b4; fill-opacity: 0.5; stroke: #000000; stroke-width: 0.327934; stroke-linejoin: miter"/>
   </g>
   <g id="patch_156">
    <path d="M 250.917025 307.584 
L 254.196364 307.584 
L 254.196364 229.084885 
L 250.917025 229.084885 
z
" clip-path="url(#p0d84bc21d0)" style="fill: #1f77b4; fill-opacity: 0.5; stroke: #000000; stroke-width: 0.327934; stroke-linejoin: miter"/>
   </g>
   <g id="patch_157">
    <path d="M 254.196364 307.584 
L 257.475702 307.584 
L 257.475702 219.61515 
L 254.196364 219.61515 
z
" clip-path="url(#p0d84bc21d0)" style="fill: #1f77b4; fill-opacity: 0.5; stroke: #000000; stroke-width: 0.327934; stroke-linejoin: miter"/>
   </g>
   <g id="patch_158">
    <path d="M 257.475702 307.584 
L 260.755041 307.584 
L 260.755041 203.666124 
L 257.475702 203.666124 
z
" clip-path="url(#p0d84bc21d0)" style="fill: #1f77b4; fill-opacity: 0.5; stroke: #000000; stroke-width: 0.327934; stroke-linejoin: miter"/>
   </g>
   <g id="patch_159">
    <path d="M 260.755041 307.584 
L 264.03438 307.584 
L 264.03438 203.167717 
L 260.755041 203.167717 
z
" clip-path="url(#p0d84bc21d0)" style="fill: #1f77b4; fill-opacity: 0.5; stroke: #000000; stroke-width: 0.327934; stroke-linejoin: miter"/>
   </g>
   <g id="patch_160">
    <path d="M 264.03438 307.584 
L 267.313719 307.584 
L 267.313719 187.966301 
L 264.03438 187.966301 
z
" clip-path="url(#p0d84bc21d0)" style="fill: #1f77b4; fill-opacity: 0.5; stroke: #000000; stroke-width: 0.327934; stroke-linejoin: miter"/>
   </g>
   <g id="patch_161">
    <path d="M 267.313719 307.584 
L 270.593058 307.584 
L 270.593058 177.001345 
L 267.313719 177.001345 
z
" clip-path="url(#p0d84bc21d0)" style="fill: #1f77b4; fill-opacity: 0.5; stroke: #000000; stroke-width: 0.327934; stroke-linejoin: miter"/>
   </g>
   <g id="patch_162">
    <path d="M 270.593058 307.584 
L 273.872397 307.584 
L 273.872397 162.54754 
L 270.593058 162.54754 
z
" clip-path="url(#p0d84bc21d0)" style="fill: #1f77b4; fill-opacity: 0.5; stroke: #000000; stroke-width: 0.327934; stroke-linejoin: miter"/>
   </g>
   <g id="patch_163">
    <path d="M 273.872397 307.584 
L 277.151736 307.584 
L 277.151736 153.077805 
L 273.872397 153.077805 
z
" clip-path="url(#p0d84bc21d0)" style="fill: #1f77b4; fill-opacity: 0.5; stroke: #000000; stroke-width: 0.327934; stroke-linejoin: miter"/>
   </g>
   <g id="patch_164">
    <path d="M 277.151736 307.584 
L 280.431074 307.584 
L 280.431074 147.346124 
L 277.151736 147.346124 
z
" clip-path="url(#p0d84bc21d0)" style="fill: #1f77b4; fill-opacity: 0.5; stroke: #000000; stroke-width: 0.327934; stroke-linejoin: miter"/>
   </g>
   <g id="patch_165">
    <path d="M 280.431074 307.584 
L 283.710413 307.584 
L 283.710413 141.365239 
L 280.431074 141.365239 
z
" clip-path="url(#p0d84bc21d0)" style="fill: #1f77b4; fill-opacity: 0.5; stroke: #000000; stroke-width: 0.327934; stroke-linejoin: miter"/>
   </g>
   <g id="patch_166">
    <path d="M 283.710413 307.584 
L 286.989752 307.584 
L 286.989752 126.413027 
L 283.710413 126.413027 
z
" clip-path="url(#p0d84bc21d0)" style="fill: #1f77b4; fill-opacity: 0.5; stroke: #000000; stroke-width: 0.327934; stroke-linejoin: miter"/>
   </g>
   <g id="patch_167">
    <path d="M 286.989752 307.584 
L 290.269091 307.584 
L 290.269091 117.441699 
L 286.989752 117.441699 
z
" clip-path="url(#p0d84bc21d0)" style="fill: #1f77b4; fill-opacity: 0.5; stroke: #000000; stroke-width: 0.327934; stroke-linejoin: miter"/>
   </g>
   <g id="patch_168">
    <path d="M 290.269091 307.584 
L 293.54843 307.584 
L 293.54843 87.038867 
L 290.269091 87.038867 
z
" clip-path="url(#p0d84bc21d0)" style="fill: #1f77b4; fill-opacity: 0.5; stroke: #000000; stroke-width: 0.327934; stroke-linejoin: miter"/>
   </g>
   <g id="patch_169">
    <path d="M 293.54843 307.584 
L 296.827769 307.584 
L 296.827769 96.010195 
L 293.54843 96.010195 
z
" clip-path="url(#p0d84bc21d0)" style="fill: #1f77b4; fill-opacity: 0.5; stroke: #000000; stroke-width: 0.327934; stroke-linejoin: miter"/>
   </g>
   <g id="patch_170">
    <path d="M 296.827769 307.584 
L 300.107107 307.584 
L 300.107107 92.770549 
L 296.827769 92.770549 
z
" clip-path="url(#p0d84bc21d0)" style="fill: #1f77b4; fill-opacity: 0.5; stroke: #000000; stroke-width: 0.327934; stroke-linejoin: miter"/>
   </g>
   <g id="patch_171">
    <path d="M 300.107107 307.584 
L 303.386446 307.584 
L 303.386446 82.054796 
L 300.107107 82.054796 
z
" clip-path="url(#p0d84bc21d0)" style="fill: #1f77b4; fill-opacity: 0.5; stroke: #000000; stroke-width: 0.327934; stroke-linejoin: miter"/>
   </g>
   <g id="patch_172">
    <path d="M 303.386446 307.584 
L 306.665785 307.584 
L 306.665785 58.131257 
L 303.386446 58.131257 
z
" clip-path="url(#p0d84bc21d0)" style="fill: #1f77b4; fill-opacity: 0.5; stroke: #000000; stroke-width: 0.327934; stroke-linejoin: miter"/>
   </g>
   <g id="patch_173">
    <path d="M 306.665785 307.584 
L 309.945124 307.584 
L 309.945124 74.57869 
L 306.665785 74.57869 
z
" clip-path="url(#p0d84bc21d0)" style="fill: #1f77b4; fill-opacity: 0.5; stroke: #000000; stroke-width: 0.327934; stroke-linejoin: miter"/>
   </g>
   <g id="patch_174">
    <path d="M 309.945124 307.584 
L 313.224463 307.584 
L 313.224463 54.144 
L 309.945124 54.144 
z
" clip-path="url(#p0d84bc21d0)" style="fill: #1f77b4; fill-opacity: 0.5; stroke: #000000; stroke-width: 0.327934; stroke-linejoin: miter"/>
   </g>
   <g id="patch_175">
    <path d="M 313.224463 307.584 
L 316.503802 307.584 
L 316.503802 71.339044 
L 313.224463 71.339044 
z
" clip-path="url(#p0d84bc21d0)" style="fill: #1f77b4; fill-opacity: 0.5; stroke: #000000; stroke-width: 0.327934; stroke-linejoin: miter"/>
   </g>
   <g id="patch_176">
    <path d="M 316.503802 307.584 
L 319.78314 307.584 
L 319.78314 78.316743 
L 316.503802 78.316743 
z
" clip-path="url(#p0d84bc21d0)" style="fill: #1f77b4; fill-opacity: 0.5; stroke: #000000; stroke-width: 0.327934; stroke-linejoin: miter"/>
   </g>
   <g id="patch_177">
    <path d="M 319.78314 307.584 
L 323.062479 307.584 
L 323.062479 71.837451 
L 319.78314 71.837451 
z
" clip-path="url(#p0d84bc21d0)" style="fill: #1f77b4; fill-opacity: 0.5; stroke: #000000; stroke-width: 0.327934; stroke-linejoin: miter"/>
   </g>
   <g id="patch_178">
    <path d="M 323.062479 307.584 
L 326.341818 307.584 
L 326.341818 83.300814 
L 323.062479 83.300814 
z
" clip-path="url(#p0d84bc21d0)" style="fill: #1f77b4; fill-opacity: 0.5; stroke: #000000; stroke-width: 0.327934; stroke-linejoin: miter"/>
   </g>
   <g id="patch_179">
    <path d="M 326.341818 307.584 
L 329.621157 307.584 
L 329.621157 98.50223 
L 326.341818 98.50223 
z
" clip-path="url(#p0d84bc21d0)" style="fill: #1f77b4; fill-opacity: 0.5; stroke: #000000; stroke-width: 0.327934; stroke-linejoin: miter"/>
   </g>
   <g id="patch_180">
    <path d="M 329.621157 307.584 
L 332.900496 307.584 
L 332.900496 114.70046 
L 329.621157 114.70046 
z
" clip-path="url(#p0d84bc21d0)" style="fill: #1f77b4; fill-opacity: 0.5; stroke: #000000; stroke-width: 0.327934; stroke-linejoin: miter"/>
   </g>
   <g id="patch_181">
    <path d="M 332.900496 307.584 
L 336.179835 307.584 
L 336.179835 127.659044 
L 332.900496 127.659044 
z
" clip-path="url(#p0d84bc21d0)" style="fill: #1f77b4; fill-opacity: 0.5; stroke: #000000; stroke-width: 0.327934; stroke-linejoin: miter"/>
   </g>
   <g id="patch_182">
    <path d="M 336.179835 307.584 
L 339.459174 307.584 
L 339.459174 149.588956 
L 336.179835 149.588956 
z
" clip-path="url(#p0d84bc21d0)" style="fill: #1f77b4; fill-opacity: 0.5; stroke: #000000; stroke-width: 0.327934; stroke-linejoin: miter"/>
   </g>
   <g id="patch_183">
    <path d="M 339.459174 307.584 
L 342.738512 307.584 
L 342.738512 175.755327 
L 339.459174 175.755327 
z
" clip-path="url(#p0d84bc21d0)" style="fill: #1f77b4; fill-opacity: 0.5; stroke: #000000; stroke-width: 0.327934; stroke-linejoin: miter"/>
   </g>
   <g id="patch_184">
    <path d="M 342.738512 307.584 
L 346.017851 307.584 
L 346.017851 195.691611 
L 342.738512 195.691611 
z
" clip-path="url(#p0d84bc21d0)" style="fill: #1f77b4; fill-opacity: 0.5; stroke: #000000; stroke-width: 0.327934; stroke-linejoin: miter"/>
   </g>
   <g id="patch_185">
    <path d="M 346.017851 307.584 
L 349.29719 307.584 
L 349.29719 213.883469 
L 346.017851 213.883469 
z
" clip-path="url(#p0d84bc21d0)" style="fill: #1f77b4; fill-opacity: 0.5; stroke: #000000; stroke-width: 0.327934; stroke-linejoin: miter"/>
   </g>
   <g id="patch_186">
    <path d="M 349.29719 307.584 
L 352.576529 307.584 
L 352.576529 225.596035 
L 349.29719 225.596035 
z
" clip-path="url(#p0d84bc21d0)" style="fill: #1f77b4; fill-opacity: 0.5; stroke: #000000; stroke-width: 0.327934; stroke-linejoin: miter"/>
   </g>
   <g id="patch_187">
    <path d="M 352.576529 307.584 
L 355.855868 307.584 
L 355.855868 238.305416 
L 352.576529 238.305416 
z
" clip-path="url(#p0d84bc21d0)" style="fill: #1f77b4; fill-opacity: 0.5; stroke: #000000; stroke-width: 0.327934; stroke-linejoin: miter"/>
   </g>
   <g id="patch_188">
    <path d="M 355.855868 307.584 
L 359.135207 307.584 
L 359.135207 260.235327 
L 355.855868 260.235327 
z
" clip-path="url(#p0d84bc21d0)" style="fill: #1f77b4; fill-opacity: 0.5; stroke: #000000; stroke-width: 0.327934; stroke-linejoin: miter"/>
   </g>
   <g id="patch_189">
    <path d="M 359.135207 307.584 
L 362.414545 307.584 
L 362.414545 266.963823 
L 359.135207 266.963823 
z
" clip-path="url(#p0d84bc21d0)" style="fill: #1f77b4; fill-opacity: 0.5; stroke: #000000; stroke-width: 0.327934; stroke-linejoin: miter"/>
   </g>
   <g id="patch_190">
    <path d="M 362.414545 307.584 
L 365.693884 307.584 
L 365.693884 280.420814 
L 362.414545 280.420814 
z
" clip-path="url(#p0d84bc21d0)" style="fill: #1f77b4; fill-opacity: 0.5; stroke: #000000; stroke-width: 0.327934; stroke-linejoin: miter"/>
   </g>
   <g id="patch_191">
    <path d="M 365.693884 307.584 
L 368.973223 307.584 
L 368.973223 289.142938 
L 365.693884 289.142938 
z
" clip-path="url(#p0d84bc21d0)" style="fill: #1f77b4; fill-opacity: 0.5; stroke: #000000; stroke-width: 0.327934; stroke-linejoin: miter"/>
   </g>
   <g id="patch_192">
    <path d="M 368.973223 307.584 
L 372.252562 307.584 
L 372.252562 291.634973 
L 368.973223 291.634973 
z
" clip-path="url(#p0d84bc21d0)" style="fill: #1f77b4; fill-opacity: 0.5; stroke: #000000; stroke-width: 0.327934; stroke-linejoin: miter"/>
   </g>
   <g id="patch_193">
    <path d="M 372.252562 307.584 
L 375.531901 307.584 
L 375.531901 296.619044 
L 372.252562 296.619044 
z
" clip-path="url(#p0d84bc21d0)" style="fill: #1f77b4; fill-opacity: 0.5; stroke: #000000; stroke-width: 0.327934; stroke-linejoin: miter"/>
   </g>
   <g id="patch_194">
    <path d="M 375.531901 307.584 
L 378.81124 307.584 
L 378.81124 299.360283 
L 375.531901 299.360283 
z
" clip-path="url(#p0d84bc21d0)" style="fill: #1f77b4; fill-opacity: 0.5; stroke: #000000; stroke-width: 0.327934; stroke-linejoin: miter"/>
   </g>
   <g id="patch_195">
    <path d="M 378.81124 307.584 
L 382.090579 307.584 
L 382.090579 303.845947 
L 378.81124 303.845947 
z
" clip-path="url(#p0d84bc21d0)" style="fill: #1f77b4; fill-opacity: 0.5; stroke: #000000; stroke-width: 0.327934; stroke-linejoin: miter"/>
   </g>
   <g id="patch_196">
    <path d="M 382.090579 307.584 
L 385.369917 307.584 
L 385.369917 304.344354 
L 382.090579 304.344354 
z
" clip-path="url(#p0d84bc21d0)" style="fill: #1f77b4; fill-opacity: 0.5; stroke: #000000; stroke-width: 0.327934; stroke-linejoin: miter"/>
   </g>
   <g id="patch_197">
    <path d="M 385.369917 307.584 
L 388.649256 307.584 
L 388.649256 305.590372 
L 385.369917 305.590372 
z
" clip-path="url(#p0d84bc21d0)" style="fill: #1f77b4; fill-opacity: 0.5; stroke: #000000; stroke-width: 0.327934; stroke-linejoin: miter"/>
   </g>
   <g id="patch_198">
    <path d="M 388.649256 307.584 
L 391.928595 307.584 
L 391.928595 306.337982 
L 388.649256 306.337982 
z
" clip-path="url(#p0d84bc21d0)" style="fill: #1f77b4; fill-opacity: 0.5; stroke: #000000; stroke-width: 0.327934; stroke-linejoin: miter"/>
   </g>
   <g id="patch_199">
    <path d="M 391.928595 307.584 
L 395.207934 307.584 
L 395.207934 307.334796 
L 391.928595 307.334796 
z
" clip-path="url(#p0d84bc21d0)" style="fill: #1f77b4; fill-opacity: 0.5; stroke: #000000; stroke-width: 0.327934; stroke-linejoin: miter"/>
   </g>
   <g id="patch_200">
    <path d="M 395.207934 307.584 
L 398.487273 307.584 
L 398.487273 307.085593 
L 395.207934 307.085593 
z
" clip-path="url(#p0d84bc21d0)" style="fill: #1f77b4; fill-opacity: 0.5; stroke: #000000; stroke-width: 0.327934; stroke-linejoin: miter"/>
   </g>
   <g id="matplotlib.axis_1">
    <g id="xtick_1">
     <g id="line2d_1">
      <defs>
       <path id="m34bb82e083" d="M 0 0 
L 0 3.5 
" style="stroke: #000000; stroke-width: 0.8"/>
      </defs>
      <g>
       <use xlink:href="#m34bb82e083" x="100.962276" y="307.584" style="stroke: #000000; stroke-width: 0.8"/>
      </g>
     </g>
     <g id="text_1">
      <!-- 0.966 -->
      <g transform="translate(86.648214 322.182437) scale(0.1 -0.1)">
       <defs>
        <path id="DejaVuSans-30" d="M 2034 4250 
Q 1547 4250 1301 3770 
Q 1056 3291 1056 2328 
Q 1056 1369 1301 889 
Q 1547 409 2034 409 
Q 2525 409 2770 889 
Q 3016 1369 3016 2328 
Q 3016 3291 2770 3770 
Q 2525 4250 2034 4250 
z
M 2034 4750 
Q 2819 4750 3233 4129 
Q 3647 3509 3647 2328 
Q 3647 1150 3233 529 
Q 2819 -91 2034 -91 
Q 1250 -91 836 529 
Q 422 1150 422 2328 
Q 422 3509 836 4129 
Q 1250 4750 2034 4750 
z
" transform="scale(0.015625)"/>
        <path id="DejaVuSans-2e" d="M 684 794 
L 1344 794 
L 1344 0 
L 684 0 
L 684 794 
z
" transform="scale(0.015625)"/>
        <path id="DejaVuSans-39" d="M 703 97 
L 703 672 
Q 941 559 1184 500 
Q 1428 441 1663 441 
Q 2288 441 2617 861 
Q 2947 1281 2994 2138 
Q 2813 1869 2534 1725 
Q 2256 1581 1919 1581 
Q 1219 1581 811 2004 
Q 403 2428 403 3163 
Q 403 3881 828 4315 
Q 1253 4750 1959 4750 
Q 2769 4750 3195 4129 
Q 3622 3509 3622 2328 
Q 3622 1225 3098 567 
Q 2575 -91 1691 -91 
Q 1453 -91 1209 -44 
Q 966 3 703 97 
z
M 1959 2075 
Q 2384 2075 2632 2365 
Q 2881 2656 2881 3163 
Q 2881 3666 2632 3958 
Q 2384 4250 1959 4250 
Q 1534 4250 1286 3958 
Q 1038 3666 1038 3163 
Q 1038 2656 1286 2365 
Q 1534 2075 1959 2075 
z
" transform="scale(0.015625)"/>
        <path id="DejaVuSans-36" d="M 2113 2584 
Q 1688 2584 1439 2293 
Q 1191 2003 1191 1497 
Q 1191 994 1439 701 
Q 1688 409 2113 409 
Q 2538 409 2786 701 
Q 3034 994 3034 1497 
Q 3034 2003 2786 2293 
Q 2538 2584 2113 2584 
z
M 3366 4563 
L 3366 3988 
Q 3128 4100 2886 4159 
Q 2644 4219 2406 4219 
Q 1781 4219 1451 3797 
Q 1122 3375 1075 2522 
Q 1259 2794 1537 2939 
Q 1816 3084 2150 3084 
Q 2853 3084 3261 2657 
Q 3669 2231 3669 1497 
Q 3669 778 3244 343 
Q 2819 -91 2113 -91 
Q 1303 -91 875 529 
Q 447 1150 447 2328 
Q 447 3434 972 4092 
Q 1497 4750 2381 4750 
Q 2619 4750 2861 4703 
Q 3103 4656 3366 4563 
z
" transform="scale(0.015625)"/>
       </defs>
       <use xlink:href="#DejaVuSans-30"/>
       <use xlink:href="#DejaVuSans-2e" x="63.623047"/>
       <use xlink:href="#DejaVuSans-39" x="95.410156"/>
       <use xlink:href="#DejaVuSans-36" x="159.033203"/>
       <use xlink:href="#DejaVuSans-36" x="222.65625"/>
      </g>
     </g>
    </g>
    <g id="xtick_2">
     <g id="line2d_2">
      <g>
       <use xlink:href="#m34bb82e083" x="148.971818" y="307.584" style="stroke: #000000; stroke-width: 0.8"/>
      </g>
     </g>
     <g id="text_2">
      <!-- 0.968 -->
      <g transform="translate(134.657756 322.182437) scale(0.1 -0.1)">
       <defs>
        <path id="DejaVuSans-38" d="M 2034 2216 
Q 1584 2216 1326 1975 
Q 1069 1734 1069 1313 
Q 1069 891 1326 650 
Q 1584 409 2034 409 
Q 2484 409 2743 651 
Q 3003 894 3003 1313 
Q 3003 1734 2745 1975 
Q 2488 2216 2034 2216 
z
M 1403 2484 
Q 997 2584 770 2862 
Q 544 3141 544 3541 
Q 544 4100 942 4425 
Q 1341 4750 2034 4750 
Q 2731 4750 3128 4425 
Q 3525 4100 3525 3541 
Q 3525 3141 3298 2862 
Q 3072 2584 2669 2484 
Q 3125 2378 3379 2068 
Q 3634 1759 3634 1313 
Q 3634 634 3220 271 
Q 2806 -91 2034 -91 
Q 1263 -91 848 271 
Q 434 634 434 1313 
Q 434 1759 690 2068 
Q 947 2378 1403 2484 
z
M 1172 3481 
Q 1172 3119 1398 2916 
Q 1625 2713 2034 2713 
Q 2441 2713 2670 2916 
Q 2900 3119 2900 3481 
Q 2900 3844 2670 4047 
Q 2441 4250 2034 4250 
Q 1625 4250 1398 4047 
Q 1172 3844 1172 3481 
z
" transform="scale(0.015625)"/>
       </defs>
       <use xlink:href="#DejaVuSans-30"/>
       <use xlink:href="#DejaVuSans-2e" x="63.623047"/>
       <use xlink:href="#DejaVuSans-39" x="95.410156"/>
       <use xlink:href="#DejaVuSans-36" x="159.033203"/>
       <use xlink:href="#DejaVuSans-38" x="222.65625"/>
      </g>
     </g>
    </g>
    <g id="xtick_3">
     <g id="line2d_3">
      <g>
       <use xlink:href="#m34bb82e083" x="196.98136" y="307.584" style="stroke: #000000; stroke-width: 0.8"/>
      </g>
     </g>
     <g id="text_3">
      <!-- 0.970 -->
      <g transform="translate(182.667298 322.182437) scale(0.1 -0.1)">
       <defs>
        <path id="DejaVuSans-37" d="M 525 4666 
L 3525 4666 
L 3525 4397 
L 1831 0 
L 1172 0 
L 2766 4134 
L 525 4134 
L 525 4666 
z
" transform="scale(0.015625)"/>
       </defs>
       <use xlink:href="#DejaVuSans-30"/>
       <use xlink:href="#DejaVuSans-2e" x="63.623047"/>
       <use xlink:href="#DejaVuSans-39" x="95.410156"/>
       <use xlink:href="#DejaVuSans-37" x="159.033203"/>
       <use xlink:href="#DejaVuSans-30" x="222.65625"/>
      </g>
     </g>
    </g>
    <g id="xtick_4">
     <g id="line2d_4">
      <g>
       <use xlink:href="#m34bb82e083" x="244.990902" y="307.584" style="stroke: #000000; stroke-width: 0.8"/>
      </g>
     </g>
     <g id="text_4">
      <!-- 0.972 -->
      <g transform="translate(230.67684 322.182437) scale(0.1 -0.1)">
       <defs>
        <path id="DejaVuSans-32" d="M 1228 531 
L 3431 531 
L 3431 0 
L 469 0 
L 469 531 
Q 828 903 1448 1529 
Q 2069 2156 2228 2338 
Q 2531 2678 2651 2914 
Q 2772 3150 2772 3378 
Q 2772 3750 2511 3984 
Q 2250 4219 1831 4219 
Q 1534 4219 1204 4116 
Q 875 4013 500 3803 
L 500 4441 
Q 881 4594 1212 4672 
Q 1544 4750 1819 4750 
Q 2544 4750 2975 4387 
Q 3406 4025 3406 3419 
Q 3406 3131 3298 2873 
Q 3191 2616 2906 2266 
Q 2828 2175 2409 1742 
Q 1991 1309 1228 531 
z
" transform="scale(0.015625)"/>
       </defs>
       <use xlink:href="#DejaVuSans-30"/>
       <use xlink:href="#DejaVuSans-2e" x="63.623047"/>
       <use xlink:href="#DejaVuSans-39" x="95.410156"/>
       <use xlink:href="#DejaVuSans-37" x="159.033203"/>
       <use xlink:href="#DejaVuSans-32" x="222.65625"/>
      </g>
     </g>
    </g>
    <g id="xtick_5">
     <g id="line2d_5">
      <g>
       <use xlink:href="#m34bb82e083" x="293.000444" y="307.584" style="stroke: #000000; stroke-width: 0.8"/>
      </g>
     </g>
     <g id="text_5">
      <!-- 0.974 -->
      <g transform="translate(278.686382 322.182437) scale(0.1 -0.1)">
       <defs>
        <path id="DejaVuSans-34" d="M 2419 4116 
L 825 1625 
L 2419 1625 
L 2419 4116 
z
M 2253 4666 
L 3047 4666 
L 3047 1625 
L 3713 1625 
L 3713 1100 
L 3047 1100 
L 3047 0 
L 2419 0 
L 2419 1100 
L 313 1100 
L 313 1709 
L 2253 4666 
z
" transform="scale(0.015625)"/>
       </defs>
       <use xlink:href="#DejaVuSans-30"/>
       <use xlink:href="#DejaVuSans-2e" x="63.623047"/>
       <use xlink:href="#DejaVuSans-39" x="95.410156"/>
       <use xlink:href="#DejaVuSans-37" x="159.033203"/>
       <use xlink:href="#DejaVuSans-34" x="222.65625"/>
      </g>
     </g>
    </g>
    <g id="xtick_6">
     <g id="line2d_6">
      <g>
       <use xlink:href="#m34bb82e083" x="341.009986" y="307.584" style="stroke: #000000; stroke-width: 0.8"/>
      </g>
     </g>
     <g id="text_6">
      <!-- 0.976 -->
      <g transform="translate(326.695924 322.182437) scale(0.1 -0.1)">
       <use xlink:href="#DejaVuSans-30"/>
       <use xlink:href="#DejaVuSans-2e" x="63.623047"/>
       <use xlink:href="#DejaVuSans-39" x="95.410156"/>
       <use xlink:href="#DejaVuSans-37" x="159.033203"/>
       <use xlink:href="#DejaVuSans-36" x="222.65625"/>
      </g>
     </g>
    </g>
    <g id="xtick_7">
     <g id="line2d_7">
      <g>
       <use xlink:href="#m34bb82e083" x="389.019528" y="307.584" style="stroke: #000000; stroke-width: 0.8"/>
      </g>
     </g>
     <g id="text_7">
      <!-- 0.978 -->
      <g transform="translate(374.705465 322.182437) scale(0.1 -0.1)">
       <use xlink:href="#DejaVuSans-30"/>
       <use xlink:href="#DejaVuSans-2e" x="63.623047"/>
       <use xlink:href="#DejaVuSans-39" x="95.410156"/>
       <use xlink:href="#DejaVuSans-37" x="159.033203"/>
       <use xlink:href="#DejaVuSans-38" x="222.65625"/>
      </g>
     </g>
    </g>
   </g>
   <g id="matplotlib.axis_2">
    <g id="ytick_1">
     <g id="line2d_8">
      <defs>
       <path id="m8980b20eff" d="M 0 0 
L -3.5 0 
" style="stroke: #000000; stroke-width: 0.8"/>
      </defs>
      <g>
       <use xlink:href="#m8980b20eff" x="57.6" y="307.584" style="stroke: #000000; stroke-width: 0.8"/>
      </g>
     </g>
     <g id="text_8">
      <!-- 0 -->
      <g transform="translate(44.2375 311.383219) scale(0.1 -0.1)">
       <use xlink:href="#DejaVuSans-30"/>
      </g>
     </g>
    </g>
    <g id="ytick_2">
     <g id="line2d_9">
      <g>
       <use xlink:href="#m8980b20eff" x="57.6" y="257.743292" style="stroke: #000000; stroke-width: 0.8"/>
      </g>
     </g>
     <g id="text_9">
      <!-- 200 -->
      <g transform="translate(31.5125 261.542511) scale(0.1 -0.1)">
       <use xlink:href="#DejaVuSans-32"/>
       <use xlink:href="#DejaVuSans-30" x="63.623047"/>
       <use xlink:href="#DejaVuSans-30" x="127.246094"/>
      </g>
     </g>
    </g>
    <g id="ytick_3">
     <g id="line2d_10">
      <g>
       <use xlink:href="#m8980b20eff" x="57.6" y="207.902584" style="stroke: #000000; stroke-width: 0.8"/>
      </g>
     </g>
     <g id="text_10">
      <!-- 400 -->
      <g transform="translate(31.5125 211.701803) scale(0.1 -0.1)">
       <use xlink:href="#DejaVuSans-34"/>
       <use xlink:href="#DejaVuSans-30" x="63.623047"/>
       <use xlink:href="#DejaVuSans-30" x="127.246094"/>
      </g>
     </g>
    </g>
    <g id="ytick_4">
     <g id="line2d_11">
      <g>
       <use xlink:href="#m8980b20eff" x="57.6" y="158.061876" style="stroke: #000000; stroke-width: 0.8"/>
      </g>
     </g>
     <g id="text_11">
      <!-- 600 -->
      <g transform="translate(31.5125 161.861095) scale(0.1 -0.1)">
       <use xlink:href="#DejaVuSans-36"/>
       <use xlink:href="#DejaVuSans-30" x="63.623047"/>
       <use xlink:href="#DejaVuSans-30" x="127.246094"/>
      </g>
     </g>
    </g>
    <g id="ytick_5">
     <g id="line2d_12">
      <g>
       <use xlink:href="#m8980b20eff" x="57.6" y="108.221168" style="stroke: #000000; stroke-width: 0.8"/>
      </g>
     </g>
     <g id="text_12">
      <!-- 800 -->
      <g transform="translate(31.5125 112.020387) scale(0.1 -0.1)">
       <use xlink:href="#DejaVuSans-38"/>
       <use xlink:href="#DejaVuSans-30" x="63.623047"/>
       <use xlink:href="#DejaVuSans-30" x="127.246094"/>
      </g>
     </g>
    </g>
    <g id="ytick_6">
     <g id="line2d_13">
      <g>
       <use xlink:href="#m8980b20eff" x="57.6" y="58.38046" style="stroke: #000000; stroke-width: 0.8"/>
      </g>
     </g>
     <g id="text_13">
      <!-- 1000 -->
      <g transform="translate(25.15 62.179679) scale(0.1 -0.1)">
       <defs>
        <path id="DejaVuSans-31" d="M 794 531 
L 1825 531 
L 1825 4091 
L 703 3866 
L 703 4441 
L 1819 4666 
L 2450 4666 
L 2450 531 
L 3481 531 
L 3481 0 
L 794 0 
L 794 531 
z
" transform="scale(0.015625)"/>
       </defs>
       <use xlink:href="#DejaVuSans-31"/>
       <use xlink:href="#DejaVuSans-30" x="63.623047"/>
       <use xlink:href="#DejaVuSans-30" x="127.246094"/>
       <use xlink:href="#DejaVuSans-30" x="190.869141"/>
      </g>
     </g>
    </g>
    <g id="text_14">
     <!-- Count -->
     <g transform="translate(19.070312 189.376437) rotate(-90) scale(0.1 -0.1)">
      <defs>
       <path id="DejaVuSans-43" d="M 4122 4306 
L 4122 3641 
Q 3803 3938 3442 4084 
Q 3081 4231 2675 4231 
Q 1875 4231 1450 3742 
Q 1025 3253 1025 2328 
Q 1025 1406 1450 917 
Q 1875 428 2675 428 
Q 3081 428 3442 575 
Q 3803 722 4122 1019 
L 4122 359 
Q 3791 134 3420 21 
Q 3050 -91 2638 -91 
Q 1578 -91 968 557 
Q 359 1206 359 2328 
Q 359 3453 968 4101 
Q 1578 4750 2638 4750 
Q 3056 4750 3426 4639 
Q 3797 4528 4122 4306 
z
" transform="scale(0.015625)"/>
       <path id="DejaVuSans-6f" d="M 1959 3097 
Q 1497 3097 1228 2736 
Q 959 2375 959 1747 
Q 959 1119 1226 758 
Q 1494 397 1959 397 
Q 2419 397 2687 759 
Q 2956 1122 2956 1747 
Q 2956 2369 2687 2733 
Q 2419 3097 1959 3097 
z
M 1959 3584 
Q 2709 3584 3137 3096 
Q 3566 2609 3566 1747 
Q 3566 888 3137 398 
Q 2709 -91 1959 -91 
Q 1206 -91 779 398 
Q 353 888 353 1747 
Q 353 2609 779 3096 
Q 1206 3584 1959 3584 
z
" transform="scale(0.015625)"/>
       <path id="DejaVuSans-75" d="M 544 1381 
L 544 3500 
L 1119 3500 
L 1119 1403 
Q 1119 906 1312 657 
Q 1506 409 1894 409 
Q 2359 409 2629 706 
Q 2900 1003 2900 1516 
L 2900 3500 
L 3475 3500 
L 3475 0 
L 2900 0 
L 2900 538 
Q 2691 219 2414 64 
Q 2138 -91 1772 -91 
Q 1169 -91 856 284 
Q 544 659 544 1381 
z
M 1991 3584 
L 1991 3584 
z
" transform="scale(0.015625)"/>
       <path id="DejaVuSans-6e" d="M 3513 2113 
L 3513 0 
L 2938 0 
L 2938 2094 
Q 2938 2591 2744 2837 
Q 2550 3084 2163 3084 
Q 1697 3084 1428 2787 
Q 1159 2491 1159 1978 
L 1159 0 
L 581 0 
L 581 3500 
L 1159 3500 
L 1159 2956 
Q 1366 3272 1645 3428 
Q 1925 3584 2291 3584 
Q 2894 3584 3203 3211 
Q 3513 2838 3513 2113 
z
" transform="scale(0.015625)"/>
       <path id="DejaVuSans-74" d="M 1172 4494 
L 1172 3500 
L 2356 3500 
L 2356 3053 
L 1172 3053 
L 1172 1153 
Q 1172 725 1289 603 
Q 1406 481 1766 481 
L 2356 481 
L 2356 0 
L 1766 0 
Q 1100 0 847 248 
Q 594 497 594 1153 
L 594 3053 
L 172 3053 
L 172 3500 
L 594 3500 
L 594 4494 
L 1172 4494 
z
" transform="scale(0.015625)"/>
      </defs>
      <use xlink:href="#DejaVuSans-43"/>
      <use xlink:href="#DejaVuSans-6f" x="69.824219"/>
      <use xlink:href="#DejaVuSans-75" x="131.005859"/>
      <use xlink:href="#DejaVuSans-6e" x="194.384766"/>
      <use xlink:href="#DejaVuSans-74" x="257.763672"/>
     </g>
    </g>
   </g>
   <g id="line2d_14">
    <path d="M 73.832727 307.583999 
L 173.34995 307.476382 
L 201.084258 307.318079 
L 217.398556 306.956666 
L 241.870005 306.16066 
L 263.078593 305.318136 
L 274.498602 304.629861 
L 287.550041 303.781866 
L 294.075761 303.574144 
L 303.86434 303.53209 
L 315.284349 303.431552 
L 325.072928 303.325189 
L 329.967218 303.497997 
L 334.861508 303.906715 
L 341.387227 304.730038 
L 351.175806 306.005307 
L 357.701526 306.602544 
L 364.227245 306.981146 
L 374.015825 307.301645 
L 388.698693 307.528867 
L 398.487273 307.574492 
L 398.487273 307.574492 
" clip-path="url(#p0d84bc21d0)" style="fill: none; stroke: #ff7f0e; stroke-width: 1.5; stroke-linecap: square"/>
   </g>
   <g id="line2d_15">
    <path d="M 73.832727 307.518502 
L 98.304175 307.462694 
L 119.512764 307.157478 
L 126.038483 306.795038 
L 135.827063 306.094215 
L 145.615642 305.99543 
L 150.509931 305.385472 
L 161.929941 303.85482 
L 168.45566 302.999172 
L 176.61281 301.669499 
L 181.507099 301.117137 
L 183.138529 300.823949 
L 184.769959 300.397484 
L 186.401389 299.819635 
L 189.664249 298.287741 
L 194.558538 295.590667 
L 199.452828 292.609441 
L 202.715688 290.582079 
L 209.241407 286.895297 
L 210.872837 285.739802 
L 212.504267 284.367863 
L 215.767127 281.057896 
L 228.818566 266.538256 
L 232.081425 262.124402 
L 235.344285 257.079299 
L 238.607145 251.615918 
L 241.870005 245.739545 
L 251.658584 227.247801 
L 253.290014 223.740689 
L 254.921444 219.853504 
L 258.184303 211.022966 
L 261.447163 201.242132 
L 266.341453 185.576857 
L 274.498602 158.883766 
L 282.655751 134.212665 
L 285.918611 122.836664 
L 289.181471 111.100502 
L 290.812901 105.726393 
L 292.444331 100.94551 
L 294.075761 96.759683 
L 297.33862 89.396534 
L 303.86434 74.858338 
L 305.49577 71.927821 
L 307.1272 69.684378 
L 308.75863 68.226331 
L 310.390059 67.591719 
L 312.021489 67.766553 
L 313.652919 68.677668 
L 315.284349 70.200191 
L 316.915779 72.203708 
L 318.547209 74.619794 
L 320.178639 77.483408 
L 321.810069 80.914982 
L 323.441498 85.054872 
L 325.072928 89.994922 
L 326.704358 95.74744 
L 328.335788 102.260372 
L 329.967218 109.458171 
L 331.598648 117.27919 
L 334.861508 134.668733 
L 338.124367 154.105936 
L 343.018657 184.414434 
L 346.281517 202.839509 
L 349.544376 219.160372 
L 352.807236 234.193157 
L 356.070096 248.50095 
L 359.332956 261.673158 
L 360.964386 267.587526 
L 362.595815 272.952776 
L 364.227245 277.731013 
L 365.858675 281.917468 
L 367.490105 285.541008 
L 369.121535 288.660744 
L 370.752965 291.355367 
L 372.384395 293.70671 
L 374.015825 295.783683 
L 375.647254 297.63278 
L 377.278684 299.277505 
L 378.910114 300.725033 
L 380.541544 301.976317 
L 382.172974 303.035671 
L 383.804404 303.91655 
L 385.435834 304.641846 
L 388.698693 305.735221 
L 391.961553 306.492197 
L 395.224413 306.992411 
L 398.487273 307.288975 
L 398.487273 307.288975 
" clip-path="url(#p0d84bc21d0)" style="fill: none; stroke: #1f77b4; stroke-width: 1.5; stroke-linecap: square"/>
   </g>
   <g id="patch_201">
    <path d="M 57.6 307.584 
L 57.6 41.472 
" style="fill: none; stroke: #000000; stroke-width: 0.8; stroke-linejoin: miter; stroke-linecap: square"/>
   </g>
   <g id="patch_202">
    <path d="M 414.72 307.584 
L 414.72 41.472 
" style="fill: none; stroke: #000000; stroke-width: 0.8; stroke-linejoin: miter; stroke-linecap: square"/>
   </g>
   <g id="patch_203">
    <path d="M 57.6 307.584 
L 414.72 307.584 
" style="fill: none; stroke: #000000; stroke-width: 0.8; stroke-linejoin: miter; stroke-linecap: square"/>
   </g>
   <g id="patch_204">
    <path d="M 57.6 41.472 
L 414.72 41.472 
" style="fill: none; stroke: #000000; stroke-width: 0.8; stroke-linejoin: miter; stroke-linecap: square"/>
   </g>
   <g id="legend_1">
    <g id="patch_205">
     <path d="M 64.6 79.3845 
L 207.935937 79.3845 
Q 209.935937 79.3845 209.935937 77.3845 
L 209.935937 48.472 
Q 209.935937 46.472 207.935937 46.472 
L 64.6 46.472 
Q 62.6 46.472 62.6 48.472 
L 62.6 77.3845 
Q 62.6 79.3845 64.6 79.3845 
z
" style="fill: #ffffff; opacity: 0.8; stroke: #cccccc; stroke-linejoin: miter"/>
    </g>
    <g id="patch_206">
     <path d="M 66.6 58.070438 
L 86.6 58.070438 
L 86.6 51.070438 
L 66.6 51.070438 
z
" style="fill: #1f77b4; fill-opacity: 0.5; stroke: #000000; stroke-linejoin: miter"/>
    </g>
    <g id="text_15">
     <!-- padding_length = 384 -->
     <g transform="translate(94.6 58.070438) scale(0.1 -0.1)">
      <defs>
       <path id="DejaVuSans-70" d="M 1159 525 
L 1159 -1331 
L 581 -1331 
L 581 3500 
L 1159 3500 
L 1159 2969 
Q 1341 3281 1617 3432 
Q 1894 3584 2278 3584 
Q 2916 3584 3314 3078 
Q 3713 2572 3713 1747 
Q 3713 922 3314 415 
Q 2916 -91 2278 -91 
Q 1894 -91 1617 61 
Q 1341 213 1159 525 
z
M 3116 1747 
Q 3116 2381 2855 2742 
Q 2594 3103 2138 3103 
Q 1681 3103 1420 2742 
Q 1159 2381 1159 1747 
Q 1159 1113 1420 752 
Q 1681 391 2138 391 
Q 2594 391 2855 752 
Q 3116 1113 3116 1747 
z
" transform="scale(0.015625)"/>
       <path id="DejaVuSans-61" d="M 2194 1759 
Q 1497 1759 1228 1600 
Q 959 1441 959 1056 
Q 959 750 1161 570 
Q 1363 391 1709 391 
Q 2188 391 2477 730 
Q 2766 1069 2766 1631 
L 2766 1759 
L 2194 1759 
z
M 3341 1997 
L 3341 0 
L 2766 0 
L 2766 531 
Q 2569 213 2275 61 
Q 1981 -91 1556 -91 
Q 1019 -91 701 211 
Q 384 513 384 1019 
Q 384 1609 779 1909 
Q 1175 2209 1959 2209 
L 2766 2209 
L 2766 2266 
Q 2766 2663 2505 2880 
Q 2244 3097 1772 3097 
Q 1472 3097 1187 3025 
Q 903 2953 641 2809 
L 641 3341 
Q 956 3463 1253 3523 
Q 1550 3584 1831 3584 
Q 2591 3584 2966 3190 
Q 3341 2797 3341 1997 
z
" transform="scale(0.015625)"/>
       <path id="DejaVuSans-64" d="M 2906 2969 
L 2906 4863 
L 3481 4863 
L 3481 0 
L 2906 0 
L 2906 525 
Q 2725 213 2448 61 
Q 2172 -91 1784 -91 
Q 1150 -91 751 415 
Q 353 922 353 1747 
Q 353 2572 751 3078 
Q 1150 3584 1784 3584 
Q 2172 3584 2448 3432 
Q 2725 3281 2906 2969 
z
M 947 1747 
Q 947 1113 1208 752 
Q 1469 391 1925 391 
Q 2381 391 2643 752 
Q 2906 1113 2906 1747 
Q 2906 2381 2643 2742 
Q 2381 3103 1925 3103 
Q 1469 3103 1208 2742 
Q 947 2381 947 1747 
z
" transform="scale(0.015625)"/>
       <path id="DejaVuSans-69" d="M 603 3500 
L 1178 3500 
L 1178 0 
L 603 0 
L 603 3500 
z
M 603 4863 
L 1178 4863 
L 1178 4134 
L 603 4134 
L 603 4863 
z
" transform="scale(0.015625)"/>
       <path id="DejaVuSans-67" d="M 2906 1791 
Q 2906 2416 2648 2759 
Q 2391 3103 1925 3103 
Q 1463 3103 1205 2759 
Q 947 2416 947 1791 
Q 947 1169 1205 825 
Q 1463 481 1925 481 
Q 2391 481 2648 825 
Q 2906 1169 2906 1791 
z
M 3481 434 
Q 3481 -459 3084 -895 
Q 2688 -1331 1869 -1331 
Q 1566 -1331 1297 -1286 
Q 1028 -1241 775 -1147 
L 775 -588 
Q 1028 -725 1275 -790 
Q 1522 -856 1778 -856 
Q 2344 -856 2625 -561 
Q 2906 -266 2906 331 
L 2906 616 
Q 2728 306 2450 153 
Q 2172 0 1784 0 
Q 1141 0 747 490 
Q 353 981 353 1791 
Q 353 2603 747 3093 
Q 1141 3584 1784 3584 
Q 2172 3584 2450 3431 
Q 2728 3278 2906 2969 
L 2906 3500 
L 3481 3500 
L 3481 434 
z
" transform="scale(0.015625)"/>
       <path id="DejaVuSans-5f" d="M 3263 -1063 
L 3263 -1509 
L -63 -1509 
L -63 -1063 
L 3263 -1063 
z
" transform="scale(0.015625)"/>
       <path id="DejaVuSans-6c" d="M 603 4863 
L 1178 4863 
L 1178 0 
L 603 0 
L 603 4863 
z
" transform="scale(0.015625)"/>
       <path id="DejaVuSans-65" d="M 3597 1894 
L 3597 1613 
L 953 1613 
Q 991 1019 1311 708 
Q 1631 397 2203 397 
Q 2534 397 2845 478 
Q 3156 559 3463 722 
L 3463 178 
Q 3153 47 2828 -22 
Q 2503 -91 2169 -91 
Q 1331 -91 842 396 
Q 353 884 353 1716 
Q 353 2575 817 3079 
Q 1281 3584 2069 3584 
Q 2775 3584 3186 3129 
Q 3597 2675 3597 1894 
z
M 3022 2063 
Q 3016 2534 2758 2815 
Q 2500 3097 2075 3097 
Q 1594 3097 1305 2825 
Q 1016 2553 972 2059 
L 3022 2063 
z
" transform="scale(0.015625)"/>
       <path id="DejaVuSans-68" d="M 3513 2113 
L 3513 0 
L 2938 0 
L 2938 2094 
Q 2938 2591 2744 2837 
Q 2550 3084 2163 3084 
Q 1697 3084 1428 2787 
Q 1159 2491 1159 1978 
L 1159 0 
L 581 0 
L 581 4863 
L 1159 4863 
L 1159 2956 
Q 1366 3272 1645 3428 
Q 1925 3584 2291 3584 
Q 2894 3584 3203 3211 
Q 3513 2838 3513 2113 
z
" transform="scale(0.015625)"/>
       <path id="DejaVuSans-20" transform="scale(0.015625)"/>
       <path id="DejaVuSans-3d" d="M 678 2906 
L 4684 2906 
L 4684 2381 
L 678 2381 
L 678 2906 
z
M 678 1631 
L 4684 1631 
L 4684 1100 
L 678 1100 
L 678 1631 
z
" transform="scale(0.015625)"/>
       <path id="DejaVuSans-33" d="M 2597 2516 
Q 3050 2419 3304 2112 
Q 3559 1806 3559 1356 
Q 3559 666 3084 287 
Q 2609 -91 1734 -91 
Q 1441 -91 1130 -33 
Q 819 25 488 141 
L 488 750 
Q 750 597 1062 519 
Q 1375 441 1716 441 
Q 2309 441 2620 675 
Q 2931 909 2931 1356 
Q 2931 1769 2642 2001 
Q 2353 2234 1838 2234 
L 1294 2234 
L 1294 2753 
L 1863 2753 
Q 2328 2753 2575 2939 
Q 2822 3125 2822 3475 
Q 2822 3834 2567 4026 
Q 2313 4219 1838 4219 
Q 1578 4219 1281 4162 
Q 984 4106 628 3988 
L 628 4550 
Q 988 4650 1302 4700 
Q 1616 4750 1894 4750 
Q 2613 4750 3031 4423 
Q 3450 4097 3450 3541 
Q 3450 3153 3228 2886 
Q 3006 2619 2597 2516 
z
" transform="scale(0.015625)"/>
      </defs>
      <use xlink:href="#DejaVuSans-70"/>
      <use xlink:href="#DejaVuSans-61" x="63.476562"/>
      <use xlink:href="#DejaVuSans-64" x="124.755859"/>
      <use xlink:href="#DejaVuSans-64" x="188.232422"/>
      <use xlink:href="#DejaVuSans-69" x="251.708984"/>
      <use xlink:href="#DejaVuSans-6e" x="279.492188"/>
      <use xlink:href="#DejaVuSans-67" x="342.871094"/>
      <use xlink:href="#DejaVuSans-5f" x="406.347656"/>
      <use xlink:href="#DejaVuSans-6c" x="456.347656"/>
      <use xlink:href="#DejaVuSans-65" x="484.130859"/>
      <use xlink:href="#DejaVuSans-6e" x="545.654297"/>
      <use xlink:href="#DejaVuSans-67" x="609.033203"/>
      <use xlink:href="#DejaVuSans-74" x="672.509766"/>
      <use xlink:href="#DejaVuSans-68" x="711.71875"/>
      <use xlink:href="#DejaVuSans-20" x="775.097656"/>
      <use xlink:href="#DejaVuSans-3d" x="806.884766"/>
      <use xlink:href="#DejaVuSans-20" x="890.673828"/>
      <use xlink:href="#DejaVuSans-33" x="922.460938"/>
      <use xlink:href="#DejaVuSans-38" x="986.083984"/>
      <use xlink:href="#DejaVuSans-34" x="1049.707031"/>
     </g>
    </g>
    <g id="patch_207">
     <path d="M 66.6 73.026688 
L 86.6 73.026688 
L 86.6 66.026688 
L 66.6 66.026688 
z
" style="fill: #ff7f0e; fill-opacity: 0.5; stroke: #000000; stroke-linejoin: miter"/>
    </g>
    <g id="text_16">
     <!-- padding_length = 128 -->
     <g transform="translate(94.6 73.026688) scale(0.1 -0.1)">
      <use xlink:href="#DejaVuSans-70"/>
      <use xlink:href="#DejaVuSans-61" x="63.476562"/>
      <use xlink:href="#DejaVuSans-64" x="124.755859"/>
      <use xlink:href="#DejaVuSans-64" x="188.232422"/>
      <use xlink:href="#DejaVuSans-69" x="251.708984"/>
      <use xlink:href="#DejaVuSans-6e" x="279.492188"/>
      <use xlink:href="#DejaVuSans-67" x="342.871094"/>
      <use xlink:href="#DejaVuSans-5f" x="406.347656"/>
      <use xlink:href="#DejaVuSans-6c" x="456.347656"/>
      <use xlink:href="#DejaVuSans-65" x="484.130859"/>
      <use xlink:href="#DejaVuSans-6e" x="545.654297"/>
      <use xlink:href="#DejaVuSans-67" x="609.033203"/>
      <use xlink:href="#DejaVuSans-74" x="672.509766"/>
      <use xlink:href="#DejaVuSans-68" x="711.71875"/>
      <use xlink:href="#DejaVuSans-20" x="775.097656"/>
      <use xlink:href="#DejaVuSans-3d" x="806.884766"/>
      <use xlink:href="#DejaVuSans-20" x="890.673828"/>
      <use xlink:href="#DejaVuSans-31" x="922.460938"/>
      <use xlink:href="#DejaVuSans-32" x="986.083984"/>
      <use xlink:href="#DejaVuSans-38" x="1049.707031"/>
     </g>
    </g>
   </g>
  </g>
  <g id="text_17">
   <!-- recursive fn2 _False_xlm-roberta-base_True -->
   <g transform="translate(100.726875 16.030125) scale(0.12 -0.12)">
    <defs>
     <path id="DejaVuSans-72" d="M 2631 2963 
Q 2534 3019 2420 3045 
Q 2306 3072 2169 3072 
Q 1681 3072 1420 2755 
Q 1159 2438 1159 1844 
L 1159 0 
L 581 0 
L 581 3500 
L 1159 3500 
L 1159 2956 
Q 1341 3275 1631 3429 
Q 1922 3584 2338 3584 
Q 2397 3584 2469 3576 
Q 2541 3569 2628 3553 
L 2631 2963 
z
" transform="scale(0.015625)"/>
     <path id="DejaVuSans-63" d="M 3122 3366 
L 3122 2828 
Q 2878 2963 2633 3030 
Q 2388 3097 2138 3097 
Q 1578 3097 1268 2742 
Q 959 2388 959 1747 
Q 959 1106 1268 751 
Q 1578 397 2138 397 
Q 2388 397 2633 464 
Q 2878 531 3122 666 
L 3122 134 
Q 2881 22 2623 -34 
Q 2366 -91 2075 -91 
Q 1284 -91 818 406 
Q 353 903 353 1747 
Q 353 2603 823 3093 
Q 1294 3584 2113 3584 
Q 2378 3584 2631 3529 
Q 2884 3475 3122 3366 
z
" transform="scale(0.015625)"/>
     <path id="DejaVuSans-73" d="M 2834 3397 
L 2834 2853 
Q 2591 2978 2328 3040 
Q 2066 3103 1784 3103 
Q 1356 3103 1142 2972 
Q 928 2841 928 2578 
Q 928 2378 1081 2264 
Q 1234 2150 1697 2047 
L 1894 2003 
Q 2506 1872 2764 1633 
Q 3022 1394 3022 966 
Q 3022 478 2636 193 
Q 2250 -91 1575 -91 
Q 1294 -91 989 -36 
Q 684 19 347 128 
L 347 722 
Q 666 556 975 473 
Q 1284 391 1588 391 
Q 1994 391 2212 530 
Q 2431 669 2431 922 
Q 2431 1156 2273 1281 
Q 2116 1406 1581 1522 
L 1381 1569 
Q 847 1681 609 1914 
Q 372 2147 372 2553 
Q 372 3047 722 3315 
Q 1072 3584 1716 3584 
Q 2034 3584 2315 3537 
Q 2597 3491 2834 3397 
z
" transform="scale(0.015625)"/>
     <path id="DejaVuSans-76" d="M 191 3500 
L 800 3500 
L 1894 563 
L 2988 3500 
L 3597 3500 
L 2284 0 
L 1503 0 
L 191 3500 
z
" transform="scale(0.015625)"/>
     <path id="DejaVuSans-66" d="M 2375 4863 
L 2375 4384 
L 1825 4384 
Q 1516 4384 1395 4259 
Q 1275 4134 1275 3809 
L 1275 3500 
L 2222 3500 
L 2222 3053 
L 1275 3053 
L 1275 0 
L 697 0 
L 697 3053 
L 147 3053 
L 147 3500 
L 697 3500 
L 697 3744 
Q 697 4328 969 4595 
Q 1241 4863 1831 4863 
L 2375 4863 
z
" transform="scale(0.015625)"/>
     <path id="DejaVuSans-46" d="M 628 4666 
L 3309 4666 
L 3309 4134 
L 1259 4134 
L 1259 2759 
L 3109 2759 
L 3109 2228 
L 1259 2228 
L 1259 0 
L 628 0 
L 628 4666 
z
" transform="scale(0.015625)"/>
     <path id="DejaVuSans-78" d="M 3513 3500 
L 2247 1797 
L 3578 0 
L 2900 0 
L 1881 1375 
L 863 0 
L 184 0 
L 1544 1831 
L 300 3500 
L 978 3500 
L 1906 2253 
L 2834 3500 
L 3513 3500 
z
" transform="scale(0.015625)"/>
     <path id="DejaVuSans-6d" d="M 3328 2828 
Q 3544 3216 3844 3400 
Q 4144 3584 4550 3584 
Q 5097 3584 5394 3201 
Q 5691 2819 5691 2113 
L 5691 0 
L 5113 0 
L 5113 2094 
Q 5113 2597 4934 2840 
Q 4756 3084 4391 3084 
Q 3944 3084 3684 2787 
Q 3425 2491 3425 1978 
L 3425 0 
L 2847 0 
L 2847 2094 
Q 2847 2600 2669 2842 
Q 2491 3084 2119 3084 
Q 1678 3084 1418 2786 
Q 1159 2488 1159 1978 
L 1159 0 
L 581 0 
L 581 3500 
L 1159 3500 
L 1159 2956 
Q 1356 3278 1631 3431 
Q 1906 3584 2284 3584 
Q 2666 3584 2933 3390 
Q 3200 3197 3328 2828 
z
" transform="scale(0.015625)"/>
     <path id="DejaVuSans-2d" d="M 313 2009 
L 1997 2009 
L 1997 1497 
L 313 1497 
L 313 2009 
z
" transform="scale(0.015625)"/>
     <path id="DejaVuSans-62" d="M 3116 1747 
Q 3116 2381 2855 2742 
Q 2594 3103 2138 3103 
Q 1681 3103 1420 2742 
Q 1159 2381 1159 1747 
Q 1159 1113 1420 752 
Q 1681 391 2138 391 
Q 2594 391 2855 752 
Q 3116 1113 3116 1747 
z
M 1159 2969 
Q 1341 3281 1617 3432 
Q 1894 3584 2278 3584 
Q 2916 3584 3314 3078 
Q 3713 2572 3713 1747 
Q 3713 922 3314 415 
Q 2916 -91 2278 -91 
Q 1894 -91 1617 61 
Q 1341 213 1159 525 
L 1159 0 
L 581 0 
L 581 4863 
L 1159 4863 
L 1159 2969 
z
" transform="scale(0.015625)"/>
     <path id="DejaVuSans-54" d="M -19 4666 
L 3928 4666 
L 3928 4134 
L 2272 4134 
L 2272 0 
L 1638 0 
L 1638 4134 
L -19 4134 
L -19 4666 
z
" transform="scale(0.015625)"/>
    </defs>
    <use xlink:href="#DejaVuSans-72"/>
    <use xlink:href="#DejaVuSans-65" x="38.863281"/>
    <use xlink:href="#DejaVuSans-63" x="100.386719"/>
    <use xlink:href="#DejaVuSans-75" x="155.367188"/>
    <use xlink:href="#DejaVuSans-72" x="218.746094"/>
    <use xlink:href="#DejaVuSans-73" x="259.859375"/>
    <use xlink:href="#DejaVuSans-69" x="311.958984"/>
    <use xlink:href="#DejaVuSans-76" x="339.742188"/>
    <use xlink:href="#DejaVuSans-65" x="398.921875"/>
    <use xlink:href="#DejaVuSans-20" x="460.445312"/>
    <use xlink:href="#DejaVuSans-66" x="492.232422"/>
    <use xlink:href="#DejaVuSans-6e" x="527.4375"/>
    <use xlink:href="#DejaVuSans-32" x="590.816406"/>
    <use xlink:href="#DejaVuSans-20" x="654.439453"/>
    <use xlink:href="#DejaVuSans-5f" x="686.226562"/>
    <use xlink:href="#DejaVuSans-46" x="736.226562"/>
    <use xlink:href="#DejaVuSans-61" x="784.621094"/>
    <use xlink:href="#DejaVuSans-6c" x="845.900391"/>
    <use xlink:href="#DejaVuSans-73" x="873.683594"/>
    <use xlink:href="#DejaVuSans-65" x="925.783203"/>
    <use xlink:href="#DejaVuSans-5f" x="987.306641"/>
    <use xlink:href="#DejaVuSans-78" x="1037.306641"/>
    <use xlink:href="#DejaVuSans-6c" x="1096.486328"/>
    <use xlink:href="#DejaVuSans-6d" x="1124.269531"/>
    <use xlink:href="#DejaVuSans-2d" x="1221.681641"/>
    <use xlink:href="#DejaVuSans-72" x="1257.765625"/>
    <use xlink:href="#DejaVuSans-6f" x="1296.628906"/>
    <use xlink:href="#DejaVuSans-62" x="1357.810547"/>
    <use xlink:href="#DejaVuSans-65" x="1421.287109"/>
    <use xlink:href="#DejaVuSans-72" x="1482.810547"/>
    <use xlink:href="#DejaVuSans-74" x="1523.923828"/>
    <use xlink:href="#DejaVuSans-61" x="1563.132812"/>
    <use xlink:href="#DejaVuSans-2d" x="1624.412109"/>
    <use xlink:href="#DejaVuSans-62" x="1660.496094"/>
    <use xlink:href="#DejaVuSans-61" x="1723.972656"/>
    <use xlink:href="#DejaVuSans-73" x="1785.251953"/>
    <use xlink:href="#DejaVuSans-65" x="1837.351562"/>
    <use xlink:href="#DejaVuSans-5f" x="1898.875"/>
    <use xlink:href="#DejaVuSans-54" x="1948.875"/>
    <use xlink:href="#DejaVuSans-72" x="1995.208984"/>
    <use xlink:href="#DejaVuSans-75" x="2036.322266"/>
    <use xlink:href="#DejaVuSans-65" x="2099.701172"/>
   </g>
  </g>
 </g>
 <defs>
  <clipPath id="p0d84bc21d0">
   <rect x="57.6" y="41.472" width="357.12" height="266.112"/>
  </clipPath>
 </defs>
</svg>
