<?xml version="1.0" encoding="utf-8" standalone="no"?>
<!DOCTYPE svg PUBLIC "-//W3C//DTD SVG 1.1//EN"
  "http://www.w3.org/Graphics/SVG/1.1/DTD/svg11.dtd">
<svg xmlns:xlink="http://www.w3.org/1999/xlink" width="460.8pt" height="345.6pt" viewBox="0 0 460.8 345.6" xmlns="http://www.w3.org/2000/svg" version="1.1">
 <metadata>
  <rdf:RDF xmlns:dc="http://purl.org/dc/elements/1.1/" xmlns:cc="http://creativecommons.org/ns#" xmlns:rdf="http://www.w3.org/1999/02/22-rdf-syntax-ns#">
   <cc:Work>
    <dc:type rdf:resource="http://purl.org/dc/dcmitype/StillImage"/>
    <dc:date>2024-03-04T13:59:32.667378</dc:date>
    <dc:format>image/svg+xml</dc:format>
    <dc:creator>
     <cc:Agent>
      <dc:title>Matplotlib v3.8.3, https://matplotlib.org/</dc:title>
     </cc:Agent>
    </dc:creator>
   </cc:Work>
  </rdf:RDF>
 </metadata>
 <defs>
  <style type="text/css">*{stroke-linejoin: round; stroke-linecap: butt}</style>
 </defs>
 <g id="figure_1">
  <g id="patch_1">
   <path d="M 0 345.6 
L 460.8 345.6 
L 460.8 0 
L 0 0 
z
" style="fill: #ffffff"/>
  </g>
  <g id="axes_1">
   <g id="patch_2">
    <path d="M 57.6 307.584 
L 414.72 307.584 
L 414.72 41.472 
L 57.6 41.472 
z
" style="fill: #ffffff"/>
   </g>
   <g id="patch_3">
    <path d="M 73.832727 307.584 
L 85.85697 307.584 
L 85.85697 295.886769 
L 73.832727 295.886769 
z
" clip-path="url(#pd49f3f72b4)" style="fill: #ff7f0e; fill-opacity: 0.5; stroke: #000000; stroke-linejoin: miter"/>
   </g>
   <g id="patch_4">
    <path d="M 85.85697 307.584 
L 97.881212 307.584 
L 97.881212 280.290462 
L 85.85697 280.290462 
z
" clip-path="url(#pd49f3f72b4)" style="fill: #ff7f0e; fill-opacity: 0.5; stroke: #000000; stroke-linejoin: miter"/>
   </g>
   <g id="patch_5">
    <path d="M 97.881212 307.584 
L 109.905455 307.584 
L 109.905455 284.189538 
L 97.881212 284.189538 
z
" clip-path="url(#pd49f3f72b4)" style="fill: #ff7f0e; fill-opacity: 0.5; stroke: #000000; stroke-linejoin: miter"/>
   </g>
   <g id="patch_6">
    <path d="M 109.905455 307.584 
L 121.929697 307.584 
L 121.929697 264.694154 
L 109.905455 264.694154 
z
" clip-path="url(#pd49f3f72b4)" style="fill: #ff7f0e; fill-opacity: 0.5; stroke: #000000; stroke-linejoin: miter"/>
   </g>
   <g id="patch_7">
    <path d="M 121.929697 307.584 
L 133.953939 307.584 
L 133.953939 225.703385 
L 121.929697 225.703385 
z
" clip-path="url(#pd49f3f72b4)" style="fill: #ff7f0e; fill-opacity: 0.5; stroke: #000000; stroke-linejoin: miter"/>
   </g>
   <g id="patch_8">
    <path d="M 133.953939 307.584 
L 145.978182 307.584 
L 145.978182 198.409846 
L 133.953939 198.409846 
z
" clip-path="url(#pd49f3f72b4)" style="fill: #ff7f0e; fill-opacity: 0.5; stroke: #000000; stroke-linejoin: miter"/>
   </g>
   <g id="patch_9">
    <path d="M 145.978182 307.584 
L 158.002424 307.584 
L 158.002424 159.419077 
L 145.978182 159.419077 
z
" clip-path="url(#pd49f3f72b4)" style="fill: #ff7f0e; fill-opacity: 0.5; stroke: #000000; stroke-linejoin: miter"/>
   </g>
   <g id="patch_10">
    <path d="M 158.002424 307.584 
L 170.026667 307.584 
L 170.026667 159.419077 
L 158.002424 159.419077 
z
" clip-path="url(#pd49f3f72b4)" style="fill: #ff7f0e; fill-opacity: 0.5; stroke: #000000; stroke-linejoin: miter"/>
   </g>
   <g id="patch_11">
    <path d="M 170.026667 307.584 
L 182.050909 307.584 
L 182.050909 54.144 
L 170.026667 54.144 
z
" clip-path="url(#pd49f3f72b4)" style="fill: #ff7f0e; fill-opacity: 0.5; stroke: #000000; stroke-linejoin: miter"/>
   </g>
   <g id="patch_12">
    <path d="M 182.050909 307.584 
L 194.075152 307.584 
L 194.075152 108.731077 
L 182.050909 108.731077 
z
" clip-path="url(#pd49f3f72b4)" style="fill: #ff7f0e; fill-opacity: 0.5; stroke: #000000; stroke-linejoin: miter"/>
   </g>
   <g id="patch_13">
    <path d="M 194.075152 307.584 
L 206.099394 307.584 
L 206.099394 128.226462 
L 194.075152 128.226462 
z
" clip-path="url(#pd49f3f72b4)" style="fill: #ff7f0e; fill-opacity: 0.5; stroke: #000000; stroke-linejoin: miter"/>
   </g>
   <g id="patch_14">
    <path d="M 206.099394 307.584 
L 218.123636 307.584 
L 218.123636 116.529231 
L 206.099394 116.529231 
z
" clip-path="url(#pd49f3f72b4)" style="fill: #ff7f0e; fill-opacity: 0.5; stroke: #000000; stroke-linejoin: miter"/>
   </g>
   <g id="patch_15">
    <path d="M 218.123636 307.584 
L 230.147879 307.584 
L 230.147879 155.52 
L 218.123636 155.52 
z
" clip-path="url(#pd49f3f72b4)" style="fill: #ff7f0e; fill-opacity: 0.5; stroke: #000000; stroke-linejoin: miter"/>
   </g>
   <g id="patch_16">
    <path d="M 230.147879 307.584 
L 242.172121 307.584 
L 242.172121 182.813538 
L 230.147879 182.813538 
z
" clip-path="url(#pd49f3f72b4)" style="fill: #ff7f0e; fill-opacity: 0.5; stroke: #000000; stroke-linejoin: miter"/>
   </g>
   <g id="patch_17">
    <path d="M 242.172121 307.584 
L 254.196364 307.584 
L 254.196364 237.400615 
L 242.172121 237.400615 
z
" clip-path="url(#pd49f3f72b4)" style="fill: #ff7f0e; fill-opacity: 0.5; stroke: #000000; stroke-linejoin: miter"/>
   </g>
   <g id="patch_18">
    <path d="M 254.196364 307.584 
L 266.220606 307.584 
L 266.220606 229.602462 
L 254.196364 229.602462 
z
" clip-path="url(#pd49f3f72b4)" style="fill: #ff7f0e; fill-opacity: 0.5; stroke: #000000; stroke-linejoin: miter"/>
   </g>
   <g id="patch_19">
    <path d="M 266.220606 307.584 
L 278.244848 307.584 
L 278.244848 264.694154 
L 266.220606 264.694154 
z
" clip-path="url(#pd49f3f72b4)" style="fill: #ff7f0e; fill-opacity: 0.5; stroke: #000000; stroke-linejoin: miter"/>
   </g>
   <g id="patch_20">
    <path d="M 278.244848 307.584 
L 290.269091 307.584 
L 290.269091 288.088615 
L 278.244848 288.088615 
z
" clip-path="url(#pd49f3f72b4)" style="fill: #ff7f0e; fill-opacity: 0.5; stroke: #000000; stroke-linejoin: miter"/>
   </g>
   <g id="patch_21">
    <path d="M 290.269091 307.584 
L 302.293333 307.584 
L 302.293333 299.785846 
L 290.269091 299.785846 
z
" clip-path="url(#pd49f3f72b4)" style="fill: #ff7f0e; fill-opacity: 0.5; stroke: #000000; stroke-linejoin: miter"/>
   </g>
   <g id="patch_22">
    <path d="M 302.293333 307.584 
L 314.317576 307.584 
L 314.317576 291.987692 
L 302.293333 291.987692 
z
" clip-path="url(#pd49f3f72b4)" style="fill: #ff7f0e; fill-opacity: 0.5; stroke: #000000; stroke-linejoin: miter"/>
   </g>
   <g id="patch_23">
    <path d="M 314.317576 307.584 
L 326.341818 307.584 
L 326.341818 295.886769 
L 314.317576 295.886769 
z
" clip-path="url(#pd49f3f72b4)" style="fill: #ff7f0e; fill-opacity: 0.5; stroke: #000000; stroke-linejoin: miter"/>
   </g>
   <g id="patch_24">
    <path d="M 326.341818 307.584 
L 338.366061 307.584 
L 338.366061 303.684923 
L 326.341818 303.684923 
z
" clip-path="url(#pd49f3f72b4)" style="fill: #ff7f0e; fill-opacity: 0.5; stroke: #000000; stroke-linejoin: miter"/>
   </g>
   <g id="patch_25">
    <path d="M 338.366061 307.584 
L 350.390303 307.584 
L 350.390303 303.684923 
L 338.366061 303.684923 
z
" clip-path="url(#pd49f3f72b4)" style="fill: #ff7f0e; fill-opacity: 0.5; stroke: #000000; stroke-linejoin: miter"/>
   </g>
   <g id="patch_26">
    <path d="M 350.390303 307.584 
L 362.414545 307.584 
L 362.414545 307.584 
L 350.390303 307.584 
z
" clip-path="url(#pd49f3f72b4)" style="fill: #ff7f0e; fill-opacity: 0.5; stroke: #000000; stroke-linejoin: miter"/>
   </g>
   <g id="patch_27">
    <path d="M 362.414545 307.584 
L 374.438788 307.584 
L 374.438788 307.584 
L 362.414545 307.584 
z
" clip-path="url(#pd49f3f72b4)" style="fill: #ff7f0e; fill-opacity: 0.5; stroke: #000000; stroke-linejoin: miter"/>
   </g>
   <g id="patch_28">
    <path d="M 374.438788 307.584 
L 386.46303 307.584 
L 386.46303 307.584 
L 374.438788 307.584 
z
" clip-path="url(#pd49f3f72b4)" style="fill: #ff7f0e; fill-opacity: 0.5; stroke: #000000; stroke-linejoin: miter"/>
   </g>
   <g id="patch_29">
    <path d="M 386.46303 307.584 
L 398.487273 307.584 
L 398.487273 303.684923 
L 386.46303 303.684923 
z
" clip-path="url(#pd49f3f72b4)" style="fill: #ff7f0e; fill-opacity: 0.5; stroke: #000000; stroke-linejoin: miter"/>
   </g>
   <g id="patch_30">
    <path d="M 73.832727 307.584 
L 85.85697 307.584 
L 85.85697 303.684923 
L 73.832727 303.684923 
z
" clip-path="url(#pd49f3f72b4)" style="fill: #1f77b4; fill-opacity: 0.5; stroke: #000000; stroke-linejoin: miter"/>
   </g>
   <g id="patch_31">
    <path d="M 85.85697 307.584 
L 97.881212 307.584 
L 97.881212 284.189538 
L 85.85697 284.189538 
z
" clip-path="url(#pd49f3f72b4)" style="fill: #1f77b4; fill-opacity: 0.5; stroke: #000000; stroke-linejoin: miter"/>
   </g>
   <g id="patch_32">
    <path d="M 97.881212 307.584 
L 109.905455 307.584 
L 109.905455 295.886769 
L 97.881212 295.886769 
z
" clip-path="url(#pd49f3f72b4)" style="fill: #1f77b4; fill-opacity: 0.5; stroke: #000000; stroke-linejoin: miter"/>
   </g>
   <g id="patch_33">
    <path d="M 109.905455 307.584 
L 121.929697 307.584 
L 121.929697 241.299692 
L 109.905455 241.299692 
z
" clip-path="url(#pd49f3f72b4)" style="fill: #1f77b4; fill-opacity: 0.5; stroke: #000000; stroke-linejoin: miter"/>
   </g>
   <g id="patch_34">
    <path d="M 121.929697 307.584 
L 133.953939 307.584 
L 133.953939 225.703385 
L 121.929697 225.703385 
z
" clip-path="url(#pd49f3f72b4)" style="fill: #1f77b4; fill-opacity: 0.5; stroke: #000000; stroke-linejoin: miter"/>
   </g>
   <g id="patch_35">
    <path d="M 133.953939 307.584 
L 145.978182 307.584 
L 145.978182 233.501538 
L 133.953939 233.501538 
z
" clip-path="url(#pd49f3f72b4)" style="fill: #1f77b4; fill-opacity: 0.5; stroke: #000000; stroke-linejoin: miter"/>
   </g>
   <g id="patch_36">
    <path d="M 145.978182 307.584 
L 158.002424 307.584 
L 158.002424 171.116308 
L 145.978182 171.116308 
z
" clip-path="url(#pd49f3f72b4)" style="fill: #1f77b4; fill-opacity: 0.5; stroke: #000000; stroke-linejoin: miter"/>
   </g>
   <g id="patch_37">
    <path d="M 158.002424 307.584 
L 170.026667 307.584 
L 170.026667 147.721846 
L 158.002424 147.721846 
z
" clip-path="url(#pd49f3f72b4)" style="fill: #1f77b4; fill-opacity: 0.5; stroke: #000000; stroke-linejoin: miter"/>
   </g>
   <g id="patch_38">
    <path d="M 170.026667 307.584 
L 182.050909 307.584 
L 182.050909 104.832 
L 170.026667 104.832 
z
" clip-path="url(#pd49f3f72b4)" style="fill: #1f77b4; fill-opacity: 0.5; stroke: #000000; stroke-linejoin: miter"/>
   </g>
   <g id="patch_39">
    <path d="M 182.050909 307.584 
L 194.075152 307.584 
L 194.075152 81.437538 
L 182.050909 81.437538 
z
" clip-path="url(#pd49f3f72b4)" style="fill: #1f77b4; fill-opacity: 0.5; stroke: #000000; stroke-linejoin: miter"/>
   </g>
   <g id="patch_40">
    <path d="M 194.075152 307.584 
L 206.099394 307.584 
L 206.099394 97.033846 
L 194.075152 97.033846 
z
" clip-path="url(#pd49f3f72b4)" style="fill: #1f77b4; fill-opacity: 0.5; stroke: #000000; stroke-linejoin: miter"/>
   </g>
   <g id="patch_41">
    <path d="M 206.099394 307.584 
L 218.123636 307.584 
L 218.123636 97.033846 
L 206.099394 97.033846 
z
" clip-path="url(#pd49f3f72b4)" style="fill: #1f77b4; fill-opacity: 0.5; stroke: #000000; stroke-linejoin: miter"/>
   </g>
   <g id="patch_42">
    <path d="M 218.123636 307.584 
L 230.147879 307.584 
L 230.147879 171.116308 
L 218.123636 171.116308 
z
" clip-path="url(#pd49f3f72b4)" style="fill: #1f77b4; fill-opacity: 0.5; stroke: #000000; stroke-linejoin: miter"/>
   </g>
   <g id="patch_43">
    <path d="M 230.147879 307.584 
L 242.172121 307.584 
L 242.172121 202.308923 
L 230.147879 202.308923 
z
" clip-path="url(#pd49f3f72b4)" style="fill: #1f77b4; fill-opacity: 0.5; stroke: #000000; stroke-linejoin: miter"/>
   </g>
   <g id="patch_44">
    <path d="M 242.172121 307.584 
L 254.196364 307.584 
L 254.196364 210.107077 
L 242.172121 210.107077 
z
" clip-path="url(#pd49f3f72b4)" style="fill: #1f77b4; fill-opacity: 0.5; stroke: #000000; stroke-linejoin: miter"/>
   </g>
   <g id="patch_45">
    <path d="M 254.196364 307.584 
L 266.220606 307.584 
L 266.220606 233.501538 
L 254.196364 233.501538 
z
" clip-path="url(#pd49f3f72b4)" style="fill: #1f77b4; fill-opacity: 0.5; stroke: #000000; stroke-linejoin: miter"/>
   </g>
   <g id="patch_46">
    <path d="M 266.220606 307.584 
L 278.244848 307.584 
L 278.244848 256.896 
L 266.220606 256.896 
z
" clip-path="url(#pd49f3f72b4)" style="fill: #1f77b4; fill-opacity: 0.5; stroke: #000000; stroke-linejoin: miter"/>
   </g>
   <g id="patch_47">
    <path d="M 278.244848 307.584 
L 290.269091 307.584 
L 290.269091 264.694154 
L 278.244848 264.694154 
z
" clip-path="url(#pd49f3f72b4)" style="fill: #1f77b4; fill-opacity: 0.5; stroke: #000000; stroke-linejoin: miter"/>
   </g>
   <g id="patch_48">
    <path d="M 290.269091 307.584 
L 302.293333 307.584 
L 302.293333 295.886769 
L 290.269091 295.886769 
z
" clip-path="url(#pd49f3f72b4)" style="fill: #1f77b4; fill-opacity: 0.5; stroke: #000000; stroke-linejoin: miter"/>
   </g>
   <g id="patch_49">
    <path d="M 302.293333 307.584 
L 314.317576 307.584 
L 314.317576 295.886769 
L 302.293333 295.886769 
z
" clip-path="url(#pd49f3f72b4)" style="fill: #1f77b4; fill-opacity: 0.5; stroke: #000000; stroke-linejoin: miter"/>
   </g>
   <g id="patch_50">
    <path d="M 314.317576 307.584 
L 326.341818 307.584 
L 326.341818 303.684923 
L 314.317576 303.684923 
z
" clip-path="url(#pd49f3f72b4)" style="fill: #1f77b4; fill-opacity: 0.5; stroke: #000000; stroke-linejoin: miter"/>
   </g>
   <g id="patch_51">
    <path d="M 326.341818 307.584 
L 338.366061 307.584 
L 338.366061 303.684923 
L 326.341818 303.684923 
z
" clip-path="url(#pd49f3f72b4)" style="fill: #1f77b4; fill-opacity: 0.5; stroke: #000000; stroke-linejoin: miter"/>
   </g>
   <g id="patch_52">
    <path d="M 338.366061 307.584 
L 350.390303 307.584 
L 350.390303 307.584 
L 338.366061 307.584 
z
" clip-path="url(#pd49f3f72b4)" style="fill: #1f77b4; fill-opacity: 0.5; stroke: #000000; stroke-linejoin: miter"/>
   </g>
   <g id="patch_53">
    <path d="M 350.390303 307.584 
L 362.414545 307.584 
L 362.414545 307.584 
L 350.390303 307.584 
z
" clip-path="url(#pd49f3f72b4)" style="fill: #1f77b4; fill-opacity: 0.5; stroke: #000000; stroke-linejoin: miter"/>
   </g>
   <g id="patch_54">
    <path d="M 362.414545 307.584 
L 374.438788 307.584 
L 374.438788 303.684923 
L 362.414545 303.684923 
z
" clip-path="url(#pd49f3f72b4)" style="fill: #1f77b4; fill-opacity: 0.5; stroke: #000000; stroke-linejoin: miter"/>
   </g>
   <g id="patch_55">
    <path d="M 374.438788 307.584 
L 386.46303 307.584 
L 386.46303 307.584 
L 374.438788 307.584 
z
" clip-path="url(#pd49f3f72b4)" style="fill: #1f77b4; fill-opacity: 0.5; stroke: #000000; stroke-linejoin: miter"/>
   </g>
   <g id="patch_56">
    <path d="M 386.46303 307.584 
L 398.487273 307.584 
L 398.487273 307.584 
L 386.46303 307.584 
z
" clip-path="url(#pd49f3f72b4)" style="fill: #1f77b4; fill-opacity: 0.5; stroke: #000000; stroke-linejoin: miter"/>
   </g>
   <g id="matplotlib.axis_1">
    <g id="xtick_1">
     <g id="line2d_1">
      <defs>
       <path id="m8b7caa7b89" d="M 0 0 
L 0 3.5 
" style="stroke: #000000; stroke-width: 0.8"/>
      </defs>
      <g>
       <use xlink:href="#m8b7caa7b89" x="118.384511" y="307.584" style="stroke: #000000; stroke-width: 0.8"/>
      </g>
     </g>
     <g id="text_1">
      <!-- 0.001 -->
      <g transform="translate(104.070449 322.182437) scale(0.1 -0.1)">
       <defs>
        <path id="DejaVuSans-30" d="M 2034 4250 
Q 1547 4250 1301 3770 
Q 1056 3291 1056 2328 
Q 1056 1369 1301 889 
Q 1547 409 2034 409 
Q 2525 409 2770 889 
Q 3016 1369 3016 2328 
Q 3016 3291 2770 3770 
Q 2525 4250 2034 4250 
z
M 2034 4750 
Q 2819 4750 3233 4129 
Q 3647 3509 3647 2328 
Q 3647 1150 3233 529 
Q 2819 -91 2034 -91 
Q 1250 -91 836 529 
Q 422 1150 422 2328 
Q 422 3509 836 4129 
Q 1250 4750 2034 4750 
z
" transform="scale(0.015625)"/>
        <path id="DejaVuSans-2e" d="M 684 794 
L 1344 794 
L 1344 0 
L 684 0 
L 684 794 
z
" transform="scale(0.015625)"/>
        <path id="DejaVuSans-31" d="M 794 531 
L 1825 531 
L 1825 4091 
L 703 3866 
L 703 4441 
L 1819 4666 
L 2450 4666 
L 2450 531 
L 3481 531 
L 3481 0 
L 794 0 
L 794 531 
z
" transform="scale(0.015625)"/>
       </defs>
       <use xlink:href="#DejaVuSans-30"/>
       <use xlink:href="#DejaVuSans-2e" x="63.623047"/>
       <use xlink:href="#DejaVuSans-30" x="95.410156"/>
       <use xlink:href="#DejaVuSans-30" x="159.033203"/>
       <use xlink:href="#DejaVuSans-31" x="222.65625"/>
      </g>
     </g>
    </g>
    <g id="xtick_2">
     <g id="line2d_2">
      <g>
       <use xlink:href="#m8b7caa7b89" x="197.081905" y="307.584" style="stroke: #000000; stroke-width: 0.8"/>
      </g>
     </g>
     <g id="text_2">
      <!-- 0.002 -->
      <g transform="translate(182.767842 322.182437) scale(0.1 -0.1)">
       <defs>
        <path id="DejaVuSans-32" d="M 1228 531 
L 3431 531 
L 3431 0 
L 469 0 
L 469 531 
Q 828 903 1448 1529 
Q 2069 2156 2228 2338 
Q 2531 2678 2651 2914 
Q 2772 3150 2772 3378 
Q 2772 3750 2511 3984 
Q 2250 4219 1831 4219 
Q 1534 4219 1204 4116 
Q 875 4013 500 3803 
L 500 4441 
Q 881 4594 1212 4672 
Q 1544 4750 1819 4750 
Q 2544 4750 2975 4387 
Q 3406 4025 3406 3419 
Q 3406 3131 3298 2873 
Q 3191 2616 2906 2266 
Q 2828 2175 2409 1742 
Q 1991 1309 1228 531 
z
" transform="scale(0.015625)"/>
       </defs>
       <use xlink:href="#DejaVuSans-30"/>
       <use xlink:href="#DejaVuSans-2e" x="63.623047"/>
       <use xlink:href="#DejaVuSans-30" x="95.410156"/>
       <use xlink:href="#DejaVuSans-30" x="159.033203"/>
       <use xlink:href="#DejaVuSans-32" x="222.65625"/>
      </g>
     </g>
    </g>
    <g id="xtick_3">
     <g id="line2d_3">
      <g>
       <use xlink:href="#m8b7caa7b89" x="275.779299" y="307.584" style="stroke: #000000; stroke-width: 0.8"/>
      </g>
     </g>
     <g id="text_3">
      <!-- 0.003 -->
      <g transform="translate(261.465236 322.182437) scale(0.1 -0.1)">
       <defs>
        <path id="DejaVuSans-33" d="M 2597 2516 
Q 3050 2419 3304 2112 
Q 3559 1806 3559 1356 
Q 3559 666 3084 287 
Q 2609 -91 1734 -91 
Q 1441 -91 1130 -33 
Q 819 25 488 141 
L 488 750 
Q 750 597 1062 519 
Q 1375 441 1716 441 
Q 2309 441 2620 675 
Q 2931 909 2931 1356 
Q 2931 1769 2642 2001 
Q 2353 2234 1838 2234 
L 1294 2234 
L 1294 2753 
L 1863 2753 
Q 2328 2753 2575 2939 
Q 2822 3125 2822 3475 
Q 2822 3834 2567 4026 
Q 2313 4219 1838 4219 
Q 1578 4219 1281 4162 
Q 984 4106 628 3988 
L 628 4550 
Q 988 4650 1302 4700 
Q 1616 4750 1894 4750 
Q 2613 4750 3031 4423 
Q 3450 4097 3450 3541 
Q 3450 3153 3228 2886 
Q 3006 2619 2597 2516 
z
" transform="scale(0.015625)"/>
       </defs>
       <use xlink:href="#DejaVuSans-30"/>
       <use xlink:href="#DejaVuSans-2e" x="63.623047"/>
       <use xlink:href="#DejaVuSans-30" x="95.410156"/>
       <use xlink:href="#DejaVuSans-30" x="159.033203"/>
       <use xlink:href="#DejaVuSans-33" x="222.65625"/>
      </g>
     </g>
    </g>
    <g id="xtick_4">
     <g id="line2d_4">
      <g>
       <use xlink:href="#m8b7caa7b89" x="354.476692" y="307.584" style="stroke: #000000; stroke-width: 0.8"/>
      </g>
     </g>
     <g id="text_4">
      <!-- 0.004 -->
      <g transform="translate(340.16263 322.182437) scale(0.1 -0.1)">
       <defs>
        <path id="DejaVuSans-34" d="M 2419 4116 
L 825 1625 
L 2419 1625 
L 2419 4116 
z
M 2253 4666 
L 3047 4666 
L 3047 1625 
L 3713 1625 
L 3713 1100 
L 3047 1100 
L 3047 0 
L 2419 0 
L 2419 1100 
L 313 1100 
L 313 1709 
L 2253 4666 
z
" transform="scale(0.015625)"/>
       </defs>
       <use xlink:href="#DejaVuSans-30"/>
       <use xlink:href="#DejaVuSans-2e" x="63.623047"/>
       <use xlink:href="#DejaVuSans-30" x="95.410156"/>
       <use xlink:href="#DejaVuSans-30" x="159.033203"/>
       <use xlink:href="#DejaVuSans-34" x="222.65625"/>
      </g>
     </g>
    </g>
   </g>
   <g id="matplotlib.axis_2">
    <g id="ytick_1">
     <g id="line2d_5">
      <defs>
       <path id="m9617665af3" d="M 0 0 
L -3.5 0 
" style="stroke: #000000; stroke-width: 0.8"/>
      </defs>
      <g>
       <use xlink:href="#m9617665af3" x="57.6" y="307.584" style="stroke: #000000; stroke-width: 0.8"/>
      </g>
     </g>
     <g id="text_5">
      <!-- 0 -->
      <g transform="translate(44.2375 311.383219) scale(0.1 -0.1)">
       <use xlink:href="#DejaVuSans-30"/>
      </g>
     </g>
    </g>
    <g id="ytick_2">
     <g id="line2d_6">
      <g>
       <use xlink:href="#m9617665af3" x="57.6" y="268.593231" style="stroke: #000000; stroke-width: 0.8"/>
      </g>
     </g>
     <g id="text_6">
      <!-- 10 -->
      <g transform="translate(37.875 272.39245) scale(0.1 -0.1)">
       <use xlink:href="#DejaVuSans-31"/>
       <use xlink:href="#DejaVuSans-30" x="63.623047"/>
      </g>
     </g>
    </g>
    <g id="ytick_3">
     <g id="line2d_7">
      <g>
       <use xlink:href="#m9617665af3" x="57.6" y="229.602462" style="stroke: #000000; stroke-width: 0.8"/>
      </g>
     </g>
     <g id="text_7">
      <!-- 20 -->
      <g transform="translate(37.875 233.40168) scale(0.1 -0.1)">
       <use xlink:href="#DejaVuSans-32"/>
       <use xlink:href="#DejaVuSans-30" x="63.623047"/>
      </g>
     </g>
    </g>
    <g id="ytick_4">
     <g id="line2d_8">
      <g>
       <use xlink:href="#m9617665af3" x="57.6" y="190.611692" style="stroke: #000000; stroke-width: 0.8"/>
      </g>
     </g>
     <g id="text_8">
      <!-- 30 -->
      <g transform="translate(37.875 194.410911) scale(0.1 -0.1)">
       <use xlink:href="#DejaVuSans-33"/>
       <use xlink:href="#DejaVuSans-30" x="63.623047"/>
      </g>
     </g>
    </g>
    <g id="ytick_5">
     <g id="line2d_9">
      <g>
       <use xlink:href="#m9617665af3" x="57.6" y="151.620923" style="stroke: #000000; stroke-width: 0.8"/>
      </g>
     </g>
     <g id="text_9">
      <!-- 40 -->
      <g transform="translate(37.875 155.420142) scale(0.1 -0.1)">
       <use xlink:href="#DejaVuSans-34"/>
       <use xlink:href="#DejaVuSans-30" x="63.623047"/>
      </g>
     </g>
    </g>
    <g id="ytick_6">
     <g id="line2d_10">
      <g>
       <use xlink:href="#m9617665af3" x="57.6" y="112.630154" style="stroke: #000000; stroke-width: 0.8"/>
      </g>
     </g>
     <g id="text_10">
      <!-- 50 -->
      <g transform="translate(37.875 116.429373) scale(0.1 -0.1)">
       <defs>
        <path id="DejaVuSans-35" d="M 691 4666 
L 3169 4666 
L 3169 4134 
L 1269 4134 
L 1269 2991 
Q 1406 3038 1543 3061 
Q 1681 3084 1819 3084 
Q 2600 3084 3056 2656 
Q 3513 2228 3513 1497 
Q 3513 744 3044 326 
Q 2575 -91 1722 -91 
Q 1428 -91 1123 -41 
Q 819 9 494 109 
L 494 744 
Q 775 591 1075 516 
Q 1375 441 1709 441 
Q 2250 441 2565 725 
Q 2881 1009 2881 1497 
Q 2881 1984 2565 2268 
Q 2250 2553 1709 2553 
Q 1456 2553 1204 2497 
Q 953 2441 691 2322 
L 691 4666 
z
" transform="scale(0.015625)"/>
       </defs>
       <use xlink:href="#DejaVuSans-35"/>
       <use xlink:href="#DejaVuSans-30" x="63.623047"/>
      </g>
     </g>
    </g>
    <g id="ytick_7">
     <g id="line2d_11">
      <g>
       <use xlink:href="#m9617665af3" x="57.6" y="73.639385" style="stroke: #000000; stroke-width: 0.8"/>
      </g>
     </g>
     <g id="text_11">
      <!-- 60 -->
      <g transform="translate(37.875 77.438603) scale(0.1 -0.1)">
       <defs>
        <path id="DejaVuSans-36" d="M 2113 2584 
Q 1688 2584 1439 2293 
Q 1191 2003 1191 1497 
Q 1191 994 1439 701 
Q 1688 409 2113 409 
Q 2538 409 2786 701 
Q 3034 994 3034 1497 
Q 3034 2003 2786 2293 
Q 2538 2584 2113 2584 
z
M 3366 4563 
L 3366 3988 
Q 3128 4100 2886 4159 
Q 2644 4219 2406 4219 
Q 1781 4219 1451 3797 
Q 1122 3375 1075 2522 
Q 1259 2794 1537 2939 
Q 1816 3084 2150 3084 
Q 2853 3084 3261 2657 
Q 3669 2231 3669 1497 
Q 3669 778 3244 343 
Q 2819 -91 2113 -91 
Q 1303 -91 875 529 
Q 447 1150 447 2328 
Q 447 3434 972 4092 
Q 1497 4750 2381 4750 
Q 2619 4750 2861 4703 
Q 3103 4656 3366 4563 
z
" transform="scale(0.015625)"/>
       </defs>
       <use xlink:href="#DejaVuSans-36"/>
       <use xlink:href="#DejaVuSans-30" x="63.623047"/>
      </g>
     </g>
    </g>
    <g id="text_12">
     <!-- Count -->
     <g transform="translate(31.795312 189.376437) rotate(-90) scale(0.1 -0.1)">
      <defs>
       <path id="DejaVuSans-43" d="M 4122 4306 
L 4122 3641 
Q 3803 3938 3442 4084 
Q 3081 4231 2675 4231 
Q 1875 4231 1450 3742 
Q 1025 3253 1025 2328 
Q 1025 1406 1450 917 
Q 1875 428 2675 428 
Q 3081 428 3442 575 
Q 3803 722 4122 1019 
L 4122 359 
Q 3791 134 3420 21 
Q 3050 -91 2638 -91 
Q 1578 -91 968 557 
Q 359 1206 359 2328 
Q 359 3453 968 4101 
Q 1578 4750 2638 4750 
Q 3056 4750 3426 4639 
Q 3797 4528 4122 4306 
z
" transform="scale(0.015625)"/>
       <path id="DejaVuSans-6f" d="M 1959 3097 
Q 1497 3097 1228 2736 
Q 959 2375 959 1747 
Q 959 1119 1226 758 
Q 1494 397 1959 397 
Q 2419 397 2687 759 
Q 2956 1122 2956 1747 
Q 2956 2369 2687 2733 
Q 2419 3097 1959 3097 
z
M 1959 3584 
Q 2709 3584 3137 3096 
Q 3566 2609 3566 1747 
Q 3566 888 3137 398 
Q 2709 -91 1959 -91 
Q 1206 -91 779 398 
Q 353 888 353 1747 
Q 353 2609 779 3096 
Q 1206 3584 1959 3584 
z
" transform="scale(0.015625)"/>
       <path id="DejaVuSans-75" d="M 544 1381 
L 544 3500 
L 1119 3500 
L 1119 1403 
Q 1119 906 1312 657 
Q 1506 409 1894 409 
Q 2359 409 2629 706 
Q 2900 1003 2900 1516 
L 2900 3500 
L 3475 3500 
L 3475 0 
L 2900 0 
L 2900 538 
Q 2691 219 2414 64 
Q 2138 -91 1772 -91 
Q 1169 -91 856 284 
Q 544 659 544 1381 
z
M 1991 3584 
L 1991 3584 
z
" transform="scale(0.015625)"/>
       <path id="DejaVuSans-6e" d="M 3513 2113 
L 3513 0 
L 2938 0 
L 2938 2094 
Q 2938 2591 2744 2837 
Q 2550 3084 2163 3084 
Q 1697 3084 1428 2787 
Q 1159 2491 1159 1978 
L 1159 0 
L 581 0 
L 581 3500 
L 1159 3500 
L 1159 2956 
Q 1366 3272 1645 3428 
Q 1925 3584 2291 3584 
Q 2894 3584 3203 3211 
Q 3513 2838 3513 2113 
z
" transform="scale(0.015625)"/>
       <path id="DejaVuSans-74" d="M 1172 4494 
L 1172 3500 
L 2356 3500 
L 2356 3053 
L 1172 3053 
L 1172 1153 
Q 1172 725 1289 603 
Q 1406 481 1766 481 
L 2356 481 
L 2356 0 
L 1766 0 
Q 1100 0 847 248 
Q 594 497 594 1153 
L 594 3053 
L 172 3053 
L 172 3500 
L 594 3500 
L 594 4494 
L 1172 4494 
z
" transform="scale(0.015625)"/>
      </defs>
      <use xlink:href="#DejaVuSans-43"/>
      <use xlink:href="#DejaVuSans-6f" x="69.824219"/>
      <use xlink:href="#DejaVuSans-75" x="131.005859"/>
      <use xlink:href="#DejaVuSans-6e" x="194.384766"/>
      <use xlink:href="#DejaVuSans-74" x="257.763672"/>
     </g>
    </g>
   </g>
   <g id="line2d_12">
    <path d="M 73.832727 299.510675 
L 77.095587 297.41172 
L 81.989877 293.944258 
L 88.515596 288.957901 
L 93.409886 284.938253 
L 96.672746 282.00571 
L 99.935605 278.747524 
L 103.198465 275.053329 
L 106.461325 270.833197 
L 109.724185 266.032072 
L 112.987044 260.632879 
L 116.249904 254.649313 
L 119.512764 248.112996 
L 122.775624 241.061444 
L 126.038483 233.532559 
L 129.301343 225.568294 
L 134.195633 212.9363 
L 140.721352 195.311199 
L 150.509931 168.90917 
L 160.298511 143.222023 
L 165.1928 130.861663 
L 168.45566 123.299133 
L 170.08709 119.864932 
L 171.71852 116.729944 
L 173.34995 113.940333 
L 174.98138 111.534355 
L 176.61281 109.539477 
L 178.244239 107.970311 
L 179.875669 106.82759 
L 181.507099 106.098275 
L 183.138529 105.75678 
L 184.769959 105.767196 
L 186.401389 106.086279 
L 188.032819 106.666926 
L 189.664249 107.461816 
L 191.295678 108.426884 
L 194.558538 110.725054 
L 197.821398 113.370561 
L 201.084258 116.335386 
L 204.347117 119.730253 
L 205.978547 121.645759 
L 207.609977 123.738928 
L 209.241407 126.030872 
L 210.872837 128.537819 
L 212.504267 131.269784 
L 215.767127 137.414384 
L 219.029986 144.410642 
L 222.292846 152.121158 
L 225.555706 160.364314 
L 232.081425 177.693531 
L 238.607145 194.974122 
L 241.870005 203.185784 
L 245.132864 210.932066 
L 248.395724 218.144433 
L 251.658584 224.835437 
L 254.921444 231.099533 
L 261.447163 242.952937 
L 276.130032 269.070168 
L 279.392892 274.282785 
L 282.655751 278.958344 
L 285.918611 282.986467 
L 287.550041 284.737887 
L 289.181471 286.310922 
L 290.812901 287.707668 
L 292.444331 288.93371 
L 294.075761 289.997896 
L 295.70719 290.912031 
L 298.97005 292.349807 
L 302.23291 293.384369 
L 307.1272 294.514435 
L 313.652919 295.945372 
L 318.547209 297.315817 
L 323.441498 298.958443 
L 331.598648 301.775548 
L 336.492937 303.17374 
L 341.387227 304.246449 
L 346.281517 305.045842 
L 352.807236 305.854529 
L 360.964386 306.626425 
L 367.490105 307.0165 
L 372.384395 307.126427 
L 378.910114 307.016561 
L 387.067264 306.596611 
L 395.224413 306.228155 
L 398.487273 306.188892 
L 398.487273 306.188892 
" clip-path="url(#pd49f3f72b4)" style="fill: none; stroke: #ff7f0e; stroke-width: 1.5; stroke-linecap: square"/>
   </g>
   <g id="line2d_13">
    <path d="M 73.832727 302.492172 
L 77.095587 300.981012 
L 81.989877 298.410026 
L 85.252736 296.507196 
L 88.515596 294.408927 
L 91.778456 292.012201 
L 95.041316 289.160978 
L 96.672746 287.508306 
L 98.304175 285.674998 
L 99.935605 283.642782 
L 101.567035 281.398536 
L 103.198465 278.935936 
L 106.461325 273.37157 
L 109.724185 267.069602 
L 114.618474 256.792774 
L 119.512764 246.457855 
L 122.775624 239.919246 
L 127.669913 230.688488 
L 132.564203 221.584044 
L 135.827063 215.150628 
L 139.089922 208.206433 
L 142.352782 200.709807 
L 147.247072 188.628178 
L 153.772791 171.714609 
L 165.1928 141.906568 
L 168.45566 133.772732 
L 171.71852 126.124116 
L 174.98138 119.171048 
L 178.244239 113.087924 
L 179.875669 110.411196 
L 181.507099 107.99108 
L 183.138529 105.834359 
L 184.769959 103.946564 
L 186.401389 102.333247 
L 188.032819 101.001196 
L 189.664249 99.959441 
L 191.295678 99.219934 
L 192.927108 98.797804 
L 194.558538 98.71114 
L 196.189968 98.980289 
L 197.821398 99.626677 
L 199.452828 100.671234 
L 201.084258 102.132512 
L 202.715688 104.024633 
L 204.347117 106.355243 
L 205.978547 109.12365 
L 207.609977 112.319341 
L 209.241407 115.921045 
L 210.872837 119.896485 
L 214.135697 128.788207 
L 217.398556 138.553649 
L 225.555706 163.464843 
L 228.818566 172.514948 
L 232.081425 180.683018 
L 235.344285 187.939661 
L 238.607145 194.381556 
L 241.870005 200.194482 
L 246.764294 208.254094 
L 253.290014 218.973167 
L 258.184303 227.610815 
L 272.867172 254.473261 
L 276.130032 259.773788 
L 279.392892 264.715848 
L 284.287181 271.579101 
L 289.181471 277.935606 
L 292.444331 281.888402 
L 295.70719 285.540098 
L 298.97005 288.805106 
L 302.23291 291.618172 
L 305.49577 293.962933 
L 308.75863 295.880053 
L 312.021489 297.454014 
L 315.284349 298.786816 
L 320.178639 300.527768 
L 326.704358 302.608898 
L 331.598648 303.991083 
L 336.492937 305.121643 
L 339.755797 305.690531 
L 343.018657 306.094535 
L 346.281517 306.335541 
L 351.175806 306.434854 
L 359.332956 306.226904 
L 365.858675 306.130414 
L 370.752965 306.244871 
L 378.910114 306.717077 
L 388.698693 307.274893 
L 396.855843 307.498671 
L 398.487273 307.521049 
L 398.487273 307.521049 
" clip-path="url(#pd49f3f72b4)" style="fill: none; stroke: #1f77b4; stroke-width: 1.5; stroke-linecap: square"/>
   </g>
   <g id="patch_57">
    <path d="M 57.6 307.584 
L 57.6 41.472 
" style="fill: none; stroke: #000000; stroke-width: 0.8; stroke-linejoin: miter; stroke-linecap: square"/>
   </g>
   <g id="patch_58">
    <path d="M 414.72 307.584 
L 414.72 41.472 
" style="fill: none; stroke: #000000; stroke-width: 0.8; stroke-linejoin: miter; stroke-linecap: square"/>
   </g>
   <g id="patch_59">
    <path d="M 57.6 307.584 
L 414.72 307.584 
" style="fill: none; stroke: #000000; stroke-width: 0.8; stroke-linejoin: miter; stroke-linecap: square"/>
   </g>
   <g id="patch_60">
    <path d="M 57.6 41.472 
L 414.72 41.472 
" style="fill: none; stroke: #000000; stroke-width: 0.8; stroke-linejoin: miter; stroke-linecap: square"/>
   </g>
   <g id="legend_1">
    <g id="patch_61">
     <path d="M 264.384063 79.3845 
L 407.72 79.3845 
Q 409.72 79.3845 409.72 77.3845 
L 409.72 48.472 
Q 409.72 46.472 407.72 46.472 
L 264.384063 46.472 
Q 262.384063 46.472 262.384063 48.472 
L 262.384063 77.3845 
Q 262.384063 79.3845 264.384063 79.3845 
z
" style="fill: #ffffff; opacity: 0.8; stroke: #cccccc; stroke-linejoin: miter"/>
    </g>
    <g id="patch_62">
     <path d="M 266.384063 58.070438 
L 286.384063 58.070438 
L 286.384063 51.070438 
L 266.384063 51.070438 
z
" style="fill: #1f77b4; fill-opacity: 0.5; stroke: #000000; stroke-linejoin: miter"/>
    </g>
    <g id="text_13">
     <!-- padding_length = 384 -->
     <g transform="translate(294.384063 58.070438) scale(0.1 -0.1)">
      <defs>
       <path id="DejaVuSans-70" d="M 1159 525 
L 1159 -1331 
L 581 -1331 
L 581 3500 
L 1159 3500 
L 1159 2969 
Q 1341 3281 1617 3432 
Q 1894 3584 2278 3584 
Q 2916 3584 3314 3078 
Q 3713 2572 3713 1747 
Q 3713 922 3314 415 
Q 2916 -91 2278 -91 
Q 1894 -91 1617 61 
Q 1341 213 1159 525 
z
M 3116 1747 
Q 3116 2381 2855 2742 
Q 2594 3103 2138 3103 
Q 1681 3103 1420 2742 
Q 1159 2381 1159 1747 
Q 1159 1113 1420 752 
Q 1681 391 2138 391 
Q 2594 391 2855 752 
Q 3116 1113 3116 1747 
z
" transform="scale(0.015625)"/>
       <path id="DejaVuSans-61" d="M 2194 1759 
Q 1497 1759 1228 1600 
Q 959 1441 959 1056 
Q 959 750 1161 570 
Q 1363 391 1709 391 
Q 2188 391 2477 730 
Q 2766 1069 2766 1631 
L 2766 1759 
L 2194 1759 
z
M 3341 1997 
L 3341 0 
L 2766 0 
L 2766 531 
Q 2569 213 2275 61 
Q 1981 -91 1556 -91 
Q 1019 -91 701 211 
Q 384 513 384 1019 
Q 384 1609 779 1909 
Q 1175 2209 1959 2209 
L 2766 2209 
L 2766 2266 
Q 2766 2663 2505 2880 
Q 2244 3097 1772 3097 
Q 1472 3097 1187 3025 
Q 903 2953 641 2809 
L 641 3341 
Q 956 3463 1253 3523 
Q 1550 3584 1831 3584 
Q 2591 3584 2966 3190 
Q 3341 2797 3341 1997 
z
" transform="scale(0.015625)"/>
       <path id="DejaVuSans-64" d="M 2906 2969 
L 2906 4863 
L 3481 4863 
L 3481 0 
L 2906 0 
L 2906 525 
Q 2725 213 2448 61 
Q 2172 -91 1784 -91 
Q 1150 -91 751 415 
Q 353 922 353 1747 
Q 353 2572 751 3078 
Q 1150 3584 1784 3584 
Q 2172 3584 2448 3432 
Q 2725 3281 2906 2969 
z
M 947 1747 
Q 947 1113 1208 752 
Q 1469 391 1925 391 
Q 2381 391 2643 752 
Q 2906 1113 2906 1747 
Q 2906 2381 2643 2742 
Q 2381 3103 1925 3103 
Q 1469 3103 1208 2742 
Q 947 2381 947 1747 
z
" transform="scale(0.015625)"/>
       <path id="DejaVuSans-69" d="M 603 3500 
L 1178 3500 
L 1178 0 
L 603 0 
L 603 3500 
z
M 603 4863 
L 1178 4863 
L 1178 4134 
L 603 4134 
L 603 4863 
z
" transform="scale(0.015625)"/>
       <path id="DejaVuSans-67" d="M 2906 1791 
Q 2906 2416 2648 2759 
Q 2391 3103 1925 3103 
Q 1463 3103 1205 2759 
Q 947 2416 947 1791 
Q 947 1169 1205 825 
Q 1463 481 1925 481 
Q 2391 481 2648 825 
Q 2906 1169 2906 1791 
z
M 3481 434 
Q 3481 -459 3084 -895 
Q 2688 -1331 1869 -1331 
Q 1566 -1331 1297 -1286 
Q 1028 -1241 775 -1147 
L 775 -588 
Q 1028 -725 1275 -790 
Q 1522 -856 1778 -856 
Q 2344 -856 2625 -561 
Q 2906 -266 2906 331 
L 2906 616 
Q 2728 306 2450 153 
Q 2172 0 1784 0 
Q 1141 0 747 490 
Q 353 981 353 1791 
Q 353 2603 747 3093 
Q 1141 3584 1784 3584 
Q 2172 3584 2450 3431 
Q 2728 3278 2906 2969 
L 2906 3500 
L 3481 3500 
L 3481 434 
z
" transform="scale(0.015625)"/>
       <path id="DejaVuSans-5f" d="M 3263 -1063 
L 3263 -1509 
L -63 -1509 
L -63 -1063 
L 3263 -1063 
z
" transform="scale(0.015625)"/>
       <path id="DejaVuSans-6c" d="M 603 4863 
L 1178 4863 
L 1178 0 
L 603 0 
L 603 4863 
z
" transform="scale(0.015625)"/>
       <path id="DejaVuSans-65" d="M 3597 1894 
L 3597 1613 
L 953 1613 
Q 991 1019 1311 708 
Q 1631 397 2203 397 
Q 2534 397 2845 478 
Q 3156 559 3463 722 
L 3463 178 
Q 3153 47 2828 -22 
Q 2503 -91 2169 -91 
Q 1331 -91 842 396 
Q 353 884 353 1716 
Q 353 2575 817 3079 
Q 1281 3584 2069 3584 
Q 2775 3584 3186 3129 
Q 3597 2675 3597 1894 
z
M 3022 2063 
Q 3016 2534 2758 2815 
Q 2500 3097 2075 3097 
Q 1594 3097 1305 2825 
Q 1016 2553 972 2059 
L 3022 2063 
z
" transform="scale(0.015625)"/>
       <path id="DejaVuSans-68" d="M 3513 2113 
L 3513 0 
L 2938 0 
L 2938 2094 
Q 2938 2591 2744 2837 
Q 2550 3084 2163 3084 
Q 1697 3084 1428 2787 
Q 1159 2491 1159 1978 
L 1159 0 
L 581 0 
L 581 4863 
L 1159 4863 
L 1159 2956 
Q 1366 3272 1645 3428 
Q 1925 3584 2291 3584 
Q 2894 3584 3203 3211 
Q 3513 2838 3513 2113 
z
" transform="scale(0.015625)"/>
       <path id="DejaVuSans-20" transform="scale(0.015625)"/>
       <path id="DejaVuSans-3d" d="M 678 2906 
L 4684 2906 
L 4684 2381 
L 678 2381 
L 678 2906 
z
M 678 1631 
L 4684 1631 
L 4684 1100 
L 678 1100 
L 678 1631 
z
" transform="scale(0.015625)"/>
       <path id="DejaVuSans-38" d="M 2034 2216 
Q 1584 2216 1326 1975 
Q 1069 1734 1069 1313 
Q 1069 891 1326 650 
Q 1584 409 2034 409 
Q 2484 409 2743 651 
Q 3003 894 3003 1313 
Q 3003 1734 2745 1975 
Q 2488 2216 2034 2216 
z
M 1403 2484 
Q 997 2584 770 2862 
Q 544 3141 544 3541 
Q 544 4100 942 4425 
Q 1341 4750 2034 4750 
Q 2731 4750 3128 4425 
Q 3525 4100 3525 3541 
Q 3525 3141 3298 2862 
Q 3072 2584 2669 2484 
Q 3125 2378 3379 2068 
Q 3634 1759 3634 1313 
Q 3634 634 3220 271 
Q 2806 -91 2034 -91 
Q 1263 -91 848 271 
Q 434 634 434 1313 
Q 434 1759 690 2068 
Q 947 2378 1403 2484 
z
M 1172 3481 
Q 1172 3119 1398 2916 
Q 1625 2713 2034 2713 
Q 2441 2713 2670 2916 
Q 2900 3119 2900 3481 
Q 2900 3844 2670 4047 
Q 2441 4250 2034 4250 
Q 1625 4250 1398 4047 
Q 1172 3844 1172 3481 
z
" transform="scale(0.015625)"/>
      </defs>
      <use xlink:href="#DejaVuSans-70"/>
      <use xlink:href="#DejaVuSans-61" x="63.476562"/>
      <use xlink:href="#DejaVuSans-64" x="124.755859"/>
      <use xlink:href="#DejaVuSans-64" x="188.232422"/>
      <use xlink:href="#DejaVuSans-69" x="251.708984"/>
      <use xlink:href="#DejaVuSans-6e" x="279.492188"/>
      <use xlink:href="#DejaVuSans-67" x="342.871094"/>
      <use xlink:href="#DejaVuSans-5f" x="406.347656"/>
      <use xlink:href="#DejaVuSans-6c" x="456.347656"/>
      <use xlink:href="#DejaVuSans-65" x="484.130859"/>
      <use xlink:href="#DejaVuSans-6e" x="545.654297"/>
      <use xlink:href="#DejaVuSans-67" x="609.033203"/>
      <use xlink:href="#DejaVuSans-74" x="672.509766"/>
      <use xlink:href="#DejaVuSans-68" x="711.71875"/>
      <use xlink:href="#DejaVuSans-20" x="775.097656"/>
      <use xlink:href="#DejaVuSans-3d" x="806.884766"/>
      <use xlink:href="#DejaVuSans-20" x="890.673828"/>
      <use xlink:href="#DejaVuSans-33" x="922.460938"/>
      <use xlink:href="#DejaVuSans-38" x="986.083984"/>
      <use xlink:href="#DejaVuSans-34" x="1049.707031"/>
     </g>
    </g>
    <g id="patch_63">
     <path d="M 266.384063 73.026688 
L 286.384063 73.026688 
L 286.384063 66.026688 
L 266.384063 66.026688 
z
" style="fill: #ff7f0e; fill-opacity: 0.5; stroke: #000000; stroke-linejoin: miter"/>
    </g>
    <g id="text_14">
     <!-- padding_length = 128 -->
     <g transform="translate(294.384063 73.026688) scale(0.1 -0.1)">
      <use xlink:href="#DejaVuSans-70"/>
      <use xlink:href="#DejaVuSans-61" x="63.476562"/>
      <use xlink:href="#DejaVuSans-64" x="124.755859"/>
      <use xlink:href="#DejaVuSans-64" x="188.232422"/>
      <use xlink:href="#DejaVuSans-69" x="251.708984"/>
      <use xlink:href="#DejaVuSans-6e" x="279.492188"/>
      <use xlink:href="#DejaVuSans-67" x="342.871094"/>
      <use xlink:href="#DejaVuSans-5f" x="406.347656"/>
      <use xlink:href="#DejaVuSans-6c" x="456.347656"/>
      <use xlink:href="#DejaVuSans-65" x="484.130859"/>
      <use xlink:href="#DejaVuSans-6e" x="545.654297"/>
      <use xlink:href="#DejaVuSans-67" x="609.033203"/>
      <use xlink:href="#DejaVuSans-74" x="672.509766"/>
      <use xlink:href="#DejaVuSans-68" x="711.71875"/>
      <use xlink:href="#DejaVuSans-20" x="775.097656"/>
      <use xlink:href="#DejaVuSans-3d" x="806.884766"/>
      <use xlink:href="#DejaVuSans-20" x="890.673828"/>
      <use xlink:href="#DejaVuSans-31" x="922.460938"/>
      <use xlink:href="#DejaVuSans-32" x="986.083984"/>
      <use xlink:href="#DejaVuSans-38" x="1049.707031"/>
     </g>
    </g>
   </g>
  </g>
  <g id="text_15">
   <!-- recursive fn_False_albert-base-v2_True -->
   <g transform="translate(114.638438 16.030125) scale(0.12 -0.12)">
    <defs>
     <path id="DejaVuSans-72" d="M 2631 2963 
Q 2534 3019 2420 3045 
Q 2306 3072 2169 3072 
Q 1681 3072 1420 2755 
Q 1159 2438 1159 1844 
L 1159 0 
L 581 0 
L 581 3500 
L 1159 3500 
L 1159 2956 
Q 1341 3275 1631 3429 
Q 1922 3584 2338 3584 
Q 2397 3584 2469 3576 
Q 2541 3569 2628 3553 
L 2631 2963 
z
" transform="scale(0.015625)"/>
     <path id="DejaVuSans-63" d="M 3122 3366 
L 3122 2828 
Q 2878 2963 2633 3030 
Q 2388 3097 2138 3097 
Q 1578 3097 1268 2742 
Q 959 2388 959 1747 
Q 959 1106 1268 751 
Q 1578 397 2138 397 
Q 2388 397 2633 464 
Q 2878 531 3122 666 
L 3122 134 
Q 2881 22 2623 -34 
Q 2366 -91 2075 -91 
Q 1284 -91 818 406 
Q 353 903 353 1747 
Q 353 2603 823 3093 
Q 1294 3584 2113 3584 
Q 2378 3584 2631 3529 
Q 2884 3475 3122 3366 
z
" transform="scale(0.015625)"/>
     <path id="DejaVuSans-73" d="M 2834 3397 
L 2834 2853 
Q 2591 2978 2328 3040 
Q 2066 3103 1784 3103 
Q 1356 3103 1142 2972 
Q 928 2841 928 2578 
Q 928 2378 1081 2264 
Q 1234 2150 1697 2047 
L 1894 2003 
Q 2506 1872 2764 1633 
Q 3022 1394 3022 966 
Q 3022 478 2636 193 
Q 2250 -91 1575 -91 
Q 1294 -91 989 -36 
Q 684 19 347 128 
L 347 722 
Q 666 556 975 473 
Q 1284 391 1588 391 
Q 1994 391 2212 530 
Q 2431 669 2431 922 
Q 2431 1156 2273 1281 
Q 2116 1406 1581 1522 
L 1381 1569 
Q 847 1681 609 1914 
Q 372 2147 372 2553 
Q 372 3047 722 3315 
Q 1072 3584 1716 3584 
Q 2034 3584 2315 3537 
Q 2597 3491 2834 3397 
z
" transform="scale(0.015625)"/>
     <path id="DejaVuSans-76" d="M 191 3500 
L 800 3500 
L 1894 563 
L 2988 3500 
L 3597 3500 
L 2284 0 
L 1503 0 
L 191 3500 
z
" transform="scale(0.015625)"/>
     <path id="DejaVuSans-66" d="M 2375 4863 
L 2375 4384 
L 1825 4384 
Q 1516 4384 1395 4259 
Q 1275 4134 1275 3809 
L 1275 3500 
L 2222 3500 
L 2222 3053 
L 1275 3053 
L 1275 0 
L 697 0 
L 697 3053 
L 147 3053 
L 147 3500 
L 697 3500 
L 697 3744 
Q 697 4328 969 4595 
Q 1241 4863 1831 4863 
L 2375 4863 
z
" transform="scale(0.015625)"/>
     <path id="DejaVuSans-46" d="M 628 4666 
L 3309 4666 
L 3309 4134 
L 1259 4134 
L 1259 2759 
L 3109 2759 
L 3109 2228 
L 1259 2228 
L 1259 0 
L 628 0 
L 628 4666 
z
" transform="scale(0.015625)"/>
     <path id="DejaVuSans-62" d="M 3116 1747 
Q 3116 2381 2855 2742 
Q 2594 3103 2138 3103 
Q 1681 3103 1420 2742 
Q 1159 2381 1159 1747 
Q 1159 1113 1420 752 
Q 1681 391 2138 391 
Q 2594 391 2855 752 
Q 3116 1113 3116 1747 
z
M 1159 2969 
Q 1341 3281 1617 3432 
Q 1894 3584 2278 3584 
Q 2916 3584 3314 3078 
Q 3713 2572 3713 1747 
Q 3713 922 3314 415 
Q 2916 -91 2278 -91 
Q 1894 -91 1617 61 
Q 1341 213 1159 525 
L 1159 0 
L 581 0 
L 581 4863 
L 1159 4863 
L 1159 2969 
z
" transform="scale(0.015625)"/>
     <path id="DejaVuSans-2d" d="M 313 2009 
L 1997 2009 
L 1997 1497 
L 313 1497 
L 313 2009 
z
" transform="scale(0.015625)"/>
     <path id="DejaVuSans-54" d="M -19 4666 
L 3928 4666 
L 3928 4134 
L 2272 4134 
L 2272 0 
L 1638 0 
L 1638 4134 
L -19 4134 
L -19 4666 
z
" transform="scale(0.015625)"/>
    </defs>
    <use xlink:href="#DejaVuSans-72"/>
    <use xlink:href="#DejaVuSans-65" x="38.863281"/>
    <use xlink:href="#DejaVuSans-63" x="100.386719"/>
    <use xlink:href="#DejaVuSans-75" x="155.367188"/>
    <use xlink:href="#DejaVuSans-72" x="218.746094"/>
    <use xlink:href="#DejaVuSans-73" x="259.859375"/>
    <use xlink:href="#DejaVuSans-69" x="311.958984"/>
    <use xlink:href="#DejaVuSans-76" x="339.742188"/>
    <use xlink:href="#DejaVuSans-65" x="398.921875"/>
    <use xlink:href="#DejaVuSans-20" x="460.445312"/>
    <use xlink:href="#DejaVuSans-66" x="492.232422"/>
    <use xlink:href="#DejaVuSans-6e" x="527.4375"/>
    <use xlink:href="#DejaVuSans-5f" x="590.816406"/>
    <use xlink:href="#DejaVuSans-46" x="640.816406"/>
    <use xlink:href="#DejaVuSans-61" x="689.210938"/>
    <use xlink:href="#DejaVuSans-6c" x="750.490234"/>
    <use xlink:href="#DejaVuSans-73" x="778.273438"/>
    <use xlink:href="#DejaVuSans-65" x="830.373047"/>
    <use xlink:href="#DejaVuSans-5f" x="891.896484"/>
    <use xlink:href="#DejaVuSans-61" x="941.896484"/>
    <use xlink:href="#DejaVuSans-6c" x="1003.175781"/>
    <use xlink:href="#DejaVuSans-62" x="1030.958984"/>
    <use xlink:href="#DejaVuSans-65" x="1094.435547"/>
    <use xlink:href="#DejaVuSans-72" x="1155.958984"/>
    <use xlink:href="#DejaVuSans-74" x="1197.072266"/>
    <use xlink:href="#DejaVuSans-2d" x="1236.28125"/>
    <use xlink:href="#DejaVuSans-62" x="1272.365234"/>
    <use xlink:href="#DejaVuSans-61" x="1335.841797"/>
    <use xlink:href="#DejaVuSans-73" x="1397.121094"/>
    <use xlink:href="#DejaVuSans-65" x="1449.220703"/>
    <use xlink:href="#DejaVuSans-2d" x="1510.744141"/>
    <use xlink:href="#DejaVuSans-76" x="1544.203125"/>
    <use xlink:href="#DejaVuSans-32" x="1603.382812"/>
    <use xlink:href="#DejaVuSans-5f" x="1667.005859"/>
    <use xlink:href="#DejaVuSans-54" x="1717.005859"/>
    <use xlink:href="#DejaVuSans-72" x="1763.339844"/>
    <use xlink:href="#DejaVuSans-75" x="1804.453125"/>
    <use xlink:href="#DejaVuSans-65" x="1867.832031"/>
   </g>
  </g>
 </g>
 <defs>
  <clipPath id="pd49f3f72b4">
   <rect x="57.6" y="41.472" width="357.12" height="266.112"/>
  </clipPath>
 </defs>
</svg>
