<?xml version="1.0" encoding="utf-8" standalone="no"?>
<!DOCTYPE svg PUBLIC "-//W3C//DTD SVG 1.1//EN"
  "http://www.w3.org/Graphics/SVG/1.1/DTD/svg11.dtd">
<svg xmlns:xlink="http://www.w3.org/1999/xlink" width="460.8pt" height="345.6pt" viewBox="0 0 460.8 345.6" xmlns="http://www.w3.org/2000/svg" version="1.1">
 <metadata>
  <rdf:RDF xmlns:dc="http://purl.org/dc/elements/1.1/" xmlns:cc="http://creativecommons.org/ns#" xmlns:rdf="http://www.w3.org/1999/02/22-rdf-syntax-ns#">
   <cc:Work>
    <dc:type rdf:resource="http://purl.org/dc/dcmitype/StillImage"/>
    <dc:date>2024-03-05T12:07:40.212207</dc:date>
    <dc:format>image/svg+xml</dc:format>
    <dc:creator>
     <cc:Agent>
      <dc:title>Matplotlib v3.6.3, https://matplotlib.org/</dc:title>
     </cc:Agent>
    </dc:creator>
   </cc:Work>
  </rdf:RDF>
 </metadata>
 <defs>
  <style type="text/css">*{stroke-linejoin: round; stroke-linecap: butt}</style>
 </defs>
 <g id="figure_1">
  <g id="patch_1">
   <path d="M 0 345.6 
L 460.8 345.6 
L 460.8 0 
L 0 0 
z
" style="fill: #ffffff"/>
  </g>
  <g id="axes_1">
   <g id="patch_2">
    <path d="M 57.6 307.584 
L 414.72 307.584 
L 414.72 41.472 
L 57.6 41.472 
z
" style="fill: #ffffff"/>
   </g>
   <g id="patch_3">
    <path d="M 73.832727 307.584 
L 77.564389 307.584 
L 77.564389 307.584 
L 73.832727 307.584 
z
" clip-path="url(#p5eacc92dc9)" style="fill: #ff7f0e; fill-opacity: 0.5; stroke: #000000; stroke-width: 0.373166; stroke-linejoin: miter"/>
   </g>
   <g id="patch_4">
    <path d="M 77.564389 307.584 
L 81.29605 307.584 
L 81.29605 307.584 
L 77.564389 307.584 
z
" clip-path="url(#p5eacc92dc9)" style="fill: #ff7f0e; fill-opacity: 0.5; stroke: #000000; stroke-width: 0.373166; stroke-linejoin: miter"/>
   </g>
   <g id="patch_5">
    <path d="M 81.29605 307.584 
L 85.027712 307.584 
L 85.027712 307.584 
L 81.29605 307.584 
z
" clip-path="url(#p5eacc92dc9)" style="fill: #ff7f0e; fill-opacity: 0.5; stroke: #000000; stroke-width: 0.373166; stroke-linejoin: miter"/>
   </g>
   <g id="patch_6">
    <path d="M 85.027712 307.584 
L 88.759373 307.584 
L 88.759373 307.584 
L 85.027712 307.584 
z
" clip-path="url(#p5eacc92dc9)" style="fill: #ff7f0e; fill-opacity: 0.5; stroke: #000000; stroke-width: 0.373166; stroke-linejoin: miter"/>
   </g>
   <g id="patch_7">
    <path d="M 88.759373 307.584 
L 92.491034 307.584 
L 92.491034 307.584 
L 88.759373 307.584 
z
" clip-path="url(#p5eacc92dc9)" style="fill: #ff7f0e; fill-opacity: 0.5; stroke: #000000; stroke-width: 0.373166; stroke-linejoin: miter"/>
   </g>
   <g id="patch_8">
    <path d="M 92.491034 307.584 
L 96.222696 307.584 
L 96.222696 307.584 
L 92.491034 307.584 
z
" clip-path="url(#p5eacc92dc9)" style="fill: #ff7f0e; fill-opacity: 0.5; stroke: #000000; stroke-width: 0.373166; stroke-linejoin: miter"/>
   </g>
   <g id="patch_9">
    <path d="M 96.222696 307.584 
L 99.954357 307.584 
L 99.954357 307.584 
L 96.222696 307.584 
z
" clip-path="url(#p5eacc92dc9)" style="fill: #ff7f0e; fill-opacity: 0.5; stroke: #000000; stroke-width: 0.373166; stroke-linejoin: miter"/>
   </g>
   <g id="patch_10">
    <path d="M 99.954357 307.584 
L 103.686019 307.584 
L 103.686019 307.584 
L 99.954357 307.584 
z
" clip-path="url(#p5eacc92dc9)" style="fill: #ff7f0e; fill-opacity: 0.5; stroke: #000000; stroke-width: 0.373166; stroke-linejoin: miter"/>
   </g>
   <g id="patch_11">
    <path d="M 103.686019 307.584 
L 107.41768 307.584 
L 107.41768 307.311484 
L 103.686019 307.311484 
z
" clip-path="url(#p5eacc92dc9)" style="fill: #ff7f0e; fill-opacity: 0.5; stroke: #000000; stroke-width: 0.373166; stroke-linejoin: miter"/>
   </g>
   <g id="patch_12">
    <path d="M 107.41768 307.584 
L 111.149342 307.584 
L 111.149342 307.584 
L 107.41768 307.584 
z
" clip-path="url(#p5eacc92dc9)" style="fill: #ff7f0e; fill-opacity: 0.5; stroke: #000000; stroke-width: 0.373166; stroke-linejoin: miter"/>
   </g>
   <g id="patch_13">
    <path d="M 111.149342 307.584 
L 114.881003 307.584 
L 114.881003 307.584 
L 111.149342 307.584 
z
" clip-path="url(#p5eacc92dc9)" style="fill: #ff7f0e; fill-opacity: 0.5; stroke: #000000; stroke-width: 0.373166; stroke-linejoin: miter"/>
   </g>
   <g id="patch_14">
    <path d="M 114.881003 307.584 
L 118.612665 307.584 
L 118.612665 307.038968 
L 114.881003 307.038968 
z
" clip-path="url(#p5eacc92dc9)" style="fill: #ff7f0e; fill-opacity: 0.5; stroke: #000000; stroke-width: 0.373166; stroke-linejoin: miter"/>
   </g>
   <g id="patch_15">
    <path d="M 118.612665 307.584 
L 122.344326 307.584 
L 122.344326 307.311484 
L 118.612665 307.311484 
z
" clip-path="url(#p5eacc92dc9)" style="fill: #ff7f0e; fill-opacity: 0.5; stroke: #000000; stroke-width: 0.373166; stroke-linejoin: miter"/>
   </g>
   <g id="patch_16">
    <path d="M 122.344326 307.584 
L 126.075987 307.584 
L 126.075987 307.311484 
L 122.344326 307.311484 
z
" clip-path="url(#p5eacc92dc9)" style="fill: #ff7f0e; fill-opacity: 0.5; stroke: #000000; stroke-width: 0.373166; stroke-linejoin: miter"/>
   </g>
   <g id="patch_17">
    <path d="M 126.075987 307.584 
L 129.807649 307.584 
L 129.807649 307.311484 
L 126.075987 307.311484 
z
" clip-path="url(#p5eacc92dc9)" style="fill: #ff7f0e; fill-opacity: 0.5; stroke: #000000; stroke-width: 0.373166; stroke-linejoin: miter"/>
   </g>
   <g id="patch_18">
    <path d="M 129.807649 307.584 
L 133.53931 307.584 
L 133.53931 307.038968 
L 129.807649 307.038968 
z
" clip-path="url(#p5eacc92dc9)" style="fill: #ff7f0e; fill-opacity: 0.5; stroke: #000000; stroke-width: 0.373166; stroke-linejoin: miter"/>
   </g>
   <g id="patch_19">
    <path d="M 133.53931 307.584 
L 137.270972 307.584 
L 137.270972 306.766452 
L 133.53931 306.766452 
z
" clip-path="url(#p5eacc92dc9)" style="fill: #ff7f0e; fill-opacity: 0.5; stroke: #000000; stroke-width: 0.373166; stroke-linejoin: miter"/>
   </g>
   <g id="patch_20">
    <path d="M 137.270972 307.584 
L 141.002633 307.584 
L 141.002633 307.038968 
L 137.270972 307.038968 
z
" clip-path="url(#p5eacc92dc9)" style="fill: #ff7f0e; fill-opacity: 0.5; stroke: #000000; stroke-width: 0.373166; stroke-linejoin: miter"/>
   </g>
   <g id="patch_21">
    <path d="M 141.002633 307.584 
L 144.734295 307.584 
L 144.734295 306.766452 
L 141.002633 306.766452 
z
" clip-path="url(#p5eacc92dc9)" style="fill: #ff7f0e; fill-opacity: 0.5; stroke: #000000; stroke-width: 0.373166; stroke-linejoin: miter"/>
   </g>
   <g id="patch_22">
    <path d="M 144.734295 307.584 
L 148.465956 307.584 
L 148.465956 305.948903 
L 144.734295 305.948903 
z
" clip-path="url(#p5eacc92dc9)" style="fill: #ff7f0e; fill-opacity: 0.5; stroke: #000000; stroke-width: 0.373166; stroke-linejoin: miter"/>
   </g>
   <g id="patch_23">
    <path d="M 148.465956 307.584 
L 152.197618 307.584 
L 152.197618 307.311484 
L 148.465956 307.311484 
z
" clip-path="url(#p5eacc92dc9)" style="fill: #ff7f0e; fill-opacity: 0.5; stroke: #000000; stroke-width: 0.373166; stroke-linejoin: miter"/>
   </g>
   <g id="patch_24">
    <path d="M 152.197618 307.584 
L 155.929279 307.584 
L 155.929279 306.493935 
L 152.197618 306.493935 
z
" clip-path="url(#p5eacc92dc9)" style="fill: #ff7f0e; fill-opacity: 0.5; stroke: #000000; stroke-width: 0.373166; stroke-linejoin: miter"/>
   </g>
   <g id="patch_25">
    <path d="M 155.929279 307.584 
L 159.66094 307.584 
L 159.66094 305.948903 
L 155.929279 305.948903 
z
" clip-path="url(#p5eacc92dc9)" style="fill: #ff7f0e; fill-opacity: 0.5; stroke: #000000; stroke-width: 0.373166; stroke-linejoin: miter"/>
   </g>
   <g id="patch_26">
    <path d="M 159.66094 307.584 
L 163.392602 307.584 
L 163.392602 305.131355 
L 159.66094 305.131355 
z
" clip-path="url(#p5eacc92dc9)" style="fill: #ff7f0e; fill-opacity: 0.5; stroke: #000000; stroke-width: 0.373166; stroke-linejoin: miter"/>
   </g>
   <g id="patch_27">
    <path d="M 163.392602 307.584 
L 167.124263 307.584 
L 167.124263 307.038968 
L 163.392602 307.038968 
z
" clip-path="url(#p5eacc92dc9)" style="fill: #ff7f0e; fill-opacity: 0.5; stroke: #000000; stroke-width: 0.373166; stroke-linejoin: miter"/>
   </g>
   <g id="patch_28">
    <path d="M 167.124263 307.584 
L 170.855925 307.584 
L 170.855925 304.858839 
L 167.124263 304.858839 
z
" clip-path="url(#p5eacc92dc9)" style="fill: #ff7f0e; fill-opacity: 0.5; stroke: #000000; stroke-width: 0.373166; stroke-linejoin: miter"/>
   </g>
   <g id="patch_29">
    <path d="M 170.855925 307.584 
L 174.587586 307.584 
L 174.587586 305.676387 
L 170.855925 305.676387 
z
" clip-path="url(#p5eacc92dc9)" style="fill: #ff7f0e; fill-opacity: 0.5; stroke: #000000; stroke-width: 0.373166; stroke-linejoin: miter"/>
   </g>
   <g id="patch_30">
    <path d="M 174.587586 307.584 
L 178.319248 307.584 
L 178.319248 304.858839 
L 174.587586 304.858839 
z
" clip-path="url(#p5eacc92dc9)" style="fill: #ff7f0e; fill-opacity: 0.5; stroke: #000000; stroke-width: 0.373166; stroke-linejoin: miter"/>
   </g>
   <g id="patch_31">
    <path d="M 178.319248 307.584 
L 182.050909 307.584 
L 182.050909 304.313806 
L 178.319248 304.313806 
z
" clip-path="url(#p5eacc92dc9)" style="fill: #ff7f0e; fill-opacity: 0.5; stroke: #000000; stroke-width: 0.373166; stroke-linejoin: miter"/>
   </g>
   <g id="patch_32">
    <path d="M 182.050909 307.584 
L 185.782571 307.584 
L 185.782571 305.676387 
L 182.050909 305.676387 
z
" clip-path="url(#p5eacc92dc9)" style="fill: #ff7f0e; fill-opacity: 0.5; stroke: #000000; stroke-width: 0.373166; stroke-linejoin: miter"/>
   </g>
   <g id="patch_33">
    <path d="M 185.782571 307.584 
L 189.514232 307.584 
L 189.514232 304.858839 
L 185.782571 304.858839 
z
" clip-path="url(#p5eacc92dc9)" style="fill: #ff7f0e; fill-opacity: 0.5; stroke: #000000; stroke-width: 0.373166; stroke-linejoin: miter"/>
   </g>
   <g id="patch_34">
    <path d="M 189.514232 307.584 
L 193.245893 307.584 
L 193.245893 300.771097 
L 189.514232 300.771097 
z
" clip-path="url(#p5eacc92dc9)" style="fill: #ff7f0e; fill-opacity: 0.5; stroke: #000000; stroke-width: 0.373166; stroke-linejoin: miter"/>
   </g>
   <g id="patch_35">
    <path d="M 193.245893 307.584 
L 196.977555 307.584 
L 196.977555 302.133677 
L 193.245893 302.133677 
z
" clip-path="url(#p5eacc92dc9)" style="fill: #ff7f0e; fill-opacity: 0.5; stroke: #000000; stroke-width: 0.373166; stroke-linejoin: miter"/>
   </g>
   <g id="patch_36">
    <path d="M 196.977555 307.584 
L 200.709216 307.584 
L 200.709216 300.498581 
L 196.977555 300.498581 
z
" clip-path="url(#p5eacc92dc9)" style="fill: #ff7f0e; fill-opacity: 0.5; stroke: #000000; stroke-width: 0.373166; stroke-linejoin: miter"/>
   </g>
   <g id="patch_37">
    <path d="M 200.709216 307.584 
L 204.440878 307.584 
L 204.440878 304.313806 
L 200.709216 304.313806 
z
" clip-path="url(#p5eacc92dc9)" style="fill: #ff7f0e; fill-opacity: 0.5; stroke: #000000; stroke-width: 0.373166; stroke-linejoin: miter"/>
   </g>
   <g id="patch_38">
    <path d="M 204.440878 307.584 
L 208.172539 307.584 
L 208.172539 303.223742 
L 204.440878 303.223742 
z
" clip-path="url(#p5eacc92dc9)" style="fill: #ff7f0e; fill-opacity: 0.5; stroke: #000000; stroke-width: 0.373166; stroke-linejoin: miter"/>
   </g>
   <g id="patch_39">
    <path d="M 208.172539 307.584 
L 211.904201 307.584 
L 211.904201 302.67871 
L 208.172539 302.67871 
z
" clip-path="url(#p5eacc92dc9)" style="fill: #ff7f0e; fill-opacity: 0.5; stroke: #000000; stroke-width: 0.373166; stroke-linejoin: miter"/>
   </g>
   <g id="patch_40">
    <path d="M 211.904201 307.584 
L 215.635862 307.584 
L 215.635862 302.406194 
L 211.904201 302.406194 
z
" clip-path="url(#p5eacc92dc9)" style="fill: #ff7f0e; fill-opacity: 0.5; stroke: #000000; stroke-width: 0.373166; stroke-linejoin: miter"/>
   </g>
   <g id="patch_41">
    <path d="M 215.635862 307.584 
L 219.367524 307.584 
L 219.367524 303.496258 
L 215.635862 303.496258 
z
" clip-path="url(#p5eacc92dc9)" style="fill: #ff7f0e; fill-opacity: 0.5; stroke: #000000; stroke-width: 0.373166; stroke-linejoin: miter"/>
   </g>
   <g id="patch_42">
    <path d="M 219.367524 307.584 
L 223.099185 307.584 
L 223.099185 301.861161 
L 219.367524 301.861161 
z
" clip-path="url(#p5eacc92dc9)" style="fill: #ff7f0e; fill-opacity: 0.5; stroke: #000000; stroke-width: 0.373166; stroke-linejoin: miter"/>
   </g>
   <g id="patch_43">
    <path d="M 223.099185 307.584 
L 226.830846 307.584 
L 226.830846 303.496258 
L 223.099185 303.496258 
z
" clip-path="url(#p5eacc92dc9)" style="fill: #ff7f0e; fill-opacity: 0.5; stroke: #000000; stroke-width: 0.373166; stroke-linejoin: miter"/>
   </g>
   <g id="patch_44">
    <path d="M 226.830846 307.584 
L 230.562508 307.584 
L 230.562508 303.223742 
L 226.830846 303.223742 
z
" clip-path="url(#p5eacc92dc9)" style="fill: #ff7f0e; fill-opacity: 0.5; stroke: #000000; stroke-width: 0.373166; stroke-linejoin: miter"/>
   </g>
   <g id="patch_45">
    <path d="M 230.562508 307.584 
L 234.294169 307.584 
L 234.294169 304.586323 
L 230.562508 304.586323 
z
" clip-path="url(#p5eacc92dc9)" style="fill: #ff7f0e; fill-opacity: 0.5; stroke: #000000; stroke-width: 0.373166; stroke-linejoin: miter"/>
   </g>
   <g id="patch_46">
    <path d="M 234.294169 307.584 
L 238.025831 307.584 
L 238.025831 301.861161 
L 234.294169 301.861161 
z
" clip-path="url(#p5eacc92dc9)" style="fill: #ff7f0e; fill-opacity: 0.5; stroke: #000000; stroke-width: 0.373166; stroke-linejoin: miter"/>
   </g>
   <g id="patch_47">
    <path d="M 238.025831 307.584 
L 241.757492 307.584 
L 241.757492 303.768774 
L 238.025831 303.768774 
z
" clip-path="url(#p5eacc92dc9)" style="fill: #ff7f0e; fill-opacity: 0.5; stroke: #000000; stroke-width: 0.373166; stroke-linejoin: miter"/>
   </g>
   <g id="patch_48">
    <path d="M 241.757492 307.584 
L 245.489154 307.584 
L 245.489154 302.406194 
L 241.757492 302.406194 
z
" clip-path="url(#p5eacc92dc9)" style="fill: #ff7f0e; fill-opacity: 0.5; stroke: #000000; stroke-width: 0.373166; stroke-linejoin: miter"/>
   </g>
   <g id="patch_49">
    <path d="M 245.489154 307.584 
L 249.220815 307.584 
L 249.220815 304.313806 
L 245.489154 304.313806 
z
" clip-path="url(#p5eacc92dc9)" style="fill: #ff7f0e; fill-opacity: 0.5; stroke: #000000; stroke-width: 0.373166; stroke-linejoin: miter"/>
   </g>
   <g id="patch_50">
    <path d="M 249.220815 307.584 
L 252.952476 307.584 
L 252.952476 304.586323 
L 249.220815 304.586323 
z
" clip-path="url(#p5eacc92dc9)" style="fill: #ff7f0e; fill-opacity: 0.5; stroke: #000000; stroke-width: 0.373166; stroke-linejoin: miter"/>
   </g>
   <g id="patch_51">
    <path d="M 252.952476 307.584 
L 256.684138 307.584 
L 256.684138 303.496258 
L 252.952476 303.496258 
z
" clip-path="url(#p5eacc92dc9)" style="fill: #ff7f0e; fill-opacity: 0.5; stroke: #000000; stroke-width: 0.373166; stroke-linejoin: miter"/>
   </g>
   <g id="patch_52">
    <path d="M 256.684138 307.584 
L 260.415799 307.584 
L 260.415799 304.586323 
L 256.684138 304.586323 
z
" clip-path="url(#p5eacc92dc9)" style="fill: #ff7f0e; fill-opacity: 0.5; stroke: #000000; stroke-width: 0.373166; stroke-linejoin: miter"/>
   </g>
   <g id="patch_53">
    <path d="M 260.415799 307.584 
L 264.147461 307.584 
L 264.147461 305.676387 
L 260.415799 305.676387 
z
" clip-path="url(#p5eacc92dc9)" style="fill: #ff7f0e; fill-opacity: 0.5; stroke: #000000; stroke-width: 0.373166; stroke-linejoin: miter"/>
   </g>
   <g id="patch_54">
    <path d="M 264.147461 307.584 
L 267.879122 307.584 
L 267.879122 304.586323 
L 264.147461 304.586323 
z
" clip-path="url(#p5eacc92dc9)" style="fill: #ff7f0e; fill-opacity: 0.5; stroke: #000000; stroke-width: 0.373166; stroke-linejoin: miter"/>
   </g>
   <g id="patch_55">
    <path d="M 267.879122 307.584 
L 271.610784 307.584 
L 271.610784 306.766452 
L 267.879122 306.766452 
z
" clip-path="url(#p5eacc92dc9)" style="fill: #ff7f0e; fill-opacity: 0.5; stroke: #000000; stroke-width: 0.373166; stroke-linejoin: miter"/>
   </g>
   <g id="patch_56">
    <path d="M 271.610784 307.584 
L 275.342445 307.584 
L 275.342445 306.493935 
L 271.610784 306.493935 
z
" clip-path="url(#p5eacc92dc9)" style="fill: #ff7f0e; fill-opacity: 0.5; stroke: #000000; stroke-width: 0.373166; stroke-linejoin: miter"/>
   </g>
   <g id="patch_57">
    <path d="M 275.342445 307.584 
L 279.074107 307.584 
L 279.074107 305.403871 
L 275.342445 305.403871 
z
" clip-path="url(#p5eacc92dc9)" style="fill: #ff7f0e; fill-opacity: 0.5; stroke: #000000; stroke-width: 0.373166; stroke-linejoin: miter"/>
   </g>
   <g id="patch_58">
    <path d="M 279.074107 307.584 
L 282.805768 307.584 
L 282.805768 306.493935 
L 279.074107 306.493935 
z
" clip-path="url(#p5eacc92dc9)" style="fill: #ff7f0e; fill-opacity: 0.5; stroke: #000000; stroke-width: 0.373166; stroke-linejoin: miter"/>
   </g>
   <g id="patch_59">
    <path d="M 282.805768 307.584 
L 286.537429 307.584 
L 286.537429 305.676387 
L 282.805768 305.676387 
z
" clip-path="url(#p5eacc92dc9)" style="fill: #ff7f0e; fill-opacity: 0.5; stroke: #000000; stroke-width: 0.373166; stroke-linejoin: miter"/>
   </g>
   <g id="patch_60">
    <path d="M 286.537429 307.584 
L 290.269091 307.584 
L 290.269091 306.221419 
L 286.537429 306.221419 
z
" clip-path="url(#p5eacc92dc9)" style="fill: #ff7f0e; fill-opacity: 0.5; stroke: #000000; stroke-width: 0.373166; stroke-linejoin: miter"/>
   </g>
   <g id="patch_61">
    <path d="M 290.269091 307.584 
L 294.000752 307.584 
L 294.000752 306.493935 
L 290.269091 306.493935 
z
" clip-path="url(#p5eacc92dc9)" style="fill: #ff7f0e; fill-opacity: 0.5; stroke: #000000; stroke-width: 0.373166; stroke-linejoin: miter"/>
   </g>
   <g id="patch_62">
    <path d="M 294.000752 307.584 
L 297.732414 307.584 
L 297.732414 306.493935 
L 294.000752 306.493935 
z
" clip-path="url(#p5eacc92dc9)" style="fill: #ff7f0e; fill-opacity: 0.5; stroke: #000000; stroke-width: 0.373166; stroke-linejoin: miter"/>
   </g>
   <g id="patch_63">
    <path d="M 297.732414 307.584 
L 301.464075 307.584 
L 301.464075 305.948903 
L 297.732414 305.948903 
z
" clip-path="url(#p5eacc92dc9)" style="fill: #ff7f0e; fill-opacity: 0.5; stroke: #000000; stroke-width: 0.373166; stroke-linejoin: miter"/>
   </g>
   <g id="patch_64">
    <path d="M 301.464075 307.584 
L 305.195737 307.584 
L 305.195737 306.766452 
L 301.464075 306.766452 
z
" clip-path="url(#p5eacc92dc9)" style="fill: #ff7f0e; fill-opacity: 0.5; stroke: #000000; stroke-width: 0.373166; stroke-linejoin: miter"/>
   </g>
   <g id="patch_65">
    <path d="M 305.195737 307.584 
L 308.927398 307.584 
L 308.927398 306.493935 
L 305.195737 306.493935 
z
" clip-path="url(#p5eacc92dc9)" style="fill: #ff7f0e; fill-opacity: 0.5; stroke: #000000; stroke-width: 0.373166; stroke-linejoin: miter"/>
   </g>
   <g id="patch_66">
    <path d="M 308.927398 307.584 
L 312.65906 307.584 
L 312.65906 307.038968 
L 308.927398 307.038968 
z
" clip-path="url(#p5eacc92dc9)" style="fill: #ff7f0e; fill-opacity: 0.5; stroke: #000000; stroke-width: 0.373166; stroke-linejoin: miter"/>
   </g>
   <g id="patch_67">
    <path d="M 312.65906 307.584 
L 316.390721 307.584 
L 316.390721 307.038968 
L 312.65906 307.038968 
z
" clip-path="url(#p5eacc92dc9)" style="fill: #ff7f0e; fill-opacity: 0.5; stroke: #000000; stroke-width: 0.373166; stroke-linejoin: miter"/>
   </g>
   <g id="patch_68">
    <path d="M 316.390721 307.584 
L 320.122382 307.584 
L 320.122382 306.766452 
L 316.390721 306.766452 
z
" clip-path="url(#p5eacc92dc9)" style="fill: #ff7f0e; fill-opacity: 0.5; stroke: #000000; stroke-width: 0.373166; stroke-linejoin: miter"/>
   </g>
   <g id="patch_69">
    <path d="M 320.122382 307.584 
L 323.854044 307.584 
L 323.854044 307.038968 
L 320.122382 307.038968 
z
" clip-path="url(#p5eacc92dc9)" style="fill: #ff7f0e; fill-opacity: 0.5; stroke: #000000; stroke-width: 0.373166; stroke-linejoin: miter"/>
   </g>
   <g id="patch_70">
    <path d="M 323.854044 307.584 
L 327.585705 307.584 
L 327.585705 307.584 
L 323.854044 307.584 
z
" clip-path="url(#p5eacc92dc9)" style="fill: #ff7f0e; fill-opacity: 0.5; stroke: #000000; stroke-width: 0.373166; stroke-linejoin: miter"/>
   </g>
   <g id="patch_71">
    <path d="M 327.585705 307.584 
L 331.317367 307.584 
L 331.317367 307.311484 
L 327.585705 307.311484 
z
" clip-path="url(#p5eacc92dc9)" style="fill: #ff7f0e; fill-opacity: 0.5; stroke: #000000; stroke-width: 0.373166; stroke-linejoin: miter"/>
   </g>
   <g id="patch_72">
    <path d="M 331.317367 307.584 
L 335.049028 307.584 
L 335.049028 307.584 
L 331.317367 307.584 
z
" clip-path="url(#p5eacc92dc9)" style="fill: #ff7f0e; fill-opacity: 0.5; stroke: #000000; stroke-width: 0.373166; stroke-linejoin: miter"/>
   </g>
   <g id="patch_73">
    <path d="M 335.049028 307.584 
L 338.78069 307.584 
L 338.78069 307.038968 
L 335.049028 307.038968 
z
" clip-path="url(#p5eacc92dc9)" style="fill: #ff7f0e; fill-opacity: 0.5; stroke: #000000; stroke-width: 0.373166; stroke-linejoin: miter"/>
   </g>
   <g id="patch_74">
    <path d="M 338.78069 307.584 
L 342.512351 307.584 
L 342.512351 307.584 
L 338.78069 307.584 
z
" clip-path="url(#p5eacc92dc9)" style="fill: #ff7f0e; fill-opacity: 0.5; stroke: #000000; stroke-width: 0.373166; stroke-linejoin: miter"/>
   </g>
   <g id="patch_75">
    <path d="M 342.512351 307.584 
L 346.244013 307.584 
L 346.244013 307.584 
L 342.512351 307.584 
z
" clip-path="url(#p5eacc92dc9)" style="fill: #ff7f0e; fill-opacity: 0.5; stroke: #000000; stroke-width: 0.373166; stroke-linejoin: miter"/>
   </g>
   <g id="patch_76">
    <path d="M 346.244013 307.584 
L 349.975674 307.584 
L 349.975674 307.584 
L 346.244013 307.584 
z
" clip-path="url(#p5eacc92dc9)" style="fill: #ff7f0e; fill-opacity: 0.5; stroke: #000000; stroke-width: 0.373166; stroke-linejoin: miter"/>
   </g>
   <g id="patch_77">
    <path d="M 349.975674 307.584 
L 353.707335 307.584 
L 353.707335 307.311484 
L 349.975674 307.311484 
z
" clip-path="url(#p5eacc92dc9)" style="fill: #ff7f0e; fill-opacity: 0.5; stroke: #000000; stroke-width: 0.373166; stroke-linejoin: miter"/>
   </g>
   <g id="patch_78">
    <path d="M 353.707335 307.584 
L 357.438997 307.584 
L 357.438997 307.584 
L 353.707335 307.584 
z
" clip-path="url(#p5eacc92dc9)" style="fill: #ff7f0e; fill-opacity: 0.5; stroke: #000000; stroke-width: 0.373166; stroke-linejoin: miter"/>
   </g>
   <g id="patch_79">
    <path d="M 357.438997 307.584 
L 361.170658 307.584 
L 361.170658 307.584 
L 357.438997 307.584 
z
" clip-path="url(#p5eacc92dc9)" style="fill: #ff7f0e; fill-opacity: 0.5; stroke: #000000; stroke-width: 0.373166; stroke-linejoin: miter"/>
   </g>
   <g id="patch_80">
    <path d="M 361.170658 307.584 
L 364.90232 307.584 
L 364.90232 307.584 
L 361.170658 307.584 
z
" clip-path="url(#p5eacc92dc9)" style="fill: #ff7f0e; fill-opacity: 0.5; stroke: #000000; stroke-width: 0.373166; stroke-linejoin: miter"/>
   </g>
   <g id="patch_81">
    <path d="M 364.90232 307.584 
L 368.633981 307.584 
L 368.633981 307.584 
L 364.90232 307.584 
z
" clip-path="url(#p5eacc92dc9)" style="fill: #ff7f0e; fill-opacity: 0.5; stroke: #000000; stroke-width: 0.373166; stroke-linejoin: miter"/>
   </g>
   <g id="patch_82">
    <path d="M 368.633981 307.584 
L 372.365643 307.584 
L 372.365643 307.584 
L 368.633981 307.584 
z
" clip-path="url(#p5eacc92dc9)" style="fill: #ff7f0e; fill-opacity: 0.5; stroke: #000000; stroke-width: 0.373166; stroke-linejoin: miter"/>
   </g>
   <g id="patch_83">
    <path d="M 372.365643 307.584 
L 376.097304 307.584 
L 376.097304 307.584 
L 372.365643 307.584 
z
" clip-path="url(#p5eacc92dc9)" style="fill: #ff7f0e; fill-opacity: 0.5; stroke: #000000; stroke-width: 0.373166; stroke-linejoin: miter"/>
   </g>
   <g id="patch_84">
    <path d="M 376.097304 307.584 
L 379.828966 307.584 
L 379.828966 307.584 
L 376.097304 307.584 
z
" clip-path="url(#p5eacc92dc9)" style="fill: #ff7f0e; fill-opacity: 0.5; stroke: #000000; stroke-width: 0.373166; stroke-linejoin: miter"/>
   </g>
   <g id="patch_85">
    <path d="M 379.828966 307.584 
L 383.560627 307.584 
L 383.560627 307.584 
L 379.828966 307.584 
z
" clip-path="url(#p5eacc92dc9)" style="fill: #ff7f0e; fill-opacity: 0.5; stroke: #000000; stroke-width: 0.373166; stroke-linejoin: miter"/>
   </g>
   <g id="patch_86">
    <path d="M 383.560627 307.584 
L 387.292288 307.584 
L 387.292288 307.584 
L 383.560627 307.584 
z
" clip-path="url(#p5eacc92dc9)" style="fill: #ff7f0e; fill-opacity: 0.5; stroke: #000000; stroke-width: 0.373166; stroke-linejoin: miter"/>
   </g>
   <g id="patch_87">
    <path d="M 387.292288 307.584 
L 391.02395 307.584 
L 391.02395 307.584 
L 387.292288 307.584 
z
" clip-path="url(#p5eacc92dc9)" style="fill: #ff7f0e; fill-opacity: 0.5; stroke: #000000; stroke-width: 0.373166; stroke-linejoin: miter"/>
   </g>
   <g id="patch_88">
    <path d="M 391.02395 307.584 
L 394.755611 307.584 
L 394.755611 307.584 
L 391.02395 307.584 
z
" clip-path="url(#p5eacc92dc9)" style="fill: #ff7f0e; fill-opacity: 0.5; stroke: #000000; stroke-width: 0.373166; stroke-linejoin: miter"/>
   </g>
   <g id="patch_89">
    <path d="M 394.755611 307.584 
L 398.487273 307.584 
L 398.487273 307.584 
L 394.755611 307.584 
z
" clip-path="url(#p5eacc92dc9)" style="fill: #ff7f0e; fill-opacity: 0.5; stroke: #000000; stroke-width: 0.373166; stroke-linejoin: miter"/>
   </g>
   <g id="patch_90">
    <path d="M 73.832727 307.584 
L 77.564389 307.584 
L 77.564389 307.311484 
L 73.832727 307.311484 
z
" clip-path="url(#p5eacc92dc9)" style="fill: #1f77b4; fill-opacity: 0.5; stroke: #000000; stroke-width: 0.373166; stroke-linejoin: miter"/>
   </g>
   <g id="patch_91">
    <path d="M 77.564389 307.584 
L 81.29605 307.584 
L 81.29605 307.584 
L 77.564389 307.584 
z
" clip-path="url(#p5eacc92dc9)" style="fill: #1f77b4; fill-opacity: 0.5; stroke: #000000; stroke-width: 0.373166; stroke-linejoin: miter"/>
   </g>
   <g id="patch_92">
    <path d="M 81.29605 307.584 
L 85.027712 307.584 
L 85.027712 307.584 
L 81.29605 307.584 
z
" clip-path="url(#p5eacc92dc9)" style="fill: #1f77b4; fill-opacity: 0.5; stroke: #000000; stroke-width: 0.373166; stroke-linejoin: miter"/>
   </g>
   <g id="patch_93">
    <path d="M 85.027712 307.584 
L 88.759373 307.584 
L 88.759373 307.038968 
L 85.027712 307.038968 
z
" clip-path="url(#p5eacc92dc9)" style="fill: #1f77b4; fill-opacity: 0.5; stroke: #000000; stroke-width: 0.373166; stroke-linejoin: miter"/>
   </g>
   <g id="patch_94">
    <path d="M 88.759373 307.584 
L 92.491034 307.584 
L 92.491034 307.584 
L 88.759373 307.584 
z
" clip-path="url(#p5eacc92dc9)" style="fill: #1f77b4; fill-opacity: 0.5; stroke: #000000; stroke-width: 0.373166; stroke-linejoin: miter"/>
   </g>
   <g id="patch_95">
    <path d="M 92.491034 307.584 
L 96.222696 307.584 
L 96.222696 307.038968 
L 92.491034 307.038968 
z
" clip-path="url(#p5eacc92dc9)" style="fill: #1f77b4; fill-opacity: 0.5; stroke: #000000; stroke-width: 0.373166; stroke-linejoin: miter"/>
   </g>
   <g id="patch_96">
    <path d="M 96.222696 307.584 
L 99.954357 307.584 
L 99.954357 305.131355 
L 96.222696 305.131355 
z
" clip-path="url(#p5eacc92dc9)" style="fill: #1f77b4; fill-opacity: 0.5; stroke: #000000; stroke-width: 0.373166; stroke-linejoin: miter"/>
   </g>
   <g id="patch_97">
    <path d="M 99.954357 307.584 
L 103.686019 307.584 
L 103.686019 305.948903 
L 99.954357 305.948903 
z
" clip-path="url(#p5eacc92dc9)" style="fill: #1f77b4; fill-opacity: 0.5; stroke: #000000; stroke-width: 0.373166; stroke-linejoin: miter"/>
   </g>
   <g id="patch_98">
    <path d="M 103.686019 307.584 
L 107.41768 307.584 
L 107.41768 305.403871 
L 103.686019 305.403871 
z
" clip-path="url(#p5eacc92dc9)" style="fill: #1f77b4; fill-opacity: 0.5; stroke: #000000; stroke-width: 0.373166; stroke-linejoin: miter"/>
   </g>
   <g id="patch_99">
    <path d="M 107.41768 307.584 
L 111.149342 307.584 
L 111.149342 304.586323 
L 107.41768 304.586323 
z
" clip-path="url(#p5eacc92dc9)" style="fill: #1f77b4; fill-opacity: 0.5; stroke: #000000; stroke-width: 0.373166; stroke-linejoin: miter"/>
   </g>
   <g id="patch_100">
    <path d="M 111.149342 307.584 
L 114.881003 307.584 
L 114.881003 300.498581 
L 111.149342 300.498581 
z
" clip-path="url(#p5eacc92dc9)" style="fill: #1f77b4; fill-opacity: 0.5; stroke: #000000; stroke-width: 0.373166; stroke-linejoin: miter"/>
   </g>
   <g id="patch_101">
    <path d="M 114.881003 307.584 
L 118.612665 307.584 
L 118.612665 302.133677 
L 114.881003 302.133677 
z
" clip-path="url(#p5eacc92dc9)" style="fill: #1f77b4; fill-opacity: 0.5; stroke: #000000; stroke-width: 0.373166; stroke-linejoin: miter"/>
   </g>
   <g id="patch_102">
    <path d="M 118.612665 307.584 
L 122.344326 307.584 
L 122.344326 299.408516 
L 118.612665 299.408516 
z
" clip-path="url(#p5eacc92dc9)" style="fill: #1f77b4; fill-opacity: 0.5; stroke: #000000; stroke-width: 0.373166; stroke-linejoin: miter"/>
   </g>
   <g id="patch_103">
    <path d="M 122.344326 307.584 
L 126.075987 307.584 
L 126.075987 294.23071 
L 122.344326 294.23071 
z
" clip-path="url(#p5eacc92dc9)" style="fill: #1f77b4; fill-opacity: 0.5; stroke: #000000; stroke-width: 0.373166; stroke-linejoin: miter"/>
   </g>
   <g id="patch_104">
    <path d="M 126.075987 307.584 
L 129.807649 307.584 
L 129.807649 292.868129 
L 126.075987 292.868129 
z
" clip-path="url(#p5eacc92dc9)" style="fill: #1f77b4; fill-opacity: 0.5; stroke: #000000; stroke-width: 0.373166; stroke-linejoin: miter"/>
   </g>
   <g id="patch_105">
    <path d="M 129.807649 307.584 
L 133.53931 307.584 
L 133.53931 286.872774 
L 129.807649 286.872774 
z
" clip-path="url(#p5eacc92dc9)" style="fill: #1f77b4; fill-opacity: 0.5; stroke: #000000; stroke-width: 0.373166; stroke-linejoin: miter"/>
   </g>
   <g id="patch_106">
    <path d="M 133.53931 307.584 
L 137.270972 307.584 
L 137.270972 280.604903 
L 133.53931 280.604903 
z
" clip-path="url(#p5eacc92dc9)" style="fill: #1f77b4; fill-opacity: 0.5; stroke: #000000; stroke-width: 0.373166; stroke-linejoin: miter"/>
   </g>
   <g id="patch_107">
    <path d="M 137.270972 307.584 
L 141.002633 307.584 
L 141.002633 271.339355 
L 137.270972 271.339355 
z
" clip-path="url(#p5eacc92dc9)" style="fill: #1f77b4; fill-opacity: 0.5; stroke: #000000; stroke-width: 0.373166; stroke-linejoin: miter"/>
   </g>
   <g id="patch_108">
    <path d="M 141.002633 307.584 
L 144.734295 307.584 
L 144.734295 264.798968 
L 141.002633 264.798968 
z
" clip-path="url(#p5eacc92dc9)" style="fill: #1f77b4; fill-opacity: 0.5; stroke: #000000; stroke-width: 0.373166; stroke-linejoin: miter"/>
   </g>
   <g id="patch_109">
    <path d="M 144.734295 307.584 
L 148.465956 307.584 
L 148.465956 259.621161 
L 144.734295 259.621161 
z
" clip-path="url(#p5eacc92dc9)" style="fill: #1f77b4; fill-opacity: 0.5; stroke: #000000; stroke-width: 0.373166; stroke-linejoin: miter"/>
   </g>
   <g id="patch_110">
    <path d="M 148.465956 307.584 
L 152.197618 307.584 
L 152.197618 242.180129 
L 148.465956 242.180129 
z
" clip-path="url(#p5eacc92dc9)" style="fill: #1f77b4; fill-opacity: 0.5; stroke: #000000; stroke-width: 0.373166; stroke-linejoin: miter"/>
   </g>
   <g id="patch_111">
    <path d="M 152.197618 307.584 
L 155.929279 307.584 
L 155.929279 237.002323 
L 152.197618 237.002323 
z
" clip-path="url(#p5eacc92dc9)" style="fill: #1f77b4; fill-opacity: 0.5; stroke: #000000; stroke-width: 0.373166; stroke-linejoin: miter"/>
   </g>
   <g id="patch_112">
    <path d="M 155.929279 307.584 
L 159.66094 307.584 
L 159.66094 219.56129 
L 155.929279 219.56129 
z
" clip-path="url(#p5eacc92dc9)" style="fill: #1f77b4; fill-opacity: 0.5; stroke: #000000; stroke-width: 0.373166; stroke-linejoin: miter"/>
   </g>
   <g id="patch_113">
    <path d="M 159.66094 307.584 
L 163.392602 307.584 
L 163.392602 215.201032 
L 159.66094 215.201032 
z
" clip-path="url(#p5eacc92dc9)" style="fill: #1f77b4; fill-opacity: 0.5; stroke: #000000; stroke-width: 0.373166; stroke-linejoin: miter"/>
   </g>
   <g id="patch_114">
    <path d="M 163.392602 307.584 
L 167.124263 307.584 
L 167.124263 196.397419 
L 163.392602 196.397419 
z
" clip-path="url(#p5eacc92dc9)" style="fill: #1f77b4; fill-opacity: 0.5; stroke: #000000; stroke-width: 0.373166; stroke-linejoin: miter"/>
   </g>
   <g id="patch_115">
    <path d="M 167.124263 307.584 
L 170.855925 307.584 
L 170.855925 188.221935 
L 167.124263 188.221935 
z
" clip-path="url(#p5eacc92dc9)" style="fill: #1f77b4; fill-opacity: 0.5; stroke: #000000; stroke-width: 0.373166; stroke-linejoin: miter"/>
   </g>
   <g id="patch_116">
    <path d="M 170.855925 307.584 
L 174.587586 307.584 
L 174.587586 163.968 
L 170.855925 163.968 
z
" clip-path="url(#p5eacc92dc9)" style="fill: #1f77b4; fill-opacity: 0.5; stroke: #000000; stroke-width: 0.373166; stroke-linejoin: miter"/>
   </g>
   <g id="patch_117">
    <path d="M 174.587586 307.584 
L 178.319248 307.584 
L 178.319248 154.702452 
L 174.587586 154.702452 
z
" clip-path="url(#p5eacc92dc9)" style="fill: #1f77b4; fill-opacity: 0.5; stroke: #000000; stroke-width: 0.373166; stroke-linejoin: miter"/>
   </g>
   <g id="patch_118">
    <path d="M 178.319248 307.584 
L 182.050909 307.584 
L 182.050909 128.268387 
L 178.319248 128.268387 
z
" clip-path="url(#p5eacc92dc9)" style="fill: #1f77b4; fill-opacity: 0.5; stroke: #000000; stroke-width: 0.373166; stroke-linejoin: miter"/>
   </g>
   <g id="patch_119">
    <path d="M 182.050909 307.584 
L 185.782571 307.584 
L 185.782571 121.182968 
L 182.050909 121.182968 
z
" clip-path="url(#p5eacc92dc9)" style="fill: #1f77b4; fill-opacity: 0.5; stroke: #000000; stroke-width: 0.373166; stroke-linejoin: miter"/>
   </g>
   <g id="patch_120">
    <path d="M 185.782571 307.584 
L 189.514232 307.584 
L 189.514232 102.651871 
L 185.782571 102.651871 
z
" clip-path="url(#p5eacc92dc9)" style="fill: #1f77b4; fill-opacity: 0.5; stroke: #000000; stroke-width: 0.373166; stroke-linejoin: miter"/>
   </g>
   <g id="patch_121">
    <path d="M 189.514232 307.584 
L 193.245893 307.584 
L 193.245893 101.834323 
L 189.514232 101.834323 
z
" clip-path="url(#p5eacc92dc9)" style="fill: #1f77b4; fill-opacity: 0.5; stroke: #000000; stroke-width: 0.373166; stroke-linejoin: miter"/>
   </g>
   <g id="patch_122">
    <path d="M 193.245893 307.584 
L 196.977555 307.584 
L 196.977555 100.744258 
L 193.245893 100.744258 
z
" clip-path="url(#p5eacc92dc9)" style="fill: #1f77b4; fill-opacity: 0.5; stroke: #000000; stroke-width: 0.373166; stroke-linejoin: miter"/>
   </g>
   <g id="patch_123">
    <path d="M 196.977555 307.584 
L 200.709216 307.584 
L 200.709216 75.127742 
L 196.977555 75.127742 
z
" clip-path="url(#p5eacc92dc9)" style="fill: #1f77b4; fill-opacity: 0.5; stroke: #000000; stroke-width: 0.373166; stroke-linejoin: miter"/>
   </g>
   <g id="patch_124">
    <path d="M 200.709216 307.584 
L 204.440878 307.584 
L 204.440878 72.947613 
L 200.709216 72.947613 
z
" clip-path="url(#p5eacc92dc9)" style="fill: #1f77b4; fill-opacity: 0.5; stroke: #000000; stroke-width: 0.373166; stroke-linejoin: miter"/>
   </g>
   <g id="patch_125">
    <path d="M 204.440878 307.584 
L 208.172539 307.584 
L 208.172539 55.234065 
L 204.440878 55.234065 
z
" clip-path="url(#p5eacc92dc9)" style="fill: #1f77b4; fill-opacity: 0.5; stroke: #000000; stroke-width: 0.373166; stroke-linejoin: miter"/>
   </g>
   <g id="patch_126">
    <path d="M 208.172539 307.584 
L 211.904201 307.584 
L 211.904201 59.594323 
L 208.172539 59.594323 
z
" clip-path="url(#p5eacc92dc9)" style="fill: #1f77b4; fill-opacity: 0.5; stroke: #000000; stroke-width: 0.373166; stroke-linejoin: miter"/>
   </g>
   <g id="patch_127">
    <path d="M 211.904201 307.584 
L 215.635862 307.584 
L 215.635862 55.234065 
L 211.904201 55.234065 
z
" clip-path="url(#p5eacc92dc9)" style="fill: #1f77b4; fill-opacity: 0.5; stroke: #000000; stroke-width: 0.373166; stroke-linejoin: miter"/>
   </g>
   <g id="patch_128">
    <path d="M 215.635862 307.584 
L 219.367524 307.584 
L 219.367524 59.321806 
L 215.635862 59.321806 
z
" clip-path="url(#p5eacc92dc9)" style="fill: #1f77b4; fill-opacity: 0.5; stroke: #000000; stroke-width: 0.373166; stroke-linejoin: miter"/>
   </g>
   <g id="patch_129">
    <path d="M 219.367524 307.584 
L 223.099185 307.584 
L 223.099185 54.144 
L 219.367524 54.144 
z
" clip-path="url(#p5eacc92dc9)" style="fill: #1f77b4; fill-opacity: 0.5; stroke: #000000; stroke-width: 0.373166; stroke-linejoin: miter"/>
   </g>
   <g id="patch_130">
    <path d="M 223.099185 307.584 
L 226.830846 307.584 
L 226.830846 67.769806 
L 223.099185 67.769806 
z
" clip-path="url(#p5eacc92dc9)" style="fill: #1f77b4; fill-opacity: 0.5; stroke: #000000; stroke-width: 0.373166; stroke-linejoin: miter"/>
   </g>
   <g id="patch_131">
    <path d="M 226.830846 307.584 
L 230.562508 307.584 
L 230.562508 72.675097 
L 226.830846 72.675097 
z
" clip-path="url(#p5eacc92dc9)" style="fill: #1f77b4; fill-opacity: 0.5; stroke: #000000; stroke-width: 0.373166; stroke-linejoin: miter"/>
   </g>
   <g id="patch_132">
    <path d="M 230.562508 307.584 
L 234.294169 307.584 
L 234.294169 82.758194 
L 230.562508 82.758194 
z
" clip-path="url(#p5eacc92dc9)" style="fill: #1f77b4; fill-opacity: 0.5; stroke: #000000; stroke-width: 0.373166; stroke-linejoin: miter"/>
   </g>
   <g id="patch_133">
    <path d="M 234.294169 307.584 
L 238.025831 307.584 
L 238.025831 93.931355 
L 234.294169 93.931355 
z
" clip-path="url(#p5eacc92dc9)" style="fill: #1f77b4; fill-opacity: 0.5; stroke: #000000; stroke-width: 0.373166; stroke-linejoin: miter"/>
   </g>
   <g id="patch_134">
    <path d="M 238.025831 307.584 
L 241.757492 307.584 
L 241.757492 102.106839 
L 238.025831 102.106839 
z
" clip-path="url(#p5eacc92dc9)" style="fill: #1f77b4; fill-opacity: 0.5; stroke: #000000; stroke-width: 0.373166; stroke-linejoin: miter"/>
   </g>
   <g id="patch_135">
    <path d="M 241.757492 307.584 
L 245.489154 307.584 
L 245.489154 107.829677 
L 241.757492 107.829677 
z
" clip-path="url(#p5eacc92dc9)" style="fill: #1f77b4; fill-opacity: 0.5; stroke: #000000; stroke-width: 0.373166; stroke-linejoin: miter"/>
   </g>
   <g id="patch_136">
    <path d="M 245.489154 307.584 
L 249.220815 307.584 
L 249.220815 96.656516 
L 245.489154 96.656516 
z
" clip-path="url(#p5eacc92dc9)" style="fill: #1f77b4; fill-opacity: 0.5; stroke: #000000; stroke-width: 0.373166; stroke-linejoin: miter"/>
   </g>
   <g id="patch_137">
    <path d="M 249.220815 307.584 
L 252.952476 307.584 
L 252.952476 143.801806 
L 249.220815 143.801806 
z
" clip-path="url(#p5eacc92dc9)" style="fill: #1f77b4; fill-opacity: 0.5; stroke: #000000; stroke-width: 0.373166; stroke-linejoin: miter"/>
   </g>
   <g id="patch_138">
    <path d="M 252.952476 307.584 
L 256.684138 307.584 
L 256.684138 160.970323 
L 252.952476 160.970323 
z
" clip-path="url(#p5eacc92dc9)" style="fill: #1f77b4; fill-opacity: 0.5; stroke: #000000; stroke-width: 0.373166; stroke-linejoin: miter"/>
   </g>
   <g id="patch_139">
    <path d="M 256.684138 307.584 
L 260.415799 307.584 
L 260.415799 156.065032 
L 256.684138 156.065032 
z
" clip-path="url(#p5eacc92dc9)" style="fill: #1f77b4; fill-opacity: 0.5; stroke: #000000; stroke-width: 0.373166; stroke-linejoin: miter"/>
   </g>
   <g id="patch_140">
    <path d="M 260.415799 307.584 
L 264.147461 307.584 
L 264.147461 174.051097 
L 260.415799 174.051097 
z
" clip-path="url(#p5eacc92dc9)" style="fill: #1f77b4; fill-opacity: 0.5; stroke: #000000; stroke-width: 0.373166; stroke-linejoin: miter"/>
   </g>
   <g id="patch_141">
    <path d="M 264.147461 307.584 
L 267.879122 307.584 
L 267.879122 185.224258 
L 264.147461 185.224258 
z
" clip-path="url(#p5eacc92dc9)" style="fill: #1f77b4; fill-opacity: 0.5; stroke: #000000; stroke-width: 0.373166; stroke-linejoin: miter"/>
   </g>
   <g id="patch_142">
    <path d="M 267.879122 307.584 
L 271.610784 307.584 
L 271.610784 193.672258 
L 267.879122 193.672258 
z
" clip-path="url(#p5eacc92dc9)" style="fill: #1f77b4; fill-opacity: 0.5; stroke: #000000; stroke-width: 0.373166; stroke-linejoin: miter"/>
   </g>
   <g id="patch_143">
    <path d="M 271.610784 307.584 
L 275.342445 307.584 
L 275.342445 212.203355 
L 271.610784 212.203355 
z
" clip-path="url(#p5eacc92dc9)" style="fill: #1f77b4; fill-opacity: 0.5; stroke: #000000; stroke-width: 0.373166; stroke-linejoin: miter"/>
   </g>
   <g id="patch_144">
    <path d="M 275.342445 307.584 
L 279.074107 307.584 
L 279.074107 217.653677 
L 275.342445 217.653677 
z
" clip-path="url(#p5eacc92dc9)" style="fill: #1f77b4; fill-opacity: 0.5; stroke: #000000; stroke-width: 0.373166; stroke-linejoin: miter"/>
   </g>
   <g id="patch_145">
    <path d="M 279.074107 307.584 
L 282.805768 307.584 
L 282.805768 234.549677 
L 279.074107 234.549677 
z
" clip-path="url(#p5eacc92dc9)" style="fill: #1f77b4; fill-opacity: 0.5; stroke: #000000; stroke-width: 0.373166; stroke-linejoin: miter"/>
   </g>
   <g id="patch_146">
    <path d="M 282.805768 307.584 
L 286.537429 307.584 
L 286.537429 227.736774 
L 282.805768 227.736774 
z
" clip-path="url(#p5eacc92dc9)" style="fill: #1f77b4; fill-opacity: 0.5; stroke: #000000; stroke-width: 0.373166; stroke-linejoin: miter"/>
   </g>
   <g id="patch_147">
    <path d="M 286.537429 307.584 
L 290.269091 307.584 
L 290.269091 241.362581 
L 286.537429 241.362581 
z
" clip-path="url(#p5eacc92dc9)" style="fill: #1f77b4; fill-opacity: 0.5; stroke: #000000; stroke-width: 0.373166; stroke-linejoin: miter"/>
   </g>
   <g id="patch_148">
    <path d="M 290.269091 307.584 
L 294.000752 307.584 
L 294.000752 251.99071 
L 290.269091 251.99071 
z
" clip-path="url(#p5eacc92dc9)" style="fill: #1f77b4; fill-opacity: 0.5; stroke: #000000; stroke-width: 0.373166; stroke-linejoin: miter"/>
   </g>
   <g id="patch_149">
    <path d="M 294.000752 307.584 
L 297.732414 307.584 
L 297.732414 254.988387 
L 294.000752 254.988387 
z
" clip-path="url(#p5eacc92dc9)" style="fill: #1f77b4; fill-opacity: 0.5; stroke: #000000; stroke-width: 0.373166; stroke-linejoin: miter"/>
   </g>
   <g id="patch_150">
    <path d="M 297.732414 307.584 
L 301.464075 307.584 
L 301.464075 268.069161 
L 297.732414 268.069161 
z
" clip-path="url(#p5eacc92dc9)" style="fill: #1f77b4; fill-opacity: 0.5; stroke: #000000; stroke-width: 0.373166; stroke-linejoin: miter"/>
   </g>
   <g id="patch_151">
    <path d="M 301.464075 307.584 
L 305.195737 307.584 
L 305.195737 278.969806 
L 301.464075 278.969806 
z
" clip-path="url(#p5eacc92dc9)" style="fill: #1f77b4; fill-opacity: 0.5; stroke: #000000; stroke-width: 0.373166; stroke-linejoin: miter"/>
   </g>
   <g id="patch_152">
    <path d="M 305.195737 307.584 
L 308.927398 307.584 
L 308.927398 275.154581 
L 305.195737 275.154581 
z
" clip-path="url(#p5eacc92dc9)" style="fill: #1f77b4; fill-opacity: 0.5; stroke: #000000; stroke-width: 0.373166; stroke-linejoin: miter"/>
   </g>
   <g id="patch_153">
    <path d="M 308.927398 307.584 
L 312.65906 307.584 
L 312.65906 283.057548 
L 308.927398 283.057548 
z
" clip-path="url(#p5eacc92dc9)" style="fill: #1f77b4; fill-opacity: 0.5; stroke: #000000; stroke-width: 0.373166; stroke-linejoin: miter"/>
   </g>
   <g id="patch_154">
    <path d="M 312.65906 307.584 
L 316.390721 307.584 
L 316.390721 289.597935 
L 312.65906 289.597935 
z
" clip-path="url(#p5eacc92dc9)" style="fill: #1f77b4; fill-opacity: 0.5; stroke: #000000; stroke-width: 0.373166; stroke-linejoin: miter"/>
   </g>
   <g id="patch_155">
    <path d="M 316.390721 307.584 
L 320.122382 307.584 
L 320.122382 290.142968 
L 316.390721 290.142968 
z
" clip-path="url(#p5eacc92dc9)" style="fill: #1f77b4; fill-opacity: 0.5; stroke: #000000; stroke-width: 0.373166; stroke-linejoin: miter"/>
   </g>
   <g id="patch_156">
    <path d="M 320.122382 307.584 
L 323.854044 307.584 
L 323.854044 295.865806 
L 320.122382 295.865806 
z
" clip-path="url(#p5eacc92dc9)" style="fill: #1f77b4; fill-opacity: 0.5; stroke: #000000; stroke-width: 0.373166; stroke-linejoin: miter"/>
   </g>
   <g id="patch_157">
    <path d="M 323.854044 307.584 
L 327.585705 307.584 
L 327.585705 296.138323 
L 323.854044 296.138323 
z
" clip-path="url(#p5eacc92dc9)" style="fill: #1f77b4; fill-opacity: 0.5; stroke: #000000; stroke-width: 0.373166; stroke-linejoin: miter"/>
   </g>
   <g id="patch_158">
    <path d="M 327.585705 307.584 
L 331.317367 307.584 
L 331.317367 297.228387 
L 327.585705 297.228387 
z
" clip-path="url(#p5eacc92dc9)" style="fill: #1f77b4; fill-opacity: 0.5; stroke: #000000; stroke-width: 0.373166; stroke-linejoin: miter"/>
   </g>
   <g id="patch_159">
    <path d="M 331.317367 307.584 
L 335.049028 307.584 
L 335.049028 299.408516 
L 331.317367 299.408516 
z
" clip-path="url(#p5eacc92dc9)" style="fill: #1f77b4; fill-opacity: 0.5; stroke: #000000; stroke-width: 0.373166; stroke-linejoin: miter"/>
   </g>
   <g id="patch_160">
    <path d="M 335.049028 307.584 
L 338.78069 307.584 
L 338.78069 302.67871 
L 335.049028 302.67871 
z
" clip-path="url(#p5eacc92dc9)" style="fill: #1f77b4; fill-opacity: 0.5; stroke: #000000; stroke-width: 0.373166; stroke-linejoin: miter"/>
   </g>
   <g id="patch_161">
    <path d="M 338.78069 307.584 
L 342.512351 307.584 
L 342.512351 300.226065 
L 338.78069 300.226065 
z
" clip-path="url(#p5eacc92dc9)" style="fill: #1f77b4; fill-opacity: 0.5; stroke: #000000; stroke-width: 0.373166; stroke-linejoin: miter"/>
   </g>
   <g id="patch_162">
    <path d="M 342.512351 307.584 
L 346.244013 307.584 
L 346.244013 304.586323 
L 342.512351 304.586323 
z
" clip-path="url(#p5eacc92dc9)" style="fill: #1f77b4; fill-opacity: 0.5; stroke: #000000; stroke-width: 0.373166; stroke-linejoin: miter"/>
   </g>
   <g id="patch_163">
    <path d="M 346.244013 307.584 
L 349.975674 307.584 
L 349.975674 305.131355 
L 346.244013 305.131355 
z
" clip-path="url(#p5eacc92dc9)" style="fill: #1f77b4; fill-opacity: 0.5; stroke: #000000; stroke-width: 0.373166; stroke-linejoin: miter"/>
   </g>
   <g id="patch_164">
    <path d="M 349.975674 307.584 
L 353.707335 307.584 
L 353.707335 304.858839 
L 349.975674 304.858839 
z
" clip-path="url(#p5eacc92dc9)" style="fill: #1f77b4; fill-opacity: 0.5; stroke: #000000; stroke-width: 0.373166; stroke-linejoin: miter"/>
   </g>
   <g id="patch_165">
    <path d="M 353.707335 307.584 
L 357.438997 307.584 
L 357.438997 305.948903 
L 353.707335 305.948903 
z
" clip-path="url(#p5eacc92dc9)" style="fill: #1f77b4; fill-opacity: 0.5; stroke: #000000; stroke-width: 0.373166; stroke-linejoin: miter"/>
   </g>
   <g id="patch_166">
    <path d="M 357.438997 307.584 
L 361.170658 307.584 
L 361.170658 305.948903 
L 357.438997 305.948903 
z
" clip-path="url(#p5eacc92dc9)" style="fill: #1f77b4; fill-opacity: 0.5; stroke: #000000; stroke-width: 0.373166; stroke-linejoin: miter"/>
   </g>
   <g id="patch_167">
    <path d="M 361.170658 307.584 
L 364.90232 307.584 
L 364.90232 305.948903 
L 361.170658 305.948903 
z
" clip-path="url(#p5eacc92dc9)" style="fill: #1f77b4; fill-opacity: 0.5; stroke: #000000; stroke-width: 0.373166; stroke-linejoin: miter"/>
   </g>
   <g id="patch_168">
    <path d="M 364.90232 307.584 
L 368.633981 307.584 
L 368.633981 307.311484 
L 364.90232 307.311484 
z
" clip-path="url(#p5eacc92dc9)" style="fill: #1f77b4; fill-opacity: 0.5; stroke: #000000; stroke-width: 0.373166; stroke-linejoin: miter"/>
   </g>
   <g id="patch_169">
    <path d="M 368.633981 307.584 
L 372.365643 307.584 
L 372.365643 307.311484 
L 368.633981 307.311484 
z
" clip-path="url(#p5eacc92dc9)" style="fill: #1f77b4; fill-opacity: 0.5; stroke: #000000; stroke-width: 0.373166; stroke-linejoin: miter"/>
   </g>
   <g id="patch_170">
    <path d="M 372.365643 307.584 
L 376.097304 307.584 
L 376.097304 307.038968 
L 372.365643 307.038968 
z
" clip-path="url(#p5eacc92dc9)" style="fill: #1f77b4; fill-opacity: 0.5; stroke: #000000; stroke-width: 0.373166; stroke-linejoin: miter"/>
   </g>
   <g id="patch_171">
    <path d="M 376.097304 307.584 
L 379.828966 307.584 
L 379.828966 306.493935 
L 376.097304 306.493935 
z
" clip-path="url(#p5eacc92dc9)" style="fill: #1f77b4; fill-opacity: 0.5; stroke: #000000; stroke-width: 0.373166; stroke-linejoin: miter"/>
   </g>
   <g id="patch_172">
    <path d="M 379.828966 307.584 
L 383.560627 307.584 
L 383.560627 307.311484 
L 379.828966 307.311484 
z
" clip-path="url(#p5eacc92dc9)" style="fill: #1f77b4; fill-opacity: 0.5; stroke: #000000; stroke-width: 0.373166; stroke-linejoin: miter"/>
   </g>
   <g id="patch_173">
    <path d="M 383.560627 307.584 
L 387.292288 307.584 
L 387.292288 307.311484 
L 383.560627 307.311484 
z
" clip-path="url(#p5eacc92dc9)" style="fill: #1f77b4; fill-opacity: 0.5; stroke: #000000; stroke-width: 0.373166; stroke-linejoin: miter"/>
   </g>
   <g id="patch_174">
    <path d="M 387.292288 307.584 
L 391.02395 307.584 
L 391.02395 307.311484 
L 387.292288 307.311484 
z
" clip-path="url(#p5eacc92dc9)" style="fill: #1f77b4; fill-opacity: 0.5; stroke: #000000; stroke-width: 0.373166; stroke-linejoin: miter"/>
   </g>
   <g id="patch_175">
    <path d="M 391.02395 307.584 
L 394.755611 307.584 
L 394.755611 307.584 
L 391.02395 307.584 
z
" clip-path="url(#p5eacc92dc9)" style="fill: #1f77b4; fill-opacity: 0.5; stroke: #000000; stroke-width: 0.373166; stroke-linejoin: miter"/>
   </g>
   <g id="patch_176">
    <path d="M 394.755611 307.584 
L 398.487273 307.584 
L 398.487273 307.038968 
L 394.755611 307.038968 
z
" clip-path="url(#p5eacc92dc9)" style="fill: #1f77b4; fill-opacity: 0.5; stroke: #000000; stroke-width: 0.373166; stroke-linejoin: miter"/>
   </g>
   <g id="matplotlib.axis_1">
    <g id="xtick_1">
     <g id="line2d_1">
      <defs>
       <path id="m80b74ee07c" d="M 0 0 
L 0 3.5 
" style="stroke: #000000; stroke-width: 0.8"/>
      </defs>
      <g>
       <use xlink:href="#m80b74ee07c" x="89.731298" y="307.584" style="stroke: #000000; stroke-width: 0.8"/>
      </g>
     </g>
     <g id="text_1">
      <!-- 0.22 -->
      <g transform="translate(78.598485 322.182437) scale(0.1 -0.1)">
       <defs>
        <path id="DejaVuSans-30" d="M 2034 4250 
Q 1547 4250 1301 3770 
Q 1056 3291 1056 2328 
Q 1056 1369 1301 889 
Q 1547 409 2034 409 
Q 2525 409 2770 889 
Q 3016 1369 3016 2328 
Q 3016 3291 2770 3770 
Q 2525 4250 2034 4250 
z
M 2034 4750 
Q 2819 4750 3233 4129 
Q 3647 3509 3647 2328 
Q 3647 1150 3233 529 
Q 2819 -91 2034 -91 
Q 1250 -91 836 529 
Q 422 1150 422 2328 
Q 422 3509 836 4129 
Q 1250 4750 2034 4750 
z
" transform="scale(0.015625)"/>
        <path id="DejaVuSans-2e" d="M 684 794 
L 1344 794 
L 1344 0 
L 684 0 
L 684 794 
z
" transform="scale(0.015625)"/>
        <path id="DejaVuSans-32" d="M 1228 531 
L 3431 531 
L 3431 0 
L 469 0 
L 469 531 
Q 828 903 1448 1529 
Q 2069 2156 2228 2338 
Q 2531 2678 2651 2914 
Q 2772 3150 2772 3378 
Q 2772 3750 2511 3984 
Q 2250 4219 1831 4219 
Q 1534 4219 1204 4116 
Q 875 4013 500 3803 
L 500 4441 
Q 881 4594 1212 4672 
Q 1544 4750 1819 4750 
Q 2544 4750 2975 4387 
Q 3406 4025 3406 3419 
Q 3406 3131 3298 2873 
Q 3191 2616 2906 2266 
Q 2828 2175 2409 1742 
Q 1991 1309 1228 531 
z
" transform="scale(0.015625)"/>
       </defs>
       <use xlink:href="#DejaVuSans-30"/>
       <use xlink:href="#DejaVuSans-2e" x="63.623047"/>
       <use xlink:href="#DejaVuSans-32" x="95.410156"/>
       <use xlink:href="#DejaVuSans-32" x="159.033203"/>
      </g>
     </g>
    </g>
    <g id="xtick_2">
     <g id="line2d_2">
      <g>
       <use xlink:href="#m80b74ee07c" x="140.941353" y="307.584" style="stroke: #000000; stroke-width: 0.8"/>
      </g>
     </g>
     <g id="text_2">
      <!-- 0.23 -->
      <g transform="translate(129.808541 322.182437) scale(0.1 -0.1)">
       <defs>
        <path id="DejaVuSans-33" d="M 2597 2516 
Q 3050 2419 3304 2112 
Q 3559 1806 3559 1356 
Q 3559 666 3084 287 
Q 2609 -91 1734 -91 
Q 1441 -91 1130 -33 
Q 819 25 488 141 
L 488 750 
Q 750 597 1062 519 
Q 1375 441 1716 441 
Q 2309 441 2620 675 
Q 2931 909 2931 1356 
Q 2931 1769 2642 2001 
Q 2353 2234 1838 2234 
L 1294 2234 
L 1294 2753 
L 1863 2753 
Q 2328 2753 2575 2939 
Q 2822 3125 2822 3475 
Q 2822 3834 2567 4026 
Q 2313 4219 1838 4219 
Q 1578 4219 1281 4162 
Q 984 4106 628 3988 
L 628 4550 
Q 988 4650 1302 4700 
Q 1616 4750 1894 4750 
Q 2613 4750 3031 4423 
Q 3450 4097 3450 3541 
Q 3450 3153 3228 2886 
Q 3006 2619 2597 2516 
z
" transform="scale(0.015625)"/>
       </defs>
       <use xlink:href="#DejaVuSans-30"/>
       <use xlink:href="#DejaVuSans-2e" x="63.623047"/>
       <use xlink:href="#DejaVuSans-32" x="95.410156"/>
       <use xlink:href="#DejaVuSans-33" x="159.033203"/>
      </g>
     </g>
    </g>
    <g id="xtick_3">
     <g id="line2d_3">
      <g>
       <use xlink:href="#m80b74ee07c" x="192.151409" y="307.584" style="stroke: #000000; stroke-width: 0.8"/>
      </g>
     </g>
     <g id="text_3">
      <!-- 0.24 -->
      <g transform="translate(181.018596 322.182437) scale(0.1 -0.1)">
       <defs>
        <path id="DejaVuSans-34" d="M 2419 4116 
L 825 1625 
L 2419 1625 
L 2419 4116 
z
M 2253 4666 
L 3047 4666 
L 3047 1625 
L 3713 1625 
L 3713 1100 
L 3047 1100 
L 3047 0 
L 2419 0 
L 2419 1100 
L 313 1100 
L 313 1709 
L 2253 4666 
z
" transform="scale(0.015625)"/>
       </defs>
       <use xlink:href="#DejaVuSans-30"/>
       <use xlink:href="#DejaVuSans-2e" x="63.623047"/>
       <use xlink:href="#DejaVuSans-32" x="95.410156"/>
       <use xlink:href="#DejaVuSans-34" x="159.033203"/>
      </g>
     </g>
    </g>
    <g id="xtick_4">
     <g id="line2d_4">
      <g>
       <use xlink:href="#m80b74ee07c" x="243.361464" y="307.584" style="stroke: #000000; stroke-width: 0.8"/>
      </g>
     </g>
     <g id="text_4">
      <!-- 0.25 -->
      <g transform="translate(232.228652 322.182437) scale(0.1 -0.1)">
       <defs>
        <path id="DejaVuSans-35" d="M 691 4666 
L 3169 4666 
L 3169 4134 
L 1269 4134 
L 1269 2991 
Q 1406 3038 1543 3061 
Q 1681 3084 1819 3084 
Q 2600 3084 3056 2656 
Q 3513 2228 3513 1497 
Q 3513 744 3044 326 
Q 2575 -91 1722 -91 
Q 1428 -91 1123 -41 
Q 819 9 494 109 
L 494 744 
Q 775 591 1075 516 
Q 1375 441 1709 441 
Q 2250 441 2565 725 
Q 2881 1009 2881 1497 
Q 2881 1984 2565 2268 
Q 2250 2553 1709 2553 
Q 1456 2553 1204 2497 
Q 953 2441 691 2322 
L 691 4666 
z
" transform="scale(0.015625)"/>
       </defs>
       <use xlink:href="#DejaVuSans-30"/>
       <use xlink:href="#DejaVuSans-2e" x="63.623047"/>
       <use xlink:href="#DejaVuSans-32" x="95.410156"/>
       <use xlink:href="#DejaVuSans-35" x="159.033203"/>
      </g>
     </g>
    </g>
    <g id="xtick_5">
     <g id="line2d_5">
      <g>
       <use xlink:href="#m80b74ee07c" x="294.57152" y="307.584" style="stroke: #000000; stroke-width: 0.8"/>
      </g>
     </g>
     <g id="text_5">
      <!-- 0.26 -->
      <g transform="translate(283.438708 322.182437) scale(0.1 -0.1)">
       <defs>
        <path id="DejaVuSans-36" d="M 2113 2584 
Q 1688 2584 1439 2293 
Q 1191 2003 1191 1497 
Q 1191 994 1439 701 
Q 1688 409 2113 409 
Q 2538 409 2786 701 
Q 3034 994 3034 1497 
Q 3034 2003 2786 2293 
Q 2538 2584 2113 2584 
z
M 3366 4563 
L 3366 3988 
Q 3128 4100 2886 4159 
Q 2644 4219 2406 4219 
Q 1781 4219 1451 3797 
Q 1122 3375 1075 2522 
Q 1259 2794 1537 2939 
Q 1816 3084 2150 3084 
Q 2853 3084 3261 2657 
Q 3669 2231 3669 1497 
Q 3669 778 3244 343 
Q 2819 -91 2113 -91 
Q 1303 -91 875 529 
Q 447 1150 447 2328 
Q 447 3434 972 4092 
Q 1497 4750 2381 4750 
Q 2619 4750 2861 4703 
Q 3103 4656 3366 4563 
z
" transform="scale(0.015625)"/>
       </defs>
       <use xlink:href="#DejaVuSans-30"/>
       <use xlink:href="#DejaVuSans-2e" x="63.623047"/>
       <use xlink:href="#DejaVuSans-32" x="95.410156"/>
       <use xlink:href="#DejaVuSans-36" x="159.033203"/>
      </g>
     </g>
    </g>
    <g id="xtick_6">
     <g id="line2d_6">
      <g>
       <use xlink:href="#m80b74ee07c" x="345.781576" y="307.584" style="stroke: #000000; stroke-width: 0.8"/>
      </g>
     </g>
     <g id="text_6">
      <!-- 0.27 -->
      <g transform="translate(334.648763 322.182437) scale(0.1 -0.1)">
       <defs>
        <path id="DejaVuSans-37" d="M 525 4666 
L 3525 4666 
L 3525 4397 
L 1831 0 
L 1172 0 
L 2766 4134 
L 525 4134 
L 525 4666 
z
" transform="scale(0.015625)"/>
       </defs>
       <use xlink:href="#DejaVuSans-30"/>
       <use xlink:href="#DejaVuSans-2e" x="63.623047"/>
       <use xlink:href="#DejaVuSans-32" x="95.410156"/>
       <use xlink:href="#DejaVuSans-37" x="159.033203"/>
      </g>
     </g>
    </g>
    <g id="xtick_7">
     <g id="line2d_7">
      <g>
       <use xlink:href="#m80b74ee07c" x="396.991631" y="307.584" style="stroke: #000000; stroke-width: 0.8"/>
      </g>
     </g>
     <g id="text_7">
      <!-- 0.28 -->
      <g transform="translate(385.858819 322.182437) scale(0.1 -0.1)">
       <defs>
        <path id="DejaVuSans-38" d="M 2034 2216 
Q 1584 2216 1326 1975 
Q 1069 1734 1069 1313 
Q 1069 891 1326 650 
Q 1584 409 2034 409 
Q 2484 409 2743 651 
Q 3003 894 3003 1313 
Q 3003 1734 2745 1975 
Q 2488 2216 2034 2216 
z
M 1403 2484 
Q 997 2584 770 2862 
Q 544 3141 544 3541 
Q 544 4100 942 4425 
Q 1341 4750 2034 4750 
Q 2731 4750 3128 4425 
Q 3525 4100 3525 3541 
Q 3525 3141 3298 2862 
Q 3072 2584 2669 2484 
Q 3125 2378 3379 2068 
Q 3634 1759 3634 1313 
Q 3634 634 3220 271 
Q 2806 -91 2034 -91 
Q 1263 -91 848 271 
Q 434 634 434 1313 
Q 434 1759 690 2068 
Q 947 2378 1403 2484 
z
M 1172 3481 
Q 1172 3119 1398 2916 
Q 1625 2713 2034 2713 
Q 2441 2713 2670 2916 
Q 2900 3119 2900 3481 
Q 2900 3844 2670 4047 
Q 2441 4250 2034 4250 
Q 1625 4250 1398 4047 
Q 1172 3844 1172 3481 
z
" transform="scale(0.015625)"/>
       </defs>
       <use xlink:href="#DejaVuSans-30"/>
       <use xlink:href="#DejaVuSans-2e" x="63.623047"/>
       <use xlink:href="#DejaVuSans-32" x="95.410156"/>
       <use xlink:href="#DejaVuSans-38" x="159.033203"/>
      </g>
     </g>
    </g>
   </g>
   <g id="matplotlib.axis_2">
    <g id="ytick_1">
     <g id="line2d_8">
      <defs>
       <path id="me56f5c1af2" d="M 0 0 
L -3.5 0 
" style="stroke: #000000; stroke-width: 0.8"/>
      </defs>
      <g>
       <use xlink:href="#me56f5c1af2" x="57.6" y="307.584" style="stroke: #000000; stroke-width: 0.8"/>
      </g>
     </g>
     <g id="text_8">
      <!-- 0 -->
      <g transform="translate(44.2375 311.383219) scale(0.1 -0.1)">
       <use xlink:href="#DejaVuSans-30"/>
      </g>
     </g>
    </g>
    <g id="ytick_2">
     <g id="line2d_9">
      <g>
       <use xlink:href="#me56f5c1af2" x="57.6" y="253.080774" style="stroke: #000000; stroke-width: 0.8"/>
      </g>
     </g>
     <g id="text_9">
      <!-- 200 -->
      <g transform="translate(31.5125 256.879993) scale(0.1 -0.1)">
       <use xlink:href="#DejaVuSans-32"/>
       <use xlink:href="#DejaVuSans-30" x="63.623047"/>
       <use xlink:href="#DejaVuSans-30" x="127.246094"/>
      </g>
     </g>
    </g>
    <g id="ytick_3">
     <g id="line2d_10">
      <g>
       <use xlink:href="#me56f5c1af2" x="57.6" y="198.577548" style="stroke: #000000; stroke-width: 0.8"/>
      </g>
     </g>
     <g id="text_10">
      <!-- 400 -->
      <g transform="translate(31.5125 202.376767) scale(0.1 -0.1)">
       <use xlink:href="#DejaVuSans-34"/>
       <use xlink:href="#DejaVuSans-30" x="63.623047"/>
       <use xlink:href="#DejaVuSans-30" x="127.246094"/>
      </g>
     </g>
    </g>
    <g id="ytick_4">
     <g id="line2d_11">
      <g>
       <use xlink:href="#me56f5c1af2" x="57.6" y="144.074323" style="stroke: #000000; stroke-width: 0.8"/>
      </g>
     </g>
     <g id="text_11">
      <!-- 600 -->
      <g transform="translate(31.5125 147.873541) scale(0.1 -0.1)">
       <use xlink:href="#DejaVuSans-36"/>
       <use xlink:href="#DejaVuSans-30" x="63.623047"/>
       <use xlink:href="#DejaVuSans-30" x="127.246094"/>
      </g>
     </g>
    </g>
    <g id="ytick_5">
     <g id="line2d_12">
      <g>
       <use xlink:href="#me56f5c1af2" x="57.6" y="89.571097" style="stroke: #000000; stroke-width: 0.8"/>
      </g>
     </g>
     <g id="text_12">
      <!-- 800 -->
      <g transform="translate(31.5125 93.370316) scale(0.1 -0.1)">
       <use xlink:href="#DejaVuSans-38"/>
       <use xlink:href="#DejaVuSans-30" x="63.623047"/>
       <use xlink:href="#DejaVuSans-30" x="127.246094"/>
      </g>
     </g>
    </g>
    <g id="text_13">
     <!-- Count -->
     <g transform="translate(25.432812 189.376437) rotate(-90) scale(0.1 -0.1)">
      <defs>
       <path id="DejaVuSans-43" d="M 4122 4306 
L 4122 3641 
Q 3803 3938 3442 4084 
Q 3081 4231 2675 4231 
Q 1875 4231 1450 3742 
Q 1025 3253 1025 2328 
Q 1025 1406 1450 917 
Q 1875 428 2675 428 
Q 3081 428 3442 575 
Q 3803 722 4122 1019 
L 4122 359 
Q 3791 134 3420 21 
Q 3050 -91 2638 -91 
Q 1578 -91 968 557 
Q 359 1206 359 2328 
Q 359 3453 968 4101 
Q 1578 4750 2638 4750 
Q 3056 4750 3426 4639 
Q 3797 4528 4122 4306 
z
" transform="scale(0.015625)"/>
       <path id="DejaVuSans-6f" d="M 1959 3097 
Q 1497 3097 1228 2736 
Q 959 2375 959 1747 
Q 959 1119 1226 758 
Q 1494 397 1959 397 
Q 2419 397 2687 759 
Q 2956 1122 2956 1747 
Q 2956 2369 2687 2733 
Q 2419 3097 1959 3097 
z
M 1959 3584 
Q 2709 3584 3137 3096 
Q 3566 2609 3566 1747 
Q 3566 888 3137 398 
Q 2709 -91 1959 -91 
Q 1206 -91 779 398 
Q 353 888 353 1747 
Q 353 2609 779 3096 
Q 1206 3584 1959 3584 
z
" transform="scale(0.015625)"/>
       <path id="DejaVuSans-75" d="M 544 1381 
L 544 3500 
L 1119 3500 
L 1119 1403 
Q 1119 906 1312 657 
Q 1506 409 1894 409 
Q 2359 409 2629 706 
Q 2900 1003 2900 1516 
L 2900 3500 
L 3475 3500 
L 3475 0 
L 2900 0 
L 2900 538 
Q 2691 219 2414 64 
Q 2138 -91 1772 -91 
Q 1169 -91 856 284 
Q 544 659 544 1381 
z
M 1991 3584 
L 1991 3584 
z
" transform="scale(0.015625)"/>
       <path id="DejaVuSans-6e" d="M 3513 2113 
L 3513 0 
L 2938 0 
L 2938 2094 
Q 2938 2591 2744 2837 
Q 2550 3084 2163 3084 
Q 1697 3084 1428 2787 
Q 1159 2491 1159 1978 
L 1159 0 
L 581 0 
L 581 3500 
L 1159 3500 
L 1159 2956 
Q 1366 3272 1645 3428 
Q 1925 3584 2291 3584 
Q 2894 3584 3203 3211 
Q 3513 2838 3513 2113 
z
" transform="scale(0.015625)"/>
       <path id="DejaVuSans-74" d="M 1172 4494 
L 1172 3500 
L 2356 3500 
L 2356 3053 
L 1172 3053 
L 1172 1153 
Q 1172 725 1289 603 
Q 1406 481 1766 481 
L 2356 481 
L 2356 0 
L 1766 0 
Q 1100 0 847 248 
Q 594 497 594 1153 
L 594 3053 
L 172 3053 
L 172 3500 
L 594 3500 
L 594 4494 
L 1172 4494 
z
" transform="scale(0.015625)"/>
      </defs>
      <use xlink:href="#DejaVuSans-43"/>
      <use xlink:href="#DejaVuSans-6f" x="69.824219"/>
      <use xlink:href="#DejaVuSans-75" x="131.005859"/>
      <use xlink:href="#DejaVuSans-6e" x="194.384766"/>
      <use xlink:href="#DejaVuSans-74" x="257.763672"/>
     </g>
    </g>
   </g>
   <g id="line2d_13">
    <path d="M 73.832727 307.582371 
L 104.829895 307.46544 
L 126.038483 307.14868 
L 143.984212 306.654751 
L 158.667081 306.035464 
L 170.08709 305.355419 
L 178.244239 304.664609 
L 194.558538 303.140533 
L 201.084258 302.849876 
L 207.609977 302.794797 
L 219.029986 302.974165 
L 238.607145 303.489158 
L 248.395724 303.981822 
L 259.815733 304.821319 
L 271.235742 305.605357 
L 281.024322 306.011849 
L 323.441498 307.147367 
L 339.755797 307.416548 
L 365.858675 307.561658 
L 398.487273 307.583974 
L 398.487273 307.583974 
" clip-path="url(#p5eacc92dc9)" style="fill: none; stroke: #ff7f0e; stroke-width: 1.5; stroke-linecap: square"/>
   </g>
   <g id="line2d_14">
    <path d="M 73.832727 307.498076 
L 85.252736 307.341493 
L 90.147026 307.051978 
L 95.041316 306.453355 
L 104.829895 304.963766 
L 108.092755 304.06269 
L 111.355614 302.874915 
L 114.618474 301.467241 
L 116.249904 300.637867 
L 117.881334 299.682529 
L 119.512764 298.581606 
L 122.775624 295.954286 
L 126.038483 292.810654 
L 127.669913 291.009214 
L 129.301343 289.004032 
L 130.932773 286.760574 
L 132.564203 284.265057 
L 135.827063 278.576553 
L 139.089922 272.132605 
L 142.352782 265.034893 
L 145.615642 257.315009 
L 148.878502 249.050169 
L 152.141361 240.183183 
L 155.404221 230.541749 
L 158.667081 220.176859 
L 161.929941 209.204621 
L 165.1928 197.458309 
L 168.45566 184.765591 
L 173.34995 164.310946 
L 178.244239 143.507145 
L 181.507099 130.587697 
L 184.769959 119.108947 
L 186.401389 113.967065 
L 189.664249 104.749012 
L 201.084258 75.339586 
L 202.715688 71.397369 
L 204.347117 67.872966 
L 205.978547 64.88146 
L 207.609977 62.473042 
L 209.241407 60.634591 
L 210.872837 59.313397 
L 212.504267 58.449272 
L 214.135697 57.999005 
L 215.767127 57.945858 
L 217.398556 58.298028 
L 219.029986 59.083587 
L 220.661416 60.344146 
L 222.292846 62.123726 
L 223.924276 64.450369 
L 225.555706 67.315112 
L 227.187136 70.658342 
L 230.449995 78.313561 
L 235.344285 90.096146 
L 238.607145 97.035972 
L 241.870005 103.675506 
L 243.501434 107.439512 
L 245.132864 111.860828 
L 246.764294 117.096037 
L 248.395724 123.113046 
L 254.921444 149.378926 
L 258.184303 160.734763 
L 263.078593 176.285842 
L 269.604312 196.311815 
L 274.498602 210.755492 
L 277.761462 219.417541 
L 279.392892 223.240909 
L 282.655751 230.011446 
L 285.918611 236.465167 
L 289.181471 243.420169 
L 297.33862 261.635679 
L 300.60148 268.233411 
L 302.23291 271.18562 
L 303.86434 273.86724 
L 305.49577 276.296136 
L 308.75863 280.608662 
L 312.021489 284.514248 
L 315.284349 288.071478 
L 318.547209 291.13106 
L 320.178639 292.444207 
L 323.441498 294.647012 
L 326.704358 296.399451 
L 331.598648 298.663392 
L 336.492937 300.721466 
L 341.387227 302.505633 
L 344.650087 303.574261 
L 347.912947 304.434373 
L 351.175806 305.034203 
L 356.070096 305.655896 
L 367.490105 306.824835 
L 372.384395 306.985796 
L 380.541544 307.105512 
L 390.330123 307.345489 
L 398.487273 307.402292 
L 398.487273 307.402292 
" clip-path="url(#p5eacc92dc9)" style="fill: none; stroke: #1f77b4; stroke-width: 1.5; stroke-linecap: square"/>
   </g>
   <g id="patch_177">
    <path d="M 57.6 307.584 
L 57.6 41.472 
" style="fill: none; stroke: #000000; stroke-width: 0.8; stroke-linejoin: miter; stroke-linecap: square"/>
   </g>
   <g id="patch_178">
    <path d="M 414.72 307.584 
L 414.72 41.472 
" style="fill: none; stroke: #000000; stroke-width: 0.8; stroke-linejoin: miter; stroke-linecap: square"/>
   </g>
   <g id="patch_179">
    <path d="M 57.6 307.584 
L 414.72 307.584 
" style="fill: none; stroke: #000000; stroke-width: 0.8; stroke-linejoin: miter; stroke-linecap: square"/>
   </g>
   <g id="patch_180">
    <path d="M 57.6 41.472 
L 414.72 41.472 
" style="fill: none; stroke: #000000; stroke-width: 0.8; stroke-linejoin: miter; stroke-linecap: square"/>
   </g>
   <g id="legend_1">
    <g id="patch_181">
     <path d="M 264.384063 79.3845 
L 407.72 79.3845 
Q 409.72 79.3845 409.72 77.3845 
L 409.72 48.472 
Q 409.72 46.472 407.72 46.472 
L 264.384063 46.472 
Q 262.384063 46.472 262.384063 48.472 
L 262.384063 77.3845 
Q 262.384063 79.3845 264.384063 79.3845 
z
" style="fill: #ffffff; opacity: 0.8; stroke: #cccccc; stroke-linejoin: miter"/>
    </g>
    <g id="patch_182">
     <path d="M 266.384063 58.070438 
L 286.384063 58.070438 
L 286.384063 51.070438 
L 266.384063 51.070438 
z
" style="fill: #1f77b4; fill-opacity: 0.5; stroke: #000000; stroke-linejoin: miter"/>
    </g>
    <g id="text_14">
     <!-- padding_length = 384 -->
     <g transform="translate(294.384063 58.070438) scale(0.1 -0.1)">
      <defs>
       <path id="DejaVuSans-70" d="M 1159 525 
L 1159 -1331 
L 581 -1331 
L 581 3500 
L 1159 3500 
L 1159 2969 
Q 1341 3281 1617 3432 
Q 1894 3584 2278 3584 
Q 2916 3584 3314 3078 
Q 3713 2572 3713 1747 
Q 3713 922 3314 415 
Q 2916 -91 2278 -91 
Q 1894 -91 1617 61 
Q 1341 213 1159 525 
z
M 3116 1747 
Q 3116 2381 2855 2742 
Q 2594 3103 2138 3103 
Q 1681 3103 1420 2742 
Q 1159 2381 1159 1747 
Q 1159 1113 1420 752 
Q 1681 391 2138 391 
Q 2594 391 2855 752 
Q 3116 1113 3116 1747 
z
" transform="scale(0.015625)"/>
       <path id="DejaVuSans-61" d="M 2194 1759 
Q 1497 1759 1228 1600 
Q 959 1441 959 1056 
Q 959 750 1161 570 
Q 1363 391 1709 391 
Q 2188 391 2477 730 
Q 2766 1069 2766 1631 
L 2766 1759 
L 2194 1759 
z
M 3341 1997 
L 3341 0 
L 2766 0 
L 2766 531 
Q 2569 213 2275 61 
Q 1981 -91 1556 -91 
Q 1019 -91 701 211 
Q 384 513 384 1019 
Q 384 1609 779 1909 
Q 1175 2209 1959 2209 
L 2766 2209 
L 2766 2266 
Q 2766 2663 2505 2880 
Q 2244 3097 1772 3097 
Q 1472 3097 1187 3025 
Q 903 2953 641 2809 
L 641 3341 
Q 956 3463 1253 3523 
Q 1550 3584 1831 3584 
Q 2591 3584 2966 3190 
Q 3341 2797 3341 1997 
z
" transform="scale(0.015625)"/>
       <path id="DejaVuSans-64" d="M 2906 2969 
L 2906 4863 
L 3481 4863 
L 3481 0 
L 2906 0 
L 2906 525 
Q 2725 213 2448 61 
Q 2172 -91 1784 -91 
Q 1150 -91 751 415 
Q 353 922 353 1747 
Q 353 2572 751 3078 
Q 1150 3584 1784 3584 
Q 2172 3584 2448 3432 
Q 2725 3281 2906 2969 
z
M 947 1747 
Q 947 1113 1208 752 
Q 1469 391 1925 391 
Q 2381 391 2643 752 
Q 2906 1113 2906 1747 
Q 2906 2381 2643 2742 
Q 2381 3103 1925 3103 
Q 1469 3103 1208 2742 
Q 947 2381 947 1747 
z
" transform="scale(0.015625)"/>
       <path id="DejaVuSans-69" d="M 603 3500 
L 1178 3500 
L 1178 0 
L 603 0 
L 603 3500 
z
M 603 4863 
L 1178 4863 
L 1178 4134 
L 603 4134 
L 603 4863 
z
" transform="scale(0.015625)"/>
       <path id="DejaVuSans-67" d="M 2906 1791 
Q 2906 2416 2648 2759 
Q 2391 3103 1925 3103 
Q 1463 3103 1205 2759 
Q 947 2416 947 1791 
Q 947 1169 1205 825 
Q 1463 481 1925 481 
Q 2391 481 2648 825 
Q 2906 1169 2906 1791 
z
M 3481 434 
Q 3481 -459 3084 -895 
Q 2688 -1331 1869 -1331 
Q 1566 -1331 1297 -1286 
Q 1028 -1241 775 -1147 
L 775 -588 
Q 1028 -725 1275 -790 
Q 1522 -856 1778 -856 
Q 2344 -856 2625 -561 
Q 2906 -266 2906 331 
L 2906 616 
Q 2728 306 2450 153 
Q 2172 0 1784 0 
Q 1141 0 747 490 
Q 353 981 353 1791 
Q 353 2603 747 3093 
Q 1141 3584 1784 3584 
Q 2172 3584 2450 3431 
Q 2728 3278 2906 2969 
L 2906 3500 
L 3481 3500 
L 3481 434 
z
" transform="scale(0.015625)"/>
       <path id="DejaVuSans-5f" d="M 3263 -1063 
L 3263 -1509 
L -63 -1509 
L -63 -1063 
L 3263 -1063 
z
" transform="scale(0.015625)"/>
       <path id="DejaVuSans-6c" d="M 603 4863 
L 1178 4863 
L 1178 0 
L 603 0 
L 603 4863 
z
" transform="scale(0.015625)"/>
       <path id="DejaVuSans-65" d="M 3597 1894 
L 3597 1613 
L 953 1613 
Q 991 1019 1311 708 
Q 1631 397 2203 397 
Q 2534 397 2845 478 
Q 3156 559 3463 722 
L 3463 178 
Q 3153 47 2828 -22 
Q 2503 -91 2169 -91 
Q 1331 -91 842 396 
Q 353 884 353 1716 
Q 353 2575 817 3079 
Q 1281 3584 2069 3584 
Q 2775 3584 3186 3129 
Q 3597 2675 3597 1894 
z
M 3022 2063 
Q 3016 2534 2758 2815 
Q 2500 3097 2075 3097 
Q 1594 3097 1305 2825 
Q 1016 2553 972 2059 
L 3022 2063 
z
" transform="scale(0.015625)"/>
       <path id="DejaVuSans-68" d="M 3513 2113 
L 3513 0 
L 2938 0 
L 2938 2094 
Q 2938 2591 2744 2837 
Q 2550 3084 2163 3084 
Q 1697 3084 1428 2787 
Q 1159 2491 1159 1978 
L 1159 0 
L 581 0 
L 581 4863 
L 1159 4863 
L 1159 2956 
Q 1366 3272 1645 3428 
Q 1925 3584 2291 3584 
Q 2894 3584 3203 3211 
Q 3513 2838 3513 2113 
z
" transform="scale(0.015625)"/>
       <path id="DejaVuSans-20" transform="scale(0.015625)"/>
       <path id="DejaVuSans-3d" d="M 678 2906 
L 4684 2906 
L 4684 2381 
L 678 2381 
L 678 2906 
z
M 678 1631 
L 4684 1631 
L 4684 1100 
L 678 1100 
L 678 1631 
z
" transform="scale(0.015625)"/>
      </defs>
      <use xlink:href="#DejaVuSans-70"/>
      <use xlink:href="#DejaVuSans-61" x="63.476562"/>
      <use xlink:href="#DejaVuSans-64" x="124.755859"/>
      <use xlink:href="#DejaVuSans-64" x="188.232422"/>
      <use xlink:href="#DejaVuSans-69" x="251.708984"/>
      <use xlink:href="#DejaVuSans-6e" x="279.492188"/>
      <use xlink:href="#DejaVuSans-67" x="342.871094"/>
      <use xlink:href="#DejaVuSans-5f" x="406.347656"/>
      <use xlink:href="#DejaVuSans-6c" x="456.347656"/>
      <use xlink:href="#DejaVuSans-65" x="484.130859"/>
      <use xlink:href="#DejaVuSans-6e" x="545.654297"/>
      <use xlink:href="#DejaVuSans-67" x="609.033203"/>
      <use xlink:href="#DejaVuSans-74" x="672.509766"/>
      <use xlink:href="#DejaVuSans-68" x="711.71875"/>
      <use xlink:href="#DejaVuSans-20" x="775.097656"/>
      <use xlink:href="#DejaVuSans-3d" x="806.884766"/>
      <use xlink:href="#DejaVuSans-20" x="890.673828"/>
      <use xlink:href="#DejaVuSans-33" x="922.460938"/>
      <use xlink:href="#DejaVuSans-38" x="986.083984"/>
      <use xlink:href="#DejaVuSans-34" x="1049.707031"/>
     </g>
    </g>
    <g id="patch_183">
     <path d="M 266.384063 73.026688 
L 286.384063 73.026688 
L 286.384063 66.026688 
L 266.384063 66.026688 
z
" style="fill: #ff7f0e; fill-opacity: 0.5; stroke: #000000; stroke-linejoin: miter"/>
    </g>
    <g id="text_15">
     <!-- padding_length = 128 -->
     <g transform="translate(294.384063 73.026688) scale(0.1 -0.1)">
      <defs>
       <path id="DejaVuSans-31" d="M 794 531 
L 1825 531 
L 1825 4091 
L 703 3866 
L 703 4441 
L 1819 4666 
L 2450 4666 
L 2450 531 
L 3481 531 
L 3481 0 
L 794 0 
L 794 531 
z
" transform="scale(0.015625)"/>
      </defs>
      <use xlink:href="#DejaVuSans-70"/>
      <use xlink:href="#DejaVuSans-61" x="63.476562"/>
      <use xlink:href="#DejaVuSans-64" x="124.755859"/>
      <use xlink:href="#DejaVuSans-64" x="188.232422"/>
      <use xlink:href="#DejaVuSans-69" x="251.708984"/>
      <use xlink:href="#DejaVuSans-6e" x="279.492188"/>
      <use xlink:href="#DejaVuSans-67" x="342.871094"/>
      <use xlink:href="#DejaVuSans-5f" x="406.347656"/>
      <use xlink:href="#DejaVuSans-6c" x="456.347656"/>
      <use xlink:href="#DejaVuSans-65" x="484.130859"/>
      <use xlink:href="#DejaVuSans-6e" x="545.654297"/>
      <use xlink:href="#DejaVuSans-67" x="609.033203"/>
      <use xlink:href="#DejaVuSans-74" x="672.509766"/>
      <use xlink:href="#DejaVuSans-68" x="711.71875"/>
      <use xlink:href="#DejaVuSans-20" x="775.097656"/>
      <use xlink:href="#DejaVuSans-3d" x="806.884766"/>
      <use xlink:href="#DejaVuSans-20" x="890.673828"/>
      <use xlink:href="#DejaVuSans-31" x="922.460938"/>
      <use xlink:href="#DejaVuSans-32" x="986.083984"/>
      <use xlink:href="#DejaVuSans-38" x="1049.707031"/>
     </g>
    </g>
   </g>
  </g>
  <g id="text_16">
   <!-- recursive fn5_False_bert-base-uncased_False -->
   <g transform="translate(95.844375 16.030125) scale(0.12 -0.12)">
    <defs>
     <path id="DejaVuSans-72" d="M 2631 2963 
Q 2534 3019 2420 3045 
Q 2306 3072 2169 3072 
Q 1681 3072 1420 2755 
Q 1159 2438 1159 1844 
L 1159 0 
L 581 0 
L 581 3500 
L 1159 3500 
L 1159 2956 
Q 1341 3275 1631 3429 
Q 1922 3584 2338 3584 
Q 2397 3584 2469 3576 
Q 2541 3569 2628 3553 
L 2631 2963 
z
" transform="scale(0.015625)"/>
     <path id="DejaVuSans-63" d="M 3122 3366 
L 3122 2828 
Q 2878 2963 2633 3030 
Q 2388 3097 2138 3097 
Q 1578 3097 1268 2742 
Q 959 2388 959 1747 
Q 959 1106 1268 751 
Q 1578 397 2138 397 
Q 2388 397 2633 464 
Q 2878 531 3122 666 
L 3122 134 
Q 2881 22 2623 -34 
Q 2366 -91 2075 -91 
Q 1284 -91 818 406 
Q 353 903 353 1747 
Q 353 2603 823 3093 
Q 1294 3584 2113 3584 
Q 2378 3584 2631 3529 
Q 2884 3475 3122 3366 
z
" transform="scale(0.015625)"/>
     <path id="DejaVuSans-73" d="M 2834 3397 
L 2834 2853 
Q 2591 2978 2328 3040 
Q 2066 3103 1784 3103 
Q 1356 3103 1142 2972 
Q 928 2841 928 2578 
Q 928 2378 1081 2264 
Q 1234 2150 1697 2047 
L 1894 2003 
Q 2506 1872 2764 1633 
Q 3022 1394 3022 966 
Q 3022 478 2636 193 
Q 2250 -91 1575 -91 
Q 1294 -91 989 -36 
Q 684 19 347 128 
L 347 722 
Q 666 556 975 473 
Q 1284 391 1588 391 
Q 1994 391 2212 530 
Q 2431 669 2431 922 
Q 2431 1156 2273 1281 
Q 2116 1406 1581 1522 
L 1381 1569 
Q 847 1681 609 1914 
Q 372 2147 372 2553 
Q 372 3047 722 3315 
Q 1072 3584 1716 3584 
Q 2034 3584 2315 3537 
Q 2597 3491 2834 3397 
z
" transform="scale(0.015625)"/>
     <path id="DejaVuSans-76" d="M 191 3500 
L 800 3500 
L 1894 563 
L 2988 3500 
L 3597 3500 
L 2284 0 
L 1503 0 
L 191 3500 
z
" transform="scale(0.015625)"/>
     <path id="DejaVuSans-66" d="M 2375 4863 
L 2375 4384 
L 1825 4384 
Q 1516 4384 1395 4259 
Q 1275 4134 1275 3809 
L 1275 3500 
L 2222 3500 
L 2222 3053 
L 1275 3053 
L 1275 0 
L 697 0 
L 697 3053 
L 147 3053 
L 147 3500 
L 697 3500 
L 697 3744 
Q 697 4328 969 4595 
Q 1241 4863 1831 4863 
L 2375 4863 
z
" transform="scale(0.015625)"/>
     <path id="DejaVuSans-46" d="M 628 4666 
L 3309 4666 
L 3309 4134 
L 1259 4134 
L 1259 2759 
L 3109 2759 
L 3109 2228 
L 1259 2228 
L 1259 0 
L 628 0 
L 628 4666 
z
" transform="scale(0.015625)"/>
     <path id="DejaVuSans-62" d="M 3116 1747 
Q 3116 2381 2855 2742 
Q 2594 3103 2138 3103 
Q 1681 3103 1420 2742 
Q 1159 2381 1159 1747 
Q 1159 1113 1420 752 
Q 1681 391 2138 391 
Q 2594 391 2855 752 
Q 3116 1113 3116 1747 
z
M 1159 2969 
Q 1341 3281 1617 3432 
Q 1894 3584 2278 3584 
Q 2916 3584 3314 3078 
Q 3713 2572 3713 1747 
Q 3713 922 3314 415 
Q 2916 -91 2278 -91 
Q 1894 -91 1617 61 
Q 1341 213 1159 525 
L 1159 0 
L 581 0 
L 581 4863 
L 1159 4863 
L 1159 2969 
z
" transform="scale(0.015625)"/>
     <path id="DejaVuSans-2d" d="M 313 2009 
L 1997 2009 
L 1997 1497 
L 313 1497 
L 313 2009 
z
" transform="scale(0.015625)"/>
    </defs>
    <use xlink:href="#DejaVuSans-72"/>
    <use xlink:href="#DejaVuSans-65" x="38.863281"/>
    <use xlink:href="#DejaVuSans-63" x="100.386719"/>
    <use xlink:href="#DejaVuSans-75" x="155.367188"/>
    <use xlink:href="#DejaVuSans-72" x="218.746094"/>
    <use xlink:href="#DejaVuSans-73" x="259.859375"/>
    <use xlink:href="#DejaVuSans-69" x="311.958984"/>
    <use xlink:href="#DejaVuSans-76" x="339.742188"/>
    <use xlink:href="#DejaVuSans-65" x="398.921875"/>
    <use xlink:href="#DejaVuSans-20" x="460.445312"/>
    <use xlink:href="#DejaVuSans-66" x="492.232422"/>
    <use xlink:href="#DejaVuSans-6e" x="527.4375"/>
    <use xlink:href="#DejaVuSans-35" x="590.816406"/>
    <use xlink:href="#DejaVuSans-5f" x="654.439453"/>
    <use xlink:href="#DejaVuSans-46" x="704.439453"/>
    <use xlink:href="#DejaVuSans-61" x="752.833984"/>
    <use xlink:href="#DejaVuSans-6c" x="814.113281"/>
    <use xlink:href="#DejaVuSans-73" x="841.896484"/>
    <use xlink:href="#DejaVuSans-65" x="893.996094"/>
    <use xlink:href="#DejaVuSans-5f" x="955.519531"/>
    <use xlink:href="#DejaVuSans-62" x="1005.519531"/>
    <use xlink:href="#DejaVuSans-65" x="1068.996094"/>
    <use xlink:href="#DejaVuSans-72" x="1130.519531"/>
    <use xlink:href="#DejaVuSans-74" x="1171.632812"/>
    <use xlink:href="#DejaVuSans-2d" x="1210.841797"/>
    <use xlink:href="#DejaVuSans-62" x="1246.925781"/>
    <use xlink:href="#DejaVuSans-61" x="1310.402344"/>
    <use xlink:href="#DejaVuSans-73" x="1371.681641"/>
    <use xlink:href="#DejaVuSans-65" x="1423.78125"/>
    <use xlink:href="#DejaVuSans-2d" x="1485.304688"/>
    <use xlink:href="#DejaVuSans-75" x="1521.388672"/>
    <use xlink:href="#DejaVuSans-6e" x="1584.767578"/>
    <use xlink:href="#DejaVuSans-63" x="1648.146484"/>
    <use xlink:href="#DejaVuSans-61" x="1703.126953"/>
    <use xlink:href="#DejaVuSans-73" x="1764.40625"/>
    <use xlink:href="#DejaVuSans-65" x="1816.505859"/>
    <use xlink:href="#DejaVuSans-64" x="1878.029297"/>
    <use xlink:href="#DejaVuSans-5f" x="1941.505859"/>
    <use xlink:href="#DejaVuSans-46" x="1991.505859"/>
    <use xlink:href="#DejaVuSans-61" x="2039.900391"/>
    <use xlink:href="#DejaVuSans-6c" x="2101.179688"/>
    <use xlink:href="#DejaVuSans-73" x="2128.962891"/>
    <use xlink:href="#DejaVuSans-65" x="2181.0625"/>
   </g>
  </g>
 </g>
 <defs>
  <clipPath id="p5eacc92dc9">
   <rect x="57.6" y="41.472" width="357.12" height="266.112"/>
  </clipPath>
 </defs>
</svg>
