<?xml version="1.0" encoding="utf-8" standalone="no"?>
<!DOCTYPE svg PUBLIC "-//W3C//DTD SVG 1.1//EN"
  "http://www.w3.org/Graphics/SVG/1.1/DTD/svg11.dtd">
<svg xmlns:xlink="http://www.w3.org/1999/xlink" width="460.8pt" height="345.6pt" viewBox="0 0 460.8 345.6" xmlns="http://www.w3.org/2000/svg" version="1.1">
 <metadata>
  <rdf:RDF xmlns:dc="http://purl.org/dc/elements/1.1/" xmlns:cc="http://creativecommons.org/ns#" xmlns:rdf="http://www.w3.org/1999/02/22-rdf-syntax-ns#">
   <cc:Work>
    <dc:type rdf:resource="http://purl.org/dc/dcmitype/StillImage"/>
    <dc:date>2024-03-07T15:39:35.494915</dc:date>
    <dc:format>image/svg+xml</dc:format>
    <dc:creator>
     <cc:Agent>
      <dc:title>Matplotlib v3.6.3, https://matplotlib.org/</dc:title>
     </cc:Agent>
    </dc:creator>
   </cc:Work>
  </rdf:RDF>
 </metadata>
 <defs>
  <style type="text/css">*{stroke-linejoin: round; stroke-linecap: butt}</style>
 </defs>
 <g id="figure_1">
  <g id="patch_1">
   <path d="M 0 345.6 
L 460.8 345.6 
L 460.8 0 
L 0 0 
z
" style="fill: #ffffff"/>
  </g>
  <g id="axes_1">
   <g id="patch_2">
    <path d="M 57.6 307.584 
L 414.72 307.584 
L 414.72 41.472 
L 57.6 41.472 
z
" style="fill: #ffffff"/>
   </g>
   <g id="patch_3">
    <path d="M 73.832727 307.584 
L 77.250144 307.584 
L 77.250144 307.065718 
L 73.832727 307.065718 
z
" clip-path="url(#pd43beb03f5)" style="fill: #ff7f0e; fill-opacity: 0.5; stroke: #000000; stroke-width: 0.341742; stroke-linejoin: miter"/>
   </g>
   <g id="patch_4">
    <path d="M 77.250144 307.584 
L 80.66756 307.584 
L 80.66756 306.547436 
L 77.250144 306.547436 
z
" clip-path="url(#pd43beb03f5)" style="fill: #ff7f0e; fill-opacity: 0.5; stroke: #000000; stroke-width: 0.341742; stroke-linejoin: miter"/>
   </g>
   <g id="patch_5">
    <path d="M 80.66756 307.584 
L 84.084976 307.584 
L 84.084976 306.547436 
L 80.66756 306.547436 
z
" clip-path="url(#pd43beb03f5)" style="fill: #ff7f0e; fill-opacity: 0.5; stroke: #000000; stroke-width: 0.341742; stroke-linejoin: miter"/>
   </g>
   <g id="patch_6">
    <path d="M 84.084976 307.584 
L 87.502392 307.584 
L 87.502392 304.992589 
L 84.084976 304.992589 
z
" clip-path="url(#pd43beb03f5)" style="fill: #ff7f0e; fill-opacity: 0.5; stroke: #000000; stroke-width: 0.341742; stroke-linejoin: miter"/>
   </g>
   <g id="patch_7">
    <path d="M 87.502392 307.584 
L 90.919809 307.584 
L 90.919809 304.474307 
L 87.502392 304.474307 
z
" clip-path="url(#pd43beb03f5)" style="fill: #ff7f0e; fill-opacity: 0.5; stroke: #000000; stroke-width: 0.341742; stroke-linejoin: miter"/>
   </g>
   <g id="patch_8">
    <path d="M 90.919809 307.584 
L 94.337225 307.584 
L 94.337225 304.474307 
L 90.919809 304.474307 
z
" clip-path="url(#pd43beb03f5)" style="fill: #ff7f0e; fill-opacity: 0.5; stroke: #000000; stroke-width: 0.341742; stroke-linejoin: miter"/>
   </g>
   <g id="patch_9">
    <path d="M 94.337225 307.584 
L 97.754641 307.584 
L 97.754641 301.105472 
L 94.337225 301.105472 
z
" clip-path="url(#pd43beb03f5)" style="fill: #ff7f0e; fill-opacity: 0.5; stroke: #000000; stroke-width: 0.341742; stroke-linejoin: miter"/>
   </g>
   <g id="patch_10">
    <path d="M 97.754641 307.584 
L 101.172057 307.584 
L 101.172057 297.477497 
L 97.754641 297.477497 
z
" clip-path="url(#pd43beb03f5)" style="fill: #ff7f0e; fill-opacity: 0.5; stroke: #000000; stroke-width: 0.341742; stroke-linejoin: miter"/>
   </g>
   <g id="patch_11">
    <path d="M 101.172057 307.584 
L 104.589474 307.584 
L 104.589474 296.700074 
L 101.172057 296.700074 
z
" clip-path="url(#pd43beb03f5)" style="fill: #ff7f0e; fill-opacity: 0.5; stroke: #000000; stroke-width: 0.341742; stroke-linejoin: miter"/>
   </g>
   <g id="patch_12">
    <path d="M 104.589474 307.584 
L 108.00689 307.584 
L 108.00689 292.812957 
L 104.589474 292.812957 
z
" clip-path="url(#pd43beb03f5)" style="fill: #ff7f0e; fill-opacity: 0.5; stroke: #000000; stroke-width: 0.341742; stroke-linejoin: miter"/>
   </g>
   <g id="patch_13">
    <path d="M 108.00689 307.584 
L 111.424306 307.584 
L 111.424306 293.072098 
L 108.00689 293.072098 
z
" clip-path="url(#pd43beb03f5)" style="fill: #ff7f0e; fill-opacity: 0.5; stroke: #000000; stroke-width: 0.341742; stroke-linejoin: miter"/>
   </g>
   <g id="patch_14">
    <path d="M 111.424306 307.584 
L 114.841722 307.584 
L 114.841722 295.663509 
L 111.424306 295.663509 
z
" clip-path="url(#pd43beb03f5)" style="fill: #ff7f0e; fill-opacity: 0.5; stroke: #000000; stroke-width: 0.341742; stroke-linejoin: miter"/>
   </g>
   <g id="patch_15">
    <path d="M 114.841722 307.584 
L 118.259139 307.584 
L 118.259139 296.700074 
L 114.841722 296.700074 
z
" clip-path="url(#pd43beb03f5)" style="fill: #ff7f0e; fill-opacity: 0.5; stroke: #000000; stroke-width: 0.341742; stroke-linejoin: miter"/>
   </g>
   <g id="patch_16">
    <path d="M 118.259139 307.584 
L 121.676555 307.584 
L 121.676555 297.218356 
L 118.259139 297.218356 
z
" clip-path="url(#pd43beb03f5)" style="fill: #ff7f0e; fill-opacity: 0.5; stroke: #000000; stroke-width: 0.341742; stroke-linejoin: miter"/>
   </g>
   <g id="patch_17">
    <path d="M 121.676555 307.584 
L 125.093971 307.584 
L 125.093971 300.58719 
L 121.676555 300.58719 
z
" clip-path="url(#pd43beb03f5)" style="fill: #ff7f0e; fill-opacity: 0.5; stroke: #000000; stroke-width: 0.341742; stroke-linejoin: miter"/>
   </g>
   <g id="patch_18">
    <path d="M 125.093971 307.584 
L 128.511388 307.584 
L 128.511388 301.364613 
L 125.093971 301.364613 
z
" clip-path="url(#pd43beb03f5)" style="fill: #ff7f0e; fill-opacity: 0.5; stroke: #000000; stroke-width: 0.341742; stroke-linejoin: miter"/>
   </g>
   <g id="patch_19">
    <path d="M 128.511388 307.584 
L 131.928804 307.584 
L 131.928804 304.474307 
L 128.511388 304.474307 
z
" clip-path="url(#pd43beb03f5)" style="fill: #ff7f0e; fill-opacity: 0.5; stroke: #000000; stroke-width: 0.341742; stroke-linejoin: miter"/>
   </g>
   <g id="patch_20">
    <path d="M 131.928804 307.584 
L 135.34622 307.584 
L 135.34622 304.215166 
L 131.928804 304.215166 
z
" clip-path="url(#pd43beb03f5)" style="fill: #ff7f0e; fill-opacity: 0.5; stroke: #000000; stroke-width: 0.341742; stroke-linejoin: miter"/>
   </g>
   <g id="patch_21">
    <path d="M 135.34622 307.584 
L 138.763636 307.584 
L 138.763636 304.215166 
L 135.34622 304.215166 
z
" clip-path="url(#pd43beb03f5)" style="fill: #ff7f0e; fill-opacity: 0.5; stroke: #000000; stroke-width: 0.341742; stroke-linejoin: miter"/>
   </g>
   <g id="patch_22">
    <path d="M 138.763636 307.584 
L 142.181053 307.584 
L 142.181053 304.992589 
L 138.763636 304.992589 
z
" clip-path="url(#pd43beb03f5)" style="fill: #ff7f0e; fill-opacity: 0.5; stroke: #000000; stroke-width: 0.341742; stroke-linejoin: miter"/>
   </g>
   <g id="patch_23">
    <path d="M 142.181053 307.584 
L 145.598469 307.584 
L 145.598469 307.065718 
L 142.181053 307.065718 
z
" clip-path="url(#pd43beb03f5)" style="fill: #ff7f0e; fill-opacity: 0.5; stroke: #000000; stroke-width: 0.341742; stroke-linejoin: miter"/>
   </g>
   <g id="patch_24">
    <path d="M 145.598469 307.584 
L 149.015885 307.584 
L 149.015885 306.806577 
L 145.598469 306.806577 
z
" clip-path="url(#pd43beb03f5)" style="fill: #ff7f0e; fill-opacity: 0.5; stroke: #000000; stroke-width: 0.341742; stroke-linejoin: miter"/>
   </g>
   <g id="patch_25">
    <path d="M 149.015885 307.584 
L 152.433301 307.584 
L 152.433301 307.065718 
L 149.015885 307.065718 
z
" clip-path="url(#pd43beb03f5)" style="fill: #ff7f0e; fill-opacity: 0.5; stroke: #000000; stroke-width: 0.341742; stroke-linejoin: miter"/>
   </g>
   <g id="patch_26">
    <path d="M 152.433301 307.584 
L 155.850718 307.584 
L 155.850718 307.065718 
L 152.433301 307.065718 
z
" clip-path="url(#pd43beb03f5)" style="fill: #ff7f0e; fill-opacity: 0.5; stroke: #000000; stroke-width: 0.341742; stroke-linejoin: miter"/>
   </g>
   <g id="patch_27">
    <path d="M 155.850718 307.584 
L 159.268134 307.584 
L 159.268134 307.584 
L 155.850718 307.584 
z
" clip-path="url(#pd43beb03f5)" style="fill: #ff7f0e; fill-opacity: 0.5; stroke: #000000; stroke-width: 0.341742; stroke-linejoin: miter"/>
   </g>
   <g id="patch_28">
    <path d="M 159.268134 307.584 
L 162.68555 307.584 
L 162.68555 307.324859 
L 159.268134 307.324859 
z
" clip-path="url(#pd43beb03f5)" style="fill: #ff7f0e; fill-opacity: 0.5; stroke: #000000; stroke-width: 0.341742; stroke-linejoin: miter"/>
   </g>
   <g id="patch_29">
    <path d="M 162.68555 307.584 
L 166.102967 307.584 
L 166.102967 307.584 
L 162.68555 307.584 
z
" clip-path="url(#pd43beb03f5)" style="fill: #ff7f0e; fill-opacity: 0.5; stroke: #000000; stroke-width: 0.341742; stroke-linejoin: miter"/>
   </g>
   <g id="patch_30">
    <path d="M 166.102967 307.584 
L 169.520383 307.584 
L 169.520383 307.584 
L 166.102967 307.584 
z
" clip-path="url(#pd43beb03f5)" style="fill: #ff7f0e; fill-opacity: 0.5; stroke: #000000; stroke-width: 0.341742; stroke-linejoin: miter"/>
   </g>
   <g id="patch_31">
    <path d="M 169.520383 307.584 
L 172.937799 307.584 
L 172.937799 307.584 
L 169.520383 307.584 
z
" clip-path="url(#pd43beb03f5)" style="fill: #ff7f0e; fill-opacity: 0.5; stroke: #000000; stroke-width: 0.341742; stroke-linejoin: miter"/>
   </g>
   <g id="patch_32">
    <path d="M 172.937799 307.584 
L 176.355215 307.584 
L 176.355215 307.584 
L 172.937799 307.584 
z
" clip-path="url(#pd43beb03f5)" style="fill: #ff7f0e; fill-opacity: 0.5; stroke: #000000; stroke-width: 0.341742; stroke-linejoin: miter"/>
   </g>
   <g id="patch_33">
    <path d="M 176.355215 307.584 
L 179.772632 307.584 
L 179.772632 307.584 
L 176.355215 307.584 
z
" clip-path="url(#pd43beb03f5)" style="fill: #ff7f0e; fill-opacity: 0.5; stroke: #000000; stroke-width: 0.341742; stroke-linejoin: miter"/>
   </g>
   <g id="patch_34">
    <path d="M 179.772632 307.584 
L 183.190048 307.584 
L 183.190048 307.584 
L 179.772632 307.584 
z
" clip-path="url(#pd43beb03f5)" style="fill: #ff7f0e; fill-opacity: 0.5; stroke: #000000; stroke-width: 0.341742; stroke-linejoin: miter"/>
   </g>
   <g id="patch_35">
    <path d="M 183.190048 307.584 
L 186.607464 307.584 
L 186.607464 307.584 
L 183.190048 307.584 
z
" clip-path="url(#pd43beb03f5)" style="fill: #ff7f0e; fill-opacity: 0.5; stroke: #000000; stroke-width: 0.341742; stroke-linejoin: miter"/>
   </g>
   <g id="patch_36">
    <path d="M 186.607464 307.584 
L 190.02488 307.584 
L 190.02488 307.584 
L 186.607464 307.584 
z
" clip-path="url(#pd43beb03f5)" style="fill: #ff7f0e; fill-opacity: 0.5; stroke: #000000; stroke-width: 0.341742; stroke-linejoin: miter"/>
   </g>
   <g id="patch_37">
    <path d="M 190.02488 307.584 
L 193.442297 307.584 
L 193.442297 307.584 
L 190.02488 307.584 
z
" clip-path="url(#pd43beb03f5)" style="fill: #ff7f0e; fill-opacity: 0.5; stroke: #000000; stroke-width: 0.341742; stroke-linejoin: miter"/>
   </g>
   <g id="patch_38">
    <path d="M 193.442297 307.584 
L 196.859713 307.584 
L 196.859713 307.584 
L 193.442297 307.584 
z
" clip-path="url(#pd43beb03f5)" style="fill: #ff7f0e; fill-opacity: 0.5; stroke: #000000; stroke-width: 0.341742; stroke-linejoin: miter"/>
   </g>
   <g id="patch_39">
    <path d="M 196.859713 307.584 
L 200.277129 307.584 
L 200.277129 307.584 
L 196.859713 307.584 
z
" clip-path="url(#pd43beb03f5)" style="fill: #ff7f0e; fill-opacity: 0.5; stroke: #000000; stroke-width: 0.341742; stroke-linejoin: miter"/>
   </g>
   <g id="patch_40">
    <path d="M 200.277129 307.584 
L 203.694545 307.584 
L 203.694545 307.584 
L 200.277129 307.584 
z
" clip-path="url(#pd43beb03f5)" style="fill: #ff7f0e; fill-opacity: 0.5; stroke: #000000; stroke-width: 0.341742; stroke-linejoin: miter"/>
   </g>
   <g id="patch_41">
    <path d="M 203.694545 307.584 
L 207.111962 307.584 
L 207.111962 307.584 
L 203.694545 307.584 
z
" clip-path="url(#pd43beb03f5)" style="fill: #ff7f0e; fill-opacity: 0.5; stroke: #000000; stroke-width: 0.341742; stroke-linejoin: miter"/>
   </g>
   <g id="patch_42">
    <path d="M 207.111962 307.584 
L 210.529378 307.584 
L 210.529378 307.584 
L 207.111962 307.584 
z
" clip-path="url(#pd43beb03f5)" style="fill: #ff7f0e; fill-opacity: 0.5; stroke: #000000; stroke-width: 0.341742; stroke-linejoin: miter"/>
   </g>
   <g id="patch_43">
    <path d="M 210.529378 307.584 
L 213.946794 307.584 
L 213.946794 307.584 
L 210.529378 307.584 
z
" clip-path="url(#pd43beb03f5)" style="fill: #ff7f0e; fill-opacity: 0.5; stroke: #000000; stroke-width: 0.341742; stroke-linejoin: miter"/>
   </g>
   <g id="patch_44">
    <path d="M 213.946794 307.584 
L 217.364211 307.584 
L 217.364211 307.584 
L 213.946794 307.584 
z
" clip-path="url(#pd43beb03f5)" style="fill: #ff7f0e; fill-opacity: 0.5; stroke: #000000; stroke-width: 0.341742; stroke-linejoin: miter"/>
   </g>
   <g id="patch_45">
    <path d="M 217.364211 307.584 
L 220.781627 307.584 
L 220.781627 307.584 
L 217.364211 307.584 
z
" clip-path="url(#pd43beb03f5)" style="fill: #ff7f0e; fill-opacity: 0.5; stroke: #000000; stroke-width: 0.341742; stroke-linejoin: miter"/>
   </g>
   <g id="patch_46">
    <path d="M 220.781627 307.584 
L 224.199043 307.584 
L 224.199043 307.584 
L 220.781627 307.584 
z
" clip-path="url(#pd43beb03f5)" style="fill: #ff7f0e; fill-opacity: 0.5; stroke: #000000; stroke-width: 0.341742; stroke-linejoin: miter"/>
   </g>
   <g id="patch_47">
    <path d="M 224.199043 307.584 
L 227.616459 307.584 
L 227.616459 307.584 
L 224.199043 307.584 
z
" clip-path="url(#pd43beb03f5)" style="fill: #ff7f0e; fill-opacity: 0.5; stroke: #000000; stroke-width: 0.341742; stroke-linejoin: miter"/>
   </g>
   <g id="patch_48">
    <path d="M 227.616459 307.584 
L 231.033876 307.584 
L 231.033876 307.584 
L 227.616459 307.584 
z
" clip-path="url(#pd43beb03f5)" style="fill: #ff7f0e; fill-opacity: 0.5; stroke: #000000; stroke-width: 0.341742; stroke-linejoin: miter"/>
   </g>
   <g id="patch_49">
    <path d="M 231.033876 307.584 
L 234.451292 307.584 
L 234.451292 307.584 
L 231.033876 307.584 
z
" clip-path="url(#pd43beb03f5)" style="fill: #ff7f0e; fill-opacity: 0.5; stroke: #000000; stroke-width: 0.341742; stroke-linejoin: miter"/>
   </g>
   <g id="patch_50">
    <path d="M 234.451292 307.584 
L 237.868708 307.584 
L 237.868708 307.584 
L 234.451292 307.584 
z
" clip-path="url(#pd43beb03f5)" style="fill: #ff7f0e; fill-opacity: 0.5; stroke: #000000; stroke-width: 0.341742; stroke-linejoin: miter"/>
   </g>
   <g id="patch_51">
    <path d="M 237.868708 307.584 
L 241.286124 307.584 
L 241.286124 307.584 
L 237.868708 307.584 
z
" clip-path="url(#pd43beb03f5)" style="fill: #ff7f0e; fill-opacity: 0.5; stroke: #000000; stroke-width: 0.341742; stroke-linejoin: miter"/>
   </g>
   <g id="patch_52">
    <path d="M 241.286124 307.584 
L 244.703541 307.584 
L 244.703541 307.584 
L 241.286124 307.584 
z
" clip-path="url(#pd43beb03f5)" style="fill: #ff7f0e; fill-opacity: 0.5; stroke: #000000; stroke-width: 0.341742; stroke-linejoin: miter"/>
   </g>
   <g id="patch_53">
    <path d="M 244.703541 307.584 
L 248.120957 307.584 
L 248.120957 307.584 
L 244.703541 307.584 
z
" clip-path="url(#pd43beb03f5)" style="fill: #ff7f0e; fill-opacity: 0.5; stroke: #000000; stroke-width: 0.341742; stroke-linejoin: miter"/>
   </g>
   <g id="patch_54">
    <path d="M 248.120957 307.584 
L 251.538373 307.584 
L 251.538373 307.584 
L 248.120957 307.584 
z
" clip-path="url(#pd43beb03f5)" style="fill: #ff7f0e; fill-opacity: 0.5; stroke: #000000; stroke-width: 0.341742; stroke-linejoin: miter"/>
   </g>
   <g id="patch_55">
    <path d="M 251.538373 307.584 
L 254.955789 307.584 
L 254.955789 307.584 
L 251.538373 307.584 
z
" clip-path="url(#pd43beb03f5)" style="fill: #ff7f0e; fill-opacity: 0.5; stroke: #000000; stroke-width: 0.341742; stroke-linejoin: miter"/>
   </g>
   <g id="patch_56">
    <path d="M 254.955789 307.584 
L 258.373206 307.584 
L 258.373206 307.584 
L 254.955789 307.584 
z
" clip-path="url(#pd43beb03f5)" style="fill: #ff7f0e; fill-opacity: 0.5; stroke: #000000; stroke-width: 0.341742; stroke-linejoin: miter"/>
   </g>
   <g id="patch_57">
    <path d="M 258.373206 307.584 
L 261.790622 307.584 
L 261.790622 307.584 
L 258.373206 307.584 
z
" clip-path="url(#pd43beb03f5)" style="fill: #ff7f0e; fill-opacity: 0.5; stroke: #000000; stroke-width: 0.341742; stroke-linejoin: miter"/>
   </g>
   <g id="patch_58">
    <path d="M 261.790622 307.584 
L 265.208038 307.584 
L 265.208038 307.584 
L 261.790622 307.584 
z
" clip-path="url(#pd43beb03f5)" style="fill: #ff7f0e; fill-opacity: 0.5; stroke: #000000; stroke-width: 0.341742; stroke-linejoin: miter"/>
   </g>
   <g id="patch_59">
    <path d="M 265.208038 307.584 
L 268.625455 307.584 
L 268.625455 307.584 
L 265.208038 307.584 
z
" clip-path="url(#pd43beb03f5)" style="fill: #ff7f0e; fill-opacity: 0.5; stroke: #000000; stroke-width: 0.341742; stroke-linejoin: miter"/>
   </g>
   <g id="patch_60">
    <path d="M 268.625455 307.584 
L 272.042871 307.584 
L 272.042871 307.584 
L 268.625455 307.584 
z
" clip-path="url(#pd43beb03f5)" style="fill: #ff7f0e; fill-opacity: 0.5; stroke: #000000; stroke-width: 0.341742; stroke-linejoin: miter"/>
   </g>
   <g id="patch_61">
    <path d="M 272.042871 307.584 
L 275.460287 307.584 
L 275.460287 307.584 
L 272.042871 307.584 
z
" clip-path="url(#pd43beb03f5)" style="fill: #ff7f0e; fill-opacity: 0.5; stroke: #000000; stroke-width: 0.341742; stroke-linejoin: miter"/>
   </g>
   <g id="patch_62">
    <path d="M 275.460287 307.584 
L 278.877703 307.584 
L 278.877703 307.584 
L 275.460287 307.584 
z
" clip-path="url(#pd43beb03f5)" style="fill: #ff7f0e; fill-opacity: 0.5; stroke: #000000; stroke-width: 0.341742; stroke-linejoin: miter"/>
   </g>
   <g id="patch_63">
    <path d="M 278.877703 307.584 
L 282.29512 307.584 
L 282.29512 307.584 
L 278.877703 307.584 
z
" clip-path="url(#pd43beb03f5)" style="fill: #ff7f0e; fill-opacity: 0.5; stroke: #000000; stroke-width: 0.341742; stroke-linejoin: miter"/>
   </g>
   <g id="patch_64">
    <path d="M 282.29512 307.584 
L 285.712536 307.584 
L 285.712536 307.584 
L 282.29512 307.584 
z
" clip-path="url(#pd43beb03f5)" style="fill: #ff7f0e; fill-opacity: 0.5; stroke: #000000; stroke-width: 0.341742; stroke-linejoin: miter"/>
   </g>
   <g id="patch_65">
    <path d="M 285.712536 307.584 
L 289.129952 307.584 
L 289.129952 307.584 
L 285.712536 307.584 
z
" clip-path="url(#pd43beb03f5)" style="fill: #ff7f0e; fill-opacity: 0.5; stroke: #000000; stroke-width: 0.341742; stroke-linejoin: miter"/>
   </g>
   <g id="patch_66">
    <path d="M 289.129952 307.584 
L 292.547368 307.584 
L 292.547368 307.584 
L 289.129952 307.584 
z
" clip-path="url(#pd43beb03f5)" style="fill: #ff7f0e; fill-opacity: 0.5; stroke: #000000; stroke-width: 0.341742; stroke-linejoin: miter"/>
   </g>
   <g id="patch_67">
    <path d="M 292.547368 307.584 
L 295.964785 307.584 
L 295.964785 307.584 
L 292.547368 307.584 
z
" clip-path="url(#pd43beb03f5)" style="fill: #ff7f0e; fill-opacity: 0.5; stroke: #000000; stroke-width: 0.341742; stroke-linejoin: miter"/>
   </g>
   <g id="patch_68">
    <path d="M 295.964785 307.584 
L 299.382201 307.584 
L 299.382201 307.584 
L 295.964785 307.584 
z
" clip-path="url(#pd43beb03f5)" style="fill: #ff7f0e; fill-opacity: 0.5; stroke: #000000; stroke-width: 0.341742; stroke-linejoin: miter"/>
   </g>
   <g id="patch_69">
    <path d="M 299.382201 307.584 
L 302.799617 307.584 
L 302.799617 307.584 
L 299.382201 307.584 
z
" clip-path="url(#pd43beb03f5)" style="fill: #ff7f0e; fill-opacity: 0.5; stroke: #000000; stroke-width: 0.341742; stroke-linejoin: miter"/>
   </g>
   <g id="patch_70">
    <path d="M 302.799617 307.584 
L 306.217033 307.584 
L 306.217033 307.584 
L 302.799617 307.584 
z
" clip-path="url(#pd43beb03f5)" style="fill: #ff7f0e; fill-opacity: 0.5; stroke: #000000; stroke-width: 0.341742; stroke-linejoin: miter"/>
   </g>
   <g id="patch_71">
    <path d="M 306.217033 307.584 
L 309.63445 307.584 
L 309.63445 307.584 
L 306.217033 307.584 
z
" clip-path="url(#pd43beb03f5)" style="fill: #ff7f0e; fill-opacity: 0.5; stroke: #000000; stroke-width: 0.341742; stroke-linejoin: miter"/>
   </g>
   <g id="patch_72">
    <path d="M 309.63445 307.584 
L 313.051866 307.584 
L 313.051866 307.584 
L 309.63445 307.584 
z
" clip-path="url(#pd43beb03f5)" style="fill: #ff7f0e; fill-opacity: 0.5; stroke: #000000; stroke-width: 0.341742; stroke-linejoin: miter"/>
   </g>
   <g id="patch_73">
    <path d="M 313.051866 307.584 
L 316.469282 307.584 
L 316.469282 307.584 
L 313.051866 307.584 
z
" clip-path="url(#pd43beb03f5)" style="fill: #ff7f0e; fill-opacity: 0.5; stroke: #000000; stroke-width: 0.341742; stroke-linejoin: miter"/>
   </g>
   <g id="patch_74">
    <path d="M 316.469282 307.584 
L 319.886699 307.584 
L 319.886699 307.584 
L 316.469282 307.584 
z
" clip-path="url(#pd43beb03f5)" style="fill: #ff7f0e; fill-opacity: 0.5; stroke: #000000; stroke-width: 0.341742; stroke-linejoin: miter"/>
   </g>
   <g id="patch_75">
    <path d="M 319.886699 307.584 
L 323.304115 307.584 
L 323.304115 307.584 
L 319.886699 307.584 
z
" clip-path="url(#pd43beb03f5)" style="fill: #ff7f0e; fill-opacity: 0.5; stroke: #000000; stroke-width: 0.341742; stroke-linejoin: miter"/>
   </g>
   <g id="patch_76">
    <path d="M 323.304115 307.584 
L 326.721531 307.584 
L 326.721531 307.584 
L 323.304115 307.584 
z
" clip-path="url(#pd43beb03f5)" style="fill: #ff7f0e; fill-opacity: 0.5; stroke: #000000; stroke-width: 0.341742; stroke-linejoin: miter"/>
   </g>
   <g id="patch_77">
    <path d="M 326.721531 307.584 
L 330.138947 307.584 
L 330.138947 307.584 
L 326.721531 307.584 
z
" clip-path="url(#pd43beb03f5)" style="fill: #ff7f0e; fill-opacity: 0.5; stroke: #000000; stroke-width: 0.341742; stroke-linejoin: miter"/>
   </g>
   <g id="patch_78">
    <path d="M 330.138947 307.584 
L 333.556364 307.584 
L 333.556364 307.584 
L 330.138947 307.584 
z
" clip-path="url(#pd43beb03f5)" style="fill: #ff7f0e; fill-opacity: 0.5; stroke: #000000; stroke-width: 0.341742; stroke-linejoin: miter"/>
   </g>
   <g id="patch_79">
    <path d="M 333.556364 307.584 
L 336.97378 307.584 
L 336.97378 307.584 
L 333.556364 307.584 
z
" clip-path="url(#pd43beb03f5)" style="fill: #ff7f0e; fill-opacity: 0.5; stroke: #000000; stroke-width: 0.341742; stroke-linejoin: miter"/>
   </g>
   <g id="patch_80">
    <path d="M 336.97378 307.584 
L 340.391196 307.584 
L 340.391196 307.584 
L 336.97378 307.584 
z
" clip-path="url(#pd43beb03f5)" style="fill: #ff7f0e; fill-opacity: 0.5; stroke: #000000; stroke-width: 0.341742; stroke-linejoin: miter"/>
   </g>
   <g id="patch_81">
    <path d="M 340.391196 307.584 
L 343.808612 307.584 
L 343.808612 307.584 
L 340.391196 307.584 
z
" clip-path="url(#pd43beb03f5)" style="fill: #ff7f0e; fill-opacity: 0.5; stroke: #000000; stroke-width: 0.341742; stroke-linejoin: miter"/>
   </g>
   <g id="patch_82">
    <path d="M 343.808612 307.584 
L 347.226029 307.584 
L 347.226029 307.584 
L 343.808612 307.584 
z
" clip-path="url(#pd43beb03f5)" style="fill: #ff7f0e; fill-opacity: 0.5; stroke: #000000; stroke-width: 0.341742; stroke-linejoin: miter"/>
   </g>
   <g id="patch_83">
    <path d="M 347.226029 307.584 
L 350.643445 307.584 
L 350.643445 307.584 
L 347.226029 307.584 
z
" clip-path="url(#pd43beb03f5)" style="fill: #ff7f0e; fill-opacity: 0.5; stroke: #000000; stroke-width: 0.341742; stroke-linejoin: miter"/>
   </g>
   <g id="patch_84">
    <path d="M 350.643445 307.584 
L 354.060861 307.584 
L 354.060861 307.584 
L 350.643445 307.584 
z
" clip-path="url(#pd43beb03f5)" style="fill: #ff7f0e; fill-opacity: 0.5; stroke: #000000; stroke-width: 0.341742; stroke-linejoin: miter"/>
   </g>
   <g id="patch_85">
    <path d="M 354.060861 307.584 
L 357.478278 307.584 
L 357.478278 307.584 
L 354.060861 307.584 
z
" clip-path="url(#pd43beb03f5)" style="fill: #ff7f0e; fill-opacity: 0.5; stroke: #000000; stroke-width: 0.341742; stroke-linejoin: miter"/>
   </g>
   <g id="patch_86">
    <path d="M 357.478278 307.584 
L 360.895694 307.584 
L 360.895694 307.584 
L 357.478278 307.584 
z
" clip-path="url(#pd43beb03f5)" style="fill: #ff7f0e; fill-opacity: 0.5; stroke: #000000; stroke-width: 0.341742; stroke-linejoin: miter"/>
   </g>
   <g id="patch_87">
    <path d="M 360.895694 307.584 
L 364.31311 307.584 
L 364.31311 307.584 
L 360.895694 307.584 
z
" clip-path="url(#pd43beb03f5)" style="fill: #ff7f0e; fill-opacity: 0.5; stroke: #000000; stroke-width: 0.341742; stroke-linejoin: miter"/>
   </g>
   <g id="patch_88">
    <path d="M 364.31311 307.584 
L 367.730526 307.584 
L 367.730526 307.584 
L 364.31311 307.584 
z
" clip-path="url(#pd43beb03f5)" style="fill: #ff7f0e; fill-opacity: 0.5; stroke: #000000; stroke-width: 0.341742; stroke-linejoin: miter"/>
   </g>
   <g id="patch_89">
    <path d="M 367.730526 307.584 
L 371.147943 307.584 
L 371.147943 307.584 
L 367.730526 307.584 
z
" clip-path="url(#pd43beb03f5)" style="fill: #ff7f0e; fill-opacity: 0.5; stroke: #000000; stroke-width: 0.341742; stroke-linejoin: miter"/>
   </g>
   <g id="patch_90">
    <path d="M 371.147943 307.584 
L 374.565359 307.584 
L 374.565359 307.584 
L 371.147943 307.584 
z
" clip-path="url(#pd43beb03f5)" style="fill: #ff7f0e; fill-opacity: 0.5; stroke: #000000; stroke-width: 0.341742; stroke-linejoin: miter"/>
   </g>
   <g id="patch_91">
    <path d="M 374.565359 307.584 
L 377.982775 307.584 
L 377.982775 307.584 
L 374.565359 307.584 
z
" clip-path="url(#pd43beb03f5)" style="fill: #ff7f0e; fill-opacity: 0.5; stroke: #000000; stroke-width: 0.341742; stroke-linejoin: miter"/>
   </g>
   <g id="patch_92">
    <path d="M 377.982775 307.584 
L 381.400191 307.584 
L 381.400191 307.584 
L 377.982775 307.584 
z
" clip-path="url(#pd43beb03f5)" style="fill: #ff7f0e; fill-opacity: 0.5; stroke: #000000; stroke-width: 0.341742; stroke-linejoin: miter"/>
   </g>
   <g id="patch_93">
    <path d="M 381.400191 307.584 
L 384.817608 307.584 
L 384.817608 307.584 
L 381.400191 307.584 
z
" clip-path="url(#pd43beb03f5)" style="fill: #ff7f0e; fill-opacity: 0.5; stroke: #000000; stroke-width: 0.341742; stroke-linejoin: miter"/>
   </g>
   <g id="patch_94">
    <path d="M 384.817608 307.584 
L 388.235024 307.584 
L 388.235024 307.584 
L 384.817608 307.584 
z
" clip-path="url(#pd43beb03f5)" style="fill: #ff7f0e; fill-opacity: 0.5; stroke: #000000; stroke-width: 0.341742; stroke-linejoin: miter"/>
   </g>
   <g id="patch_95">
    <path d="M 388.235024 307.584 
L 391.65244 307.584 
L 391.65244 307.584 
L 388.235024 307.584 
z
" clip-path="url(#pd43beb03f5)" style="fill: #ff7f0e; fill-opacity: 0.5; stroke: #000000; stroke-width: 0.341742; stroke-linejoin: miter"/>
   </g>
   <g id="patch_96">
    <path d="M 391.65244 307.584 
L 395.069856 307.584 
L 395.069856 307.584 
L 391.65244 307.584 
z
" clip-path="url(#pd43beb03f5)" style="fill: #ff7f0e; fill-opacity: 0.5; stroke: #000000; stroke-width: 0.341742; stroke-linejoin: miter"/>
   </g>
   <g id="patch_97">
    <path d="M 395.069856 307.584 
L 398.487273 307.584 
L 398.487273 307.584 
L 395.069856 307.584 
z
" clip-path="url(#pd43beb03f5)" style="fill: #ff7f0e; fill-opacity: 0.5; stroke: #000000; stroke-width: 0.341742; stroke-linejoin: miter"/>
   </g>
   <g id="patch_98">
    <path d="M 73.832727 307.584 
L 77.250144 307.584 
L 77.250144 307.584 
L 73.832727 307.584 
z
" clip-path="url(#pd43beb03f5)" style="fill: #1f77b4; fill-opacity: 0.5; stroke: #000000; stroke-width: 0.341742; stroke-linejoin: miter"/>
   </g>
   <g id="patch_99">
    <path d="M 77.250144 307.584 
L 80.66756 307.584 
L 80.66756 307.584 
L 77.250144 307.584 
z
" clip-path="url(#pd43beb03f5)" style="fill: #1f77b4; fill-opacity: 0.5; stroke: #000000; stroke-width: 0.341742; stroke-linejoin: miter"/>
   </g>
   <g id="patch_100">
    <path d="M 80.66756 307.584 
L 84.084976 307.584 
L 84.084976 307.584 
L 80.66756 307.584 
z
" clip-path="url(#pd43beb03f5)" style="fill: #1f77b4; fill-opacity: 0.5; stroke: #000000; stroke-width: 0.341742; stroke-linejoin: miter"/>
   </g>
   <g id="patch_101">
    <path d="M 84.084976 307.584 
L 87.502392 307.584 
L 87.502392 307.324859 
L 84.084976 307.324859 
z
" clip-path="url(#pd43beb03f5)" style="fill: #1f77b4; fill-opacity: 0.5; stroke: #000000; stroke-width: 0.341742; stroke-linejoin: miter"/>
   </g>
   <g id="patch_102">
    <path d="M 87.502392 307.584 
L 90.919809 307.584 
L 90.919809 306.288294 
L 87.502392 306.288294 
z
" clip-path="url(#pd43beb03f5)" style="fill: #1f77b4; fill-opacity: 0.5; stroke: #000000; stroke-width: 0.341742; stroke-linejoin: miter"/>
   </g>
   <g id="patch_103">
    <path d="M 90.919809 307.584 
L 94.337225 307.584 
L 94.337225 305.510871 
L 90.919809 305.510871 
z
" clip-path="url(#pd43beb03f5)" style="fill: #1f77b4; fill-opacity: 0.5; stroke: #000000; stroke-width: 0.341742; stroke-linejoin: miter"/>
   </g>
   <g id="patch_104">
    <path d="M 94.337225 307.584 
L 97.754641 307.584 
L 97.754641 303.956025 
L 94.337225 303.956025 
z
" clip-path="url(#pd43beb03f5)" style="fill: #1f77b4; fill-opacity: 0.5; stroke: #000000; stroke-width: 0.341742; stroke-linejoin: miter"/>
   </g>
   <g id="patch_105">
    <path d="M 97.754641 307.584 
L 101.172057 307.584 
L 101.172057 301.364613 
L 97.754641 301.364613 
z
" clip-path="url(#pd43beb03f5)" style="fill: #1f77b4; fill-opacity: 0.5; stroke: #000000; stroke-width: 0.341742; stroke-linejoin: miter"/>
   </g>
   <g id="patch_106">
    <path d="M 101.172057 307.584 
L 104.589474 307.584 
L 104.589474 293.331239 
L 101.172057 293.331239 
z
" clip-path="url(#pd43beb03f5)" style="fill: #1f77b4; fill-opacity: 0.5; stroke: #000000; stroke-width: 0.341742; stroke-linejoin: miter"/>
   </g>
   <g id="patch_107">
    <path d="M 104.589474 307.584 
L 108.00689 307.584 
L 108.00689 288.148417 
L 104.589474 288.148417 
z
" clip-path="url(#pd43beb03f5)" style="fill: #1f77b4; fill-opacity: 0.5; stroke: #000000; stroke-width: 0.341742; stroke-linejoin: miter"/>
   </g>
   <g id="patch_108">
    <path d="M 108.00689 307.584 
L 111.424306 307.584 
L 111.424306 277.00535 
L 108.00689 277.00535 
z
" clip-path="url(#pd43beb03f5)" style="fill: #1f77b4; fill-opacity: 0.5; stroke: #000000; stroke-width: 0.341742; stroke-linejoin: miter"/>
   </g>
   <g id="patch_109">
    <path d="M 111.424306 307.584 
L 114.841722 307.584 
L 114.841722 266.898847 
L 111.424306 266.898847 
z
" clip-path="url(#pd43beb03f5)" style="fill: #1f77b4; fill-opacity: 0.5; stroke: #000000; stroke-width: 0.341742; stroke-linejoin: miter"/>
   </g>
   <g id="patch_110">
    <path d="M 114.841722 307.584 
L 118.259139 307.584 
L 118.259139 250.572957 
L 114.841722 250.572957 
z
" clip-path="url(#pd43beb03f5)" style="fill: #1f77b4; fill-opacity: 0.5; stroke: #000000; stroke-width: 0.341742; stroke-linejoin: miter"/>
   </g>
   <g id="patch_111">
    <path d="M 118.259139 307.584 
L 121.676555 307.584 
L 121.676555 237.875043 
L 118.259139 237.875043 
z
" clip-path="url(#pd43beb03f5)" style="fill: #1f77b4; fill-opacity: 0.5; stroke: #000000; stroke-width: 0.341742; stroke-linejoin: miter"/>
   </g>
   <g id="patch_112">
    <path d="M 121.676555 307.584 
L 125.093971 307.584 
L 125.093971 222.844859 
L 121.676555 222.844859 
z
" clip-path="url(#pd43beb03f5)" style="fill: #1f77b4; fill-opacity: 0.5; stroke: #000000; stroke-width: 0.341742; stroke-linejoin: miter"/>
   </g>
   <g id="patch_113">
    <path d="M 125.093971 307.584 
L 128.511388 307.584 
L 128.511388 204.704982 
L 125.093971 204.704982 
z
" clip-path="url(#pd43beb03f5)" style="fill: #1f77b4; fill-opacity: 0.5; stroke: #000000; stroke-width: 0.341742; stroke-linejoin: miter"/>
   </g>
   <g id="patch_114">
    <path d="M 128.511388 307.584 
L 131.928804 307.584 
L 131.928804 192.266209 
L 128.511388 192.266209 
z
" clip-path="url(#pd43beb03f5)" style="fill: #1f77b4; fill-opacity: 0.5; stroke: #000000; stroke-width: 0.341742; stroke-linejoin: miter"/>
   </g>
   <g id="patch_115">
    <path d="M 131.928804 307.584 
L 135.34622 307.584 
L 135.34622 171.794061 
L 131.928804 171.794061 
z
" clip-path="url(#pd43beb03f5)" style="fill: #1f77b4; fill-opacity: 0.5; stroke: #000000; stroke-width: 0.341742; stroke-linejoin: miter"/>
   </g>
   <g id="patch_116">
    <path d="M 135.34622 307.584 
L 138.763636 307.584 
L 138.763636 142.511117 
L 135.34622 142.511117 
z
" clip-path="url(#pd43beb03f5)" style="fill: #1f77b4; fill-opacity: 0.5; stroke: #000000; stroke-width: 0.341742; stroke-linejoin: miter"/>
   </g>
   <g id="patch_117">
    <path d="M 138.763636 307.584 
L 142.181053 307.584 
L 142.181053 126.185227 
L 138.763636 126.185227 
z
" clip-path="url(#pd43beb03f5)" style="fill: #1f77b4; fill-opacity: 0.5; stroke: #000000; stroke-width: 0.341742; stroke-linejoin: miter"/>
   </g>
   <g id="patch_118">
    <path d="M 142.181053 307.584 
L 145.598469 307.584 
L 145.598469 125.407804 
L 142.181053 125.407804 
z
" clip-path="url(#pd43beb03f5)" style="fill: #1f77b4; fill-opacity: 0.5; stroke: #000000; stroke-width: 0.341742; stroke-linejoin: miter"/>
   </g>
   <g id="patch_119">
    <path d="M 145.598469 307.584 
L 149.015885 307.584 
L 149.015885 95.347436 
L 145.598469 95.347436 
z
" clip-path="url(#pd43beb03f5)" style="fill: #1f77b4; fill-opacity: 0.5; stroke: #000000; stroke-width: 0.341742; stroke-linejoin: miter"/>
   </g>
   <g id="patch_120">
    <path d="M 149.015885 307.584 
L 152.433301 307.584 
L 152.433301 97.420564 
L 149.015885 97.420564 
z
" clip-path="url(#pd43beb03f5)" style="fill: #1f77b4; fill-opacity: 0.5; stroke: #000000; stroke-width: 0.341742; stroke-linejoin: miter"/>
   </g>
   <g id="patch_121">
    <path d="M 152.433301 307.584 
L 155.850718 307.584 
L 155.850718 77.984982 
L 152.433301 77.984982 
z
" clip-path="url(#pd43beb03f5)" style="fill: #1f77b4; fill-opacity: 0.5; stroke: #000000; stroke-width: 0.341742; stroke-linejoin: miter"/>
   </g>
   <g id="patch_122">
    <path d="M 155.850718 307.584 
L 159.268134 307.584 
L 159.268134 68.396761 
L 155.850718 68.396761 
z
" clip-path="url(#pd43beb03f5)" style="fill: #1f77b4; fill-opacity: 0.5; stroke: #000000; stroke-width: 0.341742; stroke-linejoin: miter"/>
   </g>
   <g id="patch_123">
    <path d="M 159.268134 307.584 
L 162.68555 307.584 
L 162.68555 54.144 
L 159.268134 54.144 
z
" clip-path="url(#pd43beb03f5)" style="fill: #1f77b4; fill-opacity: 0.5; stroke: #000000; stroke-width: 0.341742; stroke-linejoin: miter"/>
   </g>
   <g id="patch_124">
    <path d="M 162.68555 307.584 
L 166.102967 307.584 
L 166.102967 60.622528 
L 162.68555 60.622528 
z
" clip-path="url(#pd43beb03f5)" style="fill: #1f77b4; fill-opacity: 0.5; stroke: #000000; stroke-width: 0.341742; stroke-linejoin: miter"/>
   </g>
   <g id="patch_125">
    <path d="M 166.102967 307.584 
L 169.520383 307.584 
L 169.520383 60.622528 
L 166.102967 60.622528 
z
" clip-path="url(#pd43beb03f5)" style="fill: #1f77b4; fill-opacity: 0.5; stroke: #000000; stroke-width: 0.341742; stroke-linejoin: miter"/>
   </g>
   <g id="patch_126">
    <path d="M 169.520383 307.584 
L 172.937799 307.584 
L 172.937799 62.436515 
L 169.520383 62.436515 
z
" clip-path="url(#pd43beb03f5)" style="fill: #1f77b4; fill-opacity: 0.5; stroke: #000000; stroke-width: 0.341742; stroke-linejoin: miter"/>
   </g>
   <g id="patch_127">
    <path d="M 172.937799 307.584 
L 176.355215 307.584 
L 176.355215 67.360196 
L 172.937799 67.360196 
z
" clip-path="url(#pd43beb03f5)" style="fill: #1f77b4; fill-opacity: 0.5; stroke: #000000; stroke-width: 0.341742; stroke-linejoin: miter"/>
   </g>
   <g id="patch_128">
    <path d="M 176.355215 307.584 
L 179.772632 307.584 
L 179.772632 74.357006 
L 176.355215 74.357006 
z
" clip-path="url(#pd43beb03f5)" style="fill: #1f77b4; fill-opacity: 0.5; stroke: #000000; stroke-width: 0.341742; stroke-linejoin: miter"/>
   </g>
   <g id="patch_129">
    <path d="M 179.772632 307.584 
L 183.190048 307.584 
L 183.190048 71.506454 
L 179.772632 71.506454 
z
" clip-path="url(#pd43beb03f5)" style="fill: #1f77b4; fill-opacity: 0.5; stroke: #000000; stroke-width: 0.341742; stroke-linejoin: miter"/>
   </g>
   <g id="patch_130">
    <path d="M 183.190048 307.584 
L 186.607464 307.584 
L 186.607464 95.088294 
L 183.190048 95.088294 
z
" clip-path="url(#pd43beb03f5)" style="fill: #1f77b4; fill-opacity: 0.5; stroke: #000000; stroke-width: 0.341742; stroke-linejoin: miter"/>
   </g>
   <g id="patch_131">
    <path d="M 186.607464 307.584 
L 190.02488 307.584 
L 190.02488 92.496883 
L 186.607464 92.496883 
z
" clip-path="url(#pd43beb03f5)" style="fill: #1f77b4; fill-opacity: 0.5; stroke: #000000; stroke-width: 0.341742; stroke-linejoin: miter"/>
   </g>
   <g id="patch_132">
    <path d="M 190.02488 307.584 
L 193.442297 307.584 
L 193.442297 107.008785 
L 190.02488 107.008785 
z
" clip-path="url(#pd43beb03f5)" style="fill: #1f77b4; fill-opacity: 0.5; stroke: #000000; stroke-width: 0.341742; stroke-linejoin: miter"/>
   </g>
   <g id="patch_133">
    <path d="M 193.442297 307.584 
L 196.859713 307.584 
L 196.859713 119.96584 
L 193.442297 119.96584 
z
" clip-path="url(#pd43beb03f5)" style="fill: #1f77b4; fill-opacity: 0.5; stroke: #000000; stroke-width: 0.341742; stroke-linejoin: miter"/>
   </g>
   <g id="patch_134">
    <path d="M 196.859713 307.584 
L 200.277129 307.584 
L 200.277129 123.334675 
L 196.859713 123.334675 
z
" clip-path="url(#pd43beb03f5)" style="fill: #1f77b4; fill-opacity: 0.5; stroke: #000000; stroke-width: 0.341742; stroke-linejoin: miter"/>
   </g>
   <g id="patch_135">
    <path d="M 200.277129 307.584 
L 203.694545 307.584 
L 203.694545 131.62719 
L 200.277129 131.62719 
z
" clip-path="url(#pd43beb03f5)" style="fill: #1f77b4; fill-opacity: 0.5; stroke: #000000; stroke-width: 0.341742; stroke-linejoin: miter"/>
   </g>
   <g id="patch_136">
    <path d="M 203.694545 307.584 
L 207.111962 307.584 
L 207.111962 150.544491 
L 203.694545 150.544491 
z
" clip-path="url(#pd43beb03f5)" style="fill: #1f77b4; fill-opacity: 0.5; stroke: #000000; stroke-width: 0.341742; stroke-linejoin: miter"/>
   </g>
   <g id="patch_137">
    <path d="M 207.111962 307.584 
L 210.529378 307.584 
L 210.529378 167.388663 
L 207.111962 167.388663 
z
" clip-path="url(#pd43beb03f5)" style="fill: #1f77b4; fill-opacity: 0.5; stroke: #000000; stroke-width: 0.341742; stroke-linejoin: miter"/>
   </g>
   <g id="patch_138">
    <path d="M 210.529378 307.584 
L 213.946794 307.584 
L 213.946794 171.53492 
L 210.529378 171.53492 
z
" clip-path="url(#pd43beb03f5)" style="fill: #1f77b4; fill-opacity: 0.5; stroke: #000000; stroke-width: 0.341742; stroke-linejoin: miter"/>
   </g>
   <g id="patch_139">
    <path d="M 213.946794 307.584 
L 217.364211 307.584 
L 217.364211 194.85762 
L 213.946794 194.85762 
z
" clip-path="url(#pd43beb03f5)" style="fill: #1f77b4; fill-opacity: 0.5; stroke: #000000; stroke-width: 0.341742; stroke-linejoin: miter"/>
   </g>
   <g id="patch_140">
    <path d="M 217.364211 307.584 
L 220.781627 307.584 
L 220.781627 189.415656 
L 217.364211 189.415656 
z
" clip-path="url(#pd43beb03f5)" style="fill: #1f77b4; fill-opacity: 0.5; stroke: #000000; stroke-width: 0.341742; stroke-linejoin: miter"/>
   </g>
   <g id="patch_141">
    <path d="M 220.781627 307.584 
L 224.199043 307.584 
L 224.199043 207.555534 
L 220.781627 207.555534 
z
" clip-path="url(#pd43beb03f5)" style="fill: #1f77b4; fill-opacity: 0.5; stroke: #000000; stroke-width: 0.341742; stroke-linejoin: miter"/>
   </g>
   <g id="patch_142">
    <path d="M 224.199043 307.584 
L 227.616459 307.584 
L 227.616459 221.030871 
L 224.199043 221.030871 
z
" clip-path="url(#pd43beb03f5)" style="fill: #1f77b4; fill-opacity: 0.5; stroke: #000000; stroke-width: 0.341742; stroke-linejoin: miter"/>
   </g>
   <g id="patch_143">
    <path d="M 227.616459 307.584 
L 231.033876 307.584 
L 231.033876 223.104 
L 227.616459 223.104 
z
" clip-path="url(#pd43beb03f5)" style="fill: #1f77b4; fill-opacity: 0.5; stroke: #000000; stroke-width: 0.341742; stroke-linejoin: miter"/>
   </g>
   <g id="patch_144">
    <path d="M 231.033876 307.584 
L 234.451292 307.584 
L 234.451292 233.728785 
L 231.033876 233.728785 
z
" clip-path="url(#pd43beb03f5)" style="fill: #1f77b4; fill-opacity: 0.5; stroke: #000000; stroke-width: 0.341742; stroke-linejoin: miter"/>
   </g>
   <g id="patch_145">
    <path d="M 234.451292 307.584 
L 237.868708 307.584 
L 237.868708 239.170748 
L 234.451292 239.170748 
z
" clip-path="url(#pd43beb03f5)" style="fill: #1f77b4; fill-opacity: 0.5; stroke: #000000; stroke-width: 0.341742; stroke-linejoin: miter"/>
   </g>
   <g id="patch_146">
    <path d="M 237.868708 307.584 
L 241.286124 307.584 
L 241.286124 251.091239 
L 237.868708 251.091239 
z
" clip-path="url(#pd43beb03f5)" style="fill: #1f77b4; fill-opacity: 0.5; stroke: #000000; stroke-width: 0.341742; stroke-linejoin: miter"/>
   </g>
   <g id="patch_147">
    <path d="M 241.286124 307.584 
L 244.703541 307.584 
L 244.703541 253.423509 
L 241.286124 253.423509 
z
" clip-path="url(#pd43beb03f5)" style="fill: #1f77b4; fill-opacity: 0.5; stroke: #000000; stroke-width: 0.341742; stroke-linejoin: miter"/>
   </g>
   <g id="patch_148">
    <path d="M 244.703541 307.584 
L 248.120957 307.584 
L 248.120957 262.234307 
L 244.703541 262.234307 
z
" clip-path="url(#pd43beb03f5)" style="fill: #1f77b4; fill-opacity: 0.5; stroke: #000000; stroke-width: 0.341742; stroke-linejoin: miter"/>
   </g>
   <g id="patch_149">
    <path d="M 248.120957 307.584 
L 251.538373 307.584 
L 251.538373 269.231117 
L 248.120957 269.231117 
z
" clip-path="url(#pd43beb03f5)" style="fill: #1f77b4; fill-opacity: 0.5; stroke: #000000; stroke-width: 0.341742; stroke-linejoin: miter"/>
   </g>
   <g id="patch_150">
    <path d="M 251.538373 307.584 
L 254.955789 307.584 
L 254.955789 268.971975 
L 251.538373 268.971975 
z
" clip-path="url(#pd43beb03f5)" style="fill: #1f77b4; fill-opacity: 0.5; stroke: #000000; stroke-width: 0.341742; stroke-linejoin: miter"/>
   </g>
   <g id="patch_151">
    <path d="M 254.955789 307.584 
L 258.373206 307.584 
L 258.373206 275.191362 
L 254.955789 275.191362 
z
" clip-path="url(#pd43beb03f5)" style="fill: #1f77b4; fill-opacity: 0.5; stroke: #000000; stroke-width: 0.341742; stroke-linejoin: miter"/>
   </g>
   <g id="patch_152">
    <path d="M 258.373206 307.584 
L 261.790622 307.584 
L 261.790622 277.264491 
L 258.373206 277.264491 
z
" clip-path="url(#pd43beb03f5)" style="fill: #1f77b4; fill-opacity: 0.5; stroke: #000000; stroke-width: 0.341742; stroke-linejoin: miter"/>
   </g>
   <g id="patch_153">
    <path d="M 261.790622 307.584 
L 265.208038 307.584 
L 265.208038 281.410748 
L 261.790622 281.410748 
z
" clip-path="url(#pd43beb03f5)" style="fill: #1f77b4; fill-opacity: 0.5; stroke: #000000; stroke-width: 0.341742; stroke-linejoin: miter"/>
   </g>
   <g id="patch_154">
    <path d="M 265.208038 307.584 
L 268.625455 307.584 
L 268.625455 286.075288 
L 265.208038 286.075288 
z
" clip-path="url(#pd43beb03f5)" style="fill: #1f77b4; fill-opacity: 0.5; stroke: #000000; stroke-width: 0.341742; stroke-linejoin: miter"/>
   </g>
   <g id="patch_155">
    <path d="M 268.625455 307.584 
L 272.042871 307.584 
L 272.042871 288.148417 
L 268.625455 288.148417 
z
" clip-path="url(#pd43beb03f5)" style="fill: #1f77b4; fill-opacity: 0.5; stroke: #000000; stroke-width: 0.341742; stroke-linejoin: miter"/>
   </g>
   <g id="patch_156">
    <path d="M 272.042871 307.584 
L 275.460287 307.584 
L 275.460287 287.889276 
L 272.042871 287.889276 
z
" clip-path="url(#pd43beb03f5)" style="fill: #1f77b4; fill-opacity: 0.5; stroke: #000000; stroke-width: 0.341742; stroke-linejoin: miter"/>
   </g>
   <g id="patch_157">
    <path d="M 275.460287 307.584 
L 278.877703 307.584 
L 278.877703 296.181791 
L 275.460287 296.181791 
z
" clip-path="url(#pd43beb03f5)" style="fill: #1f77b4; fill-opacity: 0.5; stroke: #000000; stroke-width: 0.341742; stroke-linejoin: miter"/>
   </g>
   <g id="patch_158">
    <path d="M 278.877703 307.584 
L 282.29512 307.584 
L 282.29512 294.367804 
L 278.877703 294.367804 
z
" clip-path="url(#pd43beb03f5)" style="fill: #1f77b4; fill-opacity: 0.5; stroke: #000000; stroke-width: 0.341742; stroke-linejoin: miter"/>
   </g>
   <g id="patch_159">
    <path d="M 282.29512 307.584 
L 285.712536 307.584 
L 285.712536 297.218356 
L 282.29512 297.218356 
z
" clip-path="url(#pd43beb03f5)" style="fill: #1f77b4; fill-opacity: 0.5; stroke: #000000; stroke-width: 0.341742; stroke-linejoin: miter"/>
   </g>
   <g id="patch_160">
    <path d="M 285.712536 307.584 
L 289.129952 307.584 
L 289.129952 299.291485 
L 285.712536 299.291485 
z
" clip-path="url(#pd43beb03f5)" style="fill: #1f77b4; fill-opacity: 0.5; stroke: #000000; stroke-width: 0.341742; stroke-linejoin: miter"/>
   </g>
   <g id="patch_161">
    <path d="M 289.129952 307.584 
L 292.547368 307.584 
L 292.547368 297.218356 
L 289.129952 297.218356 
z
" clip-path="url(#pd43beb03f5)" style="fill: #1f77b4; fill-opacity: 0.5; stroke: #000000; stroke-width: 0.341742; stroke-linejoin: miter"/>
   </g>
   <g id="patch_162">
    <path d="M 292.547368 307.584 
L 295.964785 307.584 
L 295.964785 298.514061 
L 292.547368 298.514061 
z
" clip-path="url(#pd43beb03f5)" style="fill: #1f77b4; fill-opacity: 0.5; stroke: #000000; stroke-width: 0.341742; stroke-linejoin: miter"/>
   </g>
   <g id="patch_163">
    <path d="M 295.964785 307.584 
L 299.382201 307.584 
L 299.382201 302.91946 
L 295.964785 302.91946 
z
" clip-path="url(#pd43beb03f5)" style="fill: #1f77b4; fill-opacity: 0.5; stroke: #000000; stroke-width: 0.341742; stroke-linejoin: miter"/>
   </g>
   <g id="patch_164">
    <path d="M 299.382201 307.584 
L 302.799617 307.584 
L 302.799617 303.437742 
L 299.382201 303.437742 
z
" clip-path="url(#pd43beb03f5)" style="fill: #1f77b4; fill-opacity: 0.5; stroke: #000000; stroke-width: 0.341742; stroke-linejoin: miter"/>
   </g>
   <g id="patch_165">
    <path d="M 302.799617 307.584 
L 306.217033 307.584 
L 306.217033 303.696883 
L 302.799617 303.696883 
z
" clip-path="url(#pd43beb03f5)" style="fill: #1f77b4; fill-opacity: 0.5; stroke: #000000; stroke-width: 0.341742; stroke-linejoin: miter"/>
   </g>
   <g id="patch_166">
    <path d="M 306.217033 307.584 
L 309.63445 307.584 
L 309.63445 304.215166 
L 306.217033 304.215166 
z
" clip-path="url(#pd43beb03f5)" style="fill: #1f77b4; fill-opacity: 0.5; stroke: #000000; stroke-width: 0.341742; stroke-linejoin: miter"/>
   </g>
   <g id="patch_167">
    <path d="M 309.63445 307.584 
L 313.051866 307.584 
L 313.051866 304.992589 
L 309.63445 304.992589 
z
" clip-path="url(#pd43beb03f5)" style="fill: #1f77b4; fill-opacity: 0.5; stroke: #000000; stroke-width: 0.341742; stroke-linejoin: miter"/>
   </g>
   <g id="patch_168">
    <path d="M 313.051866 307.584 
L 316.469282 307.584 
L 316.469282 304.992589 
L 313.051866 304.992589 
z
" clip-path="url(#pd43beb03f5)" style="fill: #1f77b4; fill-opacity: 0.5; stroke: #000000; stroke-width: 0.341742; stroke-linejoin: miter"/>
   </g>
   <g id="patch_169">
    <path d="M 316.469282 307.584 
L 319.886699 307.584 
L 319.886699 304.474307 
L 316.469282 304.474307 
z
" clip-path="url(#pd43beb03f5)" style="fill: #1f77b4; fill-opacity: 0.5; stroke: #000000; stroke-width: 0.341742; stroke-linejoin: miter"/>
   </g>
   <g id="patch_170">
    <path d="M 319.886699 307.584 
L 323.304115 307.584 
L 323.304115 304.992589 
L 319.886699 304.992589 
z
" clip-path="url(#pd43beb03f5)" style="fill: #1f77b4; fill-opacity: 0.5; stroke: #000000; stroke-width: 0.341742; stroke-linejoin: miter"/>
   </g>
   <g id="patch_171">
    <path d="M 323.304115 307.584 
L 326.721531 307.584 
L 326.721531 305.510871 
L 323.304115 305.510871 
z
" clip-path="url(#pd43beb03f5)" style="fill: #1f77b4; fill-opacity: 0.5; stroke: #000000; stroke-width: 0.341742; stroke-linejoin: miter"/>
   </g>
   <g id="patch_172">
    <path d="M 326.721531 307.584 
L 330.138947 307.584 
L 330.138947 306.288294 
L 326.721531 306.288294 
z
" clip-path="url(#pd43beb03f5)" style="fill: #1f77b4; fill-opacity: 0.5; stroke: #000000; stroke-width: 0.341742; stroke-linejoin: miter"/>
   </g>
   <g id="patch_173">
    <path d="M 330.138947 307.584 
L 333.556364 307.584 
L 333.556364 304.733448 
L 330.138947 304.733448 
z
" clip-path="url(#pd43beb03f5)" style="fill: #1f77b4; fill-opacity: 0.5; stroke: #000000; stroke-width: 0.341742; stroke-linejoin: miter"/>
   </g>
   <g id="patch_174">
    <path d="M 333.556364 307.584 
L 336.97378 307.584 
L 336.97378 306.029153 
L 333.556364 306.029153 
z
" clip-path="url(#pd43beb03f5)" style="fill: #1f77b4; fill-opacity: 0.5; stroke: #000000; stroke-width: 0.341742; stroke-linejoin: miter"/>
   </g>
   <g id="patch_175">
    <path d="M 336.97378 307.584 
L 340.391196 307.584 
L 340.391196 305.510871 
L 336.97378 305.510871 
z
" clip-path="url(#pd43beb03f5)" style="fill: #1f77b4; fill-opacity: 0.5; stroke: #000000; stroke-width: 0.341742; stroke-linejoin: miter"/>
   </g>
   <g id="patch_176">
    <path d="M 340.391196 307.584 
L 343.808612 307.584 
L 343.808612 307.065718 
L 340.391196 307.065718 
z
" clip-path="url(#pd43beb03f5)" style="fill: #1f77b4; fill-opacity: 0.5; stroke: #000000; stroke-width: 0.341742; stroke-linejoin: miter"/>
   </g>
   <g id="patch_177">
    <path d="M 343.808612 307.584 
L 347.226029 307.584 
L 347.226029 306.288294 
L 343.808612 306.288294 
z
" clip-path="url(#pd43beb03f5)" style="fill: #1f77b4; fill-opacity: 0.5; stroke: #000000; stroke-width: 0.341742; stroke-linejoin: miter"/>
   </g>
   <g id="patch_178">
    <path d="M 347.226029 307.584 
L 350.643445 307.584 
L 350.643445 306.288294 
L 347.226029 306.288294 
z
" clip-path="url(#pd43beb03f5)" style="fill: #1f77b4; fill-opacity: 0.5; stroke: #000000; stroke-width: 0.341742; stroke-linejoin: miter"/>
   </g>
   <g id="patch_179">
    <path d="M 350.643445 307.584 
L 354.060861 307.584 
L 354.060861 306.029153 
L 350.643445 306.029153 
z
" clip-path="url(#pd43beb03f5)" style="fill: #1f77b4; fill-opacity: 0.5; stroke: #000000; stroke-width: 0.341742; stroke-linejoin: miter"/>
   </g>
   <g id="patch_180">
    <path d="M 354.060861 307.584 
L 357.478278 307.584 
L 357.478278 307.324859 
L 354.060861 307.324859 
z
" clip-path="url(#pd43beb03f5)" style="fill: #1f77b4; fill-opacity: 0.5; stroke: #000000; stroke-width: 0.341742; stroke-linejoin: miter"/>
   </g>
   <g id="patch_181">
    <path d="M 357.478278 307.584 
L 360.895694 307.584 
L 360.895694 307.584 
L 357.478278 307.584 
z
" clip-path="url(#pd43beb03f5)" style="fill: #1f77b4; fill-opacity: 0.5; stroke: #000000; stroke-width: 0.341742; stroke-linejoin: miter"/>
   </g>
   <g id="patch_182">
    <path d="M 360.895694 307.584 
L 364.31311 307.584 
L 364.31311 307.065718 
L 360.895694 307.065718 
z
" clip-path="url(#pd43beb03f5)" style="fill: #1f77b4; fill-opacity: 0.5; stroke: #000000; stroke-width: 0.341742; stroke-linejoin: miter"/>
   </g>
   <g id="patch_183">
    <path d="M 364.31311 307.584 
L 367.730526 307.584 
L 367.730526 306.547436 
L 364.31311 306.547436 
z
" clip-path="url(#pd43beb03f5)" style="fill: #1f77b4; fill-opacity: 0.5; stroke: #000000; stroke-width: 0.341742; stroke-linejoin: miter"/>
   </g>
   <g id="patch_184">
    <path d="M 367.730526 307.584 
L 371.147943 307.584 
L 371.147943 307.324859 
L 367.730526 307.324859 
z
" clip-path="url(#pd43beb03f5)" style="fill: #1f77b4; fill-opacity: 0.5; stroke: #000000; stroke-width: 0.341742; stroke-linejoin: miter"/>
   </g>
   <g id="patch_185">
    <path d="M 371.147943 307.584 
L 374.565359 307.584 
L 374.565359 307.584 
L 371.147943 307.584 
z
" clip-path="url(#pd43beb03f5)" style="fill: #1f77b4; fill-opacity: 0.5; stroke: #000000; stroke-width: 0.341742; stroke-linejoin: miter"/>
   </g>
   <g id="patch_186">
    <path d="M 374.565359 307.584 
L 377.982775 307.584 
L 377.982775 307.324859 
L 374.565359 307.324859 
z
" clip-path="url(#pd43beb03f5)" style="fill: #1f77b4; fill-opacity: 0.5; stroke: #000000; stroke-width: 0.341742; stroke-linejoin: miter"/>
   </g>
   <g id="patch_187">
    <path d="M 377.982775 307.584 
L 381.400191 307.584 
L 381.400191 307.324859 
L 377.982775 307.324859 
z
" clip-path="url(#pd43beb03f5)" style="fill: #1f77b4; fill-opacity: 0.5; stroke: #000000; stroke-width: 0.341742; stroke-linejoin: miter"/>
   </g>
   <g id="patch_188">
    <path d="M 381.400191 307.584 
L 384.817608 307.584 
L 384.817608 307.584 
L 381.400191 307.584 
z
" clip-path="url(#pd43beb03f5)" style="fill: #1f77b4; fill-opacity: 0.5; stroke: #000000; stroke-width: 0.341742; stroke-linejoin: miter"/>
   </g>
   <g id="patch_189">
    <path d="M 384.817608 307.584 
L 388.235024 307.584 
L 388.235024 307.584 
L 384.817608 307.584 
z
" clip-path="url(#pd43beb03f5)" style="fill: #1f77b4; fill-opacity: 0.5; stroke: #000000; stroke-width: 0.341742; stroke-linejoin: miter"/>
   </g>
   <g id="patch_190">
    <path d="M 388.235024 307.584 
L 391.65244 307.584 
L 391.65244 307.584 
L 388.235024 307.584 
z
" clip-path="url(#pd43beb03f5)" style="fill: #1f77b4; fill-opacity: 0.5; stroke: #000000; stroke-width: 0.341742; stroke-linejoin: miter"/>
   </g>
   <g id="patch_191">
    <path d="M 391.65244 307.584 
L 395.069856 307.584 
L 395.069856 307.324859 
L 391.65244 307.324859 
z
" clip-path="url(#pd43beb03f5)" style="fill: #1f77b4; fill-opacity: 0.5; stroke: #000000; stroke-width: 0.341742; stroke-linejoin: miter"/>
   </g>
   <g id="patch_192">
    <path d="M 395.069856 307.584 
L 398.487273 307.584 
L 398.487273 307.324859 
L 395.069856 307.324859 
z
" clip-path="url(#pd43beb03f5)" style="fill: #1f77b4; fill-opacity: 0.5; stroke: #000000; stroke-width: 0.341742; stroke-linejoin: miter"/>
   </g>
   <g id="matplotlib.axis_1">
    <g id="xtick_1">
     <g id="line2d_1">
      <defs>
       <path id="mcf2c7b64f5" d="M 0 0 
L 0 3.5 
" style="stroke: #000000; stroke-width: 0.8"/>
      </defs>
      <g>
       <use xlink:href="#mcf2c7b64f5" x="109.419884" y="307.584" style="stroke: #000000; stroke-width: 0.8"/>
      </g>
     </g>
     <g id="text_1">
      <!-- 0.0002 -->
      <g transform="translate(91.924572 322.182437) scale(0.1 -0.1)">
       <defs>
        <path id="DejaVuSans-30" d="M 2034 4250 
Q 1547 4250 1301 3770 
Q 1056 3291 1056 2328 
Q 1056 1369 1301 889 
Q 1547 409 2034 409 
Q 2525 409 2770 889 
Q 3016 1369 3016 2328 
Q 3016 3291 2770 3770 
Q 2525 4250 2034 4250 
z
M 2034 4750 
Q 2819 4750 3233 4129 
Q 3647 3509 3647 2328 
Q 3647 1150 3233 529 
Q 2819 -91 2034 -91 
Q 1250 -91 836 529 
Q 422 1150 422 2328 
Q 422 3509 836 4129 
Q 1250 4750 2034 4750 
z
" transform="scale(0.015625)"/>
        <path id="DejaVuSans-2e" d="M 684 794 
L 1344 794 
L 1344 0 
L 684 0 
L 684 794 
z
" transform="scale(0.015625)"/>
        <path id="DejaVuSans-32" d="M 1228 531 
L 3431 531 
L 3431 0 
L 469 0 
L 469 531 
Q 828 903 1448 1529 
Q 2069 2156 2228 2338 
Q 2531 2678 2651 2914 
Q 2772 3150 2772 3378 
Q 2772 3750 2511 3984 
Q 2250 4219 1831 4219 
Q 1534 4219 1204 4116 
Q 875 4013 500 3803 
L 500 4441 
Q 881 4594 1212 4672 
Q 1544 4750 1819 4750 
Q 2544 4750 2975 4387 
Q 3406 4025 3406 3419 
Q 3406 3131 3298 2873 
Q 3191 2616 2906 2266 
Q 2828 2175 2409 1742 
Q 1991 1309 1228 531 
z
" transform="scale(0.015625)"/>
       </defs>
       <use xlink:href="#DejaVuSans-30"/>
       <use xlink:href="#DejaVuSans-2e" x="63.623047"/>
       <use xlink:href="#DejaVuSans-30" x="95.410156"/>
       <use xlink:href="#DejaVuSans-30" x="159.033203"/>
       <use xlink:href="#DejaVuSans-30" x="222.65625"/>
       <use xlink:href="#DejaVuSans-32" x="286.279297"/>
      </g>
     </g>
    </g>
    <g id="xtick_2">
     <g id="line2d_2">
      <g>
       <use xlink:href="#mcf2c7b64f5" x="169.009155" y="307.584" style="stroke: #000000; stroke-width: 0.8"/>
      </g>
     </g>
     <g id="text_2">
      <!-- 0.0004 -->
      <g transform="translate(151.513843 322.182437) scale(0.1 -0.1)">
       <defs>
        <path id="DejaVuSans-34" d="M 2419 4116 
L 825 1625 
L 2419 1625 
L 2419 4116 
z
M 2253 4666 
L 3047 4666 
L 3047 1625 
L 3713 1625 
L 3713 1100 
L 3047 1100 
L 3047 0 
L 2419 0 
L 2419 1100 
L 313 1100 
L 313 1709 
L 2253 4666 
z
" transform="scale(0.015625)"/>
       </defs>
       <use xlink:href="#DejaVuSans-30"/>
       <use xlink:href="#DejaVuSans-2e" x="63.623047"/>
       <use xlink:href="#DejaVuSans-30" x="95.410156"/>
       <use xlink:href="#DejaVuSans-30" x="159.033203"/>
       <use xlink:href="#DejaVuSans-30" x="222.65625"/>
       <use xlink:href="#DejaVuSans-34" x="286.279297"/>
      </g>
     </g>
    </g>
    <g id="xtick_3">
     <g id="line2d_3">
      <g>
       <use xlink:href="#mcf2c7b64f5" x="228.598426" y="307.584" style="stroke: #000000; stroke-width: 0.8"/>
      </g>
     </g>
     <g id="text_3">
      <!-- 0.0006 -->
      <g transform="translate(211.103113 322.182437) scale(0.1 -0.1)">
       <defs>
        <path id="DejaVuSans-36" d="M 2113 2584 
Q 1688 2584 1439 2293 
Q 1191 2003 1191 1497 
Q 1191 994 1439 701 
Q 1688 409 2113 409 
Q 2538 409 2786 701 
Q 3034 994 3034 1497 
Q 3034 2003 2786 2293 
Q 2538 2584 2113 2584 
z
M 3366 4563 
L 3366 3988 
Q 3128 4100 2886 4159 
Q 2644 4219 2406 4219 
Q 1781 4219 1451 3797 
Q 1122 3375 1075 2522 
Q 1259 2794 1537 2939 
Q 1816 3084 2150 3084 
Q 2853 3084 3261 2657 
Q 3669 2231 3669 1497 
Q 3669 778 3244 343 
Q 2819 -91 2113 -91 
Q 1303 -91 875 529 
Q 447 1150 447 2328 
Q 447 3434 972 4092 
Q 1497 4750 2381 4750 
Q 2619 4750 2861 4703 
Q 3103 4656 3366 4563 
z
" transform="scale(0.015625)"/>
       </defs>
       <use xlink:href="#DejaVuSans-30"/>
       <use xlink:href="#DejaVuSans-2e" x="63.623047"/>
       <use xlink:href="#DejaVuSans-30" x="95.410156"/>
       <use xlink:href="#DejaVuSans-30" x="159.033203"/>
       <use xlink:href="#DejaVuSans-30" x="222.65625"/>
       <use xlink:href="#DejaVuSans-36" x="286.279297"/>
      </g>
     </g>
    </g>
    <g id="xtick_4">
     <g id="line2d_4">
      <g>
       <use xlink:href="#mcf2c7b64f5" x="288.187697" y="307.584" style="stroke: #000000; stroke-width: 0.8"/>
      </g>
     </g>
     <g id="text_4">
      <!-- 0.0008 -->
      <g transform="translate(270.692384 322.182437) scale(0.1 -0.1)">
       <defs>
        <path id="DejaVuSans-38" d="M 2034 2216 
Q 1584 2216 1326 1975 
Q 1069 1734 1069 1313 
Q 1069 891 1326 650 
Q 1584 409 2034 409 
Q 2484 409 2743 651 
Q 3003 894 3003 1313 
Q 3003 1734 2745 1975 
Q 2488 2216 2034 2216 
z
M 1403 2484 
Q 997 2584 770 2862 
Q 544 3141 544 3541 
Q 544 4100 942 4425 
Q 1341 4750 2034 4750 
Q 2731 4750 3128 4425 
Q 3525 4100 3525 3541 
Q 3525 3141 3298 2862 
Q 3072 2584 2669 2484 
Q 3125 2378 3379 2068 
Q 3634 1759 3634 1313 
Q 3634 634 3220 271 
Q 2806 -91 2034 -91 
Q 1263 -91 848 271 
Q 434 634 434 1313 
Q 434 1759 690 2068 
Q 947 2378 1403 2484 
z
M 1172 3481 
Q 1172 3119 1398 2916 
Q 1625 2713 2034 2713 
Q 2441 2713 2670 2916 
Q 2900 3119 2900 3481 
Q 2900 3844 2670 4047 
Q 2441 4250 2034 4250 
Q 1625 4250 1398 4047 
Q 1172 3844 1172 3481 
z
" transform="scale(0.015625)"/>
       </defs>
       <use xlink:href="#DejaVuSans-30"/>
       <use xlink:href="#DejaVuSans-2e" x="63.623047"/>
       <use xlink:href="#DejaVuSans-30" x="95.410156"/>
       <use xlink:href="#DejaVuSans-30" x="159.033203"/>
       <use xlink:href="#DejaVuSans-30" x="222.65625"/>
       <use xlink:href="#DejaVuSans-38" x="286.279297"/>
      </g>
     </g>
    </g>
    <g id="xtick_5">
     <g id="line2d_5">
      <g>
       <use xlink:href="#mcf2c7b64f5" x="347.776968" y="307.584" style="stroke: #000000; stroke-width: 0.8"/>
      </g>
     </g>
     <g id="text_5">
      <!-- 0.0010 -->
      <g transform="translate(330.281655 322.182437) scale(0.1 -0.1)">
       <defs>
        <path id="DejaVuSans-31" d="M 794 531 
L 1825 531 
L 1825 4091 
L 703 3866 
L 703 4441 
L 1819 4666 
L 2450 4666 
L 2450 531 
L 3481 531 
L 3481 0 
L 794 0 
L 794 531 
z
" transform="scale(0.015625)"/>
       </defs>
       <use xlink:href="#DejaVuSans-30"/>
       <use xlink:href="#DejaVuSans-2e" x="63.623047"/>
       <use xlink:href="#DejaVuSans-30" x="95.410156"/>
       <use xlink:href="#DejaVuSans-30" x="159.033203"/>
       <use xlink:href="#DejaVuSans-31" x="222.65625"/>
       <use xlink:href="#DejaVuSans-30" x="286.279297"/>
      </g>
     </g>
    </g>
    <g id="xtick_6">
     <g id="line2d_6">
      <g>
       <use xlink:href="#mcf2c7b64f5" x="407.366238" y="307.584" style="stroke: #000000; stroke-width: 0.8"/>
      </g>
     </g>
     <g id="text_6">
      <!-- 0.0012 -->
      <g transform="translate(389.870926 322.182437) scale(0.1 -0.1)">
       <use xlink:href="#DejaVuSans-30"/>
       <use xlink:href="#DejaVuSans-2e" x="63.623047"/>
       <use xlink:href="#DejaVuSans-30" x="95.410156"/>
       <use xlink:href="#DejaVuSans-30" x="159.033203"/>
       <use xlink:href="#DejaVuSans-31" x="222.65625"/>
       <use xlink:href="#DejaVuSans-32" x="286.279297"/>
      </g>
     </g>
    </g>
   </g>
   <g id="matplotlib.axis_2">
    <g id="ytick_1">
     <g id="line2d_7">
      <defs>
       <path id="m13bcbbe4c8" d="M 0 0 
L -3.5 0 
" style="stroke: #000000; stroke-width: 0.8"/>
      </defs>
      <g>
       <use xlink:href="#m13bcbbe4c8" x="57.6" y="307.584" style="stroke: #000000; stroke-width: 0.8"/>
      </g>
     </g>
     <g id="text_7">
      <!-- 0 -->
      <g transform="translate(44.2375 311.383219) scale(0.1 -0.1)">
       <use xlink:href="#DejaVuSans-30"/>
      </g>
     </g>
    </g>
    <g id="ytick_2">
     <g id="line2d_8">
      <g>
       <use xlink:href="#m13bcbbe4c8" x="57.6" y="255.755779" style="stroke: #000000; stroke-width: 0.8"/>
      </g>
     </g>
     <g id="text_8">
      <!-- 200 -->
      <g transform="translate(31.5125 259.554998) scale(0.1 -0.1)">
       <use xlink:href="#DejaVuSans-32"/>
       <use xlink:href="#DejaVuSans-30" x="63.623047"/>
       <use xlink:href="#DejaVuSans-30" x="127.246094"/>
      </g>
     </g>
    </g>
    <g id="ytick_3">
     <g id="line2d_9">
      <g>
       <use xlink:href="#m13bcbbe4c8" x="57.6" y="203.927558" style="stroke: #000000; stroke-width: 0.8"/>
      </g>
     </g>
     <g id="text_9">
      <!-- 400 -->
      <g transform="translate(31.5125 207.726777) scale(0.1 -0.1)">
       <use xlink:href="#DejaVuSans-34"/>
       <use xlink:href="#DejaVuSans-30" x="63.623047"/>
       <use xlink:href="#DejaVuSans-30" x="127.246094"/>
      </g>
     </g>
    </g>
    <g id="ytick_4">
     <g id="line2d_10">
      <g>
       <use xlink:href="#m13bcbbe4c8" x="57.6" y="152.099337" style="stroke: #000000; stroke-width: 0.8"/>
      </g>
     </g>
     <g id="text_10">
      <!-- 600 -->
      <g transform="translate(31.5125 155.898556) scale(0.1 -0.1)">
       <use xlink:href="#DejaVuSans-36"/>
       <use xlink:href="#DejaVuSans-30" x="63.623047"/>
       <use xlink:href="#DejaVuSans-30" x="127.246094"/>
      </g>
     </g>
    </g>
    <g id="ytick_5">
     <g id="line2d_11">
      <g>
       <use xlink:href="#m13bcbbe4c8" x="57.6" y="100.271117" style="stroke: #000000; stroke-width: 0.8"/>
      </g>
     </g>
     <g id="text_11">
      <!-- 800 -->
      <g transform="translate(31.5125 104.070335) scale(0.1 -0.1)">
       <use xlink:href="#DejaVuSans-38"/>
       <use xlink:href="#DejaVuSans-30" x="63.623047"/>
       <use xlink:href="#DejaVuSans-30" x="127.246094"/>
      </g>
     </g>
    </g>
    <g id="ytick_6">
     <g id="line2d_12">
      <g>
       <use xlink:href="#m13bcbbe4c8" x="57.6" y="48.442896" style="stroke: #000000; stroke-width: 0.8"/>
      </g>
     </g>
     <g id="text_12">
      <!-- 1000 -->
      <g transform="translate(25.15 52.242114) scale(0.1 -0.1)">
       <use xlink:href="#DejaVuSans-31"/>
       <use xlink:href="#DejaVuSans-30" x="63.623047"/>
       <use xlink:href="#DejaVuSans-30" x="127.246094"/>
       <use xlink:href="#DejaVuSans-30" x="190.869141"/>
      </g>
     </g>
    </g>
    <g id="text_13">
     <!-- Count -->
     <g transform="translate(19.070312 189.376437) rotate(-90) scale(0.1 -0.1)">
      <defs>
       <path id="DejaVuSans-43" d="M 4122 4306 
L 4122 3641 
Q 3803 3938 3442 4084 
Q 3081 4231 2675 4231 
Q 1875 4231 1450 3742 
Q 1025 3253 1025 2328 
Q 1025 1406 1450 917 
Q 1875 428 2675 428 
Q 3081 428 3442 575 
Q 3803 722 4122 1019 
L 4122 359 
Q 3791 134 3420 21 
Q 3050 -91 2638 -91 
Q 1578 -91 968 557 
Q 359 1206 359 2328 
Q 359 3453 968 4101 
Q 1578 4750 2638 4750 
Q 3056 4750 3426 4639 
Q 3797 4528 4122 4306 
z
" transform="scale(0.015625)"/>
       <path id="DejaVuSans-6f" d="M 1959 3097 
Q 1497 3097 1228 2736 
Q 959 2375 959 1747 
Q 959 1119 1226 758 
Q 1494 397 1959 397 
Q 2419 397 2687 759 
Q 2956 1122 2956 1747 
Q 2956 2369 2687 2733 
Q 2419 3097 1959 3097 
z
M 1959 3584 
Q 2709 3584 3137 3096 
Q 3566 2609 3566 1747 
Q 3566 888 3137 398 
Q 2709 -91 1959 -91 
Q 1206 -91 779 398 
Q 353 888 353 1747 
Q 353 2609 779 3096 
Q 1206 3584 1959 3584 
z
" transform="scale(0.015625)"/>
       <path id="DejaVuSans-75" d="M 544 1381 
L 544 3500 
L 1119 3500 
L 1119 1403 
Q 1119 906 1312 657 
Q 1506 409 1894 409 
Q 2359 409 2629 706 
Q 2900 1003 2900 1516 
L 2900 3500 
L 3475 3500 
L 3475 0 
L 2900 0 
L 2900 538 
Q 2691 219 2414 64 
Q 2138 -91 1772 -91 
Q 1169 -91 856 284 
Q 544 659 544 1381 
z
M 1991 3584 
L 1991 3584 
z
" transform="scale(0.015625)"/>
       <path id="DejaVuSans-6e" d="M 3513 2113 
L 3513 0 
L 2938 0 
L 2938 2094 
Q 2938 2591 2744 2837 
Q 2550 3084 2163 3084 
Q 1697 3084 1428 2787 
Q 1159 2491 1159 1978 
L 1159 0 
L 581 0 
L 581 3500 
L 1159 3500 
L 1159 2956 
Q 1366 3272 1645 3428 
Q 1925 3584 2291 3584 
Q 2894 3584 3203 3211 
Q 3513 2838 3513 2113 
z
" transform="scale(0.015625)"/>
       <path id="DejaVuSans-74" d="M 1172 4494 
L 1172 3500 
L 2356 3500 
L 2356 3053 
L 1172 3053 
L 1172 1153 
Q 1172 725 1289 603 
Q 1406 481 1766 481 
L 2356 481 
L 2356 0 
L 1766 0 
Q 1100 0 847 248 
Q 594 497 594 1153 
L 594 3053 
L 172 3053 
L 172 3500 
L 594 3500 
L 594 4494 
L 1172 4494 
z
" transform="scale(0.015625)"/>
      </defs>
      <use xlink:href="#DejaVuSans-43"/>
      <use xlink:href="#DejaVuSans-6f" x="69.824219"/>
      <use xlink:href="#DejaVuSans-75" x="131.005859"/>
      <use xlink:href="#DejaVuSans-6e" x="194.384766"/>
      <use xlink:href="#DejaVuSans-74" x="257.763672"/>
     </g>
    </g>
   </g>
   <g id="line2d_13">
    <path d="M 73.832727 307.21555 
L 78.727017 306.684438 
L 81.989877 306.14591 
L 86.884166 305.042488 
L 90.147026 304.130907 
L 91.778456 303.478217 
L 93.409886 302.608965 
L 95.041316 301.520373 
L 101.567035 296.614517 
L 103.198465 295.690274 
L 104.829895 295.00056 
L 106.461325 294.579951 
L 108.092755 294.443437 
L 109.724185 294.576217 
L 111.355614 294.932739 
L 114.618474 296.034631 
L 119.512764 297.912669 
L 122.775624 299.494904 
L 127.669913 302.256651 
L 129.301343 302.983512 
L 130.932773 303.52582 
L 134.195633 304.186771 
L 137.458492 304.763282 
L 145.615642 306.557219 
L 148.878502 306.875963 
L 158.667081 307.401871 
L 170.08709 307.572659 
L 199.452828 307.584 
L 398.487273 307.584 
L 398.487273 307.584 
" clip-path="url(#pd43beb03f5)" style="fill: none; stroke: #ff7f0e; stroke-width: 1.5; stroke-linecap: square"/>
   </g>
   <g id="line2d_14">
    <path d="M 73.832727 307.575549 
L 80.358447 307.434798 
L 83.621307 307.171588 
L 86.884166 306.650347 
L 88.515596 306.254307 
L 90.147026 305.740558 
L 91.778456 305.079708 
L 93.409886 304.230988 
L 95.041316 303.140475 
L 96.672746 301.744782 
L 98.304175 299.981654 
L 99.935605 297.803835 
L 101.567035 295.18837 
L 103.198465 292.135031 
L 104.829895 288.654429 
L 106.461325 284.753309 
L 108.092755 280.425853 
L 109.724185 275.655736 
L 111.355614 270.428174 
L 112.987044 264.746794 
L 116.249904 252.196196 
L 119.512764 238.564122 
L 122.775624 224.252009 
L 126.038483 209.060158 
L 129.301343 192.437288 
L 132.564203 174.222937 
L 137.458492 146.619407 
L 139.089922 138.32639 
L 140.721352 130.731298 
L 142.352782 123.797306 
L 145.615642 111.307663 
L 153.772791 81.945784 
L 155.404221 76.557381 
L 157.035651 71.773127 
L 158.667081 67.832609 
L 160.298511 64.896581 
L 161.929941 62.992821 
L 163.56137 62.008657 
L 165.1928 61.74262 
L 166.82423 61.991641 
L 168.45566 62.624727 
L 170.08709 63.602396 
L 171.71852 64.94061 
L 173.34995 66.657655 
L 174.98138 68.748359 
L 176.61281 71.197055 
L 178.244239 74.000517 
L 179.875669 77.16497 
L 181.507099 80.674109 
L 184.769959 88.426679 
L 189.664249 100.749238 
L 192.927108 109.502433 
L 196.189968 118.930091 
L 199.452828 129.188627 
L 202.715688 140.56138 
L 210.872837 170.429346 
L 214.135697 181.053448 
L 219.029986 195.712606 
L 225.555706 214.739962 
L 228.818566 223.484224 
L 232.081425 231.558011 
L 235.344285 239.08936 
L 238.607145 245.938187 
L 243.501434 255.233924 
L 248.395724 264.161884 
L 250.027154 266.790533 
L 251.658584 269.096556 
L 253.290014 271.076333 
L 256.552873 274.369336 
L 261.447163 279.080475 
L 267.972883 285.62607 
L 271.235742 288.401594 
L 276.130032 292.118183 
L 279.392892 294.297775 
L 281.024322 295.21539 
L 282.655751 295.997929 
L 285.918611 297.195726 
L 292.444331 299.215477 
L 295.70719 300.607708 
L 298.97005 302.024167 
L 302.23291 303.114487 
L 305.49577 303.820991 
L 310.390059 304.469908 
L 315.284349 304.848547 
L 362.595815 307.108913 
L 370.752965 307.244638 
L 383.804404 307.503521 
L 391.961553 307.484379 
L 398.487273 307.470096 
L 398.487273 307.470096 
" clip-path="url(#pd43beb03f5)" style="fill: none; stroke: #1f77b4; stroke-width: 1.5; stroke-linecap: square"/>
   </g>
   <g id="patch_193">
    <path d="M 57.6 307.584 
L 57.6 41.472 
" style="fill: none; stroke: #000000; stroke-width: 0.8; stroke-linejoin: miter; stroke-linecap: square"/>
   </g>
   <g id="patch_194">
    <path d="M 414.72 307.584 
L 414.72 41.472 
" style="fill: none; stroke: #000000; stroke-width: 0.8; stroke-linejoin: miter; stroke-linecap: square"/>
   </g>
   <g id="patch_195">
    <path d="M 57.6 307.584 
L 414.72 307.584 
" style="fill: none; stroke: #000000; stroke-width: 0.8; stroke-linejoin: miter; stroke-linecap: square"/>
   </g>
   <g id="patch_196">
    <path d="M 57.6 41.472 
L 414.72 41.472 
" style="fill: none; stroke: #000000; stroke-width: 0.8; stroke-linejoin: miter; stroke-linecap: square"/>
   </g>
   <g id="legend_1">
    <g id="patch_197">
     <path d="M 288.893438 79.3845 
L 407.72 79.3845 
Q 409.72 79.3845 409.72 77.3845 
L 409.72 48.472 
Q 409.72 46.472 407.72 46.472 
L 288.893438 46.472 
Q 286.893438 46.472 286.893438 48.472 
L 286.893438 77.3845 
Q 286.893438 79.3845 288.893438 79.3845 
z
" style="fill: #ffffff; opacity: 0.8; stroke: #cccccc; stroke-linejoin: miter"/>
    </g>
    <g id="patch_198">
     <path d="M 290.893438 58.070438 
L 310.893438 58.070438 
L 310.893438 51.070438 
L 290.893438 51.070438 
z
" style="fill: #1f77b4; fill-opacity: 0.5; stroke: #000000; stroke-linejoin: miter"/>
    </g>
    <g id="text_14">
     <!-- all_layers = False -->
     <g transform="translate(318.893438 58.070438) scale(0.1 -0.1)">
      <defs>
       <path id="DejaVuSans-61" d="M 2194 1759 
Q 1497 1759 1228 1600 
Q 959 1441 959 1056 
Q 959 750 1161 570 
Q 1363 391 1709 391 
Q 2188 391 2477 730 
Q 2766 1069 2766 1631 
L 2766 1759 
L 2194 1759 
z
M 3341 1997 
L 3341 0 
L 2766 0 
L 2766 531 
Q 2569 213 2275 61 
Q 1981 -91 1556 -91 
Q 1019 -91 701 211 
Q 384 513 384 1019 
Q 384 1609 779 1909 
Q 1175 2209 1959 2209 
L 2766 2209 
L 2766 2266 
Q 2766 2663 2505 2880 
Q 2244 3097 1772 3097 
Q 1472 3097 1187 3025 
Q 903 2953 641 2809 
L 641 3341 
Q 956 3463 1253 3523 
Q 1550 3584 1831 3584 
Q 2591 3584 2966 3190 
Q 3341 2797 3341 1997 
z
" transform="scale(0.015625)"/>
       <path id="DejaVuSans-6c" d="M 603 4863 
L 1178 4863 
L 1178 0 
L 603 0 
L 603 4863 
z
" transform="scale(0.015625)"/>
       <path id="DejaVuSans-5f" d="M 3263 -1063 
L 3263 -1509 
L -63 -1509 
L -63 -1063 
L 3263 -1063 
z
" transform="scale(0.015625)"/>
       <path id="DejaVuSans-79" d="M 2059 -325 
Q 1816 -950 1584 -1140 
Q 1353 -1331 966 -1331 
L 506 -1331 
L 506 -850 
L 844 -850 
Q 1081 -850 1212 -737 
Q 1344 -625 1503 -206 
L 1606 56 
L 191 3500 
L 800 3500 
L 1894 763 
L 2988 3500 
L 3597 3500 
L 2059 -325 
z
" transform="scale(0.015625)"/>
       <path id="DejaVuSans-65" d="M 3597 1894 
L 3597 1613 
L 953 1613 
Q 991 1019 1311 708 
Q 1631 397 2203 397 
Q 2534 397 2845 478 
Q 3156 559 3463 722 
L 3463 178 
Q 3153 47 2828 -22 
Q 2503 -91 2169 -91 
Q 1331 -91 842 396 
Q 353 884 353 1716 
Q 353 2575 817 3079 
Q 1281 3584 2069 3584 
Q 2775 3584 3186 3129 
Q 3597 2675 3597 1894 
z
M 3022 2063 
Q 3016 2534 2758 2815 
Q 2500 3097 2075 3097 
Q 1594 3097 1305 2825 
Q 1016 2553 972 2059 
L 3022 2063 
z
" transform="scale(0.015625)"/>
       <path id="DejaVuSans-72" d="M 2631 2963 
Q 2534 3019 2420 3045 
Q 2306 3072 2169 3072 
Q 1681 3072 1420 2755 
Q 1159 2438 1159 1844 
L 1159 0 
L 581 0 
L 581 3500 
L 1159 3500 
L 1159 2956 
Q 1341 3275 1631 3429 
Q 1922 3584 2338 3584 
Q 2397 3584 2469 3576 
Q 2541 3569 2628 3553 
L 2631 2963 
z
" transform="scale(0.015625)"/>
       <path id="DejaVuSans-73" d="M 2834 3397 
L 2834 2853 
Q 2591 2978 2328 3040 
Q 2066 3103 1784 3103 
Q 1356 3103 1142 2972 
Q 928 2841 928 2578 
Q 928 2378 1081 2264 
Q 1234 2150 1697 2047 
L 1894 2003 
Q 2506 1872 2764 1633 
Q 3022 1394 3022 966 
Q 3022 478 2636 193 
Q 2250 -91 1575 -91 
Q 1294 -91 989 -36 
Q 684 19 347 128 
L 347 722 
Q 666 556 975 473 
Q 1284 391 1588 391 
Q 1994 391 2212 530 
Q 2431 669 2431 922 
Q 2431 1156 2273 1281 
Q 2116 1406 1581 1522 
L 1381 1569 
Q 847 1681 609 1914 
Q 372 2147 372 2553 
Q 372 3047 722 3315 
Q 1072 3584 1716 3584 
Q 2034 3584 2315 3537 
Q 2597 3491 2834 3397 
z
" transform="scale(0.015625)"/>
       <path id="DejaVuSans-20" transform="scale(0.015625)"/>
       <path id="DejaVuSans-3d" d="M 678 2906 
L 4684 2906 
L 4684 2381 
L 678 2381 
L 678 2906 
z
M 678 1631 
L 4684 1631 
L 4684 1100 
L 678 1100 
L 678 1631 
z
" transform="scale(0.015625)"/>
       <path id="DejaVuSans-46" d="M 628 4666 
L 3309 4666 
L 3309 4134 
L 1259 4134 
L 1259 2759 
L 3109 2759 
L 3109 2228 
L 1259 2228 
L 1259 0 
L 628 0 
L 628 4666 
z
" transform="scale(0.015625)"/>
      </defs>
      <use xlink:href="#DejaVuSans-61"/>
      <use xlink:href="#DejaVuSans-6c" x="61.279297"/>
      <use xlink:href="#DejaVuSans-6c" x="89.0625"/>
      <use xlink:href="#DejaVuSans-5f" x="116.845703"/>
      <use xlink:href="#DejaVuSans-6c" x="166.845703"/>
      <use xlink:href="#DejaVuSans-61" x="194.628906"/>
      <use xlink:href="#DejaVuSans-79" x="255.908203"/>
      <use xlink:href="#DejaVuSans-65" x="315.087891"/>
      <use xlink:href="#DejaVuSans-72" x="376.611328"/>
      <use xlink:href="#DejaVuSans-73" x="417.724609"/>
      <use xlink:href="#DejaVuSans-20" x="469.824219"/>
      <use xlink:href="#DejaVuSans-3d" x="501.611328"/>
      <use xlink:href="#DejaVuSans-20" x="585.400391"/>
      <use xlink:href="#DejaVuSans-46" x="617.1875"/>
      <use xlink:href="#DejaVuSans-61" x="665.582031"/>
      <use xlink:href="#DejaVuSans-6c" x="726.861328"/>
      <use xlink:href="#DejaVuSans-73" x="754.644531"/>
      <use xlink:href="#DejaVuSans-65" x="806.744141"/>
     </g>
    </g>
    <g id="patch_199">
     <path d="M 290.893438 73.026688 
L 310.893438 73.026688 
L 310.893438 66.026688 
L 290.893438 66.026688 
z
" style="fill: #ff7f0e; fill-opacity: 0.5; stroke: #000000; stroke-linejoin: miter"/>
    </g>
    <g id="text_15">
     <!-- all_layers = True -->
     <g transform="translate(318.893438 73.026688) scale(0.1 -0.1)">
      <defs>
       <path id="DejaVuSans-54" d="M -19 4666 
L 3928 4666 
L 3928 4134 
L 2272 4134 
L 2272 0 
L 1638 0 
L 1638 4134 
L -19 4134 
L -19 4666 
z
" transform="scale(0.015625)"/>
      </defs>
      <use xlink:href="#DejaVuSans-61"/>
      <use xlink:href="#DejaVuSans-6c" x="61.279297"/>
      <use xlink:href="#DejaVuSans-6c" x="89.0625"/>
      <use xlink:href="#DejaVuSans-5f" x="116.845703"/>
      <use xlink:href="#DejaVuSans-6c" x="166.845703"/>
      <use xlink:href="#DejaVuSans-61" x="194.628906"/>
      <use xlink:href="#DejaVuSans-79" x="255.908203"/>
      <use xlink:href="#DejaVuSans-65" x="315.087891"/>
      <use xlink:href="#DejaVuSans-72" x="376.611328"/>
      <use xlink:href="#DejaVuSans-73" x="417.724609"/>
      <use xlink:href="#DejaVuSans-20" x="469.824219"/>
      <use xlink:href="#DejaVuSans-3d" x="501.611328"/>
      <use xlink:href="#DejaVuSans-20" x="585.400391"/>
      <use xlink:href="#DejaVuSans-54" x="617.1875"/>
      <use xlink:href="#DejaVuSans-72" x="663.521484"/>
      <use xlink:href="#DejaVuSans-75" x="704.634766"/>
      <use xlink:href="#DejaVuSans-65" x="768.013672"/>
     </g>
    </g>
   </g>
  </g>
  <g id="text_16">
   <!-- recursive fn_facebook/bart-base_128_False -->
   <g transform="translate(101.234063 16.030125) scale(0.12 -0.12)">
    <defs>
     <path id="DejaVuSans-63" d="M 3122 3366 
L 3122 2828 
Q 2878 2963 2633 3030 
Q 2388 3097 2138 3097 
Q 1578 3097 1268 2742 
Q 959 2388 959 1747 
Q 959 1106 1268 751 
Q 1578 397 2138 397 
Q 2388 397 2633 464 
Q 2878 531 3122 666 
L 3122 134 
Q 2881 22 2623 -34 
Q 2366 -91 2075 -91 
Q 1284 -91 818 406 
Q 353 903 353 1747 
Q 353 2603 823 3093 
Q 1294 3584 2113 3584 
Q 2378 3584 2631 3529 
Q 2884 3475 3122 3366 
z
" transform="scale(0.015625)"/>
     <path id="DejaVuSans-69" d="M 603 3500 
L 1178 3500 
L 1178 0 
L 603 0 
L 603 3500 
z
M 603 4863 
L 1178 4863 
L 1178 4134 
L 603 4134 
L 603 4863 
z
" transform="scale(0.015625)"/>
     <path id="DejaVuSans-76" d="M 191 3500 
L 800 3500 
L 1894 563 
L 2988 3500 
L 3597 3500 
L 2284 0 
L 1503 0 
L 191 3500 
z
" transform="scale(0.015625)"/>
     <path id="DejaVuSans-66" d="M 2375 4863 
L 2375 4384 
L 1825 4384 
Q 1516 4384 1395 4259 
Q 1275 4134 1275 3809 
L 1275 3500 
L 2222 3500 
L 2222 3053 
L 1275 3053 
L 1275 0 
L 697 0 
L 697 3053 
L 147 3053 
L 147 3500 
L 697 3500 
L 697 3744 
Q 697 4328 969 4595 
Q 1241 4863 1831 4863 
L 2375 4863 
z
" transform="scale(0.015625)"/>
     <path id="DejaVuSans-62" d="M 3116 1747 
Q 3116 2381 2855 2742 
Q 2594 3103 2138 3103 
Q 1681 3103 1420 2742 
Q 1159 2381 1159 1747 
Q 1159 1113 1420 752 
Q 1681 391 2138 391 
Q 2594 391 2855 752 
Q 3116 1113 3116 1747 
z
M 1159 2969 
Q 1341 3281 1617 3432 
Q 1894 3584 2278 3584 
Q 2916 3584 3314 3078 
Q 3713 2572 3713 1747 
Q 3713 922 3314 415 
Q 2916 -91 2278 -91 
Q 1894 -91 1617 61 
Q 1341 213 1159 525 
L 1159 0 
L 581 0 
L 581 4863 
L 1159 4863 
L 1159 2969 
z
" transform="scale(0.015625)"/>
     <path id="DejaVuSans-6b" d="M 581 4863 
L 1159 4863 
L 1159 1991 
L 2875 3500 
L 3609 3500 
L 1753 1863 
L 3688 0 
L 2938 0 
L 1159 1709 
L 1159 0 
L 581 0 
L 581 4863 
z
" transform="scale(0.015625)"/>
     <path id="DejaVuSans-2f" d="M 1625 4666 
L 2156 4666 
L 531 -594 
L 0 -594 
L 1625 4666 
z
" transform="scale(0.015625)"/>
     <path id="DejaVuSans-2d" d="M 313 2009 
L 1997 2009 
L 1997 1497 
L 313 1497 
L 313 2009 
z
" transform="scale(0.015625)"/>
    </defs>
    <use xlink:href="#DejaVuSans-72"/>
    <use xlink:href="#DejaVuSans-65" x="38.863281"/>
    <use xlink:href="#DejaVuSans-63" x="100.386719"/>
    <use xlink:href="#DejaVuSans-75" x="155.367188"/>
    <use xlink:href="#DejaVuSans-72" x="218.746094"/>
    <use xlink:href="#DejaVuSans-73" x="259.859375"/>
    <use xlink:href="#DejaVuSans-69" x="311.958984"/>
    <use xlink:href="#DejaVuSans-76" x="339.742188"/>
    <use xlink:href="#DejaVuSans-65" x="398.921875"/>
    <use xlink:href="#DejaVuSans-20" x="460.445312"/>
    <use xlink:href="#DejaVuSans-66" x="492.232422"/>
    <use xlink:href="#DejaVuSans-6e" x="527.4375"/>
    <use xlink:href="#DejaVuSans-5f" x="590.816406"/>
    <use xlink:href="#DejaVuSans-66" x="640.816406"/>
    <use xlink:href="#DejaVuSans-61" x="676.021484"/>
    <use xlink:href="#DejaVuSans-63" x="737.300781"/>
    <use xlink:href="#DejaVuSans-65" x="792.28125"/>
    <use xlink:href="#DejaVuSans-62" x="853.804688"/>
    <use xlink:href="#DejaVuSans-6f" x="917.28125"/>
    <use xlink:href="#DejaVuSans-6f" x="978.462891"/>
    <use xlink:href="#DejaVuSans-6b" x="1039.644531"/>
    <use xlink:href="#DejaVuSans-2f" x="1097.554688"/>
    <use xlink:href="#DejaVuSans-62" x="1131.246094"/>
    <use xlink:href="#DejaVuSans-61" x="1194.722656"/>
    <use xlink:href="#DejaVuSans-72" x="1256.001953"/>
    <use xlink:href="#DejaVuSans-74" x="1297.115234"/>
    <use xlink:href="#DejaVuSans-2d" x="1336.324219"/>
    <use xlink:href="#DejaVuSans-62" x="1372.408203"/>
    <use xlink:href="#DejaVuSans-61" x="1435.884766"/>
    <use xlink:href="#DejaVuSans-73" x="1497.164062"/>
    <use xlink:href="#DejaVuSans-65" x="1549.263672"/>
    <use xlink:href="#DejaVuSans-5f" x="1610.787109"/>
    <use xlink:href="#DejaVuSans-31" x="1660.787109"/>
    <use xlink:href="#DejaVuSans-32" x="1724.410156"/>
    <use xlink:href="#DejaVuSans-38" x="1788.033203"/>
    <use xlink:href="#DejaVuSans-5f" x="1851.65625"/>
    <use xlink:href="#DejaVuSans-46" x="1901.65625"/>
    <use xlink:href="#DejaVuSans-61" x="1950.050781"/>
    <use xlink:href="#DejaVuSans-6c" x="2011.330078"/>
    <use xlink:href="#DejaVuSans-73" x="2039.113281"/>
    <use xlink:href="#DejaVuSans-65" x="2091.212891"/>
   </g>
  </g>
 </g>
 <defs>
  <clipPath id="pd43beb03f5">
   <rect x="57.6" y="41.472" width="357.12" height="266.112"/>
  </clipPath>
 </defs>
</svg>
