<?xml version="1.0" encoding="utf-8" standalone="no"?>
<!DOCTYPE svg PUBLIC "-//W3C//DTD SVG 1.1//EN"
  "http://www.w3.org/Graphics/SVG/1.1/DTD/svg11.dtd">
<svg xmlns:xlink="http://www.w3.org/1999/xlink" width="460.8pt" height="345.6pt" viewBox="0 0 460.8 345.6" xmlns="http://www.w3.org/2000/svg" version="1.1">
 <metadata>
  <rdf:RDF xmlns:dc="http://purl.org/dc/elements/1.1/" xmlns:cc="http://creativecommons.org/ns#" xmlns:rdf="http://www.w3.org/1999/02/22-rdf-syntax-ns#">
   <cc:Work>
    <dc:type rdf:resource="http://purl.org/dc/dcmitype/StillImage"/>
    <dc:date>2024-03-07T15:39:18.680656</dc:date>
    <dc:format>image/svg+xml</dc:format>
    <dc:creator>
     <cc:Agent>
      <dc:title>Matplotlib v3.6.3, https://matplotlib.org/</dc:title>
     </cc:Agent>
    </dc:creator>
   </cc:Work>
  </rdf:RDF>
 </metadata>
 <defs>
  <style type="text/css">*{stroke-linejoin: round; stroke-linecap: butt}</style>
 </defs>
 <g id="figure_1">
  <g id="patch_1">
   <path d="M 0 345.6 
L 460.8 345.6 
L 460.8 0 
L 0 0 
z
" style="fill: #ffffff"/>
  </g>
  <g id="axes_1">
   <g id="patch_2">
    <path d="M 57.6 307.584 
L 414.72 307.584 
L 414.72 41.472 
L 57.6 41.472 
z
" style="fill: #ffffff"/>
   </g>
   <g id="patch_3">
    <path d="M 73.832727 307.584 
L 77.480531 307.584 
L 77.480531 307.584 
L 73.832727 307.584 
z
" clip-path="url(#pe7c9443169)" style="fill: #ff7f0e; fill-opacity: 0.5; stroke: #000000; stroke-width: 0.36478; stroke-linejoin: miter"/>
   </g>
   <g id="patch_4">
    <path d="M 77.480531 307.584 
L 81.128335 307.584 
L 81.128335 307.584 
L 77.480531 307.584 
z
" clip-path="url(#pe7c9443169)" style="fill: #ff7f0e; fill-opacity: 0.5; stroke: #000000; stroke-width: 0.36478; stroke-linejoin: miter"/>
   </g>
   <g id="patch_5">
    <path d="M 81.128335 307.584 
L 84.776139 307.584 
L 84.776139 307.584 
L 81.128335 307.584 
z
" clip-path="url(#pe7c9443169)" style="fill: #ff7f0e; fill-opacity: 0.5; stroke: #000000; stroke-width: 0.36478; stroke-linejoin: miter"/>
   </g>
   <g id="patch_6">
    <path d="M 84.776139 307.584 
L 88.423943 307.584 
L 88.423943 307.584 
L 84.776139 307.584 
z
" clip-path="url(#pe7c9443169)" style="fill: #ff7f0e; fill-opacity: 0.5; stroke: #000000; stroke-width: 0.36478; stroke-linejoin: miter"/>
   </g>
   <g id="patch_7">
    <path d="M 88.423943 307.584 
L 92.071747 307.584 
L 92.071747 307.584 
L 88.423943 307.584 
z
" clip-path="url(#pe7c9443169)" style="fill: #ff7f0e; fill-opacity: 0.5; stroke: #000000; stroke-width: 0.36478; stroke-linejoin: miter"/>
   </g>
   <g id="patch_8">
    <path d="M 92.071747 307.584 
L 95.719551 307.584 
L 95.719551 307.584 
L 92.071747 307.584 
z
" clip-path="url(#pe7c9443169)" style="fill: #ff7f0e; fill-opacity: 0.5; stroke: #000000; stroke-width: 0.36478; stroke-linejoin: miter"/>
   </g>
   <g id="patch_9">
    <path d="M 95.719551 307.584 
L 99.367354 307.584 
L 99.367354 307.584 
L 95.719551 307.584 
z
" clip-path="url(#pe7c9443169)" style="fill: #ff7f0e; fill-opacity: 0.5; stroke: #000000; stroke-width: 0.36478; stroke-linejoin: miter"/>
   </g>
   <g id="patch_10">
    <path d="M 99.367354 307.584 
L 103.015158 307.584 
L 103.015158 307.584 
L 99.367354 307.584 
z
" clip-path="url(#pe7c9443169)" style="fill: #ff7f0e; fill-opacity: 0.5; stroke: #000000; stroke-width: 0.36478; stroke-linejoin: miter"/>
   </g>
   <g id="patch_11">
    <path d="M 103.015158 307.584 
L 106.662962 307.584 
L 106.662962 307.584 
L 103.015158 307.584 
z
" clip-path="url(#pe7c9443169)" style="fill: #ff7f0e; fill-opacity: 0.5; stroke: #000000; stroke-width: 0.36478; stroke-linejoin: miter"/>
   </g>
   <g id="patch_12">
    <path d="M 106.662962 307.584 
L 110.310766 307.584 
L 110.310766 307.584 
L 106.662962 307.584 
z
" clip-path="url(#pe7c9443169)" style="fill: #ff7f0e; fill-opacity: 0.5; stroke: #000000; stroke-width: 0.36478; stroke-linejoin: miter"/>
   </g>
   <g id="patch_13">
    <path d="M 110.310766 307.584 
L 113.95857 307.584 
L 113.95857 307.584 
L 110.310766 307.584 
z
" clip-path="url(#pe7c9443169)" style="fill: #ff7f0e; fill-opacity: 0.5; stroke: #000000; stroke-width: 0.36478; stroke-linejoin: miter"/>
   </g>
   <g id="patch_14">
    <path d="M 113.95857 307.584 
L 117.606374 307.584 
L 117.606374 307.584 
L 113.95857 307.584 
z
" clip-path="url(#pe7c9443169)" style="fill: #ff7f0e; fill-opacity: 0.5; stroke: #000000; stroke-width: 0.36478; stroke-linejoin: miter"/>
   </g>
   <g id="patch_15">
    <path d="M 117.606374 307.584 
L 121.254178 307.584 
L 121.254178 307.584 
L 117.606374 307.584 
z
" clip-path="url(#pe7c9443169)" style="fill: #ff7f0e; fill-opacity: 0.5; stroke: #000000; stroke-width: 0.36478; stroke-linejoin: miter"/>
   </g>
   <g id="patch_16">
    <path d="M 121.254178 307.584 
L 124.901982 307.584 
L 124.901982 307.584 
L 121.254178 307.584 
z
" clip-path="url(#pe7c9443169)" style="fill: #ff7f0e; fill-opacity: 0.5; stroke: #000000; stroke-width: 0.36478; stroke-linejoin: miter"/>
   </g>
   <g id="patch_17">
    <path d="M 124.901982 307.584 
L 128.549785 307.584 
L 128.549785 307.584 
L 124.901982 307.584 
z
" clip-path="url(#pe7c9443169)" style="fill: #ff7f0e; fill-opacity: 0.5; stroke: #000000; stroke-width: 0.36478; stroke-linejoin: miter"/>
   </g>
   <g id="patch_18">
    <path d="M 128.549785 307.584 
L 132.197589 307.584 
L 132.197589 307.584 
L 128.549785 307.584 
z
" clip-path="url(#pe7c9443169)" style="fill: #ff7f0e; fill-opacity: 0.5; stroke: #000000; stroke-width: 0.36478; stroke-linejoin: miter"/>
   </g>
   <g id="patch_19">
    <path d="M 132.197589 307.584 
L 135.845393 307.584 
L 135.845393 307.584 
L 132.197589 307.584 
z
" clip-path="url(#pe7c9443169)" style="fill: #ff7f0e; fill-opacity: 0.5; stroke: #000000; stroke-width: 0.36478; stroke-linejoin: miter"/>
   </g>
   <g id="patch_20">
    <path d="M 135.845393 307.584 
L 139.493197 307.584 
L 139.493197 307.584 
L 135.845393 307.584 
z
" clip-path="url(#pe7c9443169)" style="fill: #ff7f0e; fill-opacity: 0.5; stroke: #000000; stroke-width: 0.36478; stroke-linejoin: miter"/>
   </g>
   <g id="patch_21">
    <path d="M 139.493197 307.584 
L 143.141001 307.584 
L 143.141001 307.584 
L 139.493197 307.584 
z
" clip-path="url(#pe7c9443169)" style="fill: #ff7f0e; fill-opacity: 0.5; stroke: #000000; stroke-width: 0.36478; stroke-linejoin: miter"/>
   </g>
   <g id="patch_22">
    <path d="M 143.141001 307.584 
L 146.788805 307.584 
L 146.788805 307.584 
L 143.141001 307.584 
z
" clip-path="url(#pe7c9443169)" style="fill: #ff7f0e; fill-opacity: 0.5; stroke: #000000; stroke-width: 0.36478; stroke-linejoin: miter"/>
   </g>
   <g id="patch_23">
    <path d="M 146.788805 307.584 
L 150.436609 307.584 
L 150.436609 307.584 
L 146.788805 307.584 
z
" clip-path="url(#pe7c9443169)" style="fill: #ff7f0e; fill-opacity: 0.5; stroke: #000000; stroke-width: 0.36478; stroke-linejoin: miter"/>
   </g>
   <g id="patch_24">
    <path d="M 150.436609 307.584 
L 154.084413 307.584 
L 154.084413 307.584 
L 150.436609 307.584 
z
" clip-path="url(#pe7c9443169)" style="fill: #ff7f0e; fill-opacity: 0.5; stroke: #000000; stroke-width: 0.36478; stroke-linejoin: miter"/>
   </g>
   <g id="patch_25">
    <path d="M 154.084413 307.584 
L 157.732217 307.584 
L 157.732217 307.584 
L 154.084413 307.584 
z
" clip-path="url(#pe7c9443169)" style="fill: #ff7f0e; fill-opacity: 0.5; stroke: #000000; stroke-width: 0.36478; stroke-linejoin: miter"/>
   </g>
   <g id="patch_26">
    <path d="M 157.732217 307.584 
L 161.38002 307.584 
L 161.38002 307.584 
L 157.732217 307.584 
z
" clip-path="url(#pe7c9443169)" style="fill: #ff7f0e; fill-opacity: 0.5; stroke: #000000; stroke-width: 0.36478; stroke-linejoin: miter"/>
   </g>
   <g id="patch_27">
    <path d="M 161.38002 307.584 
L 165.027824 307.584 
L 165.027824 307.584 
L 161.38002 307.584 
z
" clip-path="url(#pe7c9443169)" style="fill: #ff7f0e; fill-opacity: 0.5; stroke: #000000; stroke-width: 0.36478; stroke-linejoin: miter"/>
   </g>
   <g id="patch_28">
    <path d="M 165.027824 307.584 
L 168.675628 307.584 
L 168.675628 307.057098 
L 165.027824 307.057098 
z
" clip-path="url(#pe7c9443169)" style="fill: #ff7f0e; fill-opacity: 0.5; stroke: #000000; stroke-width: 0.36478; stroke-linejoin: miter"/>
   </g>
   <g id="patch_29">
    <path d="M 168.675628 307.584 
L 172.323432 307.584 
L 172.323432 307.584 
L 168.675628 307.584 
z
" clip-path="url(#pe7c9443169)" style="fill: #ff7f0e; fill-opacity: 0.5; stroke: #000000; stroke-width: 0.36478; stroke-linejoin: miter"/>
   </g>
   <g id="patch_30">
    <path d="M 172.323432 307.584 
L 175.971236 307.584 
L 175.971236 307.320549 
L 172.323432 307.320549 
z
" clip-path="url(#pe7c9443169)" style="fill: #ff7f0e; fill-opacity: 0.5; stroke: #000000; stroke-width: 0.36478; stroke-linejoin: miter"/>
   </g>
   <g id="patch_31">
    <path d="M 175.971236 307.584 
L 179.61904 307.584 
L 179.61904 307.584 
L 175.971236 307.584 
z
" clip-path="url(#pe7c9443169)" style="fill: #ff7f0e; fill-opacity: 0.5; stroke: #000000; stroke-width: 0.36478; stroke-linejoin: miter"/>
   </g>
   <g id="patch_32">
    <path d="M 179.61904 307.584 
L 183.266844 307.584 
L 183.266844 307.057098 
L 179.61904 307.057098 
z
" clip-path="url(#pe7c9443169)" style="fill: #ff7f0e; fill-opacity: 0.5; stroke: #000000; stroke-width: 0.36478; stroke-linejoin: miter"/>
   </g>
   <g id="patch_33">
    <path d="M 183.266844 307.584 
L 186.914648 307.584 
L 186.914648 307.320549 
L 183.266844 307.320549 
z
" clip-path="url(#pe7c9443169)" style="fill: #ff7f0e; fill-opacity: 0.5; stroke: #000000; stroke-width: 0.36478; stroke-linejoin: miter"/>
   </g>
   <g id="patch_34">
    <path d="M 186.914648 307.584 
L 190.562451 307.584 
L 190.562451 307.320549 
L 186.914648 307.320549 
z
" clip-path="url(#pe7c9443169)" style="fill: #ff7f0e; fill-opacity: 0.5; stroke: #000000; stroke-width: 0.36478; stroke-linejoin: miter"/>
   </g>
   <g id="patch_35">
    <path d="M 190.562451 307.584 
L 194.210255 307.584 
L 194.210255 307.057098 
L 190.562451 307.057098 
z
" clip-path="url(#pe7c9443169)" style="fill: #ff7f0e; fill-opacity: 0.5; stroke: #000000; stroke-width: 0.36478; stroke-linejoin: miter"/>
   </g>
   <g id="patch_36">
    <path d="M 194.210255 307.584 
L 197.858059 307.584 
L 197.858059 307.057098 
L 194.210255 307.057098 
z
" clip-path="url(#pe7c9443169)" style="fill: #ff7f0e; fill-opacity: 0.5; stroke: #000000; stroke-width: 0.36478; stroke-linejoin: miter"/>
   </g>
   <g id="patch_37">
    <path d="M 197.858059 307.584 
L 201.505863 307.584 
L 201.505863 307.584 
L 197.858059 307.584 
z
" clip-path="url(#pe7c9443169)" style="fill: #ff7f0e; fill-opacity: 0.5; stroke: #000000; stroke-width: 0.36478; stroke-linejoin: miter"/>
   </g>
   <g id="patch_38">
    <path d="M 201.505863 307.584 
L 205.153667 307.584 
L 205.153667 306.793647 
L 201.505863 306.793647 
z
" clip-path="url(#pe7c9443169)" style="fill: #ff7f0e; fill-opacity: 0.5; stroke: #000000; stroke-width: 0.36478; stroke-linejoin: miter"/>
   </g>
   <g id="patch_39">
    <path d="M 205.153667 307.584 
L 208.801471 307.584 
L 208.801471 307.320549 
L 205.153667 307.320549 
z
" clip-path="url(#pe7c9443169)" style="fill: #ff7f0e; fill-opacity: 0.5; stroke: #000000; stroke-width: 0.36478; stroke-linejoin: miter"/>
   </g>
   <g id="patch_40">
    <path d="M 208.801471 307.584 
L 212.449275 307.584 
L 212.449275 306.530195 
L 208.801471 306.530195 
z
" clip-path="url(#pe7c9443169)" style="fill: #ff7f0e; fill-opacity: 0.5; stroke: #000000; stroke-width: 0.36478; stroke-linejoin: miter"/>
   </g>
   <g id="patch_41">
    <path d="M 212.449275 307.584 
L 216.097079 307.584 
L 216.097079 306.266744 
L 212.449275 306.266744 
z
" clip-path="url(#pe7c9443169)" style="fill: #ff7f0e; fill-opacity: 0.5; stroke: #000000; stroke-width: 0.36478; stroke-linejoin: miter"/>
   </g>
   <g id="patch_42">
    <path d="M 216.097079 307.584 
L 219.744883 307.584 
L 219.744883 306.793647 
L 216.097079 306.793647 
z
" clip-path="url(#pe7c9443169)" style="fill: #ff7f0e; fill-opacity: 0.5; stroke: #000000; stroke-width: 0.36478; stroke-linejoin: miter"/>
   </g>
   <g id="patch_43">
    <path d="M 219.744883 307.584 
L 223.392686 307.584 
L 223.392686 307.320549 
L 219.744883 307.320549 
z
" clip-path="url(#pe7c9443169)" style="fill: #ff7f0e; fill-opacity: 0.5; stroke: #000000; stroke-width: 0.36478; stroke-linejoin: miter"/>
   </g>
   <g id="patch_44">
    <path d="M 223.392686 307.584 
L 227.04049 307.584 
L 227.04049 307.057098 
L 223.392686 307.057098 
z
" clip-path="url(#pe7c9443169)" style="fill: #ff7f0e; fill-opacity: 0.5; stroke: #000000; stroke-width: 0.36478; stroke-linejoin: miter"/>
   </g>
   <g id="patch_45">
    <path d="M 227.04049 307.584 
L 230.688294 307.584 
L 230.688294 307.057098 
L 227.04049 307.057098 
z
" clip-path="url(#pe7c9443169)" style="fill: #ff7f0e; fill-opacity: 0.5; stroke: #000000; stroke-width: 0.36478; stroke-linejoin: miter"/>
   </g>
   <g id="patch_46">
    <path d="M 230.688294 307.584 
L 234.336098 307.584 
L 234.336098 305.21294 
L 230.688294 305.21294 
z
" clip-path="url(#pe7c9443169)" style="fill: #ff7f0e; fill-opacity: 0.5; stroke: #000000; stroke-width: 0.36478; stroke-linejoin: miter"/>
   </g>
   <g id="patch_47">
    <path d="M 234.336098 307.584 
L 237.983902 307.584 
L 237.983902 305.21294 
L 234.336098 305.21294 
z
" clip-path="url(#pe7c9443169)" style="fill: #ff7f0e; fill-opacity: 0.5; stroke: #000000; stroke-width: 0.36478; stroke-linejoin: miter"/>
   </g>
   <g id="patch_48">
    <path d="M 237.983902 307.584 
L 241.631706 307.584 
L 241.631706 306.530195 
L 237.983902 306.530195 
z
" clip-path="url(#pe7c9443169)" style="fill: #ff7f0e; fill-opacity: 0.5; stroke: #000000; stroke-width: 0.36478; stroke-linejoin: miter"/>
   </g>
   <g id="patch_49">
    <path d="M 241.631706 307.584 
L 245.27951 307.584 
L 245.27951 305.739842 
L 241.631706 305.739842 
z
" clip-path="url(#pe7c9443169)" style="fill: #ff7f0e; fill-opacity: 0.5; stroke: #000000; stroke-width: 0.36478; stroke-linejoin: miter"/>
   </g>
   <g id="patch_50">
    <path d="M 245.27951 307.584 
L 248.927314 307.584 
L 248.927314 305.476391 
L 245.27951 305.476391 
z
" clip-path="url(#pe7c9443169)" style="fill: #ff7f0e; fill-opacity: 0.5; stroke: #000000; stroke-width: 0.36478; stroke-linejoin: miter"/>
   </g>
   <g id="patch_51">
    <path d="M 248.927314 307.584 
L 252.575117 307.584 
L 252.575117 303.632233 
L 248.927314 303.632233 
z
" clip-path="url(#pe7c9443169)" style="fill: #ff7f0e; fill-opacity: 0.5; stroke: #000000; stroke-width: 0.36478; stroke-linejoin: miter"/>
   </g>
   <g id="patch_52">
    <path d="M 252.575117 307.584 
L 256.222921 307.584 
L 256.222921 303.895684 
L 252.575117 303.895684 
z
" clip-path="url(#pe7c9443169)" style="fill: #ff7f0e; fill-opacity: 0.5; stroke: #000000; stroke-width: 0.36478; stroke-linejoin: miter"/>
   </g>
   <g id="patch_53">
    <path d="M 256.222921 307.584 
L 259.870725 307.584 
L 259.870725 305.21294 
L 256.222921 305.21294 
z
" clip-path="url(#pe7c9443169)" style="fill: #ff7f0e; fill-opacity: 0.5; stroke: #000000; stroke-width: 0.36478; stroke-linejoin: miter"/>
   </g>
   <g id="patch_54">
    <path d="M 259.870725 307.584 
L 263.518529 307.584 
L 263.518529 302.841879 
L 259.870725 302.841879 
z
" clip-path="url(#pe7c9443169)" style="fill: #ff7f0e; fill-opacity: 0.5; stroke: #000000; stroke-width: 0.36478; stroke-linejoin: miter"/>
   </g>
   <g id="patch_55">
    <path d="M 263.518529 307.584 
L 267.166333 307.584 
L 267.166333 302.841879 
L 263.518529 302.841879 
z
" clip-path="url(#pe7c9443169)" style="fill: #ff7f0e; fill-opacity: 0.5; stroke: #000000; stroke-width: 0.36478; stroke-linejoin: miter"/>
   </g>
   <g id="patch_56">
    <path d="M 267.166333 307.584 
L 270.814137 307.584 
L 270.814137 302.841879 
L 267.166333 302.841879 
z
" clip-path="url(#pe7c9443169)" style="fill: #ff7f0e; fill-opacity: 0.5; stroke: #000000; stroke-width: 0.36478; stroke-linejoin: miter"/>
   </g>
   <g id="patch_57">
    <path d="M 270.814137 307.584 
L 274.461941 307.584 
L 274.461941 303.895684 
L 270.814137 303.895684 
z
" clip-path="url(#pe7c9443169)" style="fill: #ff7f0e; fill-opacity: 0.5; stroke: #000000; stroke-width: 0.36478; stroke-linejoin: miter"/>
   </g>
   <g id="patch_58">
    <path d="M 274.461941 307.584 
L 278.109745 307.584 
L 278.109745 300.73427 
L 274.461941 300.73427 
z
" clip-path="url(#pe7c9443169)" style="fill: #ff7f0e; fill-opacity: 0.5; stroke: #000000; stroke-width: 0.36478; stroke-linejoin: miter"/>
   </g>
   <g id="patch_59">
    <path d="M 278.109745 307.584 
L 281.757549 307.584 
L 281.757549 302.841879 
L 278.109745 302.841879 
z
" clip-path="url(#pe7c9443169)" style="fill: #ff7f0e; fill-opacity: 0.5; stroke: #000000; stroke-width: 0.36478; stroke-linejoin: miter"/>
   </g>
   <g id="patch_60">
    <path d="M 281.757549 307.584 
L 285.405352 307.584 
L 285.405352 302.841879 
L 281.757549 302.841879 
z
" clip-path="url(#pe7c9443169)" style="fill: #ff7f0e; fill-opacity: 0.5; stroke: #000000; stroke-width: 0.36478; stroke-linejoin: miter"/>
   </g>
   <g id="patch_61">
    <path d="M 285.405352 307.584 
L 289.053156 307.584 
L 289.053156 304.422586 
L 285.405352 304.422586 
z
" clip-path="url(#pe7c9443169)" style="fill: #ff7f0e; fill-opacity: 0.5; stroke: #000000; stroke-width: 0.36478; stroke-linejoin: miter"/>
   </g>
   <g id="patch_62">
    <path d="M 289.053156 307.584 
L 292.70096 307.584 
L 292.70096 302.578428 
L 289.053156 302.578428 
z
" clip-path="url(#pe7c9443169)" style="fill: #ff7f0e; fill-opacity: 0.5; stroke: #000000; stroke-width: 0.36478; stroke-linejoin: miter"/>
   </g>
   <g id="patch_63">
    <path d="M 292.70096 307.584 
L 296.348764 307.584 
L 296.348764 303.368782 
L 292.70096 303.368782 
z
" clip-path="url(#pe7c9443169)" style="fill: #ff7f0e; fill-opacity: 0.5; stroke: #000000; stroke-width: 0.36478; stroke-linejoin: miter"/>
   </g>
   <g id="patch_64">
    <path d="M 296.348764 307.584 
L 299.996568 307.584 
L 299.996568 302.051526 
L 296.348764 302.051526 
z
" clip-path="url(#pe7c9443169)" style="fill: #ff7f0e; fill-opacity: 0.5; stroke: #000000; stroke-width: 0.36478; stroke-linejoin: miter"/>
   </g>
   <g id="patch_65">
    <path d="M 299.996568 307.584 
L 303.644372 307.584 
L 303.644372 304.422586 
L 299.996568 304.422586 
z
" clip-path="url(#pe7c9443169)" style="fill: #ff7f0e; fill-opacity: 0.5; stroke: #000000; stroke-width: 0.36478; stroke-linejoin: miter"/>
   </g>
   <g id="patch_66">
    <path d="M 303.644372 307.584 
L 307.292176 307.584 
L 307.292176 303.368782 
L 303.644372 303.368782 
z
" clip-path="url(#pe7c9443169)" style="fill: #ff7f0e; fill-opacity: 0.5; stroke: #000000; stroke-width: 0.36478; stroke-linejoin: miter"/>
   </g>
   <g id="patch_67">
    <path d="M 307.292176 307.584 
L 310.93998 307.584 
L 310.93998 303.895684 
L 307.292176 303.895684 
z
" clip-path="url(#pe7c9443169)" style="fill: #ff7f0e; fill-opacity: 0.5; stroke: #000000; stroke-width: 0.36478; stroke-linejoin: miter"/>
   </g>
   <g id="patch_68">
    <path d="M 310.93998 307.584 
L 314.587783 307.584 
L 314.587783 303.895684 
L 310.93998 303.895684 
z
" clip-path="url(#pe7c9443169)" style="fill: #ff7f0e; fill-opacity: 0.5; stroke: #000000; stroke-width: 0.36478; stroke-linejoin: miter"/>
   </g>
   <g id="patch_69">
    <path d="M 314.587783 307.584 
L 318.235587 307.584 
L 318.235587 303.105331 
L 314.587783 303.105331 
z
" clip-path="url(#pe7c9443169)" style="fill: #ff7f0e; fill-opacity: 0.5; stroke: #000000; stroke-width: 0.36478; stroke-linejoin: miter"/>
   </g>
   <g id="patch_70">
    <path d="M 318.235587 307.584 
L 321.883391 307.584 
L 321.883391 302.314977 
L 318.235587 302.314977 
z
" clip-path="url(#pe7c9443169)" style="fill: #ff7f0e; fill-opacity: 0.5; stroke: #000000; stroke-width: 0.36478; stroke-linejoin: miter"/>
   </g>
   <g id="patch_71">
    <path d="M 321.883391 307.584 
L 325.531195 307.584 
L 325.531195 304.159135 
L 321.883391 304.159135 
z
" clip-path="url(#pe7c9443169)" style="fill: #ff7f0e; fill-opacity: 0.5; stroke: #000000; stroke-width: 0.36478; stroke-linejoin: miter"/>
   </g>
   <g id="patch_72">
    <path d="M 325.531195 307.584 
L 329.178999 307.584 
L 329.178999 302.841879 
L 325.531195 302.841879 
z
" clip-path="url(#pe7c9443169)" style="fill: #ff7f0e; fill-opacity: 0.5; stroke: #000000; stroke-width: 0.36478; stroke-linejoin: miter"/>
   </g>
   <g id="patch_73">
    <path d="M 329.178999 307.584 
L 332.826803 307.584 
L 332.826803 305.476391 
L 329.178999 305.476391 
z
" clip-path="url(#pe7c9443169)" style="fill: #ff7f0e; fill-opacity: 0.5; stroke: #000000; stroke-width: 0.36478; stroke-linejoin: miter"/>
   </g>
   <g id="patch_74">
    <path d="M 332.826803 307.584 
L 336.474607 307.584 
L 336.474607 304.686037 
L 332.826803 304.686037 
z
" clip-path="url(#pe7c9443169)" style="fill: #ff7f0e; fill-opacity: 0.5; stroke: #000000; stroke-width: 0.36478; stroke-linejoin: miter"/>
   </g>
   <g id="patch_75">
    <path d="M 336.474607 307.584 
L 340.122411 307.584 
L 340.122411 304.686037 
L 336.474607 304.686037 
z
" clip-path="url(#pe7c9443169)" style="fill: #ff7f0e; fill-opacity: 0.5; stroke: #000000; stroke-width: 0.36478; stroke-linejoin: miter"/>
   </g>
   <g id="patch_76">
    <path d="M 340.122411 307.584 
L 343.770215 307.584 
L 343.770215 306.266744 
L 340.122411 306.266744 
z
" clip-path="url(#pe7c9443169)" style="fill: #ff7f0e; fill-opacity: 0.5; stroke: #000000; stroke-width: 0.36478; stroke-linejoin: miter"/>
   </g>
   <g id="patch_77">
    <path d="M 343.770215 307.584 
L 347.418018 307.584 
L 347.418018 305.476391 
L 343.770215 305.476391 
z
" clip-path="url(#pe7c9443169)" style="fill: #ff7f0e; fill-opacity: 0.5; stroke: #000000; stroke-width: 0.36478; stroke-linejoin: miter"/>
   </g>
   <g id="patch_78">
    <path d="M 347.418018 307.584 
L 351.065822 307.584 
L 351.065822 306.530195 
L 347.418018 306.530195 
z
" clip-path="url(#pe7c9443169)" style="fill: #ff7f0e; fill-opacity: 0.5; stroke: #000000; stroke-width: 0.36478; stroke-linejoin: miter"/>
   </g>
   <g id="patch_79">
    <path d="M 351.065822 307.584 
L 354.713626 307.584 
L 354.713626 306.266744 
L 351.065822 306.266744 
z
" clip-path="url(#pe7c9443169)" style="fill: #ff7f0e; fill-opacity: 0.5; stroke: #000000; stroke-width: 0.36478; stroke-linejoin: miter"/>
   </g>
   <g id="patch_80">
    <path d="M 354.713626 307.584 
L 358.36143 307.584 
L 358.36143 306.793647 
L 354.713626 306.793647 
z
" clip-path="url(#pe7c9443169)" style="fill: #ff7f0e; fill-opacity: 0.5; stroke: #000000; stroke-width: 0.36478; stroke-linejoin: miter"/>
   </g>
   <g id="patch_81">
    <path d="M 358.36143 307.584 
L 362.009234 307.584 
L 362.009234 305.476391 
L 358.36143 305.476391 
z
" clip-path="url(#pe7c9443169)" style="fill: #ff7f0e; fill-opacity: 0.5; stroke: #000000; stroke-width: 0.36478; stroke-linejoin: miter"/>
   </g>
   <g id="patch_82">
    <path d="M 362.009234 307.584 
L 365.657038 307.584 
L 365.657038 306.793647 
L 362.009234 306.793647 
z
" clip-path="url(#pe7c9443169)" style="fill: #ff7f0e; fill-opacity: 0.5; stroke: #000000; stroke-width: 0.36478; stroke-linejoin: miter"/>
   </g>
   <g id="patch_83">
    <path d="M 365.657038 307.584 
L 369.304842 307.584 
L 369.304842 307.320549 
L 365.657038 307.320549 
z
" clip-path="url(#pe7c9443169)" style="fill: #ff7f0e; fill-opacity: 0.5; stroke: #000000; stroke-width: 0.36478; stroke-linejoin: miter"/>
   </g>
   <g id="patch_84">
    <path d="M 369.304842 307.584 
L 372.952646 307.584 
L 372.952646 307.057098 
L 369.304842 307.057098 
z
" clip-path="url(#pe7c9443169)" style="fill: #ff7f0e; fill-opacity: 0.5; stroke: #000000; stroke-width: 0.36478; stroke-linejoin: miter"/>
   </g>
   <g id="patch_85">
    <path d="M 372.952646 307.584 
L 376.600449 307.584 
L 376.600449 307.584 
L 372.952646 307.584 
z
" clip-path="url(#pe7c9443169)" style="fill: #ff7f0e; fill-opacity: 0.5; stroke: #000000; stroke-width: 0.36478; stroke-linejoin: miter"/>
   </g>
   <g id="patch_86">
    <path d="M 376.600449 307.584 
L 380.248253 307.584 
L 380.248253 307.584 
L 376.600449 307.584 
z
" clip-path="url(#pe7c9443169)" style="fill: #ff7f0e; fill-opacity: 0.5; stroke: #000000; stroke-width: 0.36478; stroke-linejoin: miter"/>
   </g>
   <g id="patch_87">
    <path d="M 380.248253 307.584 
L 383.896057 307.584 
L 383.896057 307.584 
L 380.248253 307.584 
z
" clip-path="url(#pe7c9443169)" style="fill: #ff7f0e; fill-opacity: 0.5; stroke: #000000; stroke-width: 0.36478; stroke-linejoin: miter"/>
   </g>
   <g id="patch_88">
    <path d="M 383.896057 307.584 
L 387.543861 307.584 
L 387.543861 307.057098 
L 383.896057 307.057098 
z
" clip-path="url(#pe7c9443169)" style="fill: #ff7f0e; fill-opacity: 0.5; stroke: #000000; stroke-width: 0.36478; stroke-linejoin: miter"/>
   </g>
   <g id="patch_89">
    <path d="M 387.543861 307.584 
L 391.191665 307.584 
L 391.191665 307.584 
L 387.543861 307.584 
z
" clip-path="url(#pe7c9443169)" style="fill: #ff7f0e; fill-opacity: 0.5; stroke: #000000; stroke-width: 0.36478; stroke-linejoin: miter"/>
   </g>
   <g id="patch_90">
    <path d="M 391.191665 307.584 
L 394.839469 307.584 
L 394.839469 307.584 
L 391.191665 307.584 
z
" clip-path="url(#pe7c9443169)" style="fill: #ff7f0e; fill-opacity: 0.5; stroke: #000000; stroke-width: 0.36478; stroke-linejoin: miter"/>
   </g>
   <g id="patch_91">
    <path d="M 394.839469 307.584 
L 398.487273 307.584 
L 398.487273 307.584 
L 394.839469 307.584 
z
" clip-path="url(#pe7c9443169)" style="fill: #ff7f0e; fill-opacity: 0.5; stroke: #000000; stroke-width: 0.36478; stroke-linejoin: miter"/>
   </g>
   <g id="patch_92">
    <path d="M 73.832727 307.584 
L 77.480531 307.584 
L 77.480531 307.320549 
L 73.832727 307.320549 
z
" clip-path="url(#pe7c9443169)" style="fill: #1f77b4; fill-opacity: 0.5; stroke: #000000; stroke-width: 0.36478; stroke-linejoin: miter"/>
   </g>
   <g id="patch_93">
    <path d="M 77.480531 307.584 
L 81.128335 307.584 
L 81.128335 307.320549 
L 77.480531 307.320549 
z
" clip-path="url(#pe7c9443169)" style="fill: #1f77b4; fill-opacity: 0.5; stroke: #000000; stroke-width: 0.36478; stroke-linejoin: miter"/>
   </g>
   <g id="patch_94">
    <path d="M 81.128335 307.584 
L 84.776139 307.584 
L 84.776139 307.057098 
L 81.128335 307.057098 
z
" clip-path="url(#pe7c9443169)" style="fill: #1f77b4; fill-opacity: 0.5; stroke: #000000; stroke-width: 0.36478; stroke-linejoin: miter"/>
   </g>
   <g id="patch_95">
    <path d="M 84.776139 307.584 
L 88.423943 307.584 
L 88.423943 307.584 
L 84.776139 307.584 
z
" clip-path="url(#pe7c9443169)" style="fill: #1f77b4; fill-opacity: 0.5; stroke: #000000; stroke-width: 0.36478; stroke-linejoin: miter"/>
   </g>
   <g id="patch_96">
    <path d="M 88.423943 307.584 
L 92.071747 307.584 
L 92.071747 307.320549 
L 88.423943 307.320549 
z
" clip-path="url(#pe7c9443169)" style="fill: #1f77b4; fill-opacity: 0.5; stroke: #000000; stroke-width: 0.36478; stroke-linejoin: miter"/>
   </g>
   <g id="patch_97">
    <path d="M 92.071747 307.584 
L 95.719551 307.584 
L 95.719551 307.320549 
L 92.071747 307.320549 
z
" clip-path="url(#pe7c9443169)" style="fill: #1f77b4; fill-opacity: 0.5; stroke: #000000; stroke-width: 0.36478; stroke-linejoin: miter"/>
   </g>
   <g id="patch_98">
    <path d="M 95.719551 307.584 
L 99.367354 307.584 
L 99.367354 307.320549 
L 95.719551 307.320549 
z
" clip-path="url(#pe7c9443169)" style="fill: #1f77b4; fill-opacity: 0.5; stroke: #000000; stroke-width: 0.36478; stroke-linejoin: miter"/>
   </g>
   <g id="patch_99">
    <path d="M 99.367354 307.584 
L 103.015158 307.584 
L 103.015158 306.793647 
L 99.367354 306.793647 
z
" clip-path="url(#pe7c9443169)" style="fill: #1f77b4; fill-opacity: 0.5; stroke: #000000; stroke-width: 0.36478; stroke-linejoin: miter"/>
   </g>
   <g id="patch_100">
    <path d="M 103.015158 307.584 
L 106.662962 307.584 
L 106.662962 307.584 
L 103.015158 307.584 
z
" clip-path="url(#pe7c9443169)" style="fill: #1f77b4; fill-opacity: 0.5; stroke: #000000; stroke-width: 0.36478; stroke-linejoin: miter"/>
   </g>
   <g id="patch_101">
    <path d="M 106.662962 307.584 
L 110.310766 307.584 
L 110.310766 307.057098 
L 106.662962 307.057098 
z
" clip-path="url(#pe7c9443169)" style="fill: #1f77b4; fill-opacity: 0.5; stroke: #000000; stroke-width: 0.36478; stroke-linejoin: miter"/>
   </g>
   <g id="patch_102">
    <path d="M 110.310766 307.584 
L 113.95857 307.584 
L 113.95857 307.057098 
L 110.310766 307.057098 
z
" clip-path="url(#pe7c9443169)" style="fill: #1f77b4; fill-opacity: 0.5; stroke: #000000; stroke-width: 0.36478; stroke-linejoin: miter"/>
   </g>
   <g id="patch_103">
    <path d="M 113.95857 307.584 
L 117.606374 307.584 
L 117.606374 305.21294 
L 113.95857 305.21294 
z
" clip-path="url(#pe7c9443169)" style="fill: #1f77b4; fill-opacity: 0.5; stroke: #000000; stroke-width: 0.36478; stroke-linejoin: miter"/>
   </g>
   <g id="patch_104">
    <path d="M 117.606374 307.584 
L 121.254178 307.584 
L 121.254178 306.530195 
L 117.606374 306.530195 
z
" clip-path="url(#pe7c9443169)" style="fill: #1f77b4; fill-opacity: 0.5; stroke: #000000; stroke-width: 0.36478; stroke-linejoin: miter"/>
   </g>
   <g id="patch_105">
    <path d="M 121.254178 307.584 
L 124.901982 307.584 
L 124.901982 305.476391 
L 121.254178 305.476391 
z
" clip-path="url(#pe7c9443169)" style="fill: #1f77b4; fill-opacity: 0.5; stroke: #000000; stroke-width: 0.36478; stroke-linejoin: miter"/>
   </g>
   <g id="patch_106">
    <path d="M 124.901982 307.584 
L 128.549785 307.584 
L 128.549785 305.21294 
L 124.901982 305.21294 
z
" clip-path="url(#pe7c9443169)" style="fill: #1f77b4; fill-opacity: 0.5; stroke: #000000; stroke-width: 0.36478; stroke-linejoin: miter"/>
   </g>
   <g id="patch_107">
    <path d="M 128.549785 307.584 
L 132.197589 307.584 
L 132.197589 303.895684 
L 128.549785 303.895684 
z
" clip-path="url(#pe7c9443169)" style="fill: #1f77b4; fill-opacity: 0.5; stroke: #000000; stroke-width: 0.36478; stroke-linejoin: miter"/>
   </g>
   <g id="patch_108">
    <path d="M 132.197589 307.584 
L 135.845393 307.584 
L 135.845393 301.524624 
L 132.197589 301.524624 
z
" clip-path="url(#pe7c9443169)" style="fill: #1f77b4; fill-opacity: 0.5; stroke: #000000; stroke-width: 0.36478; stroke-linejoin: miter"/>
   </g>
   <g id="patch_109">
    <path d="M 135.845393 307.584 
L 139.493197 307.584 
L 139.493197 301.524624 
L 135.845393 301.524624 
z
" clip-path="url(#pe7c9443169)" style="fill: #1f77b4; fill-opacity: 0.5; stroke: #000000; stroke-width: 0.36478; stroke-linejoin: miter"/>
   </g>
   <g id="patch_110">
    <path d="M 139.493197 307.584 
L 143.141001 307.584 
L 143.141001 299.943917 
L 139.493197 299.943917 
z
" clip-path="url(#pe7c9443169)" style="fill: #1f77b4; fill-opacity: 0.5; stroke: #000000; stroke-width: 0.36478; stroke-linejoin: miter"/>
   </g>
   <g id="patch_111">
    <path d="M 143.141001 307.584 
L 146.788805 307.584 
L 146.788805 296.782503 
L 143.141001 296.782503 
z
" clip-path="url(#pe7c9443169)" style="fill: #1f77b4; fill-opacity: 0.5; stroke: #000000; stroke-width: 0.36478; stroke-linejoin: miter"/>
   </g>
   <g id="patch_112">
    <path d="M 146.788805 307.584 
L 150.436609 307.584 
L 150.436609 299.417015 
L 146.788805 299.417015 
z
" clip-path="url(#pe7c9443169)" style="fill: #1f77b4; fill-opacity: 0.5; stroke: #000000; stroke-width: 0.36478; stroke-linejoin: miter"/>
   </g>
   <g id="patch_113">
    <path d="M 150.436609 307.584 
L 154.084413 307.584 
L 154.084413 293.357638 
L 150.436609 293.357638 
z
" clip-path="url(#pe7c9443169)" style="fill: #1f77b4; fill-opacity: 0.5; stroke: #000000; stroke-width: 0.36478; stroke-linejoin: miter"/>
   </g>
   <g id="patch_114">
    <path d="M 154.084413 307.584 
L 157.732217 307.584 
L 157.732217 289.669322 
L 154.084413 289.669322 
z
" clip-path="url(#pe7c9443169)" style="fill: #1f77b4; fill-opacity: 0.5; stroke: #000000; stroke-width: 0.36478; stroke-linejoin: miter"/>
   </g>
   <g id="patch_115">
    <path d="M 157.732217 307.584 
L 161.38002 307.584 
L 161.38002 286.244457 
L 157.732217 286.244457 
z
" clip-path="url(#pe7c9443169)" style="fill: #1f77b4; fill-opacity: 0.5; stroke: #000000; stroke-width: 0.36478; stroke-linejoin: miter"/>
   </g>
   <g id="patch_116">
    <path d="M 161.38002 307.584 
L 165.027824 307.584 
L 165.027824 284.927202 
L 161.38002 284.927202 
z
" clip-path="url(#pe7c9443169)" style="fill: #1f77b4; fill-opacity: 0.5; stroke: #000000; stroke-width: 0.36478; stroke-linejoin: miter"/>
   </g>
   <g id="patch_117">
    <path d="M 165.027824 307.584 
L 168.675628 307.584 
L 168.675628 279.131277 
L 165.027824 279.131277 
z
" clip-path="url(#pe7c9443169)" style="fill: #1f77b4; fill-opacity: 0.5; stroke: #000000; stroke-width: 0.36478; stroke-linejoin: miter"/>
   </g>
   <g id="patch_118">
    <path d="M 168.675628 307.584 
L 172.323432 307.584 
L 172.323432 266.485622 
L 168.675628 266.485622 
z
" clip-path="url(#pe7c9443169)" style="fill: #1f77b4; fill-opacity: 0.5; stroke: #000000; stroke-width: 0.36478; stroke-linejoin: miter"/>
   </g>
   <g id="patch_119">
    <path d="M 172.323432 307.584 
L 175.971236 307.584 
L 175.971236 268.593231 
L 172.323432 268.593231 
z
" clip-path="url(#pe7c9443169)" style="fill: #1f77b4; fill-opacity: 0.5; stroke: #000000; stroke-width: 0.36478; stroke-linejoin: miter"/>
   </g>
   <g id="patch_120">
    <path d="M 175.971236 307.584 
L 179.61904 307.584 
L 179.61904 263.587659 
L 175.971236 263.587659 
z
" clip-path="url(#pe7c9443169)" style="fill: #1f77b4; fill-opacity: 0.5; stroke: #000000; stroke-width: 0.36478; stroke-linejoin: miter"/>
   </g>
   <g id="patch_121">
    <path d="M 179.61904 307.584 
L 183.266844 307.584 
L 183.266844 254.63032 
L 179.61904 254.63032 
z
" clip-path="url(#pe7c9443169)" style="fill: #1f77b4; fill-opacity: 0.5; stroke: #000000; stroke-width: 0.36478; stroke-linejoin: miter"/>
   </g>
   <g id="patch_122">
    <path d="M 183.266844 307.584 
L 186.914648 307.584 
L 186.914648 240.930861 
L 183.266844 240.930861 
z
" clip-path="url(#pe7c9443169)" style="fill: #1f77b4; fill-opacity: 0.5; stroke: #000000; stroke-width: 0.36478; stroke-linejoin: miter"/>
   </g>
   <g id="patch_123">
    <path d="M 186.914648 307.584 
L 190.562451 307.584 
L 190.562451 231.973522 
L 186.914648 231.973522 
z
" clip-path="url(#pe7c9443169)" style="fill: #1f77b4; fill-opacity: 0.5; stroke: #000000; stroke-width: 0.36478; stroke-linejoin: miter"/>
   </g>
   <g id="patch_124">
    <path d="M 190.562451 307.584 
L 194.210255 307.584 
L 194.210255 214.585746 
L 190.562451 214.585746 
z
" clip-path="url(#pe7c9443169)" style="fill: #1f77b4; fill-opacity: 0.5; stroke: #000000; stroke-width: 0.36478; stroke-linejoin: miter"/>
   </g>
   <g id="patch_125">
    <path d="M 194.210255 307.584 
L 197.858059 307.584 
L 197.858059 204.311152 
L 194.210255 204.311152 
z
" clip-path="url(#pe7c9443169)" style="fill: #1f77b4; fill-opacity: 0.5; stroke: #000000; stroke-width: 0.36478; stroke-linejoin: miter"/>
   </g>
   <g id="patch_126">
    <path d="M 197.858059 307.584 
L 201.505863 307.584 
L 201.505863 195.617264 
L 197.858059 195.617264 
z
" clip-path="url(#pe7c9443169)" style="fill: #1f77b4; fill-opacity: 0.5; stroke: #000000; stroke-width: 0.36478; stroke-linejoin: miter"/>
   </g>
   <g id="patch_127">
    <path d="M 201.505863 307.584 
L 205.153667 307.584 
L 205.153667 185.606121 
L 201.505863 185.606121 
z
" clip-path="url(#pe7c9443169)" style="fill: #1f77b4; fill-opacity: 0.5; stroke: #000000; stroke-width: 0.36478; stroke-linejoin: miter"/>
   </g>
   <g id="patch_128">
    <path d="M 205.153667 307.584 
L 208.801471 307.584 
L 208.801471 180.864 
L 205.153667 180.864 
z
" clip-path="url(#pe7c9443169)" style="fill: #1f77b4; fill-opacity: 0.5; stroke: #000000; stroke-width: 0.36478; stroke-linejoin: miter"/>
   </g>
   <g id="patch_129">
    <path d="M 208.801471 307.584 
L 212.449275 307.584 
L 212.449275 162.949322 
L 208.801471 162.949322 
z
" clip-path="url(#pe7c9443169)" style="fill: #1f77b4; fill-opacity: 0.5; stroke: #000000; stroke-width: 0.36478; stroke-linejoin: miter"/>
   </g>
   <g id="patch_130">
    <path d="M 212.449275 307.584 
L 216.097079 307.584 
L 216.097079 140.819426 
L 212.449275 140.819426 
z
" clip-path="url(#pe7c9443169)" style="fill: #1f77b4; fill-opacity: 0.5; stroke: #000000; stroke-width: 0.36478; stroke-linejoin: miter"/>
   </g>
   <g id="patch_131">
    <path d="M 216.097079 307.584 
L 219.744883 307.584 
L 219.744883 135.023501 
L 216.097079 135.023501 
z
" clip-path="url(#pe7c9443169)" style="fill: #1f77b4; fill-opacity: 0.5; stroke: #000000; stroke-width: 0.36478; stroke-linejoin: miter"/>
   </g>
   <g id="patch_132">
    <path d="M 219.744883 307.584 
L 223.392686 307.584 
L 223.392686 129.754478 
L 219.744883 129.754478 
z
" clip-path="url(#pe7c9443169)" style="fill: #1f77b4; fill-opacity: 0.5; stroke: #000000; stroke-width: 0.36478; stroke-linejoin: miter"/>
   </g>
   <g id="patch_133">
    <path d="M 223.392686 307.584 
L 227.04049 307.584 
L 227.04049 115.791568 
L 223.392686 115.791568 
z
" clip-path="url(#pe7c9443169)" style="fill: #1f77b4; fill-opacity: 0.5; stroke: #000000; stroke-width: 0.36478; stroke-linejoin: miter"/>
   </g>
   <g id="patch_134">
    <path d="M 227.04049 307.584 
L 230.688294 307.584 
L 230.688294 98.667243 
L 227.04049 98.667243 
z
" clip-path="url(#pe7c9443169)" style="fill: #1f77b4; fill-opacity: 0.5; stroke: #000000; stroke-width: 0.36478; stroke-linejoin: miter"/>
   </g>
   <g id="patch_135">
    <path d="M 230.688294 307.584 
L 234.336098 307.584 
L 234.336098 94.188574 
L 230.688294 94.188574 
z
" clip-path="url(#pe7c9443169)" style="fill: #1f77b4; fill-opacity: 0.5; stroke: #000000; stroke-width: 0.36478; stroke-linejoin: miter"/>
   </g>
   <g id="patch_136">
    <path d="M 234.336098 307.584 
L 237.983902 307.584 
L 237.983902 72.58558 
L 234.336098 72.58558 
z
" clip-path="url(#pe7c9443169)" style="fill: #1f77b4; fill-opacity: 0.5; stroke: #000000; stroke-width: 0.36478; stroke-linejoin: miter"/>
   </g>
   <g id="patch_137">
    <path d="M 237.983902 307.584 
L 241.631706 307.584 
L 241.631706 69.951069 
L 237.983902 69.951069 
z
" clip-path="url(#pe7c9443169)" style="fill: #1f77b4; fill-opacity: 0.5; stroke: #000000; stroke-width: 0.36478; stroke-linejoin: miter"/>
   </g>
   <g id="patch_138">
    <path d="M 241.631706 307.584 
L 245.27951 307.584 
L 245.27951 63.628241 
L 241.631706 63.628241 
z
" clip-path="url(#pe7c9443169)" style="fill: #1f77b4; fill-opacity: 0.5; stroke: #000000; stroke-width: 0.36478; stroke-linejoin: miter"/>
   </g>
   <g id="patch_139">
    <path d="M 245.27951 307.584 
L 248.927314 307.584 
L 248.927314 82.069821 
L 245.27951 82.069821 
z
" clip-path="url(#pe7c9443169)" style="fill: #1f77b4; fill-opacity: 0.5; stroke: #000000; stroke-width: 0.36478; stroke-linejoin: miter"/>
   </g>
   <g id="patch_140">
    <path d="M 248.927314 307.584 
L 252.575117 307.584 
L 252.575117 65.999301 
L 248.927314 65.999301 
z
" clip-path="url(#pe7c9443169)" style="fill: #1f77b4; fill-opacity: 0.5; stroke: #000000; stroke-width: 0.36478; stroke-linejoin: miter"/>
   </g>
   <g id="patch_141">
    <path d="M 252.575117 307.584 
L 256.222921 307.584 
L 256.222921 54.144 
L 252.575117 54.144 
z
" clip-path="url(#pe7c9443169)" style="fill: #1f77b4; fill-opacity: 0.5; stroke: #000000; stroke-width: 0.36478; stroke-linejoin: miter"/>
   </g>
   <g id="patch_142">
    <path d="M 256.222921 307.584 
L 259.870725 307.584 
L 259.870725 77.327701 
L 256.222921 77.327701 
z
" clip-path="url(#pe7c9443169)" style="fill: #1f77b4; fill-opacity: 0.5; stroke: #000000; stroke-width: 0.36478; stroke-linejoin: miter"/>
   </g>
   <g id="patch_143">
    <path d="M 259.870725 307.584 
L 263.518529 307.584 
L 263.518529 66.526204 
L 259.870725 66.526204 
z
" clip-path="url(#pe7c9443169)" style="fill: #1f77b4; fill-opacity: 0.5; stroke: #000000; stroke-width: 0.36478; stroke-linejoin: miter"/>
   </g>
   <g id="patch_144">
    <path d="M 263.518529 307.584 
L 267.166333 307.584 
L 267.166333 87.338844 
L 263.518529 87.338844 
z
" clip-path="url(#pe7c9443169)" style="fill: #1f77b4; fill-opacity: 0.5; stroke: #000000; stroke-width: 0.36478; stroke-linejoin: miter"/>
   </g>
   <g id="patch_145">
    <path d="M 267.166333 307.584 
L 270.814137 307.584 
L 270.814137 98.667243 
L 267.166333 98.667243 
z
" clip-path="url(#pe7c9443169)" style="fill: #1f77b4; fill-opacity: 0.5; stroke: #000000; stroke-width: 0.36478; stroke-linejoin: miter"/>
   </g>
   <g id="patch_146">
    <path d="M 270.814137 307.584 
L 274.461941 307.584 
L 274.461941 92.344416 
L 270.814137 92.344416 
z
" clip-path="url(#pe7c9443169)" style="fill: #1f77b4; fill-opacity: 0.5; stroke: #000000; stroke-width: 0.36478; stroke-linejoin: miter"/>
   </g>
   <g id="patch_147">
    <path d="M 274.461941 307.584 
L 278.109745 307.584 
L 278.109745 106.043875 
L 274.461941 106.043875 
z
" clip-path="url(#pe7c9443169)" style="fill: #1f77b4; fill-opacity: 0.5; stroke: #000000; stroke-width: 0.36478; stroke-linejoin: miter"/>
   </g>
   <g id="patch_148">
    <path d="M 278.109745 307.584 
L 281.757549 307.584 
L 281.757549 125.53926 
L 278.109745 125.53926 
z
" clip-path="url(#pe7c9443169)" style="fill: #1f77b4; fill-opacity: 0.5; stroke: #000000; stroke-width: 0.36478; stroke-linejoin: miter"/>
   </g>
   <g id="patch_149">
    <path d="M 281.757549 307.584 
L 285.405352 307.584 
L 285.405352 139.238719 
L 281.757549 139.238719 
z
" clip-path="url(#pe7c9443169)" style="fill: #1f77b4; fill-opacity: 0.5; stroke: #000000; stroke-width: 0.36478; stroke-linejoin: miter"/>
   </g>
   <g id="patch_150">
    <path d="M 285.405352 307.584 
L 289.053156 307.584 
L 289.053156 148.986412 
L 285.405352 148.986412 
z
" clip-path="url(#pe7c9443169)" style="fill: #1f77b4; fill-opacity: 0.5; stroke: #000000; stroke-width: 0.36478; stroke-linejoin: miter"/>
   </g>
   <g id="patch_151">
    <path d="M 289.053156 307.584 
L 292.70096 307.584 
L 292.70096 160.841713 
L 289.053156 160.841713 
z
" clip-path="url(#pe7c9443169)" style="fill: #1f77b4; fill-opacity: 0.5; stroke: #000000; stroke-width: 0.36478; stroke-linejoin: miter"/>
   </g>
   <g id="patch_152">
    <path d="M 292.70096 307.584 
L 296.348764 307.584 
L 296.348764 176.912233 
L 292.70096 176.912233 
z
" clip-path="url(#pe7c9443169)" style="fill: #1f77b4; fill-opacity: 0.5; stroke: #000000; stroke-width: 0.36478; stroke-linejoin: miter"/>
   </g>
   <g id="patch_153">
    <path d="M 296.348764 307.584 
L 299.996568 307.584 
L 299.996568 186.659925 
L 296.348764 186.659925 
z
" clip-path="url(#pe7c9443169)" style="fill: #1f77b4; fill-opacity: 0.5; stroke: #000000; stroke-width: 0.36478; stroke-linejoin: miter"/>
   </g>
   <g id="patch_154">
    <path d="M 299.996568 307.584 
L 303.644372 307.584 
L 303.644372 204.047701 
L 299.996568 204.047701 
z
" clip-path="url(#pe7c9443169)" style="fill: #1f77b4; fill-opacity: 0.5; stroke: #000000; stroke-width: 0.36478; stroke-linejoin: miter"/>
   </g>
   <g id="patch_155">
    <path d="M 303.644372 307.584 
L 307.292176 307.584 
L 307.292176 217.74716 
L 303.644372 217.74716 
z
" clip-path="url(#pe7c9443169)" style="fill: #1f77b4; fill-opacity: 0.5; stroke: #000000; stroke-width: 0.36478; stroke-linejoin: miter"/>
   </g>
   <g id="patch_156">
    <path d="M 307.292176 307.584 
L 310.93998 307.584 
L 310.93998 228.812108 
L 307.292176 228.812108 
z
" clip-path="url(#pe7c9443169)" style="fill: #1f77b4; fill-opacity: 0.5; stroke: #000000; stroke-width: 0.36478; stroke-linejoin: miter"/>
   </g>
   <g id="patch_157">
    <path d="M 310.93998 307.584 
L 314.587783 307.584 
L 314.587783 237.242545 
L 310.93998 237.242545 
z
" clip-path="url(#pe7c9443169)" style="fill: #1f77b4; fill-opacity: 0.5; stroke: #000000; stroke-width: 0.36478; stroke-linejoin: miter"/>
   </g>
   <g id="patch_158">
    <path d="M 314.587783 307.584 
L 318.235587 307.584 
L 318.235587 244.355726 
L 314.587783 244.355726 
z
" clip-path="url(#pe7c9443169)" style="fill: #1f77b4; fill-opacity: 0.5; stroke: #000000; stroke-width: 0.36478; stroke-linejoin: miter"/>
   </g>
   <g id="patch_159">
    <path d="M 318.235587 307.584 
L 321.883391 307.584 
L 321.883391 257.00138 
L 318.235587 257.00138 
z
" clip-path="url(#pe7c9443169)" style="fill: #1f77b4; fill-opacity: 0.5; stroke: #000000; stroke-width: 0.36478; stroke-linejoin: miter"/>
   </g>
   <g id="patch_160">
    <path d="M 321.883391 307.584 
L 325.531195 307.584 
L 325.531195 262.533854 
L 321.883391 262.533854 
z
" clip-path="url(#pe7c9443169)" style="fill: #1f77b4; fill-opacity: 0.5; stroke: #000000; stroke-width: 0.36478; stroke-linejoin: miter"/>
   </g>
   <g id="patch_161">
    <path d="M 325.531195 307.584 
L 329.178999 307.584 
L 329.178999 273.335351 
L 325.531195 273.335351 
z
" clip-path="url(#pe7c9443169)" style="fill: #1f77b4; fill-opacity: 0.5; stroke: #000000; stroke-width: 0.36478; stroke-linejoin: miter"/>
   </g>
   <g id="patch_162">
    <path d="M 329.178999 307.584 
L 332.826803 307.584 
L 332.826803 277.023667 
L 329.178999 277.023667 
z
" clip-path="url(#pe7c9443169)" style="fill: #1f77b4; fill-opacity: 0.5; stroke: #000000; stroke-width: 0.36478; stroke-linejoin: miter"/>
   </g>
   <g id="patch_163">
    <path d="M 332.826803 307.584 
L 336.474607 307.584 
L 336.474607 284.136848 
L 332.826803 284.136848 
z
" clip-path="url(#pe7c9443169)" style="fill: #1f77b4; fill-opacity: 0.5; stroke: #000000; stroke-width: 0.36478; stroke-linejoin: miter"/>
   </g>
   <g id="patch_164">
    <path d="M 336.474607 307.584 
L 340.122411 307.584 
L 340.122411 283.609946 
L 336.474607 283.609946 
z
" clip-path="url(#pe7c9443169)" style="fill: #1f77b4; fill-opacity: 0.5; stroke: #000000; stroke-width: 0.36478; stroke-linejoin: miter"/>
   </g>
   <g id="patch_165">
    <path d="M 340.122411 307.584 
L 343.770215 307.584 
L 343.770215 292.830736 
L 340.122411 292.830736 
z
" clip-path="url(#pe7c9443169)" style="fill: #1f77b4; fill-opacity: 0.5; stroke: #000000; stroke-width: 0.36478; stroke-linejoin: miter"/>
   </g>
   <g id="patch_166">
    <path d="M 343.770215 307.584 
L 347.418018 307.584 
L 347.418018 295.201796 
L 343.770215 295.201796 
z
" clip-path="url(#pe7c9443169)" style="fill: #1f77b4; fill-opacity: 0.5; stroke: #000000; stroke-width: 0.36478; stroke-linejoin: miter"/>
   </g>
   <g id="patch_167">
    <path d="M 347.418018 307.584 
L 351.065822 307.584 
L 351.065822 295.99215 
L 347.418018 295.99215 
z
" clip-path="url(#pe7c9443169)" style="fill: #1f77b4; fill-opacity: 0.5; stroke: #000000; stroke-width: 0.36478; stroke-linejoin: miter"/>
   </g>
   <g id="patch_168">
    <path d="M 351.065822 307.584 
L 354.713626 307.584 
L 354.713626 298.626661 
L 351.065822 298.626661 
z
" clip-path="url(#pe7c9443169)" style="fill: #1f77b4; fill-opacity: 0.5; stroke: #000000; stroke-width: 0.36478; stroke-linejoin: miter"/>
   </g>
   <g id="patch_169">
    <path d="M 354.713626 307.584 
L 358.36143 307.584 
L 358.36143 300.997721 
L 354.713626 300.997721 
z
" clip-path="url(#pe7c9443169)" style="fill: #1f77b4; fill-opacity: 0.5; stroke: #000000; stroke-width: 0.36478; stroke-linejoin: miter"/>
   </g>
   <g id="patch_170">
    <path d="M 358.36143 307.584 
L 362.009234 307.584 
L 362.009234 304.422586 
L 358.36143 304.422586 
z
" clip-path="url(#pe7c9443169)" style="fill: #1f77b4; fill-opacity: 0.5; stroke: #000000; stroke-width: 0.36478; stroke-linejoin: miter"/>
   </g>
   <g id="patch_171">
    <path d="M 362.009234 307.584 
L 365.657038 307.584 
L 365.657038 304.422586 
L 362.009234 304.422586 
z
" clip-path="url(#pe7c9443169)" style="fill: #1f77b4; fill-opacity: 0.5; stroke: #000000; stroke-width: 0.36478; stroke-linejoin: miter"/>
   </g>
   <g id="patch_172">
    <path d="M 365.657038 307.584 
L 369.304842 307.584 
L 369.304842 304.159135 
L 365.657038 304.159135 
z
" clip-path="url(#pe7c9443169)" style="fill: #1f77b4; fill-opacity: 0.5; stroke: #000000; stroke-width: 0.36478; stroke-linejoin: miter"/>
   </g>
   <g id="patch_173">
    <path d="M 369.304842 307.584 
L 372.952646 307.584 
L 372.952646 303.632233 
L 369.304842 303.632233 
z
" clip-path="url(#pe7c9443169)" style="fill: #1f77b4; fill-opacity: 0.5; stroke: #000000; stroke-width: 0.36478; stroke-linejoin: miter"/>
   </g>
   <g id="patch_174">
    <path d="M 372.952646 307.584 
L 376.600449 307.584 
L 376.600449 307.057098 
L 372.952646 307.057098 
z
" clip-path="url(#pe7c9443169)" style="fill: #1f77b4; fill-opacity: 0.5; stroke: #000000; stroke-width: 0.36478; stroke-linejoin: miter"/>
   </g>
   <g id="patch_175">
    <path d="M 376.600449 307.584 
L 380.248253 307.584 
L 380.248253 307.057098 
L 376.600449 307.057098 
z
" clip-path="url(#pe7c9443169)" style="fill: #1f77b4; fill-opacity: 0.5; stroke: #000000; stroke-width: 0.36478; stroke-linejoin: miter"/>
   </g>
   <g id="patch_176">
    <path d="M 380.248253 307.584 
L 383.896057 307.584 
L 383.896057 306.793647 
L 380.248253 306.793647 
z
" clip-path="url(#pe7c9443169)" style="fill: #1f77b4; fill-opacity: 0.5; stroke: #000000; stroke-width: 0.36478; stroke-linejoin: miter"/>
   </g>
   <g id="patch_177">
    <path d="M 383.896057 307.584 
L 387.543861 307.584 
L 387.543861 306.793647 
L 383.896057 306.793647 
z
" clip-path="url(#pe7c9443169)" style="fill: #1f77b4; fill-opacity: 0.5; stroke: #000000; stroke-width: 0.36478; stroke-linejoin: miter"/>
   </g>
   <g id="patch_178">
    <path d="M 387.543861 307.584 
L 391.191665 307.584 
L 391.191665 307.057098 
L 387.543861 307.057098 
z
" clip-path="url(#pe7c9443169)" style="fill: #1f77b4; fill-opacity: 0.5; stroke: #000000; stroke-width: 0.36478; stroke-linejoin: miter"/>
   </g>
   <g id="patch_179">
    <path d="M 391.191665 307.584 
L 394.839469 307.584 
L 394.839469 307.320549 
L 391.191665 307.320549 
z
" clip-path="url(#pe7c9443169)" style="fill: #1f77b4; fill-opacity: 0.5; stroke: #000000; stroke-width: 0.36478; stroke-linejoin: miter"/>
   </g>
   <g id="patch_180">
    <path d="M 394.839469 307.584 
L 398.487273 307.584 
L 398.487273 307.057098 
L 394.839469 307.057098 
z
" clip-path="url(#pe7c9443169)" style="fill: #1f77b4; fill-opacity: 0.5; stroke: #000000; stroke-width: 0.36478; stroke-linejoin: miter"/>
   </g>
   <g id="matplotlib.axis_1">
    <g id="xtick_1">
     <g id="line2d_1">
      <defs>
       <path id="md82b4f488f" d="M 0 0 
L 0 3.5 
" style="stroke: #000000; stroke-width: 0.8"/>
      </defs>
      <g>
       <use xlink:href="#md82b4f488f" x="130.747563" y="307.584" style="stroke: #000000; stroke-width: 0.8"/>
      </g>
     </g>
     <g id="text_1">
      <!-- 0.890 -->
      <g transform="translate(116.4335 322.182437) scale(0.1 -0.1)">
       <defs>
        <path id="DejaVuSans-30" d="M 2034 4250 
Q 1547 4250 1301 3770 
Q 1056 3291 1056 2328 
Q 1056 1369 1301 889 
Q 1547 409 2034 409 
Q 2525 409 2770 889 
Q 3016 1369 3016 2328 
Q 3016 3291 2770 3770 
Q 2525 4250 2034 4250 
z
M 2034 4750 
Q 2819 4750 3233 4129 
Q 3647 3509 3647 2328 
Q 3647 1150 3233 529 
Q 2819 -91 2034 -91 
Q 1250 -91 836 529 
Q 422 1150 422 2328 
Q 422 3509 836 4129 
Q 1250 4750 2034 4750 
z
" transform="scale(0.015625)"/>
        <path id="DejaVuSans-2e" d="M 684 794 
L 1344 794 
L 1344 0 
L 684 0 
L 684 794 
z
" transform="scale(0.015625)"/>
        <path id="DejaVuSans-38" d="M 2034 2216 
Q 1584 2216 1326 1975 
Q 1069 1734 1069 1313 
Q 1069 891 1326 650 
Q 1584 409 2034 409 
Q 2484 409 2743 651 
Q 3003 894 3003 1313 
Q 3003 1734 2745 1975 
Q 2488 2216 2034 2216 
z
M 1403 2484 
Q 997 2584 770 2862 
Q 544 3141 544 3541 
Q 544 4100 942 4425 
Q 1341 4750 2034 4750 
Q 2731 4750 3128 4425 
Q 3525 4100 3525 3541 
Q 3525 3141 3298 2862 
Q 3072 2584 2669 2484 
Q 3125 2378 3379 2068 
Q 3634 1759 3634 1313 
Q 3634 634 3220 271 
Q 2806 -91 2034 -91 
Q 1263 -91 848 271 
Q 434 634 434 1313 
Q 434 1759 690 2068 
Q 947 2378 1403 2484 
z
M 1172 3481 
Q 1172 3119 1398 2916 
Q 1625 2713 2034 2713 
Q 2441 2713 2670 2916 
Q 2900 3119 2900 3481 
Q 2900 3844 2670 4047 
Q 2441 4250 2034 4250 
Q 1625 4250 1398 4047 
Q 1172 3844 1172 3481 
z
" transform="scale(0.015625)"/>
        <path id="DejaVuSans-39" d="M 703 97 
L 703 672 
Q 941 559 1184 500 
Q 1428 441 1663 441 
Q 2288 441 2617 861 
Q 2947 1281 2994 2138 
Q 2813 1869 2534 1725 
Q 2256 1581 1919 1581 
Q 1219 1581 811 2004 
Q 403 2428 403 3163 
Q 403 3881 828 4315 
Q 1253 4750 1959 4750 
Q 2769 4750 3195 4129 
Q 3622 3509 3622 2328 
Q 3622 1225 3098 567 
Q 2575 -91 1691 -91 
Q 1453 -91 1209 -44 
Q 966 3 703 97 
z
M 1959 2075 
Q 2384 2075 2632 2365 
Q 2881 2656 2881 3163 
Q 2881 3666 2632 3958 
Q 2384 4250 1959 4250 
Q 1534 4250 1286 3958 
Q 1038 3666 1038 3163 
Q 1038 2656 1286 2365 
Q 1534 2075 1959 2075 
z
" transform="scale(0.015625)"/>
       </defs>
       <use xlink:href="#DejaVuSans-30"/>
       <use xlink:href="#DejaVuSans-2e" x="63.623047"/>
       <use xlink:href="#DejaVuSans-38" x="95.410156"/>
       <use xlink:href="#DejaVuSans-39" x="159.033203"/>
       <use xlink:href="#DejaVuSans-30" x="222.65625"/>
      </g>
     </g>
    </g>
    <g id="xtick_2">
     <g id="line2d_2">
      <g>
       <use xlink:href="#md82b4f488f" x="203.91122" y="307.584" style="stroke: #000000; stroke-width: 0.8"/>
      </g>
     </g>
     <g id="text_2">
      <!-- 0.895 -->
      <g transform="translate(189.597158 322.182437) scale(0.1 -0.1)">
       <defs>
        <path id="DejaVuSans-35" d="M 691 4666 
L 3169 4666 
L 3169 4134 
L 1269 4134 
L 1269 2991 
Q 1406 3038 1543 3061 
Q 1681 3084 1819 3084 
Q 2600 3084 3056 2656 
Q 3513 2228 3513 1497 
Q 3513 744 3044 326 
Q 2575 -91 1722 -91 
Q 1428 -91 1123 -41 
Q 819 9 494 109 
L 494 744 
Q 775 591 1075 516 
Q 1375 441 1709 441 
Q 2250 441 2565 725 
Q 2881 1009 2881 1497 
Q 2881 1984 2565 2268 
Q 2250 2553 1709 2553 
Q 1456 2553 1204 2497 
Q 953 2441 691 2322 
L 691 4666 
z
" transform="scale(0.015625)"/>
       </defs>
       <use xlink:href="#DejaVuSans-30"/>
       <use xlink:href="#DejaVuSans-2e" x="63.623047"/>
       <use xlink:href="#DejaVuSans-38" x="95.410156"/>
       <use xlink:href="#DejaVuSans-39" x="159.033203"/>
       <use xlink:href="#DejaVuSans-35" x="222.65625"/>
      </g>
     </g>
    </g>
    <g id="xtick_3">
     <g id="line2d_3">
      <g>
       <use xlink:href="#md82b4f488f" x="277.074878" y="307.584" style="stroke: #000000; stroke-width: 0.8"/>
      </g>
     </g>
     <g id="text_3">
      <!-- 0.900 -->
      <g transform="translate(262.760815 322.182437) scale(0.1 -0.1)">
       <use xlink:href="#DejaVuSans-30"/>
       <use xlink:href="#DejaVuSans-2e" x="63.623047"/>
       <use xlink:href="#DejaVuSans-39" x="95.410156"/>
       <use xlink:href="#DejaVuSans-30" x="159.033203"/>
       <use xlink:href="#DejaVuSans-30" x="222.65625"/>
      </g>
     </g>
    </g>
    <g id="xtick_4">
     <g id="line2d_4">
      <g>
       <use xlink:href="#md82b4f488f" x="350.238535" y="307.584" style="stroke: #000000; stroke-width: 0.8"/>
      </g>
     </g>
     <g id="text_4">
      <!-- 0.905 -->
      <g transform="translate(335.924473 322.182437) scale(0.1 -0.1)">
       <use xlink:href="#DejaVuSans-30"/>
       <use xlink:href="#DejaVuSans-2e" x="63.623047"/>
       <use xlink:href="#DejaVuSans-39" x="95.410156"/>
       <use xlink:href="#DejaVuSans-30" x="159.033203"/>
       <use xlink:href="#DejaVuSans-35" x="222.65625"/>
      </g>
     </g>
    </g>
   </g>
   <g id="matplotlib.axis_2">
    <g id="ytick_1">
     <g id="line2d_5">
      <defs>
       <path id="m48174f35ee" d="M 0 0 
L -3.5 0 
" style="stroke: #000000; stroke-width: 0.8"/>
      </defs>
      <g>
       <use xlink:href="#m48174f35ee" x="57.6" y="307.584" style="stroke: #000000; stroke-width: 0.8"/>
      </g>
     </g>
     <g id="text_5">
      <!-- 0 -->
      <g transform="translate(44.2375 311.383219) scale(0.1 -0.1)">
       <use xlink:href="#DejaVuSans-30"/>
      </g>
     </g>
    </g>
    <g id="ytick_2">
     <g id="line2d_6">
      <g>
       <use xlink:href="#m48174f35ee" x="57.6" y="254.893771" style="stroke: #000000; stroke-width: 0.8"/>
      </g>
     </g>
     <g id="text_6">
      <!-- 200 -->
      <g transform="translate(31.5125 258.69299) scale(0.1 -0.1)">
       <defs>
        <path id="DejaVuSans-32" d="M 1228 531 
L 3431 531 
L 3431 0 
L 469 0 
L 469 531 
Q 828 903 1448 1529 
Q 2069 2156 2228 2338 
Q 2531 2678 2651 2914 
Q 2772 3150 2772 3378 
Q 2772 3750 2511 3984 
Q 2250 4219 1831 4219 
Q 1534 4219 1204 4116 
Q 875 4013 500 3803 
L 500 4441 
Q 881 4594 1212 4672 
Q 1544 4750 1819 4750 
Q 2544 4750 2975 4387 
Q 3406 4025 3406 3419 
Q 3406 3131 3298 2873 
Q 3191 2616 2906 2266 
Q 2828 2175 2409 1742 
Q 1991 1309 1228 531 
z
" transform="scale(0.015625)"/>
       </defs>
       <use xlink:href="#DejaVuSans-32"/>
       <use xlink:href="#DejaVuSans-30" x="63.623047"/>
       <use xlink:href="#DejaVuSans-30" x="127.246094"/>
      </g>
     </g>
    </g>
    <g id="ytick_3">
     <g id="line2d_7">
      <g>
       <use xlink:href="#m48174f35ee" x="57.6" y="202.203543" style="stroke: #000000; stroke-width: 0.8"/>
      </g>
     </g>
     <g id="text_7">
      <!-- 400 -->
      <g transform="translate(31.5125 206.002761) scale(0.1 -0.1)">
       <defs>
        <path id="DejaVuSans-34" d="M 2419 4116 
L 825 1625 
L 2419 1625 
L 2419 4116 
z
M 2253 4666 
L 3047 4666 
L 3047 1625 
L 3713 1625 
L 3713 1100 
L 3047 1100 
L 3047 0 
L 2419 0 
L 2419 1100 
L 313 1100 
L 313 1709 
L 2253 4666 
z
" transform="scale(0.015625)"/>
       </defs>
       <use xlink:href="#DejaVuSans-34"/>
       <use xlink:href="#DejaVuSans-30" x="63.623047"/>
       <use xlink:href="#DejaVuSans-30" x="127.246094"/>
      </g>
     </g>
    </g>
    <g id="ytick_4">
     <g id="line2d_8">
      <g>
       <use xlink:href="#m48174f35ee" x="57.6" y="149.513314" style="stroke: #000000; stroke-width: 0.8"/>
      </g>
     </g>
     <g id="text_8">
      <!-- 600 -->
      <g transform="translate(31.5125 153.312533) scale(0.1 -0.1)">
       <defs>
        <path id="DejaVuSans-36" d="M 2113 2584 
Q 1688 2584 1439 2293 
Q 1191 2003 1191 1497 
Q 1191 994 1439 701 
Q 1688 409 2113 409 
Q 2538 409 2786 701 
Q 3034 994 3034 1497 
Q 3034 2003 2786 2293 
Q 2538 2584 2113 2584 
z
M 3366 4563 
L 3366 3988 
Q 3128 4100 2886 4159 
Q 2644 4219 2406 4219 
Q 1781 4219 1451 3797 
Q 1122 3375 1075 2522 
Q 1259 2794 1537 2939 
Q 1816 3084 2150 3084 
Q 2853 3084 3261 2657 
Q 3669 2231 3669 1497 
Q 3669 778 3244 343 
Q 2819 -91 2113 -91 
Q 1303 -91 875 529 
Q 447 1150 447 2328 
Q 447 3434 972 4092 
Q 1497 4750 2381 4750 
Q 2619 4750 2861 4703 
Q 3103 4656 3366 4563 
z
" transform="scale(0.015625)"/>
       </defs>
       <use xlink:href="#DejaVuSans-36"/>
       <use xlink:href="#DejaVuSans-30" x="63.623047"/>
       <use xlink:href="#DejaVuSans-30" x="127.246094"/>
      </g>
     </g>
    </g>
    <g id="ytick_5">
     <g id="line2d_9">
      <g>
       <use xlink:href="#m48174f35ee" x="57.6" y="96.823085" style="stroke: #000000; stroke-width: 0.8"/>
      </g>
     </g>
     <g id="text_9">
      <!-- 800 -->
      <g transform="translate(31.5125 100.622304) scale(0.1 -0.1)">
       <use xlink:href="#DejaVuSans-38"/>
       <use xlink:href="#DejaVuSans-30" x="63.623047"/>
       <use xlink:href="#DejaVuSans-30" x="127.246094"/>
      </g>
     </g>
    </g>
    <g id="ytick_6">
     <g id="line2d_10">
      <g>
       <use xlink:href="#m48174f35ee" x="57.6" y="44.132857" style="stroke: #000000; stroke-width: 0.8"/>
      </g>
     </g>
     <g id="text_10">
      <!-- 1000 -->
      <g transform="translate(25.15 47.932075) scale(0.1 -0.1)">
       <defs>
        <path id="DejaVuSans-31" d="M 794 531 
L 1825 531 
L 1825 4091 
L 703 3866 
L 703 4441 
L 1819 4666 
L 2450 4666 
L 2450 531 
L 3481 531 
L 3481 0 
L 794 0 
L 794 531 
z
" transform="scale(0.015625)"/>
       </defs>
       <use xlink:href="#DejaVuSans-31"/>
       <use xlink:href="#DejaVuSans-30" x="63.623047"/>
       <use xlink:href="#DejaVuSans-30" x="127.246094"/>
       <use xlink:href="#DejaVuSans-30" x="190.869141"/>
      </g>
     </g>
    </g>
    <g id="text_11">
     <!-- Count -->
     <g transform="translate(19.070312 189.376437) rotate(-90) scale(0.1 -0.1)">
      <defs>
       <path id="DejaVuSans-43" d="M 4122 4306 
L 4122 3641 
Q 3803 3938 3442 4084 
Q 3081 4231 2675 4231 
Q 1875 4231 1450 3742 
Q 1025 3253 1025 2328 
Q 1025 1406 1450 917 
Q 1875 428 2675 428 
Q 3081 428 3442 575 
Q 3803 722 4122 1019 
L 4122 359 
Q 3791 134 3420 21 
Q 3050 -91 2638 -91 
Q 1578 -91 968 557 
Q 359 1206 359 2328 
Q 359 3453 968 4101 
Q 1578 4750 2638 4750 
Q 3056 4750 3426 4639 
Q 3797 4528 4122 4306 
z
" transform="scale(0.015625)"/>
       <path id="DejaVuSans-6f" d="M 1959 3097 
Q 1497 3097 1228 2736 
Q 959 2375 959 1747 
Q 959 1119 1226 758 
Q 1494 397 1959 397 
Q 2419 397 2687 759 
Q 2956 1122 2956 1747 
Q 2956 2369 2687 2733 
Q 2419 3097 1959 3097 
z
M 1959 3584 
Q 2709 3584 3137 3096 
Q 3566 2609 3566 1747 
Q 3566 888 3137 398 
Q 2709 -91 1959 -91 
Q 1206 -91 779 398 
Q 353 888 353 1747 
Q 353 2609 779 3096 
Q 1206 3584 1959 3584 
z
" transform="scale(0.015625)"/>
       <path id="DejaVuSans-75" d="M 544 1381 
L 544 3500 
L 1119 3500 
L 1119 1403 
Q 1119 906 1312 657 
Q 1506 409 1894 409 
Q 2359 409 2629 706 
Q 2900 1003 2900 1516 
L 2900 3500 
L 3475 3500 
L 3475 0 
L 2900 0 
L 2900 538 
Q 2691 219 2414 64 
Q 2138 -91 1772 -91 
Q 1169 -91 856 284 
Q 544 659 544 1381 
z
M 1991 3584 
L 1991 3584 
z
" transform="scale(0.015625)"/>
       <path id="DejaVuSans-6e" d="M 3513 2113 
L 3513 0 
L 2938 0 
L 2938 2094 
Q 2938 2591 2744 2837 
Q 2550 3084 2163 3084 
Q 1697 3084 1428 2787 
Q 1159 2491 1159 1978 
L 1159 0 
L 581 0 
L 581 3500 
L 1159 3500 
L 1159 2956 
Q 1366 3272 1645 3428 
Q 1925 3584 2291 3584 
Q 2894 3584 3203 3211 
Q 3513 2838 3513 2113 
z
" transform="scale(0.015625)"/>
       <path id="DejaVuSans-74" d="M 1172 4494 
L 1172 3500 
L 2356 3500 
L 2356 3053 
L 1172 3053 
L 1172 1153 
Q 1172 725 1289 603 
Q 1406 481 1766 481 
L 2356 481 
L 2356 0 
L 1766 0 
Q 1100 0 847 248 
Q 594 497 594 1153 
L 594 3053 
L 172 3053 
L 172 3500 
L 594 3500 
L 594 4494 
L 1172 4494 
z
" transform="scale(0.015625)"/>
      </defs>
      <use xlink:href="#DejaVuSans-43"/>
      <use xlink:href="#DejaVuSans-6f" x="69.824219"/>
      <use xlink:href="#DejaVuSans-75" x="131.005859"/>
      <use xlink:href="#DejaVuSans-6e" x="194.384766"/>
      <use xlink:href="#DejaVuSans-74" x="257.763672"/>
     </g>
    </g>
   </g>
   <g id="line2d_11">
    <path d="M 73.832727 307.584 
L 161.929941 307.477161 
L 204.347117 306.9987 
L 223.924276 306.541897 
L 232.081425 306.117289 
L 243.501434 305.262916 
L 267.972883 303.258797 
L 274.498602 302.988063 
L 281.024322 302.922602 
L 290.812901 303.081467 
L 323.441498 303.933317 
L 331.598648 304.530381 
L 349.544376 305.958736 
L 362.595815 306.675501 
L 375.647254 307.219501 
L 387.067264 307.452185 
L 398.487273 307.541232 
L 398.487273 307.541232 
" clip-path="url(#pe7c9443169)" style="fill: none; stroke: #ff7f0e; stroke-width: 1.5; stroke-linecap: square"/>
   </g>
   <g id="line2d_12">
    <path d="M 73.832727 307.405998 
L 81.989877 307.334374 
L 95.041316 307.307707 
L 106.461325 307.004436 
L 111.355614 306.673368 
L 119.512764 305.83645 
L 122.775624 305.385116 
L 126.038483 304.750913 
L 129.301343 303.903871 
L 134.195633 302.288689 
L 140.721352 299.837415 
L 143.984212 298.442356 
L 147.247072 296.741591 
L 148.878502 295.715081 
L 152.141361 293.269478 
L 155.404221 290.439264 
L 158.667081 287.362123 
L 160.298511 285.676461 
L 161.929941 283.828035 
L 163.56137 281.781836 
L 166.82423 277.14945 
L 176.61281 262.352571 
L 178.244239 259.311968 
L 179.875669 255.794989 
L 181.507099 251.776241 
L 183.138529 247.305985 
L 186.401389 237.402315 
L 192.927108 216.053265 
L 196.189968 205.68512 
L 199.452828 196.158058 
L 204.347117 182.513647 
L 205.978547 177.537148 
L 209.241407 166.399019 
L 214.135697 148.64034 
L 217.398556 138.046117 
L 223.924276 118.386274 
L 227.187136 107.681909 
L 232.081425 91.575747 
L 233.712855 86.767182 
L 235.344285 82.486948 
L 236.975715 78.857181 
L 238.607145 75.95801 
L 240.238575 73.799751 
L 241.870005 72.295647 
L 243.501434 71.257746 
L 248.395724 68.71584 
L 250.027154 67.816102 
L 251.658584 67.165949 
L 253.290014 67.05169 
L 254.921444 67.67752 
L 256.552873 69.093411 
L 258.184303 71.206221 
L 259.815733 73.848421 
L 263.078593 80.066704 
L 269.604312 93.547904 
L 271.235742 97.182614 
L 272.867172 101.198116 
L 274.498602 105.734033 
L 276.130032 110.825907 
L 279.392892 122.215099 
L 282.655751 133.878965 
L 287.550041 150.213777 
L 290.812901 161.297303 
L 294.075761 173.30624 
L 302.23291 204.337358 
L 305.49577 215.345488 
L 308.75863 225.24654 
L 312.021489 234.448255 
L 315.284349 243.223384 
L 318.547209 251.486705 
L 321.810069 259.096911 
L 325.072928 266.08371 
L 328.335788 272.361753 
L 329.967218 275.14197 
L 331.598648 277.653182 
L 334.861508 282.006628 
L 339.755797 287.868068 
L 343.018657 291.503458 
L 344.650087 293.088684 
L 346.281517 294.474341 
L 349.544376 296.759623 
L 354.438666 299.718268 
L 357.701526 301.506079 
L 359.332956 302.262367 
L 360.964386 302.89416 
L 364.227245 303.790571 
L 378.910114 306.521072 
L 382.172974 306.809696 
L 390.330123 307.114489 
L 398.487273 307.375403 
L 398.487273 307.375403 
" clip-path="url(#pe7c9443169)" style="fill: none; stroke: #1f77b4; stroke-width: 1.5; stroke-linecap: square"/>
   </g>
   <g id="patch_181">
    <path d="M 57.6 307.584 
L 57.6 41.472 
" style="fill: none; stroke: #000000; stroke-width: 0.8; stroke-linejoin: miter; stroke-linecap: square"/>
   </g>
   <g id="patch_182">
    <path d="M 414.72 307.584 
L 414.72 41.472 
" style="fill: none; stroke: #000000; stroke-width: 0.8; stroke-linejoin: miter; stroke-linecap: square"/>
   </g>
   <g id="patch_183">
    <path d="M 57.6 307.584 
L 414.72 307.584 
" style="fill: none; stroke: #000000; stroke-width: 0.8; stroke-linejoin: miter; stroke-linecap: square"/>
   </g>
   <g id="patch_184">
    <path d="M 57.6 41.472 
L 414.72 41.472 
" style="fill: none; stroke: #000000; stroke-width: 0.8; stroke-linejoin: miter; stroke-linecap: square"/>
   </g>
   <g id="legend_1">
    <g id="patch_185">
     <path d="M 64.6 79.3845 
L 208.773438 79.3845 
Q 210.773438 79.3845 210.773438 77.3845 
L 210.773438 48.472 
Q 210.773438 46.472 208.773438 46.472 
L 64.6 46.472 
Q 62.6 46.472 62.6 48.472 
L 62.6 77.3845 
Q 62.6 79.3845 64.6 79.3845 
z
" style="fill: #ffffff; opacity: 0.8; stroke: #cccccc; stroke-linejoin: miter"/>
    </g>
    <g id="patch_186">
     <path d="M 66.6 58.070438 
L 86.6 58.070438 
L 86.6 51.070438 
L 66.6 51.070438 
z
" style="fill: #1f77b4; fill-opacity: 0.5; stroke: #000000; stroke-linejoin: miter"/>
    </g>
    <g id="text_12">
     <!-- perfect_match = False -->
     <g transform="translate(94.6 58.070438) scale(0.1 -0.1)">
      <defs>
       <path id="DejaVuSans-70" d="M 1159 525 
L 1159 -1331 
L 581 -1331 
L 581 3500 
L 1159 3500 
L 1159 2969 
Q 1341 3281 1617 3432 
Q 1894 3584 2278 3584 
Q 2916 3584 3314 3078 
Q 3713 2572 3713 1747 
Q 3713 922 3314 415 
Q 2916 -91 2278 -91 
Q 1894 -91 1617 61 
Q 1341 213 1159 525 
z
M 3116 1747 
Q 3116 2381 2855 2742 
Q 2594 3103 2138 3103 
Q 1681 3103 1420 2742 
Q 1159 2381 1159 1747 
Q 1159 1113 1420 752 
Q 1681 391 2138 391 
Q 2594 391 2855 752 
Q 3116 1113 3116 1747 
z
" transform="scale(0.015625)"/>
       <path id="DejaVuSans-65" d="M 3597 1894 
L 3597 1613 
L 953 1613 
Q 991 1019 1311 708 
Q 1631 397 2203 397 
Q 2534 397 2845 478 
Q 3156 559 3463 722 
L 3463 178 
Q 3153 47 2828 -22 
Q 2503 -91 2169 -91 
Q 1331 -91 842 396 
Q 353 884 353 1716 
Q 353 2575 817 3079 
Q 1281 3584 2069 3584 
Q 2775 3584 3186 3129 
Q 3597 2675 3597 1894 
z
M 3022 2063 
Q 3016 2534 2758 2815 
Q 2500 3097 2075 3097 
Q 1594 3097 1305 2825 
Q 1016 2553 972 2059 
L 3022 2063 
z
" transform="scale(0.015625)"/>
       <path id="DejaVuSans-72" d="M 2631 2963 
Q 2534 3019 2420 3045 
Q 2306 3072 2169 3072 
Q 1681 3072 1420 2755 
Q 1159 2438 1159 1844 
L 1159 0 
L 581 0 
L 581 3500 
L 1159 3500 
L 1159 2956 
Q 1341 3275 1631 3429 
Q 1922 3584 2338 3584 
Q 2397 3584 2469 3576 
Q 2541 3569 2628 3553 
L 2631 2963 
z
" transform="scale(0.015625)"/>
       <path id="DejaVuSans-66" d="M 2375 4863 
L 2375 4384 
L 1825 4384 
Q 1516 4384 1395 4259 
Q 1275 4134 1275 3809 
L 1275 3500 
L 2222 3500 
L 2222 3053 
L 1275 3053 
L 1275 0 
L 697 0 
L 697 3053 
L 147 3053 
L 147 3500 
L 697 3500 
L 697 3744 
Q 697 4328 969 4595 
Q 1241 4863 1831 4863 
L 2375 4863 
z
" transform="scale(0.015625)"/>
       <path id="DejaVuSans-63" d="M 3122 3366 
L 3122 2828 
Q 2878 2963 2633 3030 
Q 2388 3097 2138 3097 
Q 1578 3097 1268 2742 
Q 959 2388 959 1747 
Q 959 1106 1268 751 
Q 1578 397 2138 397 
Q 2388 397 2633 464 
Q 2878 531 3122 666 
L 3122 134 
Q 2881 22 2623 -34 
Q 2366 -91 2075 -91 
Q 1284 -91 818 406 
Q 353 903 353 1747 
Q 353 2603 823 3093 
Q 1294 3584 2113 3584 
Q 2378 3584 2631 3529 
Q 2884 3475 3122 3366 
z
" transform="scale(0.015625)"/>
       <path id="DejaVuSans-5f" d="M 3263 -1063 
L 3263 -1509 
L -63 -1509 
L -63 -1063 
L 3263 -1063 
z
" transform="scale(0.015625)"/>
       <path id="DejaVuSans-6d" d="M 3328 2828 
Q 3544 3216 3844 3400 
Q 4144 3584 4550 3584 
Q 5097 3584 5394 3201 
Q 5691 2819 5691 2113 
L 5691 0 
L 5113 0 
L 5113 2094 
Q 5113 2597 4934 2840 
Q 4756 3084 4391 3084 
Q 3944 3084 3684 2787 
Q 3425 2491 3425 1978 
L 3425 0 
L 2847 0 
L 2847 2094 
Q 2847 2600 2669 2842 
Q 2491 3084 2119 3084 
Q 1678 3084 1418 2786 
Q 1159 2488 1159 1978 
L 1159 0 
L 581 0 
L 581 3500 
L 1159 3500 
L 1159 2956 
Q 1356 3278 1631 3431 
Q 1906 3584 2284 3584 
Q 2666 3584 2933 3390 
Q 3200 3197 3328 2828 
z
" transform="scale(0.015625)"/>
       <path id="DejaVuSans-61" d="M 2194 1759 
Q 1497 1759 1228 1600 
Q 959 1441 959 1056 
Q 959 750 1161 570 
Q 1363 391 1709 391 
Q 2188 391 2477 730 
Q 2766 1069 2766 1631 
L 2766 1759 
L 2194 1759 
z
M 3341 1997 
L 3341 0 
L 2766 0 
L 2766 531 
Q 2569 213 2275 61 
Q 1981 -91 1556 -91 
Q 1019 -91 701 211 
Q 384 513 384 1019 
Q 384 1609 779 1909 
Q 1175 2209 1959 2209 
L 2766 2209 
L 2766 2266 
Q 2766 2663 2505 2880 
Q 2244 3097 1772 3097 
Q 1472 3097 1187 3025 
Q 903 2953 641 2809 
L 641 3341 
Q 956 3463 1253 3523 
Q 1550 3584 1831 3584 
Q 2591 3584 2966 3190 
Q 3341 2797 3341 1997 
z
" transform="scale(0.015625)"/>
       <path id="DejaVuSans-68" d="M 3513 2113 
L 3513 0 
L 2938 0 
L 2938 2094 
Q 2938 2591 2744 2837 
Q 2550 3084 2163 3084 
Q 1697 3084 1428 2787 
Q 1159 2491 1159 1978 
L 1159 0 
L 581 0 
L 581 4863 
L 1159 4863 
L 1159 2956 
Q 1366 3272 1645 3428 
Q 1925 3584 2291 3584 
Q 2894 3584 3203 3211 
Q 3513 2838 3513 2113 
z
" transform="scale(0.015625)"/>
       <path id="DejaVuSans-20" transform="scale(0.015625)"/>
       <path id="DejaVuSans-3d" d="M 678 2906 
L 4684 2906 
L 4684 2381 
L 678 2381 
L 678 2906 
z
M 678 1631 
L 4684 1631 
L 4684 1100 
L 678 1100 
L 678 1631 
z
" transform="scale(0.015625)"/>
       <path id="DejaVuSans-46" d="M 628 4666 
L 3309 4666 
L 3309 4134 
L 1259 4134 
L 1259 2759 
L 3109 2759 
L 3109 2228 
L 1259 2228 
L 1259 0 
L 628 0 
L 628 4666 
z
" transform="scale(0.015625)"/>
       <path id="DejaVuSans-6c" d="M 603 4863 
L 1178 4863 
L 1178 0 
L 603 0 
L 603 4863 
z
" transform="scale(0.015625)"/>
       <path id="DejaVuSans-73" d="M 2834 3397 
L 2834 2853 
Q 2591 2978 2328 3040 
Q 2066 3103 1784 3103 
Q 1356 3103 1142 2972 
Q 928 2841 928 2578 
Q 928 2378 1081 2264 
Q 1234 2150 1697 2047 
L 1894 2003 
Q 2506 1872 2764 1633 
Q 3022 1394 3022 966 
Q 3022 478 2636 193 
Q 2250 -91 1575 -91 
Q 1294 -91 989 -36 
Q 684 19 347 128 
L 347 722 
Q 666 556 975 473 
Q 1284 391 1588 391 
Q 1994 391 2212 530 
Q 2431 669 2431 922 
Q 2431 1156 2273 1281 
Q 2116 1406 1581 1522 
L 1381 1569 
Q 847 1681 609 1914 
Q 372 2147 372 2553 
Q 372 3047 722 3315 
Q 1072 3584 1716 3584 
Q 2034 3584 2315 3537 
Q 2597 3491 2834 3397 
z
" transform="scale(0.015625)"/>
      </defs>
      <use xlink:href="#DejaVuSans-70"/>
      <use xlink:href="#DejaVuSans-65" x="63.476562"/>
      <use xlink:href="#DejaVuSans-72" x="125"/>
      <use xlink:href="#DejaVuSans-66" x="166.113281"/>
      <use xlink:href="#DejaVuSans-65" x="201.318359"/>
      <use xlink:href="#DejaVuSans-63" x="262.841797"/>
      <use xlink:href="#DejaVuSans-74" x="317.822266"/>
      <use xlink:href="#DejaVuSans-5f" x="357.03125"/>
      <use xlink:href="#DejaVuSans-6d" x="407.03125"/>
      <use xlink:href="#DejaVuSans-61" x="504.443359"/>
      <use xlink:href="#DejaVuSans-74" x="565.722656"/>
      <use xlink:href="#DejaVuSans-63" x="604.931641"/>
      <use xlink:href="#DejaVuSans-68" x="659.912109"/>
      <use xlink:href="#DejaVuSans-20" x="723.291016"/>
      <use xlink:href="#DejaVuSans-3d" x="755.078125"/>
      <use xlink:href="#DejaVuSans-20" x="838.867188"/>
      <use xlink:href="#DejaVuSans-46" x="870.654297"/>
      <use xlink:href="#DejaVuSans-61" x="919.048828"/>
      <use xlink:href="#DejaVuSans-6c" x="980.328125"/>
      <use xlink:href="#DejaVuSans-73" x="1008.111328"/>
      <use xlink:href="#DejaVuSans-65" x="1060.210938"/>
     </g>
    </g>
    <g id="patch_187">
     <path d="M 66.6 73.026688 
L 86.6 73.026688 
L 86.6 66.026688 
L 66.6 66.026688 
z
" style="fill: #ff7f0e; fill-opacity: 0.5; stroke: #000000; stroke-linejoin: miter"/>
    </g>
    <g id="text_13">
     <!-- perfect_match = True -->
     <g transform="translate(94.6 73.026688) scale(0.1 -0.1)">
      <defs>
       <path id="DejaVuSans-54" d="M -19 4666 
L 3928 4666 
L 3928 4134 
L 2272 4134 
L 2272 0 
L 1638 0 
L 1638 4134 
L -19 4134 
L -19 4666 
z
" transform="scale(0.015625)"/>
      </defs>
      <use xlink:href="#DejaVuSans-70"/>
      <use xlink:href="#DejaVuSans-65" x="63.476562"/>
      <use xlink:href="#DejaVuSans-72" x="125"/>
      <use xlink:href="#DejaVuSans-66" x="166.113281"/>
      <use xlink:href="#DejaVuSans-65" x="201.318359"/>
      <use xlink:href="#DejaVuSans-63" x="262.841797"/>
      <use xlink:href="#DejaVuSans-74" x="317.822266"/>
      <use xlink:href="#DejaVuSans-5f" x="357.03125"/>
      <use xlink:href="#DejaVuSans-6d" x="407.03125"/>
      <use xlink:href="#DejaVuSans-61" x="504.443359"/>
      <use xlink:href="#DejaVuSans-74" x="565.722656"/>
      <use xlink:href="#DejaVuSans-63" x="604.931641"/>
      <use xlink:href="#DejaVuSans-68" x="659.912109"/>
      <use xlink:href="#DejaVuSans-20" x="723.291016"/>
      <use xlink:href="#DejaVuSans-3d" x="755.078125"/>
      <use xlink:href="#DejaVuSans-20" x="838.867188"/>
      <use xlink:href="#DejaVuSans-54" x="870.654297"/>
      <use xlink:href="#DejaVuSans-72" x="916.988281"/>
      <use xlink:href="#DejaVuSans-75" x="958.101562"/>
      <use xlink:href="#DejaVuSans-65" x="1021.480469"/>
     </g>
    </g>
   </g>
  </g>
  <g id="text_14">
   <!-- stock_False_xlm-roberta-base_384 -->
   <g transform="translate(127.265625 16.030125) scale(0.12 -0.12)">
    <defs>
     <path id="DejaVuSans-6b" d="M 581 4863 
L 1159 4863 
L 1159 1991 
L 2875 3500 
L 3609 3500 
L 1753 1863 
L 3688 0 
L 2938 0 
L 1159 1709 
L 1159 0 
L 581 0 
L 581 4863 
z
" transform="scale(0.015625)"/>
     <path id="DejaVuSans-78" d="M 3513 3500 
L 2247 1797 
L 3578 0 
L 2900 0 
L 1881 1375 
L 863 0 
L 184 0 
L 1544 1831 
L 300 3500 
L 978 3500 
L 1906 2253 
L 2834 3500 
L 3513 3500 
z
" transform="scale(0.015625)"/>
     <path id="DejaVuSans-2d" d="M 313 2009 
L 1997 2009 
L 1997 1497 
L 313 1497 
L 313 2009 
z
" transform="scale(0.015625)"/>
     <path id="DejaVuSans-62" d="M 3116 1747 
Q 3116 2381 2855 2742 
Q 2594 3103 2138 3103 
Q 1681 3103 1420 2742 
Q 1159 2381 1159 1747 
Q 1159 1113 1420 752 
Q 1681 391 2138 391 
Q 2594 391 2855 752 
Q 3116 1113 3116 1747 
z
M 1159 2969 
Q 1341 3281 1617 3432 
Q 1894 3584 2278 3584 
Q 2916 3584 3314 3078 
Q 3713 2572 3713 1747 
Q 3713 922 3314 415 
Q 2916 -91 2278 -91 
Q 1894 -91 1617 61 
Q 1341 213 1159 525 
L 1159 0 
L 581 0 
L 581 4863 
L 1159 4863 
L 1159 2969 
z
" transform="scale(0.015625)"/>
     <path id="DejaVuSans-33" d="M 2597 2516 
Q 3050 2419 3304 2112 
Q 3559 1806 3559 1356 
Q 3559 666 3084 287 
Q 2609 -91 1734 -91 
Q 1441 -91 1130 -33 
Q 819 25 488 141 
L 488 750 
Q 750 597 1062 519 
Q 1375 441 1716 441 
Q 2309 441 2620 675 
Q 2931 909 2931 1356 
Q 2931 1769 2642 2001 
Q 2353 2234 1838 2234 
L 1294 2234 
L 1294 2753 
L 1863 2753 
Q 2328 2753 2575 2939 
Q 2822 3125 2822 3475 
Q 2822 3834 2567 4026 
Q 2313 4219 1838 4219 
Q 1578 4219 1281 4162 
Q 984 4106 628 3988 
L 628 4550 
Q 988 4650 1302 4700 
Q 1616 4750 1894 4750 
Q 2613 4750 3031 4423 
Q 3450 4097 3450 3541 
Q 3450 3153 3228 2886 
Q 3006 2619 2597 2516 
z
" transform="scale(0.015625)"/>
    </defs>
    <use xlink:href="#DejaVuSans-73"/>
    <use xlink:href="#DejaVuSans-74" x="52.099609"/>
    <use xlink:href="#DejaVuSans-6f" x="91.308594"/>
    <use xlink:href="#DejaVuSans-63" x="152.490234"/>
    <use xlink:href="#DejaVuSans-6b" x="207.470703"/>
    <use xlink:href="#DejaVuSans-5f" x="265.380859"/>
    <use xlink:href="#DejaVuSans-46" x="315.380859"/>
    <use xlink:href="#DejaVuSans-61" x="363.775391"/>
    <use xlink:href="#DejaVuSans-6c" x="425.054688"/>
    <use xlink:href="#DejaVuSans-73" x="452.837891"/>
    <use xlink:href="#DejaVuSans-65" x="504.9375"/>
    <use xlink:href="#DejaVuSans-5f" x="566.460938"/>
    <use xlink:href="#DejaVuSans-78" x="616.460938"/>
    <use xlink:href="#DejaVuSans-6c" x="675.640625"/>
    <use xlink:href="#DejaVuSans-6d" x="703.423828"/>
    <use xlink:href="#DejaVuSans-2d" x="800.835938"/>
    <use xlink:href="#DejaVuSans-72" x="836.919922"/>
    <use xlink:href="#DejaVuSans-6f" x="875.783203"/>
    <use xlink:href="#DejaVuSans-62" x="936.964844"/>
    <use xlink:href="#DejaVuSans-65" x="1000.441406"/>
    <use xlink:href="#DejaVuSans-72" x="1061.964844"/>
    <use xlink:href="#DejaVuSans-74" x="1103.078125"/>
    <use xlink:href="#DejaVuSans-61" x="1142.287109"/>
    <use xlink:href="#DejaVuSans-2d" x="1203.566406"/>
    <use xlink:href="#DejaVuSans-62" x="1239.650391"/>
    <use xlink:href="#DejaVuSans-61" x="1303.126953"/>
    <use xlink:href="#DejaVuSans-73" x="1364.40625"/>
    <use xlink:href="#DejaVuSans-65" x="1416.505859"/>
    <use xlink:href="#DejaVuSans-5f" x="1478.029297"/>
    <use xlink:href="#DejaVuSans-33" x="1528.029297"/>
    <use xlink:href="#DejaVuSans-38" x="1591.652344"/>
    <use xlink:href="#DejaVuSans-34" x="1655.275391"/>
   </g>
  </g>
 </g>
 <defs>
  <clipPath id="pe7c9443169">
   <rect x="57.6" y="41.472" width="357.12" height="266.112"/>
  </clipPath>
 </defs>
</svg>
