<?xml version="1.0" encoding="utf-8" standalone="no"?>
<!DOCTYPE svg PUBLIC "-//W3C//DTD SVG 1.1//EN"
  "http://www.w3.org/Graphics/SVG/1.1/DTD/svg11.dtd">
<svg xmlns:xlink="http://www.w3.org/1999/xlink" width="460.8pt" height="345.6pt" viewBox="0 0 460.8 345.6" xmlns="http://www.w3.org/2000/svg" version="1.1">
 <metadata>
  <rdf:RDF xmlns:dc="http://purl.org/dc/elements/1.1/" xmlns:cc="http://creativecommons.org/ns#" xmlns:rdf="http://www.w3.org/1999/02/22-rdf-syntax-ns#">
   <cc:Work>
    <dc:type rdf:resource="http://purl.org/dc/dcmitype/StillImage"/>
    <dc:date>2024-03-05T13:51:02.423759</dc:date>
    <dc:format>image/svg+xml</dc:format>
    <dc:creator>
     <cc:Agent>
      <dc:title>Matplotlib v3.6.3, https://matplotlib.org/</dc:title>
     </cc:Agent>
    </dc:creator>
   </cc:Work>
  </rdf:RDF>
 </metadata>
 <defs>
  <style type="text/css">*{stroke-linejoin: round; stroke-linecap: butt}</style>
 </defs>
 <g id="figure_1">
  <g id="patch_1">
   <path d="M 0 345.6 
L 460.8 345.6 
L 460.8 0 
L 0 0 
z
" style="fill: #ffffff"/>
  </g>
  <g id="axes_1">
   <g id="patch_2">
    <path d="M 57.6 307.584 
L 414.72 307.584 
L 414.72 41.472 
L 57.6 41.472 
z
" style="fill: #ffffff"/>
   </g>
   <g id="patch_3">
    <path d="M 73.832727 307.584 
L 85.427532 307.584 
L 85.427532 307.584 
L 73.832727 307.584 
z
" clip-path="url(#p7a02768855)" style="fill: #ff7f0e; fill-opacity: 0.5; stroke: #000000; stroke-linejoin: miter"/>
   </g>
   <g id="patch_4">
    <path d="M 85.427532 307.584 
L 97.022338 307.584 
L 97.022338 307.584 
L 85.427532 307.584 
z
" clip-path="url(#p7a02768855)" style="fill: #ff7f0e; fill-opacity: 0.5; stroke: #000000; stroke-linejoin: miter"/>
   </g>
   <g id="patch_5">
    <path d="M 97.022338 307.584 
L 108.617143 307.584 
L 108.617143 307.584 
L 97.022338 307.584 
z
" clip-path="url(#p7a02768855)" style="fill: #ff7f0e; fill-opacity: 0.5; stroke: #000000; stroke-linejoin: miter"/>
   </g>
   <g id="patch_6">
    <path d="M 108.617143 307.584 
L 120.211948 307.584 
L 120.211948 307.584 
L 108.617143 307.584 
z
" clip-path="url(#p7a02768855)" style="fill: #ff7f0e; fill-opacity: 0.5; stroke: #000000; stroke-linejoin: miter"/>
   </g>
   <g id="patch_7">
    <path d="M 120.211948 307.584 
L 131.806753 307.584 
L 131.806753 307.584 
L 120.211948 307.584 
z
" clip-path="url(#p7a02768855)" style="fill: #ff7f0e; fill-opacity: 0.5; stroke: #000000; stroke-linejoin: miter"/>
   </g>
   <g id="patch_8">
    <path d="M 131.806753 307.584 
L 143.401558 307.584 
L 143.401558 298.020226 
L 131.806753 298.020226 
z
" clip-path="url(#p7a02768855)" style="fill: #ff7f0e; fill-opacity: 0.5; stroke: #000000; stroke-linejoin: miter"/>
   </g>
   <g id="patch_9">
    <path d="M 143.401558 307.584 
L 154.996364 307.584 
L 154.996364 302.802113 
L 143.401558 302.802113 
z
" clip-path="url(#p7a02768855)" style="fill: #ff7f0e; fill-opacity: 0.5; stroke: #000000; stroke-linejoin: miter"/>
   </g>
   <g id="patch_10">
    <path d="M 154.996364 307.584 
L 166.591169 307.584 
L 166.591169 283.674566 
L 154.996364 283.674566 
z
" clip-path="url(#p7a02768855)" style="fill: #ff7f0e; fill-opacity: 0.5; stroke: #000000; stroke-linejoin: miter"/>
   </g>
   <g id="patch_11">
    <path d="M 166.591169 307.584 
L 178.185974 307.584 
L 178.185974 259.765132 
L 166.591169 259.765132 
z
" clip-path="url(#p7a02768855)" style="fill: #ff7f0e; fill-opacity: 0.5; stroke: #000000; stroke-linejoin: miter"/>
   </g>
   <g id="patch_12">
    <path d="M 178.185974 307.584 
L 189.780779 307.584 
L 189.780779 259.765132 
L 178.185974 259.765132 
z
" clip-path="url(#p7a02768855)" style="fill: #ff7f0e; fill-opacity: 0.5; stroke: #000000; stroke-linejoin: miter"/>
   </g>
   <g id="patch_13">
    <path d="M 189.780779 307.584 
L 201.375584 307.584 
L 201.375584 259.765132 
L 189.780779 259.765132 
z
" clip-path="url(#p7a02768855)" style="fill: #ff7f0e; fill-opacity: 0.5; stroke: #000000; stroke-linejoin: miter"/>
   </g>
   <g id="patch_14">
    <path d="M 201.375584 307.584 
L 212.97039 307.584 
L 212.97039 216.728151 
L 201.375584 216.728151 
z
" clip-path="url(#p7a02768855)" style="fill: #ff7f0e; fill-opacity: 0.5; stroke: #000000; stroke-linejoin: miter"/>
   </g>
   <g id="patch_15">
    <path d="M 212.97039 307.584 
L 224.565195 307.584 
L 224.565195 168.909283 
L 212.97039 168.909283 
z
" clip-path="url(#p7a02768855)" style="fill: #ff7f0e; fill-opacity: 0.5; stroke: #000000; stroke-linejoin: miter"/>
   </g>
   <g id="patch_16">
    <path d="M 224.565195 307.584 
L 236.16 307.584 
L 236.16 116.308528 
L 224.565195 116.308528 
z
" clip-path="url(#p7a02768855)" style="fill: #ff7f0e; fill-opacity: 0.5; stroke: #000000; stroke-linejoin: miter"/>
   </g>
   <g id="patch_17">
    <path d="M 236.16 307.584 
L 247.754805 307.584 
L 247.754805 78.053434 
L 236.16 78.053434 
z
" clip-path="url(#p7a02768855)" style="fill: #ff7f0e; fill-opacity: 0.5; stroke: #000000; stroke-linejoin: miter"/>
   </g>
   <g id="patch_18">
    <path d="M 247.754805 307.584 
L 259.34961 307.584 
L 259.34961 87.617208 
L 247.754805 87.617208 
z
" clip-path="url(#p7a02768855)" style="fill: #ff7f0e; fill-opacity: 0.5; stroke: #000000; stroke-linejoin: miter"/>
   </g>
   <g id="patch_19">
    <path d="M 259.34961 307.584 
L 270.944416 307.584 
L 270.944416 54.144 
L 259.34961 54.144 
z
" clip-path="url(#p7a02768855)" style="fill: #ff7f0e; fill-opacity: 0.5; stroke: #000000; stroke-linejoin: miter"/>
   </g>
   <g id="patch_20">
    <path d="M 270.944416 307.584 
L 282.539221 307.584 
L 282.539221 82.835321 
L 270.944416 82.835321 
z
" clip-path="url(#p7a02768855)" style="fill: #ff7f0e; fill-opacity: 0.5; stroke: #000000; stroke-linejoin: miter"/>
   </g>
   <g id="patch_21">
    <path d="M 282.539221 307.584 
L 294.134026 307.584 
L 294.134026 78.053434 
L 282.539221 78.053434 
z
" clip-path="url(#p7a02768855)" style="fill: #ff7f0e; fill-opacity: 0.5; stroke: #000000; stroke-linejoin: miter"/>
   </g>
   <g id="patch_22">
    <path d="M 294.134026 307.584 
L 305.728831 307.584 
L 305.728831 101.962868 
L 294.134026 101.962868 
z
" clip-path="url(#p7a02768855)" style="fill: #ff7f0e; fill-opacity: 0.5; stroke: #000000; stroke-linejoin: miter"/>
   </g>
   <g id="patch_23">
    <path d="M 305.728831 307.584 
L 317.323636 307.584 
L 317.323636 168.909283 
L 305.728831 168.909283 
z
" clip-path="url(#p7a02768855)" style="fill: #ff7f0e; fill-opacity: 0.5; stroke: #000000; stroke-linejoin: miter"/>
   </g>
   <g id="patch_24">
    <path d="M 317.323636 307.584 
L 328.918442 307.584 
L 328.918442 231.073811 
L 317.323636 231.073811 
z
" clip-path="url(#p7a02768855)" style="fill: #ff7f0e; fill-opacity: 0.5; stroke: #000000; stroke-linejoin: miter"/>
   </g>
   <g id="patch_25">
    <path d="M 328.918442 307.584 
L 340.513247 307.584 
L 340.513247 216.728151 
L 328.918442 216.728151 
z
" clip-path="url(#p7a02768855)" style="fill: #ff7f0e; fill-opacity: 0.5; stroke: #000000; stroke-linejoin: miter"/>
   </g>
   <g id="patch_26">
    <path d="M 340.513247 307.584 
L 352.108052 307.584 
L 352.108052 250.201358 
L 340.513247 250.201358 
z
" clip-path="url(#p7a02768855)" style="fill: #ff7f0e; fill-opacity: 0.5; stroke: #000000; stroke-linejoin: miter"/>
   </g>
   <g id="patch_27">
    <path d="M 352.108052 307.584 
L 363.702857 307.584 
L 363.702857 283.674566 
L 352.108052 283.674566 
z
" clip-path="url(#p7a02768855)" style="fill: #ff7f0e; fill-opacity: 0.5; stroke: #000000; stroke-linejoin: miter"/>
   </g>
   <g id="patch_28">
    <path d="M 363.702857 307.584 
L 375.297662 307.584 
L 375.297662 293.23834 
L 363.702857 293.23834 
z
" clip-path="url(#p7a02768855)" style="fill: #ff7f0e; fill-opacity: 0.5; stroke: #000000; stroke-linejoin: miter"/>
   </g>
   <g id="patch_29">
    <path d="M 375.297662 307.584 
L 386.892468 307.584 
L 386.892468 298.020226 
L 375.297662 298.020226 
z
" clip-path="url(#p7a02768855)" style="fill: #ff7f0e; fill-opacity: 0.5; stroke: #000000; stroke-linejoin: miter"/>
   </g>
   <g id="patch_30">
    <path d="M 386.892468 307.584 
L 398.487273 307.584 
L 398.487273 293.23834 
L 386.892468 293.23834 
z
" clip-path="url(#p7a02768855)" style="fill: #ff7f0e; fill-opacity: 0.5; stroke: #000000; stroke-linejoin: miter"/>
   </g>
   <g id="patch_31">
    <path d="M 73.832727 307.584 
L 85.427532 307.584 
L 85.427532 302.802113 
L 73.832727 302.802113 
z
" clip-path="url(#p7a02768855)" style="fill: #1f77b4; fill-opacity: 0.5; stroke: #000000; stroke-linejoin: miter"/>
   </g>
   <g id="patch_32">
    <path d="M 85.427532 307.584 
L 97.022338 307.584 
L 97.022338 307.584 
L 85.427532 307.584 
z
" clip-path="url(#p7a02768855)" style="fill: #1f77b4; fill-opacity: 0.5; stroke: #000000; stroke-linejoin: miter"/>
   </g>
   <g id="patch_33">
    <path d="M 97.022338 307.584 
L 108.617143 307.584 
L 108.617143 302.802113 
L 97.022338 302.802113 
z
" clip-path="url(#p7a02768855)" style="fill: #1f77b4; fill-opacity: 0.5; stroke: #000000; stroke-linejoin: miter"/>
   </g>
   <g id="patch_34">
    <path d="M 108.617143 307.584 
L 120.211948 307.584 
L 120.211948 307.584 
L 108.617143 307.584 
z
" clip-path="url(#p7a02768855)" style="fill: #1f77b4; fill-opacity: 0.5; stroke: #000000; stroke-linejoin: miter"/>
   </g>
   <g id="patch_35">
    <path d="M 120.211948 307.584 
L 131.806753 307.584 
L 131.806753 302.802113 
L 120.211948 302.802113 
z
" clip-path="url(#p7a02768855)" style="fill: #1f77b4; fill-opacity: 0.5; stroke: #000000; stroke-linejoin: miter"/>
   </g>
   <g id="patch_36">
    <path d="M 131.806753 307.584 
L 143.401558 307.584 
L 143.401558 293.23834 
L 131.806753 293.23834 
z
" clip-path="url(#p7a02768855)" style="fill: #1f77b4; fill-opacity: 0.5; stroke: #000000; stroke-linejoin: miter"/>
   </g>
   <g id="patch_37">
    <path d="M 143.401558 307.584 
L 154.996364 307.584 
L 154.996364 307.584 
L 143.401558 307.584 
z
" clip-path="url(#p7a02768855)" style="fill: #1f77b4; fill-opacity: 0.5; stroke: #000000; stroke-linejoin: miter"/>
   </g>
   <g id="patch_38">
    <path d="M 154.996364 307.584 
L 166.591169 307.584 
L 166.591169 288.456453 
L 154.996364 288.456453 
z
" clip-path="url(#p7a02768855)" style="fill: #1f77b4; fill-opacity: 0.5; stroke: #000000; stroke-linejoin: miter"/>
   </g>
   <g id="patch_39">
    <path d="M 166.591169 307.584 
L 178.185974 307.584 
L 178.185974 254.983245 
L 166.591169 254.983245 
z
" clip-path="url(#p7a02768855)" style="fill: #1f77b4; fill-opacity: 0.5; stroke: #000000; stroke-linejoin: miter"/>
   </g>
   <g id="patch_40">
    <path d="M 178.185974 307.584 
L 189.780779 307.584 
L 189.780779 245.419472 
L 178.185974 245.419472 
z
" clip-path="url(#p7a02768855)" style="fill: #1f77b4; fill-opacity: 0.5; stroke: #000000; stroke-linejoin: miter"/>
   </g>
   <g id="patch_41">
    <path d="M 189.780779 307.584 
L 201.375584 307.584 
L 201.375584 259.765132 
L 189.780779 259.765132 
z
" clip-path="url(#p7a02768855)" style="fill: #1f77b4; fill-opacity: 0.5; stroke: #000000; stroke-linejoin: miter"/>
   </g>
   <g id="patch_42">
    <path d="M 201.375584 307.584 
L 212.97039 307.584 
L 212.97039 192.818717 
L 201.375584 192.818717 
z
" clip-path="url(#p7a02768855)" style="fill: #1f77b4; fill-opacity: 0.5; stroke: #000000; stroke-linejoin: miter"/>
   </g>
   <g id="patch_43">
    <path d="M 212.97039 307.584 
L 224.565195 307.584 
L 224.565195 135.436075 
L 212.97039 135.436075 
z
" clip-path="url(#p7a02768855)" style="fill: #1f77b4; fill-opacity: 0.5; stroke: #000000; stroke-linejoin: miter"/>
   </g>
   <g id="patch_44">
    <path d="M 224.565195 307.584 
L 236.16 307.584 
L 236.16 149.781736 
L 224.565195 149.781736 
z
" clip-path="url(#p7a02768855)" style="fill: #1f77b4; fill-opacity: 0.5; stroke: #000000; stroke-linejoin: miter"/>
   </g>
   <g id="patch_45">
    <path d="M 236.16 307.584 
L 247.754805 307.584 
L 247.754805 78.053434 
L 236.16 78.053434 
z
" clip-path="url(#p7a02768855)" style="fill: #1f77b4; fill-opacity: 0.5; stroke: #000000; stroke-linejoin: miter"/>
   </g>
   <g id="patch_46">
    <path d="M 247.754805 307.584 
L 259.34961 307.584 
L 259.34961 82.835321 
L 247.754805 82.835321 
z
" clip-path="url(#p7a02768855)" style="fill: #1f77b4; fill-opacity: 0.5; stroke: #000000; stroke-linejoin: miter"/>
   </g>
   <g id="patch_47">
    <path d="M 259.34961 307.584 
L 270.944416 307.584 
L 270.944416 54.144 
L 259.34961 54.144 
z
" clip-path="url(#p7a02768855)" style="fill: #1f77b4; fill-opacity: 0.5; stroke: #000000; stroke-linejoin: miter"/>
   </g>
   <g id="patch_48">
    <path d="M 270.944416 307.584 
L 282.539221 307.584 
L 282.539221 125.872302 
L 270.944416 125.872302 
z
" clip-path="url(#p7a02768855)" style="fill: #1f77b4; fill-opacity: 0.5; stroke: #000000; stroke-linejoin: miter"/>
   </g>
   <g id="patch_49">
    <path d="M 282.539221 307.584 
L 294.134026 307.584 
L 294.134026 63.707774 
L 282.539221 63.707774 
z
" clip-path="url(#p7a02768855)" style="fill: #1f77b4; fill-opacity: 0.5; stroke: #000000; stroke-linejoin: miter"/>
   </g>
   <g id="patch_50">
    <path d="M 294.134026 307.584 
L 305.728831 307.584 
L 305.728831 97.180981 
L 294.134026 97.180981 
z
" clip-path="url(#p7a02768855)" style="fill: #1f77b4; fill-opacity: 0.5; stroke: #000000; stroke-linejoin: miter"/>
   </g>
   <g id="patch_51">
    <path d="M 305.728831 307.584 
L 317.323636 307.584 
L 317.323636 183.254943 
L 305.728831 183.254943 
z
" clip-path="url(#p7a02768855)" style="fill: #1f77b4; fill-opacity: 0.5; stroke: #000000; stroke-linejoin: miter"/>
   </g>
   <g id="patch_52">
    <path d="M 317.323636 307.584 
L 328.918442 307.584 
L 328.918442 211.946264 
L 317.323636 211.946264 
z
" clip-path="url(#p7a02768855)" style="fill: #1f77b4; fill-opacity: 0.5; stroke: #000000; stroke-linejoin: miter"/>
   </g>
   <g id="patch_53">
    <path d="M 328.918442 307.584 
L 340.513247 307.584 
L 340.513247 231.073811 
L 328.918442 231.073811 
z
" clip-path="url(#p7a02768855)" style="fill: #1f77b4; fill-opacity: 0.5; stroke: #000000; stroke-linejoin: miter"/>
   </g>
   <g id="patch_54">
    <path d="M 340.513247 307.584 
L 352.108052 307.584 
L 352.108052 274.110792 
L 340.513247 274.110792 
z
" clip-path="url(#p7a02768855)" style="fill: #1f77b4; fill-opacity: 0.5; stroke: #000000; stroke-linejoin: miter"/>
   </g>
   <g id="patch_55">
    <path d="M 352.108052 307.584 
L 363.702857 307.584 
L 363.702857 278.892679 
L 352.108052 278.892679 
z
" clip-path="url(#p7a02768855)" style="fill: #1f77b4; fill-opacity: 0.5; stroke: #000000; stroke-linejoin: miter"/>
   </g>
   <g id="patch_56">
    <path d="M 363.702857 307.584 
L 375.297662 307.584 
L 375.297662 293.23834 
L 363.702857 293.23834 
z
" clip-path="url(#p7a02768855)" style="fill: #1f77b4; fill-opacity: 0.5; stroke: #000000; stroke-linejoin: miter"/>
   </g>
   <g id="patch_57">
    <path d="M 375.297662 307.584 
L 386.892468 307.584 
L 386.892468 288.456453 
L 375.297662 288.456453 
z
" clip-path="url(#p7a02768855)" style="fill: #1f77b4; fill-opacity: 0.5; stroke: #000000; stroke-linejoin: miter"/>
   </g>
   <g id="patch_58">
    <path d="M 386.892468 307.584 
L 398.487273 307.584 
L 398.487273 307.584 
L 386.892468 307.584 
z
" clip-path="url(#p7a02768855)" style="fill: #1f77b4; fill-opacity: 0.5; stroke: #000000; stroke-linejoin: miter"/>
   </g>
   <g id="matplotlib.axis_1">
    <g id="xtick_1">
     <g id="line2d_1">
      <defs>
       <path id="m6b7fd39499" d="M 0 0 
L 0 3.5 
" style="stroke: #000000; stroke-width: 0.8"/>
      </defs>
      <g>
       <use xlink:href="#m6b7fd39499" x="76.759538" y="307.584" style="stroke: #000000; stroke-width: 0.8"/>
      </g>
     </g>
     <g id="text_1">
      <!-- 0.27 -->
      <g transform="translate(65.626725 322.182437) scale(0.1 -0.1)">
       <defs>
        <path id="DejaVuSans-30" d="M 2034 4250 
Q 1547 4250 1301 3770 
Q 1056 3291 1056 2328 
Q 1056 1369 1301 889 
Q 1547 409 2034 409 
Q 2525 409 2770 889 
Q 3016 1369 3016 2328 
Q 3016 3291 2770 3770 
Q 2525 4250 2034 4250 
z
M 2034 4750 
Q 2819 4750 3233 4129 
Q 3647 3509 3647 2328 
Q 3647 1150 3233 529 
Q 2819 -91 2034 -91 
Q 1250 -91 836 529 
Q 422 1150 422 2328 
Q 422 3509 836 4129 
Q 1250 4750 2034 4750 
z
" transform="scale(0.015625)"/>
        <path id="DejaVuSans-2e" d="M 684 794 
L 1344 794 
L 1344 0 
L 684 0 
L 684 794 
z
" transform="scale(0.015625)"/>
        <path id="DejaVuSans-32" d="M 1228 531 
L 3431 531 
L 3431 0 
L 469 0 
L 469 531 
Q 828 903 1448 1529 
Q 2069 2156 2228 2338 
Q 2531 2678 2651 2914 
Q 2772 3150 2772 3378 
Q 2772 3750 2511 3984 
Q 2250 4219 1831 4219 
Q 1534 4219 1204 4116 
Q 875 4013 500 3803 
L 500 4441 
Q 881 4594 1212 4672 
Q 1544 4750 1819 4750 
Q 2544 4750 2975 4387 
Q 3406 4025 3406 3419 
Q 3406 3131 3298 2873 
Q 3191 2616 2906 2266 
Q 2828 2175 2409 1742 
Q 1991 1309 1228 531 
z
" transform="scale(0.015625)"/>
        <path id="DejaVuSans-37" d="M 525 4666 
L 3525 4666 
L 3525 4397 
L 1831 0 
L 1172 0 
L 2766 4134 
L 525 4134 
L 525 4666 
z
" transform="scale(0.015625)"/>
       </defs>
       <use xlink:href="#DejaVuSans-30"/>
       <use xlink:href="#DejaVuSans-2e" x="63.623047"/>
       <use xlink:href="#DejaVuSans-32" x="95.410156"/>
       <use xlink:href="#DejaVuSans-37" x="159.033203"/>
      </g>
     </g>
    </g>
    <g id="xtick_2">
     <g id="line2d_2">
      <g>
       <use xlink:href="#m6b7fd39499" x="151.974721" y="307.584" style="stroke: #000000; stroke-width: 0.8"/>
      </g>
     </g>
     <g id="text_2">
      <!-- 0.28 -->
      <g transform="translate(140.841908 322.182437) scale(0.1 -0.1)">
       <defs>
        <path id="DejaVuSans-38" d="M 2034 2216 
Q 1584 2216 1326 1975 
Q 1069 1734 1069 1313 
Q 1069 891 1326 650 
Q 1584 409 2034 409 
Q 2484 409 2743 651 
Q 3003 894 3003 1313 
Q 3003 1734 2745 1975 
Q 2488 2216 2034 2216 
z
M 1403 2484 
Q 997 2584 770 2862 
Q 544 3141 544 3541 
Q 544 4100 942 4425 
Q 1341 4750 2034 4750 
Q 2731 4750 3128 4425 
Q 3525 4100 3525 3541 
Q 3525 3141 3298 2862 
Q 3072 2584 2669 2484 
Q 3125 2378 3379 2068 
Q 3634 1759 3634 1313 
Q 3634 634 3220 271 
Q 2806 -91 2034 -91 
Q 1263 -91 848 271 
Q 434 634 434 1313 
Q 434 1759 690 2068 
Q 947 2378 1403 2484 
z
M 1172 3481 
Q 1172 3119 1398 2916 
Q 1625 2713 2034 2713 
Q 2441 2713 2670 2916 
Q 2900 3119 2900 3481 
Q 2900 3844 2670 4047 
Q 2441 4250 2034 4250 
Q 1625 4250 1398 4047 
Q 1172 3844 1172 3481 
z
" transform="scale(0.015625)"/>
       </defs>
       <use xlink:href="#DejaVuSans-30"/>
       <use xlink:href="#DejaVuSans-2e" x="63.623047"/>
       <use xlink:href="#DejaVuSans-32" x="95.410156"/>
       <use xlink:href="#DejaVuSans-38" x="159.033203"/>
      </g>
     </g>
    </g>
    <g id="xtick_3">
     <g id="line2d_3">
      <g>
       <use xlink:href="#m6b7fd39499" x="227.189903" y="307.584" style="stroke: #000000; stroke-width: 0.8"/>
      </g>
     </g>
     <g id="text_3">
      <!-- 0.29 -->
      <g transform="translate(216.057091 322.182437) scale(0.1 -0.1)">
       <defs>
        <path id="DejaVuSans-39" d="M 703 97 
L 703 672 
Q 941 559 1184 500 
Q 1428 441 1663 441 
Q 2288 441 2617 861 
Q 2947 1281 2994 2138 
Q 2813 1869 2534 1725 
Q 2256 1581 1919 1581 
Q 1219 1581 811 2004 
Q 403 2428 403 3163 
Q 403 3881 828 4315 
Q 1253 4750 1959 4750 
Q 2769 4750 3195 4129 
Q 3622 3509 3622 2328 
Q 3622 1225 3098 567 
Q 2575 -91 1691 -91 
Q 1453 -91 1209 -44 
Q 966 3 703 97 
z
M 1959 2075 
Q 2384 2075 2632 2365 
Q 2881 2656 2881 3163 
Q 2881 3666 2632 3958 
Q 2384 4250 1959 4250 
Q 1534 4250 1286 3958 
Q 1038 3666 1038 3163 
Q 1038 2656 1286 2365 
Q 1534 2075 1959 2075 
z
" transform="scale(0.015625)"/>
       </defs>
       <use xlink:href="#DejaVuSans-30"/>
       <use xlink:href="#DejaVuSans-2e" x="63.623047"/>
       <use xlink:href="#DejaVuSans-32" x="95.410156"/>
       <use xlink:href="#DejaVuSans-39" x="159.033203"/>
      </g>
     </g>
    </g>
    <g id="xtick_4">
     <g id="line2d_4">
      <g>
       <use xlink:href="#m6b7fd39499" x="302.405086" y="307.584" style="stroke: #000000; stroke-width: 0.8"/>
      </g>
     </g>
     <g id="text_4">
      <!-- 0.30 -->
      <g transform="translate(291.272274 322.182437) scale(0.1 -0.1)">
       <defs>
        <path id="DejaVuSans-33" d="M 2597 2516 
Q 3050 2419 3304 2112 
Q 3559 1806 3559 1356 
Q 3559 666 3084 287 
Q 2609 -91 1734 -91 
Q 1441 -91 1130 -33 
Q 819 25 488 141 
L 488 750 
Q 750 597 1062 519 
Q 1375 441 1716 441 
Q 2309 441 2620 675 
Q 2931 909 2931 1356 
Q 2931 1769 2642 2001 
Q 2353 2234 1838 2234 
L 1294 2234 
L 1294 2753 
L 1863 2753 
Q 2328 2753 2575 2939 
Q 2822 3125 2822 3475 
Q 2822 3834 2567 4026 
Q 2313 4219 1838 4219 
Q 1578 4219 1281 4162 
Q 984 4106 628 3988 
L 628 4550 
Q 988 4650 1302 4700 
Q 1616 4750 1894 4750 
Q 2613 4750 3031 4423 
Q 3450 4097 3450 3541 
Q 3450 3153 3228 2886 
Q 3006 2619 2597 2516 
z
" transform="scale(0.015625)"/>
       </defs>
       <use xlink:href="#DejaVuSans-30"/>
       <use xlink:href="#DejaVuSans-2e" x="63.623047"/>
       <use xlink:href="#DejaVuSans-33" x="95.410156"/>
       <use xlink:href="#DejaVuSans-30" x="159.033203"/>
      </g>
     </g>
    </g>
    <g id="xtick_5">
     <g id="line2d_5">
      <g>
       <use xlink:href="#m6b7fd39499" x="377.620269" y="307.584" style="stroke: #000000; stroke-width: 0.8"/>
      </g>
     </g>
     <g id="text_5">
      <!-- 0.31 -->
      <g transform="translate(366.487456 322.182437) scale(0.1 -0.1)">
       <defs>
        <path id="DejaVuSans-31" d="M 794 531 
L 1825 531 
L 1825 4091 
L 703 3866 
L 703 4441 
L 1819 4666 
L 2450 4666 
L 2450 531 
L 3481 531 
L 3481 0 
L 794 0 
L 794 531 
z
" transform="scale(0.015625)"/>
       </defs>
       <use xlink:href="#DejaVuSans-30"/>
       <use xlink:href="#DejaVuSans-2e" x="63.623047"/>
       <use xlink:href="#DejaVuSans-33" x="95.410156"/>
       <use xlink:href="#DejaVuSans-31" x="159.033203"/>
      </g>
     </g>
    </g>
   </g>
   <g id="matplotlib.axis_2">
    <g id="ytick_1">
     <g id="line2d_6">
      <defs>
       <path id="m36a0dec3b7" d="M 0 0 
L -3.5 0 
" style="stroke: #000000; stroke-width: 0.8"/>
      </defs>
      <g>
       <use xlink:href="#m36a0dec3b7" x="57.6" y="307.584" style="stroke: #000000; stroke-width: 0.8"/>
      </g>
     </g>
     <g id="text_6">
      <!-- 0 -->
      <g transform="translate(44.2375 311.383219) scale(0.1 -0.1)">
       <use xlink:href="#DejaVuSans-30"/>
      </g>
     </g>
    </g>
    <g id="ytick_2">
     <g id="line2d_7">
      <g>
       <use xlink:href="#m36a0dec3b7" x="57.6" y="259.765132" style="stroke: #000000; stroke-width: 0.8"/>
      </g>
     </g>
     <g id="text_7">
      <!-- 10 -->
      <g transform="translate(37.875 263.564351) scale(0.1 -0.1)">
       <use xlink:href="#DejaVuSans-31"/>
       <use xlink:href="#DejaVuSans-30" x="63.623047"/>
      </g>
     </g>
    </g>
    <g id="ytick_3">
     <g id="line2d_8">
      <g>
       <use xlink:href="#m36a0dec3b7" x="57.6" y="211.946264" style="stroke: #000000; stroke-width: 0.8"/>
      </g>
     </g>
     <g id="text_8">
      <!-- 20 -->
      <g transform="translate(37.875 215.745483) scale(0.1 -0.1)">
       <use xlink:href="#DejaVuSans-32"/>
       <use xlink:href="#DejaVuSans-30" x="63.623047"/>
      </g>
     </g>
    </g>
    <g id="ytick_4">
     <g id="line2d_9">
      <g>
       <use xlink:href="#m36a0dec3b7" x="57.6" y="164.127396" style="stroke: #000000; stroke-width: 0.8"/>
      </g>
     </g>
     <g id="text_9">
      <!-- 30 -->
      <g transform="translate(37.875 167.926615) scale(0.1 -0.1)">
       <use xlink:href="#DejaVuSans-33"/>
       <use xlink:href="#DejaVuSans-30" x="63.623047"/>
      </g>
     </g>
    </g>
    <g id="ytick_5">
     <g id="line2d_10">
      <g>
       <use xlink:href="#m36a0dec3b7" x="57.6" y="116.308528" style="stroke: #000000; stroke-width: 0.8"/>
      </g>
     </g>
     <g id="text_10">
      <!-- 40 -->
      <g transform="translate(37.875 120.107747) scale(0.1 -0.1)">
       <defs>
        <path id="DejaVuSans-34" d="M 2419 4116 
L 825 1625 
L 2419 1625 
L 2419 4116 
z
M 2253 4666 
L 3047 4666 
L 3047 1625 
L 3713 1625 
L 3713 1100 
L 3047 1100 
L 3047 0 
L 2419 0 
L 2419 1100 
L 313 1100 
L 313 1709 
L 2253 4666 
z
" transform="scale(0.015625)"/>
       </defs>
       <use xlink:href="#DejaVuSans-34"/>
       <use xlink:href="#DejaVuSans-30" x="63.623047"/>
      </g>
     </g>
    </g>
    <g id="ytick_6">
     <g id="line2d_11">
      <g>
       <use xlink:href="#m36a0dec3b7" x="57.6" y="68.48966" style="stroke: #000000; stroke-width: 0.8"/>
      </g>
     </g>
     <g id="text_11">
      <!-- 50 -->
      <g transform="translate(37.875 72.288879) scale(0.1 -0.1)">
       <defs>
        <path id="DejaVuSans-35" d="M 691 4666 
L 3169 4666 
L 3169 4134 
L 1269 4134 
L 1269 2991 
Q 1406 3038 1543 3061 
Q 1681 3084 1819 3084 
Q 2600 3084 3056 2656 
Q 3513 2228 3513 1497 
Q 3513 744 3044 326 
Q 2575 -91 1722 -91 
Q 1428 -91 1123 -41 
Q 819 9 494 109 
L 494 744 
Q 775 591 1075 516 
Q 1375 441 1709 441 
Q 2250 441 2565 725 
Q 2881 1009 2881 1497 
Q 2881 1984 2565 2268 
Q 2250 2553 1709 2553 
Q 1456 2553 1204 2497 
Q 953 2441 691 2322 
L 691 4666 
z
" transform="scale(0.015625)"/>
       </defs>
       <use xlink:href="#DejaVuSans-35"/>
       <use xlink:href="#DejaVuSans-30" x="63.623047"/>
      </g>
     </g>
    </g>
    <g id="text_12">
     <!-- Count -->
     <g transform="translate(31.795312 189.376437) rotate(-90) scale(0.1 -0.1)">
      <defs>
       <path id="DejaVuSans-43" d="M 4122 4306 
L 4122 3641 
Q 3803 3938 3442 4084 
Q 3081 4231 2675 4231 
Q 1875 4231 1450 3742 
Q 1025 3253 1025 2328 
Q 1025 1406 1450 917 
Q 1875 428 2675 428 
Q 3081 428 3442 575 
Q 3803 722 4122 1019 
L 4122 359 
Q 3791 134 3420 21 
Q 3050 -91 2638 -91 
Q 1578 -91 968 557 
Q 359 1206 359 2328 
Q 359 3453 968 4101 
Q 1578 4750 2638 4750 
Q 3056 4750 3426 4639 
Q 3797 4528 4122 4306 
z
" transform="scale(0.015625)"/>
       <path id="DejaVuSans-6f" d="M 1959 3097 
Q 1497 3097 1228 2736 
Q 959 2375 959 1747 
Q 959 1119 1226 758 
Q 1494 397 1959 397 
Q 2419 397 2687 759 
Q 2956 1122 2956 1747 
Q 2956 2369 2687 2733 
Q 2419 3097 1959 3097 
z
M 1959 3584 
Q 2709 3584 3137 3096 
Q 3566 2609 3566 1747 
Q 3566 888 3137 398 
Q 2709 -91 1959 -91 
Q 1206 -91 779 398 
Q 353 888 353 1747 
Q 353 2609 779 3096 
Q 1206 3584 1959 3584 
z
" transform="scale(0.015625)"/>
       <path id="DejaVuSans-75" d="M 544 1381 
L 544 3500 
L 1119 3500 
L 1119 1403 
Q 1119 906 1312 657 
Q 1506 409 1894 409 
Q 2359 409 2629 706 
Q 2900 1003 2900 1516 
L 2900 3500 
L 3475 3500 
L 3475 0 
L 2900 0 
L 2900 538 
Q 2691 219 2414 64 
Q 2138 -91 1772 -91 
Q 1169 -91 856 284 
Q 544 659 544 1381 
z
M 1991 3584 
L 1991 3584 
z
" transform="scale(0.015625)"/>
       <path id="DejaVuSans-6e" d="M 3513 2113 
L 3513 0 
L 2938 0 
L 2938 2094 
Q 2938 2591 2744 2837 
Q 2550 3084 2163 3084 
Q 1697 3084 1428 2787 
Q 1159 2491 1159 1978 
L 1159 0 
L 581 0 
L 581 3500 
L 1159 3500 
L 1159 2956 
Q 1366 3272 1645 3428 
Q 1925 3584 2291 3584 
Q 2894 3584 3203 3211 
Q 3513 2838 3513 2113 
z
" transform="scale(0.015625)"/>
       <path id="DejaVuSans-74" d="M 1172 4494 
L 1172 3500 
L 2356 3500 
L 2356 3053 
L 1172 3053 
L 1172 1153 
Q 1172 725 1289 603 
Q 1406 481 1766 481 
L 2356 481 
L 2356 0 
L 1766 0 
Q 1100 0 847 248 
Q 594 497 594 1153 
L 594 3053 
L 172 3053 
L 172 3500 
L 594 3500 
L 594 4494 
L 1172 4494 
z
" transform="scale(0.015625)"/>
      </defs>
      <use xlink:href="#DejaVuSans-43"/>
      <use xlink:href="#DejaVuSans-6f" x="69.824219"/>
      <use xlink:href="#DejaVuSans-75" x="131.005859"/>
      <use xlink:href="#DejaVuSans-6e" x="194.384766"/>
      <use xlink:href="#DejaVuSans-74" x="257.763672"/>
     </g>
    </g>
   </g>
   <g id="line2d_12">
    <path d="M 73.832727 307.583907 
L 99.935605 307.479468 
L 106.461325 307.248974 
L 111.355614 306.892134 
L 116.249904 306.317367 
L 121.144194 305.505987 
L 126.038483 304.473273 
L 130.932773 303.216247 
L 134.195633 302.207973 
L 137.458492 300.989467 
L 140.721352 299.471435 
L 143.984212 297.563166 
L 147.247072 295.201033 
L 150.509931 292.375238 
L 153.772791 289.143966 
L 158.667081 283.811107 
L 165.1928 276.605485 
L 170.08709 271.614276 
L 174.98138 267.012333 
L 181.507099 260.910851 
L 184.769959 257.501297 
L 188.032819 253.566338 
L 189.664249 251.326783 
L 191.295678 248.866077 
L 192.927108 246.1568 
L 194.558538 243.175282 
L 196.189968 239.903131 
L 197.821398 236.32853 
L 199.452828 232.447141 
L 202.715688 223.7855 
L 205.978547 214.030506 
L 209.241407 203.374131 
L 212.504267 192.032126 
L 217.398556 174.145973 
L 230.449995 125.50818 
L 233.712855 114.563158 
L 236.975715 104.777315 
L 238.607145 100.400447 
L 240.238575 96.394892 
L 241.870005 92.770466 
L 243.501434 89.529428 
L 245.132864 86.66803 
L 246.764294 84.17835 
L 248.395724 82.050055 
L 250.027154 80.271762 
L 251.658584 78.831728 
L 253.290014 77.717767 
L 254.921444 76.916413 
L 256.552873 76.411538 
L 258.184303 76.182739 
L 259.815733 76.20388 
L 261.447163 76.442206 
L 263.078593 76.858344 
L 266.341453 78.041261 
L 271.235742 79.99486 
L 274.498602 81.027698 
L 281.024322 82.696079 
L 282.655751 83.323495 
L 284.287181 84.187415 
L 285.918611 85.372555 
L 287.550041 86.959606 
L 289.181471 89.019796 
L 290.812901 91.610189 
L 292.444331 94.770039 
L 294.075761 98.518451 
L 295.70719 102.853423 
L 297.33862 107.752229 
L 298.97005 113.173003 
L 302.23291 125.333184 
L 305.49577 138.727123 
L 313.652919 173.026172 
L 316.915779 185.456241 
L 320.178639 196.536801 
L 321.810069 201.521424 
L 323.441498 206.136018 
L 325.072928 210.3968 
L 328.335788 217.976324 
L 331.598648 224.578911 
L 334.861508 230.593237 
L 343.018657 245.23504 
L 349.544376 257.652299 
L 354.438666 266.969666 
L 357.701526 272.846237 
L 360.964386 278.261601 
L 364.227245 283.093164 
L 367.490105 287.259879 
L 369.121535 289.079314 
L 370.752965 290.719793 
L 372.384395 292.182159 
L 374.015825 293.469898 
L 375.647254 294.589283 
L 377.278684 295.549465 
L 378.910114 296.362461 
L 382.172974 297.608218 
L 385.435834 298.469885 
L 390.330123 299.394915 
L 395.224413 300.305285 
L 398.487273 301.05037 
L 398.487273 301.05037 
" clip-path="url(#p7a02768855)" style="fill: none; stroke: #ff7f0e; stroke-width: 1.5; stroke-linecap: square"/>
   </g>
   <g id="line2d_13">
    <path d="M 73.832727 305.874058 
L 80.358447 305.898336 
L 90.147026 305.986368 
L 95.041316 305.817255 
L 99.935605 305.436037 
L 104.829895 304.842077 
L 109.724185 304.041735 
L 116.249904 302.691035 
L 126.038483 300.536932 
L 130.932773 299.683437 
L 137.458492 298.619593 
L 140.721352 297.858887 
L 143.984212 296.732549 
L 145.615642 295.984531 
L 147.247072 295.093157 
L 148.878502 294.04833 
L 150.509931 292.844739 
L 152.141361 291.482198 
L 155.404221 288.305114 
L 158.667081 284.612833 
L 161.929941 280.558708 
L 173.34995 265.911274 
L 183.138529 253.835509 
L 186.401389 249.137979 
L 188.032819 246.493905 
L 189.664249 243.603417 
L 191.295678 240.435672 
L 192.927108 236.967587 
L 194.558538 233.185814 
L 196.189968 229.088238 
L 199.452828 219.998067 
L 202.715688 209.920004 
L 209.241407 188.391409 
L 214.135697 172.728605 
L 217.398556 163.039341 
L 220.661416 153.977977 
L 225.555706 141.175746 
L 240.238575 103.778578 
L 243.501434 96.352016 
L 245.132864 92.997656 
L 246.764294 89.939526 
L 248.395724 87.213538 
L 250.027154 84.848166 
L 251.658584 82.863214 
L 253.290014 81.268938 
L 254.921444 80.065528 
L 256.552873 79.242957 
L 258.184303 78.781226 
L 259.815733 78.651079 
L 261.447163 78.815211 
L 263.078593 79.230033 
L 264.710023 79.847982 
L 267.972883 81.500198 
L 274.498602 85.406396 
L 279.392892 88.524272 
L 281.024322 89.720726 
L 282.655751 91.076268 
L 284.287181 92.647365 
L 285.918611 94.49008 
L 287.550041 96.655758 
L 289.181471 99.187085 
L 290.812901 102.114853 
L 292.444331 105.455693 
L 294.075761 109.210923 
L 295.70719 113.366567 
L 297.33862 117.894483 
L 300.60148 127.896932 
L 303.86434 138.804661 
L 315.284349 178.138544 
L 320.178639 193.752434 
L 325.072928 208.44076 
L 329.967218 222.386374 
L 334.861508 235.620085 
L 338.124367 243.928306 
L 341.387227 251.662801 
L 344.650087 258.658919 
L 347.912947 264.775279 
L 349.544376 267.47645 
L 351.175806 269.936367 
L 352.807236 272.160561 
L 354.438666 274.160903 
L 356.070096 275.955056 
L 357.701526 277.565533 
L 360.964386 280.342029 
L 364.227245 282.715836 
L 378.910114 292.775855 
L 385.435834 297.450503 
L 388.698693 299.603641 
L 391.961553 301.525872 
L 395.224413 303.162723 
L 398.487273 304.489601 
L 398.487273 304.489601 
" clip-path="url(#p7a02768855)" style="fill: none; stroke: #1f77b4; stroke-width: 1.5; stroke-linecap: square"/>
   </g>
   <g id="patch_59">
    <path d="M 57.6 307.584 
L 57.6 41.472 
" style="fill: none; stroke: #000000; stroke-width: 0.8; stroke-linejoin: miter; stroke-linecap: square"/>
   </g>
   <g id="patch_60">
    <path d="M 414.72 307.584 
L 414.72 41.472 
" style="fill: none; stroke: #000000; stroke-width: 0.8; stroke-linejoin: miter; stroke-linecap: square"/>
   </g>
   <g id="patch_61">
    <path d="M 57.6 307.584 
L 414.72 307.584 
" style="fill: none; stroke: #000000; stroke-width: 0.8; stroke-linejoin: miter; stroke-linecap: square"/>
   </g>
   <g id="patch_62">
    <path d="M 57.6 41.472 
L 414.72 41.472 
" style="fill: none; stroke: #000000; stroke-width: 0.8; stroke-linejoin: miter; stroke-linecap: square"/>
   </g>
   <g id="legend_1">
    <g id="patch_63">
     <path d="M 64.6 79.3845 
L 207.935937 79.3845 
Q 209.935937 79.3845 209.935937 77.3845 
L 209.935937 48.472 
Q 209.935937 46.472 207.935937 46.472 
L 64.6 46.472 
Q 62.6 46.472 62.6 48.472 
L 62.6 77.3845 
Q 62.6 79.3845 64.6 79.3845 
z
" style="fill: #ffffff; opacity: 0.8; stroke: #cccccc; stroke-linejoin: miter"/>
    </g>
    <g id="patch_64">
     <path d="M 66.6 58.070438 
L 86.6 58.070438 
L 86.6 51.070438 
L 66.6 51.070438 
z
" style="fill: #1f77b4; fill-opacity: 0.5; stroke: #000000; stroke-linejoin: miter"/>
    </g>
    <g id="text_13">
     <!-- padding_length = 384 -->
     <g transform="translate(94.6 58.070438) scale(0.1 -0.1)">
      <defs>
       <path id="DejaVuSans-70" d="M 1159 525 
L 1159 -1331 
L 581 -1331 
L 581 3500 
L 1159 3500 
L 1159 2969 
Q 1341 3281 1617 3432 
Q 1894 3584 2278 3584 
Q 2916 3584 3314 3078 
Q 3713 2572 3713 1747 
Q 3713 922 3314 415 
Q 2916 -91 2278 -91 
Q 1894 -91 1617 61 
Q 1341 213 1159 525 
z
M 3116 1747 
Q 3116 2381 2855 2742 
Q 2594 3103 2138 3103 
Q 1681 3103 1420 2742 
Q 1159 2381 1159 1747 
Q 1159 1113 1420 752 
Q 1681 391 2138 391 
Q 2594 391 2855 752 
Q 3116 1113 3116 1747 
z
" transform="scale(0.015625)"/>
       <path id="DejaVuSans-61" d="M 2194 1759 
Q 1497 1759 1228 1600 
Q 959 1441 959 1056 
Q 959 750 1161 570 
Q 1363 391 1709 391 
Q 2188 391 2477 730 
Q 2766 1069 2766 1631 
L 2766 1759 
L 2194 1759 
z
M 3341 1997 
L 3341 0 
L 2766 0 
L 2766 531 
Q 2569 213 2275 61 
Q 1981 -91 1556 -91 
Q 1019 -91 701 211 
Q 384 513 384 1019 
Q 384 1609 779 1909 
Q 1175 2209 1959 2209 
L 2766 2209 
L 2766 2266 
Q 2766 2663 2505 2880 
Q 2244 3097 1772 3097 
Q 1472 3097 1187 3025 
Q 903 2953 641 2809 
L 641 3341 
Q 956 3463 1253 3523 
Q 1550 3584 1831 3584 
Q 2591 3584 2966 3190 
Q 3341 2797 3341 1997 
z
" transform="scale(0.015625)"/>
       <path id="DejaVuSans-64" d="M 2906 2969 
L 2906 4863 
L 3481 4863 
L 3481 0 
L 2906 0 
L 2906 525 
Q 2725 213 2448 61 
Q 2172 -91 1784 -91 
Q 1150 -91 751 415 
Q 353 922 353 1747 
Q 353 2572 751 3078 
Q 1150 3584 1784 3584 
Q 2172 3584 2448 3432 
Q 2725 3281 2906 2969 
z
M 947 1747 
Q 947 1113 1208 752 
Q 1469 391 1925 391 
Q 2381 391 2643 752 
Q 2906 1113 2906 1747 
Q 2906 2381 2643 2742 
Q 2381 3103 1925 3103 
Q 1469 3103 1208 2742 
Q 947 2381 947 1747 
z
" transform="scale(0.015625)"/>
       <path id="DejaVuSans-69" d="M 603 3500 
L 1178 3500 
L 1178 0 
L 603 0 
L 603 3500 
z
M 603 4863 
L 1178 4863 
L 1178 4134 
L 603 4134 
L 603 4863 
z
" transform="scale(0.015625)"/>
       <path id="DejaVuSans-67" d="M 2906 1791 
Q 2906 2416 2648 2759 
Q 2391 3103 1925 3103 
Q 1463 3103 1205 2759 
Q 947 2416 947 1791 
Q 947 1169 1205 825 
Q 1463 481 1925 481 
Q 2391 481 2648 825 
Q 2906 1169 2906 1791 
z
M 3481 434 
Q 3481 -459 3084 -895 
Q 2688 -1331 1869 -1331 
Q 1566 -1331 1297 -1286 
Q 1028 -1241 775 -1147 
L 775 -588 
Q 1028 -725 1275 -790 
Q 1522 -856 1778 -856 
Q 2344 -856 2625 -561 
Q 2906 -266 2906 331 
L 2906 616 
Q 2728 306 2450 153 
Q 2172 0 1784 0 
Q 1141 0 747 490 
Q 353 981 353 1791 
Q 353 2603 747 3093 
Q 1141 3584 1784 3584 
Q 2172 3584 2450 3431 
Q 2728 3278 2906 2969 
L 2906 3500 
L 3481 3500 
L 3481 434 
z
" transform="scale(0.015625)"/>
       <path id="DejaVuSans-5f" d="M 3263 -1063 
L 3263 -1509 
L -63 -1509 
L -63 -1063 
L 3263 -1063 
z
" transform="scale(0.015625)"/>
       <path id="DejaVuSans-6c" d="M 603 4863 
L 1178 4863 
L 1178 0 
L 603 0 
L 603 4863 
z
" transform="scale(0.015625)"/>
       <path id="DejaVuSans-65" d="M 3597 1894 
L 3597 1613 
L 953 1613 
Q 991 1019 1311 708 
Q 1631 397 2203 397 
Q 2534 397 2845 478 
Q 3156 559 3463 722 
L 3463 178 
Q 3153 47 2828 -22 
Q 2503 -91 2169 -91 
Q 1331 -91 842 396 
Q 353 884 353 1716 
Q 353 2575 817 3079 
Q 1281 3584 2069 3584 
Q 2775 3584 3186 3129 
Q 3597 2675 3597 1894 
z
M 3022 2063 
Q 3016 2534 2758 2815 
Q 2500 3097 2075 3097 
Q 1594 3097 1305 2825 
Q 1016 2553 972 2059 
L 3022 2063 
z
" transform="scale(0.015625)"/>
       <path id="DejaVuSans-68" d="M 3513 2113 
L 3513 0 
L 2938 0 
L 2938 2094 
Q 2938 2591 2744 2837 
Q 2550 3084 2163 3084 
Q 1697 3084 1428 2787 
Q 1159 2491 1159 1978 
L 1159 0 
L 581 0 
L 581 4863 
L 1159 4863 
L 1159 2956 
Q 1366 3272 1645 3428 
Q 1925 3584 2291 3584 
Q 2894 3584 3203 3211 
Q 3513 2838 3513 2113 
z
" transform="scale(0.015625)"/>
       <path id="DejaVuSans-20" transform="scale(0.015625)"/>
       <path id="DejaVuSans-3d" d="M 678 2906 
L 4684 2906 
L 4684 2381 
L 678 2381 
L 678 2906 
z
M 678 1631 
L 4684 1631 
L 4684 1100 
L 678 1100 
L 678 1631 
z
" transform="scale(0.015625)"/>
      </defs>
      <use xlink:href="#DejaVuSans-70"/>
      <use xlink:href="#DejaVuSans-61" x="63.476562"/>
      <use xlink:href="#DejaVuSans-64" x="124.755859"/>
      <use xlink:href="#DejaVuSans-64" x="188.232422"/>
      <use xlink:href="#DejaVuSans-69" x="251.708984"/>
      <use xlink:href="#DejaVuSans-6e" x="279.492188"/>
      <use xlink:href="#DejaVuSans-67" x="342.871094"/>
      <use xlink:href="#DejaVuSans-5f" x="406.347656"/>
      <use xlink:href="#DejaVuSans-6c" x="456.347656"/>
      <use xlink:href="#DejaVuSans-65" x="484.130859"/>
      <use xlink:href="#DejaVuSans-6e" x="545.654297"/>
      <use xlink:href="#DejaVuSans-67" x="609.033203"/>
      <use xlink:href="#DejaVuSans-74" x="672.509766"/>
      <use xlink:href="#DejaVuSans-68" x="711.71875"/>
      <use xlink:href="#DejaVuSans-20" x="775.097656"/>
      <use xlink:href="#DejaVuSans-3d" x="806.884766"/>
      <use xlink:href="#DejaVuSans-20" x="890.673828"/>
      <use xlink:href="#DejaVuSans-33" x="922.460938"/>
      <use xlink:href="#DejaVuSans-38" x="986.083984"/>
      <use xlink:href="#DejaVuSans-34" x="1049.707031"/>
     </g>
    </g>
    <g id="patch_65">
     <path d="M 66.6 73.026688 
L 86.6 73.026688 
L 86.6 66.026688 
L 66.6 66.026688 
z
" style="fill: #ff7f0e; fill-opacity: 0.5; stroke: #000000; stroke-linejoin: miter"/>
    </g>
    <g id="text_14">
     <!-- padding_length = 128 -->
     <g transform="translate(94.6 73.026688) scale(0.1 -0.1)">
      <use xlink:href="#DejaVuSans-70"/>
      <use xlink:href="#DejaVuSans-61" x="63.476562"/>
      <use xlink:href="#DejaVuSans-64" x="124.755859"/>
      <use xlink:href="#DejaVuSans-64" x="188.232422"/>
      <use xlink:href="#DejaVuSans-69" x="251.708984"/>
      <use xlink:href="#DejaVuSans-6e" x="279.492188"/>
      <use xlink:href="#DejaVuSans-67" x="342.871094"/>
      <use xlink:href="#DejaVuSans-5f" x="406.347656"/>
      <use xlink:href="#DejaVuSans-6c" x="456.347656"/>
      <use xlink:href="#DejaVuSans-65" x="484.130859"/>
      <use xlink:href="#DejaVuSans-6e" x="545.654297"/>
      <use xlink:href="#DejaVuSans-67" x="609.033203"/>
      <use xlink:href="#DejaVuSans-74" x="672.509766"/>
      <use xlink:href="#DejaVuSans-68" x="711.71875"/>
      <use xlink:href="#DejaVuSans-20" x="775.097656"/>
      <use xlink:href="#DejaVuSans-3d" x="806.884766"/>
      <use xlink:href="#DejaVuSans-20" x="890.673828"/>
      <use xlink:href="#DejaVuSans-31" x="922.460938"/>
      <use xlink:href="#DejaVuSans-32" x="986.083984"/>
      <use xlink:href="#DejaVuSans-38" x="1049.707031"/>
     </g>
    </g>
   </g>
  </g>
  <g id="text_15">
   <!-- stock_False_albert-base-v2_False -->
   <g transform="translate(131.840625 16.030125) scale(0.12 -0.12)">
    <defs>
     <path id="DejaVuSans-73" d="M 2834 3397 
L 2834 2853 
Q 2591 2978 2328 3040 
Q 2066 3103 1784 3103 
Q 1356 3103 1142 2972 
Q 928 2841 928 2578 
Q 928 2378 1081 2264 
Q 1234 2150 1697 2047 
L 1894 2003 
Q 2506 1872 2764 1633 
Q 3022 1394 3022 966 
Q 3022 478 2636 193 
Q 2250 -91 1575 -91 
Q 1294 -91 989 -36 
Q 684 19 347 128 
L 347 722 
Q 666 556 975 473 
Q 1284 391 1588 391 
Q 1994 391 2212 530 
Q 2431 669 2431 922 
Q 2431 1156 2273 1281 
Q 2116 1406 1581 1522 
L 1381 1569 
Q 847 1681 609 1914 
Q 372 2147 372 2553 
Q 372 3047 722 3315 
Q 1072 3584 1716 3584 
Q 2034 3584 2315 3537 
Q 2597 3491 2834 3397 
z
" transform="scale(0.015625)"/>
     <path id="DejaVuSans-63" d="M 3122 3366 
L 3122 2828 
Q 2878 2963 2633 3030 
Q 2388 3097 2138 3097 
Q 1578 3097 1268 2742 
Q 959 2388 959 1747 
Q 959 1106 1268 751 
Q 1578 397 2138 397 
Q 2388 397 2633 464 
Q 2878 531 3122 666 
L 3122 134 
Q 2881 22 2623 -34 
Q 2366 -91 2075 -91 
Q 1284 -91 818 406 
Q 353 903 353 1747 
Q 353 2603 823 3093 
Q 1294 3584 2113 3584 
Q 2378 3584 2631 3529 
Q 2884 3475 3122 3366 
z
" transform="scale(0.015625)"/>
     <path id="DejaVuSans-6b" d="M 581 4863 
L 1159 4863 
L 1159 1991 
L 2875 3500 
L 3609 3500 
L 1753 1863 
L 3688 0 
L 2938 0 
L 1159 1709 
L 1159 0 
L 581 0 
L 581 4863 
z
" transform="scale(0.015625)"/>
     <path id="DejaVuSans-46" d="M 628 4666 
L 3309 4666 
L 3309 4134 
L 1259 4134 
L 1259 2759 
L 3109 2759 
L 3109 2228 
L 1259 2228 
L 1259 0 
L 628 0 
L 628 4666 
z
" transform="scale(0.015625)"/>
     <path id="DejaVuSans-62" d="M 3116 1747 
Q 3116 2381 2855 2742 
Q 2594 3103 2138 3103 
Q 1681 3103 1420 2742 
Q 1159 2381 1159 1747 
Q 1159 1113 1420 752 
Q 1681 391 2138 391 
Q 2594 391 2855 752 
Q 3116 1113 3116 1747 
z
M 1159 2969 
Q 1341 3281 1617 3432 
Q 1894 3584 2278 3584 
Q 2916 3584 3314 3078 
Q 3713 2572 3713 1747 
Q 3713 922 3314 415 
Q 2916 -91 2278 -91 
Q 1894 -91 1617 61 
Q 1341 213 1159 525 
L 1159 0 
L 581 0 
L 581 4863 
L 1159 4863 
L 1159 2969 
z
" transform="scale(0.015625)"/>
     <path id="DejaVuSans-72" d="M 2631 2963 
Q 2534 3019 2420 3045 
Q 2306 3072 2169 3072 
Q 1681 3072 1420 2755 
Q 1159 2438 1159 1844 
L 1159 0 
L 581 0 
L 581 3500 
L 1159 3500 
L 1159 2956 
Q 1341 3275 1631 3429 
Q 1922 3584 2338 3584 
Q 2397 3584 2469 3576 
Q 2541 3569 2628 3553 
L 2631 2963 
z
" transform="scale(0.015625)"/>
     <path id="DejaVuSans-2d" d="M 313 2009 
L 1997 2009 
L 1997 1497 
L 313 1497 
L 313 2009 
z
" transform="scale(0.015625)"/>
     <path id="DejaVuSans-76" d="M 191 3500 
L 800 3500 
L 1894 563 
L 2988 3500 
L 3597 3500 
L 2284 0 
L 1503 0 
L 191 3500 
z
" transform="scale(0.015625)"/>
    </defs>
    <use xlink:href="#DejaVuSans-73"/>
    <use xlink:href="#DejaVuSans-74" x="52.099609"/>
    <use xlink:href="#DejaVuSans-6f" x="91.308594"/>
    <use xlink:href="#DejaVuSans-63" x="152.490234"/>
    <use xlink:href="#DejaVuSans-6b" x="207.470703"/>
    <use xlink:href="#DejaVuSans-5f" x="265.380859"/>
    <use xlink:href="#DejaVuSans-46" x="315.380859"/>
    <use xlink:href="#DejaVuSans-61" x="363.775391"/>
    <use xlink:href="#DejaVuSans-6c" x="425.054688"/>
    <use xlink:href="#DejaVuSans-73" x="452.837891"/>
    <use xlink:href="#DejaVuSans-65" x="504.9375"/>
    <use xlink:href="#DejaVuSans-5f" x="566.460938"/>
    <use xlink:href="#DejaVuSans-61" x="616.460938"/>
    <use xlink:href="#DejaVuSans-6c" x="677.740234"/>
    <use xlink:href="#DejaVuSans-62" x="705.523438"/>
    <use xlink:href="#DejaVuSans-65" x="769"/>
    <use xlink:href="#DejaVuSans-72" x="830.523438"/>
    <use xlink:href="#DejaVuSans-74" x="871.636719"/>
    <use xlink:href="#DejaVuSans-2d" x="910.845703"/>
    <use xlink:href="#DejaVuSans-62" x="946.929688"/>
    <use xlink:href="#DejaVuSans-61" x="1010.40625"/>
    <use xlink:href="#DejaVuSans-73" x="1071.685547"/>
    <use xlink:href="#DejaVuSans-65" x="1123.785156"/>
    <use xlink:href="#DejaVuSans-2d" x="1185.308594"/>
    <use xlink:href="#DejaVuSans-76" x="1218.767578"/>
    <use xlink:href="#DejaVuSans-32" x="1277.947266"/>
    <use xlink:href="#DejaVuSans-5f" x="1341.570312"/>
    <use xlink:href="#DejaVuSans-46" x="1391.570312"/>
    <use xlink:href="#DejaVuSans-61" x="1439.964844"/>
    <use xlink:href="#DejaVuSans-6c" x="1501.244141"/>
    <use xlink:href="#DejaVuSans-73" x="1529.027344"/>
    <use xlink:href="#DejaVuSans-65" x="1581.126953"/>
   </g>
  </g>
 </g>
 <defs>
  <clipPath id="p7a02768855">
   <rect x="57.6" y="41.472" width="357.12" height="266.112"/>
  </clipPath>
 </defs>
</svg>
