<?xml version="1.0" encoding="utf-8" standalone="no"?>
<!DOCTYPE svg PUBLIC "-//W3C//DTD SVG 1.1//EN"
  "http://www.w3.org/Graphics/SVG/1.1/DTD/svg11.dtd">
<svg xmlns:xlink="http://www.w3.org/1999/xlink" width="460.8pt" height="345.6pt" viewBox="0 0 460.8 345.6" xmlns="http://www.w3.org/2000/svg" version="1.1">
 <metadata>
  <rdf:RDF xmlns:dc="http://purl.org/dc/elements/1.1/" xmlns:cc="http://creativecommons.org/ns#" xmlns:rdf="http://www.w3.org/1999/02/22-rdf-syntax-ns#">
   <cc:Work>
    <dc:type rdf:resource="http://purl.org/dc/dcmitype/StillImage"/>
    <dc:date>2024-03-07T15:39:49.421679</dc:date>
    <dc:format>image/svg+xml</dc:format>
    <dc:creator>
     <cc:Agent>
      <dc:title>Matplotlib v3.6.3, https://matplotlib.org/</dc:title>
     </cc:Agent>
    </dc:creator>
   </cc:Work>
  </rdf:RDF>
 </metadata>
 <defs>
  <style type="text/css">*{stroke-linejoin: round; stroke-linecap: butt}</style>
 </defs>
 <g id="figure_1">
  <g id="patch_1">
   <path d="M 0 345.6 
L 460.8 345.6 
L 460.8 0 
L 0 0 
z
" style="fill: #ffffff"/>
  </g>
  <g id="axes_1">
   <g id="patch_2">
    <path d="M 57.6 307.584 
L 414.72 307.584 
L 414.72 41.472 
L 57.6 41.472 
z
" style="fill: #ffffff"/>
   </g>
   <g id="patch_3">
    <path d="M 73.832727 307.584 
L 84.654545 307.584 
L 84.654545 307.584 
L 73.832727 307.584 
z
" clip-path="url(#pfd505d0916)" style="fill: #ff7f0e; fill-opacity: 0.5; stroke: #000000; stroke-linejoin: miter"/>
   </g>
   <g id="patch_4">
    <path d="M 84.654545 307.584 
L 95.476364 307.584 
L 95.476364 307.584 
L 84.654545 307.584 
z
" clip-path="url(#pfd505d0916)" style="fill: #ff7f0e; fill-opacity: 0.5; stroke: #000000; stroke-linejoin: miter"/>
   </g>
   <g id="patch_5">
    <path d="M 95.476364 307.584 
L 106.298182 307.584 
L 106.298182 307.584 
L 95.476364 307.584 
z
" clip-path="url(#pfd505d0916)" style="fill: #ff7f0e; fill-opacity: 0.5; stroke: #000000; stroke-linejoin: miter"/>
   </g>
   <g id="patch_6">
    <path d="M 106.298182 307.584 
L 117.12 307.584 
L 117.12 307.584 
L 106.298182 307.584 
z
" clip-path="url(#pfd505d0916)" style="fill: #ff7f0e; fill-opacity: 0.5; stroke: #000000; stroke-linejoin: miter"/>
   </g>
   <g id="patch_7">
    <path d="M 117.12 307.584 
L 127.941818 307.584 
L 127.941818 303.684923 
L 117.12 303.684923 
z
" clip-path="url(#pfd505d0916)" style="fill: #ff7f0e; fill-opacity: 0.5; stroke: #000000; stroke-linejoin: miter"/>
   </g>
   <g id="patch_8">
    <path d="M 127.941818 307.584 
L 138.763636 307.584 
L 138.763636 303.684923 
L 127.941818 303.684923 
z
" clip-path="url(#pfd505d0916)" style="fill: #ff7f0e; fill-opacity: 0.5; stroke: #000000; stroke-linejoin: miter"/>
   </g>
   <g id="patch_9">
    <path d="M 138.763636 307.584 
L 149.585455 307.584 
L 149.585455 288.088615 
L 138.763636 288.088615 
z
" clip-path="url(#pfd505d0916)" style="fill: #ff7f0e; fill-opacity: 0.5; stroke: #000000; stroke-linejoin: miter"/>
   </g>
   <g id="patch_10">
    <path d="M 149.585455 307.584 
L 160.407273 307.584 
L 160.407273 284.189538 
L 149.585455 284.189538 
z
" clip-path="url(#pfd505d0916)" style="fill: #ff7f0e; fill-opacity: 0.5; stroke: #000000; stroke-linejoin: miter"/>
   </g>
   <g id="patch_11">
    <path d="M 160.407273 307.584 
L 171.229091 307.584 
L 171.229091 268.593231 
L 160.407273 268.593231 
z
" clip-path="url(#pfd505d0916)" style="fill: #ff7f0e; fill-opacity: 0.5; stroke: #000000; stroke-linejoin: miter"/>
   </g>
   <g id="patch_12">
    <path d="M 171.229091 307.584 
L 182.050909 307.584 
L 182.050909 280.290462 
L 171.229091 280.290462 
z
" clip-path="url(#pfd505d0916)" style="fill: #ff7f0e; fill-opacity: 0.5; stroke: #000000; stroke-linejoin: miter"/>
   </g>
   <g id="patch_13">
    <path d="M 182.050909 307.584 
L 192.872727 307.584 
L 192.872727 214.006154 
L 182.050909 214.006154 
z
" clip-path="url(#pfd505d0916)" style="fill: #ff7f0e; fill-opacity: 0.5; stroke: #000000; stroke-linejoin: miter"/>
   </g>
   <g id="patch_14">
    <path d="M 192.872727 307.584 
L 203.694545 307.584 
L 203.694545 229.602462 
L 192.872727 229.602462 
z
" clip-path="url(#pfd505d0916)" style="fill: #ff7f0e; fill-opacity: 0.5; stroke: #000000; stroke-linejoin: miter"/>
   </g>
   <g id="patch_15">
    <path d="M 203.694545 307.584 
L 214.516364 307.584 
L 214.516364 186.712615 
L 203.694545 186.712615 
z
" clip-path="url(#pfd505d0916)" style="fill: #ff7f0e; fill-opacity: 0.5; stroke: #000000; stroke-linejoin: miter"/>
   </g>
   <g id="patch_16">
    <path d="M 214.516364 307.584 
L 225.338182 307.584 
L 225.338182 163.318154 
L 214.516364 163.318154 
z
" clip-path="url(#pfd505d0916)" style="fill: #ff7f0e; fill-opacity: 0.5; stroke: #000000; stroke-linejoin: miter"/>
   </g>
   <g id="patch_17">
    <path d="M 225.338182 307.584 
L 236.16 307.584 
L 236.16 108.731077 
L 225.338182 108.731077 
z
" clip-path="url(#pfd505d0916)" style="fill: #ff7f0e; fill-opacity: 0.5; stroke: #000000; stroke-linejoin: miter"/>
   </g>
   <g id="patch_18">
    <path d="M 236.16 307.584 
L 246.981818 307.584 
L 246.981818 73.639385 
L 236.16 73.639385 
z
" clip-path="url(#pfd505d0916)" style="fill: #ff7f0e; fill-opacity: 0.5; stroke: #000000; stroke-linejoin: miter"/>
   </g>
   <g id="patch_19">
    <path d="M 246.981818 307.584 
L 257.803636 307.584 
L 257.803636 89.235692 
L 246.981818 89.235692 
z
" clip-path="url(#pfd505d0916)" style="fill: #ff7f0e; fill-opacity: 0.5; stroke: #000000; stroke-linejoin: miter"/>
   </g>
   <g id="patch_20">
    <path d="M 257.803636 307.584 
L 268.625455 307.584 
L 268.625455 143.822769 
L 257.803636 143.822769 
z
" clip-path="url(#pfd505d0916)" style="fill: #ff7f0e; fill-opacity: 0.5; stroke: #000000; stroke-linejoin: miter"/>
   </g>
   <g id="patch_21">
    <path d="M 268.625455 307.584 
L 279.447273 307.584 
L 279.447273 143.822769 
L 268.625455 143.822769 
z
" clip-path="url(#pfd505d0916)" style="fill: #ff7f0e; fill-opacity: 0.5; stroke: #000000; stroke-linejoin: miter"/>
   </g>
   <g id="patch_22">
    <path d="M 279.447273 307.584 
L 290.269091 307.584 
L 290.269091 151.620923 
L 279.447273 151.620923 
z
" clip-path="url(#pfd505d0916)" style="fill: #ff7f0e; fill-opacity: 0.5; stroke: #000000; stroke-linejoin: miter"/>
   </g>
   <g id="patch_23">
    <path d="M 290.269091 307.584 
L 301.090909 307.584 
L 301.090909 206.208 
L 290.269091 206.208 
z
" clip-path="url(#pfd505d0916)" style="fill: #ff7f0e; fill-opacity: 0.5; stroke: #000000; stroke-linejoin: miter"/>
   </g>
   <g id="patch_24">
    <path d="M 301.090909 307.584 
L 311.912727 307.584 
L 311.912727 237.400615 
L 301.090909 237.400615 
z
" clip-path="url(#pfd505d0916)" style="fill: #ff7f0e; fill-opacity: 0.5; stroke: #000000; stroke-linejoin: miter"/>
   </g>
   <g id="patch_25">
    <path d="M 311.912727 307.584 
L 322.734545 307.584 
L 322.734545 268.593231 
L 311.912727 268.593231 
z
" clip-path="url(#pfd505d0916)" style="fill: #ff7f0e; fill-opacity: 0.5; stroke: #000000; stroke-linejoin: miter"/>
   </g>
   <g id="patch_26">
    <path d="M 322.734545 307.584 
L 333.556364 307.584 
L 333.556364 280.290462 
L 322.734545 280.290462 
z
" clip-path="url(#pfd505d0916)" style="fill: #ff7f0e; fill-opacity: 0.5; stroke: #000000; stroke-linejoin: miter"/>
   </g>
   <g id="patch_27">
    <path d="M 333.556364 307.584 
L 344.378182 307.584 
L 344.378182 295.886769 
L 333.556364 295.886769 
z
" clip-path="url(#pfd505d0916)" style="fill: #ff7f0e; fill-opacity: 0.5; stroke: #000000; stroke-linejoin: miter"/>
   </g>
   <g id="patch_28">
    <path d="M 344.378182 307.584 
L 355.2 307.584 
L 355.2 299.785846 
L 344.378182 299.785846 
z
" clip-path="url(#pfd505d0916)" style="fill: #ff7f0e; fill-opacity: 0.5; stroke: #000000; stroke-linejoin: miter"/>
   </g>
   <g id="patch_29">
    <path d="M 355.2 307.584 
L 366.021818 307.584 
L 366.021818 307.584 
L 355.2 307.584 
z
" clip-path="url(#pfd505d0916)" style="fill: #ff7f0e; fill-opacity: 0.5; stroke: #000000; stroke-linejoin: miter"/>
   </g>
   <g id="patch_30">
    <path d="M 366.021818 307.584 
L 376.843636 307.584 
L 376.843636 303.684923 
L 366.021818 303.684923 
z
" clip-path="url(#pfd505d0916)" style="fill: #ff7f0e; fill-opacity: 0.5; stroke: #000000; stroke-linejoin: miter"/>
   </g>
   <g id="patch_31">
    <path d="M 376.843636 307.584 
L 387.665455 307.584 
L 387.665455 307.584 
L 376.843636 307.584 
z
" clip-path="url(#pfd505d0916)" style="fill: #ff7f0e; fill-opacity: 0.5; stroke: #000000; stroke-linejoin: miter"/>
   </g>
   <g id="patch_32">
    <path d="M 387.665455 307.584 
L 398.487273 307.584 
L 398.487273 307.584 
L 387.665455 307.584 
z
" clip-path="url(#pfd505d0916)" style="fill: #ff7f0e; fill-opacity: 0.5; stroke: #000000; stroke-linejoin: miter"/>
   </g>
   <g id="patch_33">
    <path d="M 73.832727 307.584 
L 84.654545 307.584 
L 84.654545 303.684923 
L 73.832727 303.684923 
z
" clip-path="url(#pfd505d0916)" style="fill: #1f77b4; fill-opacity: 0.5; stroke: #000000; stroke-linejoin: miter"/>
   </g>
   <g id="patch_34">
    <path d="M 84.654545 307.584 
L 95.476364 307.584 
L 95.476364 303.684923 
L 84.654545 303.684923 
z
" clip-path="url(#pfd505d0916)" style="fill: #1f77b4; fill-opacity: 0.5; stroke: #000000; stroke-linejoin: miter"/>
   </g>
   <g id="patch_35">
    <path d="M 95.476364 307.584 
L 106.298182 307.584 
L 106.298182 307.584 
L 95.476364 307.584 
z
" clip-path="url(#pfd505d0916)" style="fill: #1f77b4; fill-opacity: 0.5; stroke: #000000; stroke-linejoin: miter"/>
   </g>
   <g id="patch_36">
    <path d="M 106.298182 307.584 
L 117.12 307.584 
L 117.12 299.785846 
L 106.298182 299.785846 
z
" clip-path="url(#pfd505d0916)" style="fill: #1f77b4; fill-opacity: 0.5; stroke: #000000; stroke-linejoin: miter"/>
   </g>
   <g id="patch_37">
    <path d="M 117.12 307.584 
L 127.941818 307.584 
L 127.941818 307.584 
L 117.12 307.584 
z
" clip-path="url(#pfd505d0916)" style="fill: #1f77b4; fill-opacity: 0.5; stroke: #000000; stroke-linejoin: miter"/>
   </g>
   <g id="patch_38">
    <path d="M 127.941818 307.584 
L 138.763636 307.584 
L 138.763636 303.684923 
L 127.941818 303.684923 
z
" clip-path="url(#pfd505d0916)" style="fill: #1f77b4; fill-opacity: 0.5; stroke: #000000; stroke-linejoin: miter"/>
   </g>
   <g id="patch_39">
    <path d="M 138.763636 307.584 
L 149.585455 307.584 
L 149.585455 288.088615 
L 138.763636 288.088615 
z
" clip-path="url(#pfd505d0916)" style="fill: #1f77b4; fill-opacity: 0.5; stroke: #000000; stroke-linejoin: miter"/>
   </g>
   <g id="patch_40">
    <path d="M 149.585455 307.584 
L 160.407273 307.584 
L 160.407273 284.189538 
L 149.585455 284.189538 
z
" clip-path="url(#pfd505d0916)" style="fill: #1f77b4; fill-opacity: 0.5; stroke: #000000; stroke-linejoin: miter"/>
   </g>
   <g id="patch_41">
    <path d="M 160.407273 307.584 
L 171.229091 307.584 
L 171.229091 264.694154 
L 160.407273 264.694154 
z
" clip-path="url(#pfd505d0916)" style="fill: #1f77b4; fill-opacity: 0.5; stroke: #000000; stroke-linejoin: miter"/>
   </g>
   <g id="patch_42">
    <path d="M 171.229091 307.584 
L 182.050909 307.584 
L 182.050909 252.996923 
L 171.229091 252.996923 
z
" clip-path="url(#pfd505d0916)" style="fill: #1f77b4; fill-opacity: 0.5; stroke: #000000; stroke-linejoin: miter"/>
   </g>
   <g id="patch_43">
    <path d="M 182.050909 307.584 
L 192.872727 307.584 
L 192.872727 241.299692 
L 182.050909 241.299692 
z
" clip-path="url(#pfd505d0916)" style="fill: #1f77b4; fill-opacity: 0.5; stroke: #000000; stroke-linejoin: miter"/>
   </g>
   <g id="patch_44">
    <path d="M 192.872727 307.584 
L 203.694545 307.584 
L 203.694545 202.308923 
L 192.872727 202.308923 
z
" clip-path="url(#pfd505d0916)" style="fill: #1f77b4; fill-opacity: 0.5; stroke: #000000; stroke-linejoin: miter"/>
   </g>
   <g id="patch_45">
    <path d="M 203.694545 307.584 
L 214.516364 307.584 
L 214.516364 171.116308 
L 203.694545 171.116308 
z
" clip-path="url(#pfd505d0916)" style="fill: #1f77b4; fill-opacity: 0.5; stroke: #000000; stroke-linejoin: miter"/>
   </g>
   <g id="patch_46">
    <path d="M 214.516364 307.584 
L 225.338182 307.584 
L 225.338182 108.731077 
L 214.516364 108.731077 
z
" clip-path="url(#pfd505d0916)" style="fill: #1f77b4; fill-opacity: 0.5; stroke: #000000; stroke-linejoin: miter"/>
   </g>
   <g id="patch_47">
    <path d="M 225.338182 307.584 
L 236.16 307.584 
L 236.16 116.529231 
L 225.338182 116.529231 
z
" clip-path="url(#pfd505d0916)" style="fill: #1f77b4; fill-opacity: 0.5; stroke: #000000; stroke-linejoin: miter"/>
   </g>
   <g id="patch_48">
    <path d="M 236.16 307.584 
L 246.981818 307.584 
L 246.981818 54.144 
L 236.16 54.144 
z
" clip-path="url(#pfd505d0916)" style="fill: #1f77b4; fill-opacity: 0.5; stroke: #000000; stroke-linejoin: miter"/>
   </g>
   <g id="patch_49">
    <path d="M 246.981818 307.584 
L 257.803636 307.584 
L 257.803636 124.327385 
L 246.981818 124.327385 
z
" clip-path="url(#pfd505d0916)" style="fill: #1f77b4; fill-opacity: 0.5; stroke: #000000; stroke-linejoin: miter"/>
   </g>
   <g id="patch_50">
    <path d="M 257.803636 307.584 
L 268.625455 307.584 
L 268.625455 163.318154 
L 257.803636 163.318154 
z
" clip-path="url(#pfd505d0916)" style="fill: #1f77b4; fill-opacity: 0.5; stroke: #000000; stroke-linejoin: miter"/>
   </g>
   <g id="patch_51">
    <path d="M 268.625455 307.584 
L 279.447273 307.584 
L 279.447273 202.308923 
L 268.625455 202.308923 
z
" clip-path="url(#pfd505d0916)" style="fill: #1f77b4; fill-opacity: 0.5; stroke: #000000; stroke-linejoin: miter"/>
   </g>
   <g id="patch_52">
    <path d="M 279.447273 307.584 
L 290.269091 307.584 
L 290.269091 163.318154 
L 279.447273 163.318154 
z
" clip-path="url(#pfd505d0916)" style="fill: #1f77b4; fill-opacity: 0.5; stroke: #000000; stroke-linejoin: miter"/>
   </g>
   <g id="patch_53">
    <path d="M 290.269091 307.584 
L 301.090909 307.584 
L 301.090909 206.208 
L 290.269091 206.208 
z
" clip-path="url(#pfd505d0916)" style="fill: #1f77b4; fill-opacity: 0.5; stroke: #000000; stroke-linejoin: miter"/>
   </g>
   <g id="patch_54">
    <path d="M 301.090909 307.584 
L 311.912727 307.584 
L 311.912727 256.896 
L 301.090909 256.896 
z
" clip-path="url(#pfd505d0916)" style="fill: #1f77b4; fill-opacity: 0.5; stroke: #000000; stroke-linejoin: miter"/>
   </g>
   <g id="patch_55">
    <path d="M 311.912727 307.584 
L 322.734545 307.584 
L 322.734545 252.996923 
L 311.912727 252.996923 
z
" clip-path="url(#pfd505d0916)" style="fill: #1f77b4; fill-opacity: 0.5; stroke: #000000; stroke-linejoin: miter"/>
   </g>
   <g id="patch_56">
    <path d="M 322.734545 307.584 
L 333.556364 307.584 
L 333.556364 272.492308 
L 322.734545 272.492308 
z
" clip-path="url(#pfd505d0916)" style="fill: #1f77b4; fill-opacity: 0.5; stroke: #000000; stroke-linejoin: miter"/>
   </g>
   <g id="patch_57">
    <path d="M 333.556364 307.584 
L 344.378182 307.584 
L 344.378182 299.785846 
L 333.556364 299.785846 
z
" clip-path="url(#pfd505d0916)" style="fill: #1f77b4; fill-opacity: 0.5; stroke: #000000; stroke-linejoin: miter"/>
   </g>
   <g id="patch_58">
    <path d="M 344.378182 307.584 
L 355.2 307.584 
L 355.2 303.684923 
L 344.378182 303.684923 
z
" clip-path="url(#pfd505d0916)" style="fill: #1f77b4; fill-opacity: 0.5; stroke: #000000; stroke-linejoin: miter"/>
   </g>
   <g id="patch_59">
    <path d="M 355.2 307.584 
L 366.021818 307.584 
L 366.021818 303.684923 
L 355.2 303.684923 
z
" clip-path="url(#pfd505d0916)" style="fill: #1f77b4; fill-opacity: 0.5; stroke: #000000; stroke-linejoin: miter"/>
   </g>
   <g id="patch_60">
    <path d="M 366.021818 307.584 
L 376.843636 307.584 
L 376.843636 307.584 
L 366.021818 307.584 
z
" clip-path="url(#pfd505d0916)" style="fill: #1f77b4; fill-opacity: 0.5; stroke: #000000; stroke-linejoin: miter"/>
   </g>
   <g id="patch_61">
    <path d="M 376.843636 307.584 
L 387.665455 307.584 
L 387.665455 307.584 
L 376.843636 307.584 
z
" clip-path="url(#pfd505d0916)" style="fill: #1f77b4; fill-opacity: 0.5; stroke: #000000; stroke-linejoin: miter"/>
   </g>
   <g id="patch_62">
    <path d="M 387.665455 307.584 
L 398.487273 307.584 
L 398.487273 303.684923 
L 387.665455 303.684923 
z
" clip-path="url(#pfd505d0916)" style="fill: #1f77b4; fill-opacity: 0.5; stroke: #000000; stroke-linejoin: miter"/>
   </g>
   <g id="matplotlib.axis_1">
    <g id="xtick_1">
     <g id="line2d_1">
      <defs>
       <path id="m2af8f6cd1e" d="M 0 0 
L 0 3.5 
" style="stroke: #000000; stroke-width: 0.8"/>
      </defs>
      <g>
       <use xlink:href="#m2af8f6cd1e" x="81.931466" y="307.584" style="stroke: #000000; stroke-width: 0.8"/>
      </g>
     </g>
     <g id="text_1">
      <!-- 0.890 -->
      <g transform="translate(67.617403 322.182437) scale(0.1 -0.1)">
       <defs>
        <path id="DejaVuSans-30" d="M 2034 4250 
Q 1547 4250 1301 3770 
Q 1056 3291 1056 2328 
Q 1056 1369 1301 889 
Q 1547 409 2034 409 
Q 2525 409 2770 889 
Q 3016 1369 3016 2328 
Q 3016 3291 2770 3770 
Q 2525 4250 2034 4250 
z
M 2034 4750 
Q 2819 4750 3233 4129 
Q 3647 3509 3647 2328 
Q 3647 1150 3233 529 
Q 2819 -91 2034 -91 
Q 1250 -91 836 529 
Q 422 1150 422 2328 
Q 422 3509 836 4129 
Q 1250 4750 2034 4750 
z
" transform="scale(0.015625)"/>
        <path id="DejaVuSans-2e" d="M 684 794 
L 1344 794 
L 1344 0 
L 684 0 
L 684 794 
z
" transform="scale(0.015625)"/>
        <path id="DejaVuSans-38" d="M 2034 2216 
Q 1584 2216 1326 1975 
Q 1069 1734 1069 1313 
Q 1069 891 1326 650 
Q 1584 409 2034 409 
Q 2484 409 2743 651 
Q 3003 894 3003 1313 
Q 3003 1734 2745 1975 
Q 2488 2216 2034 2216 
z
M 1403 2484 
Q 997 2584 770 2862 
Q 544 3141 544 3541 
Q 544 4100 942 4425 
Q 1341 4750 2034 4750 
Q 2731 4750 3128 4425 
Q 3525 4100 3525 3541 
Q 3525 3141 3298 2862 
Q 3072 2584 2669 2484 
Q 3125 2378 3379 2068 
Q 3634 1759 3634 1313 
Q 3634 634 3220 271 
Q 2806 -91 2034 -91 
Q 1263 -91 848 271 
Q 434 634 434 1313 
Q 434 1759 690 2068 
Q 947 2378 1403 2484 
z
M 1172 3481 
Q 1172 3119 1398 2916 
Q 1625 2713 2034 2713 
Q 2441 2713 2670 2916 
Q 2900 3119 2900 3481 
Q 2900 3844 2670 4047 
Q 2441 4250 2034 4250 
Q 1625 4250 1398 4047 
Q 1172 3844 1172 3481 
z
" transform="scale(0.015625)"/>
        <path id="DejaVuSans-39" d="M 703 97 
L 703 672 
Q 941 559 1184 500 
Q 1428 441 1663 441 
Q 2288 441 2617 861 
Q 2947 1281 2994 2138 
Q 2813 1869 2534 1725 
Q 2256 1581 1919 1581 
Q 1219 1581 811 2004 
Q 403 2428 403 3163 
Q 403 3881 828 4315 
Q 1253 4750 1959 4750 
Q 2769 4750 3195 4129 
Q 3622 3509 3622 2328 
Q 3622 1225 3098 567 
Q 2575 -91 1691 -91 
Q 1453 -91 1209 -44 
Q 966 3 703 97 
z
M 1959 2075 
Q 2384 2075 2632 2365 
Q 2881 2656 2881 3163 
Q 2881 3666 2632 3958 
Q 2384 4250 1959 4250 
Q 1534 4250 1286 3958 
Q 1038 3666 1038 3163 
Q 1038 2656 1286 2365 
Q 1534 2075 1959 2075 
z
" transform="scale(0.015625)"/>
       </defs>
       <use xlink:href="#DejaVuSans-30"/>
       <use xlink:href="#DejaVuSans-2e" x="63.623047"/>
       <use xlink:href="#DejaVuSans-38" x="95.410156"/>
       <use xlink:href="#DejaVuSans-39" x="159.033203"/>
       <use xlink:href="#DejaVuSans-30" x="222.65625"/>
      </g>
     </g>
    </g>
    <g id="xtick_2">
     <g id="line2d_2">
      <g>
       <use xlink:href="#m2af8f6cd1e" x="158.603206" y="307.584" style="stroke: #000000; stroke-width: 0.8"/>
      </g>
     </g>
     <g id="text_2">
      <!-- 0.895 -->
      <g transform="translate(144.289143 322.182437) scale(0.1 -0.1)">
       <defs>
        <path id="DejaVuSans-35" d="M 691 4666 
L 3169 4666 
L 3169 4134 
L 1269 4134 
L 1269 2991 
Q 1406 3038 1543 3061 
Q 1681 3084 1819 3084 
Q 2600 3084 3056 2656 
Q 3513 2228 3513 1497 
Q 3513 744 3044 326 
Q 2575 -91 1722 -91 
Q 1428 -91 1123 -41 
Q 819 9 494 109 
L 494 744 
Q 775 591 1075 516 
Q 1375 441 1709 441 
Q 2250 441 2565 725 
Q 2881 1009 2881 1497 
Q 2881 1984 2565 2268 
Q 2250 2553 1709 2553 
Q 1456 2553 1204 2497 
Q 953 2441 691 2322 
L 691 4666 
z
" transform="scale(0.015625)"/>
       </defs>
       <use xlink:href="#DejaVuSans-30"/>
       <use xlink:href="#DejaVuSans-2e" x="63.623047"/>
       <use xlink:href="#DejaVuSans-38" x="95.410156"/>
       <use xlink:href="#DejaVuSans-39" x="159.033203"/>
       <use xlink:href="#DejaVuSans-35" x="222.65625"/>
      </g>
     </g>
    </g>
    <g id="xtick_3">
     <g id="line2d_3">
      <g>
       <use xlink:href="#m2af8f6cd1e" x="235.274945" y="307.584" style="stroke: #000000; stroke-width: 0.8"/>
      </g>
     </g>
     <g id="text_3">
      <!-- 0.900 -->
      <g transform="translate(220.960883 322.182437) scale(0.1 -0.1)">
       <use xlink:href="#DejaVuSans-30"/>
       <use xlink:href="#DejaVuSans-2e" x="63.623047"/>
       <use xlink:href="#DejaVuSans-39" x="95.410156"/>
       <use xlink:href="#DejaVuSans-30" x="159.033203"/>
       <use xlink:href="#DejaVuSans-30" x="222.65625"/>
      </g>
     </g>
    </g>
    <g id="xtick_4">
     <g id="line2d_4">
      <g>
       <use xlink:href="#m2af8f6cd1e" x="311.946685" y="307.584" style="stroke: #000000; stroke-width: 0.8"/>
      </g>
     </g>
     <g id="text_4">
      <!-- 0.905 -->
      <g transform="translate(297.632623 322.182437) scale(0.1 -0.1)">
       <use xlink:href="#DejaVuSans-30"/>
       <use xlink:href="#DejaVuSans-2e" x="63.623047"/>
       <use xlink:href="#DejaVuSans-39" x="95.410156"/>
       <use xlink:href="#DejaVuSans-30" x="159.033203"/>
       <use xlink:href="#DejaVuSans-35" x="222.65625"/>
      </g>
     </g>
    </g>
    <g id="xtick_5">
     <g id="line2d_5">
      <g>
       <use xlink:href="#m2af8f6cd1e" x="388.618425" y="307.584" style="stroke: #000000; stroke-width: 0.8"/>
      </g>
     </g>
     <g id="text_5">
      <!-- 0.910 -->
      <g transform="translate(374.304363 322.182437) scale(0.1 -0.1)">
       <defs>
        <path id="DejaVuSans-31" d="M 794 531 
L 1825 531 
L 1825 4091 
L 703 3866 
L 703 4441 
L 1819 4666 
L 2450 4666 
L 2450 531 
L 3481 531 
L 3481 0 
L 794 0 
L 794 531 
z
" transform="scale(0.015625)"/>
       </defs>
       <use xlink:href="#DejaVuSans-30"/>
       <use xlink:href="#DejaVuSans-2e" x="63.623047"/>
       <use xlink:href="#DejaVuSans-39" x="95.410156"/>
       <use xlink:href="#DejaVuSans-31" x="159.033203"/>
       <use xlink:href="#DejaVuSans-30" x="222.65625"/>
      </g>
     </g>
    </g>
   </g>
   <g id="matplotlib.axis_2">
    <g id="ytick_1">
     <g id="line2d_6">
      <defs>
       <path id="m7df597bb01" d="M 0 0 
L -3.5 0 
" style="stroke: #000000; stroke-width: 0.8"/>
      </defs>
      <g>
       <use xlink:href="#m7df597bb01" x="57.6" y="307.584" style="stroke: #000000; stroke-width: 0.8"/>
      </g>
     </g>
     <g id="text_6">
      <!-- 0 -->
      <g transform="translate(44.2375 311.383219) scale(0.1 -0.1)">
       <use xlink:href="#DejaVuSans-30"/>
      </g>
     </g>
    </g>
    <g id="ytick_2">
     <g id="line2d_7">
      <g>
       <use xlink:href="#m7df597bb01" x="57.6" y="268.593231" style="stroke: #000000; stroke-width: 0.8"/>
      </g>
     </g>
     <g id="text_7">
      <!-- 10 -->
      <g transform="translate(37.875 272.39245) scale(0.1 -0.1)">
       <use xlink:href="#DejaVuSans-31"/>
       <use xlink:href="#DejaVuSans-30" x="63.623047"/>
      </g>
     </g>
    </g>
    <g id="ytick_3">
     <g id="line2d_8">
      <g>
       <use xlink:href="#m7df597bb01" x="57.6" y="229.602462" style="stroke: #000000; stroke-width: 0.8"/>
      </g>
     </g>
     <g id="text_8">
      <!-- 20 -->
      <g transform="translate(37.875 233.40168) scale(0.1 -0.1)">
       <defs>
        <path id="DejaVuSans-32" d="M 1228 531 
L 3431 531 
L 3431 0 
L 469 0 
L 469 531 
Q 828 903 1448 1529 
Q 2069 2156 2228 2338 
Q 2531 2678 2651 2914 
Q 2772 3150 2772 3378 
Q 2772 3750 2511 3984 
Q 2250 4219 1831 4219 
Q 1534 4219 1204 4116 
Q 875 4013 500 3803 
L 500 4441 
Q 881 4594 1212 4672 
Q 1544 4750 1819 4750 
Q 2544 4750 2975 4387 
Q 3406 4025 3406 3419 
Q 3406 3131 3298 2873 
Q 3191 2616 2906 2266 
Q 2828 2175 2409 1742 
Q 1991 1309 1228 531 
z
" transform="scale(0.015625)"/>
       </defs>
       <use xlink:href="#DejaVuSans-32"/>
       <use xlink:href="#DejaVuSans-30" x="63.623047"/>
      </g>
     </g>
    </g>
    <g id="ytick_4">
     <g id="line2d_9">
      <g>
       <use xlink:href="#m7df597bb01" x="57.6" y="190.611692" style="stroke: #000000; stroke-width: 0.8"/>
      </g>
     </g>
     <g id="text_9">
      <!-- 30 -->
      <g transform="translate(37.875 194.410911) scale(0.1 -0.1)">
       <defs>
        <path id="DejaVuSans-33" d="M 2597 2516 
Q 3050 2419 3304 2112 
Q 3559 1806 3559 1356 
Q 3559 666 3084 287 
Q 2609 -91 1734 -91 
Q 1441 -91 1130 -33 
Q 819 25 488 141 
L 488 750 
Q 750 597 1062 519 
Q 1375 441 1716 441 
Q 2309 441 2620 675 
Q 2931 909 2931 1356 
Q 2931 1769 2642 2001 
Q 2353 2234 1838 2234 
L 1294 2234 
L 1294 2753 
L 1863 2753 
Q 2328 2753 2575 2939 
Q 2822 3125 2822 3475 
Q 2822 3834 2567 4026 
Q 2313 4219 1838 4219 
Q 1578 4219 1281 4162 
Q 984 4106 628 3988 
L 628 4550 
Q 988 4650 1302 4700 
Q 1616 4750 1894 4750 
Q 2613 4750 3031 4423 
Q 3450 4097 3450 3541 
Q 3450 3153 3228 2886 
Q 3006 2619 2597 2516 
z
" transform="scale(0.015625)"/>
       </defs>
       <use xlink:href="#DejaVuSans-33"/>
       <use xlink:href="#DejaVuSans-30" x="63.623047"/>
      </g>
     </g>
    </g>
    <g id="ytick_5">
     <g id="line2d_10">
      <g>
       <use xlink:href="#m7df597bb01" x="57.6" y="151.620923" style="stroke: #000000; stroke-width: 0.8"/>
      </g>
     </g>
     <g id="text_10">
      <!-- 40 -->
      <g transform="translate(37.875 155.420142) scale(0.1 -0.1)">
       <defs>
        <path id="DejaVuSans-34" d="M 2419 4116 
L 825 1625 
L 2419 1625 
L 2419 4116 
z
M 2253 4666 
L 3047 4666 
L 3047 1625 
L 3713 1625 
L 3713 1100 
L 3047 1100 
L 3047 0 
L 2419 0 
L 2419 1100 
L 313 1100 
L 313 1709 
L 2253 4666 
z
" transform="scale(0.015625)"/>
       </defs>
       <use xlink:href="#DejaVuSans-34"/>
       <use xlink:href="#DejaVuSans-30" x="63.623047"/>
      </g>
     </g>
    </g>
    <g id="ytick_6">
     <g id="line2d_11">
      <g>
       <use xlink:href="#m7df597bb01" x="57.6" y="112.630154" style="stroke: #000000; stroke-width: 0.8"/>
      </g>
     </g>
     <g id="text_11">
      <!-- 50 -->
      <g transform="translate(37.875 116.429373) scale(0.1 -0.1)">
       <use xlink:href="#DejaVuSans-35"/>
       <use xlink:href="#DejaVuSans-30" x="63.623047"/>
      </g>
     </g>
    </g>
    <g id="ytick_7">
     <g id="line2d_12">
      <g>
       <use xlink:href="#m7df597bb01" x="57.6" y="73.639385" style="stroke: #000000; stroke-width: 0.8"/>
      </g>
     </g>
     <g id="text_12">
      <!-- 60 -->
      <g transform="translate(37.875 77.438603) scale(0.1 -0.1)">
       <defs>
        <path id="DejaVuSans-36" d="M 2113 2584 
Q 1688 2584 1439 2293 
Q 1191 2003 1191 1497 
Q 1191 994 1439 701 
Q 1688 409 2113 409 
Q 2538 409 2786 701 
Q 3034 994 3034 1497 
Q 3034 2003 2786 2293 
Q 2538 2584 2113 2584 
z
M 3366 4563 
L 3366 3988 
Q 3128 4100 2886 4159 
Q 2644 4219 2406 4219 
Q 1781 4219 1451 3797 
Q 1122 3375 1075 2522 
Q 1259 2794 1537 2939 
Q 1816 3084 2150 3084 
Q 2853 3084 3261 2657 
Q 3669 2231 3669 1497 
Q 3669 778 3244 343 
Q 2819 -91 2113 -91 
Q 1303 -91 875 529 
Q 447 1150 447 2328 
Q 447 3434 972 4092 
Q 1497 4750 2381 4750 
Q 2619 4750 2861 4703 
Q 3103 4656 3366 4563 
z
" transform="scale(0.015625)"/>
       </defs>
       <use xlink:href="#DejaVuSans-36"/>
       <use xlink:href="#DejaVuSans-30" x="63.623047"/>
      </g>
     </g>
    </g>
    <g id="text_13">
     <!-- Count -->
     <g transform="translate(31.795312 189.376437) rotate(-90) scale(0.1 -0.1)">
      <defs>
       <path id="DejaVuSans-43" d="M 4122 4306 
L 4122 3641 
Q 3803 3938 3442 4084 
Q 3081 4231 2675 4231 
Q 1875 4231 1450 3742 
Q 1025 3253 1025 2328 
Q 1025 1406 1450 917 
Q 1875 428 2675 428 
Q 3081 428 3442 575 
Q 3803 722 4122 1019 
L 4122 359 
Q 3791 134 3420 21 
Q 3050 -91 2638 -91 
Q 1578 -91 968 557 
Q 359 1206 359 2328 
Q 359 3453 968 4101 
Q 1578 4750 2638 4750 
Q 3056 4750 3426 4639 
Q 3797 4528 4122 4306 
z
" transform="scale(0.015625)"/>
       <path id="DejaVuSans-6f" d="M 1959 3097 
Q 1497 3097 1228 2736 
Q 959 2375 959 1747 
Q 959 1119 1226 758 
Q 1494 397 1959 397 
Q 2419 397 2687 759 
Q 2956 1122 2956 1747 
Q 2956 2369 2687 2733 
Q 2419 3097 1959 3097 
z
M 1959 3584 
Q 2709 3584 3137 3096 
Q 3566 2609 3566 1747 
Q 3566 888 3137 398 
Q 2709 -91 1959 -91 
Q 1206 -91 779 398 
Q 353 888 353 1747 
Q 353 2609 779 3096 
Q 1206 3584 1959 3584 
z
" transform="scale(0.015625)"/>
       <path id="DejaVuSans-75" d="M 544 1381 
L 544 3500 
L 1119 3500 
L 1119 1403 
Q 1119 906 1312 657 
Q 1506 409 1894 409 
Q 2359 409 2629 706 
Q 2900 1003 2900 1516 
L 2900 3500 
L 3475 3500 
L 3475 0 
L 2900 0 
L 2900 538 
Q 2691 219 2414 64 
Q 2138 -91 1772 -91 
Q 1169 -91 856 284 
Q 544 659 544 1381 
z
M 1991 3584 
L 1991 3584 
z
" transform="scale(0.015625)"/>
       <path id="DejaVuSans-6e" d="M 3513 2113 
L 3513 0 
L 2938 0 
L 2938 2094 
Q 2938 2591 2744 2837 
Q 2550 3084 2163 3084 
Q 1697 3084 1428 2787 
Q 1159 2491 1159 1978 
L 1159 0 
L 581 0 
L 581 3500 
L 1159 3500 
L 1159 2956 
Q 1366 3272 1645 3428 
Q 1925 3584 2291 3584 
Q 2894 3584 3203 3211 
Q 3513 2838 3513 2113 
z
" transform="scale(0.015625)"/>
       <path id="DejaVuSans-74" d="M 1172 4494 
L 1172 3500 
L 2356 3500 
L 2356 3053 
L 1172 3053 
L 1172 1153 
Q 1172 725 1289 603 
Q 1406 481 1766 481 
L 2356 481 
L 2356 0 
L 1766 0 
Q 1100 0 847 248 
Q 594 497 594 1153 
L 594 3053 
L 172 3053 
L 172 3500 
L 594 3500 
L 594 4494 
L 1172 4494 
z
" transform="scale(0.015625)"/>
      </defs>
      <use xlink:href="#DejaVuSans-43"/>
      <use xlink:href="#DejaVuSans-6f" x="69.824219"/>
      <use xlink:href="#DejaVuSans-75" x="131.005859"/>
      <use xlink:href="#DejaVuSans-6e" x="194.384766"/>
      <use xlink:href="#DejaVuSans-74" x="257.763672"/>
     </g>
    </g>
   </g>
   <g id="line2d_13">
    <path d="M 73.832727 307.583879 
L 96.672746 307.495275 
L 103.198465 307.273947 
L 108.092755 306.910969 
L 112.987044 306.290246 
L 116.249904 305.693243 
L 119.512764 304.917667 
L 122.775624 303.926476 
L 126.038483 302.670359 
L 129.301343 301.091456 
L 132.564203 299.137215 
L 135.827063 296.782912 
L 139.089922 294.055645 
L 143.984212 289.487328 
L 148.878502 284.849319 
L 152.141361 282.016767 
L 155.404221 279.521804 
L 158.667081 277.349239 
L 165.1928 273.234254 
L 166.82423 272.0317 
L 168.45566 270.673116 
L 170.08709 269.119436 
L 171.71852 267.338624 
L 173.34995 265.308042 
L 174.98138 263.016058 
L 176.61281 260.462711 
L 178.244239 257.659307 
L 181.507099 251.394331 
L 184.769959 244.461783 
L 189.664249 233.365413 
L 196.189968 217.978079 
L 201.084258 205.914661 
L 205.978547 193.07762 
L 209.241407 183.994209 
L 214.135697 169.561674 
L 219.029986 154.291889 
L 227.187136 128.551856 
L 230.449995 119.251344 
L 232.081425 115.083347 
L 233.712855 111.332874 
L 235.344285 108.065318 
L 236.975715 105.335898 
L 238.607145 103.186124 
L 240.238575 101.641118 
L 241.870005 100.708085 
L 243.501434 100.376049 
L 245.132864 100.616873 
L 246.764294 101.387414 
L 248.395724 102.632577 
L 250.027154 104.288921 
L 251.658584 106.288484 
L 253.290014 108.562494 
L 256.552873 113.674103 
L 269.604312 135.67465 
L 272.867172 141.284517 
L 276.130032 147.38268 
L 277.761462 150.731939 
L 279.392892 154.338795 
L 281.024322 158.235995 
L 282.655751 162.443347 
L 285.918611 171.786599 
L 289.181471 182.190251 
L 298.97005 215.046548 
L 302.23291 224.947246 
L 305.49577 233.936179 
L 308.75863 242.085225 
L 312.021489 249.562247 
L 315.284349 256.521614 
L 318.547209 263.034057 
L 321.810069 269.07741 
L 325.072928 274.576441 
L 328.335788 279.460025 
L 331.598648 283.704464 
L 334.861508 287.346972 
L 338.124367 290.471004 
L 341.387227 293.176292 
L 344.650087 295.548796 
L 347.912947 297.642041 
L 351.175806 299.474842 
L 354.438666 301.043683 
L 357.701526 302.342624 
L 360.964386 303.381168 
L 364.227245 304.192208 
L 369.121535 305.096744 
L 375.647254 305.986883 
L 383.804404 306.835672 
L 390.330123 307.270422 
L 396.855843 307.484399 
L 398.487273 307.51255 
L 398.487273 307.51255 
" clip-path="url(#pfd505d0916)" style="fill: none; stroke: #ff7f0e; stroke-width: 1.5; stroke-linecap: square"/>
   </g>
   <g id="line2d_14">
    <path d="M 73.832727 305.836748 
L 90.147026 304.820845 
L 103.198465 303.802092 
L 108.092755 303.67115 
L 117.881334 303.515567 
L 121.144194 303.197241 
L 124.407053 302.579772 
L 127.669913 301.582686 
L 130.932773 300.158342 
L 134.195633 298.299792 
L 137.458492 296.040943 
L 140.721352 293.447554 
L 143.984212 290.599547 
L 148.878502 285.999471 
L 153.772791 281.092245 
L 158.667081 275.809065 
L 161.929941 271.997467 
L 165.1928 267.900784 
L 168.45566 263.485929 
L 171.71852 258.720977 
L 174.98138 253.55492 
L 178.244239 247.901547 
L 181.507099 241.642764 
L 184.769959 234.65879 
L 188.032819 226.877537 
L 191.295678 218.320869 
L 194.558538 209.121272 
L 199.452828 194.594991 
L 210.872837 160.483484 
L 217.398556 141.605158 
L 220.661416 132.543431 
L 223.924276 124.033195 
L 227.187136 116.414019 
L 228.818566 113.058692 
L 230.449995 110.071963 
L 232.081425 107.501562 
L 233.712855 105.392121 
L 235.344285 103.783648 
L 236.975715 102.710014 
L 238.607145 102.197507 
L 240.238575 102.263514 
L 241.870005 102.915416 
L 243.501434 104.149761 
L 245.132864 105.951785 
L 246.764294 108.295298 
L 248.395724 111.142938 
L 250.027154 114.446791 
L 251.658584 118.149336 
L 254.921444 126.480427 
L 264.710023 153.389315 
L 267.972883 161.189519 
L 271.235742 167.934319 
L 274.498602 173.73682 
L 279.392892 181.491218 
L 282.655751 186.741821 
L 285.918611 192.554378 
L 289.181471 199.148092 
L 292.444331 206.507045 
L 297.33862 218.460801 
L 302.23291 230.446639 
L 305.49577 237.905491 
L 308.75863 244.71176 
L 312.021489 250.833524 
L 315.284349 256.36589 
L 318.547209 261.480302 
L 325.072928 271.136581 
L 331.598648 280.488949 
L 334.861508 284.911677 
L 338.124367 288.992578 
L 341.387227 292.611753 
L 344.650087 295.696962 
L 347.912947 298.236176 
L 351.175806 300.271412 
L 354.438666 301.87962 
L 357.701526 303.149079 
L 360.964386 304.159077 
L 364.227245 304.9678 
L 367.490105 305.609615 
L 372.384395 306.289907 
L 377.278684 306.645703 
L 382.172974 306.710557 
L 388.698693 306.502706 
L 396.855843 306.239555 
L 398.487273 306.233346 
L 398.487273 306.233346 
" clip-path="url(#pfd505d0916)" style="fill: none; stroke: #1f77b4; stroke-width: 1.5; stroke-linecap: square"/>
   </g>
   <g id="patch_63">
    <path d="M 57.6 307.584 
L 57.6 41.472 
" style="fill: none; stroke: #000000; stroke-width: 0.8; stroke-linejoin: miter; stroke-linecap: square"/>
   </g>
   <g id="patch_64">
    <path d="M 414.72 307.584 
L 414.72 41.472 
" style="fill: none; stroke: #000000; stroke-width: 0.8; stroke-linejoin: miter; stroke-linecap: square"/>
   </g>
   <g id="patch_65">
    <path d="M 57.6 307.584 
L 414.72 307.584 
" style="fill: none; stroke: #000000; stroke-width: 0.8; stroke-linejoin: miter; stroke-linecap: square"/>
   </g>
   <g id="patch_66">
    <path d="M 57.6 41.472 
L 414.72 41.472 
" style="fill: none; stroke: #000000; stroke-width: 0.8; stroke-linejoin: miter; stroke-linecap: square"/>
   </g>
   <g id="legend_1">
    <g id="patch_67">
     <path d="M 264.384063 79.3845 
L 407.72 79.3845 
Q 409.72 79.3845 409.72 77.3845 
L 409.72 48.472 
Q 409.72 46.472 407.72 46.472 
L 264.384063 46.472 
Q 262.384063 46.472 262.384063 48.472 
L 262.384063 77.3845 
Q 262.384063 79.3845 264.384063 79.3845 
z
" style="fill: #ffffff; opacity: 0.8; stroke: #cccccc; stroke-linejoin: miter"/>
    </g>
    <g id="patch_68">
     <path d="M 266.384063 58.070438 
L 286.384063 58.070438 
L 286.384063 51.070438 
L 266.384063 51.070438 
z
" style="fill: #1f77b4; fill-opacity: 0.5; stroke: #000000; stroke-linejoin: miter"/>
    </g>
    <g id="text_14">
     <!-- padding_length = 128 -->
     <g transform="translate(294.384063 58.070438) scale(0.1 -0.1)">
      <defs>
       <path id="DejaVuSans-70" d="M 1159 525 
L 1159 -1331 
L 581 -1331 
L 581 3500 
L 1159 3500 
L 1159 2969 
Q 1341 3281 1617 3432 
Q 1894 3584 2278 3584 
Q 2916 3584 3314 3078 
Q 3713 2572 3713 1747 
Q 3713 922 3314 415 
Q 2916 -91 2278 -91 
Q 1894 -91 1617 61 
Q 1341 213 1159 525 
z
M 3116 1747 
Q 3116 2381 2855 2742 
Q 2594 3103 2138 3103 
Q 1681 3103 1420 2742 
Q 1159 2381 1159 1747 
Q 1159 1113 1420 752 
Q 1681 391 2138 391 
Q 2594 391 2855 752 
Q 3116 1113 3116 1747 
z
" transform="scale(0.015625)"/>
       <path id="DejaVuSans-61" d="M 2194 1759 
Q 1497 1759 1228 1600 
Q 959 1441 959 1056 
Q 959 750 1161 570 
Q 1363 391 1709 391 
Q 2188 391 2477 730 
Q 2766 1069 2766 1631 
L 2766 1759 
L 2194 1759 
z
M 3341 1997 
L 3341 0 
L 2766 0 
L 2766 531 
Q 2569 213 2275 61 
Q 1981 -91 1556 -91 
Q 1019 -91 701 211 
Q 384 513 384 1019 
Q 384 1609 779 1909 
Q 1175 2209 1959 2209 
L 2766 2209 
L 2766 2266 
Q 2766 2663 2505 2880 
Q 2244 3097 1772 3097 
Q 1472 3097 1187 3025 
Q 903 2953 641 2809 
L 641 3341 
Q 956 3463 1253 3523 
Q 1550 3584 1831 3584 
Q 2591 3584 2966 3190 
Q 3341 2797 3341 1997 
z
" transform="scale(0.015625)"/>
       <path id="DejaVuSans-64" d="M 2906 2969 
L 2906 4863 
L 3481 4863 
L 3481 0 
L 2906 0 
L 2906 525 
Q 2725 213 2448 61 
Q 2172 -91 1784 -91 
Q 1150 -91 751 415 
Q 353 922 353 1747 
Q 353 2572 751 3078 
Q 1150 3584 1784 3584 
Q 2172 3584 2448 3432 
Q 2725 3281 2906 2969 
z
M 947 1747 
Q 947 1113 1208 752 
Q 1469 391 1925 391 
Q 2381 391 2643 752 
Q 2906 1113 2906 1747 
Q 2906 2381 2643 2742 
Q 2381 3103 1925 3103 
Q 1469 3103 1208 2742 
Q 947 2381 947 1747 
z
" transform="scale(0.015625)"/>
       <path id="DejaVuSans-69" d="M 603 3500 
L 1178 3500 
L 1178 0 
L 603 0 
L 603 3500 
z
M 603 4863 
L 1178 4863 
L 1178 4134 
L 603 4134 
L 603 4863 
z
" transform="scale(0.015625)"/>
       <path id="DejaVuSans-67" d="M 2906 1791 
Q 2906 2416 2648 2759 
Q 2391 3103 1925 3103 
Q 1463 3103 1205 2759 
Q 947 2416 947 1791 
Q 947 1169 1205 825 
Q 1463 481 1925 481 
Q 2391 481 2648 825 
Q 2906 1169 2906 1791 
z
M 3481 434 
Q 3481 -459 3084 -895 
Q 2688 -1331 1869 -1331 
Q 1566 -1331 1297 -1286 
Q 1028 -1241 775 -1147 
L 775 -588 
Q 1028 -725 1275 -790 
Q 1522 -856 1778 -856 
Q 2344 -856 2625 -561 
Q 2906 -266 2906 331 
L 2906 616 
Q 2728 306 2450 153 
Q 2172 0 1784 0 
Q 1141 0 747 490 
Q 353 981 353 1791 
Q 353 2603 747 3093 
Q 1141 3584 1784 3584 
Q 2172 3584 2450 3431 
Q 2728 3278 2906 2969 
L 2906 3500 
L 3481 3500 
L 3481 434 
z
" transform="scale(0.015625)"/>
       <path id="DejaVuSans-5f" d="M 3263 -1063 
L 3263 -1509 
L -63 -1509 
L -63 -1063 
L 3263 -1063 
z
" transform="scale(0.015625)"/>
       <path id="DejaVuSans-6c" d="M 603 4863 
L 1178 4863 
L 1178 0 
L 603 0 
L 603 4863 
z
" transform="scale(0.015625)"/>
       <path id="DejaVuSans-65" d="M 3597 1894 
L 3597 1613 
L 953 1613 
Q 991 1019 1311 708 
Q 1631 397 2203 397 
Q 2534 397 2845 478 
Q 3156 559 3463 722 
L 3463 178 
Q 3153 47 2828 -22 
Q 2503 -91 2169 -91 
Q 1331 -91 842 396 
Q 353 884 353 1716 
Q 353 2575 817 3079 
Q 1281 3584 2069 3584 
Q 2775 3584 3186 3129 
Q 3597 2675 3597 1894 
z
M 3022 2063 
Q 3016 2534 2758 2815 
Q 2500 3097 2075 3097 
Q 1594 3097 1305 2825 
Q 1016 2553 972 2059 
L 3022 2063 
z
" transform="scale(0.015625)"/>
       <path id="DejaVuSans-68" d="M 3513 2113 
L 3513 0 
L 2938 0 
L 2938 2094 
Q 2938 2591 2744 2837 
Q 2550 3084 2163 3084 
Q 1697 3084 1428 2787 
Q 1159 2491 1159 1978 
L 1159 0 
L 581 0 
L 581 4863 
L 1159 4863 
L 1159 2956 
Q 1366 3272 1645 3428 
Q 1925 3584 2291 3584 
Q 2894 3584 3203 3211 
Q 3513 2838 3513 2113 
z
" transform="scale(0.015625)"/>
       <path id="DejaVuSans-20" transform="scale(0.015625)"/>
       <path id="DejaVuSans-3d" d="M 678 2906 
L 4684 2906 
L 4684 2381 
L 678 2381 
L 678 2906 
z
M 678 1631 
L 4684 1631 
L 4684 1100 
L 678 1100 
L 678 1631 
z
" transform="scale(0.015625)"/>
      </defs>
      <use xlink:href="#DejaVuSans-70"/>
      <use xlink:href="#DejaVuSans-61" x="63.476562"/>
      <use xlink:href="#DejaVuSans-64" x="124.755859"/>
      <use xlink:href="#DejaVuSans-64" x="188.232422"/>
      <use xlink:href="#DejaVuSans-69" x="251.708984"/>
      <use xlink:href="#DejaVuSans-6e" x="279.492188"/>
      <use xlink:href="#DejaVuSans-67" x="342.871094"/>
      <use xlink:href="#DejaVuSans-5f" x="406.347656"/>
      <use xlink:href="#DejaVuSans-6c" x="456.347656"/>
      <use xlink:href="#DejaVuSans-65" x="484.130859"/>
      <use xlink:href="#DejaVuSans-6e" x="545.654297"/>
      <use xlink:href="#DejaVuSans-67" x="609.033203"/>
      <use xlink:href="#DejaVuSans-74" x="672.509766"/>
      <use xlink:href="#DejaVuSans-68" x="711.71875"/>
      <use xlink:href="#DejaVuSans-20" x="775.097656"/>
      <use xlink:href="#DejaVuSans-3d" x="806.884766"/>
      <use xlink:href="#DejaVuSans-20" x="890.673828"/>
      <use xlink:href="#DejaVuSans-31" x="922.460938"/>
      <use xlink:href="#DejaVuSans-32" x="986.083984"/>
      <use xlink:href="#DejaVuSans-38" x="1049.707031"/>
     </g>
    </g>
    <g id="patch_69">
     <path d="M 266.384063 73.026688 
L 286.384063 73.026688 
L 286.384063 66.026688 
L 266.384063 66.026688 
z
" style="fill: #ff7f0e; fill-opacity: 0.5; stroke: #000000; stroke-linejoin: miter"/>
    </g>
    <g id="text_15">
     <!-- padding_length = 384 -->
     <g transform="translate(294.384063 73.026688) scale(0.1 -0.1)">
      <use xlink:href="#DejaVuSans-70"/>
      <use xlink:href="#DejaVuSans-61" x="63.476562"/>
      <use xlink:href="#DejaVuSans-64" x="124.755859"/>
      <use xlink:href="#DejaVuSans-64" x="188.232422"/>
      <use xlink:href="#DejaVuSans-69" x="251.708984"/>
      <use xlink:href="#DejaVuSans-6e" x="279.492188"/>
      <use xlink:href="#DejaVuSans-67" x="342.871094"/>
      <use xlink:href="#DejaVuSans-5f" x="406.347656"/>
      <use xlink:href="#DejaVuSans-6c" x="456.347656"/>
      <use xlink:href="#DejaVuSans-65" x="484.130859"/>
      <use xlink:href="#DejaVuSans-6e" x="545.654297"/>
      <use xlink:href="#DejaVuSans-67" x="609.033203"/>
      <use xlink:href="#DejaVuSans-74" x="672.509766"/>
      <use xlink:href="#DejaVuSans-68" x="711.71875"/>
      <use xlink:href="#DejaVuSans-20" x="775.097656"/>
      <use xlink:href="#DejaVuSans-3d" x="806.884766"/>
      <use xlink:href="#DejaVuSans-20" x="890.673828"/>
      <use xlink:href="#DejaVuSans-33" x="922.460938"/>
      <use xlink:href="#DejaVuSans-38" x="986.083984"/>
      <use xlink:href="#DejaVuSans-34" x="1049.707031"/>
     </g>
    </g>
   </g>
  </g>
  <g id="text_16">
   <!-- stock_False_xlm-roberta-base_True -->
   <g transform="translate(125.9775 16.030125) scale(0.12 -0.12)">
    <defs>
     <path id="DejaVuSans-73" d="M 2834 3397 
L 2834 2853 
Q 2591 2978 2328 3040 
Q 2066 3103 1784 3103 
Q 1356 3103 1142 2972 
Q 928 2841 928 2578 
Q 928 2378 1081 2264 
Q 1234 2150 1697 2047 
L 1894 2003 
Q 2506 1872 2764 1633 
Q 3022 1394 3022 966 
Q 3022 478 2636 193 
Q 2250 -91 1575 -91 
Q 1294 -91 989 -36 
Q 684 19 347 128 
L 347 722 
Q 666 556 975 473 
Q 1284 391 1588 391 
Q 1994 391 2212 530 
Q 2431 669 2431 922 
Q 2431 1156 2273 1281 
Q 2116 1406 1581 1522 
L 1381 1569 
Q 847 1681 609 1914 
Q 372 2147 372 2553 
Q 372 3047 722 3315 
Q 1072 3584 1716 3584 
Q 2034 3584 2315 3537 
Q 2597 3491 2834 3397 
z
" transform="scale(0.015625)"/>
     <path id="DejaVuSans-63" d="M 3122 3366 
L 3122 2828 
Q 2878 2963 2633 3030 
Q 2388 3097 2138 3097 
Q 1578 3097 1268 2742 
Q 959 2388 959 1747 
Q 959 1106 1268 751 
Q 1578 397 2138 397 
Q 2388 397 2633 464 
Q 2878 531 3122 666 
L 3122 134 
Q 2881 22 2623 -34 
Q 2366 -91 2075 -91 
Q 1284 -91 818 406 
Q 353 903 353 1747 
Q 353 2603 823 3093 
Q 1294 3584 2113 3584 
Q 2378 3584 2631 3529 
Q 2884 3475 3122 3366 
z
" transform="scale(0.015625)"/>
     <path id="DejaVuSans-6b" d="M 581 4863 
L 1159 4863 
L 1159 1991 
L 2875 3500 
L 3609 3500 
L 1753 1863 
L 3688 0 
L 2938 0 
L 1159 1709 
L 1159 0 
L 581 0 
L 581 4863 
z
" transform="scale(0.015625)"/>
     <path id="DejaVuSans-46" d="M 628 4666 
L 3309 4666 
L 3309 4134 
L 1259 4134 
L 1259 2759 
L 3109 2759 
L 3109 2228 
L 1259 2228 
L 1259 0 
L 628 0 
L 628 4666 
z
" transform="scale(0.015625)"/>
     <path id="DejaVuSans-78" d="M 3513 3500 
L 2247 1797 
L 3578 0 
L 2900 0 
L 1881 1375 
L 863 0 
L 184 0 
L 1544 1831 
L 300 3500 
L 978 3500 
L 1906 2253 
L 2834 3500 
L 3513 3500 
z
" transform="scale(0.015625)"/>
     <path id="DejaVuSans-6d" d="M 3328 2828 
Q 3544 3216 3844 3400 
Q 4144 3584 4550 3584 
Q 5097 3584 5394 3201 
Q 5691 2819 5691 2113 
L 5691 0 
L 5113 0 
L 5113 2094 
Q 5113 2597 4934 2840 
Q 4756 3084 4391 3084 
Q 3944 3084 3684 2787 
Q 3425 2491 3425 1978 
L 3425 0 
L 2847 0 
L 2847 2094 
Q 2847 2600 2669 2842 
Q 2491 3084 2119 3084 
Q 1678 3084 1418 2786 
Q 1159 2488 1159 1978 
L 1159 0 
L 581 0 
L 581 3500 
L 1159 3500 
L 1159 2956 
Q 1356 3278 1631 3431 
Q 1906 3584 2284 3584 
Q 2666 3584 2933 3390 
Q 3200 3197 3328 2828 
z
" transform="scale(0.015625)"/>
     <path id="DejaVuSans-2d" d="M 313 2009 
L 1997 2009 
L 1997 1497 
L 313 1497 
L 313 2009 
z
" transform="scale(0.015625)"/>
     <path id="DejaVuSans-72" d="M 2631 2963 
Q 2534 3019 2420 3045 
Q 2306 3072 2169 3072 
Q 1681 3072 1420 2755 
Q 1159 2438 1159 1844 
L 1159 0 
L 581 0 
L 581 3500 
L 1159 3500 
L 1159 2956 
Q 1341 3275 1631 3429 
Q 1922 3584 2338 3584 
Q 2397 3584 2469 3576 
Q 2541 3569 2628 3553 
L 2631 2963 
z
" transform="scale(0.015625)"/>
     <path id="DejaVuSans-62" d="M 3116 1747 
Q 3116 2381 2855 2742 
Q 2594 3103 2138 3103 
Q 1681 3103 1420 2742 
Q 1159 2381 1159 1747 
Q 1159 1113 1420 752 
Q 1681 391 2138 391 
Q 2594 391 2855 752 
Q 3116 1113 3116 1747 
z
M 1159 2969 
Q 1341 3281 1617 3432 
Q 1894 3584 2278 3584 
Q 2916 3584 3314 3078 
Q 3713 2572 3713 1747 
Q 3713 922 3314 415 
Q 2916 -91 2278 -91 
Q 1894 -91 1617 61 
Q 1341 213 1159 525 
L 1159 0 
L 581 0 
L 581 4863 
L 1159 4863 
L 1159 2969 
z
" transform="scale(0.015625)"/>
     <path id="DejaVuSans-54" d="M -19 4666 
L 3928 4666 
L 3928 4134 
L 2272 4134 
L 2272 0 
L 1638 0 
L 1638 4134 
L -19 4134 
L -19 4666 
z
" transform="scale(0.015625)"/>
    </defs>
    <use xlink:href="#DejaVuSans-73"/>
    <use xlink:href="#DejaVuSans-74" x="52.099609"/>
    <use xlink:href="#DejaVuSans-6f" x="91.308594"/>
    <use xlink:href="#DejaVuSans-63" x="152.490234"/>
    <use xlink:href="#DejaVuSans-6b" x="207.470703"/>
    <use xlink:href="#DejaVuSans-5f" x="265.380859"/>
    <use xlink:href="#DejaVuSans-46" x="315.380859"/>
    <use xlink:href="#DejaVuSans-61" x="363.775391"/>
    <use xlink:href="#DejaVuSans-6c" x="425.054688"/>
    <use xlink:href="#DejaVuSans-73" x="452.837891"/>
    <use xlink:href="#DejaVuSans-65" x="504.9375"/>
    <use xlink:href="#DejaVuSans-5f" x="566.460938"/>
    <use xlink:href="#DejaVuSans-78" x="616.460938"/>
    <use xlink:href="#DejaVuSans-6c" x="675.640625"/>
    <use xlink:href="#DejaVuSans-6d" x="703.423828"/>
    <use xlink:href="#DejaVuSans-2d" x="800.835938"/>
    <use xlink:href="#DejaVuSans-72" x="836.919922"/>
    <use xlink:href="#DejaVuSans-6f" x="875.783203"/>
    <use xlink:href="#DejaVuSans-62" x="936.964844"/>
    <use xlink:href="#DejaVuSans-65" x="1000.441406"/>
    <use xlink:href="#DejaVuSans-72" x="1061.964844"/>
    <use xlink:href="#DejaVuSans-74" x="1103.078125"/>
    <use xlink:href="#DejaVuSans-61" x="1142.287109"/>
    <use xlink:href="#DejaVuSans-2d" x="1203.566406"/>
    <use xlink:href="#DejaVuSans-62" x="1239.650391"/>
    <use xlink:href="#DejaVuSans-61" x="1303.126953"/>
    <use xlink:href="#DejaVuSans-73" x="1364.40625"/>
    <use xlink:href="#DejaVuSans-65" x="1416.505859"/>
    <use xlink:href="#DejaVuSans-5f" x="1478.029297"/>
    <use xlink:href="#DejaVuSans-54" x="1528.029297"/>
    <use xlink:href="#DejaVuSans-72" x="1574.363281"/>
    <use xlink:href="#DejaVuSans-75" x="1615.476562"/>
    <use xlink:href="#DejaVuSans-65" x="1678.855469"/>
   </g>
  </g>
 </g>
 <defs>
  <clipPath id="pfd505d0916">
   <rect x="57.6" y="41.472" width="357.12" height="266.112"/>
  </clipPath>
 </defs>
</svg>
