<?xml version="1.0" encoding="utf-8" standalone="no"?>
<!DOCTYPE svg PUBLIC "-//W3C//DTD SVG 1.1//EN"
  "http://www.w3.org/Graphics/SVG/1.1/DTD/svg11.dtd">
<svg xmlns:xlink="http://www.w3.org/1999/xlink" width="460.8pt" height="345.6pt" viewBox="0 0 460.8 345.6" xmlns="http://www.w3.org/2000/svg" version="1.1">
 <metadata>
  <rdf:RDF xmlns:dc="http://purl.org/dc/elements/1.1/" xmlns:cc="http://creativecommons.org/ns#" xmlns:rdf="http://www.w3.org/1999/02/22-rdf-syntax-ns#">
   <cc:Work>
    <dc:type rdf:resource="http://purl.org/dc/dcmitype/StillImage"/>
    <dc:date>2024-03-18T10:53:03.241373</dc:date>
    <dc:format>image/svg+xml</dc:format>
    <dc:creator>
     <cc:Agent>
      <dc:title>Matplotlib v3.6.3, https://matplotlib.org/</dc:title>
     </cc:Agent>
    </dc:creator>
   </cc:Work>
  </rdf:RDF>
 </metadata>
 <defs>
  <style type="text/css">*{stroke-linejoin: round; stroke-linecap: butt}</style>
 </defs>
 <g id="figure_1">
  <g id="patch_1">
   <path d="M 0 345.6 
L 460.8 345.6 
L 460.8 0 
L 0 0 
z
" style="fill: #ffffff"/>
  </g>
  <g id="axes_1">
   <g id="patch_2">
    <path d="M 57.6 307.584 
L 414.72 307.584 
L 414.72 41.472 
L 57.6 41.472 
z
" style="fill: #ffffff"/>
   </g>
   <g id="patch_3">
    <path d="M 73.832727 307.584 
L 103.346777 307.584 
L 103.346777 178.317178 
L 73.832727 178.317178 
z
" clip-path="url(#pca5976e979)" style="fill: #8c564b; fill-opacity: 0.5; stroke: #000000; stroke-linejoin: miter"/>
   </g>
   <g id="patch_4">
    <path d="M 103.346777 307.584 
L 132.860826 307.584 
L 132.860826 306.278275 
L 103.346777 306.278275 
z
" clip-path="url(#pca5976e979)" style="fill: #8c564b; fill-opacity: 0.5; stroke: #000000; stroke-linejoin: miter"/>
   </g>
   <g id="patch_5">
    <path d="M 132.860826 307.584 
L 162.374876 307.584 
L 162.374876 307.584 
L 132.860826 307.584 
z
" clip-path="url(#pca5976e979)" style="fill: #8c564b; fill-opacity: 0.5; stroke: #000000; stroke-linejoin: miter"/>
   </g>
   <g id="patch_6">
    <path d="M 162.374876 307.584 
L 191.888926 307.584 
L 191.888926 307.584 
L 162.374876 307.584 
z
" clip-path="url(#pca5976e979)" style="fill: #8c564b; fill-opacity: 0.5; stroke: #000000; stroke-linejoin: miter"/>
   </g>
   <g id="patch_7">
    <path d="M 191.888926 307.584 
L 221.402975 307.584 
L 221.402975 307.584 
L 191.888926 307.584 
z
" clip-path="url(#pca5976e979)" style="fill: #8c564b; fill-opacity: 0.5; stroke: #000000; stroke-linejoin: miter"/>
   </g>
   <g id="patch_8">
    <path d="M 221.402975 307.584 
L 250.917025 307.584 
L 250.917025 307.584 
L 221.402975 307.584 
z
" clip-path="url(#pca5976e979)" style="fill: #8c564b; fill-opacity: 0.5; stroke: #000000; stroke-linejoin: miter"/>
   </g>
   <g id="patch_9">
    <path d="M 250.917025 307.584 
L 280.431074 307.584 
L 280.431074 307.584 
L 250.917025 307.584 
z
" clip-path="url(#pca5976e979)" style="fill: #8c564b; fill-opacity: 0.5; stroke: #000000; stroke-linejoin: miter"/>
   </g>
   <g id="patch_10">
    <path d="M 280.431074 307.584 
L 309.945124 307.584 
L 309.945124 307.584 
L 280.431074 307.584 
z
" clip-path="url(#pca5976e979)" style="fill: #8c564b; fill-opacity: 0.5; stroke: #000000; stroke-linejoin: miter"/>
   </g>
   <g id="patch_11">
    <path d="M 309.945124 307.584 
L 339.459174 307.584 
L 339.459174 307.584 
L 309.945124 307.584 
z
" clip-path="url(#pca5976e979)" style="fill: #8c564b; fill-opacity: 0.5; stroke: #000000; stroke-linejoin: miter"/>
   </g>
   <g id="patch_12">
    <path d="M 339.459174 307.584 
L 368.973223 307.584 
L 368.973223 307.584 
L 339.459174 307.584 
z
" clip-path="url(#pca5976e979)" style="fill: #8c564b; fill-opacity: 0.5; stroke: #000000; stroke-linejoin: miter"/>
   </g>
   <g id="patch_13">
    <path d="M 368.973223 307.584 
L 398.487273 307.584 
L 398.487273 307.584 
L 368.973223 307.584 
z
" clip-path="url(#pca5976e979)" style="fill: #8c564b; fill-opacity: 0.5; stroke: #000000; stroke-linejoin: miter"/>
   </g>
   <g id="patch_14">
    <path d="M 73.832727 307.584 
L 103.346777 307.584 
L 103.346777 307.584 
L 73.832727 307.584 
z
" clip-path="url(#pca5976e979)" style="fill: #9467bd; fill-opacity: 0.5; stroke: #000000; stroke-linejoin: miter"/>
   </g>
   <g id="patch_15">
    <path d="M 103.346777 307.584 
L 132.860826 307.584 
L 132.860826 307.584 
L 103.346777 307.584 
z
" clip-path="url(#pca5976e979)" style="fill: #9467bd; fill-opacity: 0.5; stroke: #000000; stroke-linejoin: miter"/>
   </g>
   <g id="patch_16">
    <path d="M 132.860826 307.584 
L 162.374876 307.584 
L 162.374876 307.584 
L 132.860826 307.584 
z
" clip-path="url(#pca5976e979)" style="fill: #9467bd; fill-opacity: 0.5; stroke: #000000; stroke-linejoin: miter"/>
   </g>
   <g id="patch_17">
    <path d="M 162.374876 307.584 
L 191.888926 307.584 
L 191.888926 307.584 
L 162.374876 307.584 
z
" clip-path="url(#pca5976e979)" style="fill: #9467bd; fill-opacity: 0.5; stroke: #000000; stroke-linejoin: miter"/>
   </g>
   <g id="patch_18">
    <path d="M 191.888926 307.584 
L 221.402975 307.584 
L 221.402975 305.755984 
L 191.888926 305.755984 
z
" clip-path="url(#pca5976e979)" style="fill: #9467bd; fill-opacity: 0.5; stroke: #000000; stroke-linejoin: miter"/>
   </g>
   <g id="patch_19">
    <path d="M 221.402975 307.584 
L 250.917025 307.584 
L 250.917025 307.584 
L 221.402975 307.584 
z
" clip-path="url(#pca5976e979)" style="fill: #9467bd; fill-opacity: 0.5; stroke: #000000; stroke-linejoin: miter"/>
   </g>
   <g id="patch_20">
    <path d="M 250.917025 307.584 
L 280.431074 307.584 
L 280.431074 307.584 
L 250.917025 307.584 
z
" clip-path="url(#pca5976e979)" style="fill: #9467bd; fill-opacity: 0.5; stroke: #000000; stroke-linejoin: miter"/>
   </g>
   <g id="patch_21">
    <path d="M 280.431074 307.584 
L 309.945124 307.584 
L 309.945124 307.584 
L 280.431074 307.584 
z
" clip-path="url(#pca5976e979)" style="fill: #9467bd; fill-opacity: 0.5; stroke: #000000; stroke-linejoin: miter"/>
   </g>
   <g id="patch_22">
    <path d="M 309.945124 307.584 
L 339.459174 307.584 
L 339.459174 307.584 
L 309.945124 307.584 
z
" clip-path="url(#pca5976e979)" style="fill: #9467bd; fill-opacity: 0.5; stroke: #000000; stroke-linejoin: miter"/>
   </g>
   <g id="patch_23">
    <path d="M 339.459174 307.584 
L 368.973223 307.584 
L 368.973223 307.584 
L 339.459174 307.584 
z
" clip-path="url(#pca5976e979)" style="fill: #9467bd; fill-opacity: 0.5; stroke: #000000; stroke-linejoin: miter"/>
   </g>
   <g id="patch_24">
    <path d="M 368.973223 307.584 
L 398.487273 307.584 
L 398.487273 307.584 
L 368.973223 307.584 
z
" clip-path="url(#pca5976e979)" style="fill: #9467bd; fill-opacity: 0.5; stroke: #000000; stroke-linejoin: miter"/>
   </g>
   <g id="patch_25">
    <path d="M 73.832727 307.584 
L 103.346777 307.584 
L 103.346777 307.584 
L 73.832727 307.584 
z
" clip-path="url(#pca5976e979)" style="fill: #d62728; fill-opacity: 0.5; stroke: #000000; stroke-linejoin: miter"/>
   </g>
   <g id="patch_26">
    <path d="M 103.346777 307.584 
L 132.860826 307.584 
L 132.860826 307.584 
L 103.346777 307.584 
z
" clip-path="url(#pca5976e979)" style="fill: #d62728; fill-opacity: 0.5; stroke: #000000; stroke-linejoin: miter"/>
   </g>
   <g id="patch_27">
    <path d="M 132.860826 307.584 
L 162.374876 307.584 
L 162.374876 307.584 
L 132.860826 307.584 
z
" clip-path="url(#pca5976e979)" style="fill: #d62728; fill-opacity: 0.5; stroke: #000000; stroke-linejoin: miter"/>
   </g>
   <g id="patch_28">
    <path d="M 162.374876 307.584 
L 191.888926 307.584 
L 191.888926 307.584 
L 162.374876 307.584 
z
" clip-path="url(#pca5976e979)" style="fill: #d62728; fill-opacity: 0.5; stroke: #000000; stroke-linejoin: miter"/>
   </g>
   <g id="patch_29">
    <path d="M 191.888926 307.584 
L 221.402975 307.584 
L 221.402975 307.584 
L 191.888926 307.584 
z
" clip-path="url(#pca5976e979)" style="fill: #d62728; fill-opacity: 0.5; stroke: #000000; stroke-linejoin: miter"/>
   </g>
   <g id="patch_30">
    <path d="M 221.402975 307.584 
L 250.917025 307.584 
L 250.917025 307.584 
L 221.402975 307.584 
z
" clip-path="url(#pca5976e979)" style="fill: #d62728; fill-opacity: 0.5; stroke: #000000; stroke-linejoin: miter"/>
   </g>
   <g id="patch_31">
    <path d="M 250.917025 307.584 
L 280.431074 307.584 
L 280.431074 307.584 
L 250.917025 307.584 
z
" clip-path="url(#pca5976e979)" style="fill: #d62728; fill-opacity: 0.5; stroke: #000000; stroke-linejoin: miter"/>
   </g>
   <g id="patch_32">
    <path d="M 280.431074 307.584 
L 309.945124 307.584 
L 309.945124 307.584 
L 280.431074 307.584 
z
" clip-path="url(#pca5976e979)" style="fill: #d62728; fill-opacity: 0.5; stroke: #000000; stroke-linejoin: miter"/>
   </g>
   <g id="patch_33">
    <path d="M 309.945124 307.584 
L 339.459174 307.584 
L 339.459174 307.584 
L 309.945124 307.584 
z
" clip-path="url(#pca5976e979)" style="fill: #d62728; fill-opacity: 0.5; stroke: #000000; stroke-linejoin: miter"/>
   </g>
   <g id="patch_34">
    <path d="M 339.459174 307.584 
L 368.973223 307.584 
L 368.973223 278.335749 
L 339.459174 278.335749 
z
" clip-path="url(#pca5976e979)" style="fill: #d62728; fill-opacity: 0.5; stroke: #000000; stroke-linejoin: miter"/>
   </g>
   <g id="patch_35">
    <path d="M 368.973223 307.584 
L 398.487273 307.584 
L 398.487273 271.023687 
L 368.973223 271.023687 
z
" clip-path="url(#pca5976e979)" style="fill: #d62728; fill-opacity: 0.5; stroke: #000000; stroke-linejoin: miter"/>
   </g>
   <g id="patch_36">
    <path d="M 73.832727 307.584 
L 103.346777 307.584 
L 103.346777 307.584 
L 73.832727 307.584 
z
" clip-path="url(#pca5976e979)" style="fill: #2ca02c; fill-opacity: 0.5; stroke: #000000; stroke-linejoin: miter"/>
   </g>
   <g id="patch_37">
    <path d="M 103.346777 307.584 
L 132.860826 307.584 
L 132.860826 307.584 
L 103.346777 307.584 
z
" clip-path="url(#pca5976e979)" style="fill: #2ca02c; fill-opacity: 0.5; stroke: #000000; stroke-linejoin: miter"/>
   </g>
   <g id="patch_38">
    <path d="M 132.860826 307.584 
L 162.374876 307.584 
L 162.374876 307.584 
L 132.860826 307.584 
z
" clip-path="url(#pca5976e979)" style="fill: #2ca02c; fill-opacity: 0.5; stroke: #000000; stroke-linejoin: miter"/>
   </g>
   <g id="patch_39">
    <path d="M 162.374876 307.584 
L 191.888926 307.584 
L 191.888926 307.584 
L 162.374876 307.584 
z
" clip-path="url(#pca5976e979)" style="fill: #2ca02c; fill-opacity: 0.5; stroke: #000000; stroke-linejoin: miter"/>
   </g>
   <g id="patch_40">
    <path d="M 191.888926 307.584 
L 221.402975 307.584 
L 221.402975 307.584 
L 191.888926 307.584 
z
" clip-path="url(#pca5976e979)" style="fill: #2ca02c; fill-opacity: 0.5; stroke: #000000; stroke-linejoin: miter"/>
   </g>
   <g id="patch_41">
    <path d="M 221.402975 307.584 
L 250.917025 307.584 
L 250.917025 305.755984 
L 221.402975 305.755984 
z
" clip-path="url(#pca5976e979)" style="fill: #2ca02c; fill-opacity: 0.5; stroke: #000000; stroke-linejoin: miter"/>
   </g>
   <g id="patch_42">
    <path d="M 250.917025 307.584 
L 280.431074 307.584 
L 280.431074 307.584 
L 250.917025 307.584 
z
" clip-path="url(#pca5976e979)" style="fill: #2ca02c; fill-opacity: 0.5; stroke: #000000; stroke-linejoin: miter"/>
   </g>
   <g id="patch_43">
    <path d="M 280.431074 307.584 
L 309.945124 307.584 
L 309.945124 307.584 
L 280.431074 307.584 
z
" clip-path="url(#pca5976e979)" style="fill: #2ca02c; fill-opacity: 0.5; stroke: #000000; stroke-linejoin: miter"/>
   </g>
   <g id="patch_44">
    <path d="M 309.945124 307.584 
L 339.459174 307.584 
L 339.459174 307.584 
L 309.945124 307.584 
z
" clip-path="url(#pca5976e979)" style="fill: #2ca02c; fill-opacity: 0.5; stroke: #000000; stroke-linejoin: miter"/>
   </g>
   <g id="patch_45">
    <path d="M 339.459174 307.584 
L 368.973223 307.584 
L 368.973223 307.584 
L 339.459174 307.584 
z
" clip-path="url(#pca5976e979)" style="fill: #2ca02c; fill-opacity: 0.5; stroke: #000000; stroke-linejoin: miter"/>
   </g>
   <g id="patch_46">
    <path d="M 368.973223 307.584 
L 398.487273 307.584 
L 398.487273 307.584 
L 368.973223 307.584 
z
" clip-path="url(#pca5976e979)" style="fill: #2ca02c; fill-opacity: 0.5; stroke: #000000; stroke-linejoin: miter"/>
   </g>
   <g id="patch_47">
    <path d="M 73.832727 307.584 
L 103.346777 307.584 
L 103.346777 307.584 
L 73.832727 307.584 
z
" clip-path="url(#pca5976e979)" style="fill: #ff7f0e; fill-opacity: 0.5; stroke: #000000; stroke-linejoin: miter"/>
   </g>
   <g id="patch_48">
    <path d="M 103.346777 307.584 
L 132.860826 307.584 
L 132.860826 307.584 
L 103.346777 307.584 
z
" clip-path="url(#pca5976e979)" style="fill: #ff7f0e; fill-opacity: 0.5; stroke: #000000; stroke-linejoin: miter"/>
   </g>
   <g id="patch_49">
    <path d="M 132.860826 307.584 
L 162.374876 307.584 
L 162.374876 306.278275 
L 132.860826 306.278275 
z
" clip-path="url(#pca5976e979)" style="fill: #ff7f0e; fill-opacity: 0.5; stroke: #000000; stroke-linejoin: miter"/>
   </g>
   <g id="patch_50">
    <path d="M 162.374876 307.584 
L 191.888926 307.584 
L 191.888926 307.06171 
L 162.374876 307.06171 
z
" clip-path="url(#pca5976e979)" style="fill: #ff7f0e; fill-opacity: 0.5; stroke: #000000; stroke-linejoin: miter"/>
   </g>
   <g id="patch_51">
    <path d="M 191.888926 307.584 
L 221.402975 307.584 
L 221.402975 307.584 
L 191.888926 307.584 
z
" clip-path="url(#pca5976e979)" style="fill: #ff7f0e; fill-opacity: 0.5; stroke: #000000; stroke-linejoin: miter"/>
   </g>
   <g id="patch_52">
    <path d="M 221.402975 307.584 
L 250.917025 307.584 
L 250.917025 307.584 
L 221.402975 307.584 
z
" clip-path="url(#pca5976e979)" style="fill: #ff7f0e; fill-opacity: 0.5; stroke: #000000; stroke-linejoin: miter"/>
   </g>
   <g id="patch_53">
    <path d="M 250.917025 307.584 
L 280.431074 307.584 
L 280.431074 307.584 
L 250.917025 307.584 
z
" clip-path="url(#pca5976e979)" style="fill: #ff7f0e; fill-opacity: 0.5; stroke: #000000; stroke-linejoin: miter"/>
   </g>
   <g id="patch_54">
    <path d="M 280.431074 307.584 
L 309.945124 307.584 
L 309.945124 307.584 
L 280.431074 307.584 
z
" clip-path="url(#pca5976e979)" style="fill: #ff7f0e; fill-opacity: 0.5; stroke: #000000; stroke-linejoin: miter"/>
   </g>
   <g id="patch_55">
    <path d="M 309.945124 307.584 
L 339.459174 307.584 
L 339.459174 307.584 
L 309.945124 307.584 
z
" clip-path="url(#pca5976e979)" style="fill: #ff7f0e; fill-opacity: 0.5; stroke: #000000; stroke-linejoin: miter"/>
   </g>
   <g id="patch_56">
    <path d="M 339.459174 307.584 
L 368.973223 307.584 
L 368.973223 307.584 
L 339.459174 307.584 
z
" clip-path="url(#pca5976e979)" style="fill: #ff7f0e; fill-opacity: 0.5; stroke: #000000; stroke-linejoin: miter"/>
   </g>
   <g id="patch_57">
    <path d="M 368.973223 307.584 
L 398.487273 307.584 
L 398.487273 307.584 
L 368.973223 307.584 
z
" clip-path="url(#pca5976e979)" style="fill: #ff7f0e; fill-opacity: 0.5; stroke: #000000; stroke-linejoin: miter"/>
   </g>
   <g id="patch_58">
    <path d="M 73.832727 307.584 
L 103.346777 307.584 
L 103.346777 307.584 
L 73.832727 307.584 
z
" clip-path="url(#pca5976e979)" style="fill: #1f77b4; fill-opacity: 0.5; stroke: #000000; stroke-linejoin: miter"/>
   </g>
   <g id="patch_59">
    <path d="M 103.346777 307.584 
L 132.860826 307.584 
L 132.860826 307.584 
L 103.346777 307.584 
z
" clip-path="url(#pca5976e979)" style="fill: #1f77b4; fill-opacity: 0.5; stroke: #000000; stroke-linejoin: miter"/>
   </g>
   <g id="patch_60">
    <path d="M 132.860826 307.584 
L 162.374876 307.584 
L 162.374876 307.06171 
L 132.860826 307.06171 
z
" clip-path="url(#pca5976e979)" style="fill: #1f77b4; fill-opacity: 0.5; stroke: #000000; stroke-linejoin: miter"/>
   </g>
   <g id="patch_61">
    <path d="M 162.374876 307.584 
L 191.888926 307.584 
L 191.888926 306.278275 
L 162.374876 306.278275 
z
" clip-path="url(#pca5976e979)" style="fill: #1f77b4; fill-opacity: 0.5; stroke: #000000; stroke-linejoin: miter"/>
   </g>
   <g id="patch_62">
    <path d="M 191.888926 307.584 
L 221.402975 307.584 
L 221.402975 307.584 
L 191.888926 307.584 
z
" clip-path="url(#pca5976e979)" style="fill: #1f77b4; fill-opacity: 0.5; stroke: #000000; stroke-linejoin: miter"/>
   </g>
   <g id="patch_63">
    <path d="M 221.402975 307.584 
L 250.917025 307.584 
L 250.917025 307.584 
L 221.402975 307.584 
z
" clip-path="url(#pca5976e979)" style="fill: #1f77b4; fill-opacity: 0.5; stroke: #000000; stroke-linejoin: miter"/>
   </g>
   <g id="patch_64">
    <path d="M 250.917025 307.584 
L 280.431074 307.584 
L 280.431074 307.584 
L 250.917025 307.584 
z
" clip-path="url(#pca5976e979)" style="fill: #1f77b4; fill-opacity: 0.5; stroke: #000000; stroke-linejoin: miter"/>
   </g>
   <g id="patch_65">
    <path d="M 280.431074 307.584 
L 309.945124 307.584 
L 309.945124 307.584 
L 280.431074 307.584 
z
" clip-path="url(#pca5976e979)" style="fill: #1f77b4; fill-opacity: 0.5; stroke: #000000; stroke-linejoin: miter"/>
   </g>
   <g id="patch_66">
    <path d="M 309.945124 307.584 
L 339.459174 307.584 
L 339.459174 307.584 
L 309.945124 307.584 
z
" clip-path="url(#pca5976e979)" style="fill: #1f77b4; fill-opacity: 0.5; stroke: #000000; stroke-linejoin: miter"/>
   </g>
   <g id="patch_67">
    <path d="M 339.459174 307.584 
L 368.973223 307.584 
L 368.973223 307.584 
L 339.459174 307.584 
z
" clip-path="url(#pca5976e979)" style="fill: #1f77b4; fill-opacity: 0.5; stroke: #000000; stroke-linejoin: miter"/>
   </g>
   <g id="patch_68">
    <path d="M 368.973223 307.584 
L 398.487273 307.584 
L 398.487273 307.584 
L 368.973223 307.584 
z
" clip-path="url(#pca5976e979)" style="fill: #1f77b4; fill-opacity: 0.5; stroke: #000000; stroke-linejoin: miter"/>
   </g>
   <g id="matplotlib.axis_1">
    <g id="xtick_1">
     <g id="line2d_1">
      <defs>
       <path id="mc632baa51d" d="M 0 0 
L 0 3.5 
" style="stroke: #000000; stroke-width: 0.8"/>
      </defs>
      <g>
       <use xlink:href="#mc632baa51d" x="69.34275" y="307.584" style="stroke: #000000; stroke-width: 0.8"/>
      </g>
     </g>
     <g id="text_1">
      <!-- 0.10 -->
      <g transform="translate(58.209937 322.182437) scale(0.1 -0.1)">
       <defs>
        <path id="DejaVuSans-30" d="M 2034 4250 
Q 1547 4250 1301 3770 
Q 1056 3291 1056 2328 
Q 1056 1369 1301 889 
Q 1547 409 2034 409 
Q 2525 409 2770 889 
Q 3016 1369 3016 2328 
Q 3016 3291 2770 3770 
Q 2525 4250 2034 4250 
z
M 2034 4750 
Q 2819 4750 3233 4129 
Q 3647 3509 3647 2328 
Q 3647 1150 3233 529 
Q 2819 -91 2034 -91 
Q 1250 -91 836 529 
Q 422 1150 422 2328 
Q 422 3509 836 4129 
Q 1250 4750 2034 4750 
z
" transform="scale(0.015625)"/>
        <path id="DejaVuSans-2e" d="M 684 794 
L 1344 794 
L 1344 0 
L 684 0 
L 684 794 
z
" transform="scale(0.015625)"/>
        <path id="DejaVuSans-31" d="M 794 531 
L 1825 531 
L 1825 4091 
L 703 3866 
L 703 4441 
L 1819 4666 
L 2450 4666 
L 2450 531 
L 3481 531 
L 3481 0 
L 794 0 
L 794 531 
z
" transform="scale(0.015625)"/>
       </defs>
       <use xlink:href="#DejaVuSans-30"/>
       <use xlink:href="#DejaVuSans-2e" x="63.623047"/>
       <use xlink:href="#DejaVuSans-31" x="95.410156"/>
       <use xlink:href="#DejaVuSans-30" x="159.033203"/>
      </g>
     </g>
    </g>
    <g id="xtick_2">
     <g id="line2d_2">
      <g>
       <use xlink:href="#mc632baa51d" x="135.389069" y="307.584" style="stroke: #000000; stroke-width: 0.8"/>
      </g>
     </g>
     <g id="text_2">
      <!-- 0.15 -->
      <g transform="translate(124.256257 322.182437) scale(0.1 -0.1)">
       <defs>
        <path id="DejaVuSans-35" d="M 691 4666 
L 3169 4666 
L 3169 4134 
L 1269 4134 
L 1269 2991 
Q 1406 3038 1543 3061 
Q 1681 3084 1819 3084 
Q 2600 3084 3056 2656 
Q 3513 2228 3513 1497 
Q 3513 744 3044 326 
Q 2575 -91 1722 -91 
Q 1428 -91 1123 -41 
Q 819 9 494 109 
L 494 744 
Q 775 591 1075 516 
Q 1375 441 1709 441 
Q 2250 441 2565 725 
Q 2881 1009 2881 1497 
Q 2881 1984 2565 2268 
Q 2250 2553 1709 2553 
Q 1456 2553 1204 2497 
Q 953 2441 691 2322 
L 691 4666 
z
" transform="scale(0.015625)"/>
       </defs>
       <use xlink:href="#DejaVuSans-30"/>
       <use xlink:href="#DejaVuSans-2e" x="63.623047"/>
       <use xlink:href="#DejaVuSans-31" x="95.410156"/>
       <use xlink:href="#DejaVuSans-35" x="159.033203"/>
      </g>
     </g>
    </g>
    <g id="xtick_3">
     <g id="line2d_3">
      <g>
       <use xlink:href="#mc632baa51d" x="201.435389" y="307.584" style="stroke: #000000; stroke-width: 0.8"/>
      </g>
     </g>
     <g id="text_3">
      <!-- 0.20 -->
      <g transform="translate(190.302576 322.182437) scale(0.1 -0.1)">
       <defs>
        <path id="DejaVuSans-32" d="M 1228 531 
L 3431 531 
L 3431 0 
L 469 0 
L 469 531 
Q 828 903 1448 1529 
Q 2069 2156 2228 2338 
Q 2531 2678 2651 2914 
Q 2772 3150 2772 3378 
Q 2772 3750 2511 3984 
Q 2250 4219 1831 4219 
Q 1534 4219 1204 4116 
Q 875 4013 500 3803 
L 500 4441 
Q 881 4594 1212 4672 
Q 1544 4750 1819 4750 
Q 2544 4750 2975 4387 
Q 3406 4025 3406 3419 
Q 3406 3131 3298 2873 
Q 3191 2616 2906 2266 
Q 2828 2175 2409 1742 
Q 1991 1309 1228 531 
z
" transform="scale(0.015625)"/>
       </defs>
       <use xlink:href="#DejaVuSans-30"/>
       <use xlink:href="#DejaVuSans-2e" x="63.623047"/>
       <use xlink:href="#DejaVuSans-32" x="95.410156"/>
       <use xlink:href="#DejaVuSans-30" x="159.033203"/>
      </g>
     </g>
    </g>
    <g id="xtick_4">
     <g id="line2d_4">
      <g>
       <use xlink:href="#mc632baa51d" x="267.481708" y="307.584" style="stroke: #000000; stroke-width: 0.8"/>
      </g>
     </g>
     <g id="text_4">
      <!-- 0.25 -->
      <g transform="translate(256.348896 322.182437) scale(0.1 -0.1)">
       <use xlink:href="#DejaVuSans-30"/>
       <use xlink:href="#DejaVuSans-2e" x="63.623047"/>
       <use xlink:href="#DejaVuSans-32" x="95.410156"/>
       <use xlink:href="#DejaVuSans-35" x="159.033203"/>
      </g>
     </g>
    </g>
    <g id="xtick_5">
     <g id="line2d_5">
      <g>
       <use xlink:href="#mc632baa51d" x="333.528028" y="307.584" style="stroke: #000000; stroke-width: 0.8"/>
      </g>
     </g>
     <g id="text_5">
      <!-- 0.30 -->
      <g transform="translate(322.395215 322.182437) scale(0.1 -0.1)">
       <defs>
        <path id="DejaVuSans-33" d="M 2597 2516 
Q 3050 2419 3304 2112 
Q 3559 1806 3559 1356 
Q 3559 666 3084 287 
Q 2609 -91 1734 -91 
Q 1441 -91 1130 -33 
Q 819 25 488 141 
L 488 750 
Q 750 597 1062 519 
Q 1375 441 1716 441 
Q 2309 441 2620 675 
Q 2931 909 2931 1356 
Q 2931 1769 2642 2001 
Q 2353 2234 1838 2234 
L 1294 2234 
L 1294 2753 
L 1863 2753 
Q 2328 2753 2575 2939 
Q 2822 3125 2822 3475 
Q 2822 3834 2567 4026 
Q 2313 4219 1838 4219 
Q 1578 4219 1281 4162 
Q 984 4106 628 3988 
L 628 4550 
Q 988 4650 1302 4700 
Q 1616 4750 1894 4750 
Q 2613 4750 3031 4423 
Q 3450 4097 3450 3541 
Q 3450 3153 3228 2886 
Q 3006 2619 2597 2516 
z
" transform="scale(0.015625)"/>
       </defs>
       <use xlink:href="#DejaVuSans-30"/>
       <use xlink:href="#DejaVuSans-2e" x="63.623047"/>
       <use xlink:href="#DejaVuSans-33" x="95.410156"/>
       <use xlink:href="#DejaVuSans-30" x="159.033203"/>
      </g>
     </g>
    </g>
    <g id="xtick_6">
     <g id="line2d_6">
      <g>
       <use xlink:href="#mc632baa51d" x="399.574347" y="307.584" style="stroke: #000000; stroke-width: 0.8"/>
      </g>
     </g>
     <g id="text_6">
      <!-- 0.35 -->
      <g transform="translate(388.441535 322.182437) scale(0.1 -0.1)">
       <use xlink:href="#DejaVuSans-30"/>
       <use xlink:href="#DejaVuSans-2e" x="63.623047"/>
       <use xlink:href="#DejaVuSans-33" x="95.410156"/>
       <use xlink:href="#DejaVuSans-35" x="159.033203"/>
      </g>
     </g>
    </g>
   </g>
   <g id="matplotlib.axis_2">
    <g id="ytick_1">
     <g id="line2d_7">
      <defs>
       <path id="m2af4de8bf3" d="M 0 0 
L -3.5 0 
" style="stroke: #000000; stroke-width: 0.8"/>
      </defs>
      <g>
       <use xlink:href="#m2af4de8bf3" x="57.6" y="307.584" style="stroke: #000000; stroke-width: 0.8"/>
      </g>
     </g>
     <g id="text_7">
      <!-- 0 -->
      <g transform="translate(44.2375 311.383219) scale(0.1 -0.1)">
       <use xlink:href="#DejaVuSans-30"/>
      </g>
     </g>
    </g>
    <g id="ytick_2">
     <g id="line2d_8">
      <g>
       <use xlink:href="#m2af4de8bf3" x="57.6" y="255.354981" style="stroke: #000000; stroke-width: 0.8"/>
      </g>
     </g>
     <g id="text_8">
      <!-- 200 -->
      <g transform="translate(31.5125 259.1542) scale(0.1 -0.1)">
       <use xlink:href="#DejaVuSans-32"/>
       <use xlink:href="#DejaVuSans-30" x="63.623047"/>
       <use xlink:href="#DejaVuSans-30" x="127.246094"/>
      </g>
     </g>
    </g>
    <g id="ytick_3">
     <g id="line2d_9">
      <g>
       <use xlink:href="#m2af4de8bf3" x="57.6" y="203.125962" style="stroke: #000000; stroke-width: 0.8"/>
      </g>
     </g>
     <g id="text_9">
      <!-- 400 -->
      <g transform="translate(31.5125 206.925181) scale(0.1 -0.1)">
       <defs>
        <path id="DejaVuSans-34" d="M 2419 4116 
L 825 1625 
L 2419 1625 
L 2419 4116 
z
M 2253 4666 
L 3047 4666 
L 3047 1625 
L 3713 1625 
L 3713 1100 
L 3047 1100 
L 3047 0 
L 2419 0 
L 2419 1100 
L 313 1100 
L 313 1709 
L 2253 4666 
z
" transform="scale(0.015625)"/>
       </defs>
       <use xlink:href="#DejaVuSans-34"/>
       <use xlink:href="#DejaVuSans-30" x="63.623047"/>
       <use xlink:href="#DejaVuSans-30" x="127.246094"/>
      </g>
     </g>
    </g>
    <g id="ytick_4">
     <g id="line2d_10">
      <g>
       <use xlink:href="#m2af4de8bf3" x="57.6" y="150.896943" style="stroke: #000000; stroke-width: 0.8"/>
      </g>
     </g>
     <g id="text_10">
      <!-- 600 -->
      <g transform="translate(31.5125 154.696162) scale(0.1 -0.1)">
       <defs>
        <path id="DejaVuSans-36" d="M 2113 2584 
Q 1688 2584 1439 2293 
Q 1191 2003 1191 1497 
Q 1191 994 1439 701 
Q 1688 409 2113 409 
Q 2538 409 2786 701 
Q 3034 994 3034 1497 
Q 3034 2003 2786 2293 
Q 2538 2584 2113 2584 
z
M 3366 4563 
L 3366 3988 
Q 3128 4100 2886 4159 
Q 2644 4219 2406 4219 
Q 1781 4219 1451 3797 
Q 1122 3375 1075 2522 
Q 1259 2794 1537 2939 
Q 1816 3084 2150 3084 
Q 2853 3084 3261 2657 
Q 3669 2231 3669 1497 
Q 3669 778 3244 343 
Q 2819 -91 2113 -91 
Q 1303 -91 875 529 
Q 447 1150 447 2328 
Q 447 3434 972 4092 
Q 1497 4750 2381 4750 
Q 2619 4750 2861 4703 
Q 3103 4656 3366 4563 
z
" transform="scale(0.015625)"/>
       </defs>
       <use xlink:href="#DejaVuSans-36"/>
       <use xlink:href="#DejaVuSans-30" x="63.623047"/>
       <use xlink:href="#DejaVuSans-30" x="127.246094"/>
      </g>
     </g>
    </g>
    <g id="ytick_5">
     <g id="line2d_11">
      <g>
       <use xlink:href="#m2af4de8bf3" x="57.6" y="98.667924" style="stroke: #000000; stroke-width: 0.8"/>
      </g>
     </g>
     <g id="text_11">
      <!-- 800 -->
      <g transform="translate(31.5125 102.467143) scale(0.1 -0.1)">
       <defs>
        <path id="DejaVuSans-38" d="M 2034 2216 
Q 1584 2216 1326 1975 
Q 1069 1734 1069 1313 
Q 1069 891 1326 650 
Q 1584 409 2034 409 
Q 2484 409 2743 651 
Q 3003 894 3003 1313 
Q 3003 1734 2745 1975 
Q 2488 2216 2034 2216 
z
M 1403 2484 
Q 997 2584 770 2862 
Q 544 3141 544 3541 
Q 544 4100 942 4425 
Q 1341 4750 2034 4750 
Q 2731 4750 3128 4425 
Q 3525 4100 3525 3541 
Q 3525 3141 3298 2862 
Q 3072 2584 2669 2484 
Q 3125 2378 3379 2068 
Q 3634 1759 3634 1313 
Q 3634 634 3220 271 
Q 2806 -91 2034 -91 
Q 1263 -91 848 271 
Q 434 634 434 1313 
Q 434 1759 690 2068 
Q 947 2378 1403 2484 
z
M 1172 3481 
Q 1172 3119 1398 2916 
Q 1625 2713 2034 2713 
Q 2441 2713 2670 2916 
Q 2900 3119 2900 3481 
Q 2900 3844 2670 4047 
Q 2441 4250 2034 4250 
Q 1625 4250 1398 4047 
Q 1172 3844 1172 3481 
z
" transform="scale(0.015625)"/>
       </defs>
       <use xlink:href="#DejaVuSans-38"/>
       <use xlink:href="#DejaVuSans-30" x="63.623047"/>
       <use xlink:href="#DejaVuSans-30" x="127.246094"/>
      </g>
     </g>
    </g>
    <g id="ytick_6">
     <g id="line2d_12">
      <g>
       <use xlink:href="#m2af4de8bf3" x="57.6" y="46.438906" style="stroke: #000000; stroke-width: 0.8"/>
      </g>
     </g>
     <g id="text_12">
      <!-- 1000 -->
      <g transform="translate(25.15 50.238124) scale(0.1 -0.1)">
       <use xlink:href="#DejaVuSans-31"/>
       <use xlink:href="#DejaVuSans-30" x="63.623047"/>
       <use xlink:href="#DejaVuSans-30" x="127.246094"/>
       <use xlink:href="#DejaVuSans-30" x="190.869141"/>
      </g>
     </g>
    </g>
    <g id="text_13">
     <!-- Count -->
     <g transform="translate(19.070312 189.376437) rotate(-90) scale(0.1 -0.1)">
      <defs>
       <path id="DejaVuSans-43" d="M 4122 4306 
L 4122 3641 
Q 3803 3938 3442 4084 
Q 3081 4231 2675 4231 
Q 1875 4231 1450 3742 
Q 1025 3253 1025 2328 
Q 1025 1406 1450 917 
Q 1875 428 2675 428 
Q 3081 428 3442 575 
Q 3803 722 4122 1019 
L 4122 359 
Q 3791 134 3420 21 
Q 3050 -91 2638 -91 
Q 1578 -91 968 557 
Q 359 1206 359 2328 
Q 359 3453 968 4101 
Q 1578 4750 2638 4750 
Q 3056 4750 3426 4639 
Q 3797 4528 4122 4306 
z
" transform="scale(0.015625)"/>
       <path id="DejaVuSans-6f" d="M 1959 3097 
Q 1497 3097 1228 2736 
Q 959 2375 959 1747 
Q 959 1119 1226 758 
Q 1494 397 1959 397 
Q 2419 397 2687 759 
Q 2956 1122 2956 1747 
Q 2956 2369 2687 2733 
Q 2419 3097 1959 3097 
z
M 1959 3584 
Q 2709 3584 3137 3096 
Q 3566 2609 3566 1747 
Q 3566 888 3137 398 
Q 2709 -91 1959 -91 
Q 1206 -91 779 398 
Q 353 888 353 1747 
Q 353 2609 779 3096 
Q 1206 3584 1959 3584 
z
" transform="scale(0.015625)"/>
       <path id="DejaVuSans-75" d="M 544 1381 
L 544 3500 
L 1119 3500 
L 1119 1403 
Q 1119 906 1312 657 
Q 1506 409 1894 409 
Q 2359 409 2629 706 
Q 2900 1003 2900 1516 
L 2900 3500 
L 3475 3500 
L 3475 0 
L 2900 0 
L 2900 538 
Q 2691 219 2414 64 
Q 2138 -91 1772 -91 
Q 1169 -91 856 284 
Q 544 659 544 1381 
z
M 1991 3584 
L 1991 3584 
z
" transform="scale(0.015625)"/>
       <path id="DejaVuSans-6e" d="M 3513 2113 
L 3513 0 
L 2938 0 
L 2938 2094 
Q 2938 2591 2744 2837 
Q 2550 3084 2163 3084 
Q 1697 3084 1428 2787 
Q 1159 2491 1159 1978 
L 1159 0 
L 581 0 
L 581 3500 
L 1159 3500 
L 1159 2956 
Q 1366 3272 1645 3428 
Q 1925 3584 2291 3584 
Q 2894 3584 3203 3211 
Q 3513 2838 3513 2113 
z
" transform="scale(0.015625)"/>
       <path id="DejaVuSans-74" d="M 1172 4494 
L 1172 3500 
L 2356 3500 
L 2356 3053 
L 1172 3053 
L 1172 1153 
Q 1172 725 1289 603 
Q 1406 481 1766 481 
L 2356 481 
L 2356 0 
L 1766 0 
Q 1100 0 847 248 
Q 594 497 594 1153 
L 594 3053 
L 172 3053 
L 172 3500 
L 594 3500 
L 594 4494 
L 1172 4494 
z
" transform="scale(0.015625)"/>
      </defs>
      <use xlink:href="#DejaVuSans-43"/>
      <use xlink:href="#DejaVuSans-6f" x="69.824219"/>
      <use xlink:href="#DejaVuSans-75" x="131.005859"/>
      <use xlink:href="#DejaVuSans-6e" x="194.384766"/>
      <use xlink:href="#DejaVuSans-74" x="257.763672"/>
     </g>
    </g>
   </g>
   <g id="line2d_13">
    <path d="M 73.832727 292.767368 
L 75.464157 278.310377 
L 77.095587 258.46907 
L 78.727017 229.33236 
L 85.252736 93.303467 
L 86.884166 64.876682 
L 88.515596 54.144 
L 90.147026 73.001275 
L 95.041316 181.327166 
L 96.672746 211.372639 
L 99.935605 248.464617 
L 101.567035 269.698452 
L 103.198465 286.890918 
L 104.829895 297.923186 
L 106.461325 303.703475 
L 108.092755 305.189502 
L 109.724185 304.783038 
L 111.355614 304.958325 
L 114.618474 307.169098 
L 116.249904 307.529303 
L 121.144194 307.583999 
L 398.487273 307.584 
L 398.487273 307.584 
" clip-path="url(#pca5976e979)" style="fill: none; stroke: #8c564b; stroke-width: 1.5; stroke-linecap: square"/>
   </g>
   <g id="line2d_14">
    <path d="M 73.832727 307.584 
L 192.927108 307.481538 
L 196.189968 307.065109 
L 199.452828 306.517206 
L 202.715688 306.108279 
L 204.347117 305.669919 
L 209.241407 303.656542 
L 210.872837 303.288745 
L 212.504267 303.456624 
L 214.135697 304.242755 
L 217.398556 306.410604 
L 219.029986 307.088555 
L 220.661416 307.41844 
L 223.924276 307.574928 
L 248.395724 307.584 
L 398.487273 307.584 
L 398.487273 307.584 
" clip-path="url(#pca5976e979)" style="fill: none; stroke: #9467bd; stroke-width: 1.5; stroke-linecap: square"/>
   </g>
   <g id="line2d_15">
    <path d="M 73.832727 307.584 
L 338.124367 307.536591 
L 339.755797 307.397904 
L 341.387227 307.018875 
L 343.018657 306.248157 
L 349.544376 301.776477 
L 351.175806 299.837121 
L 352.807236 296.315473 
L 354.438666 291.190701 
L 356.070096 284.873052 
L 357.701526 277.664014 
L 359.332956 269.579119 
L 360.964386 260.376465 
L 365.858675 228.914082 
L 367.490105 223.228885 
L 369.121535 222.469217 
L 370.752965 225.271431 
L 374.015825 233.738304 
L 375.647254 238.386818 
L 377.278684 244.673772 
L 378.910114 253.394848 
L 382.172974 273.192268 
L 383.804404 280.725477 
L 385.435834 286.227929 
L 387.067264 290.396713 
L 388.698693 293.679974 
L 390.330123 296.250452 
L 391.961553 298.345593 
L 393.592983 300.214459 
L 395.224413 301.881041 
L 396.855843 303.256434 
L 398.487273 304.401644 
L 398.487273 304.401644 
" clip-path="url(#pca5976e979)" style="fill: none; stroke: #d62728; stroke-width: 1.5; stroke-linecap: square"/>
   </g>
   <g id="line2d_16">
    <path d="M 73.832727 307.584 
L 215.767127 307.51608 
L 219.029986 307.21242 
L 222.292846 306.579434 
L 227.187136 305.448857 
L 232.081425 304.100331 
L 233.712855 304.018051 
L 235.344285 304.251462 
L 238.607145 305.286477 
L 241.870005 306.407244 
L 243.501434 306.864659 
L 245.132864 307.203202 
L 248.395724 307.520356 
L 253.290014 307.582982 
L 398.487273 307.584 
L 398.487273 307.584 
" clip-path="url(#pca5976e979)" style="fill: none; stroke: #2ca02c; stroke-width: 1.5; stroke-linecap: square"/>
   </g>
   <g id="line2d_17">
    <path d="M 73.832727 307.584 
L 140.721352 307.531516 
L 143.984212 307.306882 
L 153.772791 306.104226 
L 155.404221 305.667499 
L 160.298511 303.947229 
L 161.929941 303.827032 
L 163.56137 304.117571 
L 165.1928 304.717021 
L 168.45566 306.130542 
L 170.08709 306.692208 
L 171.71852 307.095775 
L 173.34995 307.349793 
L 176.61281 307.550029 
L 186.401389 307.583999 
L 398.487273 307.584 
L 398.487273 307.584 
" clip-path="url(#pca5976e979)" style="fill: none; stroke: #ff7f0e; stroke-width: 1.5; stroke-linecap: square"/>
   </g>
   <g id="line2d_18">
    <path d="M 73.832727 307.584 
L 150.509931 307.481969 
L 152.141361 307.287825 
L 157.035651 306.279308 
L 158.667081 306.06518 
L 160.298511 305.682205 
L 161.929941 304.935797 
L 165.1928 302.995151 
L 166.82423 302.675252 
L 168.45566 303.228043 
L 173.34995 306.782745 
L 174.98138 307.3096 
L 176.61281 307.512945 
L 181.507099 307.58379 
L 398.487273 307.584 
L 398.487273 307.584 
" clip-path="url(#pca5976e979)" style="fill: none; stroke: #1f77b4; stroke-width: 1.5; stroke-linecap: square"/>
   </g>
   <g id="patch_69">
    <path d="M 57.6 307.584 
L 57.6 41.472 
" style="fill: none; stroke: #000000; stroke-width: 0.8; stroke-linejoin: miter; stroke-linecap: square"/>
   </g>
   <g id="patch_70">
    <path d="M 414.72 307.584 
L 414.72 41.472 
" style="fill: none; stroke: #000000; stroke-width: 0.8; stroke-linejoin: miter; stroke-linecap: square"/>
   </g>
   <g id="patch_71">
    <path d="M 57.6 307.584 
L 414.72 307.584 
" style="fill: none; stroke: #000000; stroke-width: 0.8; stroke-linejoin: miter; stroke-linecap: square"/>
   </g>
   <g id="patch_72">
    <path d="M 57.6 41.472 
L 414.72 41.472 
" style="fill: none; stroke: #000000; stroke-width: 0.8; stroke-linejoin: miter; stroke-linecap: square"/>
   </g>
   <g id="legend_1">
    <g id="patch_73">
     <path d="M 184.073125 137.54075 
L 407.72 137.54075 
Q 409.72 137.54075 409.72 135.54075 
L 409.72 48.472 
Q 409.72 46.472 407.72 46.472 
L 184.073125 46.472 
Q 182.073125 46.472 182.073125 48.472 
L 182.073125 135.54075 
Q 182.073125 137.54075 184.073125 137.54075 
z
" style="fill: #ffffff; opacity: 0.8; stroke: #cccccc; stroke-linejoin: miter"/>
    </g>
    <g id="patch_74">
     <path d="M 186.073125 58.070438 
L 206.073125 58.070438 
L 206.073125 51.070438 
L 186.073125 51.070438 
z
" style="fill: #1f77b4; fill-opacity: 0.5; stroke: #000000; stroke-linejoin: miter"/>
    </g>
    <g id="text_14">
     <!-- modelname = facebook/bart-base -->
     <g transform="translate(214.073125 58.070438) scale(0.1 -0.1)">
      <defs>
       <path id="DejaVuSans-6d" d="M 3328 2828 
Q 3544 3216 3844 3400 
Q 4144 3584 4550 3584 
Q 5097 3584 5394 3201 
Q 5691 2819 5691 2113 
L 5691 0 
L 5113 0 
L 5113 2094 
Q 5113 2597 4934 2840 
Q 4756 3084 4391 3084 
Q 3944 3084 3684 2787 
Q 3425 2491 3425 1978 
L 3425 0 
L 2847 0 
L 2847 2094 
Q 2847 2600 2669 2842 
Q 2491 3084 2119 3084 
Q 1678 3084 1418 2786 
Q 1159 2488 1159 1978 
L 1159 0 
L 581 0 
L 581 3500 
L 1159 3500 
L 1159 2956 
Q 1356 3278 1631 3431 
Q 1906 3584 2284 3584 
Q 2666 3584 2933 3390 
Q 3200 3197 3328 2828 
z
" transform="scale(0.015625)"/>
       <path id="DejaVuSans-64" d="M 2906 2969 
L 2906 4863 
L 3481 4863 
L 3481 0 
L 2906 0 
L 2906 525 
Q 2725 213 2448 61 
Q 2172 -91 1784 -91 
Q 1150 -91 751 415 
Q 353 922 353 1747 
Q 353 2572 751 3078 
Q 1150 3584 1784 3584 
Q 2172 3584 2448 3432 
Q 2725 3281 2906 2969 
z
M 947 1747 
Q 947 1113 1208 752 
Q 1469 391 1925 391 
Q 2381 391 2643 752 
Q 2906 1113 2906 1747 
Q 2906 2381 2643 2742 
Q 2381 3103 1925 3103 
Q 1469 3103 1208 2742 
Q 947 2381 947 1747 
z
" transform="scale(0.015625)"/>
       <path id="DejaVuSans-65" d="M 3597 1894 
L 3597 1613 
L 953 1613 
Q 991 1019 1311 708 
Q 1631 397 2203 397 
Q 2534 397 2845 478 
Q 3156 559 3463 722 
L 3463 178 
Q 3153 47 2828 -22 
Q 2503 -91 2169 -91 
Q 1331 -91 842 396 
Q 353 884 353 1716 
Q 353 2575 817 3079 
Q 1281 3584 2069 3584 
Q 2775 3584 3186 3129 
Q 3597 2675 3597 1894 
z
M 3022 2063 
Q 3016 2534 2758 2815 
Q 2500 3097 2075 3097 
Q 1594 3097 1305 2825 
Q 1016 2553 972 2059 
L 3022 2063 
z
" transform="scale(0.015625)"/>
       <path id="DejaVuSans-6c" d="M 603 4863 
L 1178 4863 
L 1178 0 
L 603 0 
L 603 4863 
z
" transform="scale(0.015625)"/>
       <path id="DejaVuSans-61" d="M 2194 1759 
Q 1497 1759 1228 1600 
Q 959 1441 959 1056 
Q 959 750 1161 570 
Q 1363 391 1709 391 
Q 2188 391 2477 730 
Q 2766 1069 2766 1631 
L 2766 1759 
L 2194 1759 
z
M 3341 1997 
L 3341 0 
L 2766 0 
L 2766 531 
Q 2569 213 2275 61 
Q 1981 -91 1556 -91 
Q 1019 -91 701 211 
Q 384 513 384 1019 
Q 384 1609 779 1909 
Q 1175 2209 1959 2209 
L 2766 2209 
L 2766 2266 
Q 2766 2663 2505 2880 
Q 2244 3097 1772 3097 
Q 1472 3097 1187 3025 
Q 903 2953 641 2809 
L 641 3341 
Q 956 3463 1253 3523 
Q 1550 3584 1831 3584 
Q 2591 3584 2966 3190 
Q 3341 2797 3341 1997 
z
" transform="scale(0.015625)"/>
       <path id="DejaVuSans-20" transform="scale(0.015625)"/>
       <path id="DejaVuSans-3d" d="M 678 2906 
L 4684 2906 
L 4684 2381 
L 678 2381 
L 678 2906 
z
M 678 1631 
L 4684 1631 
L 4684 1100 
L 678 1100 
L 678 1631 
z
" transform="scale(0.015625)"/>
       <path id="DejaVuSans-66" d="M 2375 4863 
L 2375 4384 
L 1825 4384 
Q 1516 4384 1395 4259 
Q 1275 4134 1275 3809 
L 1275 3500 
L 2222 3500 
L 2222 3053 
L 1275 3053 
L 1275 0 
L 697 0 
L 697 3053 
L 147 3053 
L 147 3500 
L 697 3500 
L 697 3744 
Q 697 4328 969 4595 
Q 1241 4863 1831 4863 
L 2375 4863 
z
" transform="scale(0.015625)"/>
       <path id="DejaVuSans-63" d="M 3122 3366 
L 3122 2828 
Q 2878 2963 2633 3030 
Q 2388 3097 2138 3097 
Q 1578 3097 1268 2742 
Q 959 2388 959 1747 
Q 959 1106 1268 751 
Q 1578 397 2138 397 
Q 2388 397 2633 464 
Q 2878 531 3122 666 
L 3122 134 
Q 2881 22 2623 -34 
Q 2366 -91 2075 -91 
Q 1284 -91 818 406 
Q 353 903 353 1747 
Q 353 2603 823 3093 
Q 1294 3584 2113 3584 
Q 2378 3584 2631 3529 
Q 2884 3475 3122 3366 
z
" transform="scale(0.015625)"/>
       <path id="DejaVuSans-62" d="M 3116 1747 
Q 3116 2381 2855 2742 
Q 2594 3103 2138 3103 
Q 1681 3103 1420 2742 
Q 1159 2381 1159 1747 
Q 1159 1113 1420 752 
Q 1681 391 2138 391 
Q 2594 391 2855 752 
Q 3116 1113 3116 1747 
z
M 1159 2969 
Q 1341 3281 1617 3432 
Q 1894 3584 2278 3584 
Q 2916 3584 3314 3078 
Q 3713 2572 3713 1747 
Q 3713 922 3314 415 
Q 2916 -91 2278 -91 
Q 1894 -91 1617 61 
Q 1341 213 1159 525 
L 1159 0 
L 581 0 
L 581 4863 
L 1159 4863 
L 1159 2969 
z
" transform="scale(0.015625)"/>
       <path id="DejaVuSans-6b" d="M 581 4863 
L 1159 4863 
L 1159 1991 
L 2875 3500 
L 3609 3500 
L 1753 1863 
L 3688 0 
L 2938 0 
L 1159 1709 
L 1159 0 
L 581 0 
L 581 4863 
z
" transform="scale(0.015625)"/>
       <path id="DejaVuSans-2f" d="M 1625 4666 
L 2156 4666 
L 531 -594 
L 0 -594 
L 1625 4666 
z
" transform="scale(0.015625)"/>
       <path id="DejaVuSans-72" d="M 2631 2963 
Q 2534 3019 2420 3045 
Q 2306 3072 2169 3072 
Q 1681 3072 1420 2755 
Q 1159 2438 1159 1844 
L 1159 0 
L 581 0 
L 581 3500 
L 1159 3500 
L 1159 2956 
Q 1341 3275 1631 3429 
Q 1922 3584 2338 3584 
Q 2397 3584 2469 3576 
Q 2541 3569 2628 3553 
L 2631 2963 
z
" transform="scale(0.015625)"/>
       <path id="DejaVuSans-2d" d="M 313 2009 
L 1997 2009 
L 1997 1497 
L 313 1497 
L 313 2009 
z
" transform="scale(0.015625)"/>
       <path id="DejaVuSans-73" d="M 2834 3397 
L 2834 2853 
Q 2591 2978 2328 3040 
Q 2066 3103 1784 3103 
Q 1356 3103 1142 2972 
Q 928 2841 928 2578 
Q 928 2378 1081 2264 
Q 1234 2150 1697 2047 
L 1894 2003 
Q 2506 1872 2764 1633 
Q 3022 1394 3022 966 
Q 3022 478 2636 193 
Q 2250 -91 1575 -91 
Q 1294 -91 989 -36 
Q 684 19 347 128 
L 347 722 
Q 666 556 975 473 
Q 1284 391 1588 391 
Q 1994 391 2212 530 
Q 2431 669 2431 922 
Q 2431 1156 2273 1281 
Q 2116 1406 1581 1522 
L 1381 1569 
Q 847 1681 609 1914 
Q 372 2147 372 2553 
Q 372 3047 722 3315 
Q 1072 3584 1716 3584 
Q 2034 3584 2315 3537 
Q 2597 3491 2834 3397 
z
" transform="scale(0.015625)"/>
      </defs>
      <use xlink:href="#DejaVuSans-6d"/>
      <use xlink:href="#DejaVuSans-6f" x="97.412109"/>
      <use xlink:href="#DejaVuSans-64" x="158.59375"/>
      <use xlink:href="#DejaVuSans-65" x="222.070312"/>
      <use xlink:href="#DejaVuSans-6c" x="283.59375"/>
      <use xlink:href="#DejaVuSans-6e" x="311.376953"/>
      <use xlink:href="#DejaVuSans-61" x="374.755859"/>
      <use xlink:href="#DejaVuSans-6d" x="436.035156"/>
      <use xlink:href="#DejaVuSans-65" x="533.447266"/>
      <use xlink:href="#DejaVuSans-20" x="594.970703"/>
      <use xlink:href="#DejaVuSans-3d" x="626.757812"/>
      <use xlink:href="#DejaVuSans-20" x="710.546875"/>
      <use xlink:href="#DejaVuSans-66" x="742.333984"/>
      <use xlink:href="#DejaVuSans-61" x="777.539062"/>
      <use xlink:href="#DejaVuSans-63" x="838.818359"/>
      <use xlink:href="#DejaVuSans-65" x="893.798828"/>
      <use xlink:href="#DejaVuSans-62" x="955.322266"/>
      <use xlink:href="#DejaVuSans-6f" x="1018.798828"/>
      <use xlink:href="#DejaVuSans-6f" x="1079.980469"/>
      <use xlink:href="#DejaVuSans-6b" x="1141.162109"/>
      <use xlink:href="#DejaVuSans-2f" x="1199.072266"/>
      <use xlink:href="#DejaVuSans-62" x="1232.763672"/>
      <use xlink:href="#DejaVuSans-61" x="1296.240234"/>
      <use xlink:href="#DejaVuSans-72" x="1357.519531"/>
      <use xlink:href="#DejaVuSans-74" x="1398.632812"/>
      <use xlink:href="#DejaVuSans-2d" x="1437.841797"/>
      <use xlink:href="#DejaVuSans-62" x="1473.925781"/>
      <use xlink:href="#DejaVuSans-61" x="1537.402344"/>
      <use xlink:href="#DejaVuSans-73" x="1598.681641"/>
      <use xlink:href="#DejaVuSans-65" x="1650.78125"/>
     </g>
    </g>
    <g id="patch_75">
     <path d="M 186.073125 72.748563 
L 206.073125 72.748563 
L 206.073125 65.748563 
L 186.073125 65.748563 
z
" style="fill: #ff7f0e; fill-opacity: 0.5; stroke: #000000; stroke-linejoin: miter"/>
    </g>
    <g id="text_15">
     <!-- modelname = bert-base-uncased -->
     <g transform="translate(214.073125 72.748563) scale(0.1 -0.1)">
      <use xlink:href="#DejaVuSans-6d"/>
      <use xlink:href="#DejaVuSans-6f" x="97.412109"/>
      <use xlink:href="#DejaVuSans-64" x="158.59375"/>
      <use xlink:href="#DejaVuSans-65" x="222.070312"/>
      <use xlink:href="#DejaVuSans-6c" x="283.59375"/>
      <use xlink:href="#DejaVuSans-6e" x="311.376953"/>
      <use xlink:href="#DejaVuSans-61" x="374.755859"/>
      <use xlink:href="#DejaVuSans-6d" x="436.035156"/>
      <use xlink:href="#DejaVuSans-65" x="533.447266"/>
      <use xlink:href="#DejaVuSans-20" x="594.970703"/>
      <use xlink:href="#DejaVuSans-3d" x="626.757812"/>
      <use xlink:href="#DejaVuSans-20" x="710.546875"/>
      <use xlink:href="#DejaVuSans-62" x="742.333984"/>
      <use xlink:href="#DejaVuSans-65" x="805.810547"/>
      <use xlink:href="#DejaVuSans-72" x="867.333984"/>
      <use xlink:href="#DejaVuSans-74" x="908.447266"/>
      <use xlink:href="#DejaVuSans-2d" x="947.65625"/>
      <use xlink:href="#DejaVuSans-62" x="983.740234"/>
      <use xlink:href="#DejaVuSans-61" x="1047.216797"/>
      <use xlink:href="#DejaVuSans-73" x="1108.496094"/>
      <use xlink:href="#DejaVuSans-65" x="1160.595703"/>
      <use xlink:href="#DejaVuSans-2d" x="1222.119141"/>
      <use xlink:href="#DejaVuSans-75" x="1258.203125"/>
      <use xlink:href="#DejaVuSans-6e" x="1321.582031"/>
      <use xlink:href="#DejaVuSans-63" x="1384.960938"/>
      <use xlink:href="#DejaVuSans-61" x="1439.941406"/>
      <use xlink:href="#DejaVuSans-73" x="1501.220703"/>
      <use xlink:href="#DejaVuSans-65" x="1553.320312"/>
      <use xlink:href="#DejaVuSans-64" x="1614.84375"/>
     </g>
    </g>
    <g id="patch_76">
     <path d="M 186.073125 87.426688 
L 206.073125 87.426688 
L 206.073125 80.426688 
L 186.073125 80.426688 
z
" style="fill: #2ca02c; fill-opacity: 0.5; stroke: #000000; stroke-linejoin: miter"/>
    </g>
    <g id="text_16">
     <!-- modelname = albert-base-v2 -->
     <g transform="translate(214.073125 87.426688) scale(0.1 -0.1)">
      <defs>
       <path id="DejaVuSans-76" d="M 191 3500 
L 800 3500 
L 1894 563 
L 2988 3500 
L 3597 3500 
L 2284 0 
L 1503 0 
L 191 3500 
z
" transform="scale(0.015625)"/>
      </defs>
      <use xlink:href="#DejaVuSans-6d"/>
      <use xlink:href="#DejaVuSans-6f" x="97.412109"/>
      <use xlink:href="#DejaVuSans-64" x="158.59375"/>
      <use xlink:href="#DejaVuSans-65" x="222.070312"/>
      <use xlink:href="#DejaVuSans-6c" x="283.59375"/>
      <use xlink:href="#DejaVuSans-6e" x="311.376953"/>
      <use xlink:href="#DejaVuSans-61" x="374.755859"/>
      <use xlink:href="#DejaVuSans-6d" x="436.035156"/>
      <use xlink:href="#DejaVuSans-65" x="533.447266"/>
      <use xlink:href="#DejaVuSans-20" x="594.970703"/>
      <use xlink:href="#DejaVuSans-3d" x="626.757812"/>
      <use xlink:href="#DejaVuSans-20" x="710.546875"/>
      <use xlink:href="#DejaVuSans-61" x="742.333984"/>
      <use xlink:href="#DejaVuSans-6c" x="803.613281"/>
      <use xlink:href="#DejaVuSans-62" x="831.396484"/>
      <use xlink:href="#DejaVuSans-65" x="894.873047"/>
      <use xlink:href="#DejaVuSans-72" x="956.396484"/>
      <use xlink:href="#DejaVuSans-74" x="997.509766"/>
      <use xlink:href="#DejaVuSans-2d" x="1036.71875"/>
      <use xlink:href="#DejaVuSans-62" x="1072.802734"/>
      <use xlink:href="#DejaVuSans-61" x="1136.279297"/>
      <use xlink:href="#DejaVuSans-73" x="1197.558594"/>
      <use xlink:href="#DejaVuSans-65" x="1249.658203"/>
      <use xlink:href="#DejaVuSans-2d" x="1311.181641"/>
      <use xlink:href="#DejaVuSans-76" x="1344.640625"/>
      <use xlink:href="#DejaVuSans-32" x="1403.820312"/>
     </g>
    </g>
    <g id="patch_77">
     <path d="M 186.073125 102.104813 
L 206.073125 102.104813 
L 206.073125 95.104813 
L 186.073125 95.104813 
z
" style="fill: #d62728; fill-opacity: 0.5; stroke: #000000; stroke-linejoin: miter"/>
    </g>
    <g id="text_17">
     <!-- modelname = roberta-base -->
     <g transform="translate(214.073125 102.104813) scale(0.1 -0.1)">
      <use xlink:href="#DejaVuSans-6d"/>
      <use xlink:href="#DejaVuSans-6f" x="97.412109"/>
      <use xlink:href="#DejaVuSans-64" x="158.59375"/>
      <use xlink:href="#DejaVuSans-65" x="222.070312"/>
      <use xlink:href="#DejaVuSans-6c" x="283.59375"/>
      <use xlink:href="#DejaVuSans-6e" x="311.376953"/>
      <use xlink:href="#DejaVuSans-61" x="374.755859"/>
      <use xlink:href="#DejaVuSans-6d" x="436.035156"/>
      <use xlink:href="#DejaVuSans-65" x="533.447266"/>
      <use xlink:href="#DejaVuSans-20" x="594.970703"/>
      <use xlink:href="#DejaVuSans-3d" x="626.757812"/>
      <use xlink:href="#DejaVuSans-20" x="710.546875"/>
      <use xlink:href="#DejaVuSans-72" x="742.333984"/>
      <use xlink:href="#DejaVuSans-6f" x="781.197266"/>
      <use xlink:href="#DejaVuSans-62" x="842.378906"/>
      <use xlink:href="#DejaVuSans-65" x="905.855469"/>
      <use xlink:href="#DejaVuSans-72" x="967.378906"/>
      <use xlink:href="#DejaVuSans-74" x="1008.492188"/>
      <use xlink:href="#DejaVuSans-61" x="1047.701172"/>
      <use xlink:href="#DejaVuSans-2d" x="1108.980469"/>
      <use xlink:href="#DejaVuSans-62" x="1145.064453"/>
      <use xlink:href="#DejaVuSans-61" x="1208.541016"/>
      <use xlink:href="#DejaVuSans-73" x="1269.820312"/>
      <use xlink:href="#DejaVuSans-65" x="1321.919922"/>
     </g>
    </g>
    <g id="patch_78">
     <path d="M 186.073125 116.782938 
L 206.073125 116.782938 
L 206.073125 109.782938 
L 186.073125 109.782938 
z
" style="fill: #9467bd; fill-opacity: 0.5; stroke: #000000; stroke-linejoin: miter"/>
    </g>
    <g id="text_18">
     <!-- modelname = distilbert-base-uncased -->
     <g transform="translate(214.073125 116.782938) scale(0.1 -0.1)">
      <defs>
       <path id="DejaVuSans-69" d="M 603 3500 
L 1178 3500 
L 1178 0 
L 603 0 
L 603 3500 
z
M 603 4863 
L 1178 4863 
L 1178 4134 
L 603 4134 
L 603 4863 
z
" transform="scale(0.015625)"/>
      </defs>
      <use xlink:href="#DejaVuSans-6d"/>
      <use xlink:href="#DejaVuSans-6f" x="97.412109"/>
      <use xlink:href="#DejaVuSans-64" x="158.59375"/>
      <use xlink:href="#DejaVuSans-65" x="222.070312"/>
      <use xlink:href="#DejaVuSans-6c" x="283.59375"/>
      <use xlink:href="#DejaVuSans-6e" x="311.376953"/>
      <use xlink:href="#DejaVuSans-61" x="374.755859"/>
      <use xlink:href="#DejaVuSans-6d" x="436.035156"/>
      <use xlink:href="#DejaVuSans-65" x="533.447266"/>
      <use xlink:href="#DejaVuSans-20" x="594.970703"/>
      <use xlink:href="#DejaVuSans-3d" x="626.757812"/>
      <use xlink:href="#DejaVuSans-20" x="710.546875"/>
      <use xlink:href="#DejaVuSans-64" x="742.333984"/>
      <use xlink:href="#DejaVuSans-69" x="805.810547"/>
      <use xlink:href="#DejaVuSans-73" x="833.59375"/>
      <use xlink:href="#DejaVuSans-74" x="885.693359"/>
      <use xlink:href="#DejaVuSans-69" x="924.902344"/>
      <use xlink:href="#DejaVuSans-6c" x="952.685547"/>
      <use xlink:href="#DejaVuSans-62" x="980.46875"/>
      <use xlink:href="#DejaVuSans-65" x="1043.945312"/>
      <use xlink:href="#DejaVuSans-72" x="1105.46875"/>
      <use xlink:href="#DejaVuSans-74" x="1146.582031"/>
      <use xlink:href="#DejaVuSans-2d" x="1185.791016"/>
      <use xlink:href="#DejaVuSans-62" x="1221.875"/>
      <use xlink:href="#DejaVuSans-61" x="1285.351562"/>
      <use xlink:href="#DejaVuSans-73" x="1346.630859"/>
      <use xlink:href="#DejaVuSans-65" x="1398.730469"/>
      <use xlink:href="#DejaVuSans-2d" x="1460.253906"/>
      <use xlink:href="#DejaVuSans-75" x="1496.337891"/>
      <use xlink:href="#DejaVuSans-6e" x="1559.716797"/>
      <use xlink:href="#DejaVuSans-63" x="1623.095703"/>
      <use xlink:href="#DejaVuSans-61" x="1678.076172"/>
      <use xlink:href="#DejaVuSans-73" x="1739.355469"/>
      <use xlink:href="#DejaVuSans-65" x="1791.455078"/>
      <use xlink:href="#DejaVuSans-64" x="1852.978516"/>
     </g>
    </g>
    <g id="patch_79">
     <path d="M 186.073125 131.461063 
L 206.073125 131.461063 
L 206.073125 124.461063 
L 186.073125 124.461063 
z
" style="fill: #8c564b; fill-opacity: 0.5; stroke: #000000; stroke-linejoin: miter"/>
    </g>
    <g id="text_19">
     <!-- modelname = xlm-roberta-base -->
     <g transform="translate(214.073125 131.461063) scale(0.1 -0.1)">
      <defs>
       <path id="DejaVuSans-78" d="M 3513 3500 
L 2247 1797 
L 3578 0 
L 2900 0 
L 1881 1375 
L 863 0 
L 184 0 
L 1544 1831 
L 300 3500 
L 978 3500 
L 1906 2253 
L 2834 3500 
L 3513 3500 
z
" transform="scale(0.015625)"/>
      </defs>
      <use xlink:href="#DejaVuSans-6d"/>
      <use xlink:href="#DejaVuSans-6f" x="97.412109"/>
      <use xlink:href="#DejaVuSans-64" x="158.59375"/>
      <use xlink:href="#DejaVuSans-65" x="222.070312"/>
      <use xlink:href="#DejaVuSans-6c" x="283.59375"/>
      <use xlink:href="#DejaVuSans-6e" x="311.376953"/>
      <use xlink:href="#DejaVuSans-61" x="374.755859"/>
      <use xlink:href="#DejaVuSans-6d" x="436.035156"/>
      <use xlink:href="#DejaVuSans-65" x="533.447266"/>
      <use xlink:href="#DejaVuSans-20" x="594.970703"/>
      <use xlink:href="#DejaVuSans-3d" x="626.757812"/>
      <use xlink:href="#DejaVuSans-20" x="710.546875"/>
      <use xlink:href="#DejaVuSans-78" x="742.333984"/>
      <use xlink:href="#DejaVuSans-6c" x="801.513672"/>
      <use xlink:href="#DejaVuSans-6d" x="829.296875"/>
      <use xlink:href="#DejaVuSans-2d" x="926.708984"/>
      <use xlink:href="#DejaVuSans-72" x="962.792969"/>
      <use xlink:href="#DejaVuSans-6f" x="1001.65625"/>
      <use xlink:href="#DejaVuSans-62" x="1062.837891"/>
      <use xlink:href="#DejaVuSans-65" x="1126.314453"/>
      <use xlink:href="#DejaVuSans-72" x="1187.837891"/>
      <use xlink:href="#DejaVuSans-74" x="1228.951172"/>
      <use xlink:href="#DejaVuSans-61" x="1268.160156"/>
      <use xlink:href="#DejaVuSans-2d" x="1329.439453"/>
      <use xlink:href="#DejaVuSans-62" x="1365.523438"/>
      <use xlink:href="#DejaVuSans-61" x="1429"/>
      <use xlink:href="#DejaVuSans-73" x="1490.279297"/>
      <use xlink:href="#DejaVuSans-65" x="1542.378906"/>
     </g>
    </g>
   </g>
  </g>
  <g id="text_20">
   <!-- recursive fn_False_128_False -->
   <g transform="translate(144.369375 16.030125) scale(0.12 -0.12)">
    <defs>
     <path id="DejaVuSans-5f" d="M 3263 -1063 
L 3263 -1509 
L -63 -1509 
L -63 -1063 
L 3263 -1063 
z
" transform="scale(0.015625)"/>
     <path id="DejaVuSans-46" d="M 628 4666 
L 3309 4666 
L 3309 4134 
L 1259 4134 
L 1259 2759 
L 3109 2759 
L 3109 2228 
L 1259 2228 
L 1259 0 
L 628 0 
L 628 4666 
z
" transform="scale(0.015625)"/>
    </defs>
    <use xlink:href="#DejaVuSans-72"/>
    <use xlink:href="#DejaVuSans-65" x="38.863281"/>
    <use xlink:href="#DejaVuSans-63" x="100.386719"/>
    <use xlink:href="#DejaVuSans-75" x="155.367188"/>
    <use xlink:href="#DejaVuSans-72" x="218.746094"/>
    <use xlink:href="#DejaVuSans-73" x="259.859375"/>
    <use xlink:href="#DejaVuSans-69" x="311.958984"/>
    <use xlink:href="#DejaVuSans-76" x="339.742188"/>
    <use xlink:href="#DejaVuSans-65" x="398.921875"/>
    <use xlink:href="#DejaVuSans-20" x="460.445312"/>
    <use xlink:href="#DejaVuSans-66" x="492.232422"/>
    <use xlink:href="#DejaVuSans-6e" x="527.4375"/>
    <use xlink:href="#DejaVuSans-5f" x="590.816406"/>
    <use xlink:href="#DejaVuSans-46" x="640.816406"/>
    <use xlink:href="#DejaVuSans-61" x="689.210938"/>
    <use xlink:href="#DejaVuSans-6c" x="750.490234"/>
    <use xlink:href="#DejaVuSans-73" x="778.273438"/>
    <use xlink:href="#DejaVuSans-65" x="830.373047"/>
    <use xlink:href="#DejaVuSans-5f" x="891.896484"/>
    <use xlink:href="#DejaVuSans-31" x="941.896484"/>
    <use xlink:href="#DejaVuSans-32" x="1005.519531"/>
    <use xlink:href="#DejaVuSans-38" x="1069.142578"/>
    <use xlink:href="#DejaVuSans-5f" x="1132.765625"/>
    <use xlink:href="#DejaVuSans-46" x="1182.765625"/>
    <use xlink:href="#DejaVuSans-61" x="1231.160156"/>
    <use xlink:href="#DejaVuSans-6c" x="1292.439453"/>
    <use xlink:href="#DejaVuSans-73" x="1320.222656"/>
    <use xlink:href="#DejaVuSans-65" x="1372.322266"/>
   </g>
  </g>
 </g>
 <defs>
  <clipPath id="pca5976e979">
   <rect x="57.6" y="41.472" width="357.12" height="266.112"/>
  </clipPath>
 </defs>
</svg>
