<?xml version="1.0" encoding="utf-8" standalone="no"?>
<!DOCTYPE svg PUBLIC "-//W3C//DTD SVG 1.1//EN"
  "http://www.w3.org/Graphics/SVG/1.1/DTD/svg11.dtd">
<svg xmlns:xlink="http://www.w3.org/1999/xlink" width="460.8pt" height="345.6pt" viewBox="0 0 460.8 345.6" xmlns="http://www.w3.org/2000/svg" version="1.1">
 <metadata>
  <rdf:RDF xmlns:dc="http://purl.org/dc/elements/1.1/" xmlns:cc="http://creativecommons.org/ns#" xmlns:rdf="http://www.w3.org/1999/02/22-rdf-syntax-ns#">
   <cc:Work>
    <dc:type rdf:resource="http://purl.org/dc/dcmitype/StillImage"/>
    <dc:date>2024-03-18T10:53:18.513889</dc:date>
    <dc:format>image/svg+xml</dc:format>
    <dc:creator>
     <cc:Agent>
      <dc:title>Matplotlib v3.6.3, https://matplotlib.org/</dc:title>
     </cc:Agent>
    </dc:creator>
   </cc:Work>
  </rdf:RDF>
 </metadata>
 <defs>
  <style type="text/css">*{stroke-linejoin: round; stroke-linecap: butt}</style>
 </defs>
 <g id="figure_1">
  <g id="patch_1">
   <path d="M 0 345.6 
L 460.8 345.6 
L 460.8 0 
L 0 0 
z
" style="fill: #ffffff"/>
  </g>
  <g id="axes_1">
   <g id="patch_2">
    <path d="M 57.6 307.584 
L 414.72 307.584 
L 414.72 41.472 
L 57.6 41.472 
z
" style="fill: #ffffff"/>
   </g>
   <g id="patch_3">
    <path d="M 73.832727 307.584 
L 91.869091 307.584 
L 91.869091 307.584 
L 73.832727 307.584 
z
" clip-path="url(#p6558e598d8)" style="fill: #ff7f0e; fill-opacity: 0.5; stroke: #000000; stroke-linejoin: miter"/>
   </g>
   <g id="patch_4">
    <path d="M 91.869091 307.584 
L 109.905455 307.584 
L 109.905455 305.341168 
L 91.869091 305.341168 
z
" clip-path="url(#p6558e598d8)" style="fill: #ff7f0e; fill-opacity: 0.5; stroke: #000000; stroke-linejoin: miter"/>
   </g>
   <g id="patch_5">
    <path d="M 109.905455 307.584 
L 127.941818 307.584 
L 127.941818 307.584 
L 109.905455 307.584 
z
" clip-path="url(#p6558e598d8)" style="fill: #ff7f0e; fill-opacity: 0.5; stroke: #000000; stroke-linejoin: miter"/>
   </g>
   <g id="patch_6">
    <path d="M 127.941818 307.584 
L 145.978182 307.584 
L 145.978182 307.584 
L 127.941818 307.584 
z
" clip-path="url(#p6558e598d8)" style="fill: #ff7f0e; fill-opacity: 0.5; stroke: #000000; stroke-linejoin: miter"/>
   </g>
   <g id="patch_7">
    <path d="M 145.978182 307.584 
L 164.014545 307.584 
L 164.014545 307.584 
L 145.978182 307.584 
z
" clip-path="url(#p6558e598d8)" style="fill: #ff7f0e; fill-opacity: 0.5; stroke: #000000; stroke-linejoin: miter"/>
   </g>
   <g id="patch_8">
    <path d="M 164.014545 307.584 
L 182.050909 307.584 
L 182.050909 300.855504 
L 164.014545 300.855504 
z
" clip-path="url(#p6558e598d8)" style="fill: #ff7f0e; fill-opacity: 0.5; stroke: #000000; stroke-linejoin: miter"/>
   </g>
   <g id="patch_9">
    <path d="M 182.050909 307.584 
L 200.087273 307.584 
L 200.087273 276.184354 
L 182.050909 276.184354 
z
" clip-path="url(#p6558e598d8)" style="fill: #ff7f0e; fill-opacity: 0.5; stroke: #000000; stroke-linejoin: miter"/>
   </g>
   <g id="patch_10">
    <path d="M 200.087273 307.584 
L 218.123636 307.584 
L 218.123636 249.270372 
L 200.087273 249.270372 
z
" clip-path="url(#p6558e598d8)" style="fill: #ff7f0e; fill-opacity: 0.5; stroke: #000000; stroke-linejoin: miter"/>
   </g>
   <g id="patch_11">
    <path d="M 218.123636 307.584 
L 236.16 307.584 
L 236.16 231.327717 
L 218.123636 231.327717 
z
" clip-path="url(#p6558e598d8)" style="fill: #ff7f0e; fill-opacity: 0.5; stroke: #000000; stroke-linejoin: miter"/>
   </g>
   <g id="patch_12">
    <path d="M 236.16 307.584 
L 254.196364 307.584 
L 254.196364 152.828602 
L 236.16 152.828602 
z
" clip-path="url(#p6558e598d8)" style="fill: #ff7f0e; fill-opacity: 0.5; stroke: #000000; stroke-linejoin: miter"/>
   </g>
   <g id="patch_13">
    <path d="M 254.196364 307.584 
L 272.232727 307.584 
L 272.232727 137.128779 
L 254.196364 137.128779 
z
" clip-path="url(#p6558e598d8)" style="fill: #ff7f0e; fill-opacity: 0.5; stroke: #000000; stroke-linejoin: miter"/>
   </g>
   <g id="patch_14">
    <path d="M 272.232727 307.584 
L 290.269091 307.584 
L 290.269091 90.02931 
L 272.232727 90.02931 
z
" clip-path="url(#p6558e598d8)" style="fill: #ff7f0e; fill-opacity: 0.5; stroke: #000000; stroke-linejoin: miter"/>
   </g>
   <g id="patch_15">
    <path d="M 290.269091 307.584 
L 308.305455 307.584 
L 308.305455 148.342938 
L 290.269091 148.342938 
z
" clip-path="url(#p6558e598d8)" style="fill: #ff7f0e; fill-opacity: 0.5; stroke: #000000; stroke-linejoin: miter"/>
   </g>
   <g id="patch_16">
    <path d="M 308.305455 307.584 
L 326.341818 307.584 
L 326.341818 170.771257 
L 308.305455 170.771257 
z
" clip-path="url(#p6558e598d8)" style="fill: #ff7f0e; fill-opacity: 0.5; stroke: #000000; stroke-linejoin: miter"/>
   </g>
   <g id="patch_17">
    <path d="M 326.341818 307.584 
L 344.378182 307.584 
L 344.378182 238.056212 
L 326.341818 238.056212 
z
" clip-path="url(#p6558e598d8)" style="fill: #ff7f0e; fill-opacity: 0.5; stroke: #000000; stroke-linejoin: miter"/>
   </g>
   <g id="patch_18">
    <path d="M 344.378182 307.584 
L 362.414545 307.584 
L 362.414545 282.91285 
L 344.378182 282.91285 
z
" clip-path="url(#p6558e598d8)" style="fill: #ff7f0e; fill-opacity: 0.5; stroke: #000000; stroke-linejoin: miter"/>
   </g>
   <g id="patch_19">
    <path d="M 362.414545 307.584 
L 380.450909 307.584 
L 380.450909 296.369841 
L 362.414545 296.369841 
z
" clip-path="url(#p6558e598d8)" style="fill: #ff7f0e; fill-opacity: 0.5; stroke: #000000; stroke-linejoin: miter"/>
   </g>
   <g id="patch_20">
    <path d="M 380.450909 307.584 
L 398.487273 307.584 
L 398.487273 305.341168 
L 380.450909 305.341168 
z
" clip-path="url(#p6558e598d8)" style="fill: #ff7f0e; fill-opacity: 0.5; stroke: #000000; stroke-linejoin: miter"/>
   </g>
   <g id="patch_21">
    <path d="M 73.832727 307.584 
L 91.869091 307.584 
L 91.869091 303.098336 
L 73.832727 303.098336 
z
" clip-path="url(#p6558e598d8)" style="fill: #1f77b4; fill-opacity: 0.5; stroke: #000000; stroke-linejoin: miter"/>
   </g>
   <g id="patch_22">
    <path d="M 91.869091 307.584 
L 109.905455 307.584 
L 109.905455 289.641345 
L 91.869091 289.641345 
z
" clip-path="url(#p6558e598d8)" style="fill: #1f77b4; fill-opacity: 0.5; stroke: #000000; stroke-linejoin: miter"/>
   </g>
   <g id="patch_23">
    <path d="M 109.905455 307.584 
L 127.941818 307.584 
L 127.941818 264.970195 
L 109.905455 264.970195 
z
" clip-path="url(#p6558e598d8)" style="fill: #1f77b4; fill-opacity: 0.5; stroke: #000000; stroke-linejoin: miter"/>
   </g>
   <g id="patch_24">
    <path d="M 127.941818 307.584 
L 145.978182 307.584 
L 145.978182 247.02754 
L 127.941818 247.02754 
z
" clip-path="url(#p6558e598d8)" style="fill: #1f77b4; fill-opacity: 0.5; stroke: #000000; stroke-linejoin: miter"/>
   </g>
   <g id="patch_25">
    <path d="M 145.978182 307.584 
L 164.014545 307.584 
L 164.014545 141.614442 
L 145.978182 141.614442 
z
" clip-path="url(#p6558e598d8)" style="fill: #1f77b4; fill-opacity: 0.5; stroke: #000000; stroke-linejoin: miter"/>
   </g>
   <g id="patch_26">
    <path d="M 164.014545 307.584 
L 182.050909 307.584 
L 182.050909 119.186124 
L 164.014545 119.186124 
z
" clip-path="url(#p6558e598d8)" style="fill: #1f77b4; fill-opacity: 0.5; stroke: #000000; stroke-linejoin: miter"/>
   </g>
   <g id="patch_27">
    <path d="M 182.050909 307.584 
L 200.087273 307.584 
L 200.087273 54.144 
L 182.050909 54.144 
z
" clip-path="url(#p6558e598d8)" style="fill: #1f77b4; fill-opacity: 0.5; stroke: #000000; stroke-linejoin: miter"/>
   </g>
   <g id="patch_28">
    <path d="M 200.087273 307.584 
L 218.123636 307.584 
L 218.123636 121.428956 
L 200.087273 121.428956 
z
" clip-path="url(#p6558e598d8)" style="fill: #1f77b4; fill-opacity: 0.5; stroke: #000000; stroke-linejoin: miter"/>
   </g>
   <g id="patch_29">
    <path d="M 218.123636 307.584 
L 236.16 307.584 
L 236.16 195.442407 
L 218.123636 195.442407 
z
" clip-path="url(#p6558e598d8)" style="fill: #1f77b4; fill-opacity: 0.5; stroke: #000000; stroke-linejoin: miter"/>
   </g>
   <g id="patch_30">
    <path d="M 236.16 307.584 
L 254.196364 307.584 
L 254.196364 258.241699 
L 236.16 258.241699 
z
" clip-path="url(#p6558e598d8)" style="fill: #1f77b4; fill-opacity: 0.5; stroke: #000000; stroke-linejoin: miter"/>
   </g>
   <g id="patch_31">
    <path d="M 254.196364 307.584 
L 272.232727 307.584 
L 272.232727 291.884177 
L 254.196364 291.884177 
z
" clip-path="url(#p6558e598d8)" style="fill: #1f77b4; fill-opacity: 0.5; stroke: #000000; stroke-linejoin: miter"/>
   </g>
   <g id="patch_32">
    <path d="M 272.232727 307.584 
L 290.269091 307.584 
L 290.269091 287.398513 
L 272.232727 287.398513 
z
" clip-path="url(#p6558e598d8)" style="fill: #1f77b4; fill-opacity: 0.5; stroke: #000000; stroke-linejoin: miter"/>
   </g>
   <g id="patch_33">
    <path d="M 290.269091 307.584 
L 308.305455 307.584 
L 308.305455 305.341168 
L 290.269091 305.341168 
z
" clip-path="url(#p6558e598d8)" style="fill: #1f77b4; fill-opacity: 0.5; stroke: #000000; stroke-linejoin: miter"/>
   </g>
   <g id="patch_34">
    <path d="M 308.305455 307.584 
L 326.341818 307.584 
L 326.341818 307.584 
L 308.305455 307.584 
z
" clip-path="url(#p6558e598d8)" style="fill: #1f77b4; fill-opacity: 0.5; stroke: #000000; stroke-linejoin: miter"/>
   </g>
   <g id="patch_35">
    <path d="M 326.341818 307.584 
L 344.378182 307.584 
L 344.378182 307.584 
L 326.341818 307.584 
z
" clip-path="url(#p6558e598d8)" style="fill: #1f77b4; fill-opacity: 0.5; stroke: #000000; stroke-linejoin: miter"/>
   </g>
   <g id="patch_36">
    <path d="M 344.378182 307.584 
L 362.414545 307.584 
L 362.414545 307.584 
L 344.378182 307.584 
z
" clip-path="url(#p6558e598d8)" style="fill: #1f77b4; fill-opacity: 0.5; stroke: #000000; stroke-linejoin: miter"/>
   </g>
   <g id="patch_37">
    <path d="M 362.414545 307.584 
L 380.450909 307.584 
L 380.450909 307.584 
L 362.414545 307.584 
z
" clip-path="url(#p6558e598d8)" style="fill: #1f77b4; fill-opacity: 0.5; stroke: #000000; stroke-linejoin: miter"/>
   </g>
   <g id="patch_38">
    <path d="M 380.450909 307.584 
L 398.487273 307.584 
L 398.487273 307.584 
L 380.450909 307.584 
z
" clip-path="url(#p6558e598d8)" style="fill: #1f77b4; fill-opacity: 0.5; stroke: #000000; stroke-linejoin: miter"/>
   </g>
   <g id="matplotlib.axis_1">
    <g id="xtick_1">
     <g id="line2d_1">
      <defs>
       <path id="m732013f4db" d="M 0 0 
L 0 3.5 
" style="stroke: #000000; stroke-width: 0.8"/>
      </defs>
      <g>
       <use xlink:href="#m732013f4db" x="65.444248" y="307.584" style="stroke: #000000; stroke-width: 0.8"/>
      </g>
     </g>
     <g id="text_1">
      <!-- 0.6975 -->
      <g transform="translate(47.948935 322.182437) scale(0.1 -0.1)">
       <defs>
        <path id="DejaVuSans-30" d="M 2034 4250 
Q 1547 4250 1301 3770 
Q 1056 3291 1056 2328 
Q 1056 1369 1301 889 
Q 1547 409 2034 409 
Q 2525 409 2770 889 
Q 3016 1369 3016 2328 
Q 3016 3291 2770 3770 
Q 2525 4250 2034 4250 
z
M 2034 4750 
Q 2819 4750 3233 4129 
Q 3647 3509 3647 2328 
Q 3647 1150 3233 529 
Q 2819 -91 2034 -91 
Q 1250 -91 836 529 
Q 422 1150 422 2328 
Q 422 3509 836 4129 
Q 1250 4750 2034 4750 
z
" transform="scale(0.015625)"/>
        <path id="DejaVuSans-2e" d="M 684 794 
L 1344 794 
L 1344 0 
L 684 0 
L 684 794 
z
" transform="scale(0.015625)"/>
        <path id="DejaVuSans-36" d="M 2113 2584 
Q 1688 2584 1439 2293 
Q 1191 2003 1191 1497 
Q 1191 994 1439 701 
Q 1688 409 2113 409 
Q 2538 409 2786 701 
Q 3034 994 3034 1497 
Q 3034 2003 2786 2293 
Q 2538 2584 2113 2584 
z
M 3366 4563 
L 3366 3988 
Q 3128 4100 2886 4159 
Q 2644 4219 2406 4219 
Q 1781 4219 1451 3797 
Q 1122 3375 1075 2522 
Q 1259 2794 1537 2939 
Q 1816 3084 2150 3084 
Q 2853 3084 3261 2657 
Q 3669 2231 3669 1497 
Q 3669 778 3244 343 
Q 2819 -91 2113 -91 
Q 1303 -91 875 529 
Q 447 1150 447 2328 
Q 447 3434 972 4092 
Q 1497 4750 2381 4750 
Q 2619 4750 2861 4703 
Q 3103 4656 3366 4563 
z
" transform="scale(0.015625)"/>
        <path id="DejaVuSans-39" d="M 703 97 
L 703 672 
Q 941 559 1184 500 
Q 1428 441 1663 441 
Q 2288 441 2617 861 
Q 2947 1281 2994 2138 
Q 2813 1869 2534 1725 
Q 2256 1581 1919 1581 
Q 1219 1581 811 2004 
Q 403 2428 403 3163 
Q 403 3881 828 4315 
Q 1253 4750 1959 4750 
Q 2769 4750 3195 4129 
Q 3622 3509 3622 2328 
Q 3622 1225 3098 567 
Q 2575 -91 1691 -91 
Q 1453 -91 1209 -44 
Q 966 3 703 97 
z
M 1959 2075 
Q 2384 2075 2632 2365 
Q 2881 2656 2881 3163 
Q 2881 3666 2632 3958 
Q 2384 4250 1959 4250 
Q 1534 4250 1286 3958 
Q 1038 3666 1038 3163 
Q 1038 2656 1286 2365 
Q 1534 2075 1959 2075 
z
" transform="scale(0.015625)"/>
        <path id="DejaVuSans-37" d="M 525 4666 
L 3525 4666 
L 3525 4397 
L 1831 0 
L 1172 0 
L 2766 4134 
L 525 4134 
L 525 4666 
z
" transform="scale(0.015625)"/>
        <path id="DejaVuSans-35" d="M 691 4666 
L 3169 4666 
L 3169 4134 
L 1269 4134 
L 1269 2991 
Q 1406 3038 1543 3061 
Q 1681 3084 1819 3084 
Q 2600 3084 3056 2656 
Q 3513 2228 3513 1497 
Q 3513 744 3044 326 
Q 2575 -91 1722 -91 
Q 1428 -91 1123 -41 
Q 819 9 494 109 
L 494 744 
Q 775 591 1075 516 
Q 1375 441 1709 441 
Q 2250 441 2565 725 
Q 2881 1009 2881 1497 
Q 2881 1984 2565 2268 
Q 2250 2553 1709 2553 
Q 1456 2553 1204 2497 
Q 953 2441 691 2322 
L 691 4666 
z
" transform="scale(0.015625)"/>
       </defs>
       <use xlink:href="#DejaVuSans-30"/>
       <use xlink:href="#DejaVuSans-2e" x="63.623047"/>
       <use xlink:href="#DejaVuSans-36" x="95.410156"/>
       <use xlink:href="#DejaVuSans-39" x="159.033203"/>
       <use xlink:href="#DejaVuSans-37" x="222.65625"/>
       <use xlink:href="#DejaVuSans-35" x="286.279297"/>
      </g>
     </g>
    </g>
    <g id="xtick_2">
     <g id="line2d_2">
      <g>
       <use xlink:href="#m732013f4db" x="114.487275" y="307.584" style="stroke: #000000; stroke-width: 0.8"/>
      </g>
     </g>
     <g id="text_2">
      <!-- 0.7000 -->
      <g transform="translate(96.991963 322.182437) scale(0.1 -0.1)">
       <use xlink:href="#DejaVuSans-30"/>
       <use xlink:href="#DejaVuSans-2e" x="63.623047"/>
       <use xlink:href="#DejaVuSans-37" x="95.410156"/>
       <use xlink:href="#DejaVuSans-30" x="159.033203"/>
       <use xlink:href="#DejaVuSans-30" x="222.65625"/>
       <use xlink:href="#DejaVuSans-30" x="286.279297"/>
      </g>
     </g>
    </g>
    <g id="xtick_3">
     <g id="line2d_3">
      <g>
       <use xlink:href="#m732013f4db" x="163.530303" y="307.584" style="stroke: #000000; stroke-width: 0.8"/>
      </g>
     </g>
     <g id="text_3">
      <!-- 0.7025 -->
      <g transform="translate(146.03499 322.182437) scale(0.1 -0.1)">
       <defs>
        <path id="DejaVuSans-32" d="M 1228 531 
L 3431 531 
L 3431 0 
L 469 0 
L 469 531 
Q 828 903 1448 1529 
Q 2069 2156 2228 2338 
Q 2531 2678 2651 2914 
Q 2772 3150 2772 3378 
Q 2772 3750 2511 3984 
Q 2250 4219 1831 4219 
Q 1534 4219 1204 4116 
Q 875 4013 500 3803 
L 500 4441 
Q 881 4594 1212 4672 
Q 1544 4750 1819 4750 
Q 2544 4750 2975 4387 
Q 3406 4025 3406 3419 
Q 3406 3131 3298 2873 
Q 3191 2616 2906 2266 
Q 2828 2175 2409 1742 
Q 1991 1309 1228 531 
z
" transform="scale(0.015625)"/>
       </defs>
       <use xlink:href="#DejaVuSans-30"/>
       <use xlink:href="#DejaVuSans-2e" x="63.623047"/>
       <use xlink:href="#DejaVuSans-37" x="95.410156"/>
       <use xlink:href="#DejaVuSans-30" x="159.033203"/>
       <use xlink:href="#DejaVuSans-32" x="222.65625"/>
       <use xlink:href="#DejaVuSans-35" x="286.279297"/>
      </g>
     </g>
    </g>
    <g id="xtick_4">
     <g id="line2d_4">
      <g>
       <use xlink:href="#m732013f4db" x="212.57333" y="307.584" style="stroke: #000000; stroke-width: 0.8"/>
      </g>
     </g>
     <g id="text_4">
      <!-- 0.7050 -->
      <g transform="translate(195.078018 322.182437) scale(0.1 -0.1)">
       <use xlink:href="#DejaVuSans-30"/>
       <use xlink:href="#DejaVuSans-2e" x="63.623047"/>
       <use xlink:href="#DejaVuSans-37" x="95.410156"/>
       <use xlink:href="#DejaVuSans-30" x="159.033203"/>
       <use xlink:href="#DejaVuSans-35" x="222.65625"/>
       <use xlink:href="#DejaVuSans-30" x="286.279297"/>
      </g>
     </g>
    </g>
    <g id="xtick_5">
     <g id="line2d_5">
      <g>
       <use xlink:href="#m732013f4db" x="261.616358" y="307.584" style="stroke: #000000; stroke-width: 0.8"/>
      </g>
     </g>
     <g id="text_5">
      <!-- 0.7075 -->
      <g transform="translate(244.121045 322.182437) scale(0.1 -0.1)">
       <use xlink:href="#DejaVuSans-30"/>
       <use xlink:href="#DejaVuSans-2e" x="63.623047"/>
       <use xlink:href="#DejaVuSans-37" x="95.410156"/>
       <use xlink:href="#DejaVuSans-30" x="159.033203"/>
       <use xlink:href="#DejaVuSans-37" x="222.65625"/>
       <use xlink:href="#DejaVuSans-35" x="286.279297"/>
      </g>
     </g>
    </g>
    <g id="xtick_6">
     <g id="line2d_6">
      <g>
       <use xlink:href="#m732013f4db" x="310.659386" y="307.584" style="stroke: #000000; stroke-width: 0.8"/>
      </g>
     </g>
     <g id="text_6">
      <!-- 0.7100 -->
      <g transform="translate(293.164073 322.182437) scale(0.1 -0.1)">
       <defs>
        <path id="DejaVuSans-31" d="M 794 531 
L 1825 531 
L 1825 4091 
L 703 3866 
L 703 4441 
L 1819 4666 
L 2450 4666 
L 2450 531 
L 3481 531 
L 3481 0 
L 794 0 
L 794 531 
z
" transform="scale(0.015625)"/>
       </defs>
       <use xlink:href="#DejaVuSans-30"/>
       <use xlink:href="#DejaVuSans-2e" x="63.623047"/>
       <use xlink:href="#DejaVuSans-37" x="95.410156"/>
       <use xlink:href="#DejaVuSans-31" x="159.033203"/>
       <use xlink:href="#DejaVuSans-30" x="222.65625"/>
       <use xlink:href="#DejaVuSans-30" x="286.279297"/>
      </g>
     </g>
    </g>
    <g id="xtick_7">
     <g id="line2d_7">
      <g>
       <use xlink:href="#m732013f4db" x="359.702413" y="307.584" style="stroke: #000000; stroke-width: 0.8"/>
      </g>
     </g>
     <g id="text_7">
      <!-- 0.7125 -->
      <g transform="translate(342.207101 322.182437) scale(0.1 -0.1)">
       <use xlink:href="#DejaVuSans-30"/>
       <use xlink:href="#DejaVuSans-2e" x="63.623047"/>
       <use xlink:href="#DejaVuSans-37" x="95.410156"/>
       <use xlink:href="#DejaVuSans-31" x="159.033203"/>
       <use xlink:href="#DejaVuSans-32" x="222.65625"/>
       <use xlink:href="#DejaVuSans-35" x="286.279297"/>
      </g>
     </g>
    </g>
    <g id="xtick_8">
     <g id="line2d_8">
      <g>
       <use xlink:href="#m732013f4db" x="408.745441" y="307.584" style="stroke: #000000; stroke-width: 0.8"/>
      </g>
     </g>
     <g id="text_8">
      <!-- 0.7150 -->
      <g transform="translate(391.250128 322.182437) scale(0.1 -0.1)">
       <use xlink:href="#DejaVuSans-30"/>
       <use xlink:href="#DejaVuSans-2e" x="63.623047"/>
       <use xlink:href="#DejaVuSans-37" x="95.410156"/>
       <use xlink:href="#DejaVuSans-31" x="159.033203"/>
       <use xlink:href="#DejaVuSans-35" x="222.65625"/>
       <use xlink:href="#DejaVuSans-30" x="286.279297"/>
      </g>
     </g>
    </g>
   </g>
   <g id="matplotlib.axis_2">
    <g id="ytick_1">
     <g id="line2d_9">
      <defs>
       <path id="m1b58899af2" d="M 0 0 
L -3.5 0 
" style="stroke: #000000; stroke-width: 0.8"/>
      </defs>
      <g>
       <use xlink:href="#m1b58899af2" x="57.6" y="307.584" style="stroke: #000000; stroke-width: 0.8"/>
      </g>
     </g>
     <g id="text_9">
      <!-- 0 -->
      <g transform="translate(44.2375 311.383219) scale(0.1 -0.1)">
       <use xlink:href="#DejaVuSans-30"/>
      </g>
     </g>
    </g>
    <g id="ytick_2">
     <g id="line2d_10">
      <g>
       <use xlink:href="#m1b58899af2" x="57.6" y="262.727363" style="stroke: #000000; stroke-width: 0.8"/>
      </g>
     </g>
     <g id="text_10">
      <!-- 20 -->
      <g transform="translate(37.875 266.526582) scale(0.1 -0.1)">
       <use xlink:href="#DejaVuSans-32"/>
       <use xlink:href="#DejaVuSans-30" x="63.623047"/>
      </g>
     </g>
    </g>
    <g id="ytick_3">
     <g id="line2d_11">
      <g>
       <use xlink:href="#m1b58899af2" x="57.6" y="217.870726" style="stroke: #000000; stroke-width: 0.8"/>
      </g>
     </g>
     <g id="text_11">
      <!-- 40 -->
      <g transform="translate(37.875 221.669944) scale(0.1 -0.1)">
       <defs>
        <path id="DejaVuSans-34" d="M 2419 4116 
L 825 1625 
L 2419 1625 
L 2419 4116 
z
M 2253 4666 
L 3047 4666 
L 3047 1625 
L 3713 1625 
L 3713 1100 
L 3047 1100 
L 3047 0 
L 2419 0 
L 2419 1100 
L 313 1100 
L 313 1709 
L 2253 4666 
z
" transform="scale(0.015625)"/>
       </defs>
       <use xlink:href="#DejaVuSans-34"/>
       <use xlink:href="#DejaVuSans-30" x="63.623047"/>
      </g>
     </g>
    </g>
    <g id="ytick_4">
     <g id="line2d_12">
      <g>
       <use xlink:href="#m1b58899af2" x="57.6" y="173.014088" style="stroke: #000000; stroke-width: 0.8"/>
      </g>
     </g>
     <g id="text_12">
      <!-- 60 -->
      <g transform="translate(37.875 176.813307) scale(0.1 -0.1)">
       <use xlink:href="#DejaVuSans-36"/>
       <use xlink:href="#DejaVuSans-30" x="63.623047"/>
      </g>
     </g>
    </g>
    <g id="ytick_5">
     <g id="line2d_13">
      <g>
       <use xlink:href="#m1b58899af2" x="57.6" y="128.157451" style="stroke: #000000; stroke-width: 0.8"/>
      </g>
     </g>
     <g id="text_13">
      <!-- 80 -->
      <g transform="translate(37.875 131.95667) scale(0.1 -0.1)">
       <defs>
        <path id="DejaVuSans-38" d="M 2034 2216 
Q 1584 2216 1326 1975 
Q 1069 1734 1069 1313 
Q 1069 891 1326 650 
Q 1584 409 2034 409 
Q 2484 409 2743 651 
Q 3003 894 3003 1313 
Q 3003 1734 2745 1975 
Q 2488 2216 2034 2216 
z
M 1403 2484 
Q 997 2584 770 2862 
Q 544 3141 544 3541 
Q 544 4100 942 4425 
Q 1341 4750 2034 4750 
Q 2731 4750 3128 4425 
Q 3525 4100 3525 3541 
Q 3525 3141 3298 2862 
Q 3072 2584 2669 2484 
Q 3125 2378 3379 2068 
Q 3634 1759 3634 1313 
Q 3634 634 3220 271 
Q 2806 -91 2034 -91 
Q 1263 -91 848 271 
Q 434 634 434 1313 
Q 434 1759 690 2068 
Q 947 2378 1403 2484 
z
M 1172 3481 
Q 1172 3119 1398 2916 
Q 1625 2713 2034 2713 
Q 2441 2713 2670 2916 
Q 2900 3119 2900 3481 
Q 2900 3844 2670 4047 
Q 2441 4250 2034 4250 
Q 1625 4250 1398 4047 
Q 1172 3844 1172 3481 
z
" transform="scale(0.015625)"/>
       </defs>
       <use xlink:href="#DejaVuSans-38"/>
       <use xlink:href="#DejaVuSans-30" x="63.623047"/>
      </g>
     </g>
    </g>
    <g id="ytick_6">
     <g id="line2d_14">
      <g>
       <use xlink:href="#m1b58899af2" x="57.6" y="83.300814" style="stroke: #000000; stroke-width: 0.8"/>
      </g>
     </g>
     <g id="text_14">
      <!-- 100 -->
      <g transform="translate(31.5125 87.100033) scale(0.1 -0.1)">
       <use xlink:href="#DejaVuSans-31"/>
       <use xlink:href="#DejaVuSans-30" x="63.623047"/>
       <use xlink:href="#DejaVuSans-30" x="127.246094"/>
      </g>
     </g>
    </g>
    <g id="text_15">
     <!-- Count -->
     <g transform="translate(25.432812 189.376437) rotate(-90) scale(0.1 -0.1)">
      <defs>
       <path id="DejaVuSans-43" d="M 4122 4306 
L 4122 3641 
Q 3803 3938 3442 4084 
Q 3081 4231 2675 4231 
Q 1875 4231 1450 3742 
Q 1025 3253 1025 2328 
Q 1025 1406 1450 917 
Q 1875 428 2675 428 
Q 3081 428 3442 575 
Q 3803 722 4122 1019 
L 4122 359 
Q 3791 134 3420 21 
Q 3050 -91 2638 -91 
Q 1578 -91 968 557 
Q 359 1206 359 2328 
Q 359 3453 968 4101 
Q 1578 4750 2638 4750 
Q 3056 4750 3426 4639 
Q 3797 4528 4122 4306 
z
" transform="scale(0.015625)"/>
       <path id="DejaVuSans-6f" d="M 1959 3097 
Q 1497 3097 1228 2736 
Q 959 2375 959 1747 
Q 959 1119 1226 758 
Q 1494 397 1959 397 
Q 2419 397 2687 759 
Q 2956 1122 2956 1747 
Q 2956 2369 2687 2733 
Q 2419 3097 1959 3097 
z
M 1959 3584 
Q 2709 3584 3137 3096 
Q 3566 2609 3566 1747 
Q 3566 888 3137 398 
Q 2709 -91 1959 -91 
Q 1206 -91 779 398 
Q 353 888 353 1747 
Q 353 2609 779 3096 
Q 1206 3584 1959 3584 
z
" transform="scale(0.015625)"/>
       <path id="DejaVuSans-75" d="M 544 1381 
L 544 3500 
L 1119 3500 
L 1119 1403 
Q 1119 906 1312 657 
Q 1506 409 1894 409 
Q 2359 409 2629 706 
Q 2900 1003 2900 1516 
L 2900 3500 
L 3475 3500 
L 3475 0 
L 2900 0 
L 2900 538 
Q 2691 219 2414 64 
Q 2138 -91 1772 -91 
Q 1169 -91 856 284 
Q 544 659 544 1381 
z
M 1991 3584 
L 1991 3584 
z
" transform="scale(0.015625)"/>
       <path id="DejaVuSans-6e" d="M 3513 2113 
L 3513 0 
L 2938 0 
L 2938 2094 
Q 2938 2591 2744 2837 
Q 2550 3084 2163 3084 
Q 1697 3084 1428 2787 
Q 1159 2491 1159 1978 
L 1159 0 
L 581 0 
L 581 3500 
L 1159 3500 
L 1159 2956 
Q 1366 3272 1645 3428 
Q 1925 3584 2291 3584 
Q 2894 3584 3203 3211 
Q 3513 2838 3513 2113 
z
" transform="scale(0.015625)"/>
       <path id="DejaVuSans-74" d="M 1172 4494 
L 1172 3500 
L 2356 3500 
L 2356 3053 
L 1172 3053 
L 1172 1153 
Q 1172 725 1289 603 
Q 1406 481 1766 481 
L 2356 481 
L 2356 0 
L 1766 0 
Q 1100 0 847 248 
Q 594 497 594 1153 
L 594 3053 
L 172 3053 
L 172 3500 
L 594 3500 
L 594 4494 
L 1172 4494 
z
" transform="scale(0.015625)"/>
      </defs>
      <use xlink:href="#DejaVuSans-43"/>
      <use xlink:href="#DejaVuSans-6f" x="69.824219"/>
      <use xlink:href="#DejaVuSans-75" x="131.005859"/>
      <use xlink:href="#DejaVuSans-6e" x="194.384766"/>
      <use xlink:href="#DejaVuSans-74" x="257.763672"/>
     </g>
    </g>
   </g>
   <g id="line2d_15">
    <path d="M 73.832727 307.573595 
L 85.252736 307.439488 
L 91.778456 307.168718 
L 109.724185 306.172604 
L 114.618474 306.299004 
L 122.775624 306.851367 
L 129.301343 307.250714 
L 135.827063 307.42169 
L 140.721352 307.369604 
L 145.615642 307.119161 
L 150.509931 306.602794 
L 155.404221 305.770904 
L 160.298511 304.616515 
L 163.56137 303.654233 
L 166.82423 302.482199 
L 170.08709 300.993679 
L 171.71852 300.083907 
L 173.34995 299.035617 
L 174.98138 297.828406 
L 176.61281 296.444727 
L 178.244239 294.87182 
L 179.875669 293.103423 
L 181.507099 291.141093 
L 184.769959 286.683956 
L 188.032819 281.682703 
L 194.558538 271.266572 
L 197.821398 266.516245 
L 201.084258 262.397801 
L 204.347117 258.961354 
L 207.609977 256.042051 
L 210.872837 253.255897 
L 212.504267 251.744658 
L 214.135697 250.053014 
L 215.767127 248.104841 
L 217.398556 245.829962 
L 219.029986 243.168897 
L 220.661416 240.076997 
L 222.292846 236.527556 
L 223.924276 232.513603 
L 225.555706 228.048247 
L 227.187136 223.163597 
L 230.449995 212.345154 
L 235.344285 194.55195 
L 240.238575 176.737035 
L 243.501434 165.75466 
L 246.764294 155.913037 
L 248.395724 151.475005 
L 250.027154 147.363078 
L 251.658584 143.56577 
L 253.290014 140.061756 
L 256.552873 133.814849 
L 259.815733 128.365406 
L 263.078593 123.506665 
L 266.341453 119.177883 
L 267.972883 117.243875 
L 269.604312 115.501301 
L 271.235742 113.987359 
L 272.867172 112.742032 
L 274.498602 111.80413 
L 276.130032 111.207466 
L 277.761462 110.977565 
L 279.392892 111.129217 
L 281.024322 111.665078 
L 282.655751 112.575436 
L 284.287181 113.83911 
L 285.918611 115.425391 
L 287.550041 117.296817 
L 289.181471 119.412526 
L 292.444331 124.217875 
L 295.70719 129.578386 
L 298.97005 135.367532 
L 302.23291 141.613111 
L 305.49577 148.443127 
L 308.75863 155.987916 
L 312.021489 164.293969 
L 315.284349 173.299031 
L 318.547209 182.876362 
L 323.441498 198.065086 
L 328.335788 214.028332 
L 336.492937 241.04524 
L 339.755797 251.061674 
L 343.018657 260.028955 
L 344.650087 264.025768 
L 346.281517 267.671023 
L 347.912947 270.960869 
L 349.544376 273.904302 
L 351.175806 276.521793 
L 352.807236 278.843191 
L 354.438666 280.905138 
L 356.070096 282.74827 
L 359.332956 285.944104 
L 362.595815 288.736258 
L 369.121535 293.893822 
L 374.015825 297.562455 
L 377.278684 299.775973 
L 380.541544 301.671042 
L 383.804404 303.168416 
L 387.067264 304.251317 
L 390.330123 304.968931 
L 393.592983 305.417928 
L 398.487273 305.830813 
L 398.487273 305.830813 
" clip-path="url(#p6558e598d8)" style="fill: none; stroke: #ff7f0e; stroke-width: 1.5; stroke-linecap: square"/>
   </g>
   <g id="line2d_16">
    <path d="M 73.832727 304.819207 
L 80.358447 303.769174 
L 83.621307 302.981216 
L 85.252736 302.43722 
L 86.884166 301.75719 
L 88.515596 300.91752 
L 90.147026 299.90049 
L 91.778456 298.696494 
L 93.409886 297.305477 
L 95.041316 295.737275 
L 98.304175 292.151353 
L 101.567035 288.152022 
L 108.092755 279.69489 
L 116.249904 268.82745 
L 127.669913 253.292534 
L 129.301343 250.766991 
L 130.932773 247.946824 
L 132.564203 244.714901 
L 134.195633 240.953125 
L 135.827063 236.555846 
L 137.458492 231.44369 
L 139.089922 225.575904 
L 140.721352 218.959379 
L 142.352782 211.652953 
L 145.615642 195.453253 
L 150.509931 169.904547 
L 153.772791 154.366688 
L 155.404221 147.540251 
L 157.035651 141.471567 
L 158.667081 136.195813 
L 160.298511 131.696585 
L 161.929941 127.907967 
L 163.56137 124.719761 
L 165.1928 121.985866 
L 171.71852 112.133002 
L 173.34995 109.165007 
L 174.98138 105.813411 
L 176.61281 102.088451 
L 183.138529 85.837042 
L 184.769959 82.41195 
L 186.401389 79.676621 
L 188.032819 77.810807 
L 189.664249 76.944879 
L 191.295678 77.151018 
L 192.927108 78.441483 
L 194.558538 80.77335 
L 196.189968 84.058278 
L 197.821398 88.175346 
L 199.452828 92.984942 
L 201.084258 98.341915 
L 204.347117 110.153561 
L 219.029986 166.013754 
L 223.924276 183.463352 
L 230.449995 205.709495 
L 238.607145 232.595913 
L 243.501434 248.055082 
L 246.764294 257.593386 
L 250.027154 266.095706 
L 251.658584 269.844647 
L 253.290014 273.206282 
L 254.921444 276.150663 
L 256.552873 278.658449 
L 258.184303 280.723381 
L 259.815733 282.354433 
L 261.447163 283.577288 
L 263.078593 284.434777 
L 264.710023 284.985956 
L 266.341453 285.303623 
L 272.867172 285.915225 
L 274.498602 286.293744 
L 276.130032 286.873937 
L 277.761462 287.676857 
L 279.392892 288.701199 
L 281.024322 289.925052 
L 284.287181 292.804877 
L 289.181471 297.40308 
L 292.444331 300.100322 
L 294.075761 301.253323 
L 295.70719 302.264951 
L 297.33862 303.138889 
L 300.60148 304.518263 
L 303.86434 305.50462 
L 307.1272 306.208758 
L 310.390059 306.710204 
L 315.284349 307.187379 
L 320.178639 307.431813 
L 328.335788 307.564076 
L 356.070096 307.584 
L 398.487273 307.584 
L 398.487273 307.584 
" clip-path="url(#p6558e598d8)" style="fill: none; stroke: #1f77b4; stroke-width: 1.5; stroke-linecap: square"/>
   </g>
   <g id="patch_39">
    <path d="M 57.6 307.584 
L 57.6 41.472 
" style="fill: none; stroke: #000000; stroke-width: 0.8; stroke-linejoin: miter; stroke-linecap: square"/>
   </g>
   <g id="patch_40">
    <path d="M 414.72 307.584 
L 414.72 41.472 
" style="fill: none; stroke: #000000; stroke-width: 0.8; stroke-linejoin: miter; stroke-linecap: square"/>
   </g>
   <g id="patch_41">
    <path d="M 57.6 307.584 
L 414.72 307.584 
" style="fill: none; stroke: #000000; stroke-width: 0.8; stroke-linejoin: miter; stroke-linecap: square"/>
   </g>
   <g id="patch_42">
    <path d="M 57.6 41.472 
L 414.72 41.472 
" style="fill: none; stroke: #000000; stroke-width: 0.8; stroke-linejoin: miter; stroke-linecap: square"/>
   </g>
   <g id="legend_1">
    <g id="patch_43">
     <path d="M 263.546562 79.3845 
L 407.72 79.3845 
Q 409.72 79.3845 409.72 77.3845 
L 409.72 48.472 
Q 409.72 46.472 407.72 46.472 
L 263.546562 46.472 
Q 261.546562 46.472 261.546562 48.472 
L 261.546562 77.3845 
Q 261.546562 79.3845 263.546562 79.3845 
z
" style="fill: #ffffff; opacity: 0.8; stroke: #cccccc; stroke-linejoin: miter"/>
    </g>
    <g id="patch_44">
     <path d="M 265.546562 58.070438 
L 285.546562 58.070438 
L 285.546562 51.070438 
L 265.546562 51.070438 
z
" style="fill: #1f77b4; fill-opacity: 0.5; stroke: #000000; stroke-linejoin: miter"/>
    </g>
    <g id="text_16">
     <!-- perfect_match = False -->
     <g transform="translate(293.546562 58.070438) scale(0.1 -0.1)">
      <defs>
       <path id="DejaVuSans-70" d="M 1159 525 
L 1159 -1331 
L 581 -1331 
L 581 3500 
L 1159 3500 
L 1159 2969 
Q 1341 3281 1617 3432 
Q 1894 3584 2278 3584 
Q 2916 3584 3314 3078 
Q 3713 2572 3713 1747 
Q 3713 922 3314 415 
Q 2916 -91 2278 -91 
Q 1894 -91 1617 61 
Q 1341 213 1159 525 
z
M 3116 1747 
Q 3116 2381 2855 2742 
Q 2594 3103 2138 3103 
Q 1681 3103 1420 2742 
Q 1159 2381 1159 1747 
Q 1159 1113 1420 752 
Q 1681 391 2138 391 
Q 2594 391 2855 752 
Q 3116 1113 3116 1747 
z
" transform="scale(0.015625)"/>
       <path id="DejaVuSans-65" d="M 3597 1894 
L 3597 1613 
L 953 1613 
Q 991 1019 1311 708 
Q 1631 397 2203 397 
Q 2534 397 2845 478 
Q 3156 559 3463 722 
L 3463 178 
Q 3153 47 2828 -22 
Q 2503 -91 2169 -91 
Q 1331 -91 842 396 
Q 353 884 353 1716 
Q 353 2575 817 3079 
Q 1281 3584 2069 3584 
Q 2775 3584 3186 3129 
Q 3597 2675 3597 1894 
z
M 3022 2063 
Q 3016 2534 2758 2815 
Q 2500 3097 2075 3097 
Q 1594 3097 1305 2825 
Q 1016 2553 972 2059 
L 3022 2063 
z
" transform="scale(0.015625)"/>
       <path id="DejaVuSans-72" d="M 2631 2963 
Q 2534 3019 2420 3045 
Q 2306 3072 2169 3072 
Q 1681 3072 1420 2755 
Q 1159 2438 1159 1844 
L 1159 0 
L 581 0 
L 581 3500 
L 1159 3500 
L 1159 2956 
Q 1341 3275 1631 3429 
Q 1922 3584 2338 3584 
Q 2397 3584 2469 3576 
Q 2541 3569 2628 3553 
L 2631 2963 
z
" transform="scale(0.015625)"/>
       <path id="DejaVuSans-66" d="M 2375 4863 
L 2375 4384 
L 1825 4384 
Q 1516 4384 1395 4259 
Q 1275 4134 1275 3809 
L 1275 3500 
L 2222 3500 
L 2222 3053 
L 1275 3053 
L 1275 0 
L 697 0 
L 697 3053 
L 147 3053 
L 147 3500 
L 697 3500 
L 697 3744 
Q 697 4328 969 4595 
Q 1241 4863 1831 4863 
L 2375 4863 
z
" transform="scale(0.015625)"/>
       <path id="DejaVuSans-63" d="M 3122 3366 
L 3122 2828 
Q 2878 2963 2633 3030 
Q 2388 3097 2138 3097 
Q 1578 3097 1268 2742 
Q 959 2388 959 1747 
Q 959 1106 1268 751 
Q 1578 397 2138 397 
Q 2388 397 2633 464 
Q 2878 531 3122 666 
L 3122 134 
Q 2881 22 2623 -34 
Q 2366 -91 2075 -91 
Q 1284 -91 818 406 
Q 353 903 353 1747 
Q 353 2603 823 3093 
Q 1294 3584 2113 3584 
Q 2378 3584 2631 3529 
Q 2884 3475 3122 3366 
z
" transform="scale(0.015625)"/>
       <path id="DejaVuSans-5f" d="M 3263 -1063 
L 3263 -1509 
L -63 -1509 
L -63 -1063 
L 3263 -1063 
z
" transform="scale(0.015625)"/>
       <path id="DejaVuSans-6d" d="M 3328 2828 
Q 3544 3216 3844 3400 
Q 4144 3584 4550 3584 
Q 5097 3584 5394 3201 
Q 5691 2819 5691 2113 
L 5691 0 
L 5113 0 
L 5113 2094 
Q 5113 2597 4934 2840 
Q 4756 3084 4391 3084 
Q 3944 3084 3684 2787 
Q 3425 2491 3425 1978 
L 3425 0 
L 2847 0 
L 2847 2094 
Q 2847 2600 2669 2842 
Q 2491 3084 2119 3084 
Q 1678 3084 1418 2786 
Q 1159 2488 1159 1978 
L 1159 0 
L 581 0 
L 581 3500 
L 1159 3500 
L 1159 2956 
Q 1356 3278 1631 3431 
Q 1906 3584 2284 3584 
Q 2666 3584 2933 3390 
Q 3200 3197 3328 2828 
z
" transform="scale(0.015625)"/>
       <path id="DejaVuSans-61" d="M 2194 1759 
Q 1497 1759 1228 1600 
Q 959 1441 959 1056 
Q 959 750 1161 570 
Q 1363 391 1709 391 
Q 2188 391 2477 730 
Q 2766 1069 2766 1631 
L 2766 1759 
L 2194 1759 
z
M 3341 1997 
L 3341 0 
L 2766 0 
L 2766 531 
Q 2569 213 2275 61 
Q 1981 -91 1556 -91 
Q 1019 -91 701 211 
Q 384 513 384 1019 
Q 384 1609 779 1909 
Q 1175 2209 1959 2209 
L 2766 2209 
L 2766 2266 
Q 2766 2663 2505 2880 
Q 2244 3097 1772 3097 
Q 1472 3097 1187 3025 
Q 903 2953 641 2809 
L 641 3341 
Q 956 3463 1253 3523 
Q 1550 3584 1831 3584 
Q 2591 3584 2966 3190 
Q 3341 2797 3341 1997 
z
" transform="scale(0.015625)"/>
       <path id="DejaVuSans-68" d="M 3513 2113 
L 3513 0 
L 2938 0 
L 2938 2094 
Q 2938 2591 2744 2837 
Q 2550 3084 2163 3084 
Q 1697 3084 1428 2787 
Q 1159 2491 1159 1978 
L 1159 0 
L 581 0 
L 581 4863 
L 1159 4863 
L 1159 2956 
Q 1366 3272 1645 3428 
Q 1925 3584 2291 3584 
Q 2894 3584 3203 3211 
Q 3513 2838 3513 2113 
z
" transform="scale(0.015625)"/>
       <path id="DejaVuSans-20" transform="scale(0.015625)"/>
       <path id="DejaVuSans-3d" d="M 678 2906 
L 4684 2906 
L 4684 2381 
L 678 2381 
L 678 2906 
z
M 678 1631 
L 4684 1631 
L 4684 1100 
L 678 1100 
L 678 1631 
z
" transform="scale(0.015625)"/>
       <path id="DejaVuSans-46" d="M 628 4666 
L 3309 4666 
L 3309 4134 
L 1259 4134 
L 1259 2759 
L 3109 2759 
L 3109 2228 
L 1259 2228 
L 1259 0 
L 628 0 
L 628 4666 
z
" transform="scale(0.015625)"/>
       <path id="DejaVuSans-6c" d="M 603 4863 
L 1178 4863 
L 1178 0 
L 603 0 
L 603 4863 
z
" transform="scale(0.015625)"/>
       <path id="DejaVuSans-73" d="M 2834 3397 
L 2834 2853 
Q 2591 2978 2328 3040 
Q 2066 3103 1784 3103 
Q 1356 3103 1142 2972 
Q 928 2841 928 2578 
Q 928 2378 1081 2264 
Q 1234 2150 1697 2047 
L 1894 2003 
Q 2506 1872 2764 1633 
Q 3022 1394 3022 966 
Q 3022 478 2636 193 
Q 2250 -91 1575 -91 
Q 1294 -91 989 -36 
Q 684 19 347 128 
L 347 722 
Q 666 556 975 473 
Q 1284 391 1588 391 
Q 1994 391 2212 530 
Q 2431 669 2431 922 
Q 2431 1156 2273 1281 
Q 2116 1406 1581 1522 
L 1381 1569 
Q 847 1681 609 1914 
Q 372 2147 372 2553 
Q 372 3047 722 3315 
Q 1072 3584 1716 3584 
Q 2034 3584 2315 3537 
Q 2597 3491 2834 3397 
z
" transform="scale(0.015625)"/>
      </defs>
      <use xlink:href="#DejaVuSans-70"/>
      <use xlink:href="#DejaVuSans-65" x="63.476562"/>
      <use xlink:href="#DejaVuSans-72" x="125"/>
      <use xlink:href="#DejaVuSans-66" x="166.113281"/>
      <use xlink:href="#DejaVuSans-65" x="201.318359"/>
      <use xlink:href="#DejaVuSans-63" x="262.841797"/>
      <use xlink:href="#DejaVuSans-74" x="317.822266"/>
      <use xlink:href="#DejaVuSans-5f" x="357.03125"/>
      <use xlink:href="#DejaVuSans-6d" x="407.03125"/>
      <use xlink:href="#DejaVuSans-61" x="504.443359"/>
      <use xlink:href="#DejaVuSans-74" x="565.722656"/>
      <use xlink:href="#DejaVuSans-63" x="604.931641"/>
      <use xlink:href="#DejaVuSans-68" x="659.912109"/>
      <use xlink:href="#DejaVuSans-20" x="723.291016"/>
      <use xlink:href="#DejaVuSans-3d" x="755.078125"/>
      <use xlink:href="#DejaVuSans-20" x="838.867188"/>
      <use xlink:href="#DejaVuSans-46" x="870.654297"/>
      <use xlink:href="#DejaVuSans-61" x="919.048828"/>
      <use xlink:href="#DejaVuSans-6c" x="980.328125"/>
      <use xlink:href="#DejaVuSans-73" x="1008.111328"/>
      <use xlink:href="#DejaVuSans-65" x="1060.210938"/>
     </g>
    </g>
    <g id="patch_45">
     <path d="M 265.546562 73.026688 
L 285.546562 73.026688 
L 285.546562 66.026688 
L 265.546562 66.026688 
z
" style="fill: #ff7f0e; fill-opacity: 0.5; stroke: #000000; stroke-linejoin: miter"/>
    </g>
    <g id="text_17">
     <!-- perfect_match = True -->
     <g transform="translate(293.546562 73.026688) scale(0.1 -0.1)">
      <defs>
       <path id="DejaVuSans-54" d="M -19 4666 
L 3928 4666 
L 3928 4134 
L 2272 4134 
L 2272 0 
L 1638 0 
L 1638 4134 
L -19 4134 
L -19 4666 
z
" transform="scale(0.015625)"/>
      </defs>
      <use xlink:href="#DejaVuSans-70"/>
      <use xlink:href="#DejaVuSans-65" x="63.476562"/>
      <use xlink:href="#DejaVuSans-72" x="125"/>
      <use xlink:href="#DejaVuSans-66" x="166.113281"/>
      <use xlink:href="#DejaVuSans-65" x="201.318359"/>
      <use xlink:href="#DejaVuSans-63" x="262.841797"/>
      <use xlink:href="#DejaVuSans-74" x="317.822266"/>
      <use xlink:href="#DejaVuSans-5f" x="357.03125"/>
      <use xlink:href="#DejaVuSans-6d" x="407.03125"/>
      <use xlink:href="#DejaVuSans-61" x="504.443359"/>
      <use xlink:href="#DejaVuSans-74" x="565.722656"/>
      <use xlink:href="#DejaVuSans-63" x="604.931641"/>
      <use xlink:href="#DejaVuSans-68" x="659.912109"/>
      <use xlink:href="#DejaVuSans-20" x="723.291016"/>
      <use xlink:href="#DejaVuSans-3d" x="755.078125"/>
      <use xlink:href="#DejaVuSans-20" x="838.867188"/>
      <use xlink:href="#DejaVuSans-54" x="870.654297"/>
      <use xlink:href="#DejaVuSans-72" x="916.988281"/>
      <use xlink:href="#DejaVuSans-75" x="958.101562"/>
      <use xlink:href="#DejaVuSans-65" x="1021.480469"/>
     </g>
    </g>
   </g>
  </g>
  <g id="text_18">
   <!-- stock_False_roberta-base_128 -->
   <g transform="translate(140.492813 16.030125) scale(0.12 -0.12)">
    <defs>
     <path id="DejaVuSans-6b" d="M 581 4863 
L 1159 4863 
L 1159 1991 
L 2875 3500 
L 3609 3500 
L 1753 1863 
L 3688 0 
L 2938 0 
L 1159 1709 
L 1159 0 
L 581 0 
L 581 4863 
z
" transform="scale(0.015625)"/>
     <path id="DejaVuSans-62" d="M 3116 1747 
Q 3116 2381 2855 2742 
Q 2594 3103 2138 3103 
Q 1681 3103 1420 2742 
Q 1159 2381 1159 1747 
Q 1159 1113 1420 752 
Q 1681 391 2138 391 
Q 2594 391 2855 752 
Q 3116 1113 3116 1747 
z
M 1159 2969 
Q 1341 3281 1617 3432 
Q 1894 3584 2278 3584 
Q 2916 3584 3314 3078 
Q 3713 2572 3713 1747 
Q 3713 922 3314 415 
Q 2916 -91 2278 -91 
Q 1894 -91 1617 61 
Q 1341 213 1159 525 
L 1159 0 
L 581 0 
L 581 4863 
L 1159 4863 
L 1159 2969 
z
" transform="scale(0.015625)"/>
     <path id="DejaVuSans-2d" d="M 313 2009 
L 1997 2009 
L 1997 1497 
L 313 1497 
L 313 2009 
z
" transform="scale(0.015625)"/>
    </defs>
    <use xlink:href="#DejaVuSans-73"/>
    <use xlink:href="#DejaVuSans-74" x="52.099609"/>
    <use xlink:href="#DejaVuSans-6f" x="91.308594"/>
    <use xlink:href="#DejaVuSans-63" x="152.490234"/>
    <use xlink:href="#DejaVuSans-6b" x="207.470703"/>
    <use xlink:href="#DejaVuSans-5f" x="265.380859"/>
    <use xlink:href="#DejaVuSans-46" x="315.380859"/>
    <use xlink:href="#DejaVuSans-61" x="363.775391"/>
    <use xlink:href="#DejaVuSans-6c" x="425.054688"/>
    <use xlink:href="#DejaVuSans-73" x="452.837891"/>
    <use xlink:href="#DejaVuSans-65" x="504.9375"/>
    <use xlink:href="#DejaVuSans-5f" x="566.460938"/>
    <use xlink:href="#DejaVuSans-72" x="616.460938"/>
    <use xlink:href="#DejaVuSans-6f" x="655.324219"/>
    <use xlink:href="#DejaVuSans-62" x="716.505859"/>
    <use xlink:href="#DejaVuSans-65" x="779.982422"/>
    <use xlink:href="#DejaVuSans-72" x="841.505859"/>
    <use xlink:href="#DejaVuSans-74" x="882.619141"/>
    <use xlink:href="#DejaVuSans-61" x="921.828125"/>
    <use xlink:href="#DejaVuSans-2d" x="983.107422"/>
    <use xlink:href="#DejaVuSans-62" x="1019.191406"/>
    <use xlink:href="#DejaVuSans-61" x="1082.667969"/>
    <use xlink:href="#DejaVuSans-73" x="1143.947266"/>
    <use xlink:href="#DejaVuSans-65" x="1196.046875"/>
    <use xlink:href="#DejaVuSans-5f" x="1257.570312"/>
    <use xlink:href="#DejaVuSans-31" x="1307.570312"/>
    <use xlink:href="#DejaVuSans-32" x="1371.193359"/>
    <use xlink:href="#DejaVuSans-38" x="1434.816406"/>
   </g>
  </g>
 </g>
 <defs>
  <clipPath id="p6558e598d8">
   <rect x="57.6" y="41.472" width="357.12" height="266.112"/>
  </clipPath>
 </defs>
</svg>
